<svg width="24" height="24" viewBox="0 0 24 24" fill="none" xmlns="http://www.w3.org/2000/svg">
<rect y="3" width="24" height="18" rx="2" fill="white"/>
<path fill-rule="evenodd" clip-rule="evenodd" d="M22 4H2C1.44772 4 1 4.44772 1 5V19C1 19.5523 1.44772 20 2 20H22C22.5523 20 23 19.5523 23 19V5C23 4.44771 22.5523 4 22 4ZM2 3C0.895431 3 0 3.89543 0 5V19C0 20.1046 0.89543 21 2 21H22C23.1046 21 24 20.1046 24 19V5C24 3.89543 23.1046 3 22 3H2Z" fill="#D6D8DE"/>
<path fill-rule="evenodd" clip-rule="evenodd" d="M4.57764e-05 5C4.57764e-05 3.89543 0.895476 3 2.00005 3H12.8572V10.7143H4.57764e-05V5ZM7.71433 7.5C7.71433 8.56512 7.1387 9.42857 6.42862 9.42857C5.71854 9.42857 5.1429 8.56512 5.1429 7.5C5.1429 6.43488 5.71854 5.57143 6.42862 5.57143C7.1387 5.57143 7.71433 6.43488 7.71433 7.5ZM6.18325 4.59825L6.30971 4.20909L5.97862 3.96855H6.38786L6.51434 3.5793L6.64081 3.96855H7.05L6.71896 4.20909L6.84542 4.59825L6.51433 4.3577L6.18325 4.59825ZM8.55332 4.37505L8.42685 3.98581L8.30039 4.37505H7.89119L8.22224 4.61551L8.09576 5.00485L8.42687 4.76421L8.75799 5.00485L8.63149 4.6156L8.96256 4.37505H8.55332ZM10.5987 5.58581L10.2676 5.82636L10.3942 6.21552L10.063 5.97497L9.73188 6.21552L9.85834 5.82627L9.52734 5.58581H9.93652L10.063 5.19657L10.1894 5.58581H10.5987ZM11.2156 7.53639L11.5466 7.29585H11.1374L11.011 6.9066L10.8845 7.29585H10.4752L10.8063 7.53639L10.6799 7.92564L11.011 7.6851L11.3421 7.92564L11.2156 7.53639ZM4.60191 3.98581L4.72836 4.37505H5.13762L4.80653 4.6156L4.93299 5.00485L4.60191 4.76421L4.27082 5.00485L4.39729 4.6156L4.06619 4.37505H4.47545L4.60191 3.98581ZM3.09216 5.58581L2.96569 5.19657L2.83922 5.58581H2.43003L2.76107 5.82627L2.6346 6.21552L2.96571 5.97497L3.29683 6.21552L3.17033 5.82636L3.50139 5.58581H3.09216ZM2.01778 6.9066L2.14424 7.29585H2.55349L2.2224 7.53639L2.34886 7.92564L2.01778 7.6851L1.68669 7.92564L1.81316 7.53639L1.48206 7.29585H1.89132L2.01778 6.9066Z" fill="#F64E4E"/>
<path d="M12.8571 3H22C23.1046 3 24 3.89543 24 5V5.57143H12.8571V3Z" fill="#1BA049"/>
<path d="M12.8571 8.14286H24V10.7143H12.8571V8.14286Z" fill="#1BA049"/>
<path d="M0 13.2857H24V15.8571H0V13.2857Z" fill="#1BA049"/>
<path d="M0 18.4286H24V19C24 20.1046 23.1046 21 22 21H2C0.89543 21 0 20.1046 0 19V18.4286Z" fill="#1BA049"/>
</svg>
