<svg xmlns="http://www.w3.org/2000/svg" viewBox="0 0 24 24">
  <defs/>
  <path fill-rule="evenodd" d="M8.552 6.667l1.44 6.32H5.3a1.3 1.3 0 00-1.274 1.554l.209 1.051a3 3 0 002.942 2.414h9.078a3 3 0 002.942-2.414l.21-1.05a1.3 1.3 0 00-1.276-1.555H13.56l1.371-6.354A3 3 0 0012 3h-.522a3 3 0 00-2.925 3.667zM11.999 4.3h-.522a1.7 1.7 0 00-1.658 2.078l1.507 6.61h.904l1.43-6.63A1.7 1.7 0 0012 4.3zM5.3 14.287h12.831l-.21 1.051a1.7 1.7 0 01-1.666 1.368H7.177A1.7 1.7 0 015.51 15.34l-.21-1.052z"/>
  <path d="M6.792 19.665a.65.65 0 100 1.3h9.848a.65.65 0 000-1.3H6.792z"/>
</svg>
