<svg xmlns="http://www.w3.org/2000/svg" viewBox="0 0 24 24">
  <defs/>
  <path fill-rule="evenodd" d="M15.1 3.3H7.075a1.7 1.7 0 00-1.7 1.7v10.028a1.7 1.7 0 001.7 1.7h4.433a.65.65 0 110 1.3H7.074a3 3 0 01-3-3V5a3 3 0 013-3h8.027a3 3 0 013 3v6.408a.65.65 0 11-1.3 0V5a1.7 1.7 0 00-1.7-1.7zM7.43 6.548a.65.65 0 01.65-.65h6.02a.65.65 0 110 1.3h-6.02a.65.65 0 01-.65-.65zm.65 2.883a.65.65 0 100 1.3h2.627a.65.65 0 000-1.3H8.079zm9.261 11.572a.65.65 0 01-.65-.65v-2.36h-2.36a.65.65 0 010-1.3h2.36v-2.36a.65.65 0 111.3 0v2.36h2.36a.65.65 0 110 1.3h-2.36v2.36a.65.65 0 01-.65.65z"/>
</svg>
