<svg width="24" height="24" viewBox="0 0 24 24" fill="none" xmlns="http://www.w3.org/2000/svg">
<rect y="3" width="24" height="18" rx="2" fill="white"/>
<path d="M16.2857 3H22C23.1046 3 24 3.89543 24 5V19C24 20.1046 23.1046 21 22 21H16.2857V3Z" fill="#1BA049"/>
<path fill-rule="evenodd" clip-rule="evenodd" d="M0 19C0 20.1046 0.895431 21 2 21H7.71429V3H2C0.895432 3 0 3.89543 0 5V19Z" fill="#37383C"/>
<path fill-rule="evenodd" clip-rule="evenodd" d="M16.2857 21H7.71428V3H16.2857V21ZM12.0001 12.6001C12.6313 12.6001 13.1429 11.7942 13.1429 10.8001C13.1429 9.80596 12.6313 9.00007 12.0001 9.00007C11.3689 9.00007 10.8572 9.80596 10.8572 10.8001C10.8572 11.7942 11.3689 12.6001 12.0001 12.6001ZM9.71425 10.8C10.0298 10.8 10.2857 11.0686 10.2857 11.4C10.2857 12.0646 10.6285 12.6459 11.1413 12.9583C11.4142 13.1246 11.5071 13.4918 11.3487 13.7784C11.1904 14.065 10.8407 14.1626 10.5677 13.9963C9.717 13.478 9.14282 12.5097 9.14282 11.4C9.14282 11.0686 9.39866 10.8 9.71425 10.8ZM14.2857 10.8C14.6013 10.8 14.8571 11.0686 14.8571 11.4C14.8571 12.4632 14.3299 13.3968 13.5377 13.9287C13.2719 14.1073 12.9185 14.0257 12.7484 13.7466C12.5784 13.4674 12.6561 13.0964 12.922 12.9178C13.3996 12.597 13.7143 12.0369 13.7143 11.4C13.7143 11.0686 13.9701 10.8 14.2857 10.8Z" fill="#F64E4E"/>
</svg>
