<svg xmlns="http://www.w3.org/2000/svg" viewBox="0 0 24 24">
  <defs/>
  <path fill-rule="evenodd" d="M14.534 19.7a.65.65 0 100 1.3h5.665a.65.65 0 000-1.3h-5.665zM4.117 20.802l6.93-7.163 2.504 2.504.026.026-1.234 1.234a.65.65 0 10.919.92l7.397-7.397a.65.65 0 10-.92-.92l-1.208 1.209-.026-.026-5.795-5.795-.017-.017L14.01 4.06a.65.65 0 10-.92-.919l-7.587 7.587a.65.65 0 10.92.92l1.316-1.317.017.017 2.372 2.372-6.945 7.178a.65.65 0 00.934.904zm13.47-8.694L11.79 6.313 8.676 9.43l5.795 5.795 3.115-3.116z"/>
</svg>
