<svg width="24" height="24" viewBox="0 0 24 24" fill="none" xmlns="http://www.w3.org/2000/svg">
<rect y="3.42857" width="24" height="18" rx="2" fill="#F64E4E"/>
<path fill-rule="evenodd" clip-rule="evenodd" d="M10.6721 7.24361C10.4474 7.0189 10.0954 6.98404 9.83094 7.16032L9.52725 7.36278C9.10134 7.64672 9.14107 8.28484 9.59891 8.51376L10.4886 8.95861C10.7144 9.07153 10.8571 9.30238 10.8571 9.55489V9.61906C10.8571 9.98725 10.5586 10.2857 10.1904 10.2857H9.87164C9.76814 10.2857 9.66607 10.2616 9.5735 10.2153L7.85832 9.35776C7.60166 9.22943 7.29168 9.27973 7.08878 9.48264L6.93973 9.63169C6.61797 9.95345 6.70599 10.4959 7.11299 10.6994L7.80389 11.0448C8.14588 11.2158 8.17556 11.6925 7.85742 11.9046C7.48828 12.1507 7.60095 12.7202 8.03599 12.8072L8.51765 12.9035C8.98011 12.996 9.11531 13.5921 8.73801 13.8751L8.30679 14.1985C8.02546 14.4095 8.17468 14.8572 8.52635 14.8572C8.55627 14.8572 8.58608 14.8535 8.61511 14.8462L9.69663 14.5758C10.1067 14.4733 10.4281 14.9293 10.1936 15.281C9.9887 15.5884 10.209 16 10.5784 16H11.0785C11.2875 16 11.4731 16.1338 11.5392 16.3321C11.6868 16.7749 12.3131 16.7749 12.4607 16.3321C12.5268 16.1338 12.7124 16 12.9214 16H13.4216C13.7909 16 14.0112 15.5884 13.8064 15.281C13.5719 14.9293 13.8932 14.4733 14.3033 14.5758L15.3848 14.8462C15.4139 14.8535 15.4437 14.8572 15.4736 14.8572C15.8253 14.8572 15.9745 14.4095 15.6932 14.1985L15.2619 13.8751C14.8846 13.5921 15.0198 12.996 15.4823 12.9035L15.964 12.8072C16.399 12.7202 16.5117 12.1507 16.1425 11.9046C15.8244 11.6925 15.8541 11.2158 16.1961 11.0448L16.887 10.6994C17.294 10.4959 17.382 9.95345 17.0602 9.63169L16.9112 9.48264C16.7083 9.27973 16.3983 9.22943 16.1416 9.35776L14.4265 10.2153C14.3339 10.2616 14.2318 10.2857 14.1283 10.2857H13.8095C13.4413 10.2857 13.1428 9.98725 13.1428 9.61906V9.55489C13.1428 9.30238 13.2852 9.07169 13.511 8.95876C13.7894 8.81961 14.1062 8.66116 14.4011 8.51372C14.859 8.2848 14.8986 7.64672 14.4727 7.36278L14.169 7.16032C13.9046 6.98404 13.5525 7.0189 13.3278 7.24361L12.4714 8.10004C12.211 8.36039 11.7889 8.36038 11.5286 8.10004L10.6721 7.24361Z" fill="#37383C"/>
</svg>
