<svg xmlns="http://www.w3.org/2000/svg" viewBox="0 0 24 24">
  <defs/>
  <path d="M11.502 2a.72.72 0 01.72.72V4.6a.72.72 0 01-1.44 0V2.72a.72.72 0 01.72-.719z"/>
  <path fill-rule="evenodd" d="M11.502 6.5a7 7 0 00-7 7v5.7a.7.7 0 00.7.7h12.6a.7.7 0 00.7-.7v-5.7a7 7 0 00-7-7zm0 7.75a.65.65 0 00.65-.65v-3.053a.65.65 0 10-1.3 0v3.052c0 .36.29.65.65.65zm0 2.853a.75.75 0 100-1.5.75.75 0 000 1.5z"/>
  <path d="M0 13.502a.72.72 0 01.72-.72H2.6a.72.72 0 010 1.44H.72a.72.72 0 01-.719-.72zM19.683 13.502a.72.72 0 01.72-.72h1.881a.72.72 0 010 1.44h-1.881a.72.72 0 01-.72-.72zM3.369 5.369a.72.72 0 011.017 0l1.33 1.33A.72.72 0 014.7 7.717l-1.33-1.33a.72.72 0 010-1.018zM17.287 7.717a.72.72 0 010-1.018l1.33-1.33a.72.72 0 111.018 1.017l-1.33 1.33a.72.72 0 01-1.018 0zM3.297 21.2a.65.65 0 100 1.3h16.41a.65.65 0 000-1.3H3.297z"/>
</svg>
