<svg xmlns="http://www.w3.org/2000/svg" viewBox="0 0 24 24">
  <defs/>
  <path d="M12.221 2.72a.72.72 0 00-1.439 0V4.6a.72.72 0 101.44 0V2.72zM12.152 13.6a.65.65 0 11-1.3 0v-3.053a.65.65 0 111.3 0v3.052zM12.252 16.353a.75.75 0 11-1.5 0 .75.75 0 011.5 0z"/>
  <path fill-rule="evenodd" d="M4.502 13.5a7 7 0 1114 0v5.7a.7.7 0 01-.7.7h-12.6a.7.7 0 01-.7-.7v-5.7zm12.7 0v5.1h-11.4v-5.1a5.7 5.7 0 0111.4 0z"/>
  <path d="M3.297 21.2a.65.65 0 100 1.3h16.41a.65.65 0 000-1.3H3.297zM0 13.502a.72.72 0 01.72-.72H2.6a.72.72 0 010 1.44H.72a.72.72 0 01-.719-.72zM20.402 12.782a.72.72 0 000 1.44h1.882a.72.72 0 000-1.44h-1.881zM3.369 5.369a.72.72 0 011.017 0l1.33 1.33A.72.72 0 014.7 7.717l-1.33-1.33a.72.72 0 010-1.018zM17.287 6.7a.72.72 0 001.017 1.017l1.33-1.33a.72.72 0 10-1.017-1.018l-1.33 1.33z"/>
</svg>
