<svg width="24" height="24" viewBox="0 0 24 24" fill="none" xmlns="http://www.w3.org/2000/svg">
<rect y="3" width="24" height="18" rx="2" fill="white"/>
<path fill-rule="evenodd" clip-rule="evenodd" d="M22 4H2C1.44772 4 1 4.44772 1 5V19C1 19.5523 1.44772 20 2 20H22C22.5523 20 23 19.5523 23 19V5C23 4.44771 22.5523 4 22 4ZM2 3C0.895431 3 0 3.89543 0 5V19C0 20.1046 0.89543 21 2 21H22C23.1046 21 24 20.1046 24 19V5C24 3.89543 23.1046 3 22 3H2Z" fill="#D6D8DE"/>
<path fill-rule="evenodd" clip-rule="evenodd" d="M0 19C0 20.1046 0.895431 21 2 21H13V3H2C0.89543 3 0 3.89543 0 5V19Z" fill="#1BA049"/>
<path d="M11.9293 17.2857C13.2316 17.2857 14.4159 16.7589 15.2971 15.8983C14.6893 16.1876 14.0018 16.3506 13.2737 16.3506C10.7988 16.3506 8.79249 14.4668 8.79249 12.1429C8.79249 9.81896 10.7988 7.93506 13.2737 7.93506C14.0018 7.93506 14.6893 8.09811 15.2971 8.38743C14.4159 7.52686 13.2316 7 11.9293 7C9.20694 7 7 9.30254 7 12.1429C7 14.9832 9.20694 17.2857 11.9293 17.2857Z" fill="#F64E4E"/>
<path d="M13.6565 13.992L15 13.0343L16.3435 13.992L15.8478 12.4183L17.1739 11.4365L15.524 11.4216L15 9.85712L14.476 11.4216L12.8262 11.4365L14.1522 12.4183L13.6565 13.992Z" fill="#F64E4E"/>
</svg>
