<svg width="24" height="24" viewBox="0 0 24 24" fill="none" xmlns="http://www.w3.org/2000/svg">
<g clip-path="url(#clip0_72903_160405)">
<rect y="3" width="24" height="18" rx="2" fill="white"/>
<path fill-rule="evenodd" clip-rule="evenodd" d="M22 4H2C1.44772 4 1 4.44772 1 5V19C1 19.5523 1.44772 20 2 20H22C22.5523 20 23 19.5523 23 19V5C23 4.44771 22.5523 4 22 4ZM2 3C0.895431 3 0 3.89543 0 5V19C0 20.1046 0.89543 21 2 21H22C23.1046 21 24 20.1046 24 19V5C24 3.89543 23.1046 3 22 3H2Z" fill="#D6D8DE"/>
<path fill-rule="evenodd" clip-rule="evenodd" d="M17.948 13.9287C17.948 13.9287 17.7808 13.7667 17.9788 13.5057C17.8717 13.3977 17.9703 13.1907 17.9703 13.1907C17.9703 13.1907 17.7885 13.1097 17.9788 12.7767C17.8417 12.6687 17.9017 12.4257 17.9017 12.4257C17.9017 12.4257 17.4534 12.2277 17.8794 12.0387C17.5305 12.2187 17.2023 11.7957 17.2023 11.7957L16.6931 11.8137C16.6074 11.3133 15.9363 11.748 16.4343 10.3107C16.3057 10.2855 16.1608 10.2396 16.016 10.3656C15.872 10.4916 15.4614 10.7616 15.218 10.4916C14.9754 10.2216 15.3774 9.8346 15.386 9.8256C15.3928 9.8166 15.926 9.4926 16.0014 9.2766C15.9945 9.1146 15.8265 8.9886 15.9783 8.6376C16.154 8.3046 17.2254 7.9905 17.7123 7.8825C17.948 7.7565 18.0551 7.5135 18.0551 7.5135L18.1083 7.7475C18.1083 7.7475 19.1874 7.3695 19.2405 7.1895C19.2945 7.0095 19.2637 7.3515 19.2637 7.3515C19.6888 7.3065 20.2297 6.8745 20.3051 7.0725C20.6625 6.9915 21.3474 6.6315 21.3474 6.6315C21.3474 6.6315 21.5823 6.6225 21.416 6.9285C21.4477 6.98638 21.461 7.05341 21.454 7.11979C21.4469 7.18618 21.4197 7.24845 21.3765 7.2975C21.3688 7.2975 21.4228 7.4955 21.2865 7.6035C21.3311 7.7745 21.2017 7.9095 21.2017 7.9095C21.2017 7.9095 21.2634 8.1165 21.02 8.2245C21.0423 8.4045 20.8828 8.4405 20.8828 8.4405C20.8828 8.4405 20.906 8.6295 20.7988 8.7105C20.7988 8.8545 20.6788 8.9265 20.6788 8.9265C20.6788 8.9265 20.7534 8.9805 20.6471 9.0696C20.5408 9.1596 19.4385 9.9606 19.4385 9.9516C19.4385 9.9426 20.2443 10.1226 20.2974 10.1586C20.3505 10.1946 20.9583 10.6716 20.9583 10.6716L20.3428 11.5707C20.3428 11.5707 19.6588 11.4807 19.628 11.5257C19.598 11.5707 19.7728 11.5887 19.8114 11.6607C19.8491 11.7327 19.91 11.9037 20.0308 11.8857C20.1525 11.8677 19.8028 12.1467 19.5748 12.1737C19.5748 12.2727 19.8637 12.2817 19.94 12.2007C20.0163 12.1197 19.7574 12.4347 19.7274 12.4797C19.6965 12.5247 20.0703 12.4167 20.0703 12.4167C20.0703 12.4167 20.0085 12.7137 19.682 12.8037C19.8105 13.0557 19.7574 13.2177 19.7505 13.2177C19.7428 13.2177 19.5363 12.9657 19.3391 13.0107C19.3931 13.2537 19.5534 13.4787 19.598 13.5147C19.6434 13.5507 19.2405 13.5417 19.1865 13.4067C19.1351 13.2717 19.088 13.7307 19.2337 13.8747C19.0657 13.8837 18.9217 13.7667 18.9217 13.7667C18.9217 13.7667 18.8223 14.0367 18.8908 14.1717C18.9594 14.3058 18.6551 13.9017 18.6551 13.9017L18.0774 14.1897L17.9488 13.9287H17.948Z" fill="#780A0A"/>
<path fill-rule="evenodd" clip-rule="evenodd" d="M13.4823 13.3932C13.4952 13.3932 14.3223 13.377 14.7012 13.1196C14.8897 13.4733 15.1477 13.7136 15.1477 13.7136L15.2694 13.2006C15.2694 13.2006 15.5669 13.2159 15.5952 13.2969C15.554 13.3932 15.5403 13.5219 15.5403 13.5219C15.5403 13.5219 15.7434 13.5372 15.7572 13.5687C15.77 13.6011 15.7023 13.8729 15.7023 13.8729L16.5697 14.1141C16.5697 14.1141 16.6366 13.7136 16.7052 13.7613C16.772 13.8099 17.0703 14.3058 17.4903 14.3391C17.9103 14.3706 17.936 13.9215 17.936 13.9215L18.0312 13.9863C18.0312 13.9863 18.2077 13.5363 18.2343 13.5363C18.2617 13.5363 18.3029 13.6011 18.5326 13.6011C18.6003 13.6974 18.6269 13.9215 18.6269 13.9215C18.6269 13.9215 18.3697 14.2266 18.452 14.4669C18.5326 14.7063 18.5463 14.6424 18.5463 14.6424L20.4149 15.1716C20.4149 15.1716 20.5092 15.3471 20.3463 15.4434C20.3463 15.4596 18.4649 14.9304 18.4649 14.9304C18.4649 14.9304 18.2892 15.1716 18.1537 15.123C18.0174 15.0753 18.1126 15.2193 18.1126 15.2193L20.144 15.411C20.144 15.411 20.2932 15.636 20.1843 15.6999C20.0497 15.7161 17.9909 15.5397 17.9909 15.5397C17.9909 15.5397 17.8692 15.8448 17.7337 15.5883C17.6394 15.7638 17.5306 15.5397 17.5306 15.5397C17.5306 15.5397 17.3549 15.6999 17.3274 15.5244C17.1783 15.6522 17.0832 15.4434 17.0832 15.4434L16.2174 15.3795L16.1634 15.4758C16.1634 15.4758 16.3117 15.5244 16.082 15.636C15.8506 15.7476 17.4629 15.6999 17.5032 15.717C17.5443 15.7323 17.3952 15.8763 17.3952 15.8763C17.3952 15.8763 18.2206 15.9411 18.3706 15.7323C18.5189 15.5244 18.3157 16.0041 18.3157 16.0041C18.3157 16.0041 18.9654 15.9726 18.9654 15.9411C18.9654 15.9078 18.9517 16.1805 18.5052 16.1481C18.776 16.3569 19.1137 16.4856 19.1137 16.4856C19.1137 16.4856 18.776 16.581 18.3834 16.4694C18.452 16.6773 18.7486 16.8699 18.7486 16.8699C18.7486 16.8699 18.5326 17.0949 18.0457 16.5495C18.1803 16.8375 18.0714 16.95 18.0586 16.9176C18.0457 16.8861 17.8143 16.4856 17.2734 16.3416C17.6112 16.5972 17.4629 16.7097 17.4629 16.7097C17.4629 16.7097 17.2863 16.3407 17.0026 16.7097C16.8946 16.374 16.4746 16.1805 15.9603 16.149C15.7974 15.924 15.7032 15.9888 15.3234 15.861C15.1074 15.5721 14.7954 15.2508 14.7954 15.2508C14.7954 15.2508 14.8092 14.8188 15.1743 14.8674C15.2154 15.0114 15.2154 14.9637 15.2154 14.9637C15.2154 14.9637 15.6209 14.7864 15.7434 15.0267C15.92 14.6586 16.1634 14.9727 16.2037 15.0996C16.3203 15.1203 16.9083 15.1392 16.9083 15.1392C16.9083 15.1392 16.8397 14.9952 16.8809 15.0114C16.9212 15.0267 17.246 14.8674 17.2323 14.8188C17.2194 14.7711 17.2049 14.6109 17.2597 14.6262C17.3146 14.6424 16.7994 14.5461 16.5149 14.8026C16.4206 14.6901 16.4883 14.3859 16.4883 14.3859L15.6483 14.1789L15.608 14.4345C15.608 14.4345 15.3637 14.4822 15.3774 14.4183C15.392 14.3535 15.3234 14.6433 15.3234 14.6433C15.3234 14.6433 14.9977 14.5461 14.9977 14.5308C14.9977 14.5146 15.0929 13.9539 15.0929 13.9692C15.0929 13.9863 14.8229 14.0025 14.4432 14.3382C14.3352 13.9386 13.4823 13.4085 13.4823 13.3932Z" fill="#FCCA33"/>
<path fill-rule="evenodd" clip-rule="evenodd" d="M14.5383 12.0792C14.5383 12.0792 13.97 12.6552 14.5383 12.9927C14.5657 12.7677 14.606 12.7362 14.606 12.7362C14.606 12.7362 15.0791 12.945 15.3637 12.4482C15.242 12.2394 15.026 12.3195 15.026 12.3195C15.026 12.3195 14.5794 12.3195 14.5383 12.0792Z" fill="#FCCA33"/>
<path fill-rule="evenodd" clip-rule="evenodd" d="M14.5571 12.0837C14.5571 12.0837 14.6326 11.9937 14.6557 11.8857C14.6788 11.7777 14.6257 11.6607 14.7166 11.5617C14.8083 11.4627 16.0091 10.8606 16.1077 10.7436C16.2063 10.6266 16.3897 10.3746 16.412 10.3206C16.4343 10.2666 16.5037 10.5906 16.298 10.7337C16.5183 10.6617 16.6631 10.5807 16.754 10.6167C16.6631 10.7697 16.4197 11.0217 16.3048 11.0217C16.5723 10.9047 16.8148 10.8057 16.8834 10.8687C16.952 10.9317 16.5568 11.2467 16.3966 11.2647C16.6631 11.1837 17.0206 11.0577 17.0651 11.1927C16.922 11.2467 16.9674 11.2917 16.6708 11.4897C16.6331 11.5257 16.4428 11.5347 16.4428 11.5347C16.6708 11.5077 16.982 11.3997 17.0128 11.5977C16.8303 11.6787 16.7617 11.7876 16.61 11.8317C16.4574 11.8767 16.1077 11.9577 15.8951 12.0567C15.6826 12.1557 15.3706 12.4437 15.3706 12.4437C15.3706 12.4437 14.6934 12.4707 14.6934 12.4617C14.6934 12.4527 14.5657 12.0927 14.5571 12.0837Z" fill="#FFE1A8"/>
<path fill-rule="evenodd" clip-rule="evenodd" d="M20.3583 11.5347L21.674 11.8317C21.674 11.8317 21.818 11.6337 21.7426 11.5257C21.9397 11.4717 21.8866 11.1666 21.8866 11.1666C21.8866 11.1666 22.1146 11.0496 21.9243 10.7796C22.0546 10.6266 21.8943 10.5096 21.8943 10.5096C21.8943 10.5096 21.9474 10.2396 21.7803 10.2126C21.8249 9.99661 21.4914 9.92461 21.4914 9.92461C21.4914 9.92461 20.7989 10.1496 20.312 10.1676C20.4723 10.3566 20.252 10.4736 20.252 10.4736C20.252 10.4736 20.3806 10.5816 20.3429 10.6716C20.3051 10.7616 20.366 10.8606 20.1989 10.9236C20.42 11.0406 20.1757 11.2386 20.1757 11.2386C20.1757 11.2386 20.42 11.4357 20.3583 11.5347Z" fill="#FFE1A8"/>
<path d="M2 21C0.895431 21 0 20.1046 0 19V12L23.1078 20.6654C22.7907 20.8768 22.4097 21 22 21H2Z" fill="#022D9A"/>
<path d="M23.1078 3.33458L0 12V5C0 3.89543 0.89543 3 2 3H22C22.4097 3 22.7907 3.1232 23.1078 3.33458Z" fill="#022D9A"/>
<path d="M23.1078 3.33458L0 12L23.1078 20.6654C23.364 20.4947 23.5785 20.2664 23.733 19.9991L2.57143 12L23.733 4.00094C23.5785 3.73359 23.364 3.50532 23.1078 3.33458Z" fill="#F64E4E"/>
</g>
<defs>
<clipPath id="clip0_72903_160405">
<rect width="24" height="24" fill="white"/>
</clipPath>
</defs>
</svg>
