<svg width="24" height="24" viewBox="0 0 24 24" fill="none" xmlns="http://www.w3.org/2000/svg">
<path fill-rule="evenodd" clip-rule="evenodd" d="M0 19C0 20.1046 0.895431 21 2 21H8V3H2C0.89543 3 0 3.89543 0 5V19Z" fill="#0142D3"/>
<path fill-rule="evenodd" clip-rule="evenodd" d="M16 21H22C23.1046 21 24 20.1046 24 19V5C24 3.89543 23.1046 3 22 3H16V21Z" fill="#F64E4E"/>
<path fill-rule="evenodd" clip-rule="evenodd" d="M8 21H16V3H8V21Z" fill="#FCCA33"/>
<path fill-rule="evenodd" clip-rule="evenodd" d="M10.0025 10.7237C9.96909 10.3344 10.276 10 10.6667 10H13.3331C13.7238 10 14.0308 10.3344 13.9974 10.7237L13.8209 12.7807C13.7617 13.4703 13.1846 14 12.4924 14H11.5075C10.8153 14 10.2382 13.4703 10.179 12.7807L10.0025 10.7237ZM10.6667 10.6667H13.3331L13.2759 11.3333H10.7239L10.6667 10.6667ZM10.7811 12L10.8432 12.7237C10.8728 13.0685 11.1614 13.3333 11.5075 13.3333H12.4924C12.8385 13.3333 13.127 13.0685 13.1566 12.7237L13.2187 12H10.7811Z" fill="#F64E4E"/>
</svg>
