<svg width="24" height="24" viewBox="0 0 24 24" fill="none" xmlns="http://www.w3.org/2000/svg">
<path fill-rule="evenodd" clip-rule="evenodd" d="M0 19C0 20.1046 0.895431 21 2 21H22C23.1046 21 24 20.1046 24 19V13H0V19Z" fill="#37383C"/>
<path fill-rule="evenodd" clip-rule="evenodd" d="M0 13H24V5C24 3.89543 23.1046 3 22 3H2C0.89543 3 0 3.89543 0 5V13Z" fill="#F64E4E"/>
<path d="M13.8838 13.331C14.0264 13.081 14.1396 12.8087 14.2176 12.5177C14.7077 10.6886 13.6222 8.80862 11.7932 8.31853C11.4884 8.23685 11.175 8.41776 11.0934 8.72259C11.0117 9.02743 11.1926 9.34077 11.4974 9.42245C12.7168 9.74917 13.4404 11.0025 13.1137 12.2219C13.0688 12.3893 13.0065 12.5473 12.9292 12.6946L11.1741 11.5246C10.9115 11.3495 10.5568 11.4205 10.3817 11.683C10.2066 11.9456 10.2776 12.3004 10.5402 12.4755L12.1493 13.5482C11.6252 13.8877 10.9649 14.0124 10.3143 13.8381C10.0094 13.7564 9.69608 13.9373 9.6144 14.2422C9.53272 14.547 9.71362 14.8603 10.0185 14.942C11.1612 15.2482 12.3237 14.9394 13.1549 14.2186L13.9688 14.7612C14.2314 14.9363 14.5861 14.8653 14.7612 14.6027C14.9363 14.3401 14.8653 13.9853 14.6027 13.8103L13.8838 13.331Z" fill="#FCCA33"/>
<path d="M10.8572 10.8572C11.1728 10.8572 11.4286 10.6013 11.4286 10.2857C11.4286 9.97014 11.1728 9.71431 10.8572 9.71431C10.5416 9.71431 10.2857 9.97014 10.2857 10.2857C10.2857 10.6013 10.5416 10.8572 10.8572 10.8572Z" fill="#FCCA33"/>
</svg>
