<svg width="24" height="24" viewBox="0 0 24 24" fill="none" xmlns="http://www.w3.org/2000/svg">
<rect y="3" width="24" height="18" rx="2" fill="#022D9A"/>
<path fill-rule="evenodd" clip-rule="evenodd" d="M14.8571 12C14.8571 10.2857 14.8571 9.14287 14.8571 9.14287L16 9.7143L17.1428 9.14287L18.2857 9.7143L19.4285 9.14287C19.4285 9.14287 19.4285 10.2857 19.4285 12C19.4285 13.7143 17.1428 14.8572 17.1428 14.8572C17.1428 14.8572 14.8571 13.7143 14.8571 12Z" fill="white"/>
<path fill-rule="evenodd" clip-rule="evenodd" d="M17.1428 11.4286C17.4584 11.4286 17.7142 11.1727 17.7142 10.8571C17.7142 10.5416 17.4584 10.2857 17.1428 10.2857C16.8272 10.2857 16.5714 10.5416 16.5714 10.8571C16.5714 11.1727 16.8272 11.4286 17.1428 11.4286ZM16 12.5714C16.3155 12.5714 16.5714 12.3156 16.5714 12C16.5714 11.6844 16.3155 11.4286 16 11.4286C15.6844 11.4286 15.4285 11.6844 15.4285 12C15.4285 12.3156 15.6844 12.5714 16 12.5714ZM18.8571 12C18.8571 12.3156 18.6013 12.5714 18.2857 12.5714C17.9701 12.5714 17.7142 12.3156 17.7142 12C17.7142 11.6844 17.9701 11.4286 18.2857 11.4286C18.6013 11.4286 18.8571 11.6844 18.8571 12Z" fill="#FCCA33"/>
<path d="M2.03252e-05 9.60929L3.33333 7.22835V6.73519L0.22739 4.07296C0.331861 3.87361 0.468974 3.69405 0.63163 3.5414L4 6.42857V7.57143L2.03252e-05 10.4286V9.60929Z" fill="white"/>
<path d="M10.9524 3V3.39989C10.9524 3.72284 10.7964 4.02591 10.5336 4.21362L6.95238 6.77165V7.2648L10.3317 10.1614C10.9348 10.6783 10.5692 11.6667 9.77485 11.6667C9.59651 11.6667 9.42263 11.6109 9.27751 11.5073L5.50064 8.80952H4.76263L2.03252e-05 11.7862V11L4.57143 8.14286H5.71429L9.665 10.9648C9.69706 10.9877 9.73546 11 9.77485 11C9.9503 11 10.031 10.7817 9.89784 10.6675L6.28571 7.57143V6.42857L10.1461 3.67113C10.2337 3.60856 10.2857 3.50754 10.2857 3.39989V3L10.9524 3Z" fill="white"/>
<path d="M9.02784 3L10.2857 3L5.71429 5.85714H4.57143L0.970449 3.28501C1.20126 3.14615 1.4624 3.05257 1.74157 3.01655L4.78507 5.19048H5.52309L9.02784 3Z" fill="white"/>
<path fill-rule="evenodd" clip-rule="evenodd" d="M0 5.85714V8.14286H4V10.9048C4 11.273 4.29848 11.5714 4.66667 11.5714H5.61905C5.98724 11.5714 6.28571 11.273 6.28571 10.9048V8.14286H10.1905C10.5587 8.14286 10.8571 7.84438 10.8571 7.47619V6.52381C10.8571 6.15562 10.5587 5.85714 10.1905 5.85714H6.28571V3H4V5.85714H0Z" fill="white"/>
<path d="M0.620846 3.53215C0.724084 3.43571 0.837716 3.35017 0.959804 3.27741L4 5.44898V5.85714H3.33333L0.620846 3.53215Z" fill="#F64E4E"/>
<path d="M6.28571 5.5L10.2857 3V3.39989C10.2857 3.50754 10.2337 3.60856 10.1461 3.67113L7.08571 5.85714H6.28571V5.5Z" fill="#F64E4E"/>
<path d="M6.28571 8.14286H6.95238L9.89784 10.6675C10.031 10.7817 9.9503 11 9.77485 11C9.73546 11 9.69706 10.9877 9.665 10.9648L6.28571 8.55102V8.14286Z" fill="#F64E4E"/>
<path d="M4 8.14286V8.5L2.03252e-05 11L0 10.4286L3.2 8.14286H4Z" fill="#F64E4E"/>
<path d="M4.57143 6.42857H0V7.57143H4.57143V11H5.71429V7.57143H10.2857V6.42857H5.71429V3H4.57143V6.42857Z" fill="#F64E4E"/>
</svg>
