<svg width="24" height="24" viewBox="0 0 24 24" fill="none" xmlns="http://www.w3.org/2000/svg">
<rect y="3" width="24" height="18" rx="2" fill="white"/>
<path fill-rule="evenodd" clip-rule="evenodd" d="M22 4H2C1.44772 4 1 4.44772 1 5V19C1 19.5523 1.44772 20 2 20H22C22.5523 20 23 19.5523 23 19V5C23 4.44771 22.5523 4 22 4ZM2 3C0.895431 3 0 3.89543 0 5V19C0 20.1046 0.89543 21 2 21H22C23.1046 21 24 20.1046 24 19V5C24 3.89543 23.1046 3 22 3H2Z" fill="#D6D8DE"/>
<path d="M24 12H0V5C0 3.89543 0.895431 3 2 3H22C23.1046 3 24 3.89543 24 5V12Z" fill="#37383C"/>
<path d="M7.71429 12.0135L12.2409 13.8151L16.7676 12.0135L12.2409 19.3286L7.71429 12.0135Z" fill="#37383C"/>
<path d="M12.2409 4.69846L16.7676 12.0135L12.2409 13.8242L7.71429 12.0135L12.2409 4.69846Z" fill="white"/>
</svg>
