<svg xmlns="http://www.w3.org/2000/svg" viewBox="0 0 24 24">
  <defs/>
  <path d="M18.686 16.027a9.82 9.82 0 01-.958 1.74c-.503.726-.916 1.228-1.233 1.507-.493.458-1.02.692-1.585.706-.406 0-.895-.117-1.464-.354-.572-.235-1.097-.352-1.577-.352-.503 0-1.043.117-1.62.352-.579.237-1.045.36-1.401.372-.542.024-1.082-.217-1.621-.724-.344-.303-.775-.823-1.29-1.56-.553-.787-1.008-1.699-1.364-2.739C4.19 13.852 4 12.765 4 11.711c0-1.206.258-2.247.774-3.118.406-.7.946-1.253 1.622-1.659A4.328 4.328 0 018.59 6.31c.43 0 .995.134 1.696.399.7.265 1.148.4 1.345.4.147 0 .646-.158 1.492-.471.8-.291 1.475-.412 2.027-.364 1.499.122 2.624.72 3.373 1.795-1.34.82-2.003 1.97-1.99 3.444.012 1.149.424 2.104 1.235 2.863.367.352.777.625 1.233.818-.099.29-.203.568-.314.835zM15.249 2.36c0 .9-.325 1.74-.974 2.519-.782.925-1.729 1.46-2.755 1.375a2.828 2.828 0 01-.021-.341c0-.865.372-1.79 1.033-2.546.33-.382.75-.7 1.259-.955.508-.25.988-.388 1.44-.412.013.12.018.24.018.36z"/>
</svg>
