<svg xmlns="http://www.w3.org/2000/svg" viewBox="0 0 24 24">
  <defs/>
  <path fill-rule="evenodd" d="M4 6a3 3 0 013-3h6.616a3 3 0 012.006.77l3.448 3.1a3 3 0 01.994 2.23v8.845a3 3 0 01-3 3H7a3 3 0 01-3-3V6zm3.96-1.04a.65.65 0 01.65-.65h.92a.65.65 0 110 1.3h-.92a.65.65 0 01-.65-.65zm.65 1.95a.65.65 0 000 1.3h.92a.65.65 0 100-1.3h-.92zm-.65 3.25a.65.65 0 01.65-.65h.92a.65.65 0 110 1.3h-.92a.65.65 0 01-.65-.65zm1.545 1.95a.7.7 0 00-.679.53l-.646 2.556a.7.7 0 00.679.871h2.274a.7.7 0 00.679-.871l-.647-2.557a.7.7 0 00-.678-.528h-.982zm.307-5.85a.65.65 0 01.65-.65h.92a.65.65 0 010 1.3h-.92a.65.65 0 01-.65-.65zm.65 1.95a.65.65 0 100 1.3h.92a.65.65 0 000-1.3h-.92z"/>
</svg>
