<svg xmlns="http://www.w3.org/2000/svg" viewBox="0 0 24 24">
  <defs/>
  <path fill-rule="evenodd" d="M8.111 3.65a.65.65 0 00-.65-.65H7a3 3 0 00-3 3v11.945a3 3 0 003 3h10.064a3 3 0 003-3V9.1a3 3 0 00-.994-2.23l-3.448-3.1A3 3 0 0013.616 3h-.934a.65.65 0 000 1.3h.934a1.7 1.7 0 011.137.436l3.447 3.1a1.7 1.7 0 01.564 1.264v8.845a1.7 1.7 0 01-1.7 1.7H7a1.7 1.7 0 01-1.7-1.7V6A1.7 1.7 0 017 4.3h.461a.65.65 0 00.65-.65zM7.96 4.96a.65.65 0 01.65-.65h.92a.65.65 0 110 1.3h-.92a.65.65 0 01-.65-.65zm.65 1.95a.65.65 0 100 1.3h.92a.65.65 0 100-1.3h-.92zm-.65 3.25a.65.65 0 01.65-.65h.92a.65.65 0 110 1.3h-.92a.65.65 0 01-.65-.65zm1.545 1.95a.7.7 0 00-.679.53l-.646 2.556a.7.7 0 00.679.871h2.274a.7.7 0 00.679-.871l-.647-2.557a.7.7 0 00-.678-.528h-.982zm.307-5.85a.65.65 0 01.65-.65h.92a.65.65 0 010 1.3h-.92a.65.65 0 01-.65-.65zm.65 1.95a.65.65 0 100 1.3h.92a.65.65 0 000-1.3h-.92z"/>
</svg>
