<svg xmlns="http://www.w3.org/2000/svg" viewBox="0 0 24 24">
  <defs/>
  <path fill-rule="evenodd" d="M15.856 5.212a2.35 2.35 0 00-3.323 0L6.38 11.364a3.65 3.65 0 000 5.162l1.344 1.343a3.65 3.65 0 005.161 0l5.799-5.798a.65.65 0 01.919.919l-5.798 5.798a4.95 4.95 0 01-7 0l-1.344-1.343a4.95 4.95 0 010-7l6.152-6.152a3.65 3.65 0 015.162 0l.707.707a3.65 3.65 0 010 5.162l-5.799 5.798a1.95 1.95 0 01-2.757 0l-.637-.637a1.95 1.95 0 010-2.757l5.445-5.445a.65.65 0 01.92.92l-5.446 5.444a.65.65 0 000 .92l.637.636a.65.65 0 00.92 0l5.797-5.799a2.35 2.35 0 000-3.323l-.707-.707z"/>
</svg>
