<svg width="24" height="24" viewBox="0 0 24 24" fill="none" xmlns="http://www.w3.org/2000/svg">
<rect y="3" width="24" height="18" rx="2" fill="white"/>
<path fill-rule="evenodd" clip-rule="evenodd" d="M0 9H24V5C24 3.89543 23.1046 3 22 3H2C0.89543 3 0 3.89543 0 5V9Z" fill="#6FA3FF"/>
<path fill-rule="evenodd" clip-rule="evenodd" d="M0 19C0 20.1046 0.895431 21 2 21H22C23.1046 21 24 20.1046 24 19V15H0V19Z" fill="#1BA049"/>
<path fill-rule="evenodd" clip-rule="evenodd" d="M24 9H0V15H24V9ZM12.6669 13.1397C12.3945 13.3222 12.0668 13.4286 11.7143 13.4286C10.7675 13.4286 10 12.6611 10 11.7143C10 10.7675 10.7675 10 11.7143 10C12.0668 10 12.3945 10.1064 12.6669 10.2889C12.6354 10.2868 12.6035 10.2857 12.5714 10.2857C11.7825 10.2857 11.1429 10.9253 11.1429 11.7143C11.1429 12.5033 11.7825 13.1429 12.5714 13.1429C12.6035 13.1429 12.6354 13.1418 12.6669 13.1397ZM12.8571 12.2857C13.1727 12.2857 13.4286 12.0299 13.4286 11.7143C13.4286 11.3987 13.1727 11.1429 12.8571 11.1429C12.5416 11.1429 12.2857 11.3987 12.2857 11.7143C12.2857 12.0299 12.5416 12.2857 12.8571 12.2857Z" fill="#F64E4E"/>
</svg>
