<svg width="24" height="24" viewBox="0 0 24 24" fill="none" xmlns="http://www.w3.org/2000/svg">
<rect y="3" width="24" height="18" rx="2" fill="white"/>
<path fill-rule="evenodd" clip-rule="evenodd" d="M0 19C0 20.1046 0.895431 21 2 21H22C23.1046 21 24 20.1046 24 19V15H0V19Z" fill="#22B7D5"/>
<path fill-rule="evenodd" clip-rule="evenodd" d="M0 9H24V5C24 3.89543 23.1046 3 22 3H2C0.89543 3 0 3.89543 0 5V9Z" fill="#22B7D5"/>
<path fill-rule="evenodd" clip-rule="evenodd" d="M0 15H24V9.00002H0V15Z" fill="#FCCA33"/>
<path d="M0.657344 3.51765C0.253593 3.88358 0 4.41217 0 5V19C0 19.5878 0.253593 20.1164 0.657344 20.4823L11.4286 12L0.657344 3.51765Z" fill="#37383C"/>
</svg>
