<svg width="24" height="24" viewBox="0 0 24 24" fill="none" xmlns="http://www.w3.org/2000/svg">
<path d="M0 5C0 3.89543 0.895431 3 2 3H22C23.1046 3 24 3.89543 24 5V19C24 20.1046 23.1046 21 22 21H2C0.89543 21 0 20.1046 0 19V5Z" fill="white"/>
<path fill-rule="evenodd" clip-rule="evenodd" d="M22 4H2C1.44772 4 1 4.44772 1 5V19C1 19.5523 1.44772 20 2 20H22C22.5523 20 23 19.5523 23 19V5C23 4.44771 22.5523 4 22 4ZM2 3C0.895431 3 0 3.89543 0 5V19C0 20.1046 0.89543 21 2 21H22C23.1046 21 24 20.1046 24 19V5C24 3.89543 23.1046 3 22 3H2Z" fill="#D6D8DE"/>
<path d="M22 3H6.85712L8.5714 4.2L6.85712 5.4L8.5714 6.6L6.85712 7.8L8.5714 9L6.85712 10.2L8.5714 11.4L6.85712 12.6L8.5714 13.8L6.85712 15L8.5714 16.2L6.85712 17.4L8.5714 18.6L6.85712 19.8L8.5714 21H22C23.1045 21 24 20.0598 24 18.9V5.1C24 3.9402 23.1045 3 22 3Z" fill="#F64E4E"/>
</svg>
