<svg width="24" height="24" viewBox="0 0 24 24" fill="none" xmlns="http://www.w3.org/2000/svg">
<path d="M16 3H22C23.1046 3 24 3.89543 24 5V19C24 20.1046 23.1046 21 22 21H16V3Z" fill="#022D9A"/>
<path fill-rule="evenodd" clip-rule="evenodd" d="M0 19C0 20.1046 0.895431 21 2 21H8V3H2C0.895431 3 0 3.89543 0 5V19Z" fill="#022D9A"/>
<path fill-rule="evenodd" clip-rule="evenodd" d="M8 21H16V3H8V21Z" fill="#FCCA33"/>
<path fill-rule="evenodd" clip-rule="evenodd" d="M11.5484 9.27172C11.6822 9.07502 11.973 9.07772 12.1031 9.27687L12.6561 10.1235C12.7823 10.3165 12.6437 10.5725 12.4131 10.5725C12.2414 10.5725 12.1072 10.7208 12.1243 10.8917L12.348 13.1295C12.3651 13.2999 12.5085 13.4297 12.6797 13.4297H12.8125C12.9003 13.4297 12.9845 13.395 13.0469 13.3333L13.422 12.9622C13.4853 12.8996 13.5209 12.8143 13.5209 12.7252V11.8534C13.5209 11.765 13.4858 11.6802 13.4233 11.6177L13.3309 11.5253C13.1556 11.3501 13.2261 11.0517 13.4612 10.9734L14.1285 10.7509C14.3691 10.6707 14.6076 10.878 14.5617 11.1275L14.1577 13.3241C14.1451 13.3927 14.1112 13.4557 14.0609 13.5041L13.0463 14.4795C12.9842 14.5392 12.9014 14.5725 12.8153 14.5725H12.7114C12.5273 14.5725 12.3781 14.7217 12.3781 14.9058V15.382C12.3781 15.5661 12.2288 15.7154 12.0447 15.7154H11.5685C11.3844 15.7154 11.2352 15.5661 11.2352 15.382V14.9058C11.2352 14.7217 11.086 14.5725 10.9019 14.5725H10.8018C10.7134 14.5725 10.6287 14.5374 10.5661 14.4749L9.59228 13.501C9.54575 13.4545 9.51403 13.3952 9.50113 13.3307L9.06214 11.1357C9.01194 10.8848 9.2516 10.6732 9.49441 10.7541L10.1521 10.9734C10.3872 11.0517 10.4576 11.3501 10.2824 11.5253L10.19 11.6177C10.1275 11.6802 10.0923 11.765 10.0923 11.8534V12.7252C10.0923 12.8143 10.128 12.8996 10.1913 12.9622L10.5664 13.3333C10.6288 13.395 10.713 13.4297 10.8008 13.4297H10.9335C11.1048 13.4297 11.2482 13.2999 11.2652 13.1295L11.4894 10.8872C11.5063 10.7187 11.374 10.5725 11.2046 10.5725C10.9748 10.5725 10.8387 10.3153 10.9679 10.1253L11.5484 9.27172Z" fill="#37383C"/>
</svg>
