<svg width="296" height="244" viewBox="0 0 296 244" fill="none" xmlns="http://www.w3.org/2000/svg">
    <g clip-path="url(#clip0)">
        <circle cx="110" cy="122" r="92" fill="#ECECEC" stroke="#001D6D" stroke-width="2"/>
        <mask id="path-2-inside-1" fill="white">
            <path fill-rule="evenodd" clip-rule="evenodd" d="M28.5925 77H142C150.837 77 158 84.1634 158 93V201.672C143.987 210.132 127.562 215 110 215C58.6375 215 17 173.362 17 122C17 105.676 21.2057 90.3348 28.5925 77Z"/>
        </mask>
        <path fill-rule="evenodd" clip-rule="evenodd" d="M28.5925 77H142C150.837 77 158 84.1634 158 93V201.672C143.987 210.132 127.562 215 110 215C58.6375 215 17 173.362 17 122C17 105.676 21.2057 90.3348 28.5925 77Z" fill="white"/>
        <path d="M28.5925 77V75H27.4141L26.843 76.0309L28.5925 77ZM158 201.672L159.034 203.384L160 202.8V201.672H158ZM28.5925 79H142V75H28.5925V79ZM142 79C149.732 79 156 85.268 156 93H160C160 83.0589 151.941 75 142 75V79ZM156 93V201.672H160V93H156ZM156.966 199.96C143.257 208.237 127.188 213 110 213V217C127.937 217 144.718 212.027 159.034 203.384L156.966 199.96ZM110 213C59.7421 213 19 172.258 19 122H15C15 174.467 57.533 217 110 217V213ZM19 122C19 106.024 23.1153 91.0149 30.342 77.9691L26.843 76.0309C19.2961 89.6546 15 105.329 15 122H19Z" fill="#001D6D" mask="url(#path-2-inside-1)"/>
        <mask id="path-4-inside-2" fill="white">
            <path fill-rule="evenodd" clip-rule="evenodd" d="M57.8732 117.753C67.468 105.284 82.8707 99.8028 97.795 102.013L80.6603 124.281C79.313 126.032 79.6402 128.543 81.391 129.891L109.987 151.894C111.737 153.241 114.249 152.914 115.596 151.163L132.731 128.895C138.691 142.755 137.34 159.048 127.745 171.518C117.404 184.956 100.317 190.278 84.3538 186.603L51.0557 229.876C46.0037 236.442 36.5858 237.669 30.0203 232.617L23.8512 227.87C17.2857 222.818 16.0587 213.4 21.1107 206.834L54.4089 163.56C46.7663 149.072 47.5325 131.192 57.8732 117.753ZM33.6567 221.509C36.4131 223.63 40.3669 223.115 42.4879 220.359C44.6088 217.602 44.0937 213.649 41.3374 211.528C38.581 209.407 34.6272 209.922 32.5062 212.678C30.3853 215.435 30.9004 219.388 33.6567 221.509Z"/>
        </mask>
        <path fill-rule="evenodd" clip-rule="evenodd" d="M57.8732 117.753C67.468 105.284 82.8707 99.8028 97.795 102.013L80.6603 124.281C79.313 126.032 79.6402 128.543 81.391 129.891L109.987 151.894C111.737 153.241 114.249 152.914 115.596 151.163L132.731 128.895C138.691 142.755 137.34 159.048 127.745 171.518C117.404 184.956 100.317 190.278 84.3538 186.603L51.0557 229.876C46.0037 236.442 36.5858 237.669 30.0203 232.617L23.8512 227.87C17.2857 222.818 16.0587 213.4 21.1107 206.834L54.4089 163.56C46.7663 149.072 47.5325 131.192 57.8732 117.753ZM33.6567 221.509C36.4131 223.63 40.3669 223.115 42.4879 220.359C44.6088 217.602 44.0937 213.649 41.3374 211.528C38.581 209.407 34.6272 209.922 32.5062 212.678C30.3853 215.435 30.9004 219.388 33.6567 221.509Z" fill="#EDF5FF"/>
        <path d="M97.795 102.013L99.38 103.233L101.457 100.533L98.088 100.035L97.795 102.013ZM81.391 129.891L82.6107 128.305L81.391 129.891ZM109.987 151.894L108.767 153.479L109.987 151.894ZM115.596 151.163L114.011 149.944L115.596 151.163ZM132.731 128.895L134.568 128.105L133.223 124.976L131.146 127.675L132.731 128.895ZM84.3538 186.603L84.8025 184.653L83.5515 184.365L82.7687 185.383L84.3538 186.603ZM51.0557 229.876L49.4707 228.657L51.0557 229.876ZM54.4089 163.56L55.9939 164.78L56.7767 163.763L56.1778 162.627L54.4089 163.56ZM98.088 100.035C82.5013 97.7263 66.358 103.447 56.2881 116.533L59.4582 118.973C68.578 107.121 83.24 101.879 97.502 103.991L98.088 100.035ZM82.2453 125.501L99.38 103.233L96.2099 100.793L79.0752 123.061L82.2453 125.501ZM82.6107 128.305C81.7353 127.632 81.5717 126.376 82.2453 125.501L79.0752 123.061C77.0544 125.688 77.5452 129.455 80.1714 131.476L82.6107 128.305ZM111.206 150.309L82.6107 128.305L80.1714 131.476L108.767 153.479L111.206 150.309ZM114.011 149.944C113.337 150.819 112.082 150.983 111.206 150.309L108.767 153.479C111.393 155.5 115.16 155.009 117.181 152.383L114.011 149.944ZM131.146 127.675L114.011 149.944L117.181 152.383L134.316 130.115L131.146 127.675ZM129.33 172.737C139.4 159.65 140.793 142.58 134.568 128.105L130.894 129.685C136.59 142.93 135.28 158.446 126.16 170.298L129.33 172.737ZM83.905 188.552C100.572 192.389 118.476 186.843 129.33 172.737L126.16 170.298C116.332 183.07 100.063 188.167 84.8025 184.653L83.905 188.552ZM52.6408 231.096L85.9388 187.822L82.7687 185.383L49.4707 228.657L52.6408 231.096ZM28.8006 234.202C36.2415 239.927 46.9152 238.537 52.6408 231.096L49.4707 228.657C45.0922 234.347 36.9301 235.41 31.2399 231.032L28.8006 234.202ZM22.6315 229.455L28.8006 234.202L31.2399 231.032L25.0709 226.285L22.6315 229.455ZM19.5257 205.615C13.8 213.056 15.1906 223.729 22.6315 229.455L25.0709 226.285C19.3807 221.906 18.3174 213.744 22.6958 208.054L19.5257 205.615ZM52.8238 162.341L19.5257 205.615L22.6958 208.054L55.9939 164.78L52.8238 162.341ZM56.2881 116.533C45.4345 130.639 44.6607 149.367 52.6399 164.494L56.1778 162.627C48.8718 148.777 49.6306 131.745 59.4582 118.973L56.2881 116.533ZM40.9028 219.139C39.4555 221.02 36.7574 221.372 34.8764 219.924L32.4371 223.094C36.0688 225.889 41.2784 225.21 44.0729 221.578L40.9028 219.139ZM40.1177 213.113C41.9987 214.56 42.3502 217.258 40.9028 219.139L44.0729 221.578C46.8675 217.947 46.1888 212.737 42.557 209.943L40.1177 213.113ZM34.0913 213.898C35.5386 212.017 38.2367 211.665 40.1177 213.113L42.557 209.943C38.9253 207.148 33.7157 207.827 30.9212 211.458L34.0913 213.898ZM34.8764 219.924C32.9954 218.477 32.6439 215.779 34.0913 213.898L30.9212 211.458C28.1266 215.09 28.8053 220.3 32.4371 223.094L34.8764 219.924Z" fill="#001D6D" mask="url(#path-4-inside-2)"/>
        <rect x="77.5309" y="144.658" width="24.1893" height="13.169" rx="1.5" transform="rotate(37.5774 77.5309 144.658)" fill="#EDF5FF" stroke="#001D6D"/>
        <line x1="84.0763" y1="149.059" x2="75.5774" y2="160.305" stroke="#001D6D"/>
        <line x1="90.314" y1="153.861" x2="81.892" y2="164.901" stroke="#001D6D"/>
        <mask id="path-9-inside-3" fill="white">
            <path fill-rule="evenodd" clip-rule="evenodd" d="M140.104 119.766L130.179 95.7343L104.407 92.2975L88.5593 112.892L98.4846 136.924L124.257 140.361L140.104 119.766ZM108.295 124.175C112.52 127.426 118.58 126.636 121.831 122.411C125.082 118.187 124.292 112.127 120.068 108.876C115.843 105.625 109.783 106.414 106.532 110.639C103.281 114.864 104.071 120.924 108.295 124.175Z"/>
        </mask>
        <path fill-rule="evenodd" clip-rule="evenodd" d="M140.104 119.766L130.179 95.7343L104.407 92.2975L88.5593 112.892L98.4846 136.924L124.257 140.361L140.104 119.766ZM108.295 124.175C112.52 127.426 118.58 126.636 121.831 122.411C125.082 118.187 124.292 112.127 120.068 108.876C115.843 105.625 109.783 106.414 106.532 110.639C103.281 114.864 104.071 120.924 108.295 124.175Z" fill="#6FA3FF"/>
        <path d="M130.179 95.7343L132.028 94.9709L131.587 93.9044L130.444 93.7519L130.179 95.7343ZM140.104 119.766L141.69 120.986L142.394 120.07L141.953 119.003L140.104 119.766ZM104.407 92.2975L104.671 90.315L103.526 90.1623L102.821 91.0778L104.407 92.2975ZM88.5593 112.892L86.9742 111.673L86.2698 112.588L86.7107 113.656L88.5593 112.892ZM98.4846 136.924L96.636 137.688L97.0765 138.754L98.2202 138.907L98.4846 136.924ZM124.257 140.361L123.993 142.343L125.138 142.496L125.842 141.581L124.257 140.361ZM128.331 96.4978L138.256 120.53L141.953 119.003L132.028 94.9709L128.331 96.4978ZM104.142 94.2799L129.915 97.7168L130.444 93.7519L104.671 90.315L104.142 94.2799ZM90.1443 114.112L105.992 93.5171L102.821 91.0778L86.9742 111.673L90.1443 114.112ZM100.333 136.161L90.4078 112.129L86.7107 113.656L96.636 137.688L100.333 136.161ZM124.522 138.379L98.7489 134.942L98.2202 138.907L123.993 142.343L124.522 138.379ZM138.519 118.546L122.672 139.141L125.842 141.581L141.69 120.986L138.519 118.546ZM120.246 121.192C117.669 124.541 112.864 125.167 109.515 122.59L107.076 125.76C112.176 129.684 119.492 128.731 123.416 123.631L120.246 121.192ZM118.848 110.461C122.197 113.038 122.823 117.843 120.246 121.192L123.416 123.631C127.34 118.531 126.387 111.215 121.287 107.291L118.848 110.461ZM108.117 111.859C110.694 108.51 115.499 107.884 118.848 110.461L121.287 107.291C116.187 103.366 108.871 104.319 104.947 109.42L108.117 111.859ZM109.515 122.59C106.166 120.013 105.54 115.208 108.117 111.859L104.947 109.42C101.022 114.52 101.975 121.836 107.076 125.76L109.515 122.59Z" fill="#001D6D" mask="url(#path-9-inside-3)"/>
        <path d="M141.159 66.7954C155.335 66.7954 164.597 58.1875 164.568 46C164.597 34.9488 156.869 27.1363 146.5 27.1363C140.591 27.1363 135.818 29.75 134 33.2727H133.659L134.795 20.4318H160.932V7.81816H121.841L119.568 39.8636L133.432 42.5909C134.767 39.75 137.807 38.0454 141.159 38.0454C145.989 38.0454 149.369 41.3693 149.341 46.4545C149.369 51.5398 145.989 54.8636 141.159 54.8636C136.983 54.8636 133.545 52.3068 133.432 48.2727H118.091C118.176 59.125 127.75 66.7954 141.159 66.7954Z" fill="#6FA3FF"/>
        <path d="M196.72 67.5909C212.544 67.6193 222.374 56.2841 222.402 37.0227C222.43 17.875 212.544 7.02271 196.72 7.02271C180.868 7.02271 171.095 17.8182 171.038 37.0227C170.982 56.1988 180.868 67.5625 196.72 67.5909ZM196.72 54.75C191.266 54.75 187.345 49.267 187.402 37.0227C187.459 25.0625 191.266 19.75 196.72 19.75C202.175 19.75 206.01 25.0625 206.038 37.0227C206.067 49.267 202.175 54.75 196.72 54.75Z" fill="#6FA3FF"/>
        <path d="M255.158 67.5909C270.982 67.6193 280.811 56.2841 280.84 37.0227C280.868 17.875 270.982 7.02271 255.158 7.02271C239.305 7.02271 229.533 17.8182 229.476 37.0227C229.419 56.1988 239.305 67.5625 255.158 67.5909ZM255.158 54.75C249.703 54.75 245.783 49.267 245.84 37.0227C245.896 25.0625 249.703 19.75 255.158 19.75C260.612 19.75 264.447 25.0625 264.476 37.0227C264.504 49.267 260.612 54.75 255.158 54.75Z" fill="#6FA3FF"/>
    </g>
    <defs>
        <clipPath id="clip0">
            <rect width="296" height="244" fill="white"/>
        </clipPath>
    </defs>
</svg>
