<svg width="296" height="244" viewBox="0 0 296 244" fill="none" xmlns="http://www.w3.org/2000/svg">
    <g clip-path="url(#clip0)">
        <path d="M160.229 120.236C172.66 66.3665 218.242 36.669 249.321 27C249.321 70.5103 210.645 130.596 178.876 134.74" stroke="#D8D8D8" stroke-width="2" stroke-linecap="round" stroke-linejoin="round"/>
        <path d="M242.414 37.3594C226.53 69.1288 170.588 125.761 165.753 140.265" stroke="#D8D8D8" stroke-linecap="round" stroke-linejoin="round"/>
        <path d="M144.344 82.2508C87.7112 80.8695 66.9921 118.164 64.2295 121.617C85.1789 134.049 131.083 159.05 147.106 159.602C163.129 160.155 198.904 140.955 214.789 131.286C210.185 115.402 189.65 83.3558 144.344 82.2508Z" fill="#001D6D" stroke="#001D6D" stroke-width="2"/>
        <path d="M98.0709 71.2012C88.402 77.1867 65.4727 93.1635 51.1074 109.186C63.0785 114.251 87.5732 123.69 89.7832 120.927C91.9933 118.165 100.373 91.2297 104.287 78.1076L98.0709 71.2012Z" fill="#F6F6F6" stroke="#001D6D" stroke-width="2"/>
        <path d="M99.5 70.5C99.5 63.5 103.5 47.5002 107 45.5002C109.8 43.9002 105.833 59 103.5 66C104.833 61.6667 108.2 51.5004 111 51.5004C113.8 51.5004 110 59 107.5 62.5" stroke="#001D6D" stroke-width="2"/>
        <path d="M110 60.5C110.833 59.1667 112.8 55 114 55C115.5 55 114 58.5 114 59" stroke="#001D6D"/>
        <path d="M178.185 133.893C163.682 138.727 155.394 148.396 154.013 155.993C154.013 179.475 171.969 185 179.566 185C187.163 185 200.976 183.619 207.882 171.878C214.789 160.137 229.983 157.72 236.889 153.921C243.796 150.123 242 142.319 245.868 137.346C249.735 132.373 254.846 130.44 259.681 129.058C266.587 127.085 274.046 124.086 279.018 120.771C285.234 116.627 291.45 104.886 285.234 100.051C279.018 93.145 265.206 96.5982 259.681 100.051C252.604 104.474 250.702 111.792 243.105 113.864C235.508 115.936 223.077 111.792 214.789 113.864C206.501 115.936 203.048 123.533 196.142 129.058C189.235 134.583 190.547 129.772 178.185 133.893Z" fill="#F6F6F6" stroke="#D8D8D8" stroke-width="2" stroke-linecap="round" stroke-linejoin="round"/>
        <path d="M160.229 172.569C173.351 155.303 180.948 153.921 187.163 153.231C193.379 152.54 209.955 146.324 215.48 141.49C221.005 136.655 232.746 126.986 238.271 124.915C242.691 123.257 258.99 117.778 266.587 115.246" stroke="#D8D8D8" stroke-linecap="round" stroke-linejoin="round"/>
        <path d="M45.2621 103.4C91.399 106.419 143.39 135.384 161.863 155.329C173.606 168.009 157.059 183.515 135.019 177.67C103.143 169.216 89.7214 156.536 85.5271 141.441C54.4896 139.629 49.7796 122.119 45.2621 122.119C31.0017 122.119 19.8873 118.181 10.0302 113.665C0.803194 109.438 -1.43375 105.816 0.803174 103.4C3.04013 100.985 8.35261 100.985 45.2621 103.4Z" fill="#F6F6F6" stroke="#D8D8D8" stroke-width="2" stroke-linecap="round" stroke-linejoin="round"/>
        <path d="M51.1074 112.37C66.0252 109.848 84.2581 111.739 100.833 116.783" stroke="#D8D8D8" stroke-linecap="round" stroke-linejoin="round"/>
        <path d="M100.833 139.996C115.751 137.474 133.984 139.365 150.56 144.409" stroke="#D8D8D8" stroke-linecap="round" stroke-linejoin="round"/>
        <path d="M125.315 89.1074C125.315 83.5846 129.792 79.1074 135.315 79.1074H154.753C160.276 79.1074 164.753 83.5846 164.753 89.1074V111.308C164.753 116.831 160.276 121.308 154.753 121.308H135.315C129.792 121.308 125.315 116.831 125.315 111.308V89.1074Z" fill="#F6F6F6" stroke="#001D6D" stroke-width="2"/>
        <path d="M145.034 83.6323V105.733" stroke="#001D6D" stroke-width="2"/>
        <path d="M147.797 113.865C148.516 110.9 151.503 109.078 154.468 109.797" stroke="#001D6D" stroke-width="2"/>
        <rect x="123.934" y="36.2876" width="40.8197" height="44.9635" rx="20.4098" fill="#D8D8D8" stroke="#001D6D" stroke-width="2"/>
        <path d="M138.819 54.6255L122.934 59.46L125.006 68.4383L140.2 81.5604L153.322 75.3447L167.826 62.2225L163.682 54.6255H138.819Z" fill="#F6F6F6"/>
        <rect x="133.984" y="73.9634" width="23.4817" height="15.1941" fill="#001D6D"/>
        <circle cx="120.171" cy="82.2512" r="23.863" fill="#6FA3FF" stroke="#001D6D" stroke-width="2"/>
        <circle cx="169.897" cy="80.8699" r="23.863" fill="#6FA3FF" stroke="#001D6D" stroke-width="2"/>
        <path d="M170.588 42.8849L124.315 58.0791C124.315 58.0791 133.293 55.3164 145.034 55.3164C156.775 55.3164 164.372 58.0791 164.372 58.0791L221.004 42.8849C221.004 42.8849 203.738 40.8128 193.379 40.813C186.968 40.8131 170.588 42.8849 170.588 42.8849Z" fill="#D8D8D8" stroke="#001D6D" stroke-width="2" stroke-linejoin="round"/>
        <path d="M3.29541 208.909H31.5909V218H46.7045V208.909H53.409V196.637H46.7045V159.818H26.7045L3.29541 196.637V208.909ZM31.9318 196.637H18.8636V196.182L31.4772 176.182H31.9318V196.637Z" fill="#6FA3FF"/>
        <path d="M85.3764 219.591C101.2 219.62 111.03 208.284 111.058 189.023C111.087 169.875 101.2 159.023 85.3764 159.023C69.5241 159.023 59.7514 169.818 59.6946 189.023C59.6377 208.199 69.5241 219.563 85.3764 219.591ZM85.3764 206.75C79.9218 206.75 76.0014 201.267 76.0582 189.023C76.115 177.063 79.9218 171.75 85.3764 171.75C90.8309 171.75 94.6662 177.063 94.6946 189.023C94.723 201.267 90.8309 206.75 85.3764 206.75Z" fill="#6FA3FF"/>
        <path d="M117.905 208.909H146.2V218H161.314V208.909H168.018V196.637H161.314V159.818H141.314L117.905 196.637V208.909ZM146.541 196.637H133.473V196.182L146.087 176.182H146.541V196.637Z" fill="#6FA3FF"/>
    </g>
    <defs>
        <clipPath id="clip0">
            <rect width="296" height="244" fill="white"/>
        </clipPath>
    </defs>
</svg>
