<svg width="296" height="244" viewBox="0 0 296 244" fill="none" xmlns="http://www.w3.org/2000/svg">
    <rect width="296" height="244" />
    <path d="M29 86.5C29 51.4299 57.4299 23 92.5 23C127.57 23 156 51.4299 156 86.5V222H29V86.5Z"
          stroke="#001D6D" stroke-width="2"/>
    <mask id="mask0" maskUnits="userSpaceOnUse" x="30" y="24" width="125" height="197">
        <path d="M30.0067 87.2164C29.4989 50.7718 57.9859 24 92.5 24C127.014 24 155.502 51.7821 154.993 87.2164V221H30.0067V87.2164Z" fill="#A7C7FF"/>
    </mask>
    <g mask="url(#mask0)">
        <rect x="-60.4385" y="77.9999" width="340" height="14" transform="rotate(32.6628 -60.4385 77.9999)" fill="white"/>
        <path d="M93.6872 176.805L111.302 188.097L92.7369 192.826L75.1225 181.534L93.6872 176.805Z" fill="#D6D8DE"/>
        <path d="M122.31 195.155L139.925 206.447L121.36 211.175L103.746 199.883L122.31 195.155Z" fill="#D6D8DE"/>
        <path d="M150.934 213.504L168.548 224.796L149.983 229.525L132.369 218.233L150.934 213.504Z" fill="#D6D8DE"/>
        <path d="M36.4406 140.106L54.0549 151.398L35.4903 156.127L17.8759 144.835L36.4406 140.106Z" fill="#D6D8DE"/>
        <path d="M65.0636 158.456L82.678 169.748L64.1133 174.476L46.499 163.184L65.0636 158.456Z" fill="#D6D8DE"/>
        <rect x="-59.5181" y="103.049" width="340" height="14" transform="rotate(-14.3692 -59.5181 103.049)" fill="white"/>
        <path d="M117.831 57.6146L138.1 52.4221L128.906 69.2294L108.638 74.4219L117.831 57.6146Z" fill="#D6D8DE"/>
        <path d="M150.768 49.1768L171.036 43.9843L161.843 60.7916L141.574 65.9841L150.768 49.1768Z" fill="#D6D8DE"/>
        <path d="M19.0223 82.9279L39.2909 77.7354L30.0974 94.5428L9.82887 99.7352L19.0223 82.9279Z" fill="#D6D8DE"/>
        <path d="M51.9588 74.4901L72.2274 69.2976L63.0339 86.105L42.7654 91.2974L51.9588 74.4901Z" fill="#D6D8DE"/>
        <path d="M84.8954 66.0523L105.164 60.8599L95.9704 77.6672L75.7019 82.8597L84.8954 66.0523Z" fill="#D6D8DE"/>
        <rect x="-21.6289" y="318.865" width="340" height="14" transform="rotate(-57.421 -21.6289 318.865)" fill="white"/>
        <path d="M76.9511 164.596L88.2174 146.965L92.9731 165.522L81.7068 183.153L76.9511 164.596Z" fill="#D6D8DE"/>
        <path d="M95.2587 135.945L106.525 118.315L111.281 136.872L100.014 154.503L95.2587 135.945Z" fill="#D6D8DE"/>
        <path d="M113.567 107.295L124.833 89.6646L129.589 108.222L118.322 125.853L113.567 107.295Z" fill="#D6D8DE"/>
        <path d="M40.3359 221.896L51.6022 204.265L56.3578 222.823L45.0915 240.453L40.3359 221.896Z" fill="#D6D8DE"/>
        <path d="M131.874 78.6453L143.141 61.0145L147.896 79.5722L136.63 97.203L131.874 78.6453Z" fill="#D6D8DE"/>
        <path d="M58.6435 193.246L69.9098 175.615L74.6654 194.173L63.3991 211.803L58.6435 193.246Z" fill="#D6D8DE"/>
        <path d="M150.182 49.9952L161.448 32.3644L166.204 50.9222L154.938 68.553L150.182 49.9952Z" fill="#D6D8DE"/>
    </g>
    <rect x="153" y="102" width="6" height="22" rx="3" fill="#001D6D"/>
    <rect x="153" y="179" width="6" height="22" rx="3" fill="#001D6D"/>
    <rect x="40.5" y="116.5" width="11" height="21" rx="5.5" stroke="#001D6D"/>
    <rect x="44.5" y="124.5" width="31" height="5" rx="2.5" fill="#F3F4F6" stroke="#001D6D"/>
    <path d="M118.295 171.909H146.591V181H161.704V171.909H168.409V159.636H161.704V122.818H141.705L118.295 159.636V171.909ZM146.932 159.636H133.864V159.182L146.477 139.182H146.932V159.636Z" fill="#6FA3FF"/>
    <path d="M200.376 182.591C216.2 182.619 226.03 171.284 226.058 152.023C226.087 132.875 216.2 122.023 200.376 122.023C184.524 122.023 174.751 132.818 174.695 152.023C174.638 171.199 184.524 182.562 200.376 182.591ZM200.376 169.75C194.922 169.75 191.001 164.267 191.058 152.023C191.115 140.062 194.922 134.75 200.376 134.75C205.831 134.75 209.666 140.062 209.695 152.023C209.723 164.267 205.831 169.75 200.376 169.75Z" fill="#6FA3FF"/>
    <path d="M256.2 181.795C270.433 181.795 280.462 174.551 280.405 164.295C280.462 157.165 275.689 152.136 266.314 151.114V150.659C273.246 149.92 278.303 145.46 278.246 138.955C278.303 129.153 269.212 122.023 256.314 122.023C243.132 122.023 233.757 129.551 233.7 140.205H248.814C248.871 136.682 251.967 134.182 256.314 134.182C260.291 134.182 263.075 136.597 263.018 139.977C263.075 143.5 259.78 146 255.064 146H249.155V156.909H255.064C260.178 156.909 263.757 159.409 263.7 162.932C263.757 166.54 260.689 169.068 256.314 169.068C251.768 169.068 248.53 166.653 248.473 163.273H232.564C232.621 174.125 242.422 181.795 256.2 181.795Z" fill="#6FA3FF"/>
</svg>
