<svg width="24" height="24" viewBox="0 0 24 24" fill="none" xmlns="http://www.w3.org/2000/svg">
<path fill-rule="evenodd" clip-rule="evenodd" d="M0 15H24V5C24 3.89543 23.1046 3 22 3H2C0.89543 3 0 3.89543 0 5V15Z" fill="#F64E4E"/>
<path fill-rule="evenodd" clip-rule="evenodd" d="M0 19C0 20.1046 0.895431 21 2 21H22C23.1046 21 24 20.1046 24 19V15H0V19Z" fill="#1BA049"/>
<path d="M2 3C0.895431 3 0 3.89543 0 5V5.70001L0.57142 6.59999L0 7.49998V9.30001L0.57142 10.2L0 11.1V12.9L0.57142 13.8L0 14.7V16.5L0.57142 17.4L0 18.3V19C0 20.1046 0.89543 21 2 21H3.42857V18.3L2.85714 17.4L3.42857 16.5V14.7L2.85714 13.8L3.42857 12.9V11.1L2.85714 10.2L3.42857 9.3V7.5L2.85714 6.6L3.42857 5.7V3H2Z" fill="white"/>
<path d="M0.571411 4.8L1.71427 3L2.85713 4.8L1.71427 6.6L0.571411 4.8Z" fill="#F64E4E"/>
<path d="M1.71427 10.2L0.571411 8.4L1.71427 6.6L2.85713 8.4L1.71427 10.2Z" fill="#F64E4E"/>
<path d="M1.71427 13.8L0.571411 12L1.71427 10.2L2.85713 12L1.71427 13.8Z" fill="#F64E4E"/>
<path d="M1.71427 17.4L2.85713 15.6L1.71427 13.8L0.571411 15.6L1.71427 17.4Z" fill="#F64E4E"/>
<path d="M1.71427 17.4L2.85713 19.2L1.71427 21L0.571411 19.2L1.71427 17.4Z" fill="#F64E4E"/>
</svg>
