<svg width="24" height="24" viewBox="0 0 24 24" fill="none" xmlns="http://www.w3.org/2000/svg">
<path fill-rule="evenodd" clip-rule="evenodd" d="M0 19H24V5H0V19Z" fill="#022D9A"/>
<path fill-rule="evenodd" clip-rule="evenodd" d="M0 5H24V5C24 3.89543 23.1046 3 22 3H2C0.89543 3 0 3.89543 0 5V5Z" fill="#F64E4E"/>
<path fill-rule="evenodd" clip-rule="evenodd" d="M0 19C0 20.1046 0.895431 21 2 21H22C23.1046 21 24 20.1046 24 19V19H0V19Z" fill="#F64E4E"/>
<path fill-rule="evenodd" clip-rule="evenodd" d="M12.1429 17.2857C14.9832 17.2857 17.2857 14.9832 17.2857 12.1429C17.2857 9.30254 14.9832 7 12.1429 7C9.30254 7 7 9.30254 7 12.1429C7 14.9832 9.30254 17.2857 12.1429 17.2857Z" fill="white"/>
<path fill-rule="evenodd" clip-rule="evenodd" d="M12.0952 9.33333C12.0034 9.33333 11.9128 9.33779 11.8236 9.34647C11.4572 9.38214 11.1312 9.11397 11.0955 8.74752C11.0599 8.38106 11.328 8.05507 11.6945 8.01941C11.8265 8.00656 11.9602 8 12.0952 8C12.2303 8 12.364 8.00656 12.496 8.01941C12.8625 8.05507 13.1306 8.38106 13.095 8.74752C13.0593 9.11397 12.7333 9.38214 12.3669 9.34647C12.2777 9.33779 12.1871 9.33333 12.0952 9.33333ZM10.4352 9.0216C10.669 9.30608 10.6278 9.72618 10.3434 9.95992C10.2034 10.0749 10.0749 10.2034 9.95992 10.3434C9.72618 10.6278 9.30608 10.669 9.0216 10.4352C8.73711 10.2015 8.69598 9.78141 8.92971 9.49692C9.09983 9.28987 9.28987 9.09983 9.49692 8.92971C9.78141 8.69598 10.2015 8.73711 10.4352 9.0216ZM13.7552 9.0216C13.989 8.73711 14.4091 8.69598 14.6936 8.92971C14.9006 9.09983 15.0906 9.28987 15.2608 9.49692C15.4945 9.78141 15.4534 10.2015 15.1689 10.4352C14.8844 10.669 14.4643 10.6278 14.2306 10.3434C14.1156 10.2034 13.9871 10.0749 13.8471 9.95992C13.5626 9.72618 13.5215 9.30608 13.7552 9.0216ZM15.443 11.0955C15.8094 11.0599 16.1354 11.328 16.1711 11.6945C16.1839 11.8265 16.1905 11.9602 16.1905 12.0952C16.1905 12.2303 16.1839 12.364 16.1711 12.496C16.1354 12.8625 15.8094 13.1306 15.443 13.095C15.0765 13.0593 14.8083 12.7333 14.844 12.3669C14.8527 12.2777 14.8571 12.1871 14.8571 12.0952C14.8571 12.0034 14.8527 11.9128 14.844 11.8236C14.8083 11.4572 15.0765 11.1312 15.443 11.0955ZM8.74752 11.0955C9.11397 11.1312 9.38214 11.4572 9.34647 11.8236C9.33779 11.9128 9.33333 12.0034 9.33333 12.0952C9.33333 12.1871 9.33779 12.2777 9.34647 12.3669C9.38214 12.7333 9.11397 13.0593 8.74752 13.095C8.38106 13.1306 8.05507 12.8625 8.01941 12.496C8.00656 12.364 8 12.2303 8 12.0952C8 11.9602 8.00656 11.8265 8.01941 11.6945C8.05507 11.328 8.38106 11.0599 8.74752 11.0955ZM9.0216 13.7552C9.30608 13.5215 9.72618 13.5626 9.95992 13.8471C10.0749 13.9871 10.2034 14.1156 10.3434 14.2306C10.6278 14.4643 10.669 14.8844 10.4352 15.1689C10.2015 15.4534 9.78141 15.4945 9.49692 15.2608C9.28987 15.0906 9.09983 14.9006 8.92971 14.6936C8.69598 14.4091 8.73711 13.989 9.0216 13.7552ZM15.1689 13.7552C15.4534 13.989 15.4945 14.4091 15.2608 14.6936C15.0906 14.9006 14.9006 15.0906 14.6936 15.2608C14.4091 15.4945 13.989 15.4534 13.7552 15.1689C13.5215 14.8844 13.5626 14.4643 13.8471 14.2306C13.9871 14.1156 14.1156 13.9871 14.2306 13.8471C14.4643 13.5626 14.8844 13.5215 15.1689 13.7552ZM13.095 15.443C13.1306 15.8094 12.8625 16.1354 12.496 16.1711C12.364 16.1839 12.2303 16.1905 12.0952 16.1905C11.9602 16.1905 11.8265 16.1839 11.6945 16.1711C11.328 16.1354 11.0599 15.8094 11.0955 15.443C11.1312 15.0765 11.4572 14.8083 11.8236 14.844C11.9128 14.8527 12.0034 14.8571 12.0952 14.8571C12.1871 14.8571 12.2777 14.8527 12.3669 14.844C12.7333 14.8083 13.0593 15.0765 13.095 15.443Z" fill="#1BA049"/>
</svg>
