<svg width="24" height="24" viewBox="0 0 24 24" fill="none" xmlns="http://www.w3.org/2000/svg">
<rect y="3" width="24" height="18" rx="2" fill="#D92020"/>
<path d="M0 5C0 3.89543 0.895431 3 2 3H10V11H0V5Z" fill="#022D9A"/>
<path d="M2.03252e-05 9.60929L3.33333 7.22835V6.73519L0.22739 4.07296C0.331861 3.87361 0.468974 3.69405 0.63163 3.5414L4 6.42857V7.57143L2.03252e-05 10.4286V9.60929Z" fill="white"/>
<path d="M10.9524 3V3.39989C10.9524 3.72284 10.7964 4.02591 10.5336 4.21362L6.95238 6.77165V7.2648L10.3317 10.1614C10.9348 10.6783 10.5692 11.6667 9.77485 11.6667C9.59651 11.6667 9.42263 11.6109 9.27751 11.5073L5.50064 8.80952H4.76263L2.03252e-05 11.7862V11L4.57143 8.14286H5.71429L9.665 10.9648C9.69706 10.9877 9.73546 11 9.77485 11C9.9503 11 10.031 10.7817 9.89784 10.6675L6.28571 7.57143V6.42857L10.1461 3.67113C10.2337 3.60856 10.2857 3.50754 10.2857 3.39989V3L10.9524 3Z" fill="white"/>
<path d="M9.02784 3L10.2857 3L5.71429 5.85714H4.57143L0.970449 3.28501C1.20126 3.14615 1.4624 3.05257 1.74157 3.01655L4.78507 5.19048H5.52309L9.02784 3Z" fill="white"/>
<path fill-rule="evenodd" clip-rule="evenodd" d="M0 5.85714V8.14286H4V10.9048C4 11.273 4.29848 11.5714 4.66667 11.5714H5.61905C5.98724 11.5714 6.28571 11.273 6.28571 10.9048V8.14286H10.1905C10.5587 8.14286 10.8571 7.84438 10.8571 7.47619V6.52381C10.8571 6.15562 10.5587 5.85714 10.1905 5.85714H6.28571V3H4V5.85714H0Z" fill="white"/>
<path d="M0.620846 3.53215C0.724084 3.43571 0.837716 3.35017 0.959804 3.27741L4 5.44898V5.85714H3.33333L0.620846 3.53215Z" fill="#F64E4E"/>
<path d="M6.28571 5.5L10.2857 3V3.39989C10.2857 3.50754 10.2337 3.60856 10.1461 3.67113L7.08571 5.85714H6.28571V5.5Z" fill="#F64E4E"/>
<path d="M6.28571 8.14286H6.95238L9.89784 10.6675C10.031 10.7817 9.9503 11 9.77485 11C9.73546 11 9.69706 10.9877 9.665 10.9648L6.28571 8.55102V8.14286Z" fill="#F64E4E"/>
<path d="M4 8.14286V8.5L2.03252e-05 11L0 10.4286L3.2 8.14286H4Z" fill="#F64E4E"/>
<path d="M4.57143 6.42857H0V7.57143H4.57143V11H5.71429V7.57143H10.2857V6.42857H5.71429V3H4.57143V6.42857Z" fill="#F64E4E"/>
<path fill-rule="evenodd" clip-rule="evenodd" d="M15 12.8571C15 11.1429 15 10 15 10H17.2857H19.5714C19.5714 10 19.5714 11.1429 19.5714 12.8571C19.5714 14.5714 17.2857 15.7143 17.2857 15.7143C17.2857 15.7143 15 14.5714 15 12.8571Z" fill="white"/>
<path fill-rule="evenodd" clip-rule="evenodd" d="M17.2857 14.5714C17.9169 14.5714 18.4286 14.0598 18.4286 13.4286C18.4286 12.7974 17.9169 12.2857 17.2857 12.2857C16.6546 12.2857 16.1429 12.7974 16.1429 13.4286C16.1429 14.0598 16.6546 14.5714 17.2857 14.5714Z" fill="#B3D1FF"/>
<path d="M17.2857 12.2857C17.6013 12.2857 17.8571 12.0299 17.8571 11.7143C17.8571 11.3987 17.6013 11.1429 17.2857 11.1429C16.9701 11.1429 16.7143 11.3987 16.7143 11.7143C16.7143 12.0299 16.9701 12.2857 17.2857 12.2857Z" fill="#D92020"/>
<path d="M16.1428 13.4286C16.4584 13.4286 16.7143 13.1727 16.7143 12.8571C16.7143 12.5415 16.4584 12.2857 16.1428 12.2857C15.8272 12.2857 15.5714 12.5415 15.5714 12.8571C15.5714 13.1727 15.8272 13.4286 16.1428 13.4286Z" fill="#D92020"/>
<path d="M19 12.8571C19 13.1727 18.7441 13.4286 18.4286 13.4286C18.113 13.4286 17.8571 13.1727 17.8571 12.8571C17.8571 12.5415 18.113 12.2857 18.4286 12.2857C18.7441 12.2857 19 12.5415 19 12.8571Z" fill="#D92020"/>
<path d="M17.2857 15.7143C17.2838 15.7133 16.437 15.2895 15.7748 14.5714H18.7967C18.1345 15.2895 17.2877 15.7133 17.2857 15.7143Z" fill="#1BA049"/>
</svg>
