<svg xmlns="http://www.w3.org/2000/svg" viewBox="0 0 24 24">
  <path fill-rule="evenodd" d="M9.223 19.387a3.028 3.028 0 0 1-.299-.261l-4.023-4.023a3 3 0 0 1 0-4.243l5.228-5.228-1.528-1.528a.65.65 0 0 1 .92-.919l3.071 3.072a.644.644 0 0 1 .05.055l6.174 6.175a.698.698 0 0 1 0 .99l-5.649 5.649a3 3 0 0 1-3.944.261ZM5.323 13h12.13l.02-.018-6.428-6.427-5.224 5.224c-.337.337-.503.78-.498 1.221Z"/>
  <path d="M20.573 18.5a1.5 1.5 0 1 1-3 0c0-1.196.954-2.073 1.34-2.38a.254.254 0 0 1 .32 0c.385.307 1.34 1.184 1.34 2.38Z"/>
</svg>
