<svg viewBox="0 0 87 40" fill="none" xmlns="http://www.w3.org/2000/svg">
  <path fill-rule="evenodd" clip-rule="evenodd" d="M11.8101 5L10.6069 8.3133H27.2829L28.4861 5H11.8101ZM10.0055 9.96942L8.80293 13.2839H25.4778L26.681 9.96942H10.0055ZM8.20319 14.9404L7 18.2536H23.6766L24.8786 14.9404H8.20319Z" fill="#00AAFF"/>
  <path fill-rule="evenodd" clip-rule="evenodd" d="M67.0143 26.5147H69.9993C71.1321 26.5147 71.818 26.2395 72.2985 25.6204C72.5388 25.3109 72.8821 24.7605 72.8821 23.7283C72.8821 22.6967 72.5388 21.9741 71.8523 21.4586C71.441 21.1485 70.8912 20.9769 69.965 20.9769H67.0143V26.5147ZM63.0681 29.8507V9.96973H75.9702L74.8381 13.3065H67.0143V17.7092H70.2054C72.7792 17.7092 74.1172 18.3282 75.044 19.1189C75.7643 19.7386 77 21.114 77 23.8317C77 26.5145 75.7299 27.9935 74.6665 28.7505C73.4307 29.6104 72.127 29.8507 69.4851 29.8507H63.0681ZM51.6415 29.8507V13.3065H45.911V9.96973H61.8331L60.701 13.3065H55.6221V29.8507H51.6415ZM35.7543 17.9152H37.9848C38.6707 17.9152 39.014 17.9152 39.3572 17.8122C40.284 17.537 40.8669 16.7114 40.8669 15.5763C40.8669 14.2352 40.2497 13.6504 39.3572 13.3752C38.9796 13.2717 38.6021 13.2373 37.8475 13.2373H35.7543V17.9152ZM35.7882 21.3548V26.5831H38.5336C39.3574 26.5831 40.1125 26.5144 40.6611 25.9983C41.2103 25.4823 41.4506 24.8289 41.4506 23.9689C41.4506 23.3156 41.279 22.6965 40.9357 22.2491C40.3522 21.527 39.632 21.3548 38.3969 21.3548H35.7882ZM42.1364 19.2569V19.3255C42.8915 19.6007 43.6124 20.0825 43.9893 20.392C45.1564 21.3549 45.6713 22.628 45.6713 24.2786C45.6713 26.9963 44.2296 28.9565 41.8624 29.5761C41.1416 29.7821 40.3864 29.8507 38.9797 29.8507H31.8081V9.96978H38.1565C39.4602 9.96978 40.3521 10.0384 41.1416 10.245C43.4407 10.864 44.9504 12.4466 44.9504 14.9572C44.9504 16.2989 44.4693 17.434 43.681 18.1904C43.3378 18.5348 42.8572 18.9473 42.1364 19.2569Z" fill="#0A2896"/>
</svg>