<svg xmlns="http://www.w3.org/2000/svg" viewBox="0 0 24 24">
  <defs/>
  <path fill-rule="evenodd" d="M7.494 20.745c-1.066.674-2.456-.091-2.456-1.351L5.046 5.6A2.6 2.6 0 017.647 3h8.79a2.6 2.6 0 012.6 2.599l-.008 13.8c0 1.253-1.379 2.02-2.445 1.358l-2.02-1.252-1.614 1.185a1.602 1.602 0 01-1.895 0l-1.608-1.18-1.953 1.234zM8.68 7.001a.65.65 0 000 1.3h6.7a.65.65 0 100-1.3h-6.7zm-.65 3.65a.65.65 0 01.65-.65h6.7a.65.65 0 110 1.3h-6.7a.65.65 0 01-.65-.65zm0 3a.65.65 0 01.65-.65h3.2a.65.65 0 110 1.3h-3.2a.65.65 0 01-.65-.65z"/>
</svg>
