<svg xmlns="http://www.w3.org/2000/svg" viewBox="0 0 24 24">
  <path d="M8.191 7.644a.65.65 0 0 1 .65-.65h6.318a.65.65 0 1 1 0 1.3H8.84a.65.65 0 0 1-.65-.65Zm.65 1.943a.65.65 0 1 0 0 1.3h6.318a.65.65 0 1 0 0-1.3H8.84Z"/>
  <path fill-rule="evenodd" d="M8 4a3 3 0 0 0-3 3v8.447l.002.002H5V17a3 3 0 0 0 3 3h8a3 3 0 0 0 3-3V7a3 3 0 0 0-3-3H8ZM6.3 7A1.7 1.7 0 0 1 8 5.3h8A1.7 1.7 0 0 1 17.7 7v5.45a1.7 1.7 0 0 1-1.7 1.7H7.856c-.574 0-1.109.17-1.556.461V7Zm11.4 7.922a2.986 2.986 0 0 1-1.7.527H7.856A1.55 1.55 0 0 0 6.306 17a.656.656 0 0 1-.005.07A1.7 1.7 0 0 0 8 18.7h8a1.7 1.7 0 0 0 1.7-1.7v-2.078Z"/>
</svg>
