<svg xmlns="http://www.w3.org/2000/svg" viewBox="0 0 24 24">
  <path d="M4.01 7.55H4V7a3 3 0 0 1 3-3h10a3 3 0 0 1 3 3v.544l.002.112v.657a.65.65 0 1 1-1.3 0v-.657l-.003-.105h-6.075a.649.649 0 0 1 .026.182v1.195a.65.65 0 1 1-1.3 0V7.733c0-.064.01-.125.026-.182H5.31a2.41 2.41 0 0 0-.002.105v.657a.65.65 0 1 1-1.3 0v-.657l.001-.105Zm15.992 3.797a.65.65 0 1 0-1.3 0v1.314a.65.65 0 1 0 1.3 0v-1.314Zm-14.693 0a.65.65 0 1 0-1.3 0v1.314a.65.65 0 1 0 1.3 0v-1.314Zm14.693 4.347a.65.65 0 1 0-1.3 0v.658c0 .191-.023.376-.066.553a.65.65 0 1 0 1.264.305c.067-.276.102-.564.102-.858v-.658Zm-14.693 0a.65.65 0 1 0-1.3 0v.658c0 .294.035.582.101.858a.65.65 0 1 0 1.264-.305 2.357 2.357 0 0 1-.065-.553v-.658Zm1.796 2.942A.65.65 0 0 0 6.8 19.9c.276.067.564.102.859.102h.657a.65.65 0 0 0 0-1.3h-.657c-.192 0-.377-.023-.554-.066ZM17.21 19.9a.65.65 0 0 0-.305-1.264 2.355 2.355 0 0 1-.553.066h-.657a.65.65 0 1 0 0 1.3h.657c.295 0 .582-.035.858-.102Zm-5.862-1.198a.65.65 0 1 0 0 1.3h1.314a.65.65 0 0 0 0-1.3h-1.314Zm3.728-7.348a.65.65 0 1 0 0 1.3h1.195a.65.65 0 1 0 0-1.3h-1.195ZM12 16.923a.65.65 0 0 1-.65-.65v-1.195a.65.65 0 1 1 1.3 0v1.195a.65.65 0 0 1-.65.65Zm-4.271-5.569a.65.65 0 1 0 0 1.3h1.195a.65.65 0 1 0 0-1.3H7.729Z"/>
</svg>
