<svg xmlns="http://www.w3.org/2000/svg" viewBox="0 0 24 24">
  <path d="M5.3 7.658A2.35 2.35 0 0 1 7.65 5.31h.356a.654.654 0 0 0 .11-.009h.192a.65.65 0 0 0 0-1.3H7.65c-.295 0-.582.035-.858.102a.654.654 0 0 0-.113.038A3.657 3.657 0 0 0 4 7.65v8.695a3.65 3.65 0 0 0 3.65 3.65h.658a.65.65 0 1 0 0-1.3H7.65a2.35 2.35 0 0 1-2.35-2.35V7.658ZM11.342 4a.65.65 0 1 0 0 1.3h1.315a.65.65 0 1 0 0-1.3h-1.315Zm4.35 0a.65.65 0 1 0 0 1.3h.657c.192 0 .377.023.554.065a.65.65 0 1 0 .305-1.263A3.657 3.657 0 0 0 16.349 4h-.657Zm4.206 2.792a.65.65 0 0 0-1.264.304c.043.177.065.363.065.554v.657a.65.65 0 1 0 1.3 0V7.65a3.66 3.66 0 0 0-.101-.858ZM20 11.34a.65.65 0 1 0-1.3 0v1.315a.65.65 0 0 0 1.3 0V11.34Zm0 4.348a.65.65 0 1 0-1.3 0v.657c0 .192-.023.377-.066.554a.65.65 0 0 0 1.264.305 3.66 3.66 0 0 0 .101-.859v-.657Zm-2.792 4.206a.65.65 0 0 0-.305-1.264 2.356 2.356 0 0 1-.554.065h-.657a.65.65 0 1 0 0 1.3h.657c.295 0 .583-.035.859-.101Zm-5.866-1.199a.65.65 0 1 0 0 1.3h1.315a.65.65 0 1 0 0-1.3h-1.315Zm.652-9.124a.65.65 0 0 1-.65-.65V7.726a.65.65 0 0 1 1.3 0v1.195a.65.65 0 0 1-.65.65Zm3.078 1.777a.65.65 0 0 0 0 1.3h1.196a.65.65 0 1 0 0-1.3h-1.196Zm-3.078 5.569a.65.65 0 0 1-.65-.65v-1.195a.65.65 0 0 1 1.3 0v1.195a.65.65 0 0 1-.65.65Z"/>
  <path d="M7.72 11.348a.65.65 0 1 0 0 1.3h1.197a.65.65 0 1 0 0-1.3H7.721Z"/>
</svg>
