<svg xmlns="http://www.w3.org/2000/svg" viewBox="0 0 24 24">
  <path d="M4 16.996a3 3 0 0 0 3 3h10a3 3 0 0 0 3-3v-.539l.002-.112v-.657a.65.65 0 1 0-1.3 0v.657l-.002.1h-6.075a.654.654 0 0 0 .025-.178v-1.195a.65.65 0 1 0-1.3 0v1.195c0 .062.009.122.025.179H5.31a2.405 2.405 0 0 1-.002-.1v-.658a.65.65 0 1 0-1.3 0v.657l.001.1H4v.551ZM7.105 5.365c.177-.042.362-.065.554-.065h.657a.65.65 0 0 0 0-1.3h-.657a3.64 3.64 0 0 0-.859.102.65.65 0 1 0 .305 1.263ZM11.348 4a.65.65 0 1 0 0 1.3h1.314a.65.65 0 1 0 0-1.3h-1.314Zm4.347 0a.65.65 0 1 0 0 1.3h.657c.191 0 .376.023.553.065a.65.65 0 1 0 .305-1.263A3.658 3.658 0 0 0 16.352 4h-.657ZM5.374 7.096a.65.65 0 0 0-1.264-.304 3.657 3.657 0 0 0-.101.858v.657a.65.65 0 0 0 1.3 0V7.65c0-.191.022-.377.065-.554ZM19.9 6.792a.65.65 0 1 0-1.264.304c.043.177.066.363.066.554v.657a.65.65 0 1 0 1.3 0V7.65c0-.295-.035-.582-.102-.858Zm.102 4.548a.65.65 0 1 0-1.3 0v1.315a.65.65 0 0 0 1.3 0V11.34Zm-14.693 0a.65.65 0 1 0-1.3 0v1.315a.65.65 0 0 0 1.3 0V11.34ZM12 9.571a.65.65 0 0 1-.65-.65V7.726a.65.65 0 1 1 1.3 0v1.195a.65.65 0 0 1-.65.65Zm3.076 1.777a.65.65 0 1 0 0 1.3h1.195a.65.65 0 0 0 0-1.3h-1.195Zm-7.347 0a.65.65 0 1 0 0 1.3h1.195a.65.65 0 0 0 0-1.3H7.729Z"/>
</svg>
