<svg xmlns="http://www.w3.org/2000/svg" viewBox="0 0 24 24">
  <path d="M7.094 5.372c.177-.043.362-.066.554-.066h.656a.65.65 0 0 0 0-1.3h-.656c-.295 0-.582.035-.858.102a.65.65 0 0 0 .304 1.264Zm4.241-1.366a.65.65 0 0 0 0 1.3h1.313a.65.65 0 0 0 0-1.3h-1.313Zm4.343 0a.65.65 0 0 0 0 1.3h.657c.04 0 .078.001.116.003v6.075a.646.646 0 0 0-.196-.03H15.06a.65.65 0 0 0 0 1.3h1.195c.068 0 .135-.01.197-.03v6.075a2.368 2.368 0 0 1-.117.003h-.657a.65.65 0 0 0 0 1.3h.657l.116-.002h.55A2.999 2.999 0 0 0 20 17V7a3 3 0 0 0-2.998-3h-.55v.008a3.696 3.696 0 0 0-.117-.002h-.657ZM5.365 7.103a.65.65 0 0 0-1.263-.305A3.66 3.66 0 0 0 4 7.656v.657a.65.65 0 1 0 1.3 0v-.657c0-.191.022-.376.065-.553ZM5.3 11.347a.65.65 0 1 0-1.3 0v1.314a.65.65 0 1 0 1.3 0v-1.314Zm0 4.347a.65.65 0 1 0-1.3 0v.658c0 .294.035.582.102.858a.65.65 0 1 0 1.263-.305 2.359 2.359 0 0 1-.066-.553v-.658Zm1.794 2.942A.65.65 0 0 0 6.79 19.9c.276.067.563.102.858.102h.656a.65.65 0 0 0 0-1.3h-.656c-.192 0-.377-.023-.554-.066Zm4.241.066a.65.65 0 0 0 0 1.3h1.313a.65.65 0 0 0 0-1.3h-1.313Zm.651-9.124a.65.65 0 0 1-.65-.65V7.733a.65.65 0 1 1 1.3 0v1.195a.65.65 0 0 1-.65.65Zm0 7.345a.65.65 0 0 1-.65-.65v-1.195a.65.65 0 1 1 1.3 0v1.195a.65.65 0 0 1-.65.65Zm-4.268-5.569a.65.65 0 0 0 0 1.3h1.194a.65.65 0 0 0 0-1.3H7.718Z"/>
</svg>
