<svg xmlns="http://www.w3.org/2000/svg" viewBox="0 0 24 24">
  <path d="M7.55 5.309c.037-.002.072-.003.109-.003h.657a.65.65 0 0 0 0-1.3h-.657c-.036 0-.072 0-.108.002V4H7a3 3 0 0 0-3 3v10a3 3 0 0 0 3 3h.55l.109.002h.657a.65.65 0 0 0 0-1.3h-.657a1.92 1.92 0 0 1-.108-.003v-6.07a.652.652 0 0 0 .178.025h1.195a.65.65 0 1 0 0-1.3H7.729a.652.652 0 0 0-.178.025v-6.07Zm3.798-1.303a.65.65 0 1 0 0 1.3h1.314a.65.65 0 1 0 0-1.3h-1.314Zm4.347 0a.65.65 0 1 0 0 1.3h.657c.191 0 .376.023.553.066a.65.65 0 0 0 .305-1.264 3.658 3.658 0 0 0-.858-.102h-.657ZM19.9 6.798a.65.65 0 1 0-1.264.305c.043.177.066.362.066.553v.657a.65.65 0 1 0 1.3 0v-.657c0-.295-.035-.582-.102-.858Zm.102 4.549a.65.65 0 1 0-1.3 0v1.314a.65.65 0 1 0 1.3 0v-1.314Zm0 4.347a.65.65 0 1 0-1.3 0v.658c0 .191-.023.376-.066.553a.65.65 0 1 0 1.264.305c.067-.276.102-.564.102-.858v-.658ZM17.21 19.9a.65.65 0 0 0-.305-1.264 2.355 2.355 0 0 1-.553.066h-.657a.65.65 0 1 0 0 1.3h.657c.295 0 .582-.035.858-.102Zm-5.862-1.198a.65.65 0 1 0 0 1.3h1.314a.65.65 0 0 0 0-1.3h-1.314ZM12 9.578a.65.65 0 0 1-.65-.65V7.733a.65.65 0 1 1 1.3 0v1.195a.65.65 0 0 1-.65.65Zm3.076 1.776a.65.65 0 1 0 0 1.3h1.195a.65.65 0 1 0 0-1.3h-1.195ZM12 16.923a.65.65 0 0 1-.65-.65v-1.195a.65.65 0 1 1 1.3 0v1.195a.65.65 0 0 1-.65.65Z"/>
</svg>
