<svg xmlns="http://www.w3.org/2000/svg" viewBox="0 0 24 24">
  <path d="M11.995 9.571a.65.65 0 0 1-.65-.65V7.726a.65.65 0 0 1 1.3 0v1.195a.65.65 0 0 1-.65.65Zm3.077 1.777a.65.65 0 1 0 0 1.3h1.196a.65.65 0 1 0 0-1.3h-1.196Zm-3.077 5.571a.65.65 0 0 1-.65-.65v-1.195a.65.65 0 0 1 1.3 0v1.195a.65.65 0 0 1-.65.65Zm-4.273-5.571a.65.65 0 1 0 0 1.3h1.195a.65.65 0 1 0 0-1.3H7.722Z"/>
  <path fill-rule="evenodd" d="M4 7.65A3.65 3.65 0 0 1 7.652 4h8.696A3.65 3.65 0 0 1 20 7.65v8.695a3.65 3.65 0 0 1-3.652 3.65H7.652A3.65 3.65 0 0 1 4 16.345V7.65ZM7.652 5.3A2.35 2.35 0 0 0 5.3 7.65v8.695a2.35 2.35 0 0 0 2.35 2.35h8.697a2.35 2.35 0 0 0 2.351-2.35V7.65a2.35 2.35 0 0 0-2.35-2.35H7.651Z"/>
</svg>
