<svg xmlns="http://www.w3.org/2000/svg" viewBox="0 0 24 24">
  <path d="M11.999 4.063a.65.65 0 0 0-.65.648v14.641a.65.65 0 0 0 1.3 0V4.712a.65.65 0 0 0-.65-.649Zm-4.278 7.316a.65.65 0 1 0 0 1.296h1.196a.65.65 0 1 0 0-1.296H7.721Zm7.351 0a.65.65 0 1 0 0 1.296h1.196a.65.65 0 1 0 0-1.296h-1.196Zm-7.42-6.083c-.192 0-.377.023-.554.065a.648.648 0 1 1-.305-1.26c.276-.066.564-.101.859-.101h.657a.65.65 0 1 1 0 1.296h-.657Zm7.388-.648A.65.65 0 0 1 15.692 4h.657c.295 0 .583.035.86.101a.648.648 0 1 1-.306 1.26 2.367 2.367 0 0 0-.554-.065h-.657a.65.65 0 0 1-.65-.648ZM4.886 6.305c.35.084.564.434.48.782a2.343 2.343 0 0 0-.065.552v.655a.65.65 0 0 1-1.301 0v-.655c0-.294.035-.581.102-.856a.65.65 0 0 1 .784-.478Zm14.228 0a.65.65 0 0 1 .784.478c.067.275.102.562.102.856v.655a.65.65 0 0 1-1.3 0v-.655c0-.191-.023-.376-.066-.552a.648.648 0 0 1 .48-.782Zm.236 4.365c.359 0 .65.29.65.648v1.31a.65.65 0 0 1-1.3 0v-1.31a.65.65 0 0 1 .65-.648Zm-14.7 0c.36 0 .65.29.65.648v1.31a.65.65 0 0 1-1.3 0v-1.31a.65.65 0 0 1 .65-.648Zm14.7 4.334c.359 0 .65.29.65.648v.655c0 .294-.035.58-.102.856a.65.65 0 0 1-1.264-.304 2.33 2.33 0 0 0 .065-.552v-.655a.65.65 0 0 1 .65-.648Zm-14.7 0c.36 0 .65.29.65.648v.655c0 .19.023.375.066.552a.65.65 0 0 1-1.264.304A3.635 3.635 0 0 1 4 16.307v-.655a.65.65 0 0 1 .65-.648Zm1.663 4.058a.65.65 0 0 1 .785-.478c.177.043.362.066.554.066h.657a.65.65 0 1 1 0 1.296h-.657c-.295 0-.583-.036-.86-.102a.648.648 0 0 1-.479-.782Zm11.374 0a.648.648 0 0 1-.48.782 3.674 3.674 0 0 1-.859.101h-.657a.65.65 0 1 1 0-1.295h.657c.192 0 .377-.023.554-.066.35-.084.7.13.785.478Z"/>
</svg>
