<svg xmlns="http://www.w3.org/2000/svg" viewBox="0 0 24 24">
  <path d="M6.743 4.115A3.657 3.657 0 0 1 7.65 4h8.699c.295 0 .583.035.859.102h.005a3.656 3.656 0 0 1 2.68 2.673l.005.017c.066.276.101.563.101.858v.657a.65.65 0 1 1-1.3 0V7.65a2.35 2.35 0 0 0-2.35-2.35H7.657a2.35 2.35 0 0 0-2.35 2.35v.354a.655.655 0 0 1-.007.094v.21a.65.65 0 1 1-1.3 0V7.65c0-.295.035-.582.102-.858a.654.654 0 0 1 .03-.096 3.657 3.657 0 0 1 2.61-2.58ZM20 11.34a.65.65 0 1 0-1.3 0v1.315a.65.65 0 0 0 1.3 0V11.34Zm-14.7 0a.65.65 0 1 0-1.3 0v1.315a.65.65 0 0 0 1.3 0V11.34ZM20 15.688a.65.65 0 1 0-1.3 0v.657c0 .192-.023.377-.066.554a.65.65 0 0 0 1.264.305 3.66 3.66 0 0 0 .101-.859v-.657Zm-14.7 0a.65.65 0 1 0-1.3 0v.657c0 .295.035.583.102.859a.65.65 0 0 0 1.263-.305 2.359 2.359 0 0 1-.065-.554v-.657Zm1.796 2.942a.65.65 0 1 0-.304 1.264c.276.066.563.101.858.101h.658a.65.65 0 1 0 0-1.3H7.65c-.191 0-.377-.022-.554-.065Zm10.112 1.264a.65.65 0 0 0-.305-1.264 2.356 2.356 0 0 1-.554.065h-.657a.65.65 0 1 0 0 1.3h.657c.295 0 .583-.035.859-.101Zm-5.866-1.199a.65.65 0 1 0 0 1.3h1.315a.65.65 0 1 0 0-1.3h-1.315Z"/>
  <path d="M11.994 9.571a.65.65 0 0 1-.65-.65V7.726a.65.65 0 0 1 1.3 0v1.195a.65.65 0 0 1-.65.65Zm3.078 1.777a.65.65 0 0 0 0 1.3h1.196a.65.65 0 1 0 0-1.3h-1.196Zm-3.078 5.569a.65.65 0 0 1-.65-.65v-1.195a.65.65 0 0 1 1.3 0v1.195a.65.65 0 0 1-.65.65ZM7.72 11.348a.65.65 0 1 0 0 1.3h1.197a.65.65 0 1 0 0-1.3H7.721Z"/>
</svg>
