<svg xmlns="http://www.w3.org/2000/svg" viewBox="0 0 24 24">
  <path d="M7.652 5.3a2.36 2.36 0 0 0-.554.065.65.65 0 0 1-.305-1.263A3.66 3.66 0 0 1 7.652 4h.657a.65.65 0 1 1 0 1.3h-.657Zm3.04-.65a.65.65 0 0 1 .65-.65h1.315a.65.65 0 1 1 0 1.3h-1.314a.65.65 0 0 1-.65-.65Zm4.348 0a.65.65 0 0 1 .651-.65h.657c.295 0 .583.035.86.102a.65.65 0 1 1-.306 1.263 2.36 2.36 0 0 0-.554-.065h-.657a.65.65 0 0 1-.65-.65ZM4.886 6.312a.65.65 0 0 1 .48.784 2.357 2.357 0 0 0-.065.554v.657a.65.65 0 0 1-1.301 0V7.65c0-.295.035-.582.102-.858a.65.65 0 0 1 .784-.48Zm14.228 0a.65.65 0 0 1 .784.48c.067.276.102.563.102.858v.657a.65.65 0 0 1-1.3 0V7.65c0-.191-.023-.377-.066-.554a.65.65 0 0 1 .48-.784Zm.236 4.378a.65.65 0 0 1 .65.65v1.315a.65.65 0 0 1-1.3 0V11.34a.65.65 0 0 1 .65-.65Zm-14.7 0c.36 0 .65.292.65.65v1.315a.65.65 0 0 1-1.3 0V11.34a.65.65 0 0 1 .65-.65Zm14.7 4.348a.65.65 0 0 1 .65.65v.657c0 .295-.035.583-.102.859a.65.65 0 0 1-1.264-.305 2.34 2.34 0 0 0 .065-.554v-.657a.65.65 0 0 1 .65-.65Zm-14.7 0c.36 0 .65.291.65.65v.657c0 .192.023.377.066.554a.65.65 0 0 1-1.264.305A3.656 3.656 0 0 1 4 16.345v-.657a.65.65 0 0 1 .65-.65Zm1.663 4.072a.65.65 0 0 1 .785-.48c.177.043.362.065.554.065h.657a.65.65 0 1 1 0 1.3h-.657c-.295 0-.583-.035-.86-.101a.65.65 0 0 1-.479-.785Zm11.374 0a.65.65 0 0 1-.48.784 3.663 3.663 0 0 1-.859.101h-.657a.65.65 0 1 1 0-1.3h.657c.192 0 .377-.022.554-.065.35-.084.7.13.785.48Zm-6.995.235a.65.65 0 0 1 .65-.65h1.315a.65.65 0 1 1 0 1.3h-1.314a.65.65 0 0 1-.65-.65Zm1.303-9.773a.65.65 0 0 1-.65-.65V7.726a.65.65 0 0 1 1.3 0v1.196a.65.65 0 0 1-.65.65Zm3.077 1.776a.65.65 0 1 0 0 1.3h1.196a.65.65 0 1 0 0-1.3h-1.196Zm-3.077 5.572a.65.65 0 0 1-.65-.65v-1.196a.65.65 0 0 1 1.3 0v1.195a.65.65 0 0 1-.65.65Zm-4.273-5.572a.65.65 0 1 0 0 1.3h1.195a.65.65 0 1 0 0-1.3H7.722Z"/>
</svg>
