<svg xmlns="http://www.w3.org/2000/svg" viewBox="0 0 24 24">
  <path d="M16.625 18.68c-.09.01-.182.015-.276.015h-.657a.65.65 0 1 0 0 1.3h.657a3.651 3.651 0 0 0 3.545-2.777l.004-.014a3.66 3.66 0 0 0 .101-.859V7.65a3.66 3.66 0 0 0-.101-.858 3.657 3.657 0 0 0-2.576-2.651.65.65 0 0 0-.114-.04A3.657 3.657 0 0 0 16.349 4h-.657a.65.65 0 1 0 0 1.3h.19c.037.006.074.01.111.01h.356a2.35 2.35 0 0 1 2.35 2.35v8.685a2.35 2.35 0 0 1-2.074 2.334ZM7.096 5.365A2.4 2.4 0 0 1 7.65 5.3h.658a.65.65 0 0 0 0-1.3H7.65c-.295 0-.582.035-.858.102a.65.65 0 1 0 .304 1.263ZM11.342 4a.65.65 0 1 0 0 1.3h1.315a.65.65 0 1 0 0-1.3h-1.315ZM5.365 7.096a.65.65 0 1 0-1.263-.304A3.657 3.657 0 0 0 4 7.65v.657a.65.65 0 1 0 1.3 0V7.65a2.4 2.4 0 0 1 .065-.554ZM5.3 11.34a.65.65 0 1 0-1.3 0v1.315a.65.65 0 0 0 1.3 0V11.34Zm0 4.348a.65.65 0 1 0-1.3 0v.657c0 .295.035.583.102.859a.65.65 0 0 0 1.263-.305 2.359 2.359 0 0 1-.065-.554v-.657Zm1.796 2.942a.65.65 0 1 0-.304 1.264c.276.066.563.101.858.101h.658a.65.65 0 1 0 0-1.3H7.65c-.191 0-.377-.022-.554-.065Zm4.246.065a.65.65 0 1 0 0 1.3h1.315a.65.65 0 1 0 0-1.3h-1.315Zm.652-9.124a.65.65 0 0 1-.65-.65V7.726a.65.65 0 0 1 1.3 0v1.195a.65.65 0 0 1-.65.65Z"/>
  <path d="M15.072 11.348a.65.65 0 0 0 0 1.3h1.196a.65.65 0 1 0 0-1.3h-1.196Zm-3.078 5.569a.65.65 0 0 1-.65-.65v-1.195a.65.65 0 0 1 1.3 0v1.195a.65.65 0 0 1-.65.65ZM7.72 11.348a.65.65 0 1 0 0 1.3h1.197a.65.65 0 1 0 0-1.3H7.721Z"/>
</svg>
