<svg width="24" height="24" viewBox="0 0 24 24" fill="none" xmlns="http://www.w3.org/2000/svg">
<path fill-rule="evenodd" clip-rule="evenodd" d="M2 3C0.895431 3 0 3.89543 0 5V19C0 20.1046 0.89543 21 2 21H22C23.1046 21 24 20.1046 24 19V5C24 3.89543 23.1046 3 22 3H2ZM5 5.68682L5.82622 5.43979L6.65243 5.68682L6.41044 4.84341L6.65243 4L5.82622 4.24703L5 4L5.24199 4.84341L5 5.68682ZM8.1631 9.01809L7.33688 9.26512L7.57888 8.42171L7.33688 7.57829L8.1631 7.82532L8.98932 7.57829L8.74732 8.42171L8.98932 9.26512L8.1631 9.01809ZM9.67377 12.8434L10.5 12.5964L11.3262 12.8434L11.0842 12L11.3262 11.1566L10.5 11.4036L9.67377 11.1566L9.91576 12L9.67377 12.8434ZM12.8369 16.1747L12.0107 16.4217L12.2527 15.5783L12.0107 14.7349L12.8369 14.9819L13.6631 14.7349L13.4211 15.5783L13.6631 16.4217L12.8369 16.1747ZM15.1738 19.753L14.3476 20L14.5896 19.1566L14.3476 18.3132L15.1738 18.5602L16 18.3132L15.758 19.1566L16 20L15.1738 19.753Z" fill="#022D9A"/>
<path fill-rule="evenodd" clip-rule="evenodd" d="M20 21V3H8L20 21Z" fill="#FCCA33"/>
</svg>
