<svg width="24" height="24" viewBox="0 0 24 24" fill="none" xmlns="http://www.w3.org/2000/svg">
<rect y="3" width="24" height="18" rx="2" fill="#1BA049"/>
<path fill-rule="evenodd" clip-rule="evenodd" d="M3.28583 12.5121C2.90472 12.2664 2.90472 11.7336 3.28583 11.4879L11.6333 6.10701C11.8546 5.96433 12.1454 5.96433 12.3667 6.10702L20.7142 11.4879C21.0953 11.7336 21.0953 12.2664 20.7142 12.5121L12.3667 17.893C12.1454 18.0357 11.8546 18.0357 11.6333 17.893L3.28583 12.5121Z" fill="#FCCA33"/>
<path fill-rule="evenodd" clip-rule="evenodd" d="M12 16.4C14.2091 16.4 16 14.5196 16 12.2C16 9.8804 14.2091 8 12 8C9.79086 8 8 9.8804 8 12.2C8 14.5196 9.79086 16.4 12 16.4Z" fill="#022D9A"/>
<path d="M8.0434 11.5794C8.09335 11.5665 8.16835 11.553 8.27684 11.5462C8.51671 11.5311 8.83486 11.5535 9.22392 11.6131C10.0007 11.7322 10.9444 11.9804 11.8922 12.2459C12.7848 12.4959 13.7057 12.8862 14.4614 13.2917C14.8385 13.4941 15.166 13.6958 15.4231 13.8796C15.4916 13.9287 15.5528 13.9748 15.607 14.0177C15.801 13.5941 15.9293 13.1311 15.978 12.6432C15.7136 12.4675 15.414 12.2897 15.0919 12.1169C14.2625 11.6718 13.251 11.2418 12.2518 10.962C11.3078 10.6976 10.2924 10.428 9.42595 10.2952C9.09933 10.2451 8.77733 10.2117 8.47738 10.2085C8.26197 10.6277 8.11246 11.0898 8.0434 11.5794Z" fill="white"/>
</svg>
