<svg width="24" height="24" viewBox="0 0 24 24" fill="none" xmlns="http://www.w3.org/2000/svg">
<rect y="3" width="24" height="18" rx="2" fill="white"/>
<path fill-rule="evenodd" clip-rule="evenodd" d="M22 4H2C1.44772 4 1 4.44772 1 5V19C1 19.5523 1.44772 20 2 20H22C22.5523 20 23 19.5523 23 19V5C23 4.44771 22.5523 4 22 4ZM2 3C0.895431 3 0 3.89543 0 5V19C0 20.1046 0.89543 21 2 21H22C23.1046 21 24 20.1046 24 19V5C24 3.89543 23.1046 3 22 3H2Z" fill="#D6D8DE"/>
<path d="M0 18.1341C0.229213 18.1341 0.408297 17.9952 0.610108 17.8386C0.870589 17.6364 1.16893 17.4049 1.6618 17.4049C2.27074 17.4049 2.69127 17.6253 3.14199 17.8615C3.66245 18.1343 4.22315 18.4282 5.16068 18.4282C5.59816 18.4282 5.92624 18.1722 6.25423 17.9163C6.58204 17.6606 6.90975 17.4049 7.34649 17.4049C7.95601 17.4049 8.37663 17.6254 8.82736 17.8617C9.34763 18.1344 9.90802 18.4282 10.8454 18.4282C11.2829 18.4282 11.6112 18.1722 11.9394 17.9163C12.2675 17.6606 12.5954 17.4049 13.0322 17.4049C13.6412 17.4049 14.0618 17.6253 14.5125 17.8616C15.0328 18.1344 15.5932 18.4282 16.5301 18.4282C16.9675 18.4282 17.2955 18.1724 17.6235 17.9165C17.9515 17.6607 18.2795 17.4049 18.7168 17.4049C19.3258 17.4049 19.7463 17.6253 20.1971 17.8615C20.7176 18.1343 21.2783 18.4282 22.2158 18.4282C22.6531 18.4282 22.9812 18.1724 23.3092 17.9165C23.5286 17.7454 23.7479 17.5744 24 17.4798V16.1625C23.7479 16.2571 23.5286 16.4281 23.3092 16.5992C22.9812 16.8551 22.6531 17.1109 22.2158 17.1109C21.2783 17.1109 20.7176 16.817 20.1971 16.5442C19.7463 16.308 19.3258 16.0876 18.7168 16.0876C18.2795 16.0876 17.9515 16.3434 17.6235 16.5992C17.2955 16.8551 16.9675 17.1109 16.5301 17.1109C15.5932 17.1109 15.0328 16.8171 14.5125 16.5443C14.0618 16.308 13.6412 16.0876 13.0322 16.0876C12.5954 16.0876 12.2675 16.3433 11.9394 16.599C11.6112 16.8549 11.2829 17.1109 10.8454 17.1109C9.90802 17.1109 9.34763 16.8171 8.82736 16.5444C8.37663 16.3081 7.95601 16.0876 7.34649 16.0876C6.90975 16.0876 6.58204 16.3433 6.25423 16.599C5.92624 16.8549 5.59816 17.1109 5.16068 17.1109C4.22315 17.1109 3.66244 16.817 3.14199 16.5442C2.69127 16.308 2.27074 16.0876 1.6618 16.0876C1.16893 16.0876 0.870589 16.3191 0.610108 16.5212C0.408297 16.6778 0.229213 16.8168 0 16.8168V18.1341Z" fill="#022D9A"/>
<path d="M0 15.5752C0.229213 15.5752 0.408297 15.4363 0.610108 15.2798C0.870589 15.0778 1.16893 14.8464 1.6618 14.8464C2.27074 14.8464 2.69127 15.0668 3.14199 15.3031C3.66245 15.5758 4.22315 15.8697 5.16068 15.8697C5.59816 15.8697 5.92624 15.6137 6.25423 15.3578C6.58204 15.1021 6.90975 14.8464 7.34649 14.8464C7.95601 14.8464 8.37663 15.0669 8.82736 15.3032C9.34763 15.5759 9.90802 15.8697 10.8454 15.8697C11.2829 15.8697 11.6112 15.6137 11.9394 15.3578C12.2675 15.1021 12.5954 14.8464 13.0322 14.8464C13.6412 14.8464 14.0618 15.0669 14.5125 15.3032C15.0328 15.5759 15.5932 15.8697 16.5301 15.8697C16.9675 15.8697 17.2955 15.6139 17.6235 15.3581C17.9515 15.1022 18.2795 14.8464 18.7168 14.8464C19.3258 14.8464 19.7463 15.0668 20.1971 15.3031C20.7176 15.5758 21.2783 15.8697 22.2158 15.8697C22.6531 15.8697 22.9812 15.6139 23.3092 15.3581C23.5286 15.187 23.7479 15.0159 24 14.9213V13.6035C23.7479 13.6981 23.5286 13.8691 23.3092 14.0402C22.9812 14.296 22.6531 14.5519 22.2158 14.5519C21.2783 14.5519 20.7176 14.258 20.1971 13.9852C19.7463 13.749 19.3258 13.5286 18.7168 13.5286C18.2795 13.5286 17.9515 13.7844 17.6235 14.0402C17.2955 14.296 16.9675 14.5519 16.5301 14.5519C15.5932 14.5519 15.0328 14.2581 14.5125 13.9853C14.0618 13.7491 13.6412 13.5286 13.0322 13.5286C12.5954 13.5286 12.2675 13.7843 11.9394 14.04C11.6112 14.2959 11.2829 14.5519 10.8454 14.5519C9.90802 14.5519 9.34763 14.2581 8.82736 13.9854C8.37663 13.7491 7.95601 13.5286 7.34649 13.5286C6.90975 13.5286 6.58204 13.7843 6.25423 14.04C5.92624 14.2959 5.59816 14.5519 5.16068 14.5519C4.22315 14.5519 3.66244 14.258 3.14199 13.9852C2.69127 13.749 2.27074 13.5286 1.6618 13.5286C1.16893 13.5286 0.870589 13.7601 0.610108 13.9622C0.408297 14.1188 0.229213 14.2578 0 14.2578V15.5752Z" fill="#022D9A"/>
<path d="M0 13.0166C0.229213 13.0166 0.408297 12.8777 0.610108 12.721C0.870589 12.5189 1.16893 12.2873 1.6618 12.2873C2.27074 12.2873 2.69127 12.508 3.14199 12.7445C3.66245 13.0175 4.22315 13.3117 5.16068 13.3117C5.59816 13.3117 5.92624 13.0555 6.25423 12.7993C6.58204 12.5433 6.90975 12.2873 7.34649 12.2873C7.95601 12.2873 8.37663 12.5081 8.82736 12.7446C9.34763 13.0176 9.90802 13.3117 10.8454 13.3117C11.2829 13.3117 11.6112 13.0555 11.9394 12.7993C12.2675 12.5433 12.5954 12.2873 13.0322 12.2873C13.6412 12.2873 14.0618 12.508 14.5125 12.7446C15.0328 13.0176 15.5932 13.3117 16.5301 13.3117C16.9675 13.3117 17.2955 13.0556 17.6235 12.7995C17.9515 12.5434 18.2795 12.2873 18.7168 12.2873C19.3258 12.2873 19.7463 12.508 20.1971 12.7445C20.7176 13.0175 21.2783 13.3117 22.2158 13.3117C22.6531 13.3117 22.9812 13.0556 23.3092 12.7995C23.5286 12.6283 23.7479 12.457 24 12.3623V11.0445C23.7479 11.1392 23.5286 11.3104 23.3092 11.4817C22.9812 11.7378 22.6531 11.9939 22.2158 11.9939C21.2783 11.9939 20.7176 11.6997 20.1971 11.4266C19.7463 11.1902 19.3258 10.9695 18.7168 10.9695C18.2795 10.9695 17.9515 11.2256 17.6235 11.4817C17.2955 11.7378 16.9675 11.9939 16.5301 11.9939C15.5932 11.9939 15.0328 11.6998 14.5125 11.4267C14.0618 11.1902 13.6412 10.9695 13.0322 10.9695C12.5954 10.9695 12.2675 11.2255 11.9394 11.4815C11.6112 11.7376 11.2829 11.9939 10.8454 11.9939C9.90802 11.9939 9.34763 11.6998 8.82736 11.4268C8.37663 11.1902 7.95601 10.9695 7.34649 10.9695C6.90975 10.9695 6.58204 11.2255 6.25423 11.4815C5.92624 11.7376 5.59816 11.9939 5.16068 11.9939C4.22315 11.9939 3.66244 11.6997 3.14199 11.4266C2.69127 11.1901 2.27074 10.9695 1.6618 10.9695C1.16893 10.9695 0.870589 11.201 0.610108 11.4032C0.408297 11.5598 0.229213 11.6988 0 11.6988V13.0166Z" fill="#022D9A"/>
<path d="M0 10.5997C0.229213 10.5997 0.408297 10.4606 0.610108 10.3039C0.870589 10.1016 1.16893 9.86991 1.6618 9.86991C2.27074 9.86991 2.69127 10.0904 3.14199 10.3268C3.66245 10.5997 4.22315 10.8938 5.16068 10.8938C5.59816 10.8938 5.92624 10.6377 6.25423 10.3816C6.58204 10.1257 6.90975 9.86991 7.34649 9.86991C7.95601 9.86991 8.37663 10.0905 8.82736 10.3269C9.34763 10.5998 9.90802 10.8938 10.8454 10.8938C11.2829 10.8938 11.6112 10.6377 11.9394 10.3816C12.2675 10.1257 12.5954 9.86991 13.0322 9.86991C13.6412 9.86991 14.0618 10.0905 14.5125 10.3269C15.0328 10.5998 15.5932 10.8938 16.5301 10.8938C16.9675 10.8938 17.2955 10.6378 17.6235 10.3818C17.9515 10.1259 18.2795 9.86991 18.7168 9.86991C19.3258 9.86991 19.7463 10.0904 20.1971 10.3268C20.7176 10.5997 21.2783 10.8938 22.2158 10.8938C22.6531 10.8938 22.9812 10.6378 23.3092 10.3818C23.5286 10.2107 23.7479 10.0395 24 9.94486V8.62796C23.7479 8.72248 23.5286 8.89348 23.3092 9.06448C22.9812 9.32017 22.6531 9.57586 22.2158 9.57586C21.2783 9.57586 20.7176 9.28214 20.1971 9.00951C19.7463 8.77339 19.3258 8.55309 18.7168 8.55309C18.2795 8.55309 17.9515 8.80878 17.6235 9.06448C17.2955 9.32017 16.9675 9.57586 16.5301 9.57586C15.5932 9.57586 15.0328 9.28221 14.5125 9.00959C14.0618 8.77344 13.6412 8.55309 13.0322 8.55309C12.5954 8.55309 12.2675 8.80864 11.9394 9.06426C11.6112 9.32003 11.2829 9.57586 10.8454 9.57586C9.90802 9.57586 9.34763 9.28224 8.82736 9.00964C8.37663 8.77347 7.95601 8.55309 7.34649 8.55309C6.90975 8.55309 6.58204 8.80864 6.25423 9.06426C5.92624 9.32003 5.59816 9.57586 5.16068 9.57586C4.22315 9.57586 3.66244 9.28214 3.14199 9.0095C2.69127 8.77338 2.27074 8.55309 1.6618 8.55309C1.16893 8.55309 0.870589 8.78445 0.610108 8.98645C0.408297 9.14296 0.229213 9.28184 0 9.28184V10.5997Z" fill="#022D9A"/>
<path d="M0 7.89968C0.229213 7.89968 0.408297 7.7606 0.610108 7.60388C0.870589 7.4016 1.16893 7.16991 1.6618 7.16991C2.27074 7.16991 2.69127 7.39044 3.14199 7.6268C3.66245 7.89973 4.22315 8.19377 5.16068 8.19377C5.59816 8.19377 5.92624 7.93766 6.25423 7.68162C6.58204 7.42573 6.90975 7.16991 7.34649 7.16991C7.95601 7.16991 8.37663 7.39053 8.82736 7.62695C9.34763 7.89983 9.90802 8.19377 10.8454 8.19377C11.2829 8.19377 11.6112 7.93766 11.9394 7.68162C12.2675 7.42573 12.5954 7.16991 13.0322 7.16991C13.6412 7.16991 14.0618 7.3905 14.5125 7.6269C15.0328 7.8998 15.5932 8.19377 16.5301 8.19377C16.9675 8.19377 17.2955 7.9378 17.6235 7.68184C17.9515 7.42588 18.2795 7.16991 18.7168 7.16991C19.3258 7.16991 19.7463 7.39045 20.1971 7.62681C20.7176 7.89974 21.2783 8.19377 22.2158 8.19377C22.6531 8.19377 22.9812 7.9378 23.3092 7.68184C23.5286 7.51066 23.7479 7.33949 24 7.24486V5.92796C23.7479 6.02249 23.5286 6.19348 23.3092 6.36448C22.9812 6.62017 22.6531 6.87587 22.2158 6.87587C21.2783 6.87587 20.7176 6.58215 20.1971 6.30951C19.7463 6.07339 19.3258 5.85309 18.7168 5.85309C18.2795 5.85309 17.9515 6.10878 17.6235 6.36448C17.2955 6.62017 16.9675 6.87587 16.5301 6.87587C15.5932 6.87587 15.0328 6.58221 14.5125 6.3096C14.0618 6.07345 13.6412 5.85309 13.0322 5.85309C12.5954 5.85309 12.2675 6.10864 11.9394 6.36426C11.6112 6.62003 11.2829 6.87587 10.8454 6.87587C9.90802 6.87587 9.34763 6.58224 8.82736 6.30964C8.37663 6.07348 7.95601 5.85309 7.34649 5.85309C6.90975 5.85309 6.58204 6.10864 6.25423 6.36426C5.92624 6.62003 5.59816 6.87587 5.16068 6.87587C4.22315 6.87587 3.66244 6.58214 3.14199 6.3095C2.69127 6.07339 2.27074 5.85309 1.6618 5.85309C1.16893 5.85309 0.870589 6.08445 0.610108 6.28646C0.408297 6.44296 0.229213 6.58184 0 6.58184V7.89968Z" fill="#022D9A"/>
<path d="M0 5.34076C0.229213 5.34076 0.408297 5.20169 0.610108 5.04497C0.870589 4.84269 1.16893 4.61101 1.6618 4.61101C2.27074 4.61101 2.69127 4.83151 3.14199 5.06784C3.66245 5.34073 4.22315 5.63473 5.16068 5.63473C5.59816 5.63473 5.92624 5.37866 6.25423 5.12265C6.58204 4.8668 6.90975 4.61101 7.34649 4.61101C7.95601 4.61101 8.37663 4.8316 8.82736 5.06798C9.34763 5.34083 9.90802 5.63473 10.8454 5.63473C11.2829 5.63473 11.6112 5.37866 11.9394 5.12265C12.2675 4.8668 12.5954 4.61101 13.0322 4.61101C13.6412 4.61101 14.0618 4.83157 14.5125 5.06794C15.0328 5.3408 15.5932 5.63473 16.5301 5.63473C16.9675 5.63473 17.2955 5.3788 17.6235 5.12287C17.9515 4.86694 18.2795 4.61101 18.7168 4.61101C19.3258 4.61101 19.7463 4.83152 20.1971 5.06785C20.7176 5.34074 21.2783 5.63473 22.2158 5.63473C22.6531 5.63473 22.9812 5.3788 23.3092 5.12287C23.518 4.95996 23.7268 4.79706 23.9638 4.70016C23.8923 4.31094 23.7185 3.95999 23.473 3.6794C23.418 3.72066 23.3636 3.76308 23.3092 3.80551C22.9812 4.06123 22.6531 4.31695 22.2158 4.31695C21.2783 4.31695 20.7176 4.0232 20.1971 3.75054C19.7463 3.51439 19.3258 3.29407 18.7168 3.29407C18.2795 3.29407 17.9515 3.54979 17.6235 3.80551C17.2955 4.06123 16.9675 4.31695 16.5301 4.31695C15.5932 4.31695 15.0328 4.02326 14.5125 3.75062C14.0618 3.51445 13.6412 3.29407 13.0322 3.29407C12.5954 3.29407 12.2675 3.54964 11.9394 3.80529C11.6112 4.06109 11.2829 4.31695 10.8454 4.31695C9.90802 4.31695 9.34763 4.0233 8.82736 3.75067C8.37663 3.51448 7.95601 3.29407 7.34649 3.29407C6.90975 3.29407 6.58204 3.54964 6.25423 3.80529C5.92624 4.06109 5.59816 4.31695 5.16068 4.31695C4.22315 4.31695 3.66244 4.02319 3.14199 3.75052C2.69127 3.51439 2.27074 3.29407 1.6618 3.29407C1.16893 3.29407 0.870589 3.5256 0.610108 3.72775C0.520522 3.79728 0.435414 3.86333 0.348412 3.91529C0.128586 4.25251 0 4.66048 0 5.09998V5.34076Z" fill="#022D9A"/>
<path d="M24 18.6111C23.7479 18.7057 23.5286 18.8769 23.3092 19.048C22.9812 19.304 22.6531 19.5599 22.2158 19.5599C21.2783 19.5599 20.7176 19.2659 20.1971 18.993C19.7463 18.7566 19.3258 18.5361 18.7168 18.5361C18.2795 18.5361 17.9515 18.7921 17.6235 19.048C17.2955 19.304 16.9675 19.5599 16.5301 19.5599C15.5932 19.5599 15.0328 19.266 14.5125 18.9931C14.0618 18.7567 13.6412 18.5361 13.0322 18.5361C12.5954 18.5361 12.2675 18.7919 11.9394 19.0478C11.6112 19.3038 11.2829 19.5599 10.8454 19.5599C9.90802 19.5599 9.34763 19.266 8.82736 18.9931C8.37663 18.7567 7.95601 18.5361 7.34649 18.5361C6.90975 18.5361 6.58204 18.7919 6.25423 19.0478C5.92624 19.3038 5.59816 19.5599 5.16068 19.5599C4.22315 19.5599 3.66244 19.2659 3.14199 18.993C2.69127 18.7566 2.27074 18.5361 1.6618 18.5361C1.16893 18.5361 0.870589 18.7678 0.610108 18.9701C0.417221 19.1199 0.245096 19.2536 0.0301198 19.2651C0.0988437 19.6767 0.281736 20.0471 0.543256 20.3389C0.565324 20.322 0.587575 20.3048 0.610108 20.2873C0.870589 20.0853 1.16893 19.854 1.6618 19.854C2.27074 19.854 2.69127 20.0743 3.14199 20.3106C3.66245 20.5833 4.22315 20.8772 5.16068 20.8772C5.59816 20.8772 5.92624 20.6212 6.25423 20.3653C6.58204 20.1096 6.90975 19.854 7.34649 19.854C7.95601 19.854 8.37663 20.0744 8.82736 20.3107C9.34763 20.5834 9.90802 20.8772 10.8454 20.8772C11.2829 20.8772 11.6112 20.6212 11.9394 20.3653C12.2675 20.1096 12.5954 19.854 13.0322 19.854C13.6412 19.854 14.0618 20.0744 14.5125 20.3107C15.0328 20.5834 15.5932 20.8772 16.5301 20.8772C16.9675 20.8772 17.2955 20.6214 17.6235 20.3656C17.9515 20.1098 18.2795 19.854 18.7168 19.854C19.3258 19.854 19.7463 20.0744 20.1971 20.3106C20.7176 20.5833 21.2783 20.8772 22.2158 20.8772C22.6531 20.8772 22.9812 20.6214 23.3092 20.3656C23.4109 20.2862 23.5126 20.2069 23.6176 20.1353C23.8581 19.7886 24 19.3617 24 18.9V18.6111Z" fill="#022D9A"/>
<path d="M0 5C0 3.89543 0.895431 3 2 3H10V11H0V5Z" fill="#022D9A"/>
<path d="M2.03252e-05 9.60929L3.33333 7.22835V6.73519L0.22739 4.07296C0.331861 3.87361 0.468974 3.69405 0.63163 3.5414L4 6.42857V7.57143L2.03252e-05 10.4286V9.60929Z" fill="white"/>
<path d="M10.9524 3V3.39989C10.9524 3.72284 10.7964 4.02591 10.5336 4.21362L6.95238 6.77165V7.2648L10.3317 10.1614C10.9348 10.6783 10.5692 11.6667 9.77485 11.6667C9.59651 11.6667 9.42263 11.6109 9.27751 11.5073L5.50064 8.80952H4.76263L2.03252e-05 11.7862V11L4.57143 8.14286H5.71429L9.665 10.9648C9.69706 10.9877 9.73546 11 9.77485 11C9.9503 11 10.031 10.7817 9.89784 10.6675L6.28571 7.57143V6.42857L10.1461 3.67113C10.2337 3.60856 10.2857 3.50754 10.2857 3.39989V3L10.9524 3Z" fill="white"/>
<path d="M9.02784 3L10.2857 3L5.71429 5.85714H4.57143L0.970449 3.28501C1.20126 3.14615 1.4624 3.05257 1.74157 3.01655L4.78507 5.19048H5.52309L9.02784 3Z" fill="white"/>
<path fill-rule="evenodd" clip-rule="evenodd" d="M0 5.85714V8.14286H4V10.9048C4 11.273 4.29848 11.5714 4.66667 11.5714H5.61905C5.98724 11.5714 6.28571 11.273 6.28571 10.9048V8.14286H10.1905C10.5587 8.14286 10.8571 7.84438 10.8571 7.47619V6.52381C10.8571 6.15562 10.5587 5.85714 10.1905 5.85714H6.28571V3H4V5.85714H0Z" fill="white"/>
<path d="M0.620846 3.53215C0.724084 3.43571 0.837716 3.35017 0.959804 3.27741L4 5.44898V5.85714H3.33333L0.620846 3.53215Z" fill="#F64E4E"/>
<path d="M6.28571 5.5L10.2857 3V3.39989C10.2857 3.50754 10.2337 3.60856 10.1461 3.67113L7.08571 5.85714H6.28571V5.5Z" fill="#F64E4E"/>
<path d="M6.28571 8.14286H6.95238L9.89784 10.6675C10.031 10.7817 9.9503 11 9.77485 11C9.73546 11 9.69706 10.9877 9.665 10.9648L6.28571 8.55102V8.14286Z" fill="#F64E4E"/>
<path d="M4 8.14286V8.5L2.03252e-05 11L0 10.4286L3.2 8.14286H4Z" fill="#F64E4E"/>
<path d="M4.57143 6.42857H0V7.57143H4.57143V11H5.71429V7.57143H10.2857V6.42857H5.71429V3H4.57143V6.42857Z" fill="#F64E4E"/>
</svg>
