<svg width="24" height="24" viewBox="0 0 24 24" fill="none" xmlns="http://www.w3.org/2000/svg">
<rect y="3" width="24" height="18" rx="2" fill="#022D9A"/>
<path d="M2.03252e-05 9.60929L3.33333 7.22835V6.73519L0.22739 4.07296C0.331861 3.87361 0.468974 3.69405 0.63163 3.5414L4 6.42857V7.57143L2.03252e-05 10.4286V9.60929Z" fill="white"/>
<path d="M10.9524 3V3.39989C10.9524 3.72284 10.7964 4.02591 10.5336 4.21362L6.95238 6.77165V7.2648L10.3317 10.1614C10.9348 10.6783 10.5692 11.6667 9.77485 11.6667C9.59651 11.6667 9.42263 11.6109 9.27751 11.5073L5.50064 8.80952H4.76263L2.03252e-05 11.7862V11L4.57143 8.14286H5.71429L9.665 10.9648C9.69706 10.9877 9.73546 11 9.77485 11C9.9503 11 10.031 10.7817 9.89784 10.6675L6.28571 7.57143V6.42857L10.1461 3.67113C10.2337 3.60856 10.2857 3.50754 10.2857 3.39989V3L10.9524 3Z" fill="white"/>
<path d="M9.02784 3L10.2857 3L5.71429 5.85714H4.57143L0.970449 3.28501C1.20126 3.14615 1.4624 3.05257 1.74157 3.01655L4.78507 5.19048H5.52309L9.02784 3Z" fill="white"/>
<path fill-rule="evenodd" clip-rule="evenodd" d="M0 5.85714V8.14286H4V10.9048C4 11.273 4.29848 11.5714 4.66667 11.5714H5.61905C5.98724 11.5714 6.28571 11.273 6.28571 10.9048V8.14286H10.1905C10.5587 8.14286 10.8571 7.84438 10.8571 7.47619V6.52381C10.8571 6.15562 10.5587 5.85714 10.1905 5.85714H6.28571V3H4V5.85714H0Z" fill="white"/>
<path d="M0.620846 3.53215C0.724084 3.43571 0.837716 3.35017 0.959804 3.27741L4 5.44898V5.85714H3.33333L0.620846 3.53215Z" fill="#F64E4E"/>
<path d="M6.28571 5.5L10.2857 3V3.39989C10.2857 3.50754 10.2337 3.60856 10.1461 3.67113L7.08571 5.85714H6.28571V5.5Z" fill="#F64E4E"/>
<path d="M6.28571 8.14286H6.95238L9.89784 10.6675C10.031 10.7817 9.9503 11 9.77485 11C9.73546 11 9.69706 10.9877 9.665 10.9648L6.28571 8.55102V8.14286Z" fill="#F64E4E"/>
<path d="M4 8.14286V8.5L2.03252e-05 11L0 10.4286L3.2 8.14286H4Z" fill="#F64E4E"/>
<path d="M4.57143 6.42857H0V7.57143H4.57143V11H5.71429V7.57143H10.2857V6.42857H5.71429V3H4.57143V6.42857Z" fill="#F64E4E"/>
<path fill-rule="evenodd" clip-rule="evenodd" d="M14.5833 12.2C14.5833 11.2661 14.5833 10.1706 14.5833 9.33267C14.5833 8.59629 15.1803 8 15.9166 8H19.0833C19.8197 8 20.4166 8.59629 20.4166 9.33267C20.4166 10.1706 20.4166 11.2661 20.4166 12.2C20.4166 15.2 17.5 16.4 17.5 16.4C17.5 16.4 14.5833 15.2 14.5833 12.2Z" fill="#1BA049"/>
<path fill-rule="evenodd" clip-rule="evenodd" d="M16.3333 10.4C16.6555 10.4 16.9167 10.1314 16.9167 9.79999C16.9167 9.46862 16.6555 9.2 16.3333 9.2C16.0112 9.2 15.75 9.46862 15.75 9.79999C15.75 10.1314 16.0112 10.4 16.3333 10.4ZM16.3333 10.4C16.0112 10.4 15.75 10.6686 15.75 11C15.75 11.3314 16.0112 11.6 16.3333 11.6C16.6555 11.6 16.9167 11.3314 16.9167 11C16.9167 10.6686 16.6555 10.4 16.3333 10.4Z" fill="#FCCA33"/>
<path fill-rule="evenodd" clip-rule="evenodd" d="M16.9167 12.2C16.9167 12.5314 16.6555 12.8 16.3333 12.8C16.0112 12.8 15.75 12.5314 15.75 12.2C15.75 11.8686 16.0112 11.6 16.3333 11.6C16.6555 11.6 16.9167 11.8686 16.9167 12.2ZM16.3333 12.8C16.6555 12.8 16.9167 13.0686 16.9167 13.4C16.9167 13.7313 16.6555 14 16.3333 14C16.0112 14 15.75 13.7313 15.75 13.4C15.75 13.0686 16.0112 12.8 16.3333 12.8Z" fill="#FCCA33"/>
<path d="M19.25 13.4C19.25 13.7313 18.9888 14 18.6667 14C18.3445 14 18.0833 13.7313 18.0833 13.4C18.0833 13.0686 18.3445 12.8 18.6667 12.8C18.9888 12.8 19.25 13.0686 19.25 13.4Z" fill="#FCCA33"/>
<path d="M18.6667 12.8C18.3445 12.8 18.0833 12.5314 18.0833 12.2C18.0833 11.8686 18.3445 11.6 18.6667 11.6C18.9888 11.6 19.25 11.8686 19.25 12.2C19.25 12.5314 18.9888 12.8 18.6667 12.8Z" fill="#FCCA33"/>
<path d="M19.25 11C19.25 11.3314 18.9888 11.6 18.6667 11.6C18.3445 11.6 18.0833 11.3314 18.0833 11C18.0833 10.6686 18.3445 10.4 18.6667 10.4C18.9888 10.4 19.25 10.6686 19.25 11Z" fill="#FCCA33"/>
<path d="M19.25 9.79999C19.25 10.1314 18.9888 10.4 18.6667 10.4C18.3445 10.4 18.0833 10.1314 18.0833 9.79999C18.0833 9.46862 18.3445 9.2 18.6667 9.2C18.9888 9.2 19.25 9.46862 19.25 9.79999Z" fill="#FCCA33"/>
<path fill-rule="evenodd" clip-rule="evenodd" d="M17.5 13.4C17.8221 13.4 18.0833 12.5941 18.0833 11.6C18.0833 10.6059 17.8221 9.79999 17.5 9.79999C17.1778 9.79999 16.9166 10.6059 16.9166 11.6C16.9166 12.5941 17.1778 13.4 17.5 13.4Z" fill="white"/>
<path d="M14 15.2C14 16.3444 15.5935 17 17.5 17C19.4065 17 21 16.3444 21 15.2C21 14.8686 20.7388 14.6 20.4167 14.6C20.0945 14.6 19.8333 14.8686 19.8333 15.2C19.8333 15.2115 19.6919 15.349 19.3458 15.4914C18.8758 15.6848 18.2138 15.8 17.5 15.8C16.7862 15.8 16.1242 15.6848 15.6542 15.4914C15.3081 15.349 15.1667 15.2115 15.1667 15.2C15.1667 14.8686 14.9055 14.6 14.5833 14.6C14.2612 14.6 14 14.8686 14 15.2V15.2Z" fill="#FCCA33"/>
</svg>
