<svg xmlns="http://www.w3.org/2000/svg" viewBox="0 0 24 24">
  <defs/>
  <path fill-rule="evenodd" d="M7 4a3 3 0 00-3 3v10a3 3 0 003 3h10a3 3 0 003-3V7a3 3 0 00-3-3H7zm-.028 2.55a.65.65 0 00-1.3 0v9.804a1.95 1.95 0 001.95 1.95h9.872a.65.65 0 100-1.3H7.622a.65.65 0 01-.65-.65V6.55zm10.84 2.289a.65.65 0 00-.506-.151l-2.25.286a.65.65 0 00.165 1.29l.611-.078-2.092 2.191-1.896-1.985a.65.65 0 00-.94 0l-2.367 2.477a.65.65 0 10.94.898l1.896-1.985 1.897 1.985a.65.65 0 00.94 0l2.577-2.698.014.494a.65.65 0 101.3-.036l-.063-2.213a.65.65 0 00-.227-.475z"/>
</svg>
