<svg width="24" height="24" viewBox="0 0 24 24" fill="none" xmlns="http://www.w3.org/2000/svg">
<path fill-rule="evenodd" clip-rule="evenodd" d="M0 19C0 20.1046 0.895431 21 2 21H22C23.1046 21 24 20.1046 24 19V12H0V19Z" fill="#1BA049"/>
<path fill-rule="evenodd" clip-rule="evenodd" d="M0 12H24V5C24 3.89543 23.1046 3 22 3H2C0.89543 3 0 3.89543 0 5V12Z" fill="#F64E4E"/>
<path fill-rule="evenodd" clip-rule="evenodd" d="M12.4286 13.7657L10.4133 15.2023L11.1569 12.8418L9.16781 11.3691L11.6426 11.3468L12.4286 9L13.2145 11.3468L15.6893 11.3691L13.7003 12.8418L14.4438 15.2023L12.4286 13.7657Z" fill="#FCCA33"/>
</svg>
