<svg width="24" height="24" viewBox="0 0 24 24" fill="none" xmlns="http://www.w3.org/2000/svg">
<path d="M0 5.42857C0 4.324 0.895431 3.42857 2 3.42857H22C23.1046 3.42857 24 4.324 24 5.42857V18.5714C24 19.676 23.1046 20.5714 22 20.5714H2C0.89543 20.5714 0 19.676 0 18.5714V5.42857Z" fill="white"/>
<path fill-rule="evenodd" clip-rule="evenodd" d="M22 4.42857H2C1.44771 4.42857 1 4.87629 1 5.42857V18.5714C1 19.1237 1.44772 19.5714 2 19.5714H22C22.5523 19.5714 23 19.1237 23 18.5714V5.42857C23 4.87629 22.5523 4.42857 22 4.42857ZM2 3.42857C0.895431 3.42857 0 4.324 0 5.42857V18.5714C0 19.676 0.89543 20.5714 2 20.5714H22C23.1046 20.5714 24 19.676 24 18.5714V5.42857C24 4.324 23.1046 3.42857 22 3.42857H2Z" fill="#D6D8DE"/>
<path d="M24 18.7156L15.8179 13.1967C15.9362 12.8188 16 12.4169 16 12C16 11.5831 15.9362 11.1812 15.8179 10.8033L24 5.28444V18.7156Z" fill="#1BA049"/>
<path d="M0 5.28442L8.18208 10.8033C8.06377 11.1812 8 11.5831 8 12C8 12.4169 8.06377 12.8188 8.18208 13.1967L0 18.7156V5.28442Z" fill="#1BA049"/>
<path d="M14.5389 8.90893C13.8483 8.34099 12.964 8 12 8C11.036 8 10.1517 8.34099 9.46105 8.90893L1.33609 3.42857H22.6639L14.5389 8.90893Z" fill="#F64E4E"/>
<path d="M22.6639 20.5714H1.33609L9.46106 15.0911C10.1517 15.659 11.036 16 12 16C12.964 16 13.8483 15.659 14.5389 15.0911L22.6639 20.5714Z" fill="#F64E4E"/>
<path d="M11.1919 11.0938L12 10.8571L12.8081 11.0938L12.5714 10.2857L12.8081 9.47758L12 9.71428L11.1919 9.47758L11.4286 10.2857L11.1919 11.0938Z" fill="#F64E4E"/>
<path d="M9.47759 13.951L10.2857 13.7143L11.0938 13.951L10.8571 13.1428L11.0938 12.3347L10.2857 12.5714L9.47759 12.3347L9.71428 13.1428L9.47759 13.951Z" fill="#F64E4E"/>
<path d="M13.7143 13.7143L12.9062 13.951L13.1429 13.1428L12.9062 12.3347L13.7143 12.5714L14.5224 12.3347L14.2857 13.1428L14.5224 13.951L13.7143 13.7143Z" fill="#F64E4E"/>
</svg>
