<svg width="24" height="24" viewBox="0 0 24 24" fill="none" xmlns="http://www.w3.org/2000/svg">
<rect y="3" width="24" height="18" rx="2" fill="white"/>
<rect y="3" width="24" height="18" rx="2" fill="white"/>
<path fill-rule="evenodd" clip-rule="evenodd" d="M0 13H24V5C24 3.89543 23.1046 3 22 3H2C0.89543 3 0 3.89543 0 5V13Z" fill="#022D9A"/>
<path fill-rule="evenodd" clip-rule="evenodd" d="M0 19C0 20.1046 0.895431 21 2 21H22C23.1046 21 24 20.1046 24 19V16H0V19Z" fill="#022D9A"/>
<path fill-rule="evenodd" clip-rule="evenodd" d="M0 16H24V13H0V16Z" fill="white"/>
<path fill-rule="evenodd" clip-rule="evenodd" d="M0 15H24V14H0V15Z" fill="#F64E4E"/>
<path fill-rule="evenodd" clip-rule="evenodd" d="M9.14285 11.4667C9.04981 11.4667 8.95807 11.4716 8.86779 11.481C8.5016 11.5194 8.17365 11.2536 8.13528 10.8874C8.09692 10.5213 8.36267 10.1933 8.72886 10.1549C8.86519 10.1407 9.00331 10.1334 9.14285 10.1334C9.28238 10.1334 9.4205 10.1407 9.55683 10.1549C9.92302 10.1933 10.1888 10.5213 10.1504 10.8874C10.112 11.2536 9.78409 11.5194 9.4179 11.481C9.32762 11.4716 9.23588 11.4667 9.14285 11.4667ZM10.8501 11.2032C11.094 10.9274 11.5153 10.9014 11.7911 11.1452C11.9955 11.3259 12.1822 11.5267 12.3487 11.7447C12.5722 12.0373 12.5162 12.4556 12.2236 12.6791C11.931 12.9026 11.5126 12.8466 11.2891 12.554C11.1747 12.4043 11.047 12.267 10.9081 12.1442C10.6322 11.9004 10.6063 11.4791 10.8501 11.2032ZM7.43557 11.2032C7.67942 11.4791 7.65346 11.9004 7.3776 12.1442C7.2387 12.267 7.11096 12.4043 6.99657 12.554C6.77308 12.8466 6.3547 12.9026 6.0621 12.6791C5.76951 12.4556 5.71349 12.0373 5.93698 11.7447C6.10344 11.5267 6.2902 11.3259 6.49455 11.1452C6.77041 10.9014 7.19172 10.9274 7.43557 11.2032ZM12.4958 13.3913C12.8625 13.3581 13.1867 13.6285 13.2199 13.9952C13.2319 14.1286 13.2381 14.2637 13.2381 14.4C13.2381 14.5364 13.2319 14.6714 13.2199 14.8049C13.1867 15.1715 12.8625 15.4419 12.4958 15.4087C12.1291 15.3756 11.8588 15.0514 11.8919 14.6847C11.9004 14.5912 11.9048 14.4962 11.9048 14.4C11.9048 14.3038 11.9004 14.2089 11.8919 14.1154C11.8588 13.7487 12.1291 13.4245 12.4958 13.3913ZM5.78987 13.3913C6.15656 13.4245 6.42693 13.7487 6.39375 14.1154C6.38528 14.2089 6.38094 14.3038 6.38094 14.4C6.38094 14.4962 6.38528 14.5912 6.39375 14.6847C6.42693 15.0514 6.15656 15.3756 5.78987 15.4087C5.42318 15.4419 5.09902 15.1716 5.06584 14.8049C5.05377 14.6714 5.04761 14.5364 5.04761 14.4C5.04761 14.2637 5.05377 14.1286 5.06584 13.9952C5.09902 13.6285 5.42318 13.3581 5.78987 13.3913ZM12.2236 16.1209C12.5162 16.3444 12.5722 16.7628 12.3487 17.0554C12.1822 17.2733 11.9955 17.4742 11.7911 17.6548C11.5153 17.8987 11.094 17.8727 10.8501 17.5968C10.6063 17.321 10.6322 16.8997 10.9081 16.6558C11.047 16.533 11.1747 16.3958 11.2891 16.246C11.5126 15.9534 11.931 15.8974 12.2236 16.1209ZM6.0621 16.1209C6.3547 15.8974 6.77308 15.9534 6.99657 16.246C7.11096 16.3958 7.2387 16.533 7.3776 16.6558C7.65346 16.8997 7.67942 17.321 7.43557 17.5968C7.19173 17.8727 6.77041 17.8987 6.49455 17.6548C6.2902 17.4742 6.10344 17.2733 5.93698 17.0554C5.71349 16.7628 5.76951 16.3444 6.0621 16.1209ZM10.1504 17.9126C10.1888 18.2788 9.92302 18.6068 9.55683 18.6451C9.4205 18.6594 9.28238 18.6667 9.14285 18.6667C9.00331 18.6667 8.86519 18.6594 8.72886 18.6451C8.36267 18.6068 8.09692 18.2788 8.13528 17.9126C8.17365 17.5464 8.5016 17.2807 8.86779 17.319C8.95807 17.3285 9.04981 17.3334 9.14285 17.3334C9.23588 17.3334 9.32762 17.3285 9.41791 17.319C9.78409 17.2807 10.112 17.5464 10.1504 17.9126Z" fill="#FCCA33"/>
</svg>
