<svg width="24" height="24" viewBox="0 0 24 24" fill="none" xmlns="http://www.w3.org/2000/svg">
<rect y="3" width="24" height="18" rx="2" fill="#19BFBF"/>
<path fill-rule="evenodd" clip-rule="evenodd" d="M7.00454 8.45492C6.98684 8.34873 7.02151 8.24054 7.09764 8.16442L9.16442 6.09763C9.22693 6.03512 9.31172 6 9.40012 6H10.7703C10.8966 6 11.012 6.07133 11.0685 6.18426L11.4556 6.95859C11.5121 7.07152 11.6275 7.14286 11.7538 7.14286H13.6275C13.7537 7.14286 13.8691 7.21419 13.9256 7.32712L15.4556 10.3872C15.5121 10.5001 15.6275 10.5714 15.7538 10.5714H16.5954C16.8701 10.5714 17.0269 10.885 16.8621 11.1048L15.5658 12.8331C15.5538 12.8491 15.5433 12.8661 15.5343 12.884L15.0115 13.9296C14.9884 13.9759 14.9763 14.0269 14.9763 14.0787V15.0642C14.9763 15.1159 14.9643 15.167 14.9411 15.2132L13.3542 18.3872C13.2977 18.5001 13.1823 18.5714 13.056 18.5714H12.3252C12.1989 18.5714 12.0835 18.5001 12.0271 18.3872L11.583 17.499C11.5598 17.4527 11.5478 17.4016 11.5478 17.3499V14.1381C11.5478 14.0497 11.5126 13.9649 11.4501 13.9024L11.032 13.4842C10.9954 13.4476 10.9678 13.403 10.9515 13.3539L10.4809 11.9422C10.4355 11.8061 10.3081 11.7143 10.1647 11.7143H7.83014C7.6672 11.7143 7.52813 11.5965 7.50134 11.4358L7.00454 8.45492Z" fill="white"/>
<path fill-rule="evenodd" clip-rule="evenodd" d="M16.1192 15.4762C16.1192 15.2921 16.2684 15.1428 16.4525 15.1428H16.9287C17.1128 15.1428 17.262 15.2921 17.262 15.4762V16.207C17.262 16.2587 17.25 16.3098 17.2269 16.3561L16.7827 17.2443C16.7263 17.3572 16.6109 17.4285 16.4846 17.4285H16.4525C16.2684 17.4285 16.1192 17.2793 16.1192 17.0952V15.4762Z" fill="white"/>
</svg>
