<svg xmlns="http://www.w3.org/2000/svg" viewBox="0 0 24 24">
  <defs/>
  <path d="M8.14 3a.65.65 0 01.65.65v1.39h2.56V3.65a.65.65 0 111.3 0v1.39h2.55V3.65a.65.65 0 111.3 0v1.39h.5c1.65 0 3 1.34 3 3V9.7c0 .39-.31.7-.7.7H4.7c-.39 0-.7-.31-.7-.7V8.04c0-1.66 1.34-3 3-3h.49V3.65A.65.65 0 018.14 3z"/>
  <path fill-rule="evenodd" d="M19.3 11.7H4.7c-.39 0-.7.31-.7.7v5.77c0 1.66 1.34 3 3 3h10c1.66 0 3-1.34 3-3V12.4c0-.39-.32-.7-.7-.7zm-3.607 2.79a.65.65 0 00-.957-.88l-3.072 3.343-1.646-1.645a.65.65 0 00-.919.919l1.903 1.903a.95.95 0 001.371-.029l3.32-3.61z"/>
</svg>
