<svg xmlns="http://www.w3.org/2000/svg" viewBox="0 0 24 24">
  <defs/>
  <path d="M15.713 14.17a.65.65 0 00-.957-.88l-3.073 3.342-1.645-1.645a.65.65 0 00-.92.92l1.904 1.903a.95.95 0 001.371-.029l3.32-3.611z"/>
  <path fill-rule="evenodd" d="M8.14 3a.65.65 0 01.65.65v1.39h2.56V3.65a.65.65 0 111.3 0v1.39h2.55V3.65a.65.65 0 111.3 0v1.39h.5c1.65 0 3 1.34 3 3v10.13c0 1.66-1.34 3-3 3H7c-1.66 0-3-1.34-3-3V8.04c0-1.66 1.34-3 3-3h.49V3.65A.65.65 0 018.14 3zm-.65 4.91V6.34H7c-.94 0-1.7.76-1.7 1.7v2.36h13.4V8.04c0-.94-.76-1.7-1.7-1.7h-.5v1.57a.65.65 0 11-1.3 0V6.34h-2.55v1.57a.65.65 0 11-1.3 0V6.34H8.79v1.57a.65.65 0 01-1.3 0zM18.7 11.7H5.3v6.47c0 .94.76 1.7 1.7 1.7h10c.94 0 1.7-.76 1.7-1.7V11.7z"/>
</svg>
