<svg width="24" height="24" viewBox="0 0 24 24" fill="none" xmlns="http://www.w3.org/2000/svg">
<rect y="3" width="24" height="18" rx="2" fill="#022D9A"/>
<path fill-rule="evenodd" clip-rule="evenodd" d="M0 16H24V8H0V16Z" fill="#F64E4E"/>
<path d="M9.81249 10.1616H10.9375V9.5291C10.9375 9.23689 11.1893 9 11.5 9C11.8106 9 12.0625 9.23689 12.0625 9.5291V10.1616H13.1875V11.2222H9.81249V10.1616Z" fill="white"/>
<path d="M14.3125 9.55556C14.0018 9.55556 13.75 9.79244 13.75 10.0847V11.2222H14.875V10.0847C14.875 9.79244 14.6232 9.55556 14.3125 9.55556Z" fill="white"/>
<path d="M9.24999 11.7778H8.125L7 14H9.24999V11.7778Z" fill="white"/>
<path d="M13.1875 11.7778H9.81246V14H13.1875V11.7778Z" fill="white"/>
<path d="M13.75 14V11.7778H14.875L16 14H13.75Z" fill="white"/>
<path d="M8.68752 9.55556C8.37686 9.55556 8.12502 9.79244 8.12502 10.0847V11.2222H9.25002V10.0847C9.25002 9.79244 8.99818 9.55556 8.68752 9.55556Z" fill="white"/>
</svg>
