<svg width="24" height="24" viewBox="0 0 24 24" fill="none" xmlns="http://www.w3.org/2000/svg">
<rect x="8" y="3" width="8" height="18" fill="#F64E4E"/>
<path d="M16 3H22C23.1046 3 24 3.89543 24 5V19C24 20.1046 23.1046 21 22 21H16V3Z" fill="#FCCA33"/>
<path fill-rule="evenodd" clip-rule="evenodd" d="M0 19C0 20.1046 0.895431 21 2 21H8V3H2C0.89543 3 0 3.89543 0 5V19Z" fill="#1BA049"/>
<path fill-rule="evenodd" clip-rule="evenodd" d="M11.8571 12.9714L10.1778 14.1686L10.7974 12.2015L9.13984 10.9742L11.2022 10.9557L11.8571 9L12.5121 10.9557L14.5744 10.9742L12.9169 12.2015L13.5365 14.1686L11.8571 12.9714Z" fill="#FCCA33"/>
</svg>
