<svg width="24" height="24" viewBox="0 0 24 24" fill="none" xmlns="http://www.w3.org/2000/svg">
<rect y="3" width="24" height="18" rx="2" fill="white"/>
<path fill-rule="evenodd" clip-rule="evenodd" d="M22 4H2C1.44772 4 1 4.44772 1 5V19C1 19.5523 1.44772 20 2 20H22C22.5523 20 23 19.5523 23 19V5C23 4.44771 22.5523 4 22 4ZM2 3C0.895431 3 0 3.89543 0 5V19C0 20.1046 0.89543 21 2 21H22C23.1046 21 24 20.1046 24 19V5C24 3.89543 23.1046 3 22 3H2Z" fill="#D6D8DE"/>
<path fill-rule="evenodd" clip-rule="evenodd" d="M0 19C0 20.1046 0.895431 21 2 21H6V3H2C0.89543 3 0 3.89543 0 5V19Z" fill="#F64E4E"/>
<path fill-rule="evenodd" clip-rule="evenodd" d="M24 19C24 20.1046 23.1046 21 22 21H18V3H22C23.1046 3 24 3.89543 24 5V19Z" fill="#F64E4E"/>
<path fill-rule="evenodd" clip-rule="evenodd" d="M13.9213 11.2215C13.6881 11.4547 13.2941 11.2438 13.3588 10.9204L13.7143 9.14283L12.5714 9.71426L12 7.99997L11.4286 9.71426L10.2857 9.14283L10.6412 10.9204C10.7059 11.2438 10.3119 11.4547 10.0787 11.2215L9.94997 11.0928C9.8198 10.9626 9.60874 10.9626 9.47857 11.0928L9.14284 11.4285L7.99998 10.8571L8.57141 12L8.23569 12.3357C8.10551 12.4659 8.10551 12.6769 8.23569 12.8071L9.71427 14.2857H11.4286L11.7143 16H12.2857L12.5714 14.2857H14.2857L15.7643 12.8071C15.8945 12.6769 15.8945 12.4659 15.7643 12.3357L15.4286 12L16 10.8571L14.8571 11.4285L14.5214 11.0928C14.3912 10.9626 14.1802 10.9626 14.05 11.0928L13.9213 11.2215Z" fill="#F64E4E"/>
</svg>
