<svg width="24" height="24" viewBox="0 0 24 24" fill="none" xmlns="http://www.w3.org/2000/svg">
<rect y="3" width="24" height="18" rx="2" fill="#19BFBF"/>
<path fill-rule="evenodd" clip-rule="evenodd" d="M5.29193 10.8447C5.2096 11.0094 5.27634 11.2096 5.441 11.2919L7.13043 12.1366C7.29509 12.219 7.36183 12.4192 7.2795 12.5839L7.00621 13.1304C6.92388 13.2951 6.72366 13.3618 6.559 13.2795L5.78467 12.8923C5.73838 12.8692 5.68734 12.8571 5.6356 12.8571H4.33333C4.14924 12.8571 4 13.0064 4 13.1905V13.7597C4 13.9032 4.09181 14.0306 4.22792 14.076L5.20262 14.4009C5.4377 14.4792 5.50813 14.7776 5.33291 14.9528L5.24049 15.0452C5.17798 15.1077 5.14286 15.1925 5.14286 15.2809V15.6602C5.14286 15.696 5.14863 15.7316 5.15996 15.7656L5.67062 17.2976C5.69858 17.3815 5.75871 17.4508 5.83778 17.4903L6.64225 17.8926C6.77058 17.9567 6.92557 17.9316 7.02703 17.8301L8.24441 16.6127C8.40529 16.4519 8.36128 16.1806 8.15778 16.0789L7.59493 15.7975C7.49297 15.7465 7.42857 15.6423 7.42857 15.5283C7.42857 15.3325 7.61256 15.1889 7.8025 15.2363L9.4618 15.6512C9.61019 15.6883 9.71429 15.8216 9.71429 15.9745V16.7562C9.71429 16.822 9.73376 16.8864 9.77027 16.9411L10.7582 18.423C10.82 18.5157 10.9241 18.5714 11.0355 18.5714H11.2029C11.3392 18.5714 11.4618 18.4884 11.5124 18.3619L12.2958 16.4035C12.4026 16.1364 12.7748 16.121 12.9034 16.3782L13.1187 16.8088C13.1347 16.8408 13.1558 16.8701 13.1811 16.8954L14.2475 17.9618C14.2728 17.9871 14.3021 18.0082 14.3341 18.0242L14.9462 18.3302C15.1678 18.441 15.4286 18.2799 15.4286 18.0321V17.5666C15.4286 17.4782 15.3935 17.3935 15.3309 17.3309L15.0928 17.0928C14.9627 16.9627 14.9627 16.7516 15.0928 16.6214L15.3309 16.3833C15.3935 16.3208 15.4782 16.2857 15.5666 16.2857H16.4927C16.5445 16.2857 16.5955 16.2737 16.6418 16.2505L17.53 15.8064C17.643 15.75 17.7143 15.6345 17.7143 15.5083V14.7095C17.7143 14.6211 17.6792 14.5363 17.6167 14.4738L17.3786 14.2357C17.2484 14.1055 17.2484 13.8945 17.3786 13.7643L17.9587 13.1842C18.1196 13.0233 18.3908 13.0673 18.4925 13.2708L18.7865 13.8587C18.8298 13.9453 18.9183 14 19.0151 14C19.2051 14 19.3286 13.8001 19.2437 13.6302L19.0062 13.1553C18.9239 12.9906 18.9906 12.7904 19.1553 12.7081L19.7019 12.4348C19.8665 12.3525 19.9333 12.1522 19.8509 11.9876L19.4903 11.2664C19.4508 11.1873 19.3815 11.1272 19.2976 11.0992L18.226 10.742C17.9909 10.6636 17.9204 10.3653 18.0957 10.1901L18.7595 9.5262C18.822 9.46369 18.9068 9.42857 18.9952 9.42857H20.3654C20.4917 9.42857 20.6071 9.35724 20.6636 9.24431L20.9244 8.72253C21.0294 8.51257 20.8903 8.26275 20.6565 8.2415L15.5312 7.77556C15.2635 7.75123 15.1457 7.42575 15.3357 7.23571C15.3952 7.17626 15.4286 7.09562 15.4286 7.01155V6.33333C15.4286 6.14924 15.2793 6 15.0952 6H12.7095C12.6211 6 12.5363 6.03512 12.4738 6.09763L10.9224 7.649C10.8797 7.69172 10.8262 7.72203 10.7676 7.73668L6.40534 8.82724C6.32815 8.84653 6.24659 8.83758 6.17542 8.802L5.86264 8.6456C5.59702 8.5128 5.30343 8.76743 5.39734 9.04916L5.67062 9.86901C5.69858 9.95288 5.69207 10.0444 5.65254 10.1235L5.29193 10.8447ZM9.14286 12.8571C9.45845 12.8571 9.71429 12.6013 9.71429 12.2857C9.71429 11.9701 9.45845 11.7143 9.14286 11.7143C8.82727 11.7143 8.57143 11.9701 8.57143 12.2857C8.57143 12.6013 8.82727 12.8571 9.14286 12.8571Z" fill="white"/>
<path d="M13.1429 18C13.1429 18.3156 12.887 18.5714 12.5714 18.5714C12.2558 18.5714 12 18.3156 12 18C12 17.6844 12.2558 17.4286 12.5714 17.4286C12.887 17.4286 13.1429 17.6844 13.1429 18Z" fill="white"/>
<path d="M20 14.5714V15.1429L19.4262 15.7167C19.2162 15.9267 19.3649 16.2857 19.6619 16.2857H19.794C19.9202 16.2857 20.0357 16.2144 20.0921 16.1015L20.5714 15.1429L20 14.5714Z" fill="white"/>
<path d="M20 14.5714L20.3159 14.4135C20.5219 14.3105 20.4486 14 20.2183 14C20.0977 14 20 14.0977 20 14.2183V14.5714Z" fill="white"/>
</svg>
