<svg xmlns="http://www.w3.org/2000/svg" viewBox="0 0 24 24">
  <path fill-rule="evenodd" d="M11 4.812a1.3 1.3 0 0 1 1.3-1.3h5.4a1.3 1.3 0 0 1 1.3 1.3v1.321a1.3 1.3 0 0 1-1.3 1.3h-2.05v1.67h1.237a1.3 1.3 0 0 1 1.285 1.099l.593 3.797a1.3 1.3 0 0 1-1.284 1.5H6.519A1.3 1.3 0 0 1 5.235 14l.593-3.797a1.3 1.3 0 0 1 1.285-1.1h7.237V7.434H12.3a1.3 1.3 0 0 1-1.3-1.3v-1.32Zm-3.98 7.312a.65.65 0 0 1 .65-.65h3.114a.65.65 0 1 1 0 1.3H7.67a.65.65 0 0 1-.65-.65Zm-1.733 4.714a1.3 1.3 0 0 0-1.3 1.3v1.05a1.3 1.3 0 0 0 1.3 1.3h13.426a1.3 1.3 0 0 0 1.3-1.3v-1.05a1.3 1.3 0 0 0-1.3-1.3H5.287Z"/>
</svg>
