<svg xmlns="http://www.w3.org/2000/svg" viewBox="0 0 24 24">
  <path fill-rule="evenodd" d="M11 4.867c0-.746.605-1.35 1.35-1.35h5.3c.745 0 1.35.604 1.35 1.35v1.28a1.35 1.35 0 0 1-1.35 1.35h-2v1.72h.53c.961 0 1.779.7 1.927 1.65l.644 4.139a1.95 1.95 0 0 1 1.267 1.826v1.701a1.95 1.95 0 0 1-1.95 1.95H5.932a1.95 1.95 0 0 1-1.95-1.95v-1.7c0-.837.527-1.55 1.267-1.827l.644-4.14a1.95 1.95 0 0 1 1.927-1.65h6.53V7.498h-2A1.35 1.35 0 0 1 11 6.148V4.867Zm1.35-.05a.05.05 0 0 0-.05.05v1.28c0 .028.023.05.05.05h5.3a.05.05 0 0 0 .05-.05v-1.28a.05.05 0 0 0-.05-.05h-5.3ZM5.932 16.183h12.136a.65.65 0 0 1 .65.65v1.7a.65.65 0 0 1-.65.65H5.932a.65.65 0 0 1-.65-.65v-1.7a.65.65 0 0 1 .65-.65Zm10.89-5.117.595 3.816H6.583l.594-3.816a.65.65 0 0 1 .642-.55h8.36a.65.65 0 0 1 .642.55Zm-7.976.732a.65.65 0 1 0 0 1.3h3.115a.65.65 0 0 0 0-1.3H8.846Z"/>
</svg>
