<svg xmlns="http://www.w3.org/2000/svg" fill="currentColor" viewBox="0 0 70 16">
  <path d="M6.72 12.16c-.981 0-1.845-.139-2.592-.416-.747-.288-1.37-.683-1.872-1.184a5.21 5.21 0 0 1-1.152-1.824C.848 8.032.72 7.253.72 6.4c0-.907.144-1.717.432-2.432a5.111 5.111 0 0 1 1.2-1.808 5.134 5.134 0 0 1 1.872-1.136C4.949.768 5.754.64 6.64.64c.373 0 .72.027 1.04.08.32.043.603.09.848.144.277.064.533.139.768.224V3.04a7.877 7.877 0 0 0-.384-.128 4.989 4.989 0 0 0-.592-.176 4.736 4.736 0 0 0-.736-.144 5.26 5.26 0 0 0-.832-.064c-.555 0-1.061.085-1.52.256-.459.17-.853.421-1.184.752-.32.32-.57.725-.752 1.216-.17.48-.256 1.035-.256 1.664 0 .64.09 1.2.272 1.68.181.48.437.885.768 1.216.33.32.725.565 1.184.736.47.16.987.24 1.552.24a6.66 6.66 0 0 0 1.536-.16c.459-.117.773-.203.944-.256v1.936a15.56 15.56 0 0 1-.992.208 7.642 7.642 0 0 1-1.584.144Zm6.558 0c-.384 0-.741-.053-1.072-.16a2.444 2.444 0 0 1-.864-.48 2.336 2.336 0 0 1-.56-.784 2.956 2.956 0 0 1-.192-1.104c0-.49.096-.912.288-1.264.192-.352.47-.64.832-.864a3.81 3.81 0 0 1 1.296-.48 8.184 8.184 0 0 1 1.696-.16h1.248v-.192c0-.267-.053-.485-.16-.656a1.08 1.08 0 0 0-.416-.432 1.558 1.558 0 0 0-.624-.24 3.387 3.387 0 0 0-.752-.08 7.46 7.46 0 0 0-1.216.112 6.807 6.807 0 0 0-1.424.416V4.048a7.94 7.94 0 0 1 1.424-.336 9.62 9.62 0 0 1 1.552-.128 5.64 5.64 0 0 1 1.52.192c.47.117.864.31 1.184.576.33.256.587.592.768 1.008.181.416.272.917.272 1.504V12h-2.064l.016-1.28h-.048c-.298.49-.693.853-1.184 1.088-.49.235-.997.352-1.52.352Zm.704-1.552c.277 0 .534-.053.768-.16a2.017 2.017 0 0 0 1.04-1.104c.107-.245.16-.501.16-.768V8.16h-1.088c-.725 0-1.253.128-1.584.384-.32.245-.48.57-.48.976 0 .363.112.635.336.816.224.181.507.272.848.272ZM24.44 5.424h-1.664v3.632c0 .523.101.88.304 1.072.213.192.475.288.784.288.107 0 .213-.01.32-.032.107-.021.219-.043.336-.064v1.712c-.213.032-.41.059-.592.08a3.312 3.312 0 0 1-.576.048c-.843 0-1.51-.224-2-.672-.48-.459-.72-1.141-.72-2.048V5.424h-1.264V3.728h1.264V1.856l2.144-.656v2.528h1.664v1.696Zm3.424 3.008c.203 1.376 1.03 2.064 2.48 2.064.405 0 .837-.043 1.296-.128.47-.096.901-.203 1.296-.32v1.728c-.267.075-.645.155-1.136.24a8.46 8.46 0 0 1-1.648.144c-1.45 0-2.56-.39-3.328-1.168-.768-.779-1.152-1.85-1.152-3.216 0-.64.096-1.216.288-1.728.203-.523.48-.965.832-1.328a3.69 3.69 0 0 1 1.28-.832 4.193 4.193 0 0 1 1.616-.304c1.227 0 2.165.379 2.816 1.136.65.757.976 1.84.976 3.248v.464h-5.616Zm1.824-3.2c-.533 0-.95.176-1.248.528-.299.341-.49.784-.576 1.328h3.504c.021-.576-.128-1.03-.448-1.36-.31-.33-.72-.496-1.232-.496ZM38.683 15.6c-.768 0-1.424-.07-1.968-.208a24.086 24.086 0 0 1-1.12-.288v-1.808a8.4 8.4 0 0 0 .448.16c.203.075.432.144.688.208.267.075.555.133.864.176.31.053.63.08.96.08.853 0 1.483-.208 1.888-.624.416-.416.624-1.067.624-1.952v-.512h-.064c-.277.373-.64.661-1.088.864a3.344 3.344 0 0 1-1.424.304 3.455 3.455 0 0 1-1.504-.32 3.296 3.296 0 0 1-1.136-.88 4.08 4.08 0 0 1-.72-1.328 5.234 5.234 0 0 1-.256-1.664c0-.63.086-1.2.256-1.712a4.11 4.11 0 0 1 .752-1.344 3.44 3.44 0 0 1 1.168-.864 3.68 3.68 0 0 1 1.504-.304c.598 0 1.093.128 1.488.384a4.18 4.18 0 0 1 1.024.896h.048V3.728h2.016v7.616c0 1.483-.362 2.56-1.088 3.232-.715.683-1.834 1.024-3.36 1.024Zm.368-5.248c.566 0 1.03-.224 1.392-.672.373-.448.56-1.072.56-1.872 0-.832-.192-1.461-.576-1.888a1.774 1.774 0 0 0-1.408-.656c-.554 0-1.013.213-1.376.64-.362.416-.544 1.024-.544 1.824 0 .81.187 1.45.56 1.92.373.47.837.704 1.392.704Zm10.19 1.808c-.64 0-1.221-.101-1.744-.304a4.003 4.003 0 0 1-1.36-.864 4.026 4.026 0 0 1-.88-1.344 4.964 4.964 0 0 1-.304-1.776c0-.65.107-1.237.32-1.76.214-.533.507-.987.88-1.36a4.002 4.002 0 0 1 1.36-.864 4.741 4.741 0 0 1 1.728-.304c.63 0 1.206.101 1.728.304.534.203.987.496 1.36.88.384.373.678.827.88 1.36.214.523.32 1.104.32 1.744a4.73 4.73 0 0 1-.32 1.776 3.808 3.808 0 0 1-2.24 2.208 4.742 4.742 0 0 1-1.728.304Zm0-1.696c.299 0 .57-.059.816-.176.256-.128.475-.304.656-.528.192-.235.336-.512.432-.832.107-.32.16-.672.16-1.056s-.053-.736-.16-1.056A2.58 2.58 0 0 0 50.713 6c-.181-.224-.4-.4-.656-.528a1.737 1.737 0 0 0-.816-.192c-.298 0-.576.064-.832.192-.245.128-.464.31-.656.544a2.576 2.576 0 0 0-.432.816c-.096.31-.144.656-.144 1.04 0 .79.192 1.419.576 1.888.395.47.89.704 1.488.704Zm6.114-6.736h2v1.376h.016c.107-.203.219-.395.336-.576.128-.192.272-.357.432-.496.17-.139.363-.245.576-.32.213-.085.464-.128.752-.128.128 0 .267.01.416.032.15.01.288.027.416.048v1.824a6.681 6.681 0 0 0-.432-.048 4.857 4.857 0 0 0-.368-.016c-.768 0-1.296.256-1.584.768-.277.501-.416 1.237-.416 2.208V12h-2.144V3.728Zm7.523 11.856a3.44 3.44 0 0 1-.624-.048c-.16-.021-.304-.043-.432-.064V13.76l.288.032c.117.021.25.032.4.032.394 0 .704-.096.928-.288.224-.192.41-.49.56-.896l.064-.208-3.12-8.704h2.368l1.84 6.08h.048l1.936-6.08h2.24L66.238 12.4c-.214.565-.427 1.05-.64 1.456a4.077 4.077 0 0 1-.704.992 2.34 2.34 0 0 1-.88.56 3.4 3.4 0 0 1-1.136.176Z"/>
</svg>
