<svg width="24" height="24" viewBox="0 0 24 24" fill="none" xmlns="http://www.w3.org/2000/svg">
<rect y="3" width="24" height="18" rx="2" fill="#19BFBF"/>
<path d="M13.9072 17.9072L13.0556 17.0556C13.019 17.0191 12.9915 16.9744 12.9751 16.9253L12.4936 15.4809C12.4548 15.3643 12.3457 15.2857 12.2228 15.2857C12.0371 15.2857 11.9008 15.4603 11.9458 15.6405L12.3828 17.3883C12.4112 17.5019 12.3779 17.6221 12.2951 17.7049L12.0928 17.9072C11.9627 18.0373 11.7516 18.0373 11.6214 17.9072L11.3833 17.6691C11.3208 17.6065 11.2857 17.5218 11.2857 17.4334V16.5073C11.2857 16.4555 11.2737 16.4045 11.2505 16.3582L10.8064 15.47C10.75 15.357 10.6345 15.2857 10.5083 15.2857H9.07869C9.02694 15.2857 8.9759 15.2978 8.92962 15.3209L7.98064 15.7954C7.90157 15.8349 7.84144 15.9043 7.81348 15.9881L7.32938 17.4404C7.30142 17.5243 7.24129 17.5936 7.16222 17.6332L6.29193 18.0683C6.19809 18.1152 6.08763 18.1152 5.99379 18.0683L5.18426 17.6636C5.07133 17.6071 5 17.4917 5 17.3654V15.619C5 15.435 5.14924 15.2857 5.33333 15.2857H6.38095C6.56505 15.2857 6.71429 15.1365 6.71429 14.9524V14.1969C6.71429 14.1611 6.72006 14.1255 6.73139 14.0915L7.20974 12.6565C7.25511 12.5204 7.38249 12.4286 7.52597 12.4286H8.34988C8.40163 12.4286 8.45267 12.4165 8.49895 12.3934L9.50105 11.8923C9.54733 11.8692 9.59837 11.8571 9.65012 11.8571H10.381C10.565 11.8571 10.7143 11.7079 10.7143 11.5238V11.4238C10.7143 11.3354 10.7494 11.2506 10.8119 11.1881L10.9587 11.0413C11.1196 10.8804 11.3908 10.9244 11.4925 11.1279L11.765 11.6729C11.8215 11.7858 11.9369 11.8571 12.0632 11.8571H13.3312C13.4747 11.8571 13.602 11.7653 13.6474 11.6292L14.0669 10.3708C14.1123 10.2347 14.2396 10.1429 14.3831 10.1429H15C15.1578 10.1429 15.2857 10.0149 15.2857 9.85714C15.2857 9.69935 15.1578 9.57143 15 9.57143H14.4762C14.2921 9.57143 14.1429 9.42219 14.1429 9.2381V8.50726C14.1429 8.45551 14.1549 8.40447 14.178 8.35819L14.6068 7.5006C14.671 7.37227 14.6459 7.21728 14.5444 7.11583L14.3786 6.94999C14.2484 6.81981 14.0373 6.81981 13.9072 6.94999L13.0976 7.75951C13.0351 7.82202 13 7.90681 13 7.99521V8.94591C13 8.98173 12.9942 9.01733 12.9829 9.05132L12.5045 10.4864C12.4592 10.6225 12.3318 10.7143 12.1883 10.7143H11.9952C11.9068 10.7143 11.822 10.6792 11.7595 10.6167L11.3681 10.2252C11.3153 10.1725 11.2857 10.101 11.2857 10.0264C11.2857 9.81736 11.0657 9.68141 10.8788 9.77489L10.3577 10.0354C10.2294 10.0996 10.0744 10.0744 9.97297 9.97297L9.66906 9.66906C9.60655 9.60655 9.57143 9.52176 9.57143 9.43336V8.56664C9.57143 8.47824 9.60655 8.39345 9.66906 8.33094L12.3729 5.62707C12.4095 5.59048 12.4541 5.56291 12.5032 5.54654L14.0915 5.01711C14.1255 5.00578 14.1611 5 14.1969 5H15.0797C15.206 5 15.3214 5.07133 15.3778 5.18426L15.822 6.07248C15.8451 6.11876 15.8571 6.1698 15.8571 6.22155V7.71907C15.8571 7.80748 15.8923 7.89226 15.9548 7.95477L16.2829 8.2829C16.3722 8.37218 16.4033 8.50423 16.3634 8.62401L15.9377 9.90132C15.8901 10.0439 15.9439 10.2007 16.069 10.2841L17.5714 11.2857L18.3766 11.6883C18.5559 11.7779 18.6161 12.0045 18.5048 12.1713L17.6274 13.4875C17.5909 13.5422 17.5714 13.6065 17.5714 13.6724V15.0455C17.5714 15.1889 17.4796 15.3163 17.3435 15.3617L15.9881 15.8135C15.9043 15.8414 15.8349 15.9016 15.7954 15.9806L15.3099 16.9516C15.2939 16.9837 15.2728 17.0129 15.2475 17.0382L14.3786 17.9072C14.2484 18.0373 14.0373 18.0373 13.9072 17.9072Z" fill="white"/>
<path d="M9 17.5714C9.31559 17.5714 9.57143 17.3156 9.57143 17C9.57143 16.6844 9.31559 16.4286 9 16.4286C8.68441 16.4286 8.42857 16.6844 8.42857 17C8.42857 17.3156 8.68441 17.5714 9 17.5714Z" fill="white"/>
<path d="M7.28571 10.1429C7.28571 10.4584 7.02988 10.7143 6.71429 10.7143C6.39869 10.7143 6.14286 10.4584 6.14286 10.1429C6.14286 9.82727 6.39869 9.57143 6.71429 9.57143C7.02988 9.57143 7.28571 9.82727 7.28571 10.1429Z" fill="white"/>
<path fill-rule="evenodd" clip-rule="evenodd" d="M7.82197 10.2132C7.84511 10.167 7.85716 10.1159 7.85716 10.0642V9.65012C7.85716 9.59837 7.84511 9.54733 7.82197 9.50105L7.52693 8.91098C7.41612 8.68934 7.57728 8.42857 7.82508 8.42857H8.09526C8.27935 8.42857 8.42859 8.57781 8.42859 8.7619V10.0642C8.42859 10.1159 8.44064 10.167 8.46378 10.2132L8.75882 10.8033C8.86963 11.0249 8.70847 11.2857 8.46067 11.2857H7.82508C7.57728 11.2857 7.41612 11.0249 7.52693 10.8033L7.82197 10.2132Z" fill="white"/>
</svg>
