<svg xmlns="http://www.w3.org/2000/svg" viewBox="0 0 24 24">
  <defs/>
  <path fill-rule="evenodd" d="M4.65 4.081a.65.65 0 01.65.65V18.35c0 .193.157.35.35.35h13.687a.65.65 0 110 1.3H5.65A1.65 1.65 0 014 18.35V4.731a.65.65 0 01.65-.65zm15.153 4.056a.65.65 0 00-.49-.196l-3.036.11a.65.65 0 10.047 1.298l1.334-.048-3.579 3.579-2.86-2.86a.65.65 0 00-.919 0l-3.32 3.32a.65.65 0 00.92.919l2.86-2.86 2.86 2.86a.65.65 0 00.919 0l4.045-4.045-.081 1.296a.65.65 0 001.297.081l.186-2.96a.65.65 0 00-.183-.494z"/>
</svg>
