<svg xmlns="http://www.w3.org/2000/svg" viewBox="0 0 24 24">
  <defs/>
  <path fill-rule="evenodd" d="M4.65 3.992a.65.65 0 01.65.65V18.35c0 .193.157.35.35.35h13.687a.65.65 0 110 1.3H5.65A1.65 1.65 0 014 18.35V4.642a.65.65 0 01.65-.65zm9.903 6.073a.65.65 0 00-.65.65v6.099a.65.65 0 101.3 0v-6.1a.65.65 0 00-.65-.65zm-3.95-5.336a.65.65 0 011.3 0v12.085a.65.65 0 11-1.3 0V4.729zM7.95 10.065a.65.65 0 00-.65.65v6.099a.65.65 0 101.3 0v-6.1a.65.65 0 00-.65-.65zm10.553 6.749a.65.65 0 11-1.3 0V7.736a.65.65 0 111.3 0v9.078z"/>
</svg>
