<svg xmlns="http://www.w3.org/2000/svg" viewBox="0 0 24 24">
  <path fill-rule="evenodd" d="M12.65 6.43v1.677h3.394a3 3 0 0 1 2.893 3.796l-1.543 5.606a1.3 1.3 0 0 1-1.253.955H7.86a1.3 1.3 0 0 1-1.254-.955l-1.543-5.606a3 3 0 0 1 2.893-3.796h3.394V6.43H9.662a.65.65 0 0 1 0-1.3h1.688V3.65a.65.65 0 1 1 1.3 0v1.48h1.688a.65.65 0 1 1 0 1.3H12.65Zm-6.333 5.128 1.543 5.606h8.28l1.543-5.606a1.7 1.7 0 0 0-1.639-2.151H7.957a1.7 1.7 0 0 0-1.64 2.15Z"/>
  <path d="M5.673 19.764a.65.65 0 1 0 0 1.3h12.654a.65.65 0 0 0 0-1.3H5.673Z"/>
</svg>
