<svg width="24" height="24" viewBox="0 0 24 24" fill="none" xmlns="http://www.w3.org/2000/svg">
<rect y="3" width="24" height="18" rx="2" fill="#F64E4E"/>
<path d="M9.4638 5.93925L8.63371 5.79065L9.2007 5.13695L9.34222 4.26535L9.9648 4.8607L10.7949 5.00929L10.2279 5.663L10.0864 6.5346L9.4638 5.93925Z" fill="#FCCA33"/>
<path d="M11.5765 8.37955L10.8572 8.83922L10.8766 7.95528L10.4389 7.19999L11.2807 7.22044L12 6.76076L11.9806 7.6447L12.4183 8.39999L11.5765 8.37955Z" fill="#FCCA33"/>
<path d="M9.17777 14.2595L9.88138 13.7738L10.7234 13.7634L10.2608 13.0246L10.2509 12.1405L9.54724 12.6262L8.70523 12.6366L9.16785 13.3754L9.17777 14.2595Z" fill="#FCCA33"/>
<path d="M11.3294 11.3909L10.4924 11.4883L10.8658 10.6958L10.7731 9.817L11.5278 10.2091L12.3648 10.1117L11.9913 10.9042L12.0841 11.783L11.3294 11.3909Z" fill="#FCCA33"/>
<path d="M3.69902 11.9125L5.71429 10.404L7.72955 11.9125L6.98599 9.43388L8.97505 7.88756L6.50024 7.86416L5.71429 5.40002L4.92833 7.86416L2.45352 7.88756L4.44259 9.43388L3.69902 11.9125Z" fill="#FCCA33"/>
</svg>
