<svg xmlns="http://www.w3.org/2000/svg" viewBox="0 0 24 24">
  <defs/>
  <path fill-rule="evenodd" d="M14.05 14.65a.6.6 0 00.6-.6v-4.8a.6.6 0 00-.6-.6h-4.8a.6.6 0 00-.6.6v4.8a.6.6 0 00.6.6h4.8zm-.7-4.4a.3.3 0 00-.3-.3h-2.8a.3.3 0 00-.3.3v2.8a.3.3 0 00.3.3h2.8a.3.3 0 00.3-.3v-2.8z"/>
  <path fill-rule="evenodd" d="M11 2.65v3H9.3v-2a.65.65 0 10-1.3 0v2.07A3.004 3.004 0 005.72 8H3.65a.65.65 0 100 1.3h2V11h-3a.65.65 0 100 1.3h3V14h-2a.65.65 0 100 1.3h2.07A3.004 3.004 0 008 17.58v2.07a.65.65 0 101.3 0v-2H11v3a.65.65 0 101.3 0v-3H14v2a.65.65 0 101.3 0v-2.07a3.004 3.004 0 002.28-2.28h2.07a.65.65 0 100-1.3h-2v-1.7h3a.65.65 0 100-1.3h-3V9.3h2a.65.65 0 100-1.3h-2.07a3.004 3.004 0 00-2.28-2.28V3.65a.65.65 0 10-1.3 0v2h-1.7v-3a.65.65 0 10-1.3 0zm5.342 12c0-.036.002-.07.008-.105V8.65a1.7 1.7 0 00-1.7-1.7h-6a1.7 1.7 0 00-1.7 1.7v6a1.7 1.7 0 001.7 1.7h6a1.7 1.7 0 001.698-1.61.643.643 0 01-.006-.09z"/>
</svg>
