<svg width="24" height="24" viewBox="0 0 24 24" fill="none" xmlns="http://www.w3.org/2000/svg">
<g clip-path="url(#clip0_72903_162161)">
<path d="M23.3277 20.4957C23.7401 20.1294 24 19.595 24 18.9999V4.99994C24 3.90062 23.1131 3.00845 22.0158 3H1.9843C1.48093 3.00388 1.02183 3.19371 0.672302 3.5042L23.3277 20.4957Z" fill="#1BA049"/>
<path d="M0.672272 3.50421L23.3277 20.4957C22.9745 20.8094 22.5095 20.9999 22 20.9999H2C0.89543 20.9999 0 20.1045 0 18.9999V4.99995C0 4.40491 0.259854 3.87057 0.672272 3.50421Z" fill="#022D9A"/>
<path fill-rule="evenodd" clip-rule="evenodd" d="M13.4219 10.9239C13.4219 10.904 13.4221 10.8841 13.4219 10.8641C13.4216 10.8432 13.4301 10.8168 13.4018 10.8093C13.3765 10.8027 13.3543 10.8107 13.336 10.8331C13.2784 10.9032 13.1643 10.8907 13.1267 10.8105C13.1147 10.7848 13.0993 10.7673 13.0701 10.7713C13.042 10.7751 13.0224 10.7935 13.023 10.822C13.0253 10.9217 12.9549 10.9775 12.9043 11.0448C12.8813 11.0753 12.8582 11.081 12.8489 11.0316C12.8422 10.996 12.82 10.981 12.7866 10.9884C12.7539 10.9956 12.74 11.0191 12.7406 11.0537C12.7412 11.0856 12.7402 11.1175 12.7407 11.1493C12.7412 11.1765 12.7327 11.1991 12.7159 11.2201C12.432 11.5748 12.0744 11.7626 11.6285 11.7529C11.5828 11.7519 11.5429 11.7501 11.5255 11.6933C11.5186 11.6711 11.4925 11.6626 11.4702 11.6552C11.4201 11.6387 11.3669 11.6337 11.3185 11.6469C11.2519 11.6652 11.1993 11.6433 11.1474 11.6077C11.0995 11.5747 11.0596 11.5321 11.0215 11.4875C10.9491 11.4029 10.8864 11.3103 10.8234 11.2182C10.8075 11.195 10.7935 11.1793 10.7637 11.2005C10.6857 11.256 10.6721 11.3944 10.7402 11.461C10.7776 11.4976 10.8162 11.533 10.8534 11.57C10.9052 11.6217 10.9103 11.7828 10.8615 11.8367C10.8529 11.8463 10.8392 11.8561 10.8276 11.8563C10.7258 11.8587 10.6963 11.937 10.6954 12.0179C10.6941 12.1414 10.6464 12.2159 10.5386 12.2619C10.4815 12.2863 10.4304 12.3288 10.4071 12.3957C10.3855 12.4577 10.4013 12.489 10.468 12.5358C10.5177 12.5706 10.5471 12.5376 10.5742 12.5052C10.6091 12.4635 10.6384 12.4166 10.6712 12.3729C10.6856 12.3537 10.7027 12.3421 10.73 12.3467C10.8619 12.3691 10.995 12.3602 11.1276 12.3559C11.1944 12.3538 11.2527 12.3555 11.2878 12.4317C11.3057 12.4706 11.3446 12.4957 11.3857 12.5092C11.4281 12.5231 11.4714 12.53 11.5123 12.5044C11.5701 12.4684 11.654 12.4734 11.7019 12.52C11.7383 12.5555 11.7801 12.5733 11.8289 12.5794C11.9189 12.5907 12.0107 12.5896 12.0976 12.6235C12.1984 12.6629 12.2447 12.7299 12.2528 12.842C12.2706 13.0899 12.255 13.3352 12.2064 13.5782C12.1998 13.6112 12.2055 13.6297 12.2405 13.637C12.3782 13.6655 12.5158 13.6918 12.6571 13.6918C12.7019 13.6918 12.7182 13.677 12.7174 13.6307C12.7157 13.5271 12.717 13.4235 12.7171 13.3199C12.7171 13.2752 12.7248 13.2305 12.7484 13.1945C12.8291 13.0713 12.8397 12.9268 12.8669 12.7873C12.8757 12.7418 12.8705 12.6965 12.857 12.652C12.833 12.5731 12.8442 12.4946 12.8612 12.4163C12.8663 12.3926 12.8775 12.3737 12.9014 12.3728C12.9854 12.3698 13.0259 12.3081 13.055 12.2403C13.1283 12.0697 13.2573 11.961 13.4071 11.8722C13.4718 11.8338 13.5592 11.8182 13.5621 11.7128C13.5622 11.7111 13.5639 11.7094 13.565 11.7078C13.608 11.643 13.608 11.643 13.534 11.614C13.5199 11.6085 13.5056 11.6031 13.4916 11.597C13.4215 11.5667 13.4126 11.5499 13.4377 11.475C13.4787 11.3525 13.4829 11.23 13.4442 11.1064C13.4256 11.047 13.4196 10.986 13.4219 10.9239V10.9239ZM10.2141 11.1919C10.3022 11.0245 10.3991 10.8635 10.5224 10.7214C10.8691 10.3215 11.2957 10.0824 11.8081 10.0164C12.8262 9.88534 13.7348 10.5507 14.0176 11.5107C14.1735 12.0398 14.1394 12.5586 13.923 13.064C13.9145 13.0839 13.9064 13.104 13.8981 13.1241C13.7843 13.3503 13.6447 13.5564 13.4652 13.7305C13.1382 14.0475 12.7557 14.2414 12.3123 14.2984C11.7657 14.3685 11.2686 14.2312 10.8289 13.8872C10.3906 13.5443 10.1235 13.0844 10.0305 12.5172C9.9562 12.0636 10.0186 11.6292 10.2066 11.214C10.2098 11.207 10.2116 11.1993 10.2141 11.1919" fill="#FCCA33"/>
<path fill-rule="evenodd" clip-rule="evenodd" d="M13.4219 10.9239C13.4196 10.986 13.4255 11.047 13.4441 11.1064C13.4828 11.23 13.4787 11.3525 13.4376 11.475C13.4126 11.5499 13.4214 11.5667 13.4916 11.597C13.5055 11.6031 13.5198 11.6085 13.534 11.614C13.6079 11.643 13.6079 11.643 13.565 11.7078C13.5639 11.7094 13.5621 11.7111 13.5621 11.7128C13.5592 11.8182 13.4717 11.8338 13.4071 11.8722C13.2572 11.961 13.1282 12.0697 13.0549 12.2403C13.0258 12.3081 12.9853 12.3698 12.9013 12.3728C12.8775 12.3737 12.8663 12.3926 12.8611 12.4163C12.8442 12.4946 12.833 12.5731 12.8569 12.652C12.8705 12.6965 12.8757 12.7418 12.8668 12.7873C12.8397 12.9268 12.829 13.0713 12.7483 13.1945C12.7247 13.2305 12.717 13.2752 12.717 13.3199C12.717 13.4235 12.7157 13.5271 12.7174 13.6307C12.7181 13.677 12.7018 13.6918 12.6571 13.6918C12.5157 13.6918 12.3782 13.6655 12.2405 13.637C12.2054 13.6297 12.1998 13.6112 12.2064 13.5782C12.2549 13.3352 12.2706 13.0899 12.2527 12.842C12.2447 12.7299 12.1983 12.6629 12.0975 12.6235C12.0107 12.5896 11.9188 12.5907 11.8289 12.5794C11.7801 12.5733 11.7383 12.5555 11.7018 12.52C11.6539 12.4734 11.57 12.4684 11.5123 12.5044C11.4713 12.53 11.4281 12.5231 11.3857 12.5092C11.3445 12.4957 11.3057 12.4706 11.2878 12.4317C11.2527 12.3555 11.1944 12.3538 11.1275 12.3559C10.9949 12.3602 10.8619 12.3691 10.7299 12.3467C10.7027 12.3421 10.6855 12.3537 10.6711 12.3729C10.6383 12.4166 10.6091 12.4635 10.5742 12.5052C10.5471 12.5376 10.5177 12.5706 10.468 12.5358C10.4013 12.489 10.3855 12.4577 10.407 12.3957C10.4303 12.3288 10.4815 12.2863 10.5385 12.2619C10.6463 12.2159 10.694 12.1414 10.6954 12.0179C10.6963 11.937 10.7257 11.8587 10.8276 11.8563C10.8391 11.8561 10.8528 11.8463 10.8614 11.8367C10.9102 11.7828 10.9051 11.6217 10.8533 11.57C10.8162 11.533 10.7776 11.4976 10.7401 11.461C10.672 11.3944 10.6857 11.256 10.7637 11.2005C10.7934 11.1793 10.8074 11.195 10.8233 11.2182C10.8864 11.3103 10.949 11.4029 11.0214 11.4875C11.0595 11.5321 11.0995 11.5747 11.1474 11.6077C11.1992 11.6433 11.2518 11.6652 11.3184 11.6469C11.3669 11.6337 11.4201 11.6387 11.4701 11.6552C11.4924 11.6626 11.5186 11.6711 11.5254 11.6933C11.5428 11.7501 11.5828 11.7519 11.6284 11.7529C12.0743 11.7626 12.432 11.5748 12.7158 11.2201C12.7326 11.1991 12.7412 11.1765 12.7407 11.1493C12.7401 11.1175 12.7412 11.0856 12.7406 11.0537C12.7399 11.0191 12.7538 10.9956 12.7865 10.9884C12.82 10.981 12.8422 10.996 12.8489 11.0316C12.8582 11.081 12.8813 11.0753 12.9042 11.0448C12.9548 10.9775 13.0252 10.9217 13.023 10.822C13.0223 10.7935 13.0419 10.7751 13.0701 10.7713C13.0993 10.7673 13.1146 10.7848 13.1267 10.8105C13.1643 10.8907 13.2784 10.9032 13.3359 10.8331C13.3543 10.8107 13.3765 10.8027 13.4017 10.8093C13.4301 10.8168 13.4215 10.8432 13.4218 10.8641C13.4221 10.8841 13.4219 10.904 13.4219 10.9239" fill="#1BA049"/>
<path fill-rule="evenodd" clip-rule="evenodd" d="M22.4399 9.02446C22.4733 9.02426 22.5072 9.02048 22.5169 8.97996C22.5264 8.94015 22.4986 8.91785 22.4705 8.90009C22.4348 8.87742 22.3953 8.87077 22.3548 8.8827C22.3085 8.89633 22.2965 8.9361 22.3276 8.97419C22.3566 9.00972 22.3951 9.02561 22.4399 9.02446ZM17.0847 11.4226C16.5697 11.418 16.0495 11.3366 15.5425 11.1676C15.5023 11.1542 15.464 11.1342 15.4255 11.1156C15.411 11.1086 15.3956 11.0975 15.3969 11.078C15.3986 11.0538 15.4204 11.0508 15.4372 11.046C15.5004 11.0278 15.5621 11.0504 15.6236 11.0584C16.1767 11.13 16.731 11.1825 17.2892 11.1656C18.0054 11.1438 18.6712 10.9386 19.2909 10.5609C19.5519 10.4017 19.8023 10.2254 20.0575 10.0569C20.1428 10.0006 20.1995 9.9154 20.2318 9.81781C20.2739 9.69076 20.3346 9.57359 20.3896 9.45326C20.4499 9.32135 20.4826 9.1822 20.4915 9.03637C20.4976 8.93406 20.4467 8.85878 20.3872 8.78692C20.316 8.70082 20.2189 8.64745 20.1401 8.57103C19.9075 8.3454 19.6369 8.18157 19.3592 8.02589C18.9104 7.77426 18.5234 7.43655 18.1731 7.05113C18.1423 7.01728 18.1095 6.98536 18.0804 6.94994C18.0297 6.88803 18.0474 6.82698 18.1224 6.80497C18.18 6.78808 18.2395 6.78579 18.2968 6.80318C18.6057 6.89697 18.9231 6.95419 19.2328 7.0444C19.6861 7.17643 20.0974 7.39036 20.4465 7.72647C20.4998 7.77773 20.5633 7.76999 20.6239 7.75476C20.669 7.74344 20.6826 7.69707 20.6831 7.65302C20.6855 7.44638 20.741 7.24526 20.7395 7.03818C20.7386 6.91129 20.7065 6.80551 20.6076 6.7186C20.4249 6.55806 20.29 6.35474 20.1907 6.12901C20.1435 6.02164 20.1177 5.90293 20.0473 5.80776C19.9759 5.71132 19.921 5.61664 19.9156 5.48425C19.9117 5.38957 19.8609 5.29426 19.8202 5.20459C19.7577 5.0666 19.6873 4.93246 19.6177 4.79817C19.5865 4.73805 19.5919 4.68127 19.6289 4.63146C19.6679 4.57893 19.722 4.59178 19.7736 4.61277C19.8079 4.62675 19.8386 4.64733 19.8668 4.67174C20.3305 5.07217 20.7761 5.49257 21.1693 5.9709C21.2421 6.05951 21.307 6.15448 21.3731 6.24864C21.4905 6.41589 21.5278 6.60993 21.5543 6.8091C21.6082 7.21297 21.6308 7.62097 21.7002 8.0227C21.727 8.17745 21.7585 8.33114 21.8233 8.47444C21.8986 8.64095 22.067 8.74142 22.24 8.7185C22.2787 8.71337 22.3153 8.68898 22.3521 8.67172C22.5281 8.58923 22.6945 8.61897 22.8553 8.71759C22.8972 8.74333 22.9388 8.76966 22.9795 8.79741C23.0118 8.81939 23.0442 8.84164 23.0731 8.86802C23.1082 8.90007 23.1505 8.93843 23.1416 8.98863C23.1321 9.04239 23.0757 9.05056 23.0307 9.06284C23.011 9.06822 22.9906 9.072 22.9799 9.09335C22.9383 9.17567 22.8675 9.21157 22.7851 9.23024C22.7482 9.23859 22.7207 9.25487 22.7116 9.30119C22.698 9.37086 22.6493 9.41367 22.5905 9.44316C22.507 9.48503 22.4164 9.4981 22.3259 9.50729C22.2726 9.51271 22.2257 9.52593 22.1779 9.55473C22.0406 9.6375 21.889 9.68566 21.7395 9.73809C21.4426 9.84219 21.1379 9.92206 20.8518 10.0597C20.5423 10.2087 20.2448 10.3813 19.9552 10.5678C19.7752 10.6838 19.5898 10.7741 19.3804 10.8104C19.235 10.8356 19.1061 10.9051 18.979 10.9832C18.8092 11.0876 18.6218 11.1527 18.4347 11.2141C18.0008 11.3564 17.5552 11.4198 17.0847 11.4226" fill="#FCCA33"/>
<path d="M5.30683 11.7651L5.35947 11.6697C5.32529 11.6804 5.29182 11.6904 5.25893 11.7003C5.1802 11.7239 5.10482 11.7465 5.03107 11.7738C4.98359 11.7915 4.96999 11.7762 4.95544 11.7339C4.92901 11.6571 4.90079 11.5809 4.87107 11.5007L4.83343 11.3987L4.79993 11.4858C4.77812 11.5424 4.7577 11.5954 4.73749 11.6484C4.68516 11.7855 4.68503 11.7859 4.55326 11.7435C4.54152 11.7397 4.52987 11.7356 4.51822 11.7315C4.49756 11.7241 4.4769 11.7168 4.45579 11.7115C4.43975 11.7075 4.42407 11.7018 4.40811 11.696C4.37757 11.685 4.34601 11.6735 4.30895 11.6724C4.32537 11.7029 4.34132 11.733 4.35709 11.7628C4.39525 11.8348 4.43235 11.9048 4.47249 11.9729C4.49861 12.0172 4.4921 12.0367 4.45088 12.0635C4.38607 12.1055 4.32321 12.1509 4.25655 12.199C4.22847 12.2193 4.19966 12.2401 4.1698 12.2613L4.27487 12.2792C4.35838 12.2935 4.43657 12.3069 4.51497 12.3188C4.55164 12.3243 4.56494 12.3346 4.56007 12.3789C4.55094 12.4621 4.54555 12.5457 4.53989 12.6336C4.53758 12.6694 4.53522 12.7061 4.53254 12.7436L4.74398 12.5429C4.78584 12.5031 4.80685 12.4831 4.82768 12.4833C4.84863 12.4835 4.86942 12.504 4.91112 12.5451C4.95523 12.5885 4.99971 12.6322 5.04718 12.6787L5.11851 12.7487C5.11596 12.7103 5.11393 12.6734 5.11195 12.6377C5.10742 12.5557 5.10321 12.4795 5.0939 12.4039C5.08645 12.3434 5.1048 12.3209 5.1584 12.32C5.16411 12.3199 5.16983 12.3194 5.17547 12.3185L5.48529 12.269L5.39942 12.206C5.32822 12.1537 5.26126 12.1045 5.1932 12.0571C5.16466 12.0372 5.16114 12.0236 5.17933 11.9924C5.22241 11.9186 5.26366 11.8436 5.30683 11.7651Z" fill="white"/>
<path d="M7.3146 13.4493L7.35011 13.5444C7.38106 13.627 7.41167 13.7087 7.44018 13.7912C7.45155 13.8241 7.4646 13.8276 7.49346 13.8182C7.57422 13.7916 7.65534 13.7663 7.73983 13.7398L7.83746 13.7092L7.78493 13.8043C7.7415 13.8831 7.69997 13.9586 7.6565 14.0326C7.63775 14.0646 7.64359 14.0782 7.67117 14.0976C7.7389 14.145 7.80568 14.194 7.87672 14.2461L7.96338 14.3095L7.73604 14.3457L7.72018 14.3481C7.70669 14.3502 7.69317 14.3523 7.67974 14.3547C7.56702 14.3754 7.56703 14.3756 7.5769 14.4892L7.57731 14.4939C7.58276 14.5569 7.58613 14.6201 7.58976 14.6881C7.59147 14.7202 7.59324 14.7534 7.59532 14.7881C7.56858 14.7619 7.54255 14.7367 7.51712 14.7121C7.4559 14.6529 7.3982 14.5971 7.34282 14.5389C7.31053 14.5049 7.29294 14.5102 7.26287 14.5406C7.20696 14.5974 7.14916 14.652 7.08779 14.7101C7.0625 14.734 7.0365 14.7586 7.00987 14.784C7.01198 14.7548 7.01372 14.7268 7.01541 14.6996C7.01893 14.643 7.02221 14.5901 7.02813 14.5376L7.02857 14.5337C7.0469 14.3711 7.04693 14.3708 6.8944 14.3436C6.84247 14.3343 6.79047 14.3255 6.73428 14.316L6.64716 14.3012C6.67667 14.2802 6.705 14.2597 6.73262 14.2397C6.79721 14.1928 6.85814 14.1487 6.92122 14.1087C6.96852 14.0787 6.97645 14.0563 6.9459 14.0057C6.90643 13.9403 6.87079 13.8722 6.83285 13.7998C6.81649 13.7686 6.79971 13.7366 6.78201 13.7036L6.87624 13.7337C6.94501 13.7557 7.0097 13.7764 7.07435 13.7972C7.11766 13.8112 7.13987 13.8184 7.15491 13.8112C7.17012 13.804 7.17843 13.7822 7.19516 13.7385C7.23046 13.6463 7.26625 13.5537 7.30201 13.4616C7.30281 13.4596 7.30471 13.458 7.30778 13.4554C7.30963 13.4538 7.3119 13.4519 7.3146 13.4493Z" fill="white"/>
<path d="M2.27279 14.3557L2.31147 14.4598C2.34274 14.5436 2.37225 14.6228 2.39985 14.7026C2.41265 14.7396 2.42637 14.7449 2.46189 14.7326C2.53835 14.706 2.61567 14.6822 2.69727 14.6571C2.73026 14.647 2.76394 14.6366 2.79855 14.6257L2.74632 14.7205C2.70221 14.8006 2.66061 14.8762 2.61783 14.951C2.60238 14.978 2.60091 14.9913 2.62944 15.0111C2.6986 15.0591 2.76637 15.1093 2.83812 15.1624C2.86616 15.1832 2.8948 15.2044 2.92437 15.2261C2.88855 15.2318 2.85382 15.2375 2.81983 15.2432C2.73652 15.2569 2.65772 15.2699 2.57854 15.2794C2.53682 15.2845 2.52962 15.3016 2.53271 15.3399C2.53942 15.4232 2.54491 15.5065 2.55076 15.5954L2.55807 15.7054C2.5315 15.6793 2.50567 15.6542 2.48046 15.6296C2.41755 15.5684 2.35793 15.5104 2.30059 15.451C2.27371 15.4232 2.25761 15.4241 2.23141 15.4502C2.17265 15.5085 2.1128 15.5656 2.04963 15.6259L1.97169 15.7005C1.97438 15.6623 1.97655 15.6252 1.97868 15.5889C1.98367 15.5041 1.98839 15.4237 1.99876 15.3442C2.0064 15.2857 1.98072 15.2776 1.93997 15.2713C1.86417 15.2596 1.78843 15.2475 1.70751 15.2344L1.60828 15.2185C1.63877 15.1967 1.66813 15.1754 1.6968 15.1547C1.7654 15.1049 1.83001 15.058 1.89656 15.0145C1.93612 14.9886 1.93381 14.9687 1.9129 14.932C1.87285 14.8617 1.83459 14.7903 1.79404 14.7147L1.7428 14.6194C1.77658 14.6303 1.8096 14.6408 1.84201 14.651C1.91942 14.6754 1.99337 14.6988 2.066 14.726C2.11225 14.7434 2.12971 14.7366 2.14653 14.6866C2.17216 14.6105 2.20174 14.5358 2.23285 14.4573C2.24596 14.4242 2.25933 14.3905 2.27279 14.3557Z" fill="white"/>
<path d="M5.40589 18.1433L5.35925 18.2287C5.31919 18.3023 5.27913 18.3759 5.23697 18.4481C5.21835 18.4799 5.22324 18.4931 5.2512 18.5126C5.31922 18.5602 5.38621 18.6095 5.45731 18.6618L5.54286 18.7245L5.47405 18.7358C5.42444 18.7439 5.37859 18.7513 5.33291 18.759C5.31502 18.7621 5.29546 18.7633 5.27588 18.7646C5.23015 18.7675 5.18432 18.7705 5.15933 18.7959C5.13695 18.8187 5.14472 18.8607 5.15277 18.9042C5.15717 18.928 5.16166 18.9522 5.16134 18.974C5.1609 19.0036 5.16353 19.033 5.16622 19.0633C5.17 19.1058 5.17392 19.1498 5.16966 19.1977C5.14488 19.1734 5.12041 19.1497 5.09625 19.1263C5.03619 19.068 4.978 19.0115 4.92168 18.9532C4.89118 18.9216 4.87336 18.9244 4.84384 18.9544C4.78703 19.0121 4.72842 19.0679 4.66682 19.1264C4.64166 19.1504 4.616 19.1748 4.58977 19.2C4.59254 19.1617 4.59492 19.1246 4.59724 19.0883C4.60283 19.0009 4.60811 18.9184 4.61794 18.8364C4.62374 18.7881 4.60738 18.7787 4.56982 18.7731C4.49127 18.7612 4.4129 18.7482 4.33425 18.7351L4.24286 18.7199C4.24074 18.7012 4.25275 18.695 4.26398 18.6893C4.26749 18.6875 4.27094 18.6857 4.27384 18.6836L4.28428 18.676C4.36207 18.6196 4.43991 18.5633 4.51965 18.5101C4.54985 18.4899 4.55591 18.4759 4.53628 18.4415C4.49481 18.3688 4.45555 18.2948 4.41379 18.216C4.39703 18.1843 4.37985 18.1519 4.36197 18.1186C4.39661 18.1298 4.43022 18.1404 4.46304 18.1508C4.54305 18.1761 4.61842 18.2 4.69277 18.2269C4.73321 18.2416 4.74763 18.2328 4.76209 18.1919C4.78962 18.114 4.81971 18.0371 4.85139 17.9561C4.86436 17.9229 4.87759 17.8891 4.89102 17.8542L4.92826 17.9549C4.95819 18.0354 4.9867 18.1122 5.01315 18.1896C5.02782 18.2326 5.04285 18.2454 5.08884 18.2297L5.13242 18.2146C5.22016 18.1841 5.3081 18.1536 5.39951 18.1364C5.40152 18.1388 5.40365 18.1411 5.40589 18.1433Z" fill="white"/>
<path d="M5.25932 16.7203C5.2486 16.7573 5.23753 16.7954 5.22588 16.8353C5.25734 16.8116 5.28766 16.7893 5.31695 16.7678C5.38248 16.7198 5.44286 16.6755 5.49939 16.6263C5.55385 16.5789 5.59242 16.5818 5.64688 16.6254C5.70525 16.6722 5.76719 16.714 5.82914 16.7559C5.85548 16.7736 5.88183 16.7914 5.9079 16.8096C5.87933 16.6849 5.84197 16.5689 5.80224 16.4539C5.79044 16.4197 5.79396 16.3996 5.82466 16.3767C5.89434 16.3248 5.96242 16.2705 6.03389 16.2135C6.06176 16.1912 6.09016 16.1686 6.11936 16.1455C6.08192 16.1455 6.04549 16.1454 6.00978 16.1452C5.92038 16.1449 5.83548 16.1446 5.75063 16.1465C5.71286 16.1473 5.69455 16.1354 5.68208 16.0974C5.65485 16.0143 5.62572 15.9319 5.59422 15.8428C5.58152 15.8069 5.56843 15.7699 5.55493 15.7313C5.54315 15.7699 5.53172 15.8068 5.52065 15.8425C5.49478 15.9259 5.47093 16.0028 5.44941 16.0804C5.43568 16.1299 5.41624 16.1517 5.36193 16.151C5.28078 16.15 5.19955 16.1542 5.11407 16.1587C5.07783 16.1606 5.04083 16.1625 5.00275 16.1641C5.03395 16.1868 5.06412 16.209 5.09362 16.2306C5.16811 16.2853 5.23829 16.3369 5.30986 16.3862C5.34131 16.4078 5.34547 16.4287 5.33504 16.4632C5.30982 16.5462 5.28564 16.6295 5.25932 16.7203Z" fill="white"/>
</g>
<defs>
<clipPath id="clip0_72903_162161">
<rect width="24" height="24" fill="white"/>
</clipPath>
</defs>
</svg>
