<svg xmlns="http://www.w3.org/2000/svg" viewBox="0 0 24 24">
  <defs/>
  <path d="M14.479 13.14a.65.65 0 00-.957-.88l-2.04 2.218-1.022-1.023a.65.65 0 00-.92.919l1.282 1.281a.95.95 0 001.37-.029l2.287-2.486z"/>
  <path fill-rule="evenodd" d="M10.126 5.7a2 2 0 113.748 0H16a3 3 0 013 3v10a3 3 0 01-3 3H8a3 3 0 01-3-3v-10a3 3 0 013-3h2.126zm1.866 0a.7.7 0 11.016 0h-.016zM11.986 7H9.347A1.7 1.7 0 0011 8.3h2A1.7 1.7 0 0014.653 7h-2.639a2.209 2.209 0 01-.028 0zM8 7h.026A3 3 0 0011 9.6h2A3 3 0 0015.974 7H16a1.7 1.7 0 011.7 1.7v10a1.7 1.7 0 01-1.7 1.7H8a1.7 1.7 0 01-1.7-1.7v-10A1.7 1.7 0 018 7z"/>
</svg>
