<svg xmlns="http://www.w3.org/2000/svg" viewBox="0 0 24 24">
  <path fill-rule="evenodd" d="M6 4a3 3 0 0 0-3 3v7.002a3 3 0 0 0 3 3h4V18.7H8.649a.65.65 0 1 0 0 1.3h6.702a.65.65 0 0 0 0-1.3H14v-1.698h4a3 3 0 0 0 3-3V7a3 3 0 0 0-3-3H6Zm5.35 1.3H6A1.7 1.7 0 0 0 4.3 7v6.1h15.4V7A1.7 1.7 0 0 0 18 5.3h-5.35v3.745l1.508-1.582a.65.65 0 1 1 .94.897l-2.624 2.753a.648.648 0 0 1-.717.159l-.014-.006a.647.647 0 0 1-.218-.153l-2.58-2.757a.65.65 0 0 1 .95-.889l1.455 1.556V5.3ZM6 15.702A1.7 1.7 0 0 1 4.347 14.4h15.306A1.7 1.7 0 0 1 18 15.702H6Zm6.7 2.998v-1.4h-1.4v1.4h1.4Z"/>
</svg>
