<svg width="24" height="24" viewBox="0 0 24 24" fill="none" xmlns="http://www.w3.org/2000/svg">
<rect y="3" width="24" height="18" rx="2" fill="#19BFBF"/>
<path fill-rule="evenodd" clip-rule="evenodd" d="M11.4286 16.0001L10.9493 15.0415C10.8928 14.9285 10.7774 14.8572 10.6511 14.8572H10.4238C10.3354 14.8572 10.2506 14.8221 10.1881 14.7596L8.09763 12.6691C8.03512 12.6066 8 12.5218 8 12.4334V11.5667C8 11.4783 7.96488 11.3935 7.90237 11.331L6.92243 10.3511C6.87971 10.3084 6.8494 10.2548 6.83475 10.1962L6.3301 8.17759C6.30245 8.06702 6.22024 7.97825 6.11212 7.94221L4.5939 7.43613C4.57894 7.43114 4.56435 7.4251 4.55024 7.41805L3.61284 6.94934C3.49991 6.89288 3.42857 6.77746 3.42857 6.6512V6.04769C3.42857 5.86359 3.57781 5.71436 3.76191 5.71436H4.43336C4.52177 5.71436 4.60655 5.74947 4.66906 5.81199L5.04523 6.18815C5.10774 6.25067 5.19253 6.28578 5.28093 6.28578H6.14765C6.23605 6.28578 6.32084 6.25067 6.38335 6.18815L6.75951 5.81199C6.82203 5.74947 6.90681 5.71436 6.99522 5.71436H9.06417C9.11592 5.71436 9.16696 5.7264 9.21324 5.74955L10.2153 6.25059C10.2616 6.27374 10.3127 6.28578 10.3644 6.28578H11.3499C11.4016 6.28578 11.4527 6.27374 11.499 6.25059L12.501 5.74955C12.5473 5.7264 12.5984 5.71436 12.6501 5.71436H14.5238C14.7079 5.71436 14.8571 5.86359 14.8571 6.04769V6.52388C14.8571 6.70797 14.7079 6.85721 14.5238 6.85721H14.0476C13.8635 6.85721 13.7143 7.00645 13.7143 7.19055V8.36549C13.7143 8.49174 13.7856 8.60717 13.8986 8.66363L14.3747 8.90172C14.5964 9.01254 14.8571 8.85138 14.8571 8.60358V7.76197C14.8571 7.57788 15.0064 7.42864 15.1905 7.42864H16.2857C16.4435 7.42864 16.5714 7.55656 16.5714 7.71436V7.71436C16.5714 7.87215 16.6993 8.00007 16.8571 8.00007H17.9524C18.1365 8.00007 18.2857 8.14931 18.2857 8.3334V9.08883C18.2857 9.12466 18.2799 9.16025 18.2686 9.19424L17.7392 10.7826C17.7228 10.8317 17.6952 10.8763 17.6586 10.9129L16.0383 12.5332C16.0129 12.5586 15.9918 12.5878 15.9758 12.6199L15.4638 13.644C15.4406 13.6903 15.4286 13.7413 15.4286 13.793V14.5239C15.4286 14.708 15.2793 14.8572 15.0952 14.8572H15.0632C14.9369 14.8572 14.8215 14.7859 14.765 14.673L14.3778 13.8986C14.3214 13.7857 14.206 13.7144 14.0797 13.7144H12.7774C12.6512 13.7144 12.5358 13.7857 12.4793 13.8986L12.0745 14.7081C12.0276 14.802 12.0276 14.9124 12.0745 15.0063L12.4793 15.8158C12.5358 15.9287 12.6512 16.0001 12.7774 16.0001H13.5762C13.6646 16.0001 13.7494 16.0352 13.8119 16.0977L14.7595 17.0453C14.822 17.1078 14.8571 17.1926 14.8571 17.281V17.9525C14.8571 18.1365 14.7079 18.2858 14.5238 18.2858H13.9203C13.794 18.2858 13.6786 18.2145 13.6222 18.1015L13.235 17.3272C13.1785 17.2143 13.0631 17.1429 12.9368 17.1429H12.206C12.0798 17.1429 11.9643 17.0716 11.9079 16.9587L11.4286 16.0001Z" fill="white"/>
</svg>
