<svg width="24" height="24" viewBox="0 0 24 24" fill="none" xmlns="http://www.w3.org/2000/svg">
<rect y="3" width="24" height="18" rx="2" fill="url(#paint0_linear_72961_156408)"/>
<path d="M11.5397 6.28578C11.4676 6.28578 11.3974 6.30918 11.3397 6.35245L9.19671 7.95968C9.16117 7.98634 9.12065 8.00562 9.07755 8.0164L6.89264 8.56262C6.86905 8.56852 6.84617 8.57699 6.82442 8.58786L4.67081 9.66466C4.6063 9.69692 4.55399 9.74923 4.52174 9.81374L3.51508 11.8271C3.46159 11.934 3.46952 12.0615 3.53587 12.161L4.51545 13.6304C4.55195 13.6851 4.57143 13.7495 4.57143 13.8153V15.2906C4.57143 15.379 4.60655 15.4638 4.66906 15.5263L5.5444 16.4016C5.64585 16.5031 5.80084 16.5282 5.92917 16.4641L9.07247 14.8924C9.11876 14.8693 9.1698 14.8572 9.22155 14.8572H11.3079C11.3859 14.8572 11.4614 14.8846 11.5213 14.9345L14.7644 17.6371C14.8243 17.687 14.8998 17.7144 14.9778 17.7144H16.9645C17.0759 17.7144 17.18 17.6587 17.2418 17.5659L19.3726 14.3698C19.4091 14.315 19.4286 14.2507 19.4286 14.1849V12.101C19.4286 12.0352 19.4091 11.9709 19.3726 11.9161L17.1429 8.5715L15.5257 5.87619C15.4654 5.77579 15.3569 5.71436 15.2398 5.71436H14.908C14.6784 5.71436 14.5634 5.99202 14.7258 6.15441C14.8042 6.23286 14.8237 6.35272 14.7741 6.45196L14.3778 7.24438C14.3214 7.35731 14.206 7.42864 14.0797 7.42864H12.7774C12.6512 7.42864 12.5358 7.35731 12.4793 7.24438L12.0921 6.47005C12.0357 6.35712 11.9202 6.28578 11.794 6.28578H11.5397Z" fill="white"/>
<path d="M16.5714 18.2858H15.4286L15.7643 18.6215C15.8945 18.7517 16.1055 18.7517 16.2357 18.6215L16.5714 18.2858Z" fill="white"/>
<defs>
<linearGradient id="paint0_linear_72961_156408" x1="0" y1="3" x2="0" y2="21" gradientUnits="userSpaceOnUse">
<stop stop-color="#19BFBF"/>
<stop offset="1" stop-color="#10ACAC"/>
</linearGradient>
</defs>
</svg>
