<svg width="24" height="24" viewBox="0 0 24 24" fill="none" xmlns="http://www.w3.org/2000/svg">
<rect y="3" width="24" height="18" rx="2" fill="#1BA049"/>
<path d="M14 14.2184C13.469 14.704 12.7631 15 11.9882 15C10.3379 15 9 13.6569 9 12C9 10.3431 10.3379 9 11.9882 9C12.7631 9 13.469 9.29606 14 9.78165C13.674 9.6214 13.3075 9.53144 12.92 9.53144C11.562 9.53144 10.4611 10.6367 10.4611 12C10.4611 13.3634 11.562 14.4686 12.92 14.4686C13.3075 14.4686 13.674 14.3786 14 14.2184Z" fill="#FCCA33"/>
<path d="M19.1817 15.1387L19.3619 15.7257L19.9123 15.5073L19.5866 16.021L20.0927 16.3357L19.5064 16.3891L19.5872 17L19.1817 16.553L18.7762 17L18.857 16.3891L18.2707 16.3357L18.7768 16.021L18.4511 15.5073L19.0015 15.7257L19.1817 15.1387Z" fill="#FCCA33"/>
<path d="M15.911 9.71259L16.0912 10.2997L16.6416 10.0812L16.316 10.5949L16.8221 10.9096L16.2358 10.9631L16.3165 11.5739L15.911 11.1269L15.5056 11.5739L15.5863 10.9631L15 10.9096L15.5061 10.5949L15.1804 10.0812L15.7308 10.2997L15.911 9.71259Z" fill="#FCCA33"/>
<path d="M19.1817 6L19.3619 6.58706L19.9123 6.36866L19.5866 6.88231L20.0927 7.19702L19.5064 7.25047L19.5872 7.86132L19.1817 7.41432L18.7762 7.86132L18.857 7.25047L18.2707 7.19702L18.7768 6.88231L18.4511 6.36866L19.0015 6.58706L19.1817 6Z" fill="#FCCA33"/>
<path d="M22.089 8.79872L22.2692 9.38578L22.8196 9.16738L22.4939 9.68103L23 9.99574L22.4137 10.0492L22.4944 10.66L22.089 10.213L21.6835 10.66L21.7642 10.0492L21.1779 9.99574L21.684 9.68103L21.3584 9.16738L21.9088 9.38578L22.089 8.79872Z" fill="#FCCA33"/>
<path d="M20.49 11.5485L20.6324 11.9143L21.0084 11.9431L20.7204 12.1981L20.8104 12.5817L20.49 12.3735L20.1696 12.5817L20.2596 12.1981L19.9715 11.9431L20.3476 11.9143L20.49 11.5485Z" fill="#FCCA33"/>
<path d="M4 9C5.10457 9 6 8.10457 6 7C6 5.89543 5.10457 5 4 5C2.89543 5 2 5.89543 2 7C2 8.10457 2.89543 9 4 9Z" fill="#FCCA33"/>
<path d="M3.86206 8.50799H4.36146C4.36146 8.50799 4.384 8.46222 4.35643 8.43933C4.32886 8.41644 4.22147 8.4114 4.25048 8.33043C4.31013 8.16397 4.31846 8.21529 4.35591 7.81994C4.39337 7.42459 4.4114 6.8045 4.4114 6.8045H4.33926C4.33926 6.8045 4.35314 6.99732 4.31152 7.24841C4.26991 7.4995 4.25742 7.52169 4.21164 7.7145C4.16586 7.90732 4.15893 7.92398 4.11731 8.03634C4.0757 8.1487 4.07154 8.15425 4.00634 8.25829C3.94114 8.36233 3.96472 8.32348 3.92865 8.38591C3.91062 8.41712 3.88842 8.4088 3.87629 8.43151C3.86415 8.45423 3.86206 8.50799 3.86206 8.50799Z" fill="#802000"/>
<path d="M4.24303 5.54291C4.24717 5.62047 4.23938 5.72316 4.20723 5.80673C4.17463 5.89985 4.13919 5.99267 4.14094 6.08911C4.08912 6.10673 4.03571 5.97697 3.98583 6.05331C4.02333 6.1588 4.1099 6.24231 4.16921 6.33735C4.17922 6.36681 4.26455 6.44374 4.21518 6.46164C4.09055 6.41898 4.06034 6.26107 3.98303 6.16518C3.89325 6.0038 3.72587 5.88974 3.5394 5.88187C3.46935 5.88371 3.24161 5.86451 3.30087 5.98445C3.38814 6.04378 3.49567 6.08247 3.58183 6.14906C3.64603 6.15507 3.7624 6.26224 3.75561 6.30274C3.6427 6.257 3.58985 6.20219 3.46819 6.15409C3.30336 6.09042 3.07536 6.12872 2.9841 6.29231C2.96709 6.33491 2.94197 6.45909 2.99548 6.47092C3.05799 6.37331 3.14742 6.26419 3.27993 6.29347C3.38401 6.30159 3.16379 6.48736 3.24803 6.44998C3.27472 6.43814 3.33636 6.39768 3.37913 6.39345C3.42189 6.38922 3.44577 6.42124 3.47821 6.42566C3.5431 6.43452 3.56097 6.46172 3.55495 6.47755C3.54786 6.49622 3.52724 6.48028 3.46128 6.50119C3.4283 6.51165 3.41107 6.54063 3.3726 6.5539C3.33413 6.56717 3.2541 6.56811 3.2242 6.55634C3.11957 6.5109 2.94803 6.51881 2.91541 6.64992C2.91539 6.70758 2.86408 6.64355 2.84036 6.66846C2.82258 6.73137 2.81798 6.79597 2.72467 6.79026C2.66802 6.84969 2.61001 6.91122 2.53809 6.9535C2.5803 7.05038 2.74754 6.8562 2.73972 6.93807C2.66661 7.03777 2.77734 7.05875 2.82581 6.98201C2.90779 6.89539 3.00932 6.78996 3.13165 6.87725C3.18991 6.9321 3.22376 6.84825 3.26593 6.85274C3.2925 6.92088 3.32593 6.85609 3.35608 6.83683C3.40545 6.83068 3.39156 6.89849 3.45021 6.85672C3.56711 6.77935 3.71092 6.84436 3.82512 6.76909C3.94667 6.71371 3.84219 6.81369 3.80864 6.85277C3.75523 6.95636 3.80155 7.09234 3.6857 7.15667C3.63917 7.28011 3.74068 7.44285 3.63715 7.53417C3.62208 7.59144 3.7703 7.58488 3.8119 7.60842C3.88479 7.6113 3.80876 7.44158 3.88109 7.41883C3.97808 7.47887 3.97353 7.31147 3.95351 7.25984C3.96291 7.14247 3.96953 7.01415 4.02786 6.90784C4.08986 6.77754 4.14725 6.9609 4.07784 7.01249C4.03841 7.1323 3.98102 7.28223 4.07067 7.39365C4.09651 7.39944 4.11772 7.46206 4.15118 7.48131C4.18463 7.50056 4.23033 7.47643 4.23867 7.41945C4.28158 7.24787 4.25996 7.06336 4.32124 6.89649C4.36449 6.8448 4.42415 6.88815 4.45097 6.93569C4.53685 7.03538 4.59721 7.16001 4.70117 7.24216C4.79583 7.28645 4.87955 7.35345 4.92317 7.45091C4.92259 7.52609 5.13672 7.53762 5.07273 7.45405C5.01134 7.37269 5.05185 7.29131 5.11403 7.23721C5.14734 7.24542 5.1375 7.18578 5.11138 7.20937C5.06957 7.19951 5.0669 7.12298 5.12501 7.15936C5.2229 7.19096 5.11738 7.08852 5.082 7.08538C4.99924 7.03408 4.90415 6.97506 4.86346 6.88588C4.9712 6.88698 5.08304 6.94509 5.19313 6.90905C5.28138 6.86371 5.37089 6.91283 5.40171 6.99062C5.46993 6.97973 5.44085 6.91132 5.40171 6.88854C5.45161 6.86794 5.48612 6.82525 5.42562 6.7876C5.39366 6.7459 5.46846 6.67478 5.37652 6.67774C5.37953 6.60751 5.35188 6.54324 5.27532 6.51898C5.19864 6.45404 4.9736 6.61465 4.98012 6.46827C4.95745 6.3886 5.07154 6.45763 5.10342 6.41789C5.13636 6.3339 4.94644 6.3421 5.00911 6.27698C5.05004 6.25063 5.24211 6.21278 5.09148 6.18458C5.01631 6.20525 4.95179 6.18995 4.89263 6.15274C4.83871 6.24293 4.68474 6.10376 4.71217 6.26411C4.69111 6.32453 4.55348 6.48151 4.51624 6.36124C4.54792 6.26698 4.71097 6.23616 4.66041 6.10906C4.65265 6.02972 4.58687 6.12286 4.55588 6.11694C4.54019 6.06756 4.60334 6.00934 4.64736 5.99762C4.7347 6.0648 4.73735 5.91287 4.82041 5.92523C4.88106 5.91176 4.80083 5.88574 4.78391 5.87433C4.80053 5.82994 4.89363 5.80725 4.80234 5.7687C4.72179 5.70894 4.66209 5.82819 4.59565 5.83455C4.53188 5.76256 4.65354 5.72796 4.68713 5.69005C4.68893 5.66179 4.61619 5.68152 4.63807 5.6569C4.65708 5.62292 4.78589 5.62039 4.72557 5.5694C4.63473 5.53822 4.5175 5.54599 4.43034 5.5864C4.37542 5.60417 4.35927 5.72834 4.31193 5.72319C4.28968 5.66792 4.31921 5.5589 4.24303 5.54291ZM4.67257 6.75598C4.74179 6.74426 4.67404 6.8611 4.64075 6.85939C4.6437 6.8174 4.54064 6.82145 4.60458 6.78487C4.62531 6.77148 4.64842 6.76126 4.67257 6.75598Z" fill="#1BA049"/>
</svg>
