<svg xmlns="http://www.w3.org/2000/svg" viewBox="0 0 24 24">
  <defs/>
  <path d="M8.076 13.844a.316.316 0 01-.037.393L5.268 17.01a.292.292 0 01-.435-.02 8.609 8.609 0 01-1.831-4.42.292.292 0 01.293-.321h3.92c.147 0 .272.108.304.252.107.485.298.938.557 1.344zM8.04 8.958a.316.316 0 01.036.394c-.26.405-.45.859-.557 1.344a.316.316 0 01-.304.252h-3.92a.292.292 0 01-.293-.322 8.609 8.609 0 011.83-4.419.292.292 0 01.436-.02l2.771 2.771zM10.948 7.215a.316.316 0 01-.253.304 4.153 4.153 0 00-1.343.557.316.316 0 01-.394-.037L6.187 5.268a.292.292 0 01.02-.435 8.609 8.609 0 014.42-1.831.292.292 0 01.32.293v3.92zM14.237 8.04a.316.316 0 01-.393.036 4.153 4.153 0 00-1.344-.557.316.316 0 01-.252-.304v-3.92c0-.174.148-.313.322-.293a8.609 8.609 0 014.419 1.83.292.292 0 01.02.436l-2.772 2.771zM15.981 10.948a.316.316 0 01-.304-.252 4.152 4.152 0 00-.557-1.344.316.316 0 01.037-.394l2.771-2.771a.292.292 0 01.435.02 8.609 8.609 0 011.83 4.42.292.292 0 01-.292.32h-3.92zM15.157 14.237a.316.316 0 01-.037-.393c.26-.406.45-.859.557-1.344a.316.316 0 01.304-.252h3.92c.174 0 .312.148.293.322a8.61 8.61 0 01-1.83 4.419.292.292 0 01-.436.02l-2.771-2.772zM12.248 15.981c0-.148.108-.272.252-.304a4.153 4.153 0 001.344-.557.316.316 0 01.393.037l2.772 2.771a.292.292 0 01-.02.435 8.61 8.61 0 01-4.42 1.83.292.292 0 01-.321-.292v-3.92zM10.948 15.981a.316.316 0 00-.253-.304 4.15 4.15 0 01-1.343-.557.316.316 0 00-.394.037l-2.771 2.771a.292.292 0 00.02.435 8.61 8.61 0 004.42 1.83.292.292 0 00.32-.292v-3.92z"/>
</svg>
