<svg xmlns="http://www.w3.org/2000/svg" viewBox="0 0 24 24">
  <path d="M4.25 6.655c0-.362.291-.655.65-.655h5.035c.36 0 .65.293.65.655a.653.653 0 0 1-.65.656H4.9a.653.653 0 0 1-.65-.656Zm0 5.345c0-.362.291-.655.65-.655h5.035c.36 0 .65.293.65.655a.653.653 0 0 1-.65.655H4.9A.653.653 0 0 1 4.25 12Zm.65 4.689a.653.653 0 0 0-.65.655c0 .362.291.656.65.656h5.035c.36 0 .65-.294.65-.655a.653.653 0 0 0-.65-.656H4.9Zm8.503-10.034c0-.362.292-.655.651-.655H19.1c.36 0 .651.293.651.655a.653.653 0 0 1-.651.655h-5.045a.653.653 0 0 1-.65-.655Zm0 5.343c0-.362.292-.655.651-.655H19.1c.36 0 .651.293.651.655a.653.653 0 0 1-.651.655h-5.045a.653.653 0 0 1-.65-.655Zm.651 4.687a.653.653 0 0 0-.65.656c0 .362.29.655.65.655H19.1c.36 0 .651-.293.651-.655a.653.653 0 0 0-.651-.656h-5.045Z"/>
</svg>
