<svg xmlns="http://www.w3.org/2000/svg" viewBox="0 0 24 24">
  <defs/>
  <path fill-rule="evenodd" d="M8.7 12.607a.65.65 0 100-1.3H7.325V9.932a.65.65 0 00-1.3 0v1.375H4.65a.65.65 0 100 1.3h1.375v1.375a.65.65 0 101.3 0v-1.375H8.7zm4.948 5.98h2.683a2.35 2.35 0 002.35-2.35V7.65a2.35 2.35 0 00-2.35-2.35h-2.683v13.288zM12.348 5.3H9.355a2.03 2.03 0 00-2.03 2.03.65.65 0 01-1.3 0A3.33 3.33 0 019.354 4h6.976a3.65 3.65 0 013.65 3.65v8.588a3.65 3.65 0 01-3.65 3.65H9.319a3.294 3.294 0 01-3.295-3.294.65.65 0 111.3 0c0 1.101.893 1.994 1.995 1.994h3.03V5.3z"/>
</svg>
