<svg xmlns="http://www.w3.org/2000/svg" viewBox="0 0 24 24">
  <defs/>
  <path fill-rule="evenodd" d="M15.3 12.719a.65.65 0 110-1.3h1.375v-1.375a.65.65 0 011.3 0v1.375h1.375a.65.65 0 010 1.3h-1.375v1.375a.65.65 0 11-1.3 0v-1.375H15.3zM10.352 18.7H7.669a2.35 2.35 0 01-2.35-2.35V7.762a2.35 2.35 0 012.35-2.35h2.683V18.7zm1.3-13.288h2.994a2.03 2.03 0 012.03 2.03.65.65 0 001.3 0 3.33 3.33 0 00-3.33-3.33H7.668a3.65 3.65 0 00-3.65 3.65v8.588A3.65 3.65 0 007.67 20h7.013a3.294 3.294 0 003.294-3.294.65.65 0 10-1.3 0 1.994 1.994 0 01-1.994 1.994h-3.03V5.412z"/>
</svg>
