<svg width="24" height="24" viewBox="0 0 24 24" fill="none" xmlns="http://www.w3.org/2000/svg">
<rect y="3" width="24" height="18" rx="2" fill="white"/>
<path fill-rule="evenodd" clip-rule="evenodd" d="M22 4H2C1.44772 4 1 4.44772 1 5V19C1 19.5523 1.44772 20 2 20H22C22.5523 20 23 19.5523 23 19V5C23 4.44771 22.5523 4 22 4ZM2 3C0.895431 3 0 3.89543 0 5V19C0 20.1046 0.89543 21 2 21H22C23.1046 21 24 20.1046 24 19V5C24 3.89543 23.1046 3 22 3H2Z" fill="#D6D8DE"/>
<path fill-rule="evenodd" clip-rule="evenodd" d="M0 7.5H24V5C24 3.89543 23.1046 3 22 3H2C0.89543 3 0 3.89543 0 5V7.5Z" fill="#FCCA33"/>
<path fill-rule="evenodd" clip-rule="evenodd" d="M0 16.5H24V12H0V16.5Z" fill="#F64E4E"/>
<path fill-rule="evenodd" clip-rule="evenodd" d="M0 19C0 20.1046 0.895431 21 2 21H22C23.1046 21 24 20.1046 24 19V16.5H0V19Z" fill="#6FA3FF"/>
<path d="M0.672309 3.50424C0.259869 3.8706 0 4.40496 0 5.00001V19C0 19.5951 0.259869 20.1294 0.672309 20.4958L12 12L0.672309 3.50424Z" fill="#1BA049"/>
<path d="M4.57139 15.4286C4.86736 15.4286 5.15458 15.3911 5.42854 15.3206C3.94977 14.94 2.85711 13.5976 2.85711 12C2.85711 10.4024 3.94977 9.06007 5.42854 8.67946C5.15458 8.60894 4.86737 8.57144 4.57139 8.57144C2.67785 8.57144 1.14282 10.1065 1.14282 12C1.14282 13.8936 2.67785 15.4286 4.57139 15.4286Z" fill="white"/>
<path d="M6.85711 9.7143C6.85711 10.0299 6.60127 10.2857 6.28568 10.2857C5.97009 10.2857 5.71425 10.0299 5.71425 9.7143C5.71425 9.39871 5.97009 9.14287 6.28568 9.14287C6.60127 9.14287 6.85711 9.39871 6.85711 9.7143Z" fill="white"/>
<path d="M6.28568 12.5714C6.60127 12.5714 6.85711 12.3156 6.85711 12C6.85711 11.6844 6.60127 11.4286 6.28568 11.4286C5.97009 11.4286 5.71425 11.6844 5.71425 12C5.71425 12.3156 5.97009 12.5714 6.28568 12.5714Z" fill="white"/>
<path d="M6.85711 14.2857C6.85711 14.6013 6.60127 14.8572 6.28568 14.8572C5.97009 14.8572 5.71425 14.6013 5.71425 14.2857C5.71425 13.9701 5.97009 13.7143 6.28568 13.7143C6.60127 13.7143 6.85711 13.9701 6.85711 14.2857Z" fill="white"/>
</svg>
