<svg width="24" height="24" viewBox="0 0 24 24" fill="none" xmlns="http://www.w3.org/2000/svg">
<rect y="3" width="24" height="18" rx="2" fill="#6FA3FF"/>
<path d="M0 14.326L22.2077 3.01065C23.2147 3.11454 24 3.96556 24 5V9.79337L2.00575 21H2C0.89543 21 0 20.1046 0 19V14.326Z" fill="#FCCA33"/>
<path d="M0 15.5613L23.4439 3.61609C23.7883 3.97537 24 4.46297 24 5.00001V8.46336L0.572147 20.4005C0.218242 20.0397 0 19.5453 0 19V15.5613Z" fill="#F64E4E"/>
<path fill-rule="evenodd" clip-rule="evenodd" d="M4 8.54284L2.32061 9.74003L2.94025 7.77289L1.28269 6.54565L3.34503 6.52708L4 4.57141L4.65496 6.52708L6.7173 6.54565L5.05974 7.77289L5.67938 9.74003L4 8.54284Z" fill="#FCCA33"/>
</svg>
