<svg width="24" height="24" viewBox="0 0 24 24" fill="none" xmlns="http://www.w3.org/2000/svg">
<path fill-rule="evenodd" clip-rule="evenodd" d="M16.2724 3.00003L0.440201 19.3948C0.164794 19.0521 0 18.6167 0 18.1429V5C0 3.89892 0.889791 3.00565 1.98955 3.00003H16.2724Z" fill="#1BA049"/>
<path fill-rule="evenodd" clip-rule="evenodd" d="M5.71431 20.1429H22C23.1046 20.1429 24 19.2474 24 18.1429V5.00001C24 4.50899 23.8231 4.05929 23.5294 3.71121L7.66159 20.1429L5.71431 20.1429Z" fill="#F64E4E"/>
<path d="M0.440201 19.3948L16.2725 3H22C22.6135 3 23.1626 3.27628 23.5294 3.71122L7.66159 20.1429H1.99999C1.36929 20.1429 0.806768 19.8509 0.440201 19.3948Z" fill="#FCCA33"/>
</svg>
