<svg width="24" height="24" viewBox="0 0 24 24" fill="none" xmlns="http://www.w3.org/2000/svg">
<rect y="3" width="24" height="18" rx="2" fill="#022D9A"/>
<path fill-rule="evenodd" clip-rule="evenodd" d="M17 9.25C16.9866 9.25 16.9732 9.2501 16.9599 9.2503C16.6003 9.25561 16.3043 8.98014 16.2988 8.635C16.2932 8.28986 16.5802 8.00576 16.9398 8.00044C16.9599 8.00015 16.9799 8 17 8C17.0201 8 17.0401 8.00015 17.0602 8.00044C17.4198 8.00576 17.7068 8.28986 17.7012 8.635C17.6957 8.98014 17.3997 9.25561 17.0401 9.2503C17.0268 9.2501 17.0134 9.25 17 9.25ZM18.1052 8.74761C18.2906 8.45187 18.6907 8.35643 18.9988 8.53443C19.033 8.55416 19.0668 8.57436 19.1003 8.59504C19.4027 8.78188 19.49 9.16862 19.2954 9.45887C19.1007 9.74911 18.6978 9.83294 18.3954 9.64611C18.3729 9.63221 18.3502 9.61863 18.3272 9.6054C18.0191 9.42739 17.9197 9.04334 18.1052 8.74761ZM15.8948 8.74761C16.0803 9.04334 15.9809 9.42739 15.6728 9.6054C15.6498 9.61863 15.6271 9.63221 15.6046 9.64611C15.3022 9.83294 14.8993 9.74911 14.7046 9.45887C14.51 9.16862 14.5973 8.78188 14.8997 8.59505C14.9332 8.57437 14.967 8.55416 15.0011 8.53443C15.3093 8.35643 15.7094 8.45187 15.8948 8.74761ZM19.5775 9.75441C19.8918 9.58665 20.2883 9.6952 20.4631 9.99687C20.4822 10.0299 20.5009 10.0632 20.5191 10.0968C20.685 10.4031 20.5608 10.7804 20.2417 10.9396C19.9226 11.0989 19.5295 10.9797 19.3636 10.6734C19.351 10.6502 19.3381 10.6272 19.3249 10.6044C19.1501 10.3027 19.2632 9.92217 19.5775 9.75441ZM14.4225 9.75441C14.7368 9.92217 14.8499 10.3027 14.6751 10.6044C14.6619 10.6272 14.649 10.6502 14.6364 10.6734C14.4705 10.9797 14.0774 11.0989 13.7583 10.9396C13.4392 10.7804 13.315 10.4031 13.4809 10.0968C13.4991 10.0632 13.5178 10.0299 13.5369 9.99687C13.7117 9.6952 14.1082 9.58665 14.4225 9.75441ZM20.3398 11.3269C20.6994 11.3223 20.9948 11.5984 20.9996 11.9436C20.9999 11.9623 21 11.9812 21 12C21 12.0188 20.9999 12.0377 20.9996 12.0564C20.9948 12.4016 20.6994 12.6777 20.3398 12.6731C19.9802 12.6685 19.6926 12.385 19.6974 12.0398L19.6977 12L19.6974 11.9602C19.6926 11.615 19.9802 11.3315 20.3398 11.3269ZM13.6602 11.3269C14.0198 11.3315 14.3074 11.615 14.3026 11.9602L14.3023 12L14.3026 12.0398C14.3074 12.385 14.0198 12.6685 13.6602 12.6731C13.3006 12.6777 13.0052 12.4016 13.0004 12.0564C13.0001 12.0377 13 12.0188 13 12C13 11.9812 13.0001 11.9623 13.0004 11.9436C13.0052 11.5984 13.3006 11.3223 13.6602 11.3269ZM20.2417 13.0604C20.5608 13.2196 20.685 13.5969 20.5191 13.9032C20.5009 13.9368 20.4822 13.9701 20.4631 14.0031C20.2883 14.3048 19.8918 14.4134 19.5775 14.2456C19.2632 14.0778 19.1501 13.6973 19.3249 13.3956C19.3381 13.3728 19.351 13.3498 19.3636 13.3266C19.5295 13.0203 19.9226 12.9011 20.2417 13.0604ZM13.7583 13.0604C14.0774 12.9011 14.4705 13.0203 14.6364 13.3266C14.649 13.3498 14.6619 13.3728 14.6751 13.3956C14.8499 13.6973 14.7368 14.0778 14.4225 14.2456C14.1082 14.4134 13.7117 14.3048 13.5369 14.0031C13.5178 13.9701 13.4991 13.9368 13.4809 13.9032C13.315 13.5969 13.4392 13.2196 13.7583 13.0604ZM19.2954 14.5411C19.49 14.8314 19.4027 15.2181 19.1003 15.405C19.0668 15.4256 19.033 15.4458 18.9989 15.4656C18.6907 15.6436 18.2906 15.5481 18.1052 15.2524C17.9197 14.9567 18.0191 14.5726 18.3272 14.3946C18.3502 14.3814 18.3729 14.3678 18.3954 14.3539C18.6978 14.1671 19.1007 14.2509 19.2954 14.5411ZM14.7046 14.5411C14.8993 14.2509 15.3022 14.1671 15.6046 14.3539C15.6271 14.3678 15.6498 14.3814 15.6728 14.3946C15.9809 14.5726 16.0803 14.9567 15.8948 15.2524C15.7094 15.5481 15.3093 15.6436 15.0011 15.4656C14.967 15.4458 14.9332 15.4256 14.8997 15.405C14.5973 15.2181 14.51 14.8314 14.7046 14.5411ZM16.2988 15.365C16.3043 15.0199 16.6003 14.7444 16.9599 14.7497C16.9732 14.7499 16.9866 14.75 17 14.75C17.0134 14.75 17.0268 14.7499 17.0401 14.7497C17.3997 14.7444 17.6957 15.0199 17.7012 15.365C17.7068 15.7101 17.4198 15.9942 17.0602 15.9996C17.0401 15.9999 17.0201 16 17 16C16.9799 16 16.9599 15.9999 16.9398 15.9996C16.5802 15.9942 16.2932 15.7101 16.2988 15.365Z" fill="white"/>
<path d="M2.03252e-05 9.60929L3.33333 7.22835V6.73519L0.22739 4.07296C0.331861 3.87361 0.468974 3.69405 0.63163 3.5414L4 6.42857V7.57143L2.03252e-05 10.4286V9.60929Z" fill="white"/>
<path d="M10.9524 3V3.39989C10.9524 3.72284 10.7964 4.02591 10.5336 4.21362L6.95238 6.77165V7.2648L10.3317 10.1614C10.9348 10.6783 10.5692 11.6667 9.77485 11.6667C9.59651 11.6667 9.42263 11.6109 9.27751 11.5073L5.50064 8.80952H4.76263L2.03252e-05 11.7862V11L4.57143 8.14286H5.71429L9.665 10.9648C9.69706 10.9877 9.73546 11 9.77485 11C9.9503 11 10.031 10.7817 9.89784 10.6675L6.28571 7.57143V6.42857L10.1461 3.67113C10.2337 3.60856 10.2857 3.50754 10.2857 3.39989V3L10.9524 3Z" fill="white"/>
<path d="M9.02784 3L10.2857 3L5.71429 5.85714H4.57143L0.970449 3.28501C1.20126 3.14615 1.4624 3.05257 1.74157 3.01655L4.78507 5.19048H5.52309L9.02784 3Z" fill="white"/>
<path fill-rule="evenodd" clip-rule="evenodd" d="M0 5.85714V8.14286H4V10.9048C4 11.273 4.29848 11.5714 4.66667 11.5714H5.61905C5.98724 11.5714 6.28571 11.273 6.28571 10.9048V8.14286H10.1905C10.5587 8.14286 10.8571 7.84438 10.8571 7.47619V6.52381C10.8571 6.15562 10.5587 5.85714 10.1905 5.85714H6.28571V3H4V5.85714H0Z" fill="white"/>
<path d="M0.620846 3.53215C0.724084 3.43571 0.837716 3.35017 0.959804 3.27741L4 5.44898V5.85714H3.33333L0.620846 3.53215Z" fill="#F64E4E"/>
<path d="M6.28571 5.5L10.2857 3V3.39989C10.2857 3.50754 10.2337 3.60856 10.1461 3.67113L7.08571 5.85714H6.28571V5.5Z" fill="#F64E4E"/>
<path d="M6.28571 8.14286H6.95238L9.89784 10.6675C10.031 10.7817 9.9503 11 9.77485 11C9.73546 11 9.69706 10.9877 9.665 10.9648L6.28571 8.55102V8.14286Z" fill="#F64E4E"/>
<path d="M4 8.14286V8.5L2.03252e-05 11L0 10.4286L3.2 8.14286H4Z" fill="#F64E4E"/>
<path d="M4.57143 6.42857H0V7.57143H4.57143V11H5.71429V7.57143H10.2857V6.42857H5.71429V3H4.57143V6.42857Z" fill="#F64E4E"/>
</svg>
