<svg xmlns="http://www.w3.org/2000/svg" viewBox="0 0 24 24">
  <path d="M11 6Zm0 0v-.001V6m0 0 .008.007L11.001 6Zm-.55-.347a.646.646 0 0 0-.1.347c0 .193.084.366.218.485l2.74 2.613a.65.65 0 0 0 .898-.941l-.9-.857h-.681v-.65l.448-.47.494.47H15A2.35 2.35 0 0 1 17.35 9v3.713a.65.65 0 1 0 1.3 0V9A3.65 3.65 0 0 0 15 5.35h-1.403l-.507.475-2.64-.172Zm0 0a.653.653 0 0 1 .111-.133l-.11.133ZM11 6ZM6.507 8.295 6 8.407l-.507-.112a2.351 2.351 0 1 1 1.014 0ZM19.3 17.17h-.65v-1.89a.65.65 0 1 0-1.3 0v1.89h-1.89a.65.65 0 1 0 0 1.3h1.89v1.889a.65.65 0 1 0 1.3 0v-1.89h1.89a.65.65 0 0 0 0-1.3H19.3Z"/>
</svg>
