<svg xmlns="http://www.w3.org/2000/svg" viewBox="0 0 24 24">
  <path d="M14.232 2.975a.65.65 0 0 1-.03.919L12.645 5.35H15A3.65 3.65 0 0 1 18.65 9v3.713a.65.65 0 1 1-1.3 0V9A2.35 2.35 0 0 0 15 6.65h-2.375l1.58 1.507a.65.65 0 0 1-.896.941l-2.741-2.613a.648.648 0 0 1-.007-.965l2.752-2.575a.65.65 0 0 1 .919.03Z"/>
  <path fill-rule="evenodd" d="M5.354 8.93a3.001 3.001 0 1 1 1.292 0A.657.657 0 0 1 6.65 9v11.359a.65.65 0 1 1-1.3 0V9c0-.024.001-.047.004-.07ZM7.7 6a1.7 1.7 0 1 1-3.4 0 1.7 1.7 0 0 1 3.4 0Z"/>
  <path d="M18 14.63a.65.65 0 0 1 .65.65v1.89h1.89a.65.65 0 0 1 0 1.3h-1.89v1.89a.65.65 0 1 1-1.3 0v-1.89h-1.89a.65.65 0 0 1 0-1.3h1.89v-1.89a.65.65 0 0 1 .65-.65Z"/>
</svg>
