<svg xmlns="http://www.w3.org/2000/svg" viewBox="0 0 24 24">
  <defs/>
  <path fill-rule="evenodd" d="M6 19a3 3 0 01-3-3V8a3 3 0 013-3h12a3 3 0 013 3v8a3 3 0 01-3 3H6zM19.7 8A1.7 1.7 0 0018 6.3H6A1.7 1.7 0 004.3 8v.32a.65.65 0 01.195-.03H19.7V8zM4.3 16V9.56a.65.65 0 00.195.03H19.7V16a1.7 1.7 0 01-1.7 1.7H6A1.7 1.7 0 014.3 16zm8.89-4.983a.65.65 0 01.46-.19h1.564a2.165 2.165 0 110 4.33H14.3v.785a.65.65 0 11-1.3 0v-4.466a.65.65 0 01.19-.46zm1.11 2.84h.914a.865.865 0 100-1.73H14.3v1.73zm-5.427.508H8.43v1.583a.65.65 0 01-1.3 0v-4.466a.65.65 0 111.3 0v1.583h.5a.666.666 0 01.045-.061l1.625-1.94a.65.65 0 01.997.835l-1.55 1.85 1.493 1.781a.65.65 0 01-.996.835l-1.625-1.939a.653.653 0 01-.046-.061z"/>
</svg>
