<svg width="24" height="24" viewBox="0 0 24 24" fill="none" xmlns="http://www.w3.org/2000/svg">
<rect y="3" width="24" height="18" rx="2" fill="white"/>
<path fill-rule="evenodd" clip-rule="evenodd" d="M22 4H2C1.44772 4 1 4.44772 1 5V19C1 19.5523 1.44772 20 2 20H22C22.5523 20 23 19.5523 23 19V5C23 4.44771 22.5523 4 22 4ZM2 3C0.895431 3 0 3.89543 0 5V19C0 20.1046 0.89543 21 2 21H22C23.1046 21 24 20.1046 24 19V5C24 3.89543 23.1046 3 22 3H2Z" fill="#D6D8DE"/>
<path fill-rule="evenodd" clip-rule="evenodd" d="M0 9H24V5C24 3.89543 23.1046 3 22 3H2C0.89543 3 0 3.89543 0 5V9Z" fill="#F64E4E"/>
<path fill-rule="evenodd" clip-rule="evenodd" d="M0 19C0 20.1046 0.895431 21 2 21H22C23.1046 21 24 20.1046 24 19V15H0V19Z" fill="#022D9A"/>
<path d="M10.2857 9.00003H9.71431L9.14288 10.2H10.2857V9.00003Z" fill="#F64E4E"/>
<path d="M11.4286 9.00003H12.5715V10.2H11.4286V9.00003Z" fill="#F64E4E"/>
<path d="M13.7143 9.00003H14.2857L14.8572 10.2H13.7143V9.00003Z" fill="#F64E4E"/>
<path d="M10.2857 10.2L11.4286 10.2L11.4286 11.4H12.5714V12.6H11.4286V13.8H10.2858V12.6L11.4286 12.6V11.4L10.2858 11.4L10.2857 10.2Z" fill="#F64E4E"/>
<path d="M13.7143 10.2H12.5715L12.5714 11.4L13.7143 11.4V12.6L12.5714 12.6L12.5715 13.8H13.7143L13.7143 12.6L14.8572 12.6V11.4L13.7143 11.4L13.7143 10.2Z" fill="#F64E4E"/>
<path d="M10.2858 12.6V11.4L9.14288 11.4V12.6L10.2858 12.6Z" fill="#F64E4E"/>
<path d="M10.2857 15.0001L10.2858 13.8L9.14288 13.8001V15.0001H10.2857Z" fill="#F64E4E"/>
<path d="M11.4286 13.8H12.5715L12.5714 15.0001H11.4286V16.2001H10.2858L10.2857 15.0001H11.4286V13.8Z" fill="#F64E4E"/>
<path d="M14.8572 13.8001L13.7143 13.8L13.7143 15.0001L12.5714 15.0001L12.5715 16.2001H13.7143L13.7143 15.0001L14.8572 15.0001V13.8001Z" fill="#F64E4E"/>
<g opacity="0.5">
<path d="M10.8571 7.20004L10.2857 7.80004V9.00004H11.4286V7.80004L10.8571 7.20004Z" fill="#022D9A"/>
<path d="M13.1428 7.20004L12.5714 7.80004V9.00004H13.7143V7.80004L13.1428 7.20004Z" fill="#022D9A"/>
</g>
<g opacity="0.5">
<path d="M9.14288 7.80004L9.71431 7.20004L10.2857 7.80004V9.00004H9.14288V7.80004Z" fill="#0062FF"/>
<path d="M11.4286 7.80004L12 7.20004L12.5715 7.80004V9.00004H11.4286V7.80004Z" fill="#0062FF"/>
<path d="M14.2857 7.20004L13.7143 7.80004V9.00004H14.8572V7.80004L14.2857 7.20004Z" fill="#0062FF"/>
</g>
</svg>
