<svg width="24" height="24" viewBox="0 0 24 24" fill="none" xmlns="http://www.w3.org/2000/svg">
<rect y="3" width="24" height="18" rx="2" fill="#19BFBF"/>
<path fill-rule="evenodd" clip-rule="evenodd" d="M8.57143 17.4696C8.57143 17.4424 8.57477 17.4152 8.58138 17.3888L9.14286 15.1429L9.69074 12.9513C9.70612 12.8898 9.70364 12.8252 9.68359 12.7651L9.18652 11.2738C9.15856 11.19 9.09843 11.1206 9.01936 11.0811L8.18426 10.6636C8.07133 10.6071 8 10.4917 8 10.3654V8.3644C8 8.31266 8.01205 8.26162 8.03519 8.21533L8.57143 7.14286L9.05073 6.18426C9.10719 6.07133 9.22261 6 9.34887 6H12.2381C12.4222 6 12.5714 6.14924 12.5714 6.33333V6.80952C12.5714 6.99362 12.7207 7.14286 12.9048 7.14286H13.381C13.565 7.14286 13.7143 7.2921 13.7143 7.47619V8.0797C13.7143 8.20596 13.7856 8.32138 13.8985 8.37785L15.8157 9.33644C15.9287 9.3929 16 9.50833 16 9.63458V10.4927C16 10.5445 15.988 10.5955 15.9648 10.6418L15.4682 11.6351C15.4422 11.687 15.4032 11.7312 15.3549 11.7634L13.7879 12.808C13.7397 12.8402 13.7006 12.8844 13.6747 12.9363L12.611 15.0637C12.5851 15.1156 12.546 15.1598 12.4978 15.192L10.9308 16.2366C10.8825 16.2688 10.8435 16.313 10.8176 16.3649L9.80642 18.3872C9.74995 18.5001 9.63453 18.5714 9.50827 18.5714H8.90476C8.72067 18.5714 8.57143 18.4222 8.57143 18.2381V17.4696Z" fill="white"/>
</svg>
