<svg width="24" height="24" viewBox="0 0 24 24" fill="none" xmlns="http://www.w3.org/2000/svg">
<rect y="3" width="24" height="18" rx="2" fill="white"/>
<path fill-rule="evenodd" clip-rule="evenodd" d="M22 4H2C1.44772 4 1 4.44772 1 5V19C1 19.5523 1.44772 20 2 20H22C22.5523 20 23 19.5523 23 19V5C23 4.44771 22.5523 4 22 4ZM2 3C0.895431 3 0 3.89543 0 5V19C0 20.1046 0.89543 21 2 21H22C23.1046 21 24 20.1046 24 19V5C24 3.89543 23.1046 3 22 3H2Z" fill="#D6D8DE"/>
<path fill-rule="evenodd" clip-rule="evenodd" d="M0 6.5H24V5C24 3.89543 23.1046 3 22 3H2C0.89543 3 0 3.89543 0 5V6.5Z" fill="#022D9A"/>
<path fill-rule="evenodd" clip-rule="evenodd" d="M0 13.5H24V10H0V13.5Z" fill="#022D9A"/>
<path fill-rule="evenodd" clip-rule="evenodd" d="M0 19C0 20.1046 0.895431 21 2 21H22C23.1046 21 24 20.1046 24 19V17H0V19Z" fill="#022D9A"/>
<path d="M0.657344 3.51767C0.253593 3.8836 0 4.41219 0 5.00001V19C0 19.5878 0.253593 20.1164 0.657344 20.4824L11.4286 12L0.657344 3.51767Z" fill="#F64E4E"/>
<path fill-rule="evenodd" clip-rule="evenodd" d="M4.00001 13.3204L2.6565 14.3416L3.16632 12.6844L1.82617 11.6584L3.48476 11.6554L4.00001 10L4.51526 11.6554L6.17385 11.6584L4.8337 12.6844L5.34352 14.3416L4.00001 13.3204Z" fill="white"/>
</svg>
