<svg width="24" height="24" viewBox="0 0 24 24" fill="none" xmlns="http://www.w3.org/2000/svg">
<rect y="3" width="24" height="18" rx="2" fill="white"/>
<path fill-rule="evenodd" clip-rule="evenodd" d="M22 4H2C1.44772 4 1 4.44772 1 5V19C1 19.5523 1.44772 20 2 20H22C22.5523 20 23 19.5523 23 19V5C23 4.44771 22.5523 4 22 4ZM2 3C0.895431 3 0 3.89543 0 5V19C0 20.1046 0.89543 21 2 21H22C23.1046 21 24 20.1046 24 19V5C24 3.89543 23.1046 3 22 3H2Z" fill="#D6D8DE"/>
<path fill-rule="evenodd" clip-rule="evenodd" d="M17.1428 6.28573C17.4541 6.13012 17.77 6.48793 17.5769 6.77746L17.2005 7.34213C17.1624 7.3992 17.1135 7.44818 17.0564 7.48623L15.4835 8.53483C15.447 8.55918 15.4129 8.58708 15.3819 8.61812L15.3285 8.67147C15.0682 8.93182 15.0682 9.35393 15.3285 9.61428L15.5286 9.81433C15.7889 10.0747 15.7889 10.4968 15.5286 10.7571L15.1969 11.0888C14.994 11.2917 14.684 11.342 14.4274 11.2137L14.3106 11.1553C13.9812 10.9906 13.5808 11.1241 13.4161 11.4534L13.2663 11.753C13.1873 11.9112 13.0486 12.0314 12.8809 12.0873L11.5312 12.5372C11.4632 12.5599 11.392 12.5714 11.3204 12.5714H10.6977C10.4452 12.5714 10.2144 12.7141 10.1014 12.94L10.0124 13.118C9.84776 13.4473 9.44731 13.5808 9.11799 13.4162L7.52533 12.6198C7.46124 12.5878 7.40273 12.5456 7.35206 12.4949L6.48097 11.6239C6.35594 11.4988 6.28571 11.3293 6.28571 11.1524V10.6898C6.28571 10.4666 6.46661 10.2857 6.68977 10.2857C6.79693 10.2857 6.8997 10.2432 6.97548 10.1674L7.80473 9.33814C7.92975 9.21311 8.09932 9.14287 8.27613 9.14287H8.66234C8.9493 9.14287 9.20406 8.95925 9.2948 8.68703L9.52817 7.98691C9.63449 7.66795 9.96168 7.47807 10.2914 7.54401L12.4244 7.97062C12.5212 7.98998 12.6211 7.9876 12.7169 7.96366L14.7861 7.44634C14.8333 7.43454 14.8791 7.41761 14.9226 7.39586L17.1428 6.28573Z" fill="#FF5C22"/>
<path fill-rule="evenodd" clip-rule="evenodd" d="M12 17.1429C12.3156 17.1429 12.5714 16.8871 12.5714 16.5715C12.5714 16.2559 12.3156 16 12 16C11.6844 16 11.4286 16.2559 11.4286 16.5715C11.4286 16.8871 11.6844 17.1429 12 17.1429Z" fill="#37383C"/>
<g opacity="0.75">
<path fill-rule="evenodd" clip-rule="evenodd" d="M16.2981 13.6895C16.6275 13.8541 16.7609 14.2546 16.5963 14.5839C16.221 15.3345 15.5083 15.8448 14.9736 16.1503C14.695 16.3095 14.4377 16.4282 14.2498 16.5073C14.1554 16.547 14.0774 16.5773 14.0216 16.5981C13.9936 16.6085 13.9711 16.6165 13.9548 16.6222L13.9351 16.6291L13.9289 16.6312L13.9267 16.632L13.9254 16.6324C13.9254 16.6324 13.9251 16.6325 13.7181 16.0114L13.9254 16.6324C13.5761 16.7488 13.1983 16.5601 13.0818 16.2108C12.9654 15.8615 13.1542 15.484 13.5035 15.3676L13.7142 15.9999C13.5035 15.3676 13.5035 15.3676 13.5035 15.3676L13.5125 15.3644C13.5216 15.3612 13.5365 15.3559 13.5566 15.3484C13.5967 15.3335 13.6571 15.3101 13.7324 15.2785C13.8837 15.2147 14.0907 15.1191 14.3121 14.9926C14.7775 14.7267 15.2076 14.3798 15.4037 13.9876C15.5684 13.6583 15.9688 13.5248 16.2981 13.6895Z" fill="#37383C"/>
<path fill-rule="evenodd" clip-rule="evenodd" d="M7.70186 13.6895C7.37254 13.8541 7.23906 14.2546 7.40372 14.5839C7.77905 15.3345 8.49174 15.8448 9.02639 16.1503C9.30503 16.3095 9.5623 16.4282 9.75023 16.5073C9.84461 16.547 9.92262 16.5773 9.97845 16.5981C10.0064 16.6085 10.0289 16.6165 10.0452 16.6222L10.0649 16.6291L10.0712 16.6312L10.0733 16.632L10.0746 16.6324C10.0746 16.6324 10.0749 16.6325 10.2819 16.0114L10.0746 16.6324C10.4239 16.7488 10.8017 16.5601 10.9182 16.2108C11.0346 15.8615 10.8458 15.484 10.4965 15.3676L10.2858 15.9999C10.4965 15.3676 10.4965 15.3676 10.4965 15.3676L10.4875 15.3644C10.4784 15.3612 10.4635 15.3559 10.4434 15.3484C10.4033 15.3335 10.3429 15.3101 10.2676 15.2785C10.1163 15.2147 9.90927 15.1191 9.68791 14.9926C9.22255 14.7267 8.79239 14.3798 8.59629 13.9876C8.43163 13.6583 8.03118 13.5248 7.70186 13.6895Z" fill="#37383C"/>
</g>
</svg>
