<svg xmlns="http://www.w3.org/2000/svg" viewBox="0 0 24 24">
  <defs/>
  <path fill-rule="evenodd" d="M10.107 5.095c.13-.238-.074-.532-.333-.453a7.76 7.76 0 109.688 9.757c.081-.258-.212-.464-.45-.336a6.6 6.6 0 01-8.904-8.967zm10.852 6.537a.649.649 0 00-1.009.038.549.549 0 01-.059.068 5.3 5.3 0 11-7.487-7.477.742.742 0 00.146-.176l.03-.045a.647.647 0 00-.07-.86.482.482 0 00-.297-.162A.652.652 0 0012.06 3a9.06 9.06 0 000 18.12c4.507 0 8.246-3.29 8.943-7.601a9.06 9.06 0 00.126-1.507.486.486 0 00-.17-.38z"/>
</svg>
