<svg xmlns="http://www.w3.org/2000/svg" viewBox="0 0 24 24">
  <defs/>
  <path fill-rule="evenodd" d="M4.256 2.135a.65.65 0 01.912.119l.75.974c.335-.13.7-.201 1.082-.201h9.993a3 3 0 013 3v12c0 .88-.378 1.67-.981 2.22l.585.76a.65.65 0 01-1.03.793l-.696-.904-.9-1.169L5.643 5.003l-.81-1.051-.695-.906a.65.65 0 01.118-.911zm2.518 2.207c.074-.01.15-.015.226-.015h9.993a1.7 1.7 0 011.7 1.7v12c0 .46-.182.877-.479 1.183L6.774 4.342z"/>
  <path d="M7 19.727h8.33l1 1.3H7a3 3 0 01-3-3v-12a3 3 0 01.126-.863L5.3 6.69v11.337a1.7 1.7 0 001.7 1.7z"/>
</svg>
