<svg xmlns="http://www.w3.org/2000/svg" viewBox="0 0 24 24">
  <defs/>
  <path fill-rule="evenodd" d="M5.165 2.254a.65.65 0 10-1.03.792l2.633 3.422v.001l1.3 1.69v-.001L18.564 21.8a.65.65 0 101.03-.793l-1.328-1.725a3 3 0 002.481-2.955V6.332a3 3 0 00-3-3h-7.98c-1.116 0-2.09.61-2.607 1.515L5.165 2.254zM8.09 6.055a1.7 1.7 0 011.678-1.423h7.98a1.7 1.7 0 011.7 1.7v9.995a1.7 1.7 0 01-1.7 1.7H17.3L8.09 6.055z"/>
  <path d="M4.726 8.708a.65.65 0 01.65.65v9.02a2.35 2.35 0 002.35 2.35h8a.65.65 0 010 1.3h-8a3.65 3.65 0 01-3.65-3.65v-9.02a.65.65 0 01.65-.65z"/>
  <path d="M9.768 18.027h4.251l1 1.3H9.769a3 3 0 01-3-3V8.6l1.3 1.69v6.036a1.7 1.7 0 001.7 1.7z"/>
</svg>
