<svg xmlns="http://www.w3.org/2000/svg" viewBox="0 0 24 24">
  <defs/>
  <path fill-rule="evenodd" d="M4.542 2.104a.65.65 0 01.912.12l1.386 1.8h9.705a3 3 0 013 3V17.09c0 .869-.37 1.652-.96 2.2l1.28 1.664a.65.65 0 11-1.03.792L4.424 3.016a.65.65 0 01.118-.912zm13.244 16.148c.285-.304.459-.713.459-1.162v-4.455h-4.78l4.321 5.617zm-5.322-6.917l-.266-.346V5.324h4.347a1.7 1.7 0 011.7 1.7v4.31h-5.78zm-1.566-2.036L7.84 5.324h3.059V9.3zM3.546 7.024c0-.778.296-1.487.782-2.02l.815 1.06a1.692 1.692 0 00-.297.96v4.31h4.353l1 1.3H4.845v4.456a1.7 1.7 0 001.7 1.7h4.354v-5.245l1.3 1.69v3.555h2.735l1 1.3h-9.39a3 3 0 01-3-3V7.024z"/>
</svg>
