<svg xmlns="http://www.w3.org/2000/svg" viewBox="0 0 24 24">
  <defs/>
  <path fill-rule="evenodd" d="M6.584 4.444A1.3 1.3 0 017.562 4h8.857c.374 0 .73.161.977.442l3.848 4.381a1.3 1.3 0 01-.002 1.719l-8.268 9.356a1.3 1.3 0 01-1.948 0l-8.27-9.358a1.3 1.3 0 01-.003-1.717l3.83-4.379zm5.429.856h.012l2.829 3.686h-5.67L12.013 5.3zm-1.639 0H7.562L4.337 8.986h3.208L10.374 5.3zM7.62 10.286H4.267l5.569 6.302-2.216-6.302zm4.399 8.59l3.02-8.59H9l3.02 8.59zm4.473-9.89L13.664 5.3h2.755l3.238 3.686h-3.165zm-.075 1.3l-2.19 6.231 5.506-6.23h-3.316z"/>
</svg>
