<svg width="24" height="24" viewBox="0 0 24 24" fill="none" xmlns="http://www.w3.org/2000/svg">
<path fill-rule="evenodd" clip-rule="evenodd" d="M0 19C0 20.1046 0.895431 21 2 21H22C23.1046 21 24 20.1046 24 19V12H0V19Z" fill="#1DC837"/>
<path fill-rule="evenodd" clip-rule="evenodd" d="M0 12H24V5C24 3.89543 23.1046 3 22 3H2C0.89543 3 0 3.89543 0 5V12Z" fill="#82C5F5"/>
<path d="M0.657344 3.51767C0.253593 3.8836 0 4.41219 0 5.00001V19C0 19.5878 0.253593 20.1164 0.657344 20.4824L11.4286 12L0.657344 3.51767Z" fill="white"/>
<path fill-rule="evenodd" clip-rule="evenodd" d="M1.46591 4.15442L0.657344 3.51767C0.253593 3.8836 0 4.41219 0 5.00001V19M1.46591 4.15442C1.18591 4.33164 1 4.64411 1 5V19C1 19.3559 1.18592 19.6684 1.46593 19.8456L0.657344 20.4824C0.632933 20.4602 0.609077 20.4375 0.585786 20.4142C0.454249 20.2827 0.340949 20.1329 0.250004 19.969C0.0907125 19.6819 1.97179e-06 19.3516 0 19" fill="#D6D8DE"/>
<path fill-rule="evenodd" clip-rule="evenodd" d="M3.99998 13.17L2.32059 14.4271L2.94023 12.3615L1.28268 11.0729L3.34502 11.0535L3.99998 9L4.65494 11.0535L6.71728 11.0729L5.05973 12.3615L5.67937 14.4271L3.99998 13.17Z" fill="#E21C21"/>
</svg>
