<svg xmlns="http://www.w3.org/2000/svg" viewBox="0 0 24 24">
  <defs/>
  <path d="M13.6 7.35a.65.65 0 00-.65.65v4a.65.65 0 001.3 0V8a.65.65 0 00-.65-.65zM12.85 14.697a.75.75 0 101.5 0 .75.75 0 00-1.5 0z"/>
  <path fill-rule="evenodd" d="M20.65 6.35a3 3 0 00-3-3h-8a3 3 0 00-3 3v10a3 3 0 003 3h8a3 3 0 003-3v-10zm-3-1.7h-8a1.7 1.7 0 00-1.7 1.7v10a1.7 1.7 0 001.7 1.7h8a1.7 1.7 0 001.7-1.7v-10a1.7 1.7 0 00-1.7-1.7z"/>
  <path d="M4.65 8.7a.65.65 0 00-.65.65v9.4A3.25 3.25 0 007.25 22h8.4a.65.65 0 100-1.3h-8.4a1.95 1.95 0 01-1.95-1.95v-9.4a.65.65 0 00-.65-.65z"/>
</svg>
