<svg xmlns="http://www.w3.org/2000/svg" viewBox="0 0 24 24">
  <defs/>
  <path fill-rule="evenodd" d="M19.993 6a3 3 0 00-3-3H7a3 3 0 00-3 3v12a3 3 0 003 3h9.993a3 3 0 003-3V6zm-3-1.7H7A1.7 1.7 0 005.3 6v12A1.7 1.7 0 007 19.7h9.993a1.7 1.7 0 001.7-1.7V6a1.7 1.7 0 00-1.7-1.7z"/>
  <path d="M12.457 13.847c.13.14.3.21.48.21.16 0 .31-.05.44-.17l2.04-2.029c.31-.28.31-.76 0-1.04l-2.04-1.99a.658.658 0 00-.92.04.65.65 0 00.04.92l.88.9c-.437 0-.32-.007-.756.003a3.65 3.65 0 00-3.65 3.65v.35a.65.65 0 101.3 0v-.35a2.35 2.35 0 012.35-2.35h.76l-.883.936c-.26.24-.28.65-.04.92z"/>
</svg>
