<svg xmlns="http://www.w3.org/2000/svg" viewBox="0 0 24 24">
  <defs/>
  <path fill-rule="evenodd" d="M9.151 8.024a.65.65 0 00-.65.65v6.734a.65.65 0 101.3 0v-1.406h5.088a.65.65 0 00.544-1.006l-1.3-1.986 1.3-1.979a.65.65 0 00-.544-1.007H9.15zm4.536 4.678H9.8V9.324h3.884l-.873 1.329a.65.65 0 000 .713l.875 1.336z"/>
  <path fill-rule="evenodd" d="M16.993 3a3 3 0 013 3v12a3 3 0 01-3 3H7a3 3 0 01-3-3V6a3 3 0 013-3h9.993zM7 4.3h9.993a1.7 1.7 0 011.7 1.7v12a1.7 1.7 0 01-1.7 1.7H7A1.7 1.7 0 015.3 18V6A1.7 1.7 0 017 4.3z"/>
</svg>
