<svg xmlns="http://www.w3.org/2000/svg" viewBox="0 0 24 24">
  <defs/>
  <path fill-rule="evenodd" d="M19.993 6a3 3 0 00-3-3H7a3 3 0 00-3 3v12a3 3 0 003 3h9.993a3 3 0 003-3V6zm-3-1.7H7A1.7 1.7 0 005.3 6v12A1.7 1.7 0 007 19.7h9.993a1.7 1.7 0 001.7-1.7V6a1.7 1.7 0 00-1.7-1.7z"/>
  <path d="M13.01 12.107a1 1 0 11-2 0 1 1 0 012 0z"/>
  <path fill-rule="evenodd" d="M12.647 7.214a.65.65 0 10-1.3 0v.897a3.985 3.985 0 00-1.682.683l-.625-.625a.65.65 0 00-.92.92l.617.616a3.986 3.986 0 00-.714 1.69h-.858a.65.65 0 100 1.3h.85c.099.631.345 1.213.702 1.71l-.596.597a.65.65 0 00.92.92l.596-.597c.497.357 1.079.603 1.71.702v.85a.65.65 0 001.3 0v-.858a3.986 3.986 0 001.69-.715l.616.617a.65.65 0 10.92-.92l-.625-.624c.347-.49.586-1.063.683-1.682h.897a.65.65 0 000-1.3h-.905a3.984 3.984 0 00-.695-1.662l.645-.644a.65.65 0 10-.92-.92l-.644.645a3.985 3.985 0 00-1.662-.695v-.905zm-.674 7.562a2.707 2.707 0 100-5.413 2.707 2.707 0 000 5.413z"/>
</svg>
