<svg xmlns="http://www.w3.org/2000/svg" viewBox="0 0 24 24">
  <defs/>
  <path fill-rule="evenodd" d="M14.68 12.07a2.707 2.707 0 11-5.414 0 2.707 2.707 0 015.413 0zm-2.67 1.037a1 1 0 100-2 1 1 0 000 2z"/>
  <path fill-rule="evenodd" d="M16.993 3a3 3 0 013 3v12a3 3 0 01-3 3H7a3 3 0 01-3-3V6a3 3 0 013-3h9.993zm-4.996 3.564a.65.65 0 01.65.65v.905a3.985 3.985 0 011.662.695l.644-.644a.65.65 0 11.92.919l-.645.644c.348.484.591 1.05.695 1.662h.905a.65.65 0 110 1.3h-.897a3.984 3.984 0 01-.683 1.682l.625.625a.65.65 0 11-.92.919l-.616-.617c-.49.36-1.066.61-1.69.715v.857a.65.65 0 11-1.3 0v-.849a3.985 3.985 0 01-1.71-.702l-.597.596a.65.65 0 01-.92-.92l.597-.596a3.985 3.985 0 01-.702-1.71h-.85a.65.65 0 010-1.3h.858c.105-.624.355-1.2.714-1.69l-.616-.616a.65.65 0 01.92-.92l.624.625a3.985 3.985 0 011.682-.683v-.897a.65.65 0 01.65-.65z"/>
</svg>
