<svg xmlns="http://www.w3.org/2000/svg" viewBox="0 0 24 24">
  <defs/>
  <path fill-rule="evenodd" d="M9.782 10.2c-.654.54-1.153 1.219-1.47 1.728a.116.116 0 00-.015.06c0 .028.007.049.015.06.317.51.816 1.188 1.47 1.728.647.534 1.382.882 2.215.882.832 0 1.567-.348 2.215-.882.653-.54 1.153-1.218 1.47-1.727a.115.115 0 00.015-.06.116.116 0 00-.016-.061c-.316-.51-.816-1.188-1.47-1.727-.647-.534-1.382-.883-2.214-.883-.833 0-1.568.349-2.215.883zm3.945 1.8a1.734 1.734 0 11-3.467 0 1.734 1.734 0 013.467 0z"/>
  <path fill-rule="evenodd" d="M16.993 3a3 3 0 013 3v12a3 3 0 01-3 3H7a3 3 0 01-3-3V6a3 3 0 013-3h9.993zm-9.785 8.241c.716-1.15 2.345-3.223 4.789-3.223 2.444 0 4.073 2.073 4.788 3.223a1.426 1.426 0 010 1.495c-.715 1.15-2.345 3.222-4.788 3.222-2.444 0-4.073-2.072-4.789-3.223a1.426 1.426 0 010-1.494z"/>
</svg>
