<svg xmlns="http://www.w3.org/2000/svg" viewBox="0 0 24 24">
  <defs/>
  <path fill-rule="evenodd" d="M19.993 6a3 3 0 00-3-3H7a3 3 0 00-3 3v12a3 3 0 003 3h9.993a3 3 0 003-3V6zm-3-1.7H7A1.7 1.7 0 005.3 6v12A1.7 1.7 0 007 19.7h9.993a1.7 1.7 0 001.7-1.7V6a1.7 1.7 0 00-1.7-1.7z"/>
  <path d="M11.993 13.734a1.734 1.734 0 100-3.468 1.734 1.734 0 000 3.468z"/>
  <path fill-rule="evenodd" d="M11.997 8.018c-2.444 0-4.073 2.073-4.789 3.223a1.426 1.426 0 000 1.495c.716 1.15 2.345 3.222 4.789 3.222 2.444 0 4.073-2.072 4.788-3.223a1.426 1.426 0 000-1.494c-.715-1.15-2.344-3.223-4.788-3.223zm-3.685 3.91c.317-.51.816-1.188 1.47-1.727.647-.534 1.382-.883 2.215-.883.832 0 1.567.349 2.215.883.653.54 1.153 1.218 1.47 1.727a.117.117 0 01.015.06.117.117 0 01-.015.06c-.317.51-.817 1.188-1.47 1.728-.648.534-1.383.882-2.215.882-.833 0-1.568-.348-2.215-.882-.654-.54-1.153-1.218-1.47-1.727a.116.116 0 01-.015-.06c0-.028.007-.05.015-.061z"/>
</svg>
