<svg width="24" height="24" viewBox="0 0 24 24" fill="none" xmlns="http://www.w3.org/2000/svg">
<path d="M0 5C0 3.89543 0.895431 3 2 3H22C23.1046 3 24 3.89543 24 5V19C24 20.1046 23.1046 21 22 21H2C0.89543 21 0 20.1046 0 19V5Z" fill="white"/>
<path fill-rule="evenodd" clip-rule="evenodd" d="M22 4H2C1.44772 4 1 4.44772 1 5V19C1 19.5523 1.44772 20 2 20H22C22.5523 20 23 19.5523 23 19V5C23 4.44771 22.5523 4 22 4ZM2 3C0.895431 3 0 3.89543 0 5V19C0 20.1046 0.89543 21 2 21H22C23.1046 21 24 20.1046 24 19V5C24 3.89543 23.1046 3 22 3H2Z" fill="#D6D8DE"/>
<path fill-rule="evenodd" clip-rule="evenodd" d="M0 10H10V3H2C0.895431 3 0 3.89543 0 5V10Z" fill="#083D7A"/>
<path fill-rule="evenodd" clip-rule="evenodd" d="M14 21H22C23.1046 21 24 20.1046 24 19V14H14V21Z" fill="#083D7A"/>
<path fill-rule="evenodd" clip-rule="evenodd" d="M0 19C0 20.1046 0.89543 21 2 21H10V14H0V19Z" fill="#DF1E35"/>
<path fill-rule="evenodd" clip-rule="evenodd" d="M14 10H24V5C24 3.89543 23.1046 3 22 3H14V10Z" fill="#DF1E35"/>
<path fill-rule="evenodd" clip-rule="evenodd" d="M10.7878 10.7272C10.1183 11.4302 10.1183 12.5699 10.7878 13.2728C11.4573 13.9757 12.5427 13.9757 13.2122 13.2728C13.8816 12.5699 13.8816 11.4302 13.2122 10.7272L12.7524 11.21C13.1679 11.6463 13.1679 12.3537 12.7524 12.79C12.3369 13.2264 11.6631 13.2264 11.2476 12.79C10.832 12.3537 10.832 11.6463 11.2476 11.21L10.7878 10.7272Z" fill="#0F6D1A"/>
<path fill-rule="evenodd" clip-rule="evenodd" d="M12 12.6C12.3156 12.6 12.5714 12.3314 12.5714 12C12.5714 11.6687 12.3156 11.4 12 11.4C11.6844 11.4 11.4286 11.6687 11.4286 12C11.4286 12.3314 11.6844 12.6 12 12.6Z" fill="#042F60"/>
</svg>
