<svg width="24" height="24" viewBox="0 0 24 24" fill="none" xmlns="http://www.w3.org/2000/svg">
<rect y="3" width="24" height="18" rx="2" fill="#108753"/>
<path d="M11.56 21H10.56V11.5789H0V10.5789H10.56V3H11.56V10.5789H24V11.5789H11.56V21Z" fill="#FCD449"/>
<path d="M12.56 21H11.56V12.5789H0V11.5789H11.56V3H12.56V11.5789H24V12.5789H12.56V21Z" fill="#262626"/>
<path d="M13.56 21H12.56V13.5789H0V12.5789H12.56V3H13.56V12.5789H24V13.5789H13.56V21Z" fill="white"/>
<path fill-rule="evenodd" clip-rule="evenodd" d="M11.68 16C13.8891 16 15.68 14.2091 15.68 12C15.68 9.79086 13.8891 8 11.68 8C9.47085 8 7.67999 9.79086 7.67999 12C7.67999 14.2091 9.47085 16 11.68 16Z" fill="url(#paint0_linear_72903_164572)"/>
<path fill-rule="evenodd" clip-rule="evenodd" d="M11.68 9.77778C11.5616 9.77778 11.4458 9.78726 11.3332 9.8054C10.9701 9.86391 10.626 9.63105 10.5646 9.28531C10.5032 8.93957 10.7477 8.61186 11.1107 8.55336C11.2964 8.52343 11.4866 8.50793 11.68 8.50793C11.8734 8.50793 12.0636 8.52343 12.2493 8.55336C12.6124 8.61186 12.8569 8.93957 12.7954 9.28531C12.734 9.63105 12.3899 9.86391 12.0269 9.8054C11.9143 9.78726 11.7985 9.77778 11.68 9.77778ZM14.4076 10.935C14.772 10.8843 15.1105 11.1245 15.1637 11.4715C15.1902 11.6442 15.2038 11.8207 15.2038 12C15.2038 12.1793 15.1902 12.3558 15.1637 12.5285C15.1105 12.8755 14.772 13.1157 14.4076 13.065C14.0433 13.0143 13.7911 12.6919 13.8443 12.3449C13.8615 12.2329 13.8705 12.1177 13.8705 12C13.8705 11.8823 13.8615 11.7671 13.8443 11.6551C13.7911 11.3081 14.0433 10.9857 14.4076 10.935ZM8.95241 10.935C9.31674 10.9857 9.56894 11.3081 9.51572 11.6551C9.49853 11.7671 9.48955 11.8823 9.48955 12C9.48955 12.1177 9.49853 12.2329 9.51572 12.3449C9.56894 12.6919 9.31674 13.0143 8.95241 13.065C8.58809 13.1157 8.24961 12.8755 8.19639 12.5285C8.1699 12.3558 8.15622 12.1793 8.15622 12C8.15622 11.8207 8.1699 11.6442 8.19639 11.4715C8.24961 11.1245 8.58809 10.8843 8.95241 10.935ZM10.5646 14.7147C10.626 14.3689 10.9701 14.1361 11.3332 14.1946C11.4458 14.2127 11.5616 14.2222 11.68 14.2222C11.7985 14.2222 11.9143 14.2127 12.0269 14.1946C12.3899 14.1361 12.734 14.3689 12.7954 14.7147C12.8569 15.0604 12.6124 15.3881 12.2493 15.4466C12.0636 15.4766 11.8734 15.4921 11.68 15.4921C11.4866 15.4921 11.2964 15.4766 11.1107 15.4466C10.7477 15.3881 10.5032 15.0604 10.5646 14.7147Z" fill="#0E673F"/>
<path fill-rule="evenodd" clip-rule="evenodd" d="M11.68 13.1429C12.3112 13.1429 12.2514 12.6312 12.2514 12C12.2514 11.3688 12.3112 10.8571 11.68 10.8571C11.0488 10.8571 11.1086 11.3688 11.1086 12C11.1086 12.6312 11.0488 13.1429 11.68 13.1429Z" fill="#0E673F"/>
<defs>
<linearGradient id="paint0_linear_72903_164572" x1="7.67999" y1="8" x2="7.67999" y2="16" gradientUnits="userSpaceOnUse">
<stop stop-color="#E02C42"/>
<stop offset="1" stop-color="#D22036"/>
</linearGradient>
</defs>
</svg>
