<svg width="24" height="24" viewBox="0 0 24 24" fill="none" xmlns="http://www.w3.org/2000/svg">
<path fill-rule="evenodd" clip-rule="evenodd" d="M0 16H24V11H0V16Z" fill="#0748AE"/>
<path fill-rule="evenodd" clip-rule="evenodd" d="M0 19C0 20.1046 0.895431 21 2 21H22C23.1046 21 24 20.1046 24 19V16H0V19Z" fill="#DE2035"/>
<path fill-rule="evenodd" clip-rule="evenodd" d="M0 11H24V5C24 3.89543 23.1046 3 22 3H2C0.89543 3 0 3.89543 0 5V11Z" fill="#FFD935"/>
<path fill-rule="evenodd" clip-rule="evenodd" d="M10.8191 10.2C10.2639 10.6379 9.90482 11.335 9.90482 12.1202C9.90482 13.4456 10.9282 14.5202 12.1905 14.5202C13.4529 14.5202 14.4762 13.4456 14.4762 12.1202C14.4762 11.335 14.1172 10.6379 13.562 10.2L12.762 12.7201H11.6191L10.8191 10.2Z" fill="#FFD935"/>
<path fill-rule="evenodd" clip-rule="evenodd" d="M12.1905 9.60004L12.762 12.6H11.6191L12.1905 9.60004Z" fill="#5FC0DC"/>
<path opacity="0.66" fill-rule="evenodd" clip-rule="evenodd" d="M10.9376 7.4854C11.0612 7.44213 11.1988 7.47528 11.2891 7.57013L12.1906 8.51669L13.092 7.57013C13.1824 7.47528 13.3199 7.44213 13.4435 7.4854L15.1578 8.0854C15.3316 8.14622 15.4231 8.33638 15.3623 8.51014C15.3015 8.6839 15.1114 8.77545 14.9376 8.71464L13.4264 8.18572L12.4319 9.2299C12.369 9.29596 12.2818 9.33335 12.1906 9.33335C12.0993 9.33335 12.0121 9.29596 11.9492 9.2299L10.9547 8.18572L9.44354 8.71464C9.26978 8.77545 9.07962 8.6839 9.0188 8.51014C8.95799 8.33638 9.04955 8.14622 9.22331 8.0854L10.9376 7.4854Z" fill="#3F2821"/>
</svg>
