<svg width="24" height="24" viewBox="0 0 24 24" fill="none" xmlns="http://www.w3.org/2000/svg">
<rect y="3" width="24" height="18" rx="2" fill="white"/>
<path fill-rule="evenodd" clip-rule="evenodd" d="M22 4H2C1.44772 4 1 4.44772 1 5V19C1 19.5523 1.44772 20 2 20H22C22.5523 20 23 19.5523 23 19V5C23 4.44771 22.5523 4 22 4ZM2 3C0.895431 3 0 3.89543 0 5V19C0 20.1046 0.89543 21 2 21H22C23.1046 21 24 20.1046 24 19V5C24 3.89543 23.1046 3 22 3H2Z" fill="#D6D8DE"/>
<path fill-rule="evenodd" clip-rule="evenodd" d="M0 9H24V5C24 3.89543 23.1046 3 22 3H2C0.89543 3 0 3.89543 0 5V9Z" fill="#E41D33"/>
<path fill-rule="evenodd" clip-rule="evenodd" d="M0 19C0 20.1046 0.895431 21 2 21H22C23.1046 21 24 20.1046 24 19V15H0V19Z" fill="#262626"/>
<path fill-rule="evenodd" clip-rule="evenodd" d="M10.2834 11.7718L9.73083 10.6667H9.66667V12.1829L10.2834 11.7718ZM10.7143 12.2857L10.0365 12.7376C9.59343 13.033 9 12.7154 9 12.1829V10.6667C9 10.2985 9.29848 10 9.66667 10H9.93685C10.0631 10 10.1785 10.0713 10.235 10.1843L10.7143 11.1429C10.7143 11.1429 10.8952 10.8135 11.1424 10.5085C11.3558 10.2452 11.6186 10 11.8571 10C12.116 10 12.3748 10.2345 12.5806 10.491C12.829 10.8009 13 11.1429 13 11.1429L13.4793 10.1843C13.5358 10.0713 13.6512 10 13.7774 10H14.0476C14.4158 10 14.7143 10.2985 14.7143 10.6667V12.1829C14.7143 12.7154 14.1209 13.033 13.6778 12.7376L13 12.2857H12.4286V12.8571C12.4286 13.1727 12.1727 13.4286 11.8571 13.4286C11.5416 13.4286 11.2857 13.1727 11.2857 12.8571V12.2857H10.7143ZM13.4309 11.7718L14.0476 12.1829V10.6667H13.9835L13.4309 11.7718ZM12.4927 11.619H11.2133L11.2982 11.4646L11.3021 11.4577L11.3186 11.4289C11.3337 11.4028 11.3566 11.3643 11.3859 11.3174C11.4452 11.2224 11.5269 11.0994 11.6196 10.9797C11.7098 10.8633 11.796 10.7688 11.8692 10.7064C11.94 10.765 12.0231 10.8563 12.1095 10.9714C12.1967 11.0876 12.2718 11.2074 12.3259 11.3002C12.3526 11.3459 12.3732 11.3834 12.3867 11.4086L12.4012 11.436L12.4039 11.4414L12.4927 11.619ZM11.8005 10.6587L11.7996 10.6583Z" fill="#C6A846"/>
</svg>
