<svg xmlns="http://www.w3.org/2000/svg" viewBox="0 0 24 24">
  <path d="M15 4.3H9A1.7 1.7 0 0 0 7.3 6v5.491l-1.296-.961-.004.012-1.708-1.267c-.198-.147-.218-.44-.015-.582L6 7.483V6a3 3 0 0 1 3-3h6a3 3 0 0 1 3 3v1.484l1.723 1.209c.255.179.221.546-.03.728L18 10.647l-.006-.018-1.294.938V6A1.7 1.7 0 0 0 15 4.3Z"/>
  <path d="M4.073 10.731c-.44-.326-1.073-.13-1.073.418V18a3 3 0 0 0 3 3h12a3 3 0 0 0 3-3v-6.851c0-.483-.554-.669-.945-.386l-4.6 3.334 2.553 1.918a.65.65 0 1 1-.781 1.04l-2.873-2.16-.195.141a3.65 3.65 0 0 1-4.317-.024l-.179-.133-2.893 2.176a.65.65 0 0 1-.78-1.04l2.585-1.943-4.502-3.34Zm4.889-3.447a.65.65 0 0 1 .65-.65h4.754a.65.65 0 1 1 0 1.3H9.612a.65.65 0 0 1-.65-.65Z"/>
  <path d="M9.612 9.664a.65.65 0 0 0 0 1.3h4.754a.65.65 0 1 0 0-1.3H9.612Z"/>
</svg>
