<svg width="24" height="24" viewBox="0 0 24 24" fill="none" xmlns="http://www.w3.org/2000/svg">
<rect y="3" width="24" height="18" rx="2" fill="white"/>
<path fill-rule="evenodd" clip-rule="evenodd" d="M22 4H2C1.44772 4 1 4.44772 1 5V19C1 19.5523 1.44772 20 2 20H22C22.5523 20 23 19.5523 23 19V5C23 4.44771 22.5523 4 22 4ZM2 3C0.895431 3 0 3.89543 0 5V19C0 20.1046 0.89543 21 2 21H22C23.1046 21 24 20.1046 24 19V5C24 3.89543 23.1046 3 22 3H2Z" fill="#D6D8DE"/>
<path fill-rule="evenodd" clip-rule="evenodd" d="M0 19C0 20.1046 0.895431 21 2 21H22C23.1046 21 24 20.1046 24 19V15H0V19Z" fill="#EC3938"/>
<path fill-rule="evenodd" clip-rule="evenodd" d="M0 9H24V5C24 3.89543 23.1046 3 22 3H2C0.89543 3 0 3.89543 0 5V9Z" fill="#51B422"/>
<path d="M0.657344 3.51767C0.253593 3.8836 0 4.41219 0 5.00001V19C0 19.5878 0.253593 20.1164 0.657344 20.4824L10 12L0.657344 3.51767Z" fill="#258DE7"/>
<path fill-rule="evenodd" clip-rule="evenodd" d="M13.4519 13.0463C13.4775 13.0197 13.4919 12.9842 13.4921 12.9472L13.5018 11.2568C13.5026 11.1179 13.3901 11.0048 13.2511 11.0048C13.0278 11.0048 12.916 10.7348 13.0739 10.5769L13.5532 10.0976C13.6834 9.96746 13.8944 9.96746 14.0246 10.0976L14.5032 10.5762C14.6614 10.7344 14.5493 11.0048 14.3257 11.0048C14.187 11.0048 14.0746 11.1172 14.0746 11.2558V12.9456C14.0746 12.9835 14.0897 13.0198 14.1165 13.0466C14.2065 13.1366 14.1427 13.2905 14.0155 13.2905H13.556C13.4289 13.2905 13.3639 13.138 13.4519 13.0463Z" fill="#159940"/>
</svg>
