<svg xmlns="http://www.w3.org/2000/svg" viewBox="0 0 24 24">
  <defs/>
  <path fill-rule="evenodd" d="M15.965 4.769l3.237 3.237a1.7 1.7 0 010 2.404l-3.682 3.682L9.88 8.45l3.681-3.682a1.7 1.7 0 012.404 0zM8.96 9.37L4.77 13.561a1.7 1.7 0 000 2.404l3.237 3.237c.299.3.682.464 1.074.493h.256c.391-.03.774-.194 1.074-.493l4.191-4.191-5.64-5.641zm2.795 10.325l8.366-8.366a3 3 0 000-4.243L16.885 3.85a3 3 0 00-4.243 0L3.85 12.642a3 3 0 000 4.243l3.236 3.236a2.988 2.988 0 002.292.874h7.01a.65.65 0 100-1.3h-4.633z"/>
</svg>
