<svg width="24" height="24" viewBox="0 0 24 24" fill="none" xmlns="http://www.w3.org/2000/svg">
<path fill-rule="evenodd" clip-rule="evenodd" d="M22 3C23.1046 3 24 3.89543 24 5V12H0V5C0 3.89543 0.895431 3 2 3H22Z" fill="#29C53F"/>
<path fill-rule="evenodd" clip-rule="evenodd" d="M24 12V19C24 20.1046 23.1046 21 22 21H2C0.89543 21 0 20.1046 0 19V12H24Z" fill="#579DED"/>
<path d="M0.892202 3.33456C0.35435 3.69304 0 4.30513 0 4.99999V19C0 19.6948 0.35435 20.3069 0.892202 20.6654L24 12L0.892202 3.33456Z" fill="#F42D56"/>
<path fill-rule="evenodd" clip-rule="evenodd" d="M7.42857 14.8667C8.84078 14.8667 10.0952 13.6453 10.0952 12C10.0952 10.3548 8.84078 9.13335 7.42857 9.13335C6.01637 9.13335 4.76191 10.3548 4.76191 12C4.76191 13.6453 6.01637 14.8667 7.42857 14.8667ZM11.4286 12C11.4286 14.3196 9.63771 16.2 7.42857 16.2C5.21943 16.2 3.42857 14.3196 3.42857 12C3.42857 9.68042 5.21943 7.80002 7.42857 7.80002C9.63771 7.80002 11.4286 9.68042 11.4286 12Z" fill="#FFC63C"/>
<path fill-rule="evenodd" clip-rule="evenodd" d="M6.85712 11.4C7.17271 11.4 7.42855 11.1314 7.42855 10.8C7.42855 10.4686 7.17271 10.2 6.85712 10.2C6.54153 10.2 6.28569 10.4686 6.28569 10.8C6.28569 11.1314 6.54153 11.4 6.85712 11.4Z" fill="#FFC63C"/>
<path fill-rule="evenodd" clip-rule="evenodd" d="M8.00002 12C8.31561 12 8.57145 11.7314 8.57145 11.4C8.57145 11.0687 8.31561 10.8 8.00002 10.8C7.68443 10.8 7.42859 11.0687 7.42859 11.4C7.42859 11.7314 7.68443 12 8.00002 12Z" fill="#FFC63C"/>
<path fill-rule="evenodd" clip-rule="evenodd" d="M7.42855 10.8C7.74414 10.8 8 10.5314 8 10.2C8 9.86867 7.74417 9.60004 7.42858 9.60004C7.11298 9.60004 6.85712 9.86865 6.85712 10.2C6.85712 10.5314 7.11296 10.8 7.42855 10.8Z" fill="#FFC63C"/>
<path fill-rule="evenodd" clip-rule="evenodd" d="M6.85712 12.6C7.17271 12.6 7.42855 12.3314 7.42855 12C7.42855 11.6686 7.17271 11.4 6.85712 11.4C6.54153 11.4 6.28569 11.6686 6.28569 12C6.28569 12.3314 6.54153 12.6 6.85712 12.6Z" fill="#FFC63C"/>
<path fill-rule="evenodd" clip-rule="evenodd" d="M8.00002 13.2C8.31561 13.2 8.57145 12.9314 8.57145 12.6C8.57145 12.2686 8.31561 12 8.00002 12C7.68443 12 7.42859 12.2686 7.42859 12.6C7.42859 12.9314 7.68443 13.2 8.00002 13.2Z" fill="#FFC63C"/>
<path fill-rule="evenodd" clip-rule="evenodd" d="M6.85712 13.8C7.17271 13.8 7.42855 13.5314 7.42855 13.2C7.42855 12.8686 7.17271 12.6 6.85712 12.6C6.54153 12.6 6.28569 12.8686 6.28569 13.2C6.28569 13.5314 6.54153 13.8 6.85712 13.8Z" fill="#FFC63C"/>
<path fill-rule="evenodd" clip-rule="evenodd" d="M8.00002 14.4C8.31561 14.4 8.57145 14.1314 8.57145 13.8C8.57145 13.4686 8.31561 13.2 8.00002 13.2C7.68443 13.2 7.42859 13.4686 7.42859 13.8C7.42859 14.1314 7.68443 14.4 8.00002 14.4Z" fill="#FFC63C"/>
</svg>
