<svg width="24" height="24" viewBox="0 0 24 24" fill="none" xmlns="http://www.w3.org/2000/svg">
<rect y="3" width="24" height="18" rx="2" fill="#043CAE"/>
<path d="M11.2566 7.48679L12 7.26906L12.7434 7.48679L12.5257 6.7434L12.7434 6L12 6.21774L11.2566 6L11.4743 6.7434L11.2566 7.48679Z" fill="#FFD429"/>
<path d="M11.2566 18L12 17.7823L12.7434 18L12.5257 17.2566L12.7434 16.5132L12 16.7309L11.2566 16.5132L11.4743 17.2566L11.2566 18Z" fill="#FFD429"/>
<path d="M17.2566 12.5257L16.5132 12.7434L16.7309 12L16.5132 11.2566L17.2566 11.4743L18 11.2566L17.7823 12L18 12.7434L17.2566 12.5257Z" fill="#FFD429"/>
<path d="M6 12.7434L6.7434 12.5257L7.48679 12.7434L7.26906 12L7.48679 11.2566L6.7434 11.4743L6 11.2566L6.21774 12L6 12.7434Z" fill="#FFD429"/>
<path d="M16.5524 9.89736L15.809 10.1151L16.0267 9.3717L15.809 8.6283L16.5524 8.84604L17.2957 8.6283L17.078 9.3717L17.2957 10.1151L16.5524 9.89736Z" fill="#FFD429"/>
<path d="M6.70425 15.3717L7.44765 15.154L8.19104 15.3717L7.97331 14.6283L8.19104 13.8849L7.44765 14.1026L6.70425 13.8849L6.92199 14.6283L6.70425 15.3717Z" fill="#FFD429"/>
<path d="M14.6283 7.97331L13.8849 8.19104L14.1026 7.44765L13.8849 6.70425L14.6283 6.92199L15.3717 6.70425L15.154 7.44765L15.3717 8.19104L14.6283 7.97331Z" fill="#FFD429"/>
<path d="M8.6283 17.2957L9.3717 17.078L10.1151 17.2957L9.89736 16.5524L10.1151 15.809L9.3717 16.0267L8.6283 15.809L8.84604 16.5524L8.6283 17.2957Z" fill="#FFD429"/>
<path d="M16.5524 15.154L15.809 15.3717L16.0267 14.6283L15.809 13.8849L16.5524 14.1026L17.2957 13.8849L17.078 14.6283L17.2957 15.3717L16.5524 15.154Z" fill="#FFD429"/>
<path d="M6.70425 10.1151L7.44765 9.89736L8.19104 10.1151L7.97331 9.3717L8.19104 8.6283L7.44765 8.84604L6.70425 8.6283L6.92199 9.3717L6.70425 10.1151Z" fill="#FFD429"/>
<path d="M14.6283 17.078L13.8849 17.2957L14.1026 16.5524L13.8849 15.809L14.6283 16.0267L15.3717 15.809L15.154 16.5524L15.3717 17.2957L14.6283 17.078Z" fill="#FFD429"/>
<path d="M8.6283 8.19104L9.3717 7.97331L10.1151 8.19104L9.89736 7.44765L10.1151 6.70425L9.3717 6.92199L8.6283 6.70425L8.84604 7.44765L8.6283 8.19104Z" fill="#FFD429"/>
</svg>
