<svg xmlns="http://www.w3.org/2000/svg" viewBox="0 0 24 24">
  <defs/>
  <path d="M16.5 10.72c-.18 0-.35-.07-.48-.21a.658.658 0 01.04-.92l2.891-2.72H15a2.35 2.35 0 00-2.35 2.35V14a.65.65 0 01-1.3 0V9.22A3.65 3.65 0 0115 5.57h3.96v-.015L16.1 3.14a.65.65 0 01-.04-.92c.24-.26.65-.28.92-.04L21 5.685c.31.28.31.76 0 1.04l-4.06 3.825c-.13.12-.28.17-.44.17z"/>
  <path d="M9.35 4a.65.65 0 110 1.3H8A1.7 1.7 0 006.3 7v10A1.7 1.7 0 008 18.7h8a1.7 1.7 0 001.7-1.7v-4.35a.65.65 0 111.3 0V17a3 3 0 01-3 3H8a3 3 0 01-3-3V7a3 3 0 013-3h1.35z"/>
</svg>
