<svg xmlns="http://www.w3.org/2000/svg" viewBox="0 0 24 24">
  <defs/>
  <path d="M21.7 10.046c.3.198.38.602.182.9-.5.754-1.141 1.573-1.913 2.359l1.835 1.835a.65.65 0 11-.919.92l-1.867-1.867c-.935.8-2.015 1.515-3.226 2.022l1.034 2.49a.65.65 0 11-1.2.498l-1.065-2.56a9.577 9.577 0 01-2.561.349 9.815 9.815 0 01-2.566-.338l-1.06 2.55a.65.65 0 11-1.2-.5l1.027-2.47c-1.244-.517-2.316-1.25-3.221-2.04L3.115 16.06a.65.65 0 11-.92-.919l1.843-1.843a19.142 19.142 0 01-1.902-2.338.65.65 0 011.066-.744c1.463 2.097 4.34 5.477 8.798 5.477 4.034 0 7.15-2.979 8.8-5.464a.65.65 0 01.9-.182z"/>
</svg>
