<svg width="24" height="24" viewBox="0 0 24 24" fill="none" xmlns="http://www.w3.org/2000/svg">
<rect y="3" width="24" height="18" rx="2" fill="#07319C"/>
<path d="M2.03252e-05 9.60929L3.33333 7.22835V6.73519L0.22739 4.07296C0.331861 3.87361 0.468974 3.69405 0.63163 3.5414L4 6.42857V7.57143L2.03252e-05 10.4286V9.60929Z" fill="white"/>
<path d="M10.9524 3V3.39989C10.9524 3.72284 10.7964 4.02591 10.5336 4.21362L6.95238 6.77165V7.2648L10.3317 10.1614C10.9348 10.6783 10.5692 11.6667 9.77485 11.6667C9.59651 11.6667 9.42263 11.6109 9.27751 11.5073L5.50064 8.80952H4.76263L2.03252e-05 11.7862V11L4.57143 8.14286H5.71429L9.665 10.9648C9.69706 10.9877 9.73546 11 9.77485 11C9.9503 11 10.031 10.7817 9.89784 10.6675L6.28571 7.57143V6.42857L10.1461 3.67113C10.2337 3.60856 10.2857 3.50754 10.2857 3.39989V3L10.9524 3Z" fill="white"/>
<path d="M9.02784 3L10.2857 3L5.71429 5.85714H4.57143L0.970449 3.28501C1.20126 3.14615 1.4624 3.05257 1.74157 3.01655L4.78507 5.19048H5.52309L9.02784 3Z" fill="white"/>
<path fill-rule="evenodd" clip-rule="evenodd" d="M0 5.85714V8.14286H4V10.9048C4 11.273 4.29848 11.5714 4.66667 11.5714H5.61905C5.98724 11.5714 6.28571 11.273 6.28571 10.9048V8.14286H10.1905C10.5587 8.14286 10.8571 7.84438 10.8571 7.47619V6.52381C10.8571 6.15562 10.5587 5.85714 10.1905 5.85714H6.28571V3H4V5.85714H0Z" fill="url(#paint0_linear_72961_150684)"/>
<path d="M0.620846 3.53215C0.724084 3.43571 0.837716 3.35017 0.959804 3.27741L4 5.44898V5.85714H3.33333L0.620846 3.53215Z" fill="url(#paint1_linear_72961_150684)"/>
<path d="M6.28571 5.5L10.2857 3V3.39989C10.2857 3.50754 10.2337 3.60856 10.1461 3.67113L7.08571 5.85714H6.28571V5.5Z" fill="url(#paint2_linear_72961_150684)"/>
<path d="M6.28571 8.14286H6.95238L9.89784 10.6675C10.031 10.7817 9.9503 11 9.77485 11C9.73546 11 9.69706 10.9877 9.665 10.9648L6.28571 8.55102V8.14286Z" fill="url(#paint3_linear_72961_150684)"/>
<path d="M4 8.14286V8.5L2.03252e-05 11L0 10.4286L3.2 8.14286H4Z" fill="url(#paint4_linear_72961_150684)"/>
<path d="M4.57143 6.42857H0V7.57143H4.57143V11H5.71429V7.57143H10.2857V6.42857H5.71429V3H4.57143V6.42857Z" fill="url(#paint5_linear_72961_150684)"/>
<path fill-rule="evenodd" clip-rule="evenodd" d="M14.5327 12C14.5327 11.134 14.5327 10.1223 14.5327 9.33297C14.5327 8.59659 15.1296 8 15.866 8H19.1321C19.8684 8 20.4654 8.59659 20.4654 9.33297C20.4654 10.1223 20.4654 11.134 20.4654 12C20.4654 14.8571 17.499 16 17.499 16C17.499 16 14.5327 14.8571 14.5327 12Z" fill="#0072C4"/>
<path fill-rule="evenodd" clip-rule="evenodd" d="M15.8994 11.3723C15.2914 11.9638 16.4829 11.8888 16.4829 11.8888L17.3316 11.6271C17.3316 11.6271 17.7131 11.6715 17.9706 11.7463C18.1413 11.7958 18.616 12 18.616 12C18.616 12 19.6187 11.8072 19.2661 11.3723C18.9136 10.9374 16.5074 10.7808 15.8994 11.3723Z" fill="#005121"/>
<path fill-rule="evenodd" clip-rule="evenodd" d="M18.4275 10.7579C18.4519 10.7525 18.5088 10.7537 18.53 10.7787C18.5634 10.8176 18.6317 10.8047 18.665 10.8422C18.6983 10.8799 18.7369 10.9146 18.7369 10.9682C18.7369 11.0217 18.7304 11.1545 18.7316 11.1837C18.7333 11.2286 18.7414 11.2356 18.7894 11.2344C18.8472 11.233 18.9271 11.2286 18.9296 11.1288C18.9313 11.0593 18.8595 11.0158 18.8385 10.7684C18.87 10.7424 18.8981 10.7192 18.8876 10.6846C18.877 10.6499 18.9472 10.6325 18.9402 10.5803C18.9331 10.5283 19.0102 10.4964 18.9787 10.4386C18.9472 10.3807 19.0172 10.3779 18.9892 10.3315C18.9611 10.2853 19.0347 10.2447 19.0032 10.2043C18.9717 10.1637 19.0453 10.1261 19.0068 10.0769C18.9681 10.0277 19.0277 9.99879 18.9892 9.96113C19.0137 9.92358 18.9927 9.81648 18.9155 9.75574C18.8385 9.6949 18.7299 9.66312 18.6667 9.63994C18.5493 9.59683 18.3303 9.61675 18.176 9.63417C18.0218 9.65147 17.7344 9.66889 17.6467 9.65735C17.5592 9.64581 17.3524 9.63417 17.1894 9.66018C17.1336 9.66911 17.0702 9.653 17.037 9.62263C17.0103 9.59836 16.9949 9.60097 16.9704 9.60238C16.9459 9.6038 16.9318 9.59651 16.9195 9.56755C16.8979 9.51662 16.8495 9.55166 16.8267 9.48799C16.8114 9.44543 16.7319 9.48222 16.7075 9.44608C16.6828 9.40995 16.6532 9.40559 16.5865 9.40995C16.583 9.38818 16.5463 9.37229 16.5129 9.37806C16.5182 9.34192 16.4814 9.31297 16.4201 9.31438C16.4271 9.26954 16.3412 9.23482 16.2973 9.26236C16.2694 9.22905 16.2132 9.23623 16.1993 9.26236C16.1695 9.22905 16.0748 9.23917 16.052 9.27531C16.0118 9.25365 15.9335 9.30687 15.9399 9.39112C15.9416 9.4143 15.9432 9.43836 15.903 9.44608C15.8277 9.46056 15.784 9.54154 15.719 9.55308C15.6542 9.56472 15.5894 9.58497 15.5771 9.61969C15.5648 9.65441 15.5877 9.69066 15.5631 9.70796C15.5386 9.72538 15.5788 9.74127 15.5911 9.74987C15.6033 9.75857 15.6226 9.77305 15.6262 9.7933C15.6312 9.82203 15.6803 9.83063 15.7314 9.79906C15.7523 9.78611 15.7891 9.82519 15.8487 9.79765C15.9083 9.77022 15.9929 9.7847 15.9784 9.82954C15.9714 9.8512 15.9871 9.87438 16.0065 9.89604C16.0258 9.9177 16.0546 9.98312 16.038 10.0205C16.0135 10.0754 16.0625 10.1059 16.0503 10.155C16.038 10.2043 16.0573 10.2491 16.031 10.3156C16.0047 10.3821 16.0043 10.4654 16.0433 10.4892C16.0976 10.5225 16.0648 10.5885 16.1116 10.6166C16.1501 10.6397 16.1274 10.6962 16.1993 10.7135C16.2711 10.7309 16.2291 10.7771 16.3043 10.7873C16.3797 10.7974 16.406 10.8495 16.4848 10.8379C16.543 10.8294 16.5735 10.843 16.6074 10.8558C16.6144 10.9022 16.5989 11.0723 16.5953 11.1157C16.5921 11.1542 16.5708 11.2154 16.5708 11.2532C16.5708 11.2763 16.6198 11.2821 16.676 11.2821C16.7319 11.2821 16.7565 11.2604 16.7424 11.1997C16.7285 11.1388 16.725 10.9907 16.7286 10.8981C16.7772 10.9206 16.8235 10.9522 16.8214 10.987C16.8178 11.0434 16.8188 11.1446 16.809 11.1967C16.8022 11.2344 16.8126 11.2937 16.8161 11.3328C16.8197 11.3471 16.9142 11.3457 16.9528 11.3328C16.9913 11.3197 16.9913 11.285 16.9878 11.1273C16.9861 11.0492 16.9001 10.9695 17.0089 10.9305C17.0615 10.9117 17.135 10.8682 17.1631 10.8279C17.1911 10.7873 17.2525 10.8031 17.2963 10.8235C17.3401 10.8437 17.4102 10.8747 17.4541 10.8611C17.5101 10.8437 17.5697 10.8871 17.6188 10.8611C17.6678 10.835 17.731 10.8799 17.7712 10.8481C17.8115 10.8162 17.8816 10.8466 17.9114 10.8162C17.9412 10.7858 18.0639 10.8336 18.1078 10.7931C18.1515 10.7525 18.2111 10.8047 18.2515 10.7743C18.262 10.7662 18.2745 10.7645 18.2882 10.7655C18.2867 10.8339 18.2733 10.9429 18.2707 10.9769C18.2675 11.0154 18.2462 11.0766 18.2462 11.1142C18.2462 11.1374 18.2952 11.1432 18.3513 11.1432C18.4074 11.1432 18.4319 11.1215 18.418 11.0608C18.4039 11 18.424 10.8506 18.4275 10.7579Z" fill="white"/>
<path fill-rule="evenodd" clip-rule="evenodd" d="M14.5545 12.4189C14.5796 12.6562 14.6255 12.8804 14.6882 13.0918C14.8872 13.7635 15.2551 14.3062 15.6607 14.7328C16.0884 15.1826 16.558 15.5032 16.9155 15.7094C17.259 15.9075 17.4991 16 17.4991 16C17.4991 16 20.4654 14.8571 20.4654 12V9.33297C20.4654 8.59659 19.8456 8 19.0811 8H15.917C15.1525 8 14.5327 8.59659 14.5327 9.33297V12C14.5327 12.144 14.5402 12.2836 14.5545 12.4189ZM15.2904 12.6549C15.2611 12.5127 15.241 12.3645 15.2313 12.2099L15.4677 12.2857C15.5165 12.3013 15.5685 12.3042 15.6188 12.294C15.9662 12.2237 16.4519 12.1425 16.8541 12.0784C17.0545 12.0465 17.2329 12.0191 17.3611 11.9996L17.5124 11.9768L17.5208 11.9756L19.4509 12.296C19.4991 12.304 19.5485 12.3001 19.5949 12.2846L19.7656 12.2277C19.7564 12.3632 19.7391 12.4939 19.7147 12.6198L19.4015 12.7242L17.4984 12.4083C17.4677 12.4032 17.4354 12.403 17.4046 12.4075L17.3496 12.4157L17.1969 12.4387C17.0675 12.4584 16.8876 12.486 16.6855 12.5182C16.3107 12.5779 15.8548 12.6538 15.5027 12.7229L15.2904 12.6549ZM15.5135 13.331C15.5239 13.33 15.5343 13.3284 15.5446 13.3264C15.892 13.256 16.3777 13.1748 16.7799 13.1108C16.9803 13.0789 17.1587 13.0514 17.2869 13.0319L17.4382 13.0091L17.4466 13.0079L19.3767 13.3283C19.4133 13.3344 19.4507 13.3336 19.4869 13.326C19.2756 13.7846 18.969 14.1611 18.6419 14.4657C18.3267 14.3739 17.9468 14.3007 17.5 14.3007C17.0754 14.3007 16.6853 14.3795 16.3647 14.4735C16.0356 14.1686 15.7266 13.7912 15.5135 13.331ZM19.7733 9.33297V11.5927L19.4757 11.6919L17.5726 11.3759C17.5419 11.3708 17.5096 11.3707 17.4788 11.3752L17.4238 11.3834L17.2711 11.4064C17.1417 11.426 16.9618 11.4537 16.7597 11.4859C16.3849 11.5456 15.929 11.6215 15.5769 11.6906L15.2248 11.5777V9.33297C15.2248 8.96502 15.5345 8.66667 15.917 8.66667H19.0811C19.4636 8.66667 19.7733 8.96502 19.7733 9.33297Z" fill="white"/>
<defs>
<linearGradient id="paint0_linear_72961_150684" x1="0" y1="3" x2="0" y2="11.5714" gradientUnits="userSpaceOnUse">
<stop stop-color="white"/>
<stop offset="1" stop-color="#F0F0F0"/>
</linearGradient>
<linearGradient id="paint1_linear_72961_150684" x1="0" y1="3" x2="0" y2="11" gradientUnits="userSpaceOnUse">
<stop stop-color="#FF2E3B"/>
<stop offset="1" stop-color="#FC0D1B"/>
</linearGradient>
<linearGradient id="paint2_linear_72961_150684" x1="0" y1="3" x2="0" y2="11" gradientUnits="userSpaceOnUse">
<stop stop-color="#FF2E3B"/>
<stop offset="1" stop-color="#FC0D1B"/>
</linearGradient>
<linearGradient id="paint3_linear_72961_150684" x1="0" y1="3" x2="0" y2="11" gradientUnits="userSpaceOnUse">
<stop stop-color="#FF2E3B"/>
<stop offset="1" stop-color="#FC0D1B"/>
</linearGradient>
<linearGradient id="paint4_linear_72961_150684" x1="0" y1="3" x2="0" y2="11" gradientUnits="userSpaceOnUse">
<stop stop-color="#FF2E3B"/>
<stop offset="1" stop-color="#FC0D1B"/>
</linearGradient>
<linearGradient id="paint5_linear_72961_150684" x1="0" y1="3" x2="0" y2="11" gradientUnits="userSpaceOnUse">
<stop stop-color="#FF2E3B"/>
<stop offset="1" stop-color="#FC0D1B"/>
</linearGradient>
</defs>
</svg>
