<svg width="24" height="24" viewBox="0 0 24 24" fill="none" xmlns="http://www.w3.org/2000/svg">
<rect y="3" width="24" height="18" rx="2" fill="white"/>
<path fill-rule="evenodd" clip-rule="evenodd" d="M22 4H2C1.44772 4 1 4.44772 1 5V19C1 19.5523 1.44772 20 2 20H22C22.5523 20 23 19.5523 23 19V5C23 4.44771 22.5523 4 22 4ZM2 3C0.895431 3 0 3.89543 0 5V19C0 20.1046 0.89543 21 2 21H22C23.1046 21 24 20.1046 24 19V5C24 3.89543 23.1046 3 22 3H2Z" fill="#D6D8DE"/>
<path fill-rule="evenodd" clip-rule="evenodd" d="M0 13.8H6.85714V21H10.2857V13.8H24V10.2H10.2857V3H6.85714V10.2H0V13.8Z" fill="#235FB3"/>
<path fill-rule="evenodd" clip-rule="evenodd" d="M0 12.9H7.71429V21H9.42857V12.9H24V11.1H9.42857V3H7.71429V11.1H0V12.9Z" fill="#DE4648"/>
</svg>
