<svg width="24" height="24" viewBox="0 0 24 24" fill="none" xmlns="http://www.w3.org/2000/svg">
<rect y="3" width="24" height="18" rx="2" fill="#79CFF6"/>
<path d="M0 5C0 3.89543 0.895431 3 2 3H10V11H0V5Z" fill="#07319C"/>
<path d="M2.03252e-05 9.60929L3.33333 7.22835V6.73519L0.22739 4.07296C0.331861 3.87361 0.468974 3.69405 0.63163 3.5414L4 6.42857V7.57143L2.03252e-05 10.4286V9.60929Z" fill="white"/>
<path d="M10.9524 3V3.39989C10.9524 3.72284 10.7964 4.02591 10.5336 4.21362L6.95238 6.77165V7.2648L10.3317 10.1614C10.9348 10.6783 10.5692 11.6667 9.77485 11.6667C9.59651 11.6667 9.42263 11.6109 9.27751 11.5073L5.50064 8.80952H4.76263L2.03252e-05 11.7862V11L4.57143 8.14286H5.71429L9.665 10.9648C9.69706 10.9877 9.73546 11 9.77485 11C9.9503 11 10.031 10.7817 9.89784 10.6675L6.28571 7.57143V6.42857L10.1461 3.67113C10.2337 3.60856 10.2857 3.50754 10.2857 3.39989V3L10.9524 3Z" fill="white"/>
<path d="M9.02784 3L10.2857 3L5.71429 5.85714H4.57143L0.970449 3.28501C1.20126 3.14615 1.4624 3.05257 1.74157 3.01655L4.78507 5.19048H5.52309L9.02784 3Z" fill="white"/>
<path fill-rule="evenodd" clip-rule="evenodd" d="M0 5.85714V8.14286H4V10.9048C4 11.273 4.29848 11.5714 4.66667 11.5714H5.61905C5.98724 11.5714 6.28571 11.273 6.28571 10.9048V8.14286H10.1905C10.5587 8.14286 10.8571 7.84438 10.8571 7.47619V6.52381C10.8571 6.15562 10.5587 5.85714 10.1905 5.85714H6.28571V3H4V5.85714H0Z" fill="url(#paint0_linear_72961_150683)"/>
<path d="M0.620846 3.53215C0.724084 3.43571 0.837716 3.35017 0.959804 3.27741L4 5.44898V5.85714H3.33333L0.620846 3.53215Z" fill="url(#paint1_linear_72961_150683)"/>
<path d="M6.28571 5.5L10.2857 3V3.39989C10.2857 3.50754 10.2337 3.60856 10.1461 3.67113L7.08571 5.85714H6.28571V5.5Z" fill="url(#paint2_linear_72961_150683)"/>
<path d="M6.28571 8.14286H6.95238L9.89784 10.6675C10.031 10.7817 9.9503 11 9.77485 11C9.73546 11 9.69706 10.9877 9.665 10.9648L6.28571 8.55102V8.14286Z" fill="url(#paint3_linear_72961_150683)"/>
<path d="M4 8.14286V8.5L2.03252e-05 11L0 10.4286L3.2 8.14286H4Z" fill="url(#paint4_linear_72961_150683)"/>
<path d="M4.57143 6.42857H0V7.57143H4.57143V11H5.71429V7.57143H10.2857V6.42857H5.71429V3H4.57143V6.42857Z" fill="url(#paint5_linear_72961_150683)"/>
<path fill-rule="evenodd" clip-rule="evenodd" d="M15 12C15 10.2857 15 8 15 8H21C21 8 21 10.2857 21 12C21 14.8571 18 16 18 16C18 16 15 14.8571 15 12Z" fill="white"/>
<path d="M16.8 10.2857C16.8 10.6013 16.5314 10.8572 16.2 10.8572C15.8686 10.8572 15.6 10.6013 15.6 10.2857C15.6 9.97013 15.8686 9.71429 16.2 9.71429C16.5314 9.71429 16.8 9.97013 16.8 10.2857Z" fill="#2A915C"/>
<path d="M20.4 10.2857C20.4 10.6013 20.1314 10.8572 19.8 10.8572C19.4686 10.8572 19.2 10.6013 19.2 10.2857C19.2 9.97013 19.4686 9.71429 19.8 9.71429C20.1314 9.71429 20.4 9.97013 20.4 10.2857Z" fill="#2A915C"/>
<path d="M15 11.4286V12C15 12.1987 15.0145 12.3891 15.0415 12.5714H17.4V15.7038C17.7527 15.9058 18 16 18 16C18 16 18.2473 15.9058 18.6 15.7038V12.5714H20.9585C20.9855 12.3891 21 12.1987 21 12V11.4286H18.6V9.14286H21V8H15V9.14286H17.4V11.4286H15Z" fill="#EB1D43"/>
<defs>
<linearGradient id="paint0_linear_72961_150683" x1="0" y1="3" x2="0" y2="11.5714" gradientUnits="userSpaceOnUse">
<stop stop-color="white"/>
<stop offset="1" stop-color="#F0F0F0"/>
</linearGradient>
<linearGradient id="paint1_linear_72961_150683" x1="0" y1="3" x2="0" y2="11" gradientUnits="userSpaceOnUse">
<stop stop-color="#FF2E3B"/>
<stop offset="1" stop-color="#FC0D1B"/>
</linearGradient>
<linearGradient id="paint2_linear_72961_150683" x1="0" y1="3" x2="0" y2="11" gradientUnits="userSpaceOnUse">
<stop stop-color="#FF2E3B"/>
<stop offset="1" stop-color="#FC0D1B"/>
</linearGradient>
<linearGradient id="paint3_linear_72961_150683" x1="0" y1="3" x2="0" y2="11" gradientUnits="userSpaceOnUse">
<stop stop-color="#FF2E3B"/>
<stop offset="1" stop-color="#FC0D1B"/>
</linearGradient>
<linearGradient id="paint4_linear_72961_150683" x1="0" y1="3" x2="0" y2="11" gradientUnits="userSpaceOnUse">
<stop stop-color="#FF2E3B"/>
<stop offset="1" stop-color="#FC0D1B"/>
</linearGradient>
<linearGradient id="paint5_linear_72961_150683" x1="0" y1="3" x2="0" y2="11" gradientUnits="userSpaceOnUse">
<stop stop-color="#FF2E3B"/>
<stop offset="1" stop-color="#FC0D1B"/>
</linearGradient>
</defs>
</svg>
