<svg xmlns="http://www.w3.org/2000/svg" viewBox="0 0 24 24">
  <defs/>
  <path fill-rule="evenodd" d="M17.587 4.3H9.605a1.7 1.7 0 00-1.7 1.7v10.015a1.7 1.7 0 001.7 1.7h7.982a1.7 1.7 0 001.7-1.7V6a1.7 1.7 0 00-1.7-1.7zM9.605 3a3 3 0 00-3 3v10.015a3 3 0 003 3h7.982a3 3 0 003-3V6a3 3 0 00-3-3H9.605zM4.65 8.352a.65.65 0 01.65.65v9.461a1.85 1.85 0 001.85 1.85h8.443a.65.65 0 110 1.3H7.15A3.15 3.15 0 014 18.463V9.002a.65.65 0 01.65-.65zm5.624.832c.225-.088.455-.05.568.027a.184.184 0 01.08.104c.013.042.027.142-.033.325-.342 1.032-.892 2.636-1.17 3.277a.65.65 0 001.005.764l2.103-1.703.827.759a.65.65 0 001.005-.159c.088-.155.171-.337.244-.494l.042-.094c.09-.192.172-.359.265-.504.179-.275.353-.405.612-.427a.602.602 0 01.55.23 1.092 1.092 0 01.175.295l.005.012a.65.65 0 001.238-.398l-.62.196.62-.196-.001-.002-.001-.003-.002-.007-.007-.018a1.815 1.815 0 00-.094-.225 2.39 2.39 0 00-.321-.493 1.899 1.899 0 00-1.65-.686c-.805.066-1.29.546-1.595 1.015a4.282 4.282 0 00-.23.409l-.596-.547a.65.65 0 00-.848-.026l-.705.571c.14-.411.274-.809.383-1.137.126-.381.149-.76.044-1.108a1.483 1.483 0 00-.596-.806c-.518-.351-1.209-.382-1.771-.161a.65.65 0 10.474 1.21z"/>
</svg>
