<svg xmlns="http://www.w3.org/2000/svg" viewBox="0 0 24 24">
  <defs/>
  <path fill-rule="evenodd" d="M6.605 6a3 3 0 013-3h7.982a3 3 0 013 3v10.015a3 3 0 01-3 3H9.605a3 3 0 01-3-3V6zm4.843 2.966a.65.65 0 01.117.911l-.86 1.114.866 1.155a.65.65 0 11-1.04.78l-1.162-1.551a.65.65 0 01.005-.787l1.162-1.505a.65.65 0 01.912-.117zm4.229 3.172a.65.65 0 101.029.794l1.162-1.504a.65.65 0 00.005-.787l-1.162-1.55a.65.65 0 00-1.04.779l.866 1.155-.86 1.113zm-1.436-3.4a.65.65 0 01.463.795l-.87 3.29a.65.65 0 11-1.257-.331l.87-3.292a.65.65 0 01.794-.462zM5.3 9.002a.65.65 0 00-1.3 0v9.461a3.15 3.15 0 003.15 3.15h8.443a.65.65 0 100-1.3H7.15a1.85 1.85 0 01-1.85-1.85V9.002z"/>
</svg>
