<svg xmlns="http://www.w3.org/2000/svg" viewBox="0 0 24 24">
  <defs/>
  <path fill-rule="evenodd" d="M17.65 3.35a3 3 0 013 3v10a3 3 0 01-3 3h-8a3 3 0 01-3-3v-10a3 3 0 013-3h8zM4 9.35a.65.65 0 111.3 0v9.4a1.95 1.95 0 001.95 1.95h8.4a.65.65 0 110 1.3h-8.4A3.25 3.25 0 014 18.75v-9.4zm9.35 2.8c.04-.163.076-.319.118-.507l.23.332.034.05-.376.124-.005.002zm-1.214-.514c.079-.339.173-.776.257-1.243-.32-.337-.676-.715-.956-1.089-.28-.375-.581-.867-.592-1.398-.006-.29.076-.58.266-.835.183-.246.44-.425.73-.559.297-.137.629-.218.965-.148.357.075.61.296.77.552.285.452.335 1.089.327 1.634a11.38 11.38 0 01-.124 1.416l.111.15c.395.533.765 1.032 1.184 1.56 1.333-.216 2.35.048 2.942.636.381.379.577.903.451 1.429-.127.532-.548.915-1.09 1.083-.536.166-1.034-.012-1.416-.252-.381-.24-.735-.594-1.046-.957-.13-.152-.259-.314-.387-.48-.387.114-.77.245-1.153.374l-.428.145c-.077.252-.158.498-.242.733-.139.384-.291.75-.458 1.064-.162.303-.362.607-.613.82-.645.552-1.492.312-1.964-.048a1.673 1.673 0 01-.595-.836 1.453 1.453 0 01.143-1.159c.31-.541.811-.858 1.509-1.154.314-.134.697-.274 1.159-.434.09-.335.174-.675.25-1.004zm.467-3.104c0 .049-.002.098-.004.149a5.42 5.42 0 01-.12-.156c-.26-.347-.332-.553-.334-.645 0-.02.002-.023.009-.033.015-.02.07-.08.23-.154a.797.797 0 01.114-.044c.057.128.112.41.105.883zm4.05 4.94c-.188-.119-.401-.312-.635-.571.6.013.94.193 1.082.334.12.118.105.195.103.203 0 .003-.02.085-.21.144-.028.009-.122.026-.34-.11zm-5.418.798l.148-.061c-.094.24-.19.453-.284.63-.133.251-.242.386-.309.444 0 0-.018.018-.082.011a.51.51 0 01-.249-.104.38.38 0 01-.139-.178c-.009-.03-.014-.068.026-.137.096-.167.272-.342.89-.605z"/>
</svg>
