<svg xmlns="http://www.w3.org/2000/svg" viewBox="0 0 24 24">
  <defs/>
  <path fill-rule="evenodd" d="M6.605 6a3 3 0 013-3h7.982a3 3 0 013 3v10.015a3 3 0 01-3 3H9.605a3 3 0 01-3-3V6zm4.33 3.222c-.14-.089-.414-.129-.673-.033a.65.65 0 01-.45-1.22c.579-.213 1.287-.184 1.82.156.278.177.515.445.63.805.115.357.09.745-.047 1.13-.121.345-.271.764-.43 1.196l.86-.653a.65.65 0 01.817.025l.696.599c.078-.15.168-.309.275-.463.328-.475.836-.936 1.66-1a2.02 2.02 0 011.705.67 2.38 2.38 0 01.444.721l.007.02.002.006.001.003v.002l-.592.2.593-.2a.65.65 0 01-1.23.422l-.004-.01a1.081 1.081 0 00-.186-.292.724.724 0 00-.64-.247c-.31.025-.504.173-.69.443-.1.144-.187.311-.282.503l-.045.093c-.077.157-.166.34-.26.496a.65.65 0 01-.98.156l-.923-.794-2.286 1.738a.65.65 0 01-.983-.79c.296-.64.881-2.244 1.245-3.276.063-.178.046-.269.035-.302-.01-.032-.032-.067-.09-.104zM5.3 9.002a.65.65 0 00-1.3 0v9.461a3.15 3.15 0 003.15 3.15h8.443a.65.65 0 100-1.3H7.15a1.85 1.85 0 01-1.85-1.85V9.002z"/>
</svg>
