<svg xmlns="http://www.w3.org/2000/svg" viewBox="0 0 24 24">
  <defs/>
  <path fill-rule="evenodd" d="M17.587 4.3H9.605a1.7 1.7 0 00-1.7 1.7v10.015a1.7 1.7 0 001.7 1.7h7.982a1.7 1.7 0 001.7-1.7V6a1.7 1.7 0 00-1.7-1.7zM9.605 3a3 3 0 00-3 3v10.015a3 3 0 003 3h7.982a3 3 0 003-3V6a3 3 0 00-3-3H9.605zM4.65 8.352a.65.65 0 01.65.65v9.461a1.85 1.85 0 001.85 1.85h8.443a.65.65 0 110 1.3H7.15A3.15 3.15 0 014 18.463v-9.46a.65.65 0 01.65-.65zm6.915 1.525a.65.65 0 00-1.029-.794l-1.162 1.505a.65.65 0 00-.005.787l1.162 1.55a.65.65 0 001.04-.78l-.865-1.154.86-1.114zm4.23 3.173a.65.65 0 01-.118-.912l.86-1.113-.866-1.155a.65.65 0 111.04-.78l1.162 1.55a.65.65 0 01-.005.788l-1.162 1.504a.65.65 0 01-.912.118zm-1.091-3.517a.65.65 0 00-1.257-.333l-.87 3.292a.65.65 0 001.257.332l.87-3.291z"/>
</svg>
