<svg xmlns="http://www.w3.org/2000/svg" fill="currentColor" viewBox="0 0 57 13">
  <path d="M.28.8h6.544v1.856h-4.32V5.44h4.112v1.856H2.504V12H.28V.8Zm8.28 2.928h2.16V12H8.56V3.728ZM8.528.352h2.24V2.24h-2.24V.352Zm4.577 3.376h2.048v1.28h.032a3.503 3.503 0 0 1 1.104-1.024c.448-.267.976-.4 1.584-.4.939 0 1.659.299 2.16.896.502.597.752 1.456.752 2.576V12h-2.16V7.68c0-.832-.128-1.419-.384-1.76-.256-.341-.63-.512-1.12-.512-.586 0-1.045.235-1.376.704-.33.459-.496 1.147-.496 2.064V12h-2.144V3.728ZM24.92 12.16a3.46 3.46 0 0 1-1.072-.16 2.443 2.443 0 0 1-.864-.48 2.334 2.334 0 0 1-.56-.784 2.956 2.956 0 0 1-.192-1.104c0-.49.096-.912.288-1.264.192-.352.47-.64.832-.864a3.808 3.808 0 0 1 1.296-.48 8.182 8.182 0 0 1 1.696-.16h1.248v-.192c0-.267-.054-.485-.16-.656a1.08 1.08 0 0 0-.416-.432 1.56 1.56 0 0 0-.624-.24 3.388 3.388 0 0 0-.752-.08 7.46 7.46 0 0 0-1.216.112A6.805 6.805 0 0 0 23 5.792V4.048a7.92 7.92 0 0 1 1.424-.336 9.619 9.619 0 0 1 1.552-.128c.554 0 1.061.064 1.52.192.47.117.864.31 1.184.576.33.256.586.592.768 1.008.181.416.272.917.272 1.504V12h-2.064l.016-1.28h-.048c-.299.49-.694.853-1.184 1.088a3.48 3.48 0 0 1-1.52.352Zm.704-1.552c.277 0 .533-.053.768-.16a2.018 2.018 0 0 0 1.04-1.104c.106-.245.16-.501.16-.768V8.16h-1.088c-.726 0-1.254.128-1.584.384-.32.245-.48.57-.48.976 0 .363.112.635.336.816.224.181.506.272.848.272Zm6.17-6.88h2.048v1.28h.032a3.503 3.503 0 0 1 1.104-1.024c.448-.267.976-.4 1.584-.4.938 0 1.658.299 2.16.896.501.597.752 1.456.752 2.576V12h-2.16V7.68c0-.832-.128-1.419-.384-1.76-.256-.341-.63-.512-1.12-.512-.587 0-1.046.235-1.376.704-.331.459-.496 1.147-.496 2.064V12h-2.144V3.728ZM45.35 12.16c-.661 0-1.258-.101-1.792-.304a3.835 3.835 0 0 1-1.344-.864 3.952 3.952 0 0 1-.848-1.344 5.213 5.213 0 0 1-.288-1.776c0-.63.096-1.205.288-1.728a3.74 3.74 0 0 1 .832-1.36 3.727 3.727 0 0 1 1.344-.88c.523-.213 1.12-.32 1.792-.32.49 0 .918.037 1.28.112.374.075.63.133.768.176v1.664a7.144 7.144 0 0 0-.672-.176 4.117 4.117 0 0 0-1.024-.112c-.778 0-1.37.219-1.776.656-.405.427-.608 1.077-.608 1.952 0 .917.224 1.59.672 2.016.448.416 1.046.624 1.792.624a3.98 3.98 0 0 0 1.024-.112c.288-.085.49-.155.608-.208v1.696c-.085.021-.31.075-.672.16-.352.085-.81.128-1.376.128Zm5.608-3.728c.202 1.376 1.03 2.064 2.48 2.064.405 0 .837-.043 1.296-.128.47-.096.901-.203 1.296-.32v1.728c-.267.075-.646.155-1.136.24-.48.096-1.03.144-1.648.144-1.45 0-2.56-.39-3.328-1.168-.768-.779-1.152-1.85-1.152-3.216 0-.64.096-1.216.288-1.728.202-.523.48-.965.832-1.328.362-.363.79-.64 1.28-.832a4.192 4.192 0 0 1 1.616-.304c1.226 0 2.165.379 2.816 1.136.65.757.976 1.84.976 3.248v.464h-5.616Zm1.824-3.2c-.534 0-.95.176-1.248.528-.299.341-.49.784-.576 1.328h3.504c.021-.576-.128-1.03-.448-1.36-.31-.33-.72-.496-1.232-.496Z"/>
</svg>
