<svg xmlns="http://www.w3.org/2000/svg" viewBox="0 0 24 24">
  <path d="M18.046 2.905a.65.65 0 0 0-.897.941l1.581 1.508h-6.058a3.65 3.65 0 0 0-3.65 3.65v2.353H3.644a.65.65 0 1 0 0 1.3h5.378v2.354a3.65 3.65 0 0 0 3.65 3.65h6.025l-1.549 1.449a.65.65 0 0 0 .888.949l2.75-2.573a.648.648 0 0 0 .034-.033l.003-.004a.476.476 0 0 0 .057-.07.65.65 0 0 0-.082-.845l-2.757-2.628a.65.65 0 0 0-.897.94l1.588 1.514h-6.06a2.35 2.35 0 0 1-2.35-2.35V9.005a2.35 2.35 0 0 1 2.35-2.35h6.036L17.153 8.11a.65.65 0 1 0 .888.95l2.75-2.574a.65.65 0 0 0 .012-.952l-2.757-2.628Z"/>
</svg>
