<svg xmlns="http://www.w3.org/2000/svg" viewBox="0 0 24 24">
  <path fill-rule="evenodd" d="M2 5a3 3 0 0 1 3-3h14a3 3 0 0 1 3 3v14a3 3 0 0 1-3 3H5a3 3 0 0 1-3-3V5Zm14.154 15.057a.65.65 0 0 1 .03-.919l1.59-1.488h-4.433A3.65 3.65 0 0 1 9.69 14v-1.343H4.654a.65.65 0 1 1 0-1.3h5.037V10a3.65 3.65 0 0 1 3.65-3.65h4.363l-1.548-1.475a.65.65 0 0 1 .897-.94l2.753 2.623a.903.903 0 0 1 .01.01l.008.007a.647.647 0 0 1-.022.936l-2.753 2.576a.65.65 0 1 1-.888-.949l1.59-1.488h-4.41A2.35 2.35 0 0 0 10.99 10v4a2.35 2.35 0 0 0 2.35 2.35h4.386l-1.547-1.475a.65.65 0 1 1 .897-.94l2.753 2.623a.648.648 0 0 1-.004.953l-2.753 2.576a.65.65 0 0 1-.92-.03Z"/>
</svg>
