<svg xmlns="http://www.w3.org/2000/svg" viewBox="0 0 24 24">
  <defs/>
  <path fill-rule="evenodd" d="M12.525 6.568l-.76-.456a3 3 0 00-3.664.451l-.48.48-3.742 3.743a3 3 0 00-.058 4.183l5.504 5.816a.7.7 0 00.474.218c.035.006.072.01.109.01h6.708a.65.65 0 100-1.3h-2.557l3.086-3.132.487-.487a3 3 0 00.45-3.665l-.508-.848a1.3 1.3 0 01.446-1.783l1.547-.928a3 3 0 00.578-4.694l-.297-.297a3 3 0 00-4.804.78l-.688 1.375a1.3 1.3 0 01-1.831.534zM8.54 7.963l7.692 7.692.48-.48a1.7 1.7 0 00.256-2.077l-.509-.848a2.6 2.6 0 01.892-3.567l1.547-.928a1.7 1.7 0 00.328-2.66l-.297-.297a1.7 1.7 0 00-2.722.442l-.688 1.376a2.6 2.6 0 01-3.663 1.066l-.76-.455a1.7 1.7 0 00-2.076.256l-.48.48z"/>
</svg>
