<svg width="24" height="24" viewBox="0 0 24 24" fill="none" xmlns="http://www.w3.org/2000/svg">
<rect y="3" width="24" height="18" rx="2" fill="#083B9A"/>
<path fill-rule="evenodd" clip-rule="evenodd" d="M0 12.9H4.28571V3H2C0.89543 3 0 3.89543 0 5V12.9Z" fill="#083B9A"/>
<path fill-rule="evenodd" clip-rule="evenodd" d="M4.28571 12.9H8.57142V3H4.28571V12.9Z" fill="white"/>
<path fill-rule="evenodd" clip-rule="evenodd" d="M8.57144 12.9H12.8572V3H8.57144V12.9Z" fill="#F44653"/>
<path d="M0 13.0996H13.1163V3H12.8572V12.9H0V13.0996Z" fill="white"/>
<path d="M15.0284 12.8617L15.2179 13.4741H15.8312L15.335 13.8526L15.5245 14.4651L15.0284 14.0866L14.5322 14.4651L14.7217 13.8526L14.2256 13.4741H14.8389L15.0284 12.8617Z" fill="white"/>
<path d="M21.3123 12.8617L21.5019 13.4741H22.1151L21.619 13.8526L21.8085 14.4651L21.3123 14.0866L20.8162 14.4651L21.0057 13.8526L20.5095 13.4741H21.1228L21.3123 12.8617Z" fill="white"/>
<path d="M19.8586 16.9486L20.0481 17.5611H20.6614L20.1652 17.9396L20.3548 18.552L19.8586 18.1735L19.3624 18.552L19.552 17.9396L19.0558 17.5611H19.6691L19.8586 16.9486Z" fill="white"/>
<path d="M16.4352 16.9486L16.6247 17.5611H17.238L16.7419 17.9396L16.9314 18.552L16.4352 18.1735L15.9391 18.552L16.1286 17.9396L15.6324 17.5611H16.2457L16.4352 16.9486Z" fill="white"/>
<path d="M18.1234 18.3273L18.3129 18.9398H18.9262L18.4301 19.3183L18.6196 19.9307L18.1234 19.5522L17.6273 19.9307L17.8168 19.3183L17.3206 18.9398H17.9339L18.1234 18.3273Z" fill="white"/>
<path fill-rule="evenodd" clip-rule="evenodd" d="M17.1386 16.0869L18.1703 17.7857L19.202 16.0869H20.0696L20.2103 16.3578H21.1013L19.671 13.9696L18.6158 15.693V14.1173H19.2489L19.7179 13.3295H18.6158V12.8371H20.0227L20.5151 12H15.8256L16.318 12.8371H17.7248V13.3295H16.6228L17.0917 14.1173H17.7248V15.693L16.6697 13.9696L15.2394 16.3578H16.1304L16.2711 16.0869H17.1386ZM16.9745 15.5207L16.6931 15.0283L16.4118 15.5207H16.9745ZM19.3662 15.5207L19.6475 15.0283L19.9289 15.5207H19.3662Z" fill="white"/>
</svg>
