<svg xmlns="http://www.w3.org/2000/svg" viewBox="0 0 24 24">
  <defs/>
  <path fill-rule="evenodd" d="M7.797 6.877V4.946a.65.65 0 011.3 0v2.8a1.35 1.35 0 01-1.35 1.35h-2.8a.65.65 0 110-1.3h1.93L4.192 5.11a.65.65 0 01.92-.92l2.686 2.687zm-3.501 8.666a.65.65 0 01.65-.65h2.8c.746 0 1.35.604 1.35 1.35v2.8a.65.65 0 11-1.3 0v-1.931L5.11 19.799a.65.65 0 01-.92-.92l2.687-2.687H4.946a.65.65 0 01-.65-.65zm10.613 3.508a.65.65 0 101.3 0V17.12l2.686 2.686a.65.65 0 10.92-.919L17.128 16.2h1.931a.65.65 0 100-1.3h-2.8a1.35 1.35 0 00-1.35 1.35v2.8zm4.796-10.605a.65.65 0 01-.65.65h-2.8a1.35 1.35 0 01-1.35-1.35v-2.8a.65.65 0 111.3 0v1.931L18.89 4.19a.65.65 0 11.92.92l-2.687 2.686h1.93a.65.65 0 01.65.65z"/>
</svg>
