<svg xmlns="http://www.w3.org/2000/svg" viewBox="0 0 24 24">
  <defs/>
  <path fill-rule="evenodd" d="M4.65 8.8A.65.65 0 014 8.15v-2.8C4 4.604 4.606 4 5.35 4h2.801a.65.65 0 010 1.3H6.22l2.686 2.687a.65.65 0 01-.919.92L5.301 6.218v1.932a.65.65 0 01-.65.65zm1.57 9.889h1.93a.65.65 0 110 1.3h-2.8A1.35 1.35 0 014 18.639v-2.8a.65.65 0 111.3 0v1.93l2.687-2.686a.65.65 0 01.92.92l-2.688 2.686zm12.485-.912v-1.93a.65.65 0 111.3 0v2.8a1.35 1.35 0 01-1.35 1.35h-2.8a.65.65 0 110-1.3h1.931l-2.687-2.687a.65.65 0 01.92-.92l2.686 2.687zM15.2 4.65a.65.65 0 01.65-.65h2.8c.746 0 1.35.604 1.35 1.35v2.8a.65.65 0 11-1.3 0V6.22l-2.686 2.686a.65.65 0 01-.92-.92L17.782 5.3h-1.93a.65.65 0 01-.65-.65z"/>
</svg>
