<svg xmlns="http://www.w3.org/2000/svg" viewBox="0 0 24 24">
  <defs/>
  <path fill-rule="evenodd" d="M7.85 10.1a4.15 4.15 0 118.3 0 4.15 4.15 0 01-8.3 0zM12 7.25a2.85 2.85 0 100 5.7 2.85 2.85 0 000-5.7z"/>
  <path fill-rule="evenodd" d="M11.624 3.13c3.272-.198 6.748 1.71 7.265 5.937.036.298.058.575.062.824.018 1.346-.41 2.708-1.022 3.967-.614 1.264-1.433 2.462-2.242 3.491a30.503 30.503 0 01-2.23 2.522c-.333.338-.67.672-1.025.987a.65.65 0 01-.863 0c.044-.05 0 0 0 0a21.98 21.98 0 01-1.025-.987 30.513 30.513 0 01-2.23-2.522c-.809-1.03-1.628-2.227-2.242-3.49-.612-1.26-1.04-2.622-1.021-3.968.06-4.254 3.302-6.564 6.573-6.761zM12 19.483a29.19 29.19 0 01-2.664-2.937c-.775-.985-1.535-2.103-2.096-3.256-.563-1.158-.905-2.312-.89-3.381.048-3.433 2.61-5.316 5.351-5.482 2.739-.165 5.48 1.394 5.896 4.798.033.266.05.494.053.684.015 1.069-.328 2.223-.89 3.38-.561 1.154-1.322 2.272-2.096 3.257A29.188 29.188 0 0112 19.483z"/>
</svg>
