<svg width="24" height="24" viewBox="0 0 24 24" fill="none" xmlns="http://www.w3.org/2000/svg">
<path d="M0 5.00001C0 3.89544 0.895431 3.00001 2 3.00001H22C23.1046 3.00001 24 3.89544 24 5.00001V19C24 20.1046 23.1046 21 22 21H2C0.89543 21 0 20.1046 0 19V5.00001Z" fill="white"/>
<path fill-rule="evenodd" clip-rule="evenodd" d="M22 4.00001H2C1.44772 4.00001 1 4.44773 1 5.00001V19C1 19.5523 1.44772 20 2 20H22C22.5523 20 23 19.5523 23 19V5.00001C23 4.44773 22.5523 4.00001 22 4.00001ZM2 3.00001C0.895431 3.00001 0 3.89544 0 5.00001V19C0 20.1046 0.89543 21 2 21H22C23.1046 21 24 20.1046 24 19V5.00001C24 3.89544 23.1046 3.00001 22 3.00001H2Z" fill="#D6D8DE"/>
<path d="M13.7143 21H10.2857V13.8H0V10.2H10.2857V2.99997H13.7143V10.2H24V13.8H13.7143V21Z" fill="#FF2B37"/>
<path d="M18.5143 6.95998L17.1429 7.19998V5.99998L18.5143 6.23998L18.2857 4.79999H19.4286L19.2 6.23998L20.5714 5.99998V7.19998L19.2 6.95998L19.4286 8.39999H18.2857L18.5143 6.95998Z" fill="#FD0D1B"/>
<path d="M4.79999 6.95998L3.42856 7.19998V5.99998L4.79998 6.23998L4.57142 4.79999H5.71427L5.4857 6.23998L6.85713 5.99998V7.19998L5.4857 6.95998L5.71427 8.39999H4.57142L4.79999 6.95998Z" fill="#FD0D1B"/>
<path d="M4.79999 17.76L3.42856 18V16.8L4.79999 17.04L4.57142 15.6H5.71427L5.4857 17.04L6.85713 16.8V18L5.4857 17.76L5.71427 19.2H4.57142L4.79999 17.76Z" fill="#FD0D1B"/>
<path d="M18.5143 17.76L17.1429 18V16.8L18.5143 17.04L18.2857 15.6H19.4286L19.2 17.04L20.5714 16.8V18L19.2 17.76L19.4286 19.2H18.2857L18.5143 17.76Z" fill="#FD0D1B"/>
</svg>
