<svg xmlns="http://www.w3.org/2000/svg" viewBox="0 0 24 24">
  <defs/>
  <path fill-rule="evenodd" d="M11.623 3.13c3.273-.198 6.75 1.71 7.266 5.937.036.298.058.575.062.824.018 1.346-.41 2.708-1.022 3.967-.614 1.264-1.433 2.462-2.242 3.491a30.502 30.502 0 01-3.177 3.439l-.076.069-.002.001a.65.65 0 01-.863 0 27.783 27.783 0 01-1.025-.986 30.501 30.501 0 01-2.23-2.523c-.81-1.03-1.628-2.227-2.242-3.49-.612-1.26-1.04-2.622-1.021-3.968.06-4.254 3.302-6.564 6.572-6.761zM7.85 10.1a4.15 4.15 0 118.3 0 4.15 4.15 0 01-8.3 0z"/>
</svg>
