<svg width="24" height="24" viewBox="0 0 24 24" fill="none" xmlns="http://www.w3.org/2000/svg">
<path fill-rule="evenodd" clip-rule="evenodd" d="M0 19C0 20.1046 0.895431 21 2 21H22C23.1046 21 24 20.1046 24 19V15H0V19Z" fill="#118B56"/>
<path fill-rule="evenodd" clip-rule="evenodd" d="M0 15H24V9H0V15Z" fill="#FDD64C"/>
<path fill-rule="evenodd" clip-rule="evenodd" d="M0 9H24V5C24 3.89543 23.1046 3 22 3H2C0.89543 3 0 3.89543 0 5V9Z" fill="#E71F37"/>
<path fill-rule="evenodd" clip-rule="evenodd" d="M12.1399 13.3686L10.4605 14.5843L11.0977 12.6115L9.42255 11.3899L11.4958 11.3864L12.1399 9.41571L12.7839 11.3864L14.8572 11.3899L13.182 12.6115L13.8192 14.5843L12.1399 13.3686Z" fill="#262626"/>
</svg>
