<svg width="24" height="24" viewBox="0 0 24 24" fill="none" xmlns="http://www.w3.org/2000/svg">
<rect y="3" width="24" height="18" rx="2" fill="white"/>
<path fill-rule="evenodd" clip-rule="evenodd" d="M22 4H2C1.44772 4 1 4.44772 1 5V19C1 19.5523 1.44772 20 2 20H22C22.5523 20 23 19.5523 23 19V5C23 4.44771 22.5523 4 22 4ZM2 3C0.895431 3 0 3.89543 0 5V19C0 20.1046 0.89543 21 2 21H22C23.1046 21 24 20.1046 24 19V5C24 3.89543 23.1046 3 22 3H2Z" fill="#D6D8DE"/>
<path fill-rule="evenodd" clip-rule="evenodd" d="M0 19C0 20.1046 0.895431 21 2 21H22C23.1046 21 24 20.1046 24 19V15H0V19Z" fill="#E34F4F"/>
<path fill-rule="evenodd" clip-rule="evenodd" d="M8 15H15V10H8V15Z" fill="#E34F4F"/>
<path fill-rule="evenodd" clip-rule="evenodd" d="M8 9H9V8H8V9Z" fill="#E34F4F"/>
<path fill-rule="evenodd" clip-rule="evenodd" d="M14 9H15V8H14V9Z" fill="#E34F4F"/>
<path fill-rule="evenodd" clip-rule="evenodd" d="M10 9H13V8H10V9Z" fill="#E34F4F"/>
<path fill-rule="evenodd" clip-rule="evenodd" d="M9 15H10V14H9V15Z" fill="#181A1A"/>
<path fill-rule="evenodd" clip-rule="evenodd" d="M13 15H14V14H13V15Z" fill="#181A1A"/>
<path fill-rule="evenodd" clip-rule="evenodd" d="M8 10H9V9H8V10Z" fill="#181A1A"/>
<path fill-rule="evenodd" clip-rule="evenodd" d="M14 10H15V9H14V10Z" fill="#181A1A"/>
<path fill-rule="evenodd" clip-rule="evenodd" d="M10 10H13V9H10V10Z" fill="#181A1A"/>
</svg>
