<svg xmlns="http://www.w3.org/2000/svg" viewBox="0 0 24 24">
  <path fill-rule="evenodd" d="M5 6.403h14a1.7 1.7 0 0 1 1.7 1.7v7.794a1.7 1.7 0 0 1-1.7 1.7H5a1.7 1.7 0 0 1-1.7-1.7V8.103a1.7 1.7 0 0 1 1.7-1.7Zm-3 1.7a3 3 0 0 1 3-3h14a3 3 0 0 1 3 3v7.794a3 3 0 0 1-3 3H5a3 3 0 0 1-3-3V8.103Zm7.096.284a.65.65 0 0 0-1.197.001L5.06 15.1a.65.65 0 0 0 1.198.506l.678-1.601h3.137l.682 1.602a.65.65 0 1 0 1.196-.508L9.096 8.386Zm.423 4.317L8.5 10.306l-1.014 2.399H9.52Zm4.484-2.707a.65.65 0 0 1 .65.65v2.542a1.52 1.52 0 1 0 3.039 0v-2.542a.65.65 0 0 1 1.3 0v2.542a2.82 2.82 0 0 1-5.64 0v-2.542a.65.65 0 0 1 .65-.65Z"/>
</svg>
