<svg xmlns="http://www.w3.org/2000/svg" viewBox="0 0 24 24">
  <path d="m9.513 12.703-1.02-2.399-1.015 2.399h2.035Z"/>
  <path fill-rule="evenodd" d="M5 5.005a3 3 0 0 0-3 3v7.99a3 3 0 0 0 3 3h14a3 3 0 0 0 3-3v-7.99a3 3 0 0 0-3-3H5Zm4.09 3.38a.65.65 0 0 0-1.197.001l-2.84 6.712a.65.65 0 1 0 1.198.506l.677-1.601h3.138l.681 1.602a.65.65 0 1 0 1.197-.508L9.09 8.385ZM14 9.995a.65.65 0 0 1 .65.65v2.534a1.528 1.528 0 1 0 3.056 0v-2.534a.65.65 0 0 1 1.3 0v2.534a2.828 2.828 0 1 1-5.656 0v-2.534a.65.65 0 0 1 .65-.65Z"/>
</svg>
