<svg xmlns="http://www.w3.org/2000/svg" viewBox="0 0 24 24">
  <defs/>
  <path d="M12.25 1.434l-.205.412a.3.3 0 01-.537 0l-.206-.412A.3.3 0 0111.571 1h.412a.3.3 0 01.268.434z"/>
  <path d="M10.84 2.033a.29.29 0 01.308.16l.36.72a.3.3 0 00.537 0l.36-.722a.29.29 0 01.308-.159c.425.074.85.203 1.064.417.472.472.052 1.837-.417 2.408a.265.265 0 01-.208.092h-2.751a.265.265 0 01-.207-.092c-.47-.571-.89-1.936-.417-2.408.212-.213.639-.342 1.064-.416z"/>
  <path d="M16.511 21.555l-4.734 1.894-4.735-1.894a.288.288 0 01-.165-.373c.56-1.39 1.851-3.143 3.233-4.587a.288.288 0 00.081-.18c.083-1.269-.653-1.952-1.898-1.79 0 .571-.313 1.895-1.871 1.895C4.863 16.52 1 14.626 1 9.449c0-2.63.72-4.13 1.08-4.714.095-.156.303-.164.424-.027.768.877 3.266 3.722 4.063 4.54.114.116.13.304.047.443-.869 1.461.303 2.836 1.547 2.548 1.196-.277 1.571-1.668 1.24-2.79-.23-.784-.792-1.483-1.472-1.942-.332.113-.669.245-.892.335-.087.035-.166-.055-.113-.133a3.49 3.49 0 01.424-.521c-.476-.206-.978-.292-1.448-.213a.104.104 0 01-.123-.101c.006-.5.078-1.025 1-1.025.172 0 .34.005.504.016.024-.219.149-.416.496-.416h2.291c.084 0 .127.094.068.154a3.14 3.14 0 01-.972.677c1.153.467 1.982 1.274 2.613 2.22.63-.946 1.46-1.753 2.613-2.22a2.59 2.59 0 01-.245-.12 3.253 3.253 0 01-.728-.557c-.059-.06-.016-.154.068-.154h2.292c.19 0 .313.06.39.149a.486.486 0 01.105.267c.164-.01.332-.016.505-.016.922 0 .993.525 1 1.025 0 .064-.06.112-.124.101-.47-.079-.972.007-1.448.213a3.434 3.434 0 01.424.52c.053.08-.026.169-.113.134l-.053-.022a18.1 18.1 0 00-.786-.295l-.053-.018c-.68.46-1.242 1.158-1.472 1.942-.33 1.122.044 2.513 1.24 2.79 1.244.288 2.416-1.087 1.547-2.548a.373.373 0 01.047-.443c.797-.818 3.295-3.663 4.064-4.54.12-.137.328-.13.424.027.358.583 1.08 2.084 1.08 4.714 0 5.177-3.864 7.07-5.422 7.07-1.559 0-1.872-1.323-1.872-1.893-1.245-.163-1.98.52-1.898 1.79.004.067.034.13.08.179 1.383 1.444 2.674 3.198 3.234 4.587a.288.288 0 01-.165.373z"/>
</svg>
