<svg xmlns="http://www.w3.org/2000/svg" viewBox="0 0 24 24">
  <defs/>
  <path fill-rule="evenodd" d="M10.015 14.71c.623.23.957.828.9 1.705a.288.288 0 01-.081.18C9.452 18.038 8.16 19.793 7.6 21.181a.288.288 0 00.165.374L12.5 23.45l4.735-1.894a.288.288 0 00.165-.374c-.56-1.388-1.851-3.143-3.234-4.586a.288.288 0 01-.08-.18c-.058-.877.276-1.474.899-1.706a1.66 1.66 0 01.327-.083c.203-.032.428-.032.672 0 0 .687.325 1.425 1.508 1.761 2.82.8 5.508-1.98 5.508-6.438 0-1.997-.326-3.506-.605-4.433l-.002-.008a11.269 11.269 0 00-.22-.648c-.076-.2-.325-.237-.466-.076a517.398 517.398 0 01-.439.5l-.003.003a385.983 385.983 0 01-2.137 2.412 61.89 61.89 0 01-1.419 1.549.373.373 0 00-.046.443c.868 1.461-.304 2.836-1.547 2.548-1.196-.277-1.572-1.668-1.241-2.79.444-1.51 2.116-2.706 3.501-2.474.024.004.048 0 .068-.01a.103.103 0 00.05-.056.097.097 0 00.006-.035 2.045 2.045 0 00-.038-.412.694.694 0 00-.4-.516 1.383 1.383 0 00-.562-.097c-2.015 0-3.38.748-4.358 1.823a6.993 6.993 0 00-.642.828 6.993 6.993 0 00-.642-.828C10.88 6.597 9.515 5.85 7.5 5.85c-.24 0-.423.036-.562.097a.694.694 0 00-.4.516 2.052 2.052 0 00-.038.412c0 .012.002.024.006.035a.103.103 0 00.05.056c.02.01.044.014.068.01 1.385-.232 3.057.965 3.501 2.474.33 1.122-.045 2.513-1.24 2.79-1.244.288-2.416-1.087-1.547-2.548a.373.373 0 00-.047-.443 61.753 61.753 0 01-1.603-1.754 383.263 383.263 0 01-1.953-2.207l-.003-.003a373.576 373.576 0 01-.439-.5c-.14-.16-.39-.124-.466.076a9.45 9.45 0 00-.22.648l-.002.008C2.325 6.443 2 7.952 2 9.949c0 4.457 2.688 7.239 5.508 6.438 1.183-.336 1.508-1.075 1.508-1.761.244-.032.469-.032.672 0 .116.017.225.046.327.083zM3.397 6.416A15.086 15.086 0 003 9.949c0 2.04.615 3.595 1.444 4.526.813.915 1.809 1.229 2.79.95.426-.12.594-.282.665-.379a.685.685 0 00.117-.42v-.879l.87-.113c.818-.107 1.649.045 2.262.62.613.576.819 1.397.765 2.226-.021.32-.16.601-.357.807-1.116 1.166-2.13 2.5-2.722 3.618l3.666 1.467 3.666-1.467c-.592-1.117-1.606-2.453-2.722-3.618a1.288 1.288 0 01-.357-.807c-.054-.829.152-1.65.765-2.226.614-.575 1.444-.727 2.261-.62l.87.113v.879c0 .186.044.32.118.42.07.097.239.258.665.379.982.279 1.977-.035 2.79-.95C21.385 13.544 22 11.988 22 9.95c0-1.488-.191-2.68-.397-3.532-.91 1.032-2.148 2.429-2.864 3.198.825 2.019-.813 4.07-2.849 3.598-.979-.226-1.602-.92-1.9-1.691-.29-.75-.295-1.605-.074-2.356.175-.596.489-1.14.883-1.603-.603.385-1.074.902-1.467 1.492l-.832 1.248-.832-1.248c-.393-.59-.864-1.107-1.467-1.492.394.462.707 1.007.883 1.603.221.75.215 1.607-.074 2.355-.298.772-.921 1.466-1.9 1.692-2.036.471-3.674-1.58-2.85-3.598a194.322 194.322 0 01-2.863-3.198zm13.465 14.21h.001l.266.664-.266-.664zm1.531-13.752l-.017.1z"/>
  <path d="M11.564 2.033a.29.29 0 01.308.16l.36.72a.3.3 0 00.536 0l.36-.722a.29.29 0 01.308-.159c.425.074.85.203 1.064.417.472.472.052 1.837-.417 2.408a.265.265 0 01-.207.092h-2.752a.265.265 0 01-.207-.092c-.47-.571-.89-1.936-.417-2.408.213-.213.639-.342 1.064-.416z"/>
  <path d="M12.974 1.434l-.206.412a.3.3 0 01-.536 0l-.206-.412A.3.3 0 0112.294 1h.412a.3.3 0 01.268.434zM8.593 6.426a2.432 2.432 0 01-.093-.012c-.459-.07-.39-.215-.39-.215s-.021 0-.045-.02C8.035 6.15 8 6.088 8 5.948c0-.128.029-.256.11-.35.076-.09.2-.15.39-.15h2.292c.084 0 .126.094.067.154a3.323 3.323 0 01-.728.558 2.15 2.15 0 01-1.034.288h-.02c-.19 0-.345-.009-.468-.022l-.016-.001zM16.89 5.598c-.076-.09-.2-.149-.39-.149h-2.292c-.084 0-.126.094-.067.154a3.304 3.304 0 00.728.558 2.15 2.15 0 001.034.288h.02c.19 0 .345-.009.468-.022l.015-.001.094-.012c.459-.07.39-.215.39-.215s.021 0 .045-.02c.03-.028.065-.09.065-.23a.535.535 0 00-.11-.351zM8.6 7.525a10.475 10.475 0 01.517-.162c.184-.05.344-.082.453-.082.333 0 .244-.27 0-.451a.78.78 0 00-.655-.14 1.523 1.523 0 00-.661.333 3.155 3.155 0 00-.607.686c-.052.078.026.168.114.133l.053-.022c.208-.083.496-.195.785-.295zM15.883 7.363a6.618 6.618 0 01.518.162c.289.1.577.212.785.295l.053.022c.088.035.166-.055.114-.133a3.155 3.155 0 00-.607-.686 1.523 1.523 0 00-.661-.334.78.78 0 00-.655.14c-.244.182-.333.452 0 .452.109 0 .269.032.453.082z"/>
</svg>
