<svg width="24" height="24" viewBox="0 0 24 24" fill="none" xmlns="http://www.w3.org/2000/svg">
<path d="M0 4.99999C0 3.89542 0.895431 2.99999 2 2.99999H22C23.1046 2.99999 24 3.89542 24 4.99999V19C24 20.1046 23.1046 21 22 21H2C0.89543 21 0 20.1046 0 19V4.99999Z" fill="#0A17A7"/>
<path d="M0.000632891 19.0509L5.72038 15H1.43051e-05V9.00002H5.72037L0.000630514 4.9491C0.0228486 4.05915 0.626411 3.31354 1.44585 3.07773L9.14287 8.52902V2.99997H14.8572V8.52904L22.5542 3.07774C23.3736 3.31356 23.9772 4.05918 23.9994 4.94914L18.2797 9.00002H24V15H18.2797L23.9994 19.0509C23.9771 19.9408 23.3735 20.6864 22.5541 20.9222L14.8572 15.471V21H9.14287V15.471L1.44595 20.9222C0.626488 20.6865 0.0228925 19.9409 0.000632891 19.0509Z" fill="white"/>
<path d="M0.826533 20.6197C0.643047 20.4865 0.483068 20.323 0.353999 20.1364L7.77242 14.9708C7.9235 14.8656 8.13125 14.9028 8.23645 15.0539C8.34165 15.205 8.30446 15.4127 8.15338 15.5179L0.826533 20.6197Z" fill="#DB1F35"/>
<path d="M23.8812 19.6806C23.8039 19.8941 23.6914 20.0907 23.5506 20.2633L16.9612 15.5998C16.811 15.4935 16.7754 15.2854 16.8817 15.1352C16.9881 14.9849 17.1961 14.9493 17.3464 15.0557L23.8812 19.6806Z" fill="#DB1F35"/>
<path d="M23.6269 3.83646L16.1906 8.97324C16.0391 9.07787 15.8315 9.0399 15.7269 8.88843C15.6222 8.73696 15.6602 8.52935 15.8117 8.42472L23.1444 3.35952C23.331 3.48996 23.4944 3.65144 23.6269 3.83646Z" fill="#DB1F35"/>
<path d="M0.119723 4.31678C0.19726 4.10343 0.310075 3.90701 0.451114 3.73458L7.05444 8.40732C7.20472 8.51366 7.24034 8.72169 7.134 8.87196C7.02765 9.02224 6.81963 9.05785 6.66935 8.95152L0.119723 4.31678Z" fill="#DB1F35"/>
<path fill-rule="evenodd" clip-rule="evenodd" d="M0 13.8H10.2857V21H13.7143V13.8H24V10.2H13.7143V2.99999H10.2857V10.2H0V13.8Z" fill="#E6273E"/>
</svg>
