<svg width="24" height="24" viewBox="0 0 24 24" fill="none" xmlns="http://www.w3.org/2000/svg">
<path d="M0 5C0 3.89543 0.895431 3 2 3H22C23.1046 3 24 3.89543 24 5V19C24 20.1046 23.1046 21 22 21H2C0.89543 21 0 20.1046 0 19V5Z" fill="white"/>
<path fill-rule="evenodd" clip-rule="evenodd" d="M22 4H2C1.44772 4 1 4.44772 1 5V19C1 19.5523 1.44772 20 2 20H22C22.5523 20 23 19.5523 23 19V5C23 4.44771 22.5523 4 22 4ZM2 3C0.895431 3 0 3.89543 0 5V19C0 20.1046 0.89543 21 2 21H22C23.1046 21 24 20.1046 24 19V5C24 3.89543 23.1046 3 22 3H2Z" fill="#D6D8DE"/>
<path d="M2 3C0.895431 3 0 3.9402 0 5.1V7.8H4.57143V3H2Z" fill="#1C6DC1"/>
<path d="M6.85714 3V7.8H11.4286L11.4286 10.2L6.85714 10.2V15H24V12.6H11.4286V10.2H24V7.8H11.4286L11.4286 5.4H24V5.1C24 3.9402 23.1046 3 22 3H6.85714Z" fill="#1C6DC1"/>
<path d="M24 17.4H0V18.9C0 19.2221 0.0690547 19.5272 0.192466 19.8H23.8075C23.9309 19.5272 24 19.2221 24 18.9V17.4Z" fill="#1C6DC1"/>
<path d="M0 15H4.57143V10.2H0V15Z" fill="#1C6DC1"/>
</svg>
