<svg width="24" height="24" viewBox="0 0 24 24" fill="none" xmlns="http://www.w3.org/2000/svg">
<rect y="3" width="24" height="18" rx="2" fill="#DE1A2E"/>
<rect x="2.28571" y="5.39999" width="19.4286" height="13.2" fill="#079B77"/>
<path fill-rule="evenodd" clip-rule="evenodd" d="M3.76561 12.1186C4.08918 12.6623 4.55373 13.0212 4.98642 13.1134C5.22463 13.1641 4.78849 12.017 4.97855 11.8923C5.14071 11.7859 5.92093 12.7398 5.98926 12.5408C6.14645 12.0829 6.05372 11.4345 5.704 10.8468C5.20229 10.0038 5.1827 10.5602 3.82637 9.95624C3.96818 10.82 3.26389 11.2756 3.76561 12.1186V12.1186Z" fill="#FFD938"/>
<path d="M12 12L21.7143 5.40002H2.28571L12 12Z" fill="#FFD93B"/>
<path d="M12 12L2.28571 18.6H21.7143L12 12Z" fill="#FFD93B"/>
<path fill-rule="evenodd" clip-rule="evenodd" d="M12 15C13.578 15 14.8572 13.6569 14.8572 12C14.8572 10.3431 13.578 9 12 9C10.4221 9 9.14288 10.3431 9.14288 12C9.14288 13.6569 10.4221 15 12 15Z" fill="#E21C30"/>
<path fill-rule="evenodd" clip-rule="evenodd" d="M12 12.9255L10.6565 13.9416L11.1617 12.286L9.82617 11.2583L11.4819 11.2512L12 9.59998L12.5181 11.2512L14.1739 11.2583L12.8383 12.286L13.3435 13.9416L12 12.9255Z" fill="#FFD938"/>
</svg>
