<svg width="24" height="24" viewBox="0 0 24 24" fill="none" xmlns="http://www.w3.org/2000/svg">
<rect y="3" width="24" height="18" rx="2" fill="white"/>
<path d="M18.3834 7.00848C15.8416 8.21293 13.7509 10.3524 12.7083 12.9888C11.2384 13.2414 9.9436 13.7872 8.73102 14.5585V15.6978H18.3834V7.00848Z" fill="#397C46"/>
<path d="M11.2017 8.37881C12.6281 6.06742 14.0716 5.38509 14.0716 5.38509H7.48694V7.85342C7.4901 7.85123 7.49319 7.84882 7.49637 7.84641C7.49637 7.84641 9.34219 6.61328 11.2017 8.37881Z" fill="#4FAFC8"/>
<path d="M13.4035 10.1922C12.7768 9.26115 11.716 8.64911 10.5129 8.64911C8.58714 8.64911 7.026 10.2173 7.026 12.1517C7.026 12.8899 7.2533 13.5747 7.64142 14.1394C8.81954 13.1648 10.2709 12.4737 11.9162 12.4737C12.0773 12.4737 12.2655 12.4737 12.4053 12.5088C12.7546 11.3158 12.9486 10.9152 13.4035 10.1922Z" fill="#EEDA4B"/>
<path d="M23.0001 5.02464C22.7638 5.0083 22.5253 5 22.2849 5C17.583 5 13.6197 8.17612 12.4051 12.509C14.2108 8.31989 18.2414 5.32383 23.0001 5.02464Z" fill="#233763"/>
<path d="M12.4511 12.4559C12.285 12.4444 12.1173 12.4386 11.9482 12.4386C8.6416 12.4386 5.85434 14.6721 5.00006 17.7192C6.27 14.7732 9.10461 12.6663 12.4511 12.4559Z" fill="#233763"/>
<path fill-rule="evenodd" clip-rule="evenodd" d="M11.0349 14.4487C11.0349 14.8881 10.8379 15.121 10.5976 15.121C10.3488 15.121 10.1741 14.8597 10.1741 14.4733C10.1741 14.0679 10.36 13.8029 10.6115 13.8029C10.8686 13.8029 11.0349 14.0699 11.0349 14.4487ZM10.3041 14.4695C10.3041 14.7422 10.4131 14.9865 10.6044 14.9865C10.7974 14.9865 10.9063 14.7461 10.9063 14.4563C10.9063 14.2024 10.8085 13.9373 10.6059 13.9373C10.4047 13.9373 10.3041 14.1891 10.3041 14.4695Z" fill="#231F20"/>
<path d="M9.7102 15.0434C9.65573 15.0699 9.54811 15.1134 9.42096 15.1134C9.27844 15.1134 9.16107 15.0641 9.06884 14.9448C8.98782 14.8388 8.9375 14.6683 8.9375 14.4695C8.93891 14.0888 9.13173 13.8105 9.44753 13.8105C9.55648 13.8105 9.64174 13.8426 9.68225 13.8691L9.65291 14.0036C9.6026 13.9732 9.53974 13.9487 9.44472 13.9487C9.2156 13.9487 9.06605 14.1418 9.06605 14.4619C9.06605 14.7858 9.20998 14.977 9.42935 14.977C9.50901 14.977 9.56349 14.962 9.59144 14.9429V14.5623H9.40001V14.4298H9.7102V15.0434Z" fill="#231F20"/>
<path fill-rule="evenodd" clip-rule="evenodd" d="M7.5542 13.8407C7.61568 13.8237 7.70373 13.8142 7.78755 13.8142C7.9175 13.8142 8.00133 13.8464 8.06001 13.9184C8.10752 13.9752 8.13406 14.0623 8.13406 14.1609C8.13406 14.3294 8.05584 14.4411 7.95664 14.4865V14.4922C8.02926 14.5263 8.07259 14.6173 8.09496 14.7498C8.12569 14.9279 8.14807 15.0509 8.16761 15.1002H8.04184C8.02649 15.0641 8.00554 14.9544 7.97898 14.7952C7.95104 14.6192 7.90074 14.5528 7.79036 14.5471H7.67576V15.1002H7.5542V13.8407ZM7.67576 14.4222H7.80012C7.93008 14.4222 8.01252 14.3255 8.01252 14.1798C8.01252 14.0149 7.92448 13.943 7.79593 13.9411C7.73726 13.9411 7.69534 13.9487 7.67576 13.9563V14.4222Z" fill="#231F20"/>
<path fill-rule="evenodd" clip-rule="evenodd" d="M12.8795 16.4738C12.8795 16.9132 12.6918 17.1462 12.4627 17.1462C12.2255 17.1462 12.0591 16.8847 12.0591 16.4985C12.0591 16.0932 12.2363 15.8279 12.476 15.8279C12.721 15.8279 12.8795 16.0951 12.8795 16.4738ZM12.183 16.4946C12.183 16.7674 12.2868 17.0116 12.4693 17.0116C12.6532 17.0116 12.7571 16.7711 12.7571 16.4813C12.7571 16.2276 12.6637 15.9624 12.4706 15.9624C12.2788 15.9624 12.183 16.2144 12.183 16.4946Z" fill="#231F20"/>
<path d="M7.90834 17.1386C8.02955 17.1386 8.13211 17.095 8.18406 17.0685V16.4548H7.88837V16.5874H8.07085V16.9681C8.0442 16.987 7.99226 17.0022 7.9163 17.0022C7.70718 17.0022 7.56998 16.8109 7.56998 16.487C7.56998 16.167 7.71249 15.9739 7.93096 15.9739C8.02154 15.9739 8.08149 15.9985 8.12946 16.0287L8.15742 15.8942C8.11878 15.8677 8.03753 15.8355 7.93361 15.8355C7.6326 15.8355 7.44877 16.114 7.44745 16.4946C7.44745 16.6936 7.49538 16.8639 7.57264 16.9701C7.66055 17.0893 7.77247 17.1386 7.90834 17.1386Z" fill="#231F20"/>
<path d="M8.47714 16.6045V15.8488H8.35992V16.6008C8.35992 16.9966 8.49848 17.1462 8.68229 17.1462C8.87676 17.1462 9.02195 16.9851 9.02195 16.5932V15.8488H8.90473V16.6045C8.90473 16.8867 8.81949 17.0116 8.68629 17.0116C8.56641 17.0116 8.47714 16.8904 8.47714 16.6045Z" fill="#231F20"/>
<path fill-rule="evenodd" clip-rule="evenodd" d="M9.32292 16.7238L9.22969 17.1254H9.1098L9.41485 15.8488H9.55472L9.86108 17.1254H9.7372L9.6413 16.7238H9.32292ZM9.6173 16.595L9.52937 16.2276C9.51049 16.1488 9.49754 16.0768 9.48493 16.0068L9.48276 15.9948H9.48012C9.4668 16.0704 9.45215 16.1481 9.43483 16.2257L9.34689 16.595H9.6173Z" fill="#231F20"/>
<path fill-rule="evenodd" clip-rule="evenodd" d="M10.2395 15.8394C10.1476 15.8394 10.0636 15.8507 9.99304 15.8659V17.1215C10.0516 17.131 10.1209 17.1367 10.2035 17.1367C10.378 17.1367 10.5165 17.0722 10.6004 16.9529C10.6843 16.8356 10.7297 16.6651 10.7297 16.4568C10.7297 16.2502 10.6831 16.1027 10.6031 15.9984C10.5246 15.8942 10.406 15.8394 10.2395 15.8394ZM10.2261 17.0042C10.1809 17.0042 10.1382 17.0022 10.1089 16.9946V15.9871C10.1395 15.9776 10.1849 15.97 10.2448 15.97C10.49 15.97 10.6097 16.1614 10.6085 16.4624C10.6085 16.8072 10.4739 17.0042 10.2261 17.0042Z" fill="#231F20"/>
<path d="M11.345 16.5268H10.996V16.987H11.3851V17.1254H10.8802V15.8488H11.365V15.9872H10.996V16.3905H11.345V16.5268Z" fill="#231F20"/>
<path d="M11.6514 15.8488H11.5355V17.1254H12.0351V16.987H11.6514V15.8488Z" fill="#231F20"/>
<path d="M13.146 16.6045V15.8488H13.0289V16.6008C13.0289 16.9966 13.1673 17.1462 13.3511 17.1462C13.5457 17.1462 13.6908 16.9851 13.6908 16.5932V15.8488H13.5736V16.6045C13.5736 16.8867 13.4883 17.0116 13.3552 17.0116C13.2352 17.0116 13.146 16.8904 13.146 16.6045Z" fill="#231F20"/>
<path fill-rule="evenodd" clip-rule="evenodd" d="M13.892 15.864C13.948 15.8507 14.0211 15.8394 14.1144 15.8394C14.229 15.8394 14.313 15.8773 14.3662 15.9455C14.4155 16.0061 14.4449 16.0988 14.4449 16.2124C14.4449 16.328 14.4208 16.419 14.3756 16.4852C14.3142 16.578 14.2143 16.6254 14.1012 16.6254C14.0665 16.6254 14.0345 16.6234 14.0079 16.6139V17.1254H13.892V15.864ZM14.0079 16.4796C14.0333 16.489 14.0651 16.4928 14.1038 16.4928C14.2436 16.4928 14.329 16.3962 14.329 16.22C14.329 16.0515 14.2449 15.97 14.1172 15.97C14.0665 15.97 14.0278 15.9757 14.0079 15.9833V16.4796Z" fill="#231F20"/>
<path d="M14.7164 16.5268H15.0655V16.3905H14.7164V15.9872H15.0854V15.8488H14.6006V17.1254H15.1055V16.987H14.7164V16.5268Z" fill="#231F20"/>
<path d="M8.4275 14.5017H8.79361V14.3653H8.4275V13.9619H8.81458V13.8237H8.30597V15.1002H8.83555V14.962H8.4275V14.5017Z" fill="#231F20"/>
<path d="M10.0181 15.1002V13.8237H9.896V15.1002H10.0181Z" fill="#231F20"/>
<path d="M11.1928 13.8237V15.1002H11.3073V14.5547C11.3073 14.3427 11.3045 14.1891 11.2975 14.0282L11.3017 14.0264C11.3492 14.1646 11.4122 14.3103 11.4778 14.4524L11.7768 15.1002H11.8997V13.8237H11.7852V14.3577C11.7852 14.5567 11.788 14.712 11.7991 14.8823L11.7963 14.8842C11.7516 14.7537 11.6971 14.6192 11.6273 14.4695L11.3254 13.8237H11.1928Z" fill="#231F20"/>
<path d="M15.1061 18H7.51331V17.4279H15.1061V18Z" fill="#EEDA4B"/>
<path fill-rule="evenodd" clip-rule="evenodd" d="M22 4H2C1.44772 4 1 4.44772 1 5V19C1 19.5523 1.44772 20 2 20H22C22.5523 20 23 19.5523 23 19V5C23 4.44771 22.5523 4 22 4ZM2 3C0.895431 3 0 3.89543 0 5V19C0 20.1046 0.89543 21 2 21H22C23.1046 21 24 20.1046 24 19V5C24 3.89543 23.1046 3 22 3H2Z" fill="#D6D8DE"/>
</svg>
