<svg width="24" height="24" viewBox="0 0 24 24" fill="none" xmlns="http://www.w3.org/2000/svg">
<path fill-rule="evenodd" clip-rule="evenodd" d="M6 21H18V3H6V21Z" fill="white"/>
<path fill-rule="evenodd" clip-rule="evenodd" d="M18 21H6V3H18V21ZM17 4H7V20H17V4Z" fill="#D6D8DE"/>
<path fill-rule="evenodd" clip-rule="evenodd" d="M0 19C0 20.1046 0.895431 21 2 21H8V3H2C0.89543 3 0 3.89543 0 5V19Z" fill="#63AEE3"/>
<path fill-rule="evenodd" clip-rule="evenodd" d="M16 21H22C23.1046 21 24 20.1046 24 19V5C24 3.89543 23.1046 3 22 3H16V21Z" fill="#63AEE3"/>
<path fill-rule="evenodd" clip-rule="evenodd" d="M14.2857 10.5822C14.6539 10.5822 14.9524 10.8807 14.9524 11.2489C14.9524 12.2953 14.4075 13.214 13.5891 13.7374C13.2789 13.9358 12.8666 13.8452 12.6683 13.535C12.4699 13.2248 12.5605 12.8126 12.8707 12.6142C13.3221 12.3255 13.6191 11.8216 13.6191 11.2489C13.6191 10.8807 13.9175 10.5822 14.2857 10.5822ZM9.71429 10.5822C10.0825 10.5822 10.381 10.8807 10.381 11.2489C10.381 11.8465 10.7045 12.3694 11.1891 12.6506C11.5076 12.8354 11.6159 13.2434 11.4312 13.5618C11.2464 13.8803 10.8384 13.9887 10.5199 13.8039C9.64108 13.2939 9.04762 12.3411 9.04762 11.2489C9.04762 10.8807 9.3461 10.5822 9.71429 10.5822Z" fill="#628A40"/>
<path fill-rule="evenodd" clip-rule="evenodd" d="M12 12.3917C12.6312 12.3917 13.1428 11.88 13.1428 11.2488C13.1428 10.6176 12.6312 10.106 12 10.106C11.3688 10.106 10.8571 10.6176 10.8571 11.2488C10.8571 11.88 11.3688 12.3917 12 12.3917Z" fill="#DCC26D"/>
</svg>
