<svg width="24" height="24" viewBox="0 0 24 24" fill="none" xmlns="http://www.w3.org/2000/svg">
<rect y="3" width="24" height="18" rx="2" fill="white"/>
<path fill-rule="evenodd" clip-rule="evenodd" d="M22 4H2C1.44772 4 1 4.44772 1 5V19C1 19.5523 1.44772 20 2 20H22C22.5523 20 23 19.5523 23 19V5C23 4.44771 22.5523 4 22 4ZM2 3C0.895431 3 0 3.89543 0 5V19C0 20.1046 0.89543 21 2 21H22C23.1046 21 24 20.1046 24 19V5C24 3.89543 23.1046 3 22 3H2Z" fill="#D6D8DE"/>
<path d="M15 3H9V9H0V15H9V21H15V15H24V9H15V3Z" fill="#E8112D"/>
<path d="M11.4286 5.4H12.5714V18.6H11.4286V5.4Z" fill="#F9DD16"/>
<path fill-rule="evenodd" clip-rule="evenodd" d="M12 17.4L13.1429 18.6H10.8572L12 17.4Z" fill="#F9DD16"/>
<path d="M5.71429 11.4H18.2857V12.6H5.71429V11.4Z" fill="#F9DD16"/>
<path fill-rule="evenodd" clip-rule="evenodd" d="M12 6.59999L13.1429 5.39999H10.8572L12 6.59999Z" fill="#F9DD16"/>
<path fill-rule="evenodd" clip-rule="evenodd" d="M6.85718 12L5.71432 10.8V13.2L6.85718 12Z" fill="#F9DD16"/>
<path fill-rule="evenodd" clip-rule="evenodd" d="M17.1429 12L18.2857 10.8V13.2L17.1429 12Z" fill="#F9DD16"/>
</svg>
