<svg width="24" height="24" viewBox="0 0 24 24" fill="none" xmlns="http://www.w3.org/2000/svg">
<path fill-rule="evenodd" clip-rule="evenodd" d="M9.04838 21H22C23.1046 21 24 20.1046 24 19V12H9.04838V21Z" fill="#1AB558"/>
<path fill-rule="evenodd" clip-rule="evenodd" d="M9.04838 12H24V5C24 3.89543 23.1046 3 22 3H9.04837L9.04838 12Z" fill="#FFD952"/>
<path fill-rule="evenodd" clip-rule="evenodd" d="M0 19C0 20.1046 0.895431 21 2 21H9.04838L9.04837 3H2C0.895431 3 0 3.89543 0 5V19Z" fill="#E72B42"/>
<path fill-rule="evenodd" clip-rule="evenodd" d="M4.66403 13.437L2.98464 14.7135L3.62192 12.642L1.94672 11.3594L4.01997 11.3557L4.66403 9.28648L5.30809 11.3557L7.38133 11.3594L5.70614 12.642L6.34341 14.7135L4.66403 13.437Z" fill="#262626"/>
</svg>
