<svg width="24" height="24" viewBox="0 0 24 24" fill="none" xmlns="http://www.w3.org/2000/svg">
<rect y="3" width="24" height="18" rx="2" fill="#08C55F"/>
<path d="M24 12.6L0.930005 20.6745C0.371015 20.3021 0 19.6466 0 18.9V5.10001C0 4.35345 0.371015 3.69789 0.930004 3.3255L24 11.4V12.6Z" fill="#FFD831"/>
<path fill-rule="evenodd" clip-rule="evenodd" d="M0.930004 3.3255C0.371015 3.69789 0 4.35345 0 5.10001V18.9C0 19.6466 0.371015 20.3021 0.930005 20.6745L24 12.6V11.4L0.930004 3.3255ZM21.4979 12L0.190511 19.4576V4.54241L21.4979 12Z" fill="white"/>
<path d="M0.654636 3.54611L13 12L0.654653 20.4539C0.252466 20.0698 0 19.5158 0 18.9V5.09999C0 4.48416 0.252459 3.93024 0.654636 3.54611Z" fill="#E92034"/>
<path d="M0.654629 3.54611C0.322459 3.86337 0.0924201 4.29646 0.0223999 4.78459L10.5592 12L0.0224039 19.2154C0.0924302 19.7035 0.322473 20.1366 0.654647 20.4539L13 12L0.654629 3.54611Z" fill="#262626"/>
</svg>
