<svg width="24" height="24" viewBox="0 0 24 24" fill="none" xmlns="http://www.w3.org/2000/svg">
<path fill-rule="evenodd" clip-rule="evenodd" d="M0 12H24V5C24 3.89543 23.1046 3 22 3H2C0.89543 3 0 3.89543 0 5V12Z" fill="#112EBC"/>
<path fill-rule="evenodd" clip-rule="evenodd" d="M0 19C0 20.1046 0.895431 21 2 21H22C23.1046 21 24 20.1046 24 19V12H0V19Z" fill="#E3264A"/>
<rect x="7.99998" y="9.47894" width="8" height="7.2605" rx="0.666667" fill="white"/>
<path d="M7.99998 15.5294V16.0728C7.99998 16.4402 8.29719 16.7382 8.6643 16.7394H15.3357C15.7025 16.7382 15.9995 16.4406 16 16.0736C16 16.0733 16 16.0739 16 16.0736V15.5294L14.2996 14.6292C13.9152 14.4257 13.4869 14.3193 13.0519 14.3193H10.948C10.5131 14.3193 10.0847 14.4257 9.70034 14.6292L7.99998 15.5294Z" fill="#AABCAE"/>
<path fill-rule="evenodd" clip-rule="evenodd" d="M8.66665 16.0728H15.3333V15.9307L13.9877 15.2184C13.6994 15.0657 13.3781 14.9859 13.0519 14.9859H10.948C10.6218 14.9859 10.3006 15.0657 10.0123 15.2184L8.66665 15.9307V16.0728ZM15.6033 16.0737L15.3357 16.0737V16.7394H8.6643C8.29719 16.7382 7.99998 16.4402 7.99998 16.0728V15.5294L9.70034 14.6292C10.0847 14.4257 10.5131 14.3193 10.948 14.3193H13.0519C13.4869 14.3193 13.9152 14.4257 14.2996 14.6292L16 15.5294V16.0735C16 16.0735 16 16.0735 16 16.0735C15.9995 16.4405 15.7025 16.7382 15.3357 16.7394" fill="#366C14"/>
<path fill-rule="evenodd" clip-rule="evenodd" d="M12 14.3193C12.9468 14.3193 13.7143 13.5067 13.7143 12.5042C13.7143 11.5017 12.9468 10.6891 12 10.6891C11.0532 10.6891 10.2857 11.5017 10.2857 12.5042C10.2857 13.5067 11.0532 14.3193 12 14.3193Z" fill="#D4B872"/>
<path fill-rule="evenodd" clip-rule="evenodd" d="M9.14284 13.9425C9.14284 13.3748 9.80719 13.0669 10.2404 13.4338L11.5691 14.5593C11.8177 14.7699 12.1822 14.7699 12.4309 14.5593L13.7596 13.4338C14.1928 13.0669 14.8571 13.3748 14.8571 13.9425V14.8627C14.8571 15.2309 14.5586 15.5294 14.1905 15.5294H9.8095C9.44132 15.5294 9.14284 15.2309 9.14284 14.8627V13.9425Z" fill="#C28321"/>
<path fill-rule="evenodd" clip-rule="evenodd" d="M10.8958 14.8627L9.8095 13.9425V14.8627H10.8958ZM13.1042 14.8627H14.1905V13.9425L13.1042 14.8627ZM10.2404 13.4338C9.80719 13.0669 9.14284 13.3748 9.14284 13.9425V14.8627C9.14284 15.2309 9.44132 15.5294 9.8095 15.5294H14.1905C14.5586 15.5294 14.8571 15.2309 14.8571 14.8627V13.9425C14.8571 13.3748 14.1928 13.0669 13.7596 13.4338L12.4309 14.5593C12.1822 14.7699 11.8177 14.7699 11.5691 14.5593L10.2404 13.4338Z" fill="#0D3488"/>
<path fill-rule="evenodd" clip-rule="evenodd" d="M10.8167 11.2513C10.6159 11.0387 10.7666 10.6891 11.059 10.6891H12.941C13.2334 10.6891 13.3841 11.0387 13.1833 11.2513L12.2423 12.2476C12.1108 12.3869 11.8892 12.3869 11.7577 12.2476L10.8167 11.2513Z" fill="#216C30"/>
</svg>
