<svg width="24" height="24" viewBox="0 0 24 24" fill="none" xmlns="http://www.w3.org/2000/svg">
<rect y="3" width="24" height="18" rx="2" fill="white"/>
<path fill-rule="evenodd" clip-rule="evenodd" d="M22 4H2C1.44772 4 1 4.44772 1 5V19C1 19.5523 1.44772 20 2 20H22C22.5523 20 23 19.5523 23 19V5C23 4.44771 22.5523 4 22 4ZM2 3C0.895431 3 0 3.89543 0 5V19C0 20.1046 0.89543 21 2 21H22C23.1046 21 24 20.1046 24 19V5C24 3.89543 23.1046 3 22 3H2Z" fill="#D6D8DE"/>
<path fill-rule="evenodd" clip-rule="evenodd" d="M0 9H24V5C24 3.89543 23.1046 3 22 3H2C0.89543 3 0 3.89543 0 5V9Z" fill="#0884E6"/>
<path fill-rule="evenodd" clip-rule="evenodd" d="M0 19C0 20.1046 0.895431 21 2 21H22C23.1046 21 24 20.1046 24 19V15H0V19Z" fill="#0884E6"/>
<path fill-rule="evenodd" clip-rule="evenodd" d="M12 12.5714L11.1919 12.8081L11.4286 12L11.1919 11.1919L12 11.4286L12.8081 11.1919L12.5714 12L12.8081 12.8081L12 12.5714Z" fill="#0E88E9"/>
<path fill-rule="evenodd" clip-rule="evenodd" d="M16.5714 11.4286L15.7633 11.6653L16 10.8572L15.7633 10.049L16.5714 10.2857L17.3796 10.049L17.1429 10.8572L17.3796 11.6653L16.5714 11.4286Z" fill="#0E88E9"/>
<path fill-rule="evenodd" clip-rule="evenodd" d="M16.5714 13.7143L15.7633 13.951L16 13.1429L15.7633 12.3347L16.5714 12.5714L17.3796 12.3347L17.1429 13.1429L17.3796 13.951L16.5714 13.7143Z" fill="#0E88E9"/>
<path fill-rule="evenodd" clip-rule="evenodd" d="M7.42855 13.7143L6.62043 13.951L6.85713 13.1429L6.62043 12.3347L7.42855 12.5714L8.23668 12.3347L7.99998 13.1429L8.23668 13.951L7.42855 13.7143Z" fill="#0E88E9"/>
<path fill-rule="evenodd" clip-rule="evenodd" d="M7.42855 11.4286L6.62043 11.6653L6.85713 10.8572L6.62043 10.049L7.42855 10.2857L8.23668 10.049L7.99998 10.8572L8.23668 11.6653L7.42855 11.4286Z" fill="#0E88E9"/>
</svg>
