<svg width="24" height="24" viewBox="0 0 24 24" fill="none" xmlns="http://www.w3.org/2000/svg">
<path fill-rule="evenodd" clip-rule="evenodd" d="M0 19C0 20.1046 0.895431 21 2 21H22C23.1046 21 24 20.1046 24 19V5C24 3.89543 23.1046 3 22 3H2C0.89543 3 0 3.89543 0 5V19Z" fill="#F0371D"/>
<path fill-rule="evenodd" clip-rule="evenodd" d="M11.7399 10.3249C12.5652 9.63415 12.6154 9.47967 12.8131 8.8711C12.8791 8.66797 12.8326 8.50113 12.7776 8.3041C12.6983 8.02 12.6015 7.67312 12.7994 7.06413C11.899 6.77157 10.8528 7.50765 10.4627 8.70823C10.0726 9.90882 10.4863 11.1193 11.3868 11.4118C11.548 11.4642 11.5299 11.4263 11.481 11.3238C11.3951 11.1439 11.2143 10.7649 11.7399 10.3249ZM11.791 8.53899C11.9411 8.58775 12.0232 8.74894 11.9745 8.89901C11.9257 9.04908 11.7645 9.13121 11.6144 9.08245C11.4644 9.03369 11.3822 8.8725 11.431 8.72243C11.4798 8.57236 11.6409 8.49023 11.791 8.53899Z" fill="white"/>
<path fill-rule="evenodd" clip-rule="evenodd" d="M10.0309 11.5865C9.62896 10.5882 9.49756 10.4927 8.97988 10.1166C8.80708 9.99106 8.63403 9.98378 8.42965 9.97518C8.13496 9.96278 7.77515 9.94764 7.25711 9.57126C6.70061 10.3372 7.07739 11.5597 8.09866 12.3017C9.11994 13.0437 10.399 13.0242 10.9555 12.2583C11.0551 12.1212 11.0135 12.1266 10.9009 12.1415C10.7032 12.1675 10.2869 12.2224 10.0309 11.5865ZM8.34817 10.9861C8.44092 10.8584 8.6196 10.8301 8.74726 10.9229C8.87492 11.0156 8.90322 11.1943 8.81047 11.3219C8.71772 11.4496 8.53904 11.4779 8.41138 11.3852C8.28372 11.2924 8.25542 11.1137 8.34817 10.9861Z" fill="white"/>
<path fill-rule="evenodd" clip-rule="evenodd" d="M15.1822 12.1319C14.5423 12.1319 14.3799 12.1319 13.4679 11.5604C12.887 11.1965 12.5825 11.4856 12.4379 11.6228C12.3555 11.701 12.3251 11.7299 12.3251 11.5604C12.3251 10.6137 13.3484 9.84615 14.6108 9.84615C15.8732 9.84615 16.8965 10.6137 16.8965 11.5604C16.2562 11.5604 15.9562 11.7597 15.7105 11.9229C15.5401 12.036 15.3958 12.1319 15.1822 12.1319ZM15.1822 11.0571C15.1822 11.2149 15.0543 11.3429 14.8965 11.3429C14.7387 11.3429 14.6108 11.2149 14.6108 11.0571C14.6108 10.8993 14.7387 10.7714 14.8965 10.7714C15.0543 10.7714 15.1822 10.8993 15.1822 11.0571Z" fill="white"/>
<path fill-rule="evenodd" clip-rule="evenodd" d="M12.8269 13.5857C12.5652 14.6296 12.6154 14.7841 12.8131 15.3926C12.8791 15.5958 13.0149 15.7034 13.1751 15.8305C13.4063 16.0137 13.6885 16.2374 13.8863 16.8464C14.7868 16.5539 15.2005 15.3434 14.8104 14.1428C14.4203 12.9423 13.3741 12.2062 12.4737 12.4987C12.3125 12.5511 12.3494 12.5711 12.4492 12.6253C12.6244 12.7204 12.9935 12.9207 12.8269 13.5857ZM13.8353 15.0605C13.6852 15.1093 13.524 15.0272 13.4752 14.8771C13.4265 14.727 13.5086 14.5658 13.6587 14.5171C13.8087 14.4683 13.9699 14.5504 14.0187 14.7005C14.0675 14.8506 13.9853 15.0118 13.8353 15.0605Z" fill="white"/>
<path fill-rule="evenodd" clip-rule="evenodd" d="M10.7026 13.6018C9.62896 13.6755 9.49756 13.771 8.97988 14.1471C8.80708 14.2727 8.74668 14.435 8.67535 14.6267C8.57249 14.9032 8.4469 15.2407 7.92887 15.6171C8.48537 16.383 9.76441 16.4024 10.7857 15.6604C11.807 14.9184 12.1837 13.696 11.6272 12.93C11.5276 12.7929 11.52 12.8342 11.4993 12.9459C11.463 13.1419 11.3865 13.5548 10.7026 13.6018ZM9.61158 15.0166C9.51883 14.8889 9.54713 14.7103 9.67479 14.6175C9.80245 14.5248 9.98113 14.5531 10.0739 14.6807C10.1666 14.8084 10.1383 14.9871 10.0107 15.0798C9.88301 15.1726 9.70433 15.1443 9.61158 15.0166Z" fill="white"/>
</svg>
