<svg xmlns="http://www.w3.org/2000/svg" viewBox="0 0 24 24">
  <defs/>
  <path d="M12.104 8.05a.7.7 0 00-.99 0l-.424.425a.7.7 0 000 .99l.425.424a.7.7 0 00.99 0l.424-.424a.7.7 0 000-.99l-.425-.424z"/>
  <path fill-rule="evenodd" d="M9.61 2a.65.65 0 01.65.65V5h2.7V2.65a.65.65 0 111.3 0V5H15.3c.39 0 .76.175 1.006.477l1.234 1.508a3 3 0 01-.063 3.874l-3.61 4.129c-.091.104-.188.2-.289.289a3.65 3.65 0 11-5.62 3.073.65.65 0 111.3 0 2.35 2.35 0 102.538-2.343 2.99 2.99 0 01-2.446-1.02l-3.61-4.128a3 3 0 01-.063-3.874l1.234-1.508A1.3 1.3 0 017.918 5H8.96V2.65A.65.65 0 019.61 2zm0 4.3H7.918L6.684 7.808a1.7 1.7 0 00.036 2.195l3.61 4.13c.312.356.735.548 1.168.577a.654.654 0 01.112-.01c.059 0 .117.001.176.004a1.69 1.69 0 001.103-.572l3.61-4.129a1.7 1.7 0 00.036-2.195L15.3 6.3H9.61z"/>
</svg>
