<svg xmlns="http://www.w3.org/2000/svg" viewBox="0 0 24 24">
  <defs/>
  <path fill-rule="evenodd" d="M18.534 16.799a2.54 2.54 0 10-5.082 0 2.54 2.54 0 005.082 0zm-2.541 3.84a3.84 3.84 0 100-7.681 3.84 3.84 0 000 7.682zM15.993 6.022L13.72 10.04h4.543l-2.271-4.018zm-3.994 4.422a.6.6 0 00.522.895h6.943a.6.6 0 00.523-.895l-3.472-6.14a.6.6 0 00-1.045 0L12 10.445zM7.02 14.426l-2.43 2.429 2.43 2.43 2.429-2.43-2.43-2.43zm.424-1.415a.6.6 0 00-.849 0l-3.42 3.42a.6.6 0 000 .848l3.42 3.42a.6.6 0 00.849 0l3.419-3.42a.6.6 0 000-.848l-3.42-3.42zM4.534 5.34v4.7h4.7v-4.7h-4.7zm-.7-1.3a.6.6 0 00-.6.6v6.1a.6.6 0 00.6.6h6.1a.6.6 0 00.6-.6v-6.1a.6.6 0 00-.6-.6h-6.1z"/>
</svg>
