<svg xmlns="http://www.w3.org/2000/svg" viewBox="0 0 24 24">
  <path fill-rule="evenodd" d="M7.019 4A3.005 3.005 0 0 0 4 6.998v10.004A3.005 3.005 0 0 0 7.019 20h9.962C18.651 20 20 18.66 20 17.002V6.998C20 5.34 18.642 4 16.981 4H7.02Zm11.673 2.998c0-.94-.765-1.699-1.71-1.699H7.018c-.946 0-1.71.76-1.71 1.7v3.707H9c.361 0 .654.29.654.65v.483c0 1.03.84 1.865 1.877 1.865h1.038a1.87 1.87 0 0 0 1.877-1.865v-.484c0-.358.293-.65.655-.65h3.59V6.999ZM5.308 17.002v-4.997H8.35a3.176 3.176 0 0 0 3.162 2.998h1.085a3.176 3.176 0 0 0 3.153-2.998h2.942v4.997c0 .94-.765 1.699-1.71 1.699H7.018c-.946 0-1.71-.76-1.71-1.7Z"/>
</svg>
