<svg xmlns="http://www.w3.org/2000/svg" viewBox="0 0 24 24">
  <defs/>
  <path fill-rule="evenodd" d="M20 5.65a.65.65 0 00-.65-.65H4.65a.65.65 0 000 1.3h14.7a.65.65 0 00.65-.65zm0 7.8a.65.65 0 00-.65-.65h-6.746a.65.65 0 100 1.3h6.746a.65.65 0 00.65-.65zm-.65-4.55a.65.65 0 110 1.3h-6.746a.65.65 0 110-1.3h6.746zm.65 8.45a.65.65 0 00-.65-.65H4.65a.65.65 0 100 1.3h14.7a.65.65 0 00.65-.65zM4.19 11.949a.65.65 0 01.012-.964l2.224-1.961a.65.65 0 11.86.975L5.6 11.486l1.7 1.581a.65.65 0 11-.886.952l-2.225-2.07z"/>
</svg>
