<svg xmlns="http://www.w3.org/2000/svg" viewBox="0 0 24 24">
  <defs/>
  <path fill-rule="evenodd" d="M4 6.65A.65.65 0 014.65 6h14.7a.65.65 0 110 1.3H4.65A.65.65 0 014 6.65zm0 7.8a.65.65 0 01.65-.65h6.745a.65.65 0 110 1.3H4.65a.65.65 0 01-.65-.65zm.65-4.55a.65.65 0 100 1.3h6.745a.65.65 0 100-1.3H4.65zM4 18.35a.65.65 0 01.65-.65h14.7a.65.65 0 110 1.3H4.65a.65.65 0 01-.65-.65zm15.81-5.401a.65.65 0 00-.012-.964l-2.224-1.961a.65.65 0 00-.86.975l1.686 1.487-1.7 1.581a.65.65 0 10.886.952l2.225-2.07z"/>
</svg>
