<svg xmlns="http://www.w3.org/2000/svg" viewBox="0 0 24 24">
  <defs/>
  <path d="M12 2c-.895 0-1.591.844-1.49 1.807l.088.838C10.678 5.417 11.282 6 12 6c.718 0 1.321-.583 1.402-1.355l.088-.838C13.591 2.844 12.895 2 12 2z"/>
  <path fill-rule="evenodd" d="M15.753 14.864A5.506 5.506 0 0014.05 12.3h2.208a.65.65 0 100-1.3H14V9a2 2 0 10-4 0v2H8.658a.65.65 0 01-.64-.537l-.429-2.428a.65.65 0 00-1.28.226l.429 2.428c.088.499.36.926.741 1.214a5.5 5.5 0 108.515 4.329l1.223.23a.65.65 0 01.505.46l.96 3.378a.65.65 0 001.25-.355l-.96-3.378a1.95 1.95 0 00-1.516-1.383l-1.703-.32zm-3.055-4.359V11H11.3V9a.7.7 0 111.4 0v1.456a.674.674 0 00-.002.05zM10.5 12.3a4.2 4.2 0 110 8.4 4.2 4.2 0 010-8.4z"/>
</svg>
