<svg width="24" height="24" viewBox="0 0 24 24" fill="none" xmlns="http://www.w3.org/2000/svg">
<rect y="3" width="24" height="18" rx="2" fill="white"/>
<path fill-rule="evenodd" clip-rule="evenodd" d="M22 4H2C1.44772 4 1 4.44772 1 5V19C1 19.5523 1.44772 20 2 20H22C22.5523 20 23 19.5523 23 19V5C23 4.44771 22.5523 4 22 4ZM2 3C0.895431 3 0 3.89543 0 5V19C0 20.1046 0.89543 21 2 21H22C23.1046 21 24 20.1046 24 19V5C24 3.89543 23.1046 3 22 3H2Z" fill="#D6D8DE"/>
<path fill-rule="evenodd" clip-rule="evenodd" d="M0 9H24V5C24 3.89543 23.1046 3 22 3H2C0.89543 3 0 3.89543 0 5V9Z" fill="#38BB56"/>
<path fill-rule="evenodd" clip-rule="evenodd" d="M0 19C0 20.1046 0.895431 21 2 21H22C23.1046 21 24 20.1046 24 19V15H0V19Z" fill="#DE1B27"/>
<path fill-rule="evenodd" clip-rule="evenodd" d="M10.8459 10.7324C10.5017 11.046 10.2857 11.4978 10.2857 12C10.2857 12.9468 11.0532 13.7143 12 13.7143C12.9468 13.7143 13.7143 12.9468 13.7143 12C13.7143 11.5072 13.5064 11.063 13.1735 10.7503L12.717 11.2362C12.9214 11.4282 13.0476 11.6988 13.0476 12C13.0476 12.5786 12.5786 13.0476 12 13.0476C11.4214 13.0476 10.9524 12.5786 10.9524 12C10.9524 11.6931 11.0835 11.4178 11.2948 11.2252L10.8459 10.7324Z" fill="#D80915"/>
<path d="M11.4286 12C11.4286 11.6844 11.6844 11.4286 12 11.4286C12.3156 11.4286 12.5714 11.6844 12.5714 12V13.1429C12.5714 13.4585 12.3156 13.7143 12 13.7143C11.6844 13.7143 11.4286 13.4585 11.4286 13.1429V12Z" fill="#D80915"/>
</svg>
