<svg width="24" height="24" viewBox="0 0 24 24" fill="none" xmlns="http://www.w3.org/2000/svg">
<rect y="3" width="24" height="18" rx="2" fill="white"/>
<path fill-rule="evenodd" clip-rule="evenodd" d="M22 4H2C1.44772 4 1 4.44772 1 5V19C1 19.5523 1.44772 20 2 20H22C22.5523 20 23 19.5523 23 19V5C23 4.44771 22.5523 4 22 4ZM2 3C0.895431 3 0 3.89543 0 5V19C0 20.1046 0.89543 21 2 21H22C23.1046 21 24 20.1046 24 19V5C24 3.89543 23.1046 3 22 3H2Z" fill="#D6D8DE"/>
<path fill-rule="evenodd" clip-rule="evenodd" d="M0 9H24V5C24 3.89543 23.1046 3 22 3H2C0.89543 3 0 3.89543 0 5V9Z" fill="#DF1E35"/>
<path fill-rule="evenodd" clip-rule="evenodd" d="M0 19C0 20.1046 0.895431 21 2 21H22C23.1046 21 24 20.1046 24 19V15H0V19Z" fill="#262626"/>
<path fill-rule="evenodd" clip-rule="evenodd" d="M16 10.825C16 10.5772 16.2608 10.4161 16.4824 10.5269L16.9586 10.765C17.0715 10.8215 17.1429 10.9369 17.1429 11.0631V13.3809C17.1429 13.565 16.9936 13.7143 16.8095 13.7143H16.3333C16.1492 13.7143 16 13.565 16 13.3809V10.825Z" fill="#0F7A40"/>
<path fill-rule="evenodd" clip-rule="evenodd" d="M9.14285 10.825C9.14285 10.5772 9.40362 10.4161 9.62526 10.5269L10.1014 10.765C10.2144 10.8215 10.2857 10.9369 10.2857 11.0631V13.3809C10.2857 13.565 10.1365 13.7143 9.95238 13.7143H9.47619C9.29209 13.7143 9.14285 13.565 9.14285 13.3809V10.825Z" fill="#0F7A40"/>
<path fill-rule="evenodd" clip-rule="evenodd" d="M13.7143 11.0631C13.7143 10.9369 13.7856 10.8215 13.8986 10.765L14.3747 10.5269C14.5964 10.4161 14.8571 10.5772 14.8571 10.825V13.3809C14.8571 13.565 14.7079 13.7143 14.5238 13.7143H14.0476C13.8635 13.7143 13.7143 13.565 13.7143 13.3809V11.0631Z" fill="#0F7A40"/>
<path fill-rule="evenodd" clip-rule="evenodd" d="M11.4286 12.206C11.4286 12.0797 11.4999 11.9643 11.6128 11.9079L12.089 11.6698C12.3107 11.5589 12.5714 11.7201 12.5714 11.9679V12.6226H14.2857V13.7143H11.7619C11.5778 13.7143 11.4286 13.565 11.4286 13.3809V12.206Z" fill="#0F7A40"/>
<path fill-rule="evenodd" clip-rule="evenodd" d="M6.85715 12.206C6.85715 12.0797 6.92848 11.9643 7.04141 11.9079L7.5176 11.6698C7.73923 11.5589 8 11.7201 8 11.9679V12.6226H9.71429V13.7143H7.19048C7.00639 13.7143 6.85715 13.565 6.85715 13.3809V12.206Z" fill="#0F7A40"/>
</svg>
