<svg width="24" height="24" viewBox="0 0 24 24" fill="none" xmlns="http://www.w3.org/2000/svg">
<rect y="3" width="24" height="18" rx="2" fill="#D01129"/>
<path d="M10.9186 7.38503C10.7167 7.01703 10.2663 7.07066 10.0664 7.14347L6.61777 8.39952L6.94521 8.83221C7.50989 9.33983 9.14145 9.06543 9.88664 8.86479L10.501 10.5516C9.90488 11.2075 8.67589 12.6514 8.52892 13.1805C8.38195 13.7095 8.66792 13.9507 8.82928 14.0051L11.6525 16.1612C11.6594 16.2578 12.0536 16.2785 11.9248 15.51C11.7438 14.4296 10.9732 13.7904 10.4003 13.3056L11.623 11.8837C12.4934 12.0196 14.352 12.2654 14.8236 12.1615C15.2953 12.0577 15.3972 11.7545 15.3891 11.6159L15.8577 8.00622L15.3259 7.94515C14.3365 8.67913 14.0307 10.101 14.0015 10.7202L12.1573 10.2031C11.8286 9.41708 11.1206 7.75303 10.9186 7.38503Z" fill="white"/>
<path fill-rule="evenodd" clip-rule="evenodd" d="M5.67056 7.11843C5.83632 6.99673 6.06935 7.03244 6.19105 7.1982L7.17706 8.54111C7.29876 8.70687 7.26305 8.9399 7.09729 9.06161C6.93153 9.18331 6.6985 9.1476 6.57679 8.98184L5.59079 7.63893C5.46909 7.47317 5.5048 7.24014 5.67056 7.11843Z" fill="black"/>
<path fill-rule="evenodd" clip-rule="evenodd" d="M15.1509 7.73845C15.1462 7.53287 15.3092 7.36245 15.5147 7.35782L17.1803 7.32029C17.3859 7.31566 17.5563 7.47857 17.561 7.68415C17.5656 7.88974 17.4027 8.06016 17.1971 8.06479L15.5315 8.10231C15.3259 8.10695 15.1555 7.94404 15.1509 7.73845Z" fill="black"/>
<path fill-rule="evenodd" clip-rule="evenodd" d="M11.0095 17.6168C10.828 17.5201 10.7593 17.2945 10.856 17.1131L11.6394 15.6428C11.7361 15.4613 11.9616 15.3926 12.1431 15.4893C12.3246 15.586 12.3933 15.8115 12.2966 15.993L11.5132 17.4633C11.4165 17.6447 11.1909 17.7135 11.0095 17.6168Z" fill="black"/>
<path fill-rule="evenodd" clip-rule="evenodd" d="M6.01666 8.22219L9.93899 6.79361C10.0836 6.74092 10.3089 6.69636 10.5449 6.73042C10.7932 6.76624 11.0745 6.8952 11.245 7.20588C11.445 7.57015 12.0838 9.06646 12.4311 9.89318L13.6812 10.2437C13.7311 9.9464 13.8185 9.5964 13.9566 9.24092C14.1752 8.67812 14.5334 8.06949 15.1041 7.6461L15.2223 7.55845L16.2755 7.67943L15.7619 11.6366C15.7596 11.9649 15.5157 12.3904 14.9037 12.5252C14.7326 12.5629 14.4827 12.5635 14.2315 12.5531C13.9666 12.5421 13.6544 12.516 13.3345 12.4829C12.7866 12.4262 12.2033 12.3475 11.7709 12.2829L10.9262 13.2651C11.4634 13.7356 12.1181 14.4101 12.2921 15.4485C12.3618 15.8644 12.3196 16.2184 12.0954 16.4305C11.981 16.5387 11.8303 16.5936 11.6798 16.5788C11.608 16.5718 11.4553 16.5303 11.3607 16.4068L8.64302 14.3314C8.49759 14.2656 8.34213 14.1409 8.23725 13.9502C8.11016 13.7192 8.07476 13.4243 8.17017 13.0808C8.22413 12.8866 8.35901 12.6541 8.50447 12.4337C8.65757 12.2017 8.85052 11.9421 9.0538 11.6835C9.39787 11.2457 9.78153 10.7979 10.0746 10.4689L9.65078 9.30517C9.28293 9.38606 8.82068 9.46198 8.36791 9.48592C8.06609 9.50188 7.75564 9.49551 7.47433 9.44648C7.19908 9.39851 6.912 9.30302 6.6963 9.10912L6.6698 9.0853L6.01666 8.22219ZM7.2202 8.57638C7.29212 8.6291 7.41437 8.68013 7.60218 8.71285C7.80889 8.74888 8.05878 8.75654 8.32858 8.74228C8.86806 8.71375 9.43582 8.60057 9.78984 8.50525L10.1196 8.41645L10.9279 10.6356L10.7766 10.8021C10.4828 11.1252 10.0326 11.6433 9.63929 12.1437C9.44243 12.3941 9.26331 12.6358 9.12601 12.8438C8.98107 13.0635 8.90721 13.2099 8.88769 13.2801C8.83613 13.4657 8.87022 13.5559 8.88972 13.5913C8.91286 13.6334 8.94389 13.6499 8.94794 13.6521V13.6521L9.0065 13.672L11.566 15.6266C11.5637 15.6093 11.5609 15.5909 11.5576 15.5716C11.4021 14.6434 10.7448 14.0849 10.1598 13.5898L9.87335 13.3473L11.4758 11.4839L11.6805 11.5158C12.1112 11.5831 12.7868 11.6775 13.4112 11.7422C13.7237 11.7745 14.019 11.7989 14.2624 11.809C14.5195 11.8197 14.6789 11.8122 14.7436 11.7979C14.9073 11.7619 14.9706 11.7008 14.9936 11.6716C15.0118 11.6485 15.0159 11.6314 15.0169 11.6281L15.0154 11.6026L15.4398 8.33302L15.4368 8.33267C15.0773 8.64021 14.8225 9.0683 14.6507 9.51055C14.4622 9.99597 14.3862 10.4665 14.3734 10.7378L14.3514 11.205L11.8833 10.513L11.8138 10.3468C11.4798 9.54816 10.7819 7.90988 10.5922 7.56417C10.5608 7.50686 10.5159 7.47863 10.4386 7.46747C10.349 7.45454 10.2491 7.4732 10.1938 7.49333L7.2202 8.57638Z" fill="black"/>
</svg>
