<svg width="24" height="24" viewBox="0 0 24 24" fill="none" xmlns="http://www.w3.org/2000/svg">
<rect y="3" width="24" height="18" rx="2" fill="white"/>
<path fill-rule="evenodd" clip-rule="evenodd" d="M22 4H2C1.44772 4 1 4.44772 1 5V19C1 19.5523 1.44772 20 2 20H22C22.5523 20 23 19.5523 23 19V5C23 4.44771 22.5523 4 22 4ZM2 3C0.895431 3 0 3.89543 0 5V19C0 20.1046 0.89543 21 2 21H22C23.1046 21 24 20.1046 24 19V5C24 3.89543 23.1046 3 22 3H2Z" fill="#D6D8DE"/>
<path fill-rule="evenodd" clip-rule="evenodd" d="M0 6H24V5C24 3.89543 23.1046 3 22 3H2C0.89543 3 0 3.89543 0 5V6Z" fill="#0E46D4"/>
<path fill-rule="evenodd" clip-rule="evenodd" d="M0 19C0 20.1046 0.895431 21 2 21H22C23.1046 21 24 20.1046 24 19V18H0V19Z" fill="#0E46D4"/>
<path fill-rule="evenodd" clip-rule="evenodd" d="M8.17169 14.2857H10.7114L12 16.6052L13.2886 14.2857L15.8283 14.2857L14.5584 12L15.8283 9.71428L13.2886 9.71428L12 7.39478L10.7114 9.71428L8.17169 9.71428L9.44153 12L8.17169 14.2857ZM9.76838 12.5883L9.14284 13.7143H10.3939L9.76838 12.5883ZM11.0476 13.7143L10.0952 12L11.0476 10.2857H12.9524L13.9047 12L12.9524 13.7143H11.0476ZM11.3651 14.2857L12 15.4286L12.6349 14.2857H11.3651ZM13.6061 13.7143H14.8571L14.2316 12.5883L13.6061 13.7143ZM14.2316 11.4117L14.8571 10.2857H13.6061L14.2316 11.4117ZM12.6349 9.71428L12 8.57142L11.3651 9.71428L12.6349 9.71428ZM10.3939 10.2857L9.76838 11.4117L9.14284 10.2857H10.3939Z" fill="#093EC5"/>
</svg>
