<svg width="24" height="24" viewBox="0 0 24 24" fill="none" xmlns="http://www.w3.org/2000/svg">
<rect y="3.42859" width="24" height="18" rx="2" fill="#1DBE4F"/>
<path d="M0.64013 3.98871C0.246398 4.37223 0 4.9202 0 5.52859V19.3286C0 19.937 0.246398 20.485 0.640131 20.8685L10.2857 12.4286L0.64013 3.98871Z" fill="#262626"/>
<path d="M23.3599 3.98871L13.7143 12.4286L23.3599 20.8685C23.7536 20.485 24 19.937 24 19.3286V5.52859C24 4.9202 23.7536 4.37223 23.3599 3.98871Z" fill="#262626"/>
<path d="M1.44978 3.50909L12 10.9811L22.5502 3.5091C23.3439 3.74705 23.9359 4.48683 23.9951 5.38072L14.0438 12.4286L23.9951 19.4765C23.9359 20.3704 23.3439 21.1101 22.5503 21.3481L12 13.8761L1.44972 21.3481C0.656102 21.1102 0.0641021 20.3704 0.00488281 19.4765L9.95626 12.4286L0.00488683 5.38069C0.0641305 4.48681 0.656153 3.74703 1.44978 3.50909Z" fill="#FFD646"/>
</svg>
