<svg width="24" height="24" viewBox="0 0 24 24" fill="none" xmlns="http://www.w3.org/2000/svg">
<rect y="3" width="24" height="18" rx="2" fill="white"/>
<path fill-rule="evenodd" clip-rule="evenodd" d="M22 4H2C1.44772 4 1 4.44772 1 5V19C1 19.5523 1.44772 20 2 20H22C22.5523 20 23 19.5523 23 19V5C23 4.44771 22.5523 4 22 4ZM2 3C0.895431 3 0 3.89543 0 5V19C0 20.1046 0.89543 21 2 21H22C23.1046 21 24 20.1046 24 19V5C24 3.89543 23.1046 3 22 3H2Z" fill="#D6D8DE"/>
<path d="M0.268414 20.0015L10.5724 12.4259L0.0266724 4.67249C0.170008 3.80238 0.874933 3.12155 1.7568 3.01465L12.5649 10.9609L23.0161 3.277C23.605 3.62504 24 4.2664 24 5.00001V5.48349L14.5574 12.4259L23.9701 19.3463C23.8184 20.2155 23.1054 20.8919 22.2184 20.9882L12.5649 13.8908L2.89533 21H1.99999C1.26032 21 0.614436 20.5985 0.268414 20.0015Z" fill="#E3243B"/>
<path fill-rule="evenodd" clip-rule="evenodd" d="M10.8571 7.64996C10.8571 7.35892 10.8571 7.03861 10.8571 6.73319C10.8571 5.99681 11.4541 5.39996 12.1905 5.39996H12.9524C13.6888 5.39996 14.2857 5.99681 14.2857 6.73319C14.2857 7.03861 14.2857 7.35892 14.2857 7.64996C14.2857 9.25711 12.5714 9.89996 12.5714 9.89996C12.5714 9.89996 10.8571 9.25711 10.8571 7.64996Z" fill="#E3243B"/>
<path d="M13.4922 5.39999H11.6507L11.7256 5.35387L10.8798 4.84102L11.9733 4.96923L11.8196 4.19995L12.5714 4.84102L13.3233 4.19995L13.1695 4.96923L14.2631 4.84102L13.4173 5.35387L13.4922 5.39999Z" fill="#FAEF32"/>
<path d="M12.2857 9.28567C12.2857 9.12788 12.4136 8.99996 12.5714 8.99996C12.7292 8.99996 12.8571 9.12788 12.8571 9.28567V9.31424C12.8571 9.47204 12.7292 9.59996 12.5714 9.59996C12.4136 9.59996 12.2857 9.47204 12.2857 9.31424V9.28567Z" fill="#FAEF32"/>
<path d="M11.4286 8.09999C11.4286 7.93431 11.5629 7.79999 11.7286 7.79999H13.4143C13.58 7.79999 13.7143 7.93431 13.7143 8.09999C13.7143 8.26568 13.58 8.39999 13.4143 8.39999H11.7286C11.5629 8.39999 11.4286 8.26568 11.4286 8.09999Z" fill="#FAEF32"/>
<path d="M11.4286 6.89997C11.4286 6.73428 11.5629 6.59997 11.7286 6.59997H13.4143C13.58 6.59997 13.7143 6.73428 13.7143 6.89997C13.7143 7.06565 13.58 7.19997 13.4143 7.19997H11.7286C11.5629 7.19997 11.4286 7.06565 11.4286 6.89997Z" fill="#FAEF32"/>
</svg>
