<svg width="24" height="24" viewBox="0 0 24 24" fill="none" xmlns="http://www.w3.org/2000/svg">
<rect y="3" width="24" height="18" rx="2" fill="white"/>
<path fill-rule="evenodd" clip-rule="evenodd" d="M22 4H2C1.44772 4 1 4.44772 1 5V19C1 19.5523 1.44772 20 2 20H22C22.5523 20 23 19.5523 23 19V5C23 4.44771 22.5523 4 22 4ZM2 3C0.895431 3 0 3.89543 0 5V19C0 20.1046 0.89543 21 2 21H22C23.1046 21 24 20.1046 24 19V5C24 3.89543 23.1046 3 22 3H2Z" fill="#D6D8DE"/>
<path fill-rule="evenodd" clip-rule="evenodd" d="M0 18.9999C0 20.1045 0.895431 20.9999 2 20.9999H22C23.1046 20.9999 24 20.1045 24 18.9999V14.9999H0V18.9999Z" fill="#199E56"/>
<path fill-rule="evenodd" clip-rule="evenodd" d="M0 9H24V5C24 3.89543 23.1046 3 22 3H2C0.89543 3 0 3.89543 0 5V9Z" fill="#262626"/>
<path d="M0.672309 3.50427C0.259869 3.87063 0 4.40499 0 5.00004V19C0 19.5951 0.259869 20.1294 0.672309 20.4958L12 12L0.672309 3.50427Z" fill="#E6223A"/>
<path fill-rule="evenodd" clip-rule="evenodd" d="M4.00002 12.9L3.25622 13.6217L3.32988 12.5611L2.32872 12.4005L3.16437 11.7997L2.65974 10.8777L3.62812 11.1891L4.00002 10.2L4.37192 11.1891L5.3403 10.8777L4.83567 11.7997L5.67133 12.4005L4.67016 12.5611L4.74382 13.6217L4.00002 12.9Z" fill="white"/>
</svg>
