<svg width="24" height="24" viewBox="0 0 24 24" fill="none" xmlns="http://www.w3.org/2000/svg">
<rect y="3" width="24" height="18" rx="2" fill="#30C6E0"/>
<path fill-rule="evenodd" clip-rule="evenodd" d="M12 15.4286C13.8935 15.4286 15.4286 13.8936 15.4286 12C15.4286 10.1065 13.8935 8.57144 12 8.57144C10.1064 8.57144 8.57142 10.1065 8.57142 12C8.57142 13.8936 10.1064 15.4286 12 15.4286Z" fill="#FFCD4B"/>
<path fill-rule="evenodd" clip-rule="evenodd" d="M10.6013 18.1281L12 16.0402L13.3987 18.1281L13.753 15.6401L15.9191 16.9144L15.1588 14.5191L17.6632 14.7273L15.939 12.899L18.2857 12L15.939 11.101L17.6632 9.27274L15.1588 9.48096L15.9191 7.08564L13.753 8.35988L13.3987 5.87189L12 7.95977L10.6013 5.87189L10.247 8.35988L8.08093 7.08564L8.84122 9.48096L6.33678 9.27274L8.06107 11.101L5.71429 12L8.06107 12.899L6.33678 14.7273L8.84122 14.5191L8.08093 16.9144L10.247 15.6401L10.6013 18.1281ZM16 12C16 14.2091 14.2091 16 12 16C9.79087 16 8.00001 14.2091 8.00001 12C8.00001 9.79087 9.79087 8.00001 12 8.00001C14.2091 8.00001 16 9.79087 16 12Z" fill="#FFCD4B"/>
<path d="M1.14285 4.90474C1.14285 4.72065 1.29209 4.57141 1.47619 4.57141H1.95238C2.13647 4.57141 2.28571 4.72065 2.28571 4.90474V5.38093C2.28571 5.56503 2.13647 5.71427 1.95238 5.71427H1.47619C1.29209 5.71427 1.14285 5.56503 1.14285 5.38094V4.90474Z" fill="#FFCD4B"/>
<path d="M1.14285 7.19046C1.14285 7.00636 1.29209 6.85713 1.47619 6.85713H1.95238C2.13647 6.85713 2.28571 7.00636 2.28571 7.19046V7.66665C2.28571 7.85074 2.13647 7.99998 1.95238 7.99998H1.47619C1.29209 7.99998 1.14285 7.85074 1.14285 7.66665V7.19046Z" fill="#FFCD4B"/>
<path d="M1.47619 9.14284C1.29209 9.14284 1.14285 9.29208 1.14285 9.47617V9.95236C1.14285 10.1365 1.29209 10.2857 1.47619 10.2857H1.95238C2.13647 10.2857 2.28571 10.1365 2.28571 9.95236V9.47617C2.28571 9.29208 2.13647 9.14284 1.95238 9.14284H1.47619Z" fill="#FFCD4B"/>
<path d="M1.14285 11.7619C1.14285 11.5778 1.29209 11.4286 1.47619 11.4286H1.95238C2.13647 11.4286 2.28571 11.5778 2.28571 11.7619V12.2381C2.28571 12.4222 2.13647 12.5714 1.95238 12.5714H1.47619C1.29209 12.5714 1.14285 12.4222 1.14285 12.2381V11.7619Z" fill="#FFCD4B"/>
<path d="M1.47619 13.7143C1.29209 13.7143 1.14285 13.8635 1.14285 14.0476V14.5238C1.14285 14.7079 1.29209 14.8571 1.47619 14.8571H1.95238C2.13647 14.8571 2.28571 14.7079 2.28571 14.5238V14.0476C2.28571 13.8635 2.13647 13.7143 1.95238 13.7143H1.47619Z" fill="#FFCD4B"/>
<path d="M1.14285 16.3333C1.14285 16.1492 1.29209 16 1.47619 16H1.95238C2.13647 16 2.28571 16.1492 2.28571 16.3333V16.8095C2.28571 16.9936 2.13647 17.1428 1.95238 17.1428H1.47619C1.29209 17.1428 1.14285 16.9936 1.14285 16.8095V16.3333Z" fill="#FFCD4B"/>
<path d="M1.47619 18.2857C1.29209 18.2857 1.14285 18.4349 1.14285 18.619V19.0952C1.14285 19.2793 1.29209 19.4286 1.47619 19.4286H1.95238C2.13647 19.4286 2.28571 19.2793 2.28571 19.0952V18.619C2.28571 18.4349 2.13647 18.2857 1.95238 18.2857H1.47619Z" fill="#FFCD4B"/>
<path d="M2.28571 17.4762C2.28571 17.2921 2.43495 17.1428 2.61904 17.1428H3.09523C3.27933 17.1428 3.42857 17.2921 3.42857 17.4762V17.9524C3.42857 18.1365 3.27933 18.2857 3.09523 18.2857H2.61904C2.43495 18.2857 2.28571 18.1365 2.28571 17.9524V17.4762Z" fill="#FFCD4B"/>
<path d="M2.61904 14.8571C2.43495 14.8571 2.28571 15.0064 2.28571 15.1905V15.6666C2.28571 15.8507 2.43495 16 2.61904 16H3.09523C3.27933 16 3.42857 15.8507 3.42857 15.6666V15.1905C3.42857 15.0064 3.27933 14.8571 3.09523 14.8571H2.61904Z" fill="#FFCD4B"/>
<path d="M2.28571 12.9047C2.28571 12.7206 2.43495 12.5714 2.61904 12.5714H3.09523C3.27933 12.5714 3.42857 12.7206 3.42857 12.9047V13.3809C3.42857 13.565 3.27933 13.7143 3.09523 13.7143H2.61904C2.43495 13.7143 2.28571 13.565 2.28571 13.3809V12.9047Z" fill="#FFCD4B"/>
<path d="M2.61904 10.2857C2.43495 10.2857 2.28571 10.4349 2.28571 10.619V11.0952C2.28571 11.2793 2.43495 11.4286 2.61904 11.4286H3.09523C3.27933 11.4286 3.42857 11.2793 3.42857 11.0952V10.619C3.42857 10.4349 3.27933 10.2857 3.09523 10.2857H2.61904Z" fill="#FFCD4B"/>
<path d="M2.28571 8.33332C2.28571 8.14922 2.43495 7.99998 2.61904 7.99998H3.09523C3.27933 7.99998 3.42857 8.14922 3.42857 8.33332V8.80951C3.42857 8.9936 3.27933 9.14284 3.09523 9.14284H2.61904C2.43495 9.14284 2.28571 8.9936 2.28571 8.80951V8.33332Z" fill="#FFCD4B"/>
<path d="M2.61904 5.71427C2.43495 5.71427 2.28571 5.86351 2.28571 6.0476V6.52379C2.28571 6.70789 2.43495 6.85713 2.61904 6.85713H3.09523C3.27933 6.85713 3.42857 6.70789 3.42857 6.52379V6.0476C3.42857 5.86351 3.27933 5.71427 3.09523 5.71427H2.61904Z" fill="#FFCD4B"/>
</svg>
