<svg width="24" height="24" viewBox="0 0 24 24" fill="none" xmlns="http://www.w3.org/2000/svg">
<rect y="3" width="24" height="18" rx="2" fill="white"/>
<path fill-rule="evenodd" clip-rule="evenodd" d="M0 8H24V5C24 3.89543 23.1046 3 22 3H2C0.89543 3 0 3.89543 0 5V8Z" fill="#262626"/>
<path fill-rule="evenodd" clip-rule="evenodd" d="M0 19C0 20.1046 0.895431 21 2 21H22C23.1046 21 24 20.1046 24 19V16H0V19Z" fill="#018301"/>
<path fill-rule="evenodd" clip-rule="evenodd" d="M0 15H24V9H0V15Z" fill="#DC0808"/>
<path fill-rule="evenodd" clip-rule="evenodd" d="M12 18.0698C13.1429 18.0698 14.8572 15.7697 14.8572 12.2093C14.8572 8.64903 13.1429 6.34888 12 6.34888C10.8572 6.34888 9.14288 8.64903 9.14288 12.2093C9.14288 15.7697 10.8572 18.0698 12 18.0698Z" fill="#BC0000"/>
<path d="M9.80737 8.63721C9.41168 9.58726 9.14288 10.7995 9.14288 12.2093C9.14288 13.6191 9.41168 14.8313 9.80735 15.7814C10.1096 14.7589 10.2857 13.5305 10.2857 12.2093C10.2857 10.8881 10.1096 9.6597 9.80737 8.63721Z" fill="#262626"/>
<path d="M14.1927 8.63721C13.8905 9.6597 13.7143 10.8881 13.7143 12.2093C13.7143 13.5305 13.8905 14.7589 14.1927 15.7814C14.5884 14.8313 14.8572 13.6191 14.8572 12.2093C14.8572 10.7995 14.5884 9.58726 14.1927 8.63721Z" fill="#262626"/>
<path d="M12 10.4512C12.3156 10.4512 12.5714 9.40164 12.5714 8.10698C12.5714 7.45131 12.5058 6.8585 12.4001 6.43306C12.2617 6.37742 12.1273 6.34888 12 6.34888C11.8727 6.34888 11.7383 6.37742 11.6 6.43307C11.4942 6.85851 11.4286 7.45131 11.4286 8.10698C11.4286 9.40164 11.6844 10.4512 12 10.4512Z" fill="white"/>
<path d="M12 13.9675C12.3156 13.9675 12.5714 13.1803 12.5714 12.2093C12.5714 11.2383 12.3156 10.4512 12 10.4512C11.6844 10.4512 11.4286 11.2383 11.4286 12.2093C11.4286 13.1803 11.6844 13.9675 12 13.9675Z" fill="white"/>
<path d="M12.4 17.9856C12.5058 17.5602 12.5714 16.9674 12.5714 16.3117C12.5714 15.017 12.3156 13.9675 12 13.9675C11.6844 13.9675 11.4286 15.017 11.4286 16.3117C11.4286 16.9674 11.4942 17.5602 11.6 17.9856C11.7383 18.0413 11.8727 18.0698 12 18.0698C12.1273 18.0698 12.2617 18.0413 12.4 17.9856Z" fill="white"/>
</svg>
