<svg width="24" height="24" viewBox="0 0 24 24" fill="none" xmlns="http://www.w3.org/2000/svg">
<rect y="3" width="24" height="18" rx="2" fill="white"/>
<path fill-rule="evenodd" clip-rule="evenodd" d="M22 4H2C1.44772 4 1 4.44772 1 5V19C1 19.5523 1.44772 20 2 20H22C22.5523 20 23 19.5523 23 19V5C23 4.44771 22.5523 4 22 4ZM2 3C0.895431 3 0 3.89543 0 5V19C0 20.1046 0.89543 21 2 21H22C23.1046 21 24 20.1046 24 19V5C24 3.89543 23.1046 3 22 3H2Z" fill="#D6D8DE"/>
<path fill-rule="evenodd" clip-rule="evenodd" d="M12.1583 15.6484C14.3674 15.6484 16.1583 13.8575 16.1583 11.6484C16.1583 9.43924 14.3674 7.64838 12.1583 7.64838C9.94914 7.64838 8.15828 9.43924 8.15828 11.6484C8.15828 13.8575 9.94914 15.6484 12.1583 15.6484Z" fill="#E01B41"/>
<path d="M12.1504 15.6484H12.1662C14.2064 15.6444 15.8882 14.113 16.1288 12.1368C15.5121 10.506 13.2824 10.5337 12.1583 12.2198C11.031 13.9108 9.34768 13.3083 8.20525 12.2633C8.50066 14.178 10.1539 15.6445 12.1504 15.6484Z" fill="#0E4B9C"/>
<g opacity="0.75">
<path d="M5.42567 6.16672C5.51771 6.00729 5.72158 5.95267 5.88101 6.04471L6.2934 6.28281C6.45283 6.37486 6.50746 6.57872 6.41541 6.73815L5.03446 9.13003C4.94241 9.28946 4.73855 9.34409 4.57912 9.25204L4.16672 9.01394C4.00729 8.9219 3.95267 8.71803 4.04471 8.5586L5.42567 6.16672Z" fill="#262626"/>
<path d="M18.0231 6.28281C17.8637 6.37486 17.8091 6.57872 17.9011 6.73815L19.2821 9.13003C19.3741 9.28946 19.578 9.34409 19.7374 9.25204L20.1498 9.01394C20.3092 8.9219 20.3639 8.71803 20.2718 8.5586L18.8909 6.16672C18.7988 6.00729 18.595 5.95267 18.4355 6.04471L18.0231 6.28281Z" fill="#262626"/>
<path d="M16.5385 7.13995C16.3791 7.232 16.3245 7.43586 16.4165 7.59529L17.7975 9.98717C17.8895 10.1466 18.0934 10.2012 18.2528 10.1092L18.6652 9.87109C18.8246 9.77904 18.8792 9.57518 18.7872 9.41575L17.4062 7.02387C17.3142 6.86443 17.1103 6.80981 16.9509 6.90186L16.5385 7.13995Z" fill="#262626"/>
<path d="M4.04471 14.7382C3.95267 14.5787 4.00729 14.3749 4.16672 14.2828L4.57912 14.0447C4.73855 13.9527 4.94241 14.0073 5.03446 14.1667L6.41541 16.5586C6.50746 16.718 6.45283 16.9219 6.2934 17.0139L5.88101 17.252C5.72158 17.3441 5.51771 17.2895 5.42567 17.13L4.04471 14.7382Z" fill="#262626"/>
<path d="M5.65134 13.4257C5.49191 13.5177 5.43728 13.7216 5.52933 13.881L6.91028 16.2729C7.00233 16.4323 7.20619 16.4869 7.36562 16.3949L7.77802 16.1568C7.93745 16.0648 7.99207 15.8609 7.90002 15.7015L6.51907 13.3096C6.42703 13.1501 6.22316 13.0955 6.06373 13.1876L5.65134 13.4257Z" fill="#262626"/>
<path d="M17.7975 13.3096C17.8895 13.1501 18.0934 13.0955 18.2528 13.1876L18.6652 13.4257C18.8246 13.5177 18.8792 13.7216 18.7872 13.881L17.4062 16.2729C17.3142 16.4323 17.1103 16.4869 16.9509 16.3949L16.5385 16.1568C16.3791 16.0648 16.3245 15.8609 16.4165 15.7015L17.7975 13.3096Z" fill="#262626"/>
<path d="M19.7374 14.0447C19.578 13.9527 19.3741 14.0073 19.2821 14.1667L17.9011 16.5586C17.8091 16.718 17.8637 16.9219 18.0231 17.0139L18.4355 17.252C18.595 17.3441 18.7988 17.2895 18.8909 17.13L20.2718 14.7382C20.3639 14.5787 20.3092 14.3749 20.1498 14.2828L19.7374 14.0447Z" fill="#262626"/>
<path d="M7.36562 6.90186C7.20619 6.80981 7.00233 6.86443 6.91028 7.02386L5.52933 9.41574C5.43728 9.57518 5.49191 9.77904 5.65134 9.87109L6.06373 10.1092C6.22316 10.2012 6.42702 10.1466 6.51907 9.98717L7.90002 7.59529C7.99207 7.43586 7.93745 7.232 7.77802 7.13995L7.36562 6.90186Z" fill="#262626"/>
</g>
</svg>
