<svg width="24" height="24" viewBox="0 0 24 24" fill="none" xmlns="http://www.w3.org/2000/svg">
<rect y="3" width="24" height="18" rx="2" fill="#F22A46"/>
<path fill-rule="evenodd" clip-rule="evenodd" d="M12.2857 14.9853C13.8637 14.9853 15.1429 13.7061 15.1429 12.1281C15.1429 10.5502 13.8637 9.27098 12.2857 9.27098C10.7078 9.27098 9.42857 10.5502 9.42857 12.1281C9.42857 13.7061 10.7078 14.9853 12.2857 14.9853Z" fill="#FFF04D"/>
<path fill-rule="evenodd" clip-rule="evenodd" d="M10.887 18.2562L12.2857 16.1684L13.6844 18.2562L14.0387 15.7682L16.2048 17.0425L15.4445 14.6472L17.9489 14.8554L16.2247 13.0272L18.5714 12.1281L16.2247 11.2291L17.9489 9.40085L15.4445 9.60907L16.2048 7.21375L14.0387 8.48799L13.6844 6L12.2857 8.08788L10.887 6L10.5327 8.48799L8.36664 7.21375L9.12693 9.60907L6.62248 9.40085L8.34677 11.2291L6 12.1281L8.34677 13.0272L6.62248 14.8554L9.12693 14.6472L8.36664 17.0425L10.5327 15.7682L10.887 18.2562ZM16.2857 12.1281C16.2857 14.3373 14.4949 16.1281 12.2857 16.1281C10.0766 16.1281 8.28571 14.3373 8.28571 12.1281C8.28571 9.91898 10.0766 8.12812 12.2857 8.12812C14.4949 8.12812 16.2857 9.91898 16.2857 12.1281Z" fill="#FFF04D"/>
</svg>
