<svg xmlns="http://www.w3.org/2000/svg" viewBox="0 0 24 24">
  <defs/>
  <path fill-rule="evenodd" d="M13.163 3.385a3.65 3.65 0 00-3.265 0L2.415 7.127a.75.75 0 000 1.342l2.627 1.313-2.627 1.314a.75.75 0 000 1.341l2.627 1.314-2.558 1.279a.75.75 0 000 1.341l7.414 3.707a3.65 3.65 0 003.265 0l7.413-3.707a.75.75 0 000-1.341l-2.557-1.28 2.627-1.313a.75.75 0 000-1.341l-2.627-1.314 2.627-1.313a.75.75 0 000-1.342l-7.483-3.742zm-2.684 1.163a2.35 2.35 0 012.102 0l6.5 3.25-6.5 3.25a2.35 2.35 0 01-2.102 0l-6.5-3.25 6.5-3.25zm6.087 5.96l-3.403 1.702a3.65 3.65 0 01-3.265 0L6.495 10.51 3.98 11.766l6.5 3.25c.66.33 1.44.33 2.101 0l6.5-3.25-2.515-1.257zM4.05 15.7l2.445-1.223 3.403 1.702a3.65 3.65 0 003.265 0l3.402-1.701 2.446 1.222-6.43 3.215a2.35 2.35 0 01-2.102 0L4.05 15.7z"/>
</svg>
