<svg xmlns="http://www.w3.org/2000/svg" viewBox="0 0 24 24">
  <defs/>
  <path d="M3.057 14.743l6.84 3.42a3.65 3.65 0 003.266 0l6.84-3.42.573.287a.75.75 0 010 1.341l-7.413 3.707a3.65 3.65 0 01-3.265 0L2.484 16.37a.75.75 0 010-1.341l.573-.287z"/>
  <path d="M3.057 10.774l6.84 3.42a3.65 3.65 0 003.266 0l6.84-3.42.643.322a.75.75 0 010 1.341l-7.483 3.742a3.65 3.65 0 01-3.265 0l-7.483-3.742a.75.75 0 010-1.341l.642-.322z"/>
  <path d="M13.163 3.385a3.65 3.65 0 00-3.265 0L2.415 7.127a.75.75 0 000 1.342l7.483 3.741a3.65 3.65 0 003.265 0l7.483-3.741a.75.75 0 000-1.342l-7.483-3.742z"/>
</svg>
