<svg width="24" height="24" viewBox="0 0 24 24" fill="none" xmlns="http://www.w3.org/2000/svg">
<rect y="3" width="24" height="18" rx="2" fill="white"/>
<path fill-rule="evenodd" clip-rule="evenodd" d="M22 4H2C1.44772 4 1 4.44772 1 5V19C1 19.5523 1.44772 20 2 20H22C22.5523 20 23 19.5523 23 19V5C23 4.44771 22.5523 4 22 4ZM2 3C0.895431 3 0 3.89543 0 5V19C0 20.1046 0.89543 21 2 21H22C23.1046 21 24 20.1046 24 19V5C24 3.89543 23.1046 3 22 3H2Z" fill="#D6D8DE"/>
<path fill-rule="evenodd" clip-rule="evenodd" d="M0 8H24V5C24 3.89543 23.1046 3 22 3H2C0.89543 3 0 3.89543 0 5V8Z" fill="#F03340"/>
<path fill-rule="evenodd" clip-rule="evenodd" d="M0 19C0 20.1046 0.895431 21 2 21H22C23.1046 21 24 20.1046 24 19V16H0V19Z" fill="#F03340"/>
<path fill-rule="evenodd" clip-rule="evenodd" d="M11.0938 14.049C11.2787 13.8641 11.2787 13.5644 11.0938 13.3795L11.0281 13.3138C10.922 13.2077 10.7681 13.1651 10.6226 13.2015L10.2975 13.2827C9.91725 13.3778 9.68122 12.8819 9.99481 12.6467L10.2886 12.4264C10.4707 12.2898 10.3741 12 10.1464 12C9.89642 12 9.81687 11.663 10.0405 11.5512L10.531 11.3059C10.7546 11.1941 10.675 10.8571 10.425 10.8571C10.1973 10.8571 10.1007 10.5673 10.2829 10.4307L11.6 9.44284C11.837 9.26506 12.163 9.26506 12.4 9.44284L13.7171 10.4307C13.8993 10.5673 13.8027 10.8571 13.575 10.8571C13.325 10.8571 13.2454 11.1941 13.469 11.3059L13.9595 11.5512C14.1831 11.663 14.1036 12 13.8536 12C13.6259 12 13.5293 12.2898 13.7114 12.4264L14.0052 12.6467C14.3188 12.8819 14.0827 13.3778 13.7025 13.2827L13.3774 13.2015C13.2319 13.1651 13.078 13.2077 12.9719 13.3138L12.9062 13.3795C12.7213 13.5644 12.7213 13.8641 12.9062 14.049C13.2044 14.3472 12.9932 14.8571 12.5714 14.8571H11.4286C11.0068 14.8571 10.7956 14.3472 11.0938 14.049Z" fill="#1FC065"/>
</svg>
