<svg width="24" height="24" viewBox="0 0 24 24" fill="none" xmlns="http://www.w3.org/2000/svg">
<rect y="3" width="24" height="18" rx="2" fill="white"/>
<path fill-rule="evenodd" clip-rule="evenodd" d="M22 4H2C1.44772 4 1 4.44772 1 5V19C1 19.5523 1.44772 20 2 20H22C22.5523 20 23 19.5523 23 19V5C23 4.44771 22.5523 4 22 4ZM2 3C0.895431 3 0 3.89543 0 5V19C0 20.1046 0.89543 21 2 21H22C23.1046 21 24 20.1046 24 19V5C24 3.89543 23.1046 3 22 3H2Z" fill="#D6D8DE"/>
<path fill-rule="evenodd" clip-rule="evenodd" d="M0 9H24V5C24 3.89543 23.1046 3 22 3H2C0.89543 3 0 3.89543 0 5V9Z" fill="#0C33B8"/>
<path fill-rule="evenodd" clip-rule="evenodd" d="M0 19C0 20.1046 0.895431 21 2 21H22C23.1046 21 24 20.1046 24 19V15H0V19Z" fill="#1DB158"/>
<path fill-rule="evenodd" clip-rule="evenodd" d="M11.0449 12C11.228 11.4509 12.0047 11.4509 12.1878 12L13.1791 13.4869C13.2672 13.6191 13.2475 13.7935 13.114 13.8796C12.8521 14.0484 12.3529 14.2857 11.6163 14.2857C10.8798 14.2857 10.3806 14.0484 10.1187 13.8796C9.98515 13.7935 9.96551 13.6191 10.0536 13.4869L11.0449 12Z" fill="#262626"/>
<path fill-rule="evenodd" clip-rule="evenodd" d="M11.6163 11.3333C11.8793 11.3333 12.0925 11.1201 12.0925 10.8572C12.0925 10.5942 11.8793 10.381 11.6163 10.381C11.3534 10.381 11.1402 10.5942 11.1402 10.8572C11.1402 11.1201 11.3534 11.3333 11.6163 11.3333ZM12.7592 10.8572C12.7592 11.4883 12.2475 12 11.6163 12C10.9852 12 10.4735 11.4883 10.4735 10.8572C10.4735 10.226 10.9852 9.71429 11.6163 9.71429C12.2475 9.71429 12.7592 10.226 12.7592 10.8572Z" fill="#262626"/>
</svg>
