<svg width="24" height="24" viewBox="0 0 24 24" fill="none" xmlns="http://www.w3.org/2000/svg">
<rect y="3" width="24" height="18" rx="2" fill="white"/>
<path fill-rule="evenodd" clip-rule="evenodd" d="M22 4H2C1.44772 4 1 4.44772 1 5V19C1 19.5523 1.44772 20 2 20H22C22.5523 20 23 19.5523 23 19V5C23 4.44771 22.5523 4 22 4ZM2 3C0.895431 3 0 3.89543 0 5V19C0 20.1046 0.89543 21 2 21H22C23.1046 21 24 20.1046 24 19V5C24 3.89543 23.1046 3 22 3H2Z" fill="#D6D8DE"/>
<path d="M12 3H22C23.1046 3 24 3.89543 24 5V5.5H12V3Z" fill="#E2273E"/>
<path d="M12 7.5H24V10H12V7.5Z" fill="#E2273E"/>
<path d="M12 12H24V14.5H12V12Z" fill="#E2273E"/>
<path d="M0 16.5H24V19H0V16.5Z" fill="#E2273E"/>
<path fill-rule="evenodd" clip-rule="evenodd" d="M2 3C0.895431 3 0 3.89543 0 5V14.5H12V3H2ZM3.69901 11.9124L5.71428 10.404L7.72954 11.9124L6.98598 9.43382L8.97504 7.8875L6.50023 7.8641L5.71428 5.39996L4.92832 7.8641L2.45351 7.8875L4.44258 9.43382L3.69901 11.9124Z" fill="#0C3F8E"/>
</svg>
