<svg width="24" height="24" viewBox="0 0 24 24" fill="none" xmlns="http://www.w3.org/2000/svg">
<path fill-rule="evenodd" clip-rule="evenodd" d="M0 15H24V9H0V15Z" fill="#262626"/>
<path fill-rule="evenodd" clip-rule="evenodd" d="M0 19C0 20.1046 0.895431 21 2 21H22C23.1046 21 24 20.1046 24 19V15H0V19Z" fill="#34B857"/>
<path fill-rule="evenodd" clip-rule="evenodd" d="M0 9H24V5C24 3.89543 23.1046 3 22 3H2C0.89543 3 0 3.89543 0 5V9Z" fill="#F41F34"/>
<path d="M12 13.7143C12.3525 13.7143 12.6802 13.6079 12.9527 13.4254C12.9211 13.4275 12.8892 13.4286 12.8571 13.4286C12.0682 13.4286 11.4286 12.789 11.4286 12C11.4286 11.211 12.0682 10.5714 12.8571 10.5714C12.8892 10.5714 12.9211 10.5725 12.9527 10.5746C12.6802 10.3921 12.3525 10.2857 12 10.2857C11.0532 10.2857 10.2857 11.0532 10.2857 12C10.2857 12.9468 11.0532 13.7143 12 13.7143Z" fill="white"/>
<path d="M13.7143 12C13.7143 12.3156 13.4585 12.5714 13.1429 12.5714C12.8273 12.5714 12.5714 12.3156 12.5714 12C12.5714 11.6844 12.8273 11.4286 13.1429 11.4286C13.4585 11.4286 13.7143 11.6844 13.7143 12Z" fill="white"/>
</svg>
