<svg xmlns="http://www.w3.org/2000/svg" viewBox="0 0 24 24">
  <path fill-rule="evenodd" d="M13.504 3.309a.617.617 0 0 0-.537.169l-8.472 8.36a.65.65 0 0 0 .33 1.1l3.841.764a1.95 1.95 0 0 1 1.538 2.268l-.743 4a.617.617 0 0 0 1.04.552l8.472-8.36a.65.65 0 0 0-.33-1.1l-3.84-.764a1.95 1.95 0 0 1-1.538-2.268l.742-4a.617.617 0 0 0-.503-.721Zm-1.45-.756a1.917 1.917 0 0 1 3.232 1.714l-.743 4a.65.65 0 0 0 .513.756l3.841.764c1.534.305 2.103 2.201.99 3.3l-8.472 8.36a1.917 1.917 0 0 1-3.232-1.714l.742-4a.65.65 0 0 0-.512-.756l-3.841-.764c-1.535-.305-2.104-2.201-.99-3.3l8.472-8.36Z"/>
</svg>
