<svg xmlns="http://www.w3.org/2000/svg" viewBox="0 0 24 24">
  <defs/>
  <path fill-rule="evenodd" d="M6.657 6a.65.65 0 01.485.207l2.07 2.225a.65.65 0 01-.952.885l-.917-.985v2.512a.65.65 0 11-1.3 0V8.339l-.851.965a.65.65 0 11-.975-.86L6.178 6.22A.65.65 0 016.657 6zm4.348.844a.65.65 0 01.65-.65h7.709a.65.65 0 110 1.3h-7.71a.65.65 0 01-.65-.65zm0 5.3a.65.65 0 01.65-.65h7.709a.65.65 0 010 1.3h-7.71a.65.65 0 01-.65-.65zm-3.662 3.75v-2.45a.65.65 0 00-1.3 0v2.457l-.917-.986a.65.65 0 10-.952.886l2.07 2.225a.65.65 0 00.963-.013l1.962-2.225a.65.65 0 10-.975-.86l-.851.966zm4.312.9a.65.65 0 000 1.3h7.709a.65.65 0 100-1.3h-7.71z"/>
</svg>
