<svg xmlns="http://www.w3.org/2000/svg" viewBox="0 0 24 24">
  <defs/>
  <path fill-rule="evenodd" d="M3.743 5a.65.65 0 000 1.3h.271v2.362a.65.65 0 101.3 0V5.65a.65.65 0 00-.65-.65h-.921zm5.004 1.506a.65.65 0 100 1.3h10.682a.65.65 0 100-1.3H8.747zm0 5.3a.65.65 0 100 1.3h10.682a.65.65 0 100-1.3H8.747zm-.65 5.95a.65.65 0 01.65-.65h10.682a.65.65 0 110 1.3H8.747a.65.65 0 01-.65-.65zm-5.044-6.768a.65.65 0 01.65-.65h1.151a1.385 1.385 0 01.952 2.39l-.471.447h.344a.65.65 0 110 1.3H3.703a.65.65 0 01-.447-1.123l1.657-1.568a.085.085 0 00-.059-.146H3.703a.65.65 0 01-.65-.65zm2.607 4.604H3.65a.65.65 0 000 1.3h.744l-.16.222a.65.65 0 00.528 1.029h.019a.239.239 0 110 .478H3.65a.65.65 0 100 1.3h1.13a1.539 1.539 0 00.99-2.718l.418-.582a.65.65 0 00-.528-1.03z"/>
</svg>
