<svg width="24" height="24" viewBox="0 0 24 24" fill="none" xmlns="http://www.w3.org/2000/svg">
<path fill-rule="evenodd" clip-rule="evenodd" d="M0 19C0 20.1046 0.895431 21 2 21H22C23.1046 21 24 20.1046 24 19V5C24 3.89543 23.1046 3 22 3H2C0.89543 3 0 3.89543 0 5V19Z" fill="#079D7B"/>
<path d="M13.7586 11.1428C13.7586 11.393 13.7404 11.6357 13.7063 11.8669C13.7939 11.84 13.8832 11.8143 13.9739 11.79C15.4981 11.3815 16.8585 11.5163 17.0125 12.0909C17.1517 12.6103 16.2578 13.3111 14.9594 13.7427C14.73 13.0624 13.5563 12.8571 12.1428 12.8571C10.7278 12.8571 9.5531 13.0629 9.32555 13.745C8.04469 13.3126 7.16685 12.619 7.30485 12.1041C7.45882 11.5294 8.81924 11.3947 10.3434 11.8031C10.4235 11.8245 10.5023 11.847 10.58 11.8705C10.5455 11.6382 10.5271 11.3943 10.5271 11.1428C10.5271 9.56489 11.2505 8.28571 12.1428 8.28571C13.0352 8.28571 13.7586 9.56489 13.7586 11.1428Z" fill="white"/>
<path d="M10.2855 14C10.1272 13.9689 9.96559 13.9318 9.80207 13.8883C9.98595 13.8938 10.2127 13.9095 10.4722 13.9275C10.9421 13.96 11.5191 14 12.1428 14C12.7666 14 13.3436 13.96 13.8134 13.9275C14.0632 13.9102 14.2826 13.895 14.4626 13.889C14.2934 13.9327 14.1264 13.9696 13.9631 14H16.7143C16.5787 14.4069 16.3963 14.7903 16.1738 15.1428H8.11184C7.8894 14.7903 7.70696 14.4069 7.57141 14H10.2855Z" fill="white"/>
<path d="M12.1428 17.4286C13.2972 17.4286 14.3573 17.0004 15.1898 16.2857H9.0959C9.9284 17.0004 10.9885 17.4286 12.1428 17.4286Z" fill="white"/>
<path d="M12.1429 7.14286C12.4584 7.14286 12.7143 6.88702 12.7143 6.57143C12.7143 6.25584 12.4584 6 12.1429 6C11.8273 6 11.5714 6.25584 11.5714 6.57143C11.5714 6.88702 11.8273 7.14286 12.1429 7.14286Z" fill="#FCD117"/>
<path d="M7.57143 10C7.88702 10 8.14286 9.74416 8.14286 9.42857C8.14286 9.11298 7.88702 8.85714 7.57143 8.85714C7.25584 8.85714 7 9.11298 7 9.42857C7 9.74416 7.25584 10 7.57143 10Z" fill="#FCD117"/>
<path d="M17.2857 9.42857C17.2857 9.74416 17.0299 10 16.7143 10C16.3987 10 16.1429 9.74416 16.1429 9.42857C16.1429 9.11298 16.3987 8.85714 16.7143 8.85714C17.0299 8.85714 17.2857 9.11298 17.2857 9.42857Z" fill="#FCD117"/>
<path d="M15 8.28571C15.3156 8.28571 15.5714 8.02988 15.5714 7.71429C15.5714 7.39869 15.3156 7.14286 15 7.14286C14.6844 7.14286 14.4286 7.39869 14.4286 7.71429C14.4286 8.02988 14.6844 8.28571 15 8.28571Z" fill="#FCD117"/>
<path d="M9.85714 7.71429C9.85714 8.02988 9.60131 8.28571 9.28571 8.28571C8.97012 8.28571 8.71429 8.02988 8.71429 7.71429C8.71429 7.39869 8.97012 7.14286 9.28571 7.14286C9.60131 7.14286 9.85714 7.39869 9.85714 7.71429Z" fill="#FCD117"/>
</svg>
