<svg width="24" height="24" viewBox="0 0 24 24" fill="none" xmlns="http://www.w3.org/2000/svg">
<rect y="3" width="24" height="18" rx="2" fill="#E81B26"/>
<path fill-rule="evenodd" clip-rule="evenodd" d="M12 14.8571C13.578 14.8571 14.8571 13.578 14.8571 12C14.8571 10.422 13.578 9.14286 12 9.14286C10.422 9.14286 9.14286 10.422 9.14286 12C9.14286 13.578 10.422 14.8571 12 14.8571Z" fill="#FFE94F"/>
<path d="M9.34113 9.01152C9.1208 9.20769 8.92232 9.42785 8.74977 9.66791L0.462033 3.72138C0.828898 3.28059 1.38168 3 2 3H3.99261L9.34113 9.01152Z" fill="#FFE94F"/>
<path d="M20.0073 3L14.6588 9.01152C14.8792 9.20769 15.0776 9.42785 15.2502 9.66791L23.538 3.72137C23.1711 3.28058 22.6183 3 22 3H20.0073Z" fill="#FFE94F"/>
<path d="M23.538 20.2786L15.2502 14.332C15.0776 14.5721 14.8792 14.7923 14.6588 14.9884L20.0074 21H22C22.6183 21 23.1711 20.7194 23.538 20.2786Z" fill="#FFE94F"/>
<path d="M3.99257 21L9.34113 14.9884C9.1208 14.7923 8.92232 14.5721 8.74977 14.332L0.462006 20.2786C0.828871 20.7194 1.38167 21 2 21H3.99257Z" fill="#FFE94F"/>
<path d="M0 13.7143L8.03968 12.5657C8.01352 12.3809 7.99998 12.192 7.99998 12C7.99998 11.8079 8.01352 11.619 8.03968 11.4342L0 10.2857V13.7143Z" fill="#FFE94F"/>
<path d="M10.2857 3.42855L11.2154 8.0769C11.4691 8.02644 11.7314 7.99997 12 7.99997C12.2685 7.99997 12.5309 8.02644 12.7846 8.0769L13.7143 3.42855H10.2857Z" fill="#FFE94F"/>
<path d="M15.9603 11.4342C15.9864 11.619 16 11.8079 16 12C16 12.192 15.9864 12.3809 15.9603 12.5657L24 13.7143V10.2857L15.9603 11.4342Z" fill="#FFE94F"/>
<path d="M10.2857 20.5714L11.2154 15.923C11.4691 15.9735 11.7314 16 12 16C12.2685 16 12.5309 15.9735 12.7846 15.923L13.7143 20.5714H10.2857Z" fill="#FFE94F"/>
</svg>
