<svg xmlns="http://www.w3.org/2000/svg" viewBox="0 0 24 24">
  <defs/>
  <g clip-path="url(#clip0_4358_22045)">
    <path fill-rule="evenodd" d="M20.524 13.992l-4.705 4.705A7.5 7.5 0 015.213 8.09l4.705-4.705a1.3 1.3 0 011.838 0l2.077 2.077a1.3 1.3 0 010 1.838l-4.506 4.506a1.99 1.99 0 102.815 2.815l4.506-4.506a1.3 1.3 0 011.838 0l2.038 2.038a1.3 1.3 0 010 1.839zM9.29 5.852l2.077 2.076 1.546-1.547-2.076-2.077L9.29 5.851zm10.315 7.22l-1.547 1.548-2.038-2.038 1.547-1.548 2.038 2.038z"/>
  </g>
  <defs>
    <clipPath id="clip0_4358_22045">
      <path d="M0 0h24v24H0z"/>
    </clipPath>
  </defs>
</svg>
