<svg xmlns="http://www.w3.org/2000/svg" viewBox="0 0 24 24">
  <defs/>
  <g clip-path="url(#clip0_4358_22044)">
    <path fill-rule="evenodd" d="M20.524 13.992l-4.705 4.705A7.5 7.5 0 015.213 8.09l4.705-4.705a1.3 1.3 0 011.838 0l2.077 2.077a1.3 1.3 0 010 1.838l-4.506 4.506a1.99 1.99 0 102.815 2.815l4.506-4.506a1.3 1.3 0 011.838 0l2.038 2.038a1.3 1.3 0 010 1.839zM14.9 17.777l2.239-2.238L15.1 13.5l-2.04 2.04a3.29 3.29 0 11-4.654-4.654l2.04-2.04L8.37 6.771 6.132 9.009a6.2 6.2 0 108.768 8.768zM9.29 5.851l2.077 2.077 1.546-1.547-2.076-2.077L9.29 5.851zm10.315 7.221l-1.547 1.548-2.038-2.038 1.547-1.548 2.038 2.038z"/>
  </g>
  <defs>
    <clipPath id="clip0_4358_22044">
      <path d="M0 0h24v24H0z"/>
    </clipPath>
  </defs>
</svg>
