<svg xmlns="http://www.w3.org/2000/svg" viewBox="0 0 24 24">
  <defs/>
  <path d="M4.232 8.765a.7.7 0 00-1.13.55L3.1 16.12c0 1.66 1.34 3 3 3h12c1.66 0 3-1.34 3-3 0-2.28.051-4.568.025-6.85a.69.69 0 00-1.112-.539l-4.572 3.472 2.582 1.943a.65.65 0 11-.781 1.04l-2.877-2.165-.133.1a3.65 3.65 0 01-4.452-.029l-.118-.091H9.66l-2.903 2.184a.65.65 0 11-.781-1.039L8.6 12.172 4.232 8.765z"/>
  <path d="M3.82 6.037c-.224.262-.141.648.131.86l6.628 5.17a2.35 2.35 0 002.867.019l6.807-5.169c.276-.21.363-.597.139-.861A2.996 2.996 0 0018.1 4.99h-12c-.913 0-1.73.406-2.28 1.047z"/>
</svg>
