<svg xmlns="http://www.w3.org/2000/svg" viewBox="0 0 24 24">
  <defs/>
  <path fill-rule="evenodd" d="M6.1 4.99c-1.66 0-3 1.34-3 3v8.13c0 1.66 1.34 3 3 3h12c1.66 0 3-1.34 3-3V7.99c0-1.66-1.35-3-3-3h-12zm13.7 3.947l-4.347 3.275 2.57 1.934a.65.65 0 11-.781 1.04l-2.87-2.16-.175.133a3.65 3.65 0 01-4.393 0l-.176-.133-2.87 2.16a.65.65 0 11-.781-1.04l2.57-1.934L4.4 9.087v7.033c0 .94.76 1.7 1.7 1.7h12c.94 0 1.7-.76 1.7-1.7V8.937zM18.1 6.29c.729 0 1.35.457 1.592 1.1l-6.278 4.73a2.35 2.35 0 01-2.828 0L4.468 7.512A1.699 1.699 0 016.1 6.29h12z"/>
</svg>
