<svg xmlns="http://www.w3.org/2000/svg" viewBox="0 0 24 24">
  <defs/>
  <path stroke-width="1.3" d="M3.777 13.413C3.08 12.205 2.65 10.889 2.65 9.477c0-3.239 2.529-5.825 5.6-5.825.437 0 .862.052 1.27.15l-1.003.816a3.488 3.488 0 104.506 5.324l1.306-1.15 5.301 5.539c-2.041 2.85-5.358 4.872-6.981 5.744.562-1.367.368-2.998-.902-4.127l-2.99-2.657a3.65 3.65 0 00-4.98.122zm8.572 7.252l.002-.004-.001.003s0 0 0 0zm-2.33-2.773a1.05 1.05 0 01.1 1.467c-1.419-.862-3.26-2.154-4.767-3.817l.195-.22a1.05 1.05 0 011.483-.087l2.99 2.657zm-4.875-2.116h0zm5.014-9.141l2.267-1.845a5.431 5.431 0 013.325-1.138c3.071 0 5.6 2.586 5.6 5.825a7.26 7.26 0 01-.431 2.44l-4.711-4.923a2.6 2.6 0 00-3.597-.154l-1.306 1.15a.888.888 0 11-1.147-1.355z"/>
</svg>
