<svg xmlns="http://www.w3.org/2000/svg" viewBox="0 0 24 24">
  <defs/>
  <path fill-rule="evenodd" d="M8.25 4.3c1 0 1.93.309 2.711.845l-1.85 1.528a2.594 2.594 0 003.291 4.009l1.496-1.22a.65.65 0 01.883.055l4.269 4.505a14.558 14.558 0 01-1.899 2.103c-1.709 1.579-3.613 2.727-4.737 3.336a3 3 0 00-.405-4.046l-2.99-2.657a3 3 0 00-4.235.25l-.294.33c-.736-1.195-1.19-2.49-1.19-3.864 0-2.9 2.26-5.174 4.95-5.174zM5.264 14.434c.473.595 1.01 1.16 1.585 1.69 1.434 1.326 3.005 2.347 4.137 3.001l.301-.338a1.7 1.7 0 00-.141-2.4l-2.99-2.658a1.7 1.7 0 00-2.4.142l-.398.448a1.743 1.743 0 00-.094.115zM20.7 9.474c0 1.204-.349 2.348-.931 3.417l-4.045-4.268a1.95 1.95 0 00-2.648-.169L11.58 9.675a1.294 1.294 0 01-1.642-2l2.452-2.024-.006-.008.414-.323A4.782 4.782 0 0115.75 4.3c2.691 0 4.95 2.273 4.95 5.174zM12 4.294A6.082 6.082 0 008.25 3C4.798 3 2 5.899 2 9.474c0 6.135 7.418 10.348 9.476 11.398.334.17.714.17 1.048 0C14.582 19.822 22 15.61 22 9.474 22 5.9 19.202 3 15.75 3A6.082 6.082 0 0012 4.294z"/>
</svg>
