<svg width="24" height="24" viewBox="0 0 24 24" fill="none" xmlns="http://www.w3.org/2000/svg">
<rect y="3" width="24" height="18" rx="2" fill="white"/>
<path fill-rule="evenodd" clip-rule="evenodd" d="M22 4H2C1.44772 4 1 4.44772 1 5V19C1 19.5523 1.44772 20 2 20H22C22.5523 20 23 19.5523 23 19V5C23 4.44771 22.5523 4 22 4ZM2 3C0.895431 3 0 3.89543 0 5V19C0 20.1046 0.89543 21 2 21H22C23.1046 21 24 20.1046 24 19V5C24 3.89543 23.1046 3 22 3H2Z" fill="#D6D8DE"/>
<path d="M23.9369 4.49976C23.7148 3.63727 22.9318 3 22 3H2C1.06817 3 0.285178 3.63727 0.0630716 4.49976H23.9369Z" fill="#E1244A"/>
<path d="M0 5.75727V7.25727H24V5.75727H0Z" fill="#E1244A"/>
<path d="M24 8.51478H0V10.0148H24V8.51478Z" fill="#E1244A"/>
<path d="M24 11.2723H0V12.7723H24V11.2723Z" fill="#E1244A"/>
<path d="M24 14.0298H0V15.5298H24V14.0298Z" fill="#E1244A"/>
<path d="M24 16.7873H0V18.2873H24V16.7873Z" fill="#E1244A"/>
<path d="M23.9249 19.5448H0.0751038C0.312321 20.3846 1.08429 21 2 21H22C22.9157 21 23.6877 20.3846 23.9249 19.5448Z" fill="#E1244A"/>
<path d="M0 5C0 3.89543 0.895431 3 2 3H13V12.8H0V5Z" fill="#0C3F8E"/>
<path d="M5.71425 11.6948C6.52431 11.6948 7.26875 11.3998 7.85547 10.9066C7.54467 11.0283 7.20826 11.0949 6.85705 11.0949C5.27909 11.0949 3.99991 9.75172 3.99991 8.09487C3.99991 6.43802 5.27909 5.09487 6.85705 5.09487C7.20835 5.09487 7.54485 5.16144 7.85572 5.28323C7.26896 4.78987 6.52442 4.49481 5.71425 4.49481C3.8207 4.49481 2.28568 6.10659 2.28568 8.09481C2.28568 10.083 3.8207 11.6948 5.71425 11.6948Z" fill="#FFD34F"/>
<path d="M8.15099 10.2571L9.14272 9.07879L10.1345 10.2571L9.87541 8.7083L11.3711 8.62884L10.0564 7.87583L10.9298 6.59841L9.54934 7.20823L9.14272 5.69479L8.73611 7.20823L7.35568 6.59841L8.22908 7.87583L6.91432 8.62884L8.41004 8.7083L8.15099 10.2571Z" fill="#FFD34F"/>
</svg>
