<svg width="24" height="24" viewBox="0 0 24 24" fill="none" xmlns="http://www.w3.org/2000/svg">
<rect y="3" width="24" height="18" rx="2" fill="white"/>
<path fill-rule="evenodd" clip-rule="evenodd" d="M22 4H2C1.44772 4 1 4.44772 1 5V19C1 19.5523 1.44772 20 2 20H22C22.5523 20 23 19.5523 23 19V5C23 4.44771 22.5523 4 22 4ZM2 3C0.895431 3 0 3.89543 0 5V19C0 20.1046 0.89543 21 2 21H22C23.1046 21 24 20.1046 24 19V5C24 3.89543 23.1046 3 22 3H2Z" fill="#D6D8DE"/>
<path fill-rule="evenodd" clip-rule="evenodd" d="M12 21H22C23.1046 21 24 20.1046 24 19V5C24 3.89543 23.1046 3 22 3H12V21Z" fill="#DE233C"/>
<path d="M4.57142 5.71429H3.42856V6.85715H2.28571V8.00001H3.42856V9.14287H4.57142V8.00001H5.71428V6.85715H4.57142V5.71429Z" fill="#CCCCCD"/>
<path fill-rule="evenodd" clip-rule="evenodd" d="M5.23813 5.04761V6.19046H6.38098V8.66666H5.23813V9.80951H2.76194V8.66666H1.61908V6.19046H2.76194V5.04761H5.23813ZM4.57146 5.71427V6.85713H5.71432V7.99999H4.57146V9.14285H3.4286V7.99999H2.28575V6.85713H3.4286V5.71427H4.57146Z" fill="#9F8E81"/>
<path fill-rule="evenodd" clip-rule="evenodd" d="M4.00002 7.99997C4.31561 7.99997 4.57145 7.74414 4.57145 7.42855C4.57145 7.11295 4.31561 6.85712 4.00002 6.85712C3.68443 6.85712 3.42859 7.11295 3.42859 7.42855C3.42859 7.74414 3.68443 7.99997 4.00002 7.99997Z" fill="#7B716A"/>
</svg>
