<svg width="24" height="24" viewBox="0 0 24 24" fill="none" xmlns="http://www.w3.org/2000/svg">
<rect y="3" width="24" height="18" rx="2" fill="#108B4D"/>
<path fill-rule="evenodd" clip-rule="evenodd" d="M16.9385 10.4508C16.979 10.6965 17 10.9484 17 11.205C17 13.8532 14.7614 16 12 16C9.23858 16 7 13.8532 7 11.205C7 10.9484 7.02102 10.6965 7.06149 10.4508C7.43873 12.7407 9.50615 14.4916 12 14.4916C14.4938 14.4916 16.5613 12.7407 16.9385 10.4508ZM12.0938 11.1147L10.7204 12.0536L11.2271 10.5108L9.87158 9.54835L11.5582 9.53378L12.0938 8L12.6294 9.53378L14.316 9.54835L12.9605 10.5108L13.4672 12.0536L12.0938 11.1147Z" fill="#FFC941"/>
</svg>
