<svg xmlns="http://www.w3.org/2000/svg" viewBox="0 0 24 24">
  <path fill-rule="evenodd" d="M11.003 11.451h4.712v-.63l-1.07-2.677a.7.7 0 0 0-.649-.444H10.05a.7.7 0 0 0-.648.444L8.33 10.82v.633h1.995v.002h.677v-.004Zm-3.973-.89v.892H5.105c-.849 0-1.604.545-1.887 1.36l-1.136 3.283-.067.193v1.131h19.97v-1.13l-.067-.194-1.136-3.283a2.003 2.003 0 0 0-1.887-1.36h-1.88v-.892l-1.167-2.917a2 2 0 0 0-1.852-1.269H10.05a2 2 0 0 0-1.852 1.269L7.03 10.56Zm6.186 2.215h-.913v.004h-1.518l1.148 3.316.067.193.067-.193 1.15-3.32Zm-6.49.001h.304v.003h2.377l1.148 3.316H3.46l.983-2.843a.7.7 0 0 1 .66-.476h1.623Zm12.83.476.983 2.843h-7.093l1.15-3.319h4.3a.7.7 0 0 1 .66.476Z"/>
</svg>
