<svg width="24" height="24" viewBox="0 0 24 24" fill="none" xmlns="http://www.w3.org/2000/svg">
<rect y="3" width="24" height="18" rx="2" fill="white"/>
<path fill-rule="evenodd" clip-rule="evenodd" d="M22 4H2C1.44772 4 1 4.44772 1 5V19C1 19.5523 1.44772 20 2 20H22C22.5523 20 23 19.5523 23 19V5C23 4.44771 22.5523 4 22 4ZM2 3C0.895431 3 0 3.89543 0 5V19C0 20.1046 0.89543 21 2 21H22C23.1046 21 24 20.1046 24 19V5C24 3.89543 23.1046 3 22 3H2Z" fill="#D6D8DE"/>
<path d="M16 3H22C23.1046 3 24 3.89543 24 5V19C24 20.1046 23.1046 21 22 21H16V3Z" fill="#E3283E"/>
<path fill-rule="evenodd" clip-rule="evenodd" d="M0 19C0 20.1046 0.895431 21 2 21H8V3H2C0.89543 3 0 3.89543 0 5V19Z" fill="#128A60"/>
<path fill-rule="evenodd" clip-rule="evenodd" d="M14.2857 10.7619C14.6539 10.7619 14.9524 11.0604 14.9524 11.4286C14.9524 12.475 14.4075 13.3937 13.5891 13.9172C13.2789 14.1155 12.8666 14.0249 12.6682 13.7147C12.4699 13.4046 12.5605 12.9923 12.8707 12.7939C13.3221 12.5052 13.619 12.0013 13.619 11.4286C13.619 11.0604 13.9175 10.7619 14.2857 10.7619ZM9.71427 10.7619C10.0825 10.7619 10.3809 11.0604 10.3809 11.4286C10.3809 12.0262 10.7044 12.5491 11.1891 12.8304C11.5076 13.0151 11.6159 13.4231 11.4311 13.7416C11.2464 14.06 10.8384 14.1684 10.5199 13.9836C9.64107 13.4737 9.04761 12.5208 9.04761 11.4286C9.04761 11.0604 9.34608 10.7619 9.71427 10.7619Z" fill="#8C9157"/>
<path fill-rule="evenodd" clip-rule="evenodd" d="M12 12.5715C12.6312 12.5715 13.1429 11.8039 13.1429 10.8572C13.1429 9.9104 12.6312 9.14288 12 9.14288C11.3688 9.14288 10.8571 9.9104 10.8571 10.8572C10.8571 11.8039 11.3688 12.5715 12 12.5715Z" fill="#C59262"/>
</svg>
