<svg width="24" height="24" viewBox="0 0 24 24" fill="none" xmlns="http://www.w3.org/2000/svg">
<rect y="3" width="24" height="18" rx="2" fill="#95CEF5"/>
<path d="M10.6565 9.27778L12 8.36574L13.3435 9.27778L12.8913 7.71819L14.1739 6.72227L12.5509 6.67043L12 5.14288L11.4492 6.67043L9.82619 6.72227L11.1088 7.71819L10.6565 9.27778Z" fill="white"/>
<path d="M10.6565 18.4206L12 17.5086L13.3435 18.4206L12.8913 16.861L14.1739 15.8651L12.5509 15.8133L12 14.2857L11.4492 15.8133L9.82619 15.8651L11.1088 16.861L10.6565 18.4206Z" fill="white"/>
<path d="M16.5715 12.9372L15.228 13.8492L15.6802 12.2896L14.3976 11.2937L16.0206 11.2419L16.5715 9.71431L17.1223 11.2419L18.7453 11.2937L17.4627 12.2896L17.915 13.8492L16.5715 12.9372Z" fill="white"/>
<path d="M6.0851 13.8492L7.4286 12.9372L8.77211 13.8492L8.31988 12.2896L9.60245 11.2937L7.97944 11.2419L7.4286 9.71431L6.87777 11.2419L5.25476 11.2937L6.53733 12.2896L6.0851 13.8492Z" fill="white"/>
</svg>
