<svg xmlns="http://www.w3.org/2000/svg" viewBox="0 0 24 24">
  <defs/>
  <path fill-rule="evenodd" d="M17.502 7.036a2.518 2.518 0 100-5.036 2.518 2.518 0 000 5.036zM13.169 3c.391 0 .66.398.586.782-.055.283-.29.518-.579.518H10.29v.643c0 .359.291.65.65.65h2.12c.078 0 .154-.005.227-.01.31-.02.568-.036.698.337.117.339.036.758-.304.872a1.948 1.948 0 01-.621.101h-2.12a1.95 1.95 0 01-1.95-1.95V4.3A1.697 1.697 0 007.3 6v12A1.7 1.7 0 009 19.7h6a1.7 1.7 0 001.7-1.7V8.932c0-.35.323-.611.673-.6.332.012.627.266.627.598V18a3 3 0 01-3 3H9a3 3 0 01-3-3V6c0-.824.332-1.57.87-2.112A2.99 2.99 0 018.985 3H13.169zm-.171 14.438a.999.999 0 11-1.997 0 .999.999 0 011.997 0z"/>
</svg>
