<svg xmlns="http://www.w3.org/2000/svg" viewBox="0 0 24 24">
  <defs/>
  <path d="M20.02 4.518a2.518 2.518 0 11-5.036 0 2.518 2.518 0 015.036 0z"/>
  <path d="M13.715 4.025c.065-.5-.28-1.025-.784-1.025H9a3 3 0 00-3 3v12a3 3 0 003 3h6a3 3 0 003-3V8.928a.65.65 0 00-1.3 0V18a1.7 1.7 0 01-1.7 1.7H9A1.7 1.7 0 017.3 18V6a1.7 1.7 0 011.69-1.7v.638a1.95 1.95 0 001.95 1.95h2.12c.172 0 .34-.022.499-.064.35-.093.44-.503.325-.845-.13-.384-.2-.795-.2-1.223 0-.167.01-.57.031-.731z"/>
  <path d="M12.998 17.438a.998.998 0 11-1.996 0 .998.998 0 011.996 0z"/>
</svg>
