<svg width="24" height="24" viewBox="0 0 24 24" fill="none" xmlns="http://www.w3.org/2000/svg">
<path fill-rule="evenodd" clip-rule="evenodd" d="M0 19C0 20.1046 0.895431 21 2 21H8V3H2C0.89543 3 0 3.89543 0 5V19Z" fill="#115BCB"/>
<path fill-rule="evenodd" clip-rule="evenodd" d="M16 21H22C23.1046 21 24 20.1046 24 19V5C24 3.89543 23.1046 3 22 3H16V21Z" fill="#EB1C43"/>
<path fill-rule="evenodd" clip-rule="evenodd" d="M8 21H16V3H8V21Z" fill="#FFD953"/>
<path fill-rule="evenodd" clip-rule="evenodd" d="M11.1429 10.7143H10V14.1429L11.7143 15.2857L13.4286 14.1429V10.7143H12.2857L11.7143 9L11.1429 10.7143ZM12.2857 11.8571H11.1429V13.5714H12.2857V11.8571Z" fill="#AF7F59"/>
</svg>
