<svg width="24" height="24" viewBox="0 0 24 24" fill="none" xmlns="http://www.w3.org/2000/svg">
<path fill-rule="evenodd" clip-rule="evenodd" d="M0 19C0 20.1046 0.895431 21 2 21H8V3H2C0.89543 3 0 3.89543 0 5V19Z" fill="#115BCB"/>
<path fill-rule="evenodd" clip-rule="evenodd" d="M16 21H22C23.1046 21 24 20.1046 24 19V5C24 3.89543 23.1046 3 22 3H16V21Z" fill="#EB1C43"/>
<path fill-rule="evenodd" clip-rule="evenodd" d="M8 21H16V3H8V21Z" fill="#FFD953"/>
<path d="M3.99999 12L4.57142 12.5714H3.42856L3.99999 12Z" fill="url(#paint0_linear_72961_152458)"/>
<path d="M2.28571 13.7143H3.42856V15.4286V16V17.1429H2.28571V13.7143Z" fill="url(#paint1_linear_72961_152458)"/>
<path d="M3.99946 16C3.68412 15.9997 3.42856 15.744 3.42856 15.4286C3.42856 15.113 3.6844 14.8571 3.99999 14.8571C4.31558 14.8571 4.57142 15.113 4.57142 15.4286C4.57142 15.744 4.31587 15.9997 4.00052 16H4.57142L3.99999 17.1429L3.42856 16H3.99946Z" fill="url(#paint2_linear_72961_152458)"/>
<path d="M4.57142 13.7143H4.00036C4.31578 13.7141 4.57142 13.4583 4.57142 13.1429C4.57142 12.8273 4.31558 12.5714 3.99999 12.5714C3.6844 12.5714 3.42856 12.8273 3.42856 13.1429C3.42856 13.4583 3.68494 13.7141 4.00036 13.7143H3.42856L3.99999 14.8571L4.57142 13.7143Z" fill="url(#paint3_linear_72961_152458)"/>
<path d="M4.57142 13.7143H5.71428V17.1429H4.57142V16V15.4286V13.7143Z" fill="url(#paint4_linear_72961_152458)"/>
<defs>
<linearGradient id="paint0_linear_72961_152458" x1="2.28571" y1="12" x2="2.28571" y2="17.1429" gradientUnits="userSpaceOnUse">
<stop stop-color="#F8D246"/>
<stop offset="1" stop-color="#F9CE2F"/>
</linearGradient>
<linearGradient id="paint1_linear_72961_152458" x1="2.28571" y1="12" x2="2.28571" y2="17.1429" gradientUnits="userSpaceOnUse">
<stop stop-color="#F8D246"/>
<stop offset="1" stop-color="#F9CE2F"/>
</linearGradient>
<linearGradient id="paint2_linear_72961_152458" x1="2.28571" y1="12" x2="2.28571" y2="17.1429" gradientUnits="userSpaceOnUse">
<stop stop-color="#F8D246"/>
<stop offset="1" stop-color="#F9CE2F"/>
</linearGradient>
<linearGradient id="paint3_linear_72961_152458" x1="2.28571" y1="12" x2="2.28571" y2="17.1429" gradientUnits="userSpaceOnUse">
<stop stop-color="#F8D246"/>
<stop offset="1" stop-color="#F9CE2F"/>
</linearGradient>
<linearGradient id="paint4_linear_72961_152458" x1="2.28571" y1="12" x2="2.28571" y2="17.1429" gradientUnits="userSpaceOnUse">
<stop stop-color="#F8D246"/>
<stop offset="1" stop-color="#F9CE2F"/>
</linearGradient>
</defs>
</svg>
