<svg width="24" height="24" viewBox="0 0 24 24" fill="none" xmlns="http://www.w3.org/2000/svg">
<path fill-rule="evenodd" clip-rule="evenodd" d="M0 19C0 20.1046 0.895431 21 2 21H22C23.1046 21 24 20.1046 24 19V5C24 3.89543 23.1046 3 22 3H2C0.89543 3 0 3.89543 0 5V19Z" fill="#E01826"/>
<path fill-rule="evenodd" clip-rule="evenodd" d="M22 4H2C1.44772 4 1 4.44772 1 5V19C1 19.5523 1.44772 20 2 20H22C22.5523 20 23 19.5523 23 19V5C23 4.44771 22.5523 4 22 4ZM2 3C0.895431 3 0 3.89543 0 5V19C0 20.1046 0.89543 21 2 21H22C23.1046 21 24 20.1046 24 19V5C24 3.89543 23.1046 3 22 3H2Z" fill="#E6BE53"/>
<path d="M11.3091 6.51603C10.8389 6.67275 10.698 7.26946 11.0485 7.61989L11.2333 7.80474C11.3583 7.92976 11.5279 8 11.7047 8H12.2953C12.4721 8 12.6417 7.92976 12.7667 7.80474L12.9515 7.61989C13.302 7.26946 13.1611 6.67275 12.691 6.51603L12.2108 6.35599C12.074 6.31037 11.926 6.31037 11.7892 6.35599L11.3091 6.51603Z" fill="#E6BE53"/>
<path d="M12.4714 9.24288C12.2111 9.50323 11.7889 9.50323 11.5286 9.24288L10.5946 8.3089C10.4101 8.12443 10.1283 8.0787 9.89499 8.19536L9.86567 8.21003C9.51007 8.38782 9.43317 8.86174 9.71429 9.14286L10.5174 9.94595C10.7203 10.1489 10.7706 10.4588 10.6423 10.7155L10.3183 11.3635C10.2969 11.4063 10.2857 11.4535 10.2857 11.5013C10.2857 11.7304 10.0446 11.8794 9.83969 11.777L9.56291 11.6386C9.35626 11.5353 9.31157 11.2599 9.47494 11.0965C9.60713 10.9643 9.60713 10.75 9.47494 10.6178L9.21936 10.3622C9.16869 10.3115 9.12652 10.253 9.09448 10.189L8.60416 9.20831C8.58241 9.16481 8.56548 9.11905 8.55368 9.07186L8.33971 8.21597C8.20356 7.67138 7.49643 7.52858 7.15961 7.97766L6.41905 8.96508C6.3325 9.08048 6.28572 9.22083 6.28572 9.36508V11.2712C6.28572 11.3747 6.30981 11.4768 6.3561 11.5693L6.80876 12.4747C6.84081 12.5388 6.88298 12.5973 6.93364 12.6479L7.9235 13.6378C7.97417 13.6885 8.03268 13.7306 8.09677 13.7627L9.0889 14.2587C9.12439 14.2765 9.16351 14.2857 9.20319 14.2857C9.47285 14.2857 9.55867 14.6492 9.31747 14.7698L9.18503 14.8361C9.1571 14.85 9.1316 14.8684 9.10952 14.8905L8.85715 15.1429C8.69935 15.3007 8.44351 15.3007 8.28572 15.1429C8.12792 14.9851 7.87208 14.9851 7.71429 15.1429L7.66792 15.1892C7.52499 15.3322 7.48955 15.5505 7.57995 15.7313L7.81574 16.2029C7.92867 16.4288 8.15951 16.5714 8.41203 16.5714H8.98548C9.08898 16.5714 9.19105 16.5473 9.28362 16.501L10.087 16.0994C10.216 16.0349 10.3206 15.9303 10.3851 15.8012L10.63 15.3115C10.7417 15.088 11.0396 15.0396 11.2163 15.2163C11.3397 15.3397 11.3589 15.5331 11.2621 15.6783L10.6555 16.5882C10.4513 16.8945 10.5341 17.3084 10.8404 17.5127L11.6302 18.0392C11.8541 18.1885 12.1459 18.1885 12.3698 18.0392L13.1596 17.5127C13.4659 17.3084 13.5487 16.8945 13.3445 16.5882L12.7379 15.6783C12.6411 15.5331 12.6603 15.3397 12.7837 15.2163C12.9604 15.0396 13.2583 15.088 13.37 15.3115L13.6149 15.8012C13.6794 15.9303 13.784 16.0349 13.913 16.0994L14.7164 16.501C14.809 16.5473 14.911 16.5714 15.0145 16.5714H15.588C15.8405 16.5714 16.0713 16.4288 16.1843 16.2029L16.4201 15.7313C16.5105 15.5505 16.475 15.3322 16.3321 15.1892L16.2857 15.1429C16.1279 14.9851 15.8721 14.9851 15.7143 15.1429C15.5565 15.3007 15.3007 15.3007 15.1429 15.1429L14.8905 14.8905C14.8684 14.8684 14.8429 14.85 14.815 14.8361L14.6825 14.7698C14.4413 14.6492 14.5272 14.2857 14.7968 14.2857C14.8365 14.2857 14.8756 14.2765 14.9111 14.2587L15.9032 13.7627C15.9673 13.7306 16.0258 13.6885 16.0765 13.6378L17.0664 12.6479C17.117 12.5973 17.1592 12.5388 17.1912 12.4747L17.6439 11.5693C17.6902 11.4768 17.7143 11.3747 17.7143 11.2712V9.36508C17.7143 9.22083 17.6675 9.08048 17.581 8.96508L16.8404 7.97766C16.5036 7.52858 15.7964 7.67138 15.6603 8.21597L15.4463 9.07186C15.4345 9.11905 15.4176 9.16481 15.3958 9.20831L14.9055 10.189C14.8735 10.253 14.8313 10.3115 14.7806 10.3622L14.5251 10.6178C14.3929 10.75 14.3929 10.9643 14.5251 11.0965C14.6884 11.2599 14.6437 11.5353 14.4371 11.6386L14.1603 11.777C13.9554 11.8794 13.7143 11.7304 13.7143 11.5013C13.7143 11.4535 13.7031 11.4063 13.6818 11.3635L13.3577 10.7155C13.2294 10.4588 13.2797 10.1489 13.4826 9.94595L14.2857 9.14286C14.5668 8.86174 14.4899 8.38782 14.1343 8.21003L14.105 8.19536C13.8717 8.07869 13.5899 8.12443 13.4054 8.3089L12.4714 9.24288Z" fill="#E6BE53"/>
<path fill-rule="evenodd" clip-rule="evenodd" d="M10.8571 13.1429C10.8571 13.3533 11.2114 13.4233 11.3139 13.2395C11.5132 12.8825 11.7566 12.5714 12 12.5714C12.2434 12.5714 12.4868 12.8825 12.686 13.2395C12.7885 13.4233 13.1428 13.3533 13.1428 13.1429C13.1428 12.1961 12.6312 11.4286 12 11.4286C11.3688 11.4286 10.8571 12.1961 10.8571 13.1429Z" fill="#215F90"/>
</svg>
