<svg width="24" height="24" viewBox="0 0 24 24" fill="none" xmlns="http://www.w3.org/2000/svg">
<rect y="3.00006" width="24" height="18" rx="2" fill="white"/>
<path d="M6.30001 21H22C23.1046 21 24 20.1046 24 19V9.38684L6.30001 21Z" fill="#1BAC55"/>
<path d="M1.08092 20.7768L0.935418 20.5323L0.799881 20.6001C0.888177 20.6664 0.982142 20.7256 1.08092 20.7768Z" fill="#1BAC55"/>
<path d="M23.0646 3.46771L23.2001 3.39994C23.1118 3.33361 23.0179 3.27442 22.9191 3.22322L23.0646 3.46771Z" fill="#0C4799"/>
<path d="M17.7 3L0 14.6132V5C0 3.89543 0.895431 3 2 3H17.7Z" fill="#0C4799"/>
<path d="M20.3255 3L0 16.3358V19C0 20.1046 0.89543 21 2 21H3.67447L24 7.66416V5C24 3.89543 23.1046 3 22 3H20.3255Z" fill="#E52347"/>
<path fill-rule="evenodd" clip-rule="evenodd" d="M3.99999 8.40005L3.12529 9.41736L3.19187 8.04858L1.88827 8.11849L2.85714 7.20005L1.88827 6.28161L3.19187 6.35152L3.12529 4.98274L3.99999 6.00005L4.8747 4.98274L4.80812 6.35152L6.11172 6.28161L5.14285 7.20005L6.11172 8.11849L4.80812 8.04858L4.8747 9.41736L3.99999 8.40005Z" fill="#FFD243"/>
</svg>
