<svg width="24" height="24" viewBox="0 0 24 24" fill="none" xmlns="http://www.w3.org/2000/svg">
<rect y="3" width="24" height="18" rx="2" fill="white"/>
<path fill-rule="evenodd" clip-rule="evenodd" d="M22 4H2C1.44772 4 1 4.44772 1 5V19C1 19.5523 1.44772 20 2 20H22C22.5523 20 23 19.5523 23 19V5C23 4.44771 22.5523 4 22 4ZM2 3C0.895431 3 0 3.89543 0 5V19C0 20.1046 0.89543 21 2 21H22C23.1046 21 24 20.1046 24 19V5C24 3.89543 23.1046 3 22 3H2Z" fill="#D6D8DE"/>
<path fill-rule="evenodd" clip-rule="evenodd" d="M0 5C0 3.89543 0.895431 3 2 3H2.07557C2.21235 3 2.34582 3.04207 2.45787 3.12051L12.5348 10.1744C13.6028 10.9219 13.0738 12.6 11.7702 12.6H6.85714L13.4801 18.6848C14.375 19.507 13.7933 21 12.578 21H2C0.895429 21 0 20.1046 0 19V5Z" fill="#EE1B44"/>
<path fill-rule="evenodd" clip-rule="evenodd" d="M2 3C0.895431 3 0 3.89543 0 5V19C0 20.1046 0.89543 21 2 21H12.578C13.7933 21 14.375 19.507 13.4801 18.6848L6.85714 12.6H11.7702C13.0738 12.6 13.6028 10.9219 12.5348 10.1744L2.45787 3.12051C2.34582 3.04207 2.21235 3 2.07557 3H2ZM12.578 19.6667L1.33333 19.6667V4.33333H1.86542L11.7702 11.2667H6.85714C6.30757 11.2667 5.8143 11.6039 5.61478 12.1159C5.41526 12.628 5.55037 13.21 5.95507 13.5819L12.578 19.6667Z" fill="#0543A8"/>
<path d="M5.87236 10.0207C6.20159 9.92594 6.50511 9.79637 6.77356 9.63853C6.50728 10.654 5.62142 11.4 4.56964 11.4C3.51786 11.4 2.63201 10.654 2.36572 9.63852C2.63492 9.79681 2.93938 9.92666 3.26968 10.0215L3.71429 9.59999L2.98764 8.91116L3.96534 8.9636L3.9154 7.93701L4.57143 8.69999L5.22746 7.93701L5.17752 8.9636L6.15523 8.91116L5.42858 9.59999L5.87236 10.0207Z" fill="white"/>
<path d="M3.69671 18.4172L4.57141 17.3999L5.44612 18.4172L5.37954 17.0484L6.68314 17.1183L5.71427 16.1999L6.68314 15.2815L5.37954 15.3514L5.44612 13.9826L4.57141 14.9999L3.69671 13.9826L3.76329 15.3514L2.45969 15.2815L3.42856 16.1999L2.45969 17.1183L3.76329 17.0484L3.69671 18.4172Z" fill="white"/>
</svg>
