<svg width="24" height="24" viewBox="0 0 24 24" fill="none" xmlns="http://www.w3.org/2000/svg">
<rect y="3" width="24" height="18" rx="2" fill="white"/>
<path fill-rule="evenodd" clip-rule="evenodd" d="M22 4H2C1.44772 4 1 4.44772 1 5V19C1 19.5523 1.44772 20 2 20H22C22.5523 20 23 19.5523 23 19V5C23 4.44771 22.5523 4 22 4ZM2 3C0.895431 3 0 3.89543 0 5V19C0 20.1046 0.89543 21 2 21H22C23.1046 21 24 20.1046 24 19V5C24 3.89543 23.1046 3 22 3H2Z" fill="#D6D8DE"/>
<path d="M9 3H15V21H9V3Z" fill="#F64E4E"/>
<path d="M0 9H24V15H0V9Z" fill="#022D9A"/>
<path d="M11.5715 10.8081L11.9755 10.6898L12.3796 10.8081L12.2612 10.4041L12.3796 10L11.9755 10.1183L11.5715 10L11.6898 10.4041L11.5715 10.8081Z" fill="white"/>
<path d="M7 11.951L7.40406 11.8326L7.80812 11.951L7.68978 11.5469L7.80812 11.1428L7.40406 11.2612L7 11.1428L7.11835 11.5469L7 11.951Z" fill="white"/>
<path d="M9.68983 12.9755L9.28577 13.0938L9.40411 12.6898L9.28577 12.2857L9.68983 12.4041L10.0939 12.2857L9.97554 12.6898L10.0939 13.0938L9.68983 12.9755Z" fill="white"/>
<path d="M14.2612 12.9755L13.8572 13.0938L13.9755 12.6898L13.8572 12.2857L14.2612 12.4041L14.6653 12.2857L14.547 12.6898L14.6653 13.0938L14.2612 12.9755Z" fill="white"/>
<path d="M16.5469 11.8326L16.1429 11.951L16.2612 11.5469L16.1429 11.1428L16.5469 11.2612L16.951 11.1428L16.8327 11.5469L16.951 11.951L16.5469 11.8326Z" fill="white"/>
</svg>
