<svg width="24" height="24" viewBox="0 0 24 24" fill="none" xmlns="http://www.w3.org/2000/svg">
<path d="M0 5C0 3.89543 0.895431 3 2 3H22C23.1046 3 24 3.89543 24 5V8.99999H0V5Z" fill="#0D39A6"/>
<rect y="9" width="24" height="5.99999" fill="#DB4F40"/>
<path d="M0 15H24V19C24 20.1046 23.1046 21 22 21H2C0.89543 21 0 20.1046 0 19V15Z" fill="#41924C"/>
<path d="M14 11.998C14 14.7594 11.7614 16.998 9 16.998C6.23858 16.998 4 14.7594 4 11.998C4 9.23656 6.23858 6.99799 9 6.99799C11.7614 6.99799 14 9.23656 14 11.998Z" fill="#F7E54D"/>
<path fill-rule="evenodd" clip-rule="evenodd" d="M9 16.6153C11.5501 16.6153 13.6173 14.548 13.6173 11.998C13.6173 9.44792 11.5501 7.38069 9 7.38069C6.44994 7.38069 4.3827 9.44792 4.3827 11.998C4.3827 14.548 6.44994 16.6153 9 16.6153ZM9 16.998C11.7614 16.998 14 14.7594 14 11.998C14 9.23656 11.7614 6.99799 9 6.99799C6.23858 6.99799 4 9.23656 4 11.998C4 14.7594 6.23858 16.998 9 16.998Z" fill="black"/>
<path d="M8.23326 10.498C8.36659 10.8713 8.66659 10.9647 8.79992 10.9647V11.298C8.39992 11.298 8.33326 11.198 8.23326 11.1313C8.05784 11.0144 8.05178 10.861 7.99992 10.498C7.96659 10.2647 7.91103 10.098 7.86659 9.99799C7.93326 10.0091 8.09992 10.1247 8.23326 10.498Z" fill="black"/>
<path d="M8.23326 13.998C8.36659 13.6247 8.66659 13.398 8.79992 13.398V12.9313C8.39992 12.9313 8.33326 13.0313 8.23326 13.098C8.05784 13.2149 8.05178 13.6017 7.99992 13.9647C7.96659 14.198 7.91103 14.5647 7.86659 14.6647C7.93326 14.6535 8.09992 14.3713 8.23326 13.998Z" fill="black"/>
<path d="M9.76659 13.998C9.63326 13.6247 9.33326 13.398 9.19992 13.398V12.9313C9.59992 12.9313 9.66659 13.0313 9.76659 13.098C9.942 13.2149 9.94807 13.6017 9.99992 13.9647C10.0333 14.198 10.0888 14.5647 10.1333 14.6647C10.0666 14.6535 9.89992 14.3713 9.76659 13.998Z" fill="black"/>
<path d="M9.76659 10.498C9.63326 10.8713 9.33326 10.9647 9.19992 10.9647V11.298C9.59992 11.298 9.66659 11.198 9.76659 11.1313C9.942 11.0144 9.94807 10.861 9.99992 10.498C10.0333 10.2647 10.0888 10.098 10.1333 9.99799C10.0666 10.0091 9.89992 10.1247 9.76659 10.498Z" fill="black"/>
<path d="M8.73326 8.36466C8.27992 8.52466 8.25548 9.03132 8.29992 9.26466L8.53326 9.16466C9.27992 8.92466 9.68881 8.13132 9.79992 7.76466C9.63326 7.89799 9.18659 8.20466 8.73326 8.36466Z" fill="black"/>
<path d="M8.79992 7.26466H9.19992V15.3313H8.79992V7.26466Z" fill="black"/>
<path d="M10.6666 16.4647C10.6666 16.4647 10.0999 16.898 8.99992 16.898C7.89992 16.898 7.33326 16.4647 7.33326 16.4647L8.24829 15.398C8.48302 15.3117 8.73609 15.2647 8.99992 15.2647C9.26375 15.2647 9.51683 15.3117 9.75156 15.398L10.6666 16.4647Z" fill="black"/>
<path d="M9.53326 14.2313C9.53326 14.6916 9.29447 15.0647 8.99992 15.0647C8.70537 15.0647 8.46659 14.6916 8.46659 14.2313C8.46659 13.7711 8.70537 13.398 8.99992 13.398C9.29447 13.398 9.53326 13.7711 9.53326 14.2313Z" fill="black"/>
<path d="M9.66659 10.198C9.66659 10.5662 9.36811 10.8647 8.99992 10.8647C8.63173 10.8647 8.33326 10.5662 8.33326 10.198C8.33326 9.8298 8.63173 9.53132 8.99992 9.53132C9.36811 9.53132 9.66659 9.8298 9.66659 10.198Z" fill="black"/>
<path d="M9.66659 12.098C9.66659 12.3373 9.36811 12.5313 8.99992 12.5313C8.63173 12.5313 8.33326 12.3373 8.33326 12.098C8.33326 11.8587 8.63173 11.6647 8.99992 11.6647C9.36811 11.6647 9.66659 11.8587 9.66659 12.098Z" fill="black"/>
<path d="M8.19992 11.3313H9.79992V11.6647H8.19992V11.3313Z" fill="black"/>
<path d="M8.19992 12.5313H9.79992V12.8647H8.19992V12.5313Z" fill="black"/>
</svg>
