<svg width="24" height="24" viewBox="0 0 24 24" fill="none" xmlns="http://www.w3.org/2000/svg">
<rect y="3" width="24" height="18" rx="2" fill="white"/>
<path fill-rule="evenodd" clip-rule="evenodd" d="M22 4H2C1.44772 4 1 4.44772 1 5V19C1 19.5523 1.44772 20 2 20H22C22.5523 20 23 19.5523 23 19V5C23 4.44771 22.5523 4 22 4ZM2 3C0.895431 3 0 3.89543 0 5V19C0 20.1046 0.89543 21 2 21H22C23.1046 21 24 20.1046 24 19V5C24 3.89543 23.1046 3 22 3H2Z" fill="#D6D8DE"/>
<path d="M16 3H22C23.1046 3 24 3.89543 24 5V19C24 20.1046 23.1046 21 22 21H16V3Z" fill="#34763C"/>
<path fill-rule="evenodd" clip-rule="evenodd" d="M0 19C0 20.1046 0.895431 21 2 21H8V3H2C0.89543 3 0 3.89543 0 5V19Z" fill="#34763C"/>
<path fill-rule="evenodd" clip-rule="evenodd" d="M11.0663 14.2305C11.2253 14.0636 11.2253 13.8012 11.0663 13.6342L11.0133 13.5786C10.919 13.4796 10.7784 13.4397 10.6461 13.4744L10.4082 13.5368C10.0681 13.6261 9.84907 13.186 10.1253 12.9685L10.3806 12.7675C10.5384 12.6432 10.4505 12.3895 10.2496 12.3895C10.0285 12.3895 9.95547 12.0932 10.1512 11.9905L10.5902 11.76C10.7859 11.6572 10.7129 11.361 10.4918 11.361C10.2909 11.361 10.203 11.1073 10.3608 10.983L11.4276 10.1429C11.6696 9.95236 12.0106 9.95236 12.2525 10.1429L13.3193 10.983C13.4772 11.1073 13.3893 11.361 13.1884 11.361C12.9673 11.361 12.8942 11.6572 13.09 11.76L13.5289 11.9905C13.7247 12.0932 13.6516 12.3895 13.4305 12.3895C13.2297 12.3895 13.1418 12.6432 13.2996 12.7675L13.5548 12.9685C13.8311 13.186 13.612 13.6261 13.2719 13.5368L13.034 13.4744C12.9018 13.4397 12.7611 13.4796 12.6668 13.5786L12.6138 13.6342C12.4548 13.8012 12.4548 14.0636 12.6138 14.2305C12.8759 14.5057 12.6808 14.961 12.3008 14.961H11.3794C10.9993 14.961 10.8042 14.5057 11.0663 14.2305Z" fill="#34763C"/>
</svg>
