<svg width="24" height="24" viewBox="0 0 24 24" fill="none" xmlns="http://www.w3.org/2000/svg">
<path fill-rule="evenodd" clip-rule="evenodd" d="M24 19C24 20.1046 23.1046 21 22 21H2C0.89543 21 0 20.1046 0 19V5C0 3.89543 0.895431 3 2 3H22C23.1046 3 24 3.89543 24 5V19Z" fill="#0D369B"/>
<path fill-rule="evenodd" clip-rule="evenodd" d="M12.2687 17.0448C14.9064 17.0448 17.0448 14.9064 17.0448 12.2687C17.0448 9.63088 14.9064 7.49254 12.2687 7.49254C9.63088 7.49254 7.49254 9.63088 7.49254 12.2687C7.49254 14.9064 9.63088 17.0448 12.2687 17.0448ZM12.2687 18.5373C15.7307 18.5373 18.5373 15.7307 18.5373 12.2687C18.5373 8.80657 15.7307 6 12.2687 6C8.80657 6 6 8.80657 6 12.2687C6 15.7307 8.80657 18.5373 12.2687 18.5373Z" fill="white"/>
<path fill-rule="evenodd" clip-rule="evenodd" d="M12.2687 6.82568C9.26264 6.82568 6.82574 9.26258 6.82574 12.2686C6.82574 15.2747 9.26264 17.7116 12.2687 17.7116C15.2748 17.7116 17.7117 15.2747 17.7117 12.2686C17.7117 9.26258 15.2748 6.82568 12.2687 6.82568ZM6.32574 12.2686C6.32574 8.98644 8.9865 6.32568 12.2687 6.32568C15.5509 6.32568 18.2117 8.98644 18.2117 12.2686C18.2117 15.5509 15.5509 18.2116 12.2687 18.2116C8.9865 18.2116 6.32574 15.5509 6.32574 12.2686Z" fill="#FEDC36"/>
<path d="M10.9292 10.6597C10.9344 10.593 10.99 10.5415 11.0568 10.5415H13.5064C13.5733 10.5415 13.6289 10.593 13.634 10.6597L14.2116 18.1684C14.2402 18.5399 13.9464 18.8571 13.5738 18.8571H10.9894C10.6168 18.8571 10.3231 18.5399 10.3517 18.1684L10.9292 10.6597Z" fill="#C4C4C4"/>
<path d="M10.6602 8.59478C10.6382 8.44064 10.7578 8.30273 10.9135 8.30273H13.6497C13.8054 8.30273 13.925 8.44064 13.903 8.59478L13.6406 10.4317C13.6316 10.4947 13.5776 10.5415 13.5139 10.5415H11.0493C10.9856 10.5415 10.9316 10.4947 10.9226 10.4317L10.6602 8.59478Z" fill="#C4C4C4"/>
<path d="M12.1267 8.9315C12.1714 8.79399 12.3659 8.79399 12.4106 8.9315L13.1112 11.0877C13.1312 11.1492 13.1885 11.1908 13.2532 11.1908H15.5203C15.6649 11.1908 15.725 11.3758 15.608 11.4608L13.7739 12.7934C13.7216 12.8314 13.6997 12.8987 13.7196 12.9602L14.4202 15.1164C14.4649 15.2539 14.3075 15.3682 14.1905 15.2833L12.3564 13.9507C12.3041 13.9127 12.2333 13.9127 12.181 13.9507L10.3468 15.2833C10.2298 15.3682 10.0725 15.2539 10.1171 15.1164L10.8177 12.9602C10.8377 12.8987 10.8158 12.8314 10.7635 12.7934L8.92936 11.4608C8.81239 11.3758 8.8725 11.1908 9.01709 11.1908H11.2842C11.3489 11.1908 11.4062 11.1492 11.4262 11.0877L12.1267 8.9315Z" fill="white"/>
</svg>
