<svg width="24" height="24" viewBox="0 0 24 24" fill="none" xmlns="http://www.w3.org/2000/svg">
<rect y="3" width="24" height="18" rx="2" fill="white"/>
<path fill-rule="evenodd" clip-rule="evenodd" d="M22 4H2C1.44772 4 1 4.44772 1 5V19C1 19.5523 1.44772 20 2 20H22C22.5523 20 23 19.5523 23 19V5C23 4.44771 22.5523 4 22 4ZM2 3C0.895431 3 0 3.89543 0 5V19C0 20.1046 0.89543 21 2 21H22C23.1046 21 24 20.1046 24 19V5C24 3.89543 23.1046 3 22 3H2Z" fill="#D6D8DE"/>
<path fill-rule="evenodd" clip-rule="evenodd" d="M8 21H22C23.1046 21 24 20.1046 24 19V15H8V21Z" fill="#138E16"/>
<path fill-rule="evenodd" clip-rule="evenodd" d="M0 19C0 20.1046 0.895431 21 2 21H8V15H24V9H8V3H2C0.895431 3 0 3.89543 0 5V19Z" fill="#ED2B35"/>
<path fill-rule="evenodd" clip-rule="evenodd" d="M3.99999 7.4672L3.00826 8.91648L3.52302 7.2375L1.77159 7.36574L3.40521 6.72137L2.21295 5.43201L3.73529 6.30746L3.99999 4.57141L4.2647 6.30746L5.78704 5.43201L4.59478 6.72137L6.2284 7.36574L4.47697 7.2375L4.99173 8.91648L3.99999 7.4672Z" fill="white"/>
</svg>
