<svg xmlns="http://www.w3.org/2000/svg" viewBox="0 0 24 24">
  <defs/>
  <path d="M17.874 13.28a.763.763 0 00-.507.479 5.002 5.002 0 01-7.856 2.105.762.762 0 00-.677-.161l-1.324.355a.659.659 0 01-.73-.268 6.979 6.979 0 01-.866-1.947c-.11-.402-.513-.668-.916-.56l-1.479.396a.7.7 0 00-.495.857l.215.8c.238.676.547 1.318.918 1.919a.67.67 0 00.747.286l1.19-.319a.74.74 0 01.729.221 8.003 8.003 0 0013.722-3.942c.09-.471-.358-.84-.82-.716l-1.851.496zM15.775 8.069a.761.761 0 00.665.15l1.362-.366a.66.66 0 01.724.26c.19.285.36.585.508.898.155.328.516.52.867.426l1.568-.42c.39-.105.612-.517.456-.889a9.99 9.99 0 00-.764-1.467.67.67 0 00-.745-.281l-1.208.324a.739.739 0 01-.723-.215A8.003 8.003 0 004.85 10.38c-.098.474.35.85.818.725l1.874-.502a.762.762 0 00.5-.462 5.002 5.002 0 017.733-2.072z"/>
</svg>
