<svg width="24" height="24" viewBox="0 0 24 24" fill="none" xmlns="http://www.w3.org/2000/svg">
<rect y="3" width="24" height="18" rx="2" fill="white"/>
<path fill-rule="evenodd" clip-rule="evenodd" d="M22 4H2C1.44772 4 1 4.44772 1 5V19C1 19.5523 1.44772 20 2 20H22C22.5523 20 23 19.5523 23 19V5C23 4.44771 22.5523 4 22 4ZM2 3C0.895431 3 0 3.89543 0 5V19C0 20.1046 0.89543 21 2 21H22C23.1046 21 24 20.1046 24 19V5C24 3.89543 23.1046 3 22 3H2Z" fill="#D6D8DE"/>
<path d="M7 3H22C23.1046 3 24 3.89543 24 5V19C24 20.1046 23.1046 21 22 21H7V3Z" fill="#0A632F"/>
<path fill-rule="evenodd" clip-rule="evenodd" d="M20.2886 12.6433C20.1786 13.7153 19.7217 14.7453 18.9141 15.5529C16.9891 17.478 13.8004 17.4104 11.792 15.402C9.7836 13.3936 9.716 10.2049 11.641 8.27985C12.4486 7.47223 13.4787 7.01533 14.5507 6.90533C14.213 7.10433 13.8934 7.34987 13.6016 7.64166C11.8516 9.39169 11.765 12.1425 13.4083 13.7857C15.0515 15.429 17.8023 15.3424 19.5523 13.5924C19.8441 13.3006 20.0896 12.981 20.2886 12.6433ZM18.0792 10.3754L17.8064 12.0027L17.0442 10.5394L15.4123 10.7828L16.5684 9.60566L15.8326 8.12887L17.3094 8.86466L18.4866 7.70853L18.2431 9.34041L19.7064 10.1027L18.0792 10.3754Z" fill="white"/>
</svg>
