<svg xmlns="http://www.w3.org/2000/svg" viewBox="0 0 24 24">
  <path fill-rule="evenodd" d="M5 6.403h14a1.7 1.7 0 0 1 1.7 1.7v7.794a1.7 1.7 0 0 1-1.7 1.7H5a1.7 1.7 0 0 1-1.7-1.7V8.103a1.7 1.7 0 0 1 1.7-1.7Zm-3 1.7a3 3 0 0 1 3-3h14a3 3 0 0 1 3 3v7.794a3 3 0 0 1-3 3H5a3 3 0 0 1-3-3V8.103Zm4 4.851v2.42a.65.65 0 1 0 1.3 0v-1.78h1.91a2.81 2.81 0 0 0 0-5.619H7.35A1.35 1.35 0 0 0 6 9.325v3.61l-.001.01v.01Zm1.3-.66V9.326a.05.05 0 0 1 .05-.05h1.86a1.51 1.51 0 0 1 0 3.02H7.3Zm10.7-.65v-3.02a.65.65 0 0 0-1.3 0v2.377h-1.203a2.511 2.511 0 0 0 0 5.023h1.154a1.35 1.35 0 0 0 1.35-1.35v-3.031Zm-1.3.659v2.372a.05.05 0 0 1-.05.05h-1.153a1.211 1.211 0 1 1 0-2.422h1.204Z"/>
</svg>
