<svg xmlns="http://www.w3.org/2000/svg" viewBox="0 0 24 24">
  <path fill-rule="evenodd" d="M5 5.005a3 3 0 0 0-3 3v7.99a3 3 0 0 0 3 3h14a3 3 0 0 0 3-3v-7.99a3 3 0 0 0-3-3H5Zm1 7.95v2.42a.65.65 0 1 0 1.3 0v-1.78h1.91a2.81 2.81 0 1 0 0-5.62H7.35A1.35 1.35 0 0 0 6 9.325v3.63Zm1.3-.66v-2.97a.05.05 0 0 1 .05-.05h1.86a1.51 1.51 0 0 1 0 3.02H7.3Zm10.7-.652V8.625a.65.65 0 1 0-1.3 0v2.377h-1.202a2.511 2.511 0 1 0 0 5.023h1.153a1.35 1.35 0 0 0 1.35-1.35v-3.032Zm-1.3.66v2.372a.05.05 0 0 1-.05.05h-1.152a1.211 1.211 0 0 1 0-2.422H16.7Z"/>
</svg>
