<svg width="24" height="24" viewBox="0 0 24 24" fill="none" xmlns="http://www.w3.org/2000/svg">
<rect y="3" width="24" height="18" rx="2" fill="white"/>
<path fill-rule="evenodd" clip-rule="evenodd" d="M22 4H2C1.44772 4 1 4.44772 1 5V19C1 19.5523 1.44772 20 2 20H22C22.5523 20 23 19.5523 23 19V5C23 4.44771 22.5523 4 22 4ZM2 3C0.895431 3 0 3.89543 0 5V19C0 20.1046 0.89543 21 2 21H22C23.1046 21 24 20.1046 24 19V5C24 3.89543 23.1046 3 22 3H2Z" fill="#D6D8DE"/>
<path d="M2 21C0.895431 21 0 20.1046 0 19V12H12V21H2Z" fill="#1367AE"/>
<path fill-rule="evenodd" clip-rule="evenodd" d="M5.71429 8.36574L4.37078 9.27778L4.82301 7.71819L3.54044 6.72227L5.16345 6.67043L5.71429 5.14288L6.26512 6.67043L7.88813 6.72227L6.60556 7.71819L7.0578 9.27778L5.71429 8.36574Z" fill="#1367AE"/>
<path d="M24 12H12V3H22.1538C23.1734 3 24 3.95614 24 5.13559V12Z" fill="#E52448"/>
<path fill-rule="evenodd" clip-rule="evenodd" d="M17.7143 16.9371L16.3708 17.8492L16.823 16.2896L15.5404 15.2937L17.1634 15.2418L17.7143 13.7143L18.2651 15.2418L19.8881 15.2937L18.6056 16.2896L19.0578 17.8492L17.7143 16.9371Z" fill="#E52448"/>
</svg>
