<svg width="24" height="24" viewBox="0 0 24 24" fill="none" xmlns="http://www.w3.org/2000/svg">
<rect width="24" height="18" rx="2" transform="matrix(1 0 0 -1 0 21)" fill="#E8283F"/>
<path d="M2 21C0.895431 21 0 20.1046 0 19L0 5C0 4.40495 0.259869 3.87059 0.672308 3.50423L23.3277 20.4958C22.9745 20.8095 22.5095 21 22 21L2 21Z" fill="#262626"/>
<path fill-rule="evenodd" clip-rule="evenodd" d="M5.71428 17.7143L4.90616 17.951L5.14286 17.1429L4.90616 16.3347L5.71428 16.5714L6.52241 16.3347L6.28571 17.1429L6.52241 17.951L5.71428 17.7143Z" fill="white"/>
<path fill-rule="evenodd" clip-rule="evenodd" d="M5.71428 10.8572L4.90616 11.0938L5.14286 10.2857L4.90616 9.4776L5.71428 9.71429L6.52241 9.4776L6.28571 10.2857L6.52241 11.0938L5.71428 10.8572Z" fill="white"/>
<path fill-rule="evenodd" clip-rule="evenodd" d="M2.85713 13.7143L2.04901 13.951L2.2857 13.1429L2.04901 12.3347L2.85713 12.5714L3.66526 12.3347L3.42856 13.1429L3.66526 13.951L2.85713 13.7143Z" fill="white"/>
<path fill-rule="evenodd" clip-rule="evenodd" d="M7.99999 13.1429L7.19187 13.3796L7.42856 12.5714L7.19187 11.7633L7.99999 12L8.80811 11.7633L8.57142 12.5714L8.80811 13.3796L7.99999 13.1429Z" fill="white"/>
<path fill-rule="evenodd" clip-rule="evenodd" d="M16.1668 11.3705C16.03 11.2884 15.9191 11.095 15.9191 10.9403L15.9191 9.88714C15.9191 9.73166 15.8072 9.6429 15.6379 9.69933L14.988 9.91596C14.8327 9.96772 14.595 9.97239 14.4257 9.91596L13.7758 9.69933C13.6206 9.64757 13.6033 9.54044 13.7424 9.45698L15.2673 8.54207C15.4041 8.45998 15.4777 8.28157 15.4213 8.11229L15.2046 7.4624C15.1529 7.30712 15.2228 7.21854 15.3921 7.27496L16.042 7.4916C16.1972 7.54335 16.3883 7.47669 16.4718 7.33758L17.3867 5.81273C17.4688 5.67592 17.5726 5.67687 17.629 5.84615L17.8456 6.49604C17.8974 6.65132 17.9021 6.88906 17.8456 7.05833L17.629 7.70823C17.5773 7.8635 17.6621 7.98937 17.8168 7.98937H18.87C19.0255 7.98937 19.2167 8.09799 19.3002 8.2371L20.2151 9.76195C20.2972 9.89876 20.2312 10.0362 20.0828 10.0659L18.6243 10.3576C18.4692 10.3886 18.3169 10.5463 18.2872 10.6947L17.9955 12.1531C17.9645 12.3083 17.8307 12.3689 17.6916 12.2854L16.1668 11.3705V11.3705Z" fill="#FFD84E"/>
</svg>
