<svg width="24" height="24" viewBox="0 0 24 24" fill="none" xmlns="http://www.w3.org/2000/svg">
<rect y="3" width="24" height="18" rx="2" fill="white"/>
<path fill-rule="evenodd" clip-rule="evenodd" d="M22 4H2C1.44772 4 1 4.44772 1 5V19C1 19.5523 1.44772 20 2 20H22C22.5523 20 23 19.5523 23 19V5C23 4.44771 22.5523 4 22 4ZM2 3C0.895431 3 0 3.89543 0 5V19C0 20.1046 0.89543 21 2 21H22C23.1046 21 24 20.1046 24 19V5C24 3.89543 23.1046 3 22 3H2Z" fill="#D6D8DE"/>
<path fill-rule="evenodd" clip-rule="evenodd" d="M0 9H24V5C24 3.89543 23.1046 3 22 3H2C0.89543 3 0 3.89543 0 5V9Z" fill="#E33F39"/>
<path fill-rule="evenodd" clip-rule="evenodd" d="M0 19C0 20.1046 0.895431 21 2 21H22C23.1046 21 24 20.1046 24 19V15H0V19Z" fill="#2C56A2"/>
<path fill-rule="evenodd" clip-rule="evenodd" d="M14.381 12C14.381 13.3149 13.315 14.3809 12 14.3809C10.685 14.3809 9.61905 13.3149 9.61905 12C9.61905 10.685 10.685 9.61902 12 9.61902C13.315 9.61902 14.381 10.685 14.381 12ZM13.7143 12C13.7143 12.9467 12.9468 13.7143 12 13.7143C11.0532 13.7143 10.2857 12.9467 10.2857 12C10.2857 11.0532 11.0532 10.2857 12 10.2857C12.9468 10.2857 13.7143 11.0532 13.7143 12Z" fill="#398153"/>
<path fill-rule="evenodd" clip-rule="evenodd" d="M12 12.5714C12.3156 12.5714 12.5714 12.3156 12.5714 12C12.5714 11.6844 12.3156 11.4286 12 11.4286C11.6844 11.4286 11.4286 11.6844 11.4286 12C11.4286 12.3156 11.6844 12.5714 12 12.5714Z" fill="#E5CF58"/>
</svg>
