<svg xmlns="http://www.w3.org/2000/svg" viewBox="0 0 24 24">
  <defs/>
  <path fill-rule="evenodd" d="M6 19a3 3 0 01-3-3V8a3 3 0 013-3h12a3 3 0 013 3v8a3 3 0 01-3 3H6zM19.7 8A1.7 1.7 0 0018 6.3H6A1.7 1.7 0 004.3 8v.32a.65.65 0 01.195-.03H19.7V8zM4.3 16V9.56a.65.65 0 00.195.03H19.7V16a1.7 1.7 0 01-1.7 1.7H6A1.7 1.7 0 014.3 16zm8.025-4.603a.65.65 0 01.65-.65h3.309a.65.65 0 01.65.65v4.471a.65.65 0 11-1.3 0v-3.82h-2.01v3.82a.65.65 0 11-1.3 0v-4.47zm-4.181.866a.9.9 0 01.568-.202h.458a.44.44 0 010 .881h-.086a.65.65 0 000 1.3h.155a.49.49 0 110 .98h-.481a.971.971 0 01-.613-.219l-.018-.014a.65.65 0 00-.82 1.008l.017.015c.405.33.911.51 1.434.51h.481a1.79 1.79 0 001.331-2.986 1.74 1.74 0 00-1.4-2.775h-.458c-.506 0-.997.175-1.39.495l-.016.013a.65.65 0 10.821 1.008l.017-.014z"/>
</svg>
