<svg xmlns="http://www.w3.org/2000/svg" viewBox="0 0 24 24">
  <defs/>
  <path fill-rule="evenodd" d="M3.028 7.588c-.053.383.285.702.672.702h16.665c.35 0 .655-.286.615-.635A3.001 3.001 0 0018 5H6a3 3 0 00-2.972 2.588zM3 16a3 3 0 003 3h12a3 3 0 003-3v-5.71a.7.7 0 00-.7-.7H3.7a.7.7 0 00-.7.7V16zm9.325-3.955a.65.65 0 01.65-.65h3.309a.65.65 0 01.65.65v4.47a.65.65 0 11-1.3 0v-3.82h-2.01v3.82a.65.65 0 11-1.3 0v-4.47zm-4.181.866a.899.899 0 01.568-.202h.458a.44.44 0 010 .88h-.086a.65.65 0 100 1.3h.155a.49.49 0 110 .98h-.481a.97.97 0 01-.613-.218l-.018-.015a.65.65 0 00-.82 1.009l.017.014c.405.33.911.51 1.434.51h.481a1.79 1.79 0 001.331-2.986 1.74 1.74 0 00-1.4-2.775h-.458a2.2 2.2 0 00-1.39.495l-.016.014a.65.65 0 10.821 1.007l.017-.013z"/>
</svg>
