<svg xmlns="http://www.w3.org/2000/svg" viewBox="0 0 24 24">
  <defs/>
  <path fill-rule="evenodd" d="M6.311 3.714a.6.6 0 00-.6.6v3.664a.817.817 0 01-.816.817h-.222c-.838 0-1.517.679-1.517 1.517v2.833c0 .838.68 1.517 1.517 1.517h.253c.4 0 .74.289.806.683l.601 3.627a1.571 1.571 0 003.122-.257c0-.484.487-.82.956-.697.763.2 1.577.309 2.42.309a9.5 9.5 0 002.71-.39c.501-.149 1.042.206 1.042.73 0 .894.725 1.62 1.62 1.62a1.58 1.58 0 001.558-1.255c.652-3.182 1.044-6.56 1.062-6.715 0-.004-.002-.006-.006-.007a.008.008 0 01-.007-.008c.022-.202.034-.407.034-.614a6.318 6.318 0 00-6.319-6.318H9.277c-.34 0-.633-.217-.82-.5a2.567 2.567 0 00-2.146-1.156zm4.372 3.725a.604.604 0 000 1.207h4.152a.603.603 0 100-1.207h-4.152z"/>
</svg>
