<svg width="24" height="24" viewBox="0 0 24 24" fill="none" xmlns="http://www.w3.org/2000/svg">
<path fill-rule="evenodd" clip-rule="evenodd" d="M0 19C0 20.1046 0.895431 21 2 21H22C23.1046 21 24 20.1046 24 19V12H0V19Z" fill="#DD1C34"/>
<path fill-rule="evenodd" clip-rule="evenodd" d="M0 12H24V5C24 3.89543 23.1046 3 22 3H2C0.89543 3 0 3.89543 0 5V12Z" fill="#0D4BC3"/>
<path d="M0.657344 3.5177C0.253593 3.88363 0 4.41222 0 5.00004V19C0 19.5879 0.253593 20.1165 0.657344 20.4824L11.4286 12L0.657344 3.5177Z" fill="white"/>
<path fill-rule="evenodd" clip-rule="evenodd" d="M1.46591 4.15445L0.657344 3.5177C0.253593 3.88363 0 4.41222 0 5.00004V19M1.46591 4.15445C1.18591 4.33167 1 4.64414 1 5.00003V19C1 19.3559 1.18592 19.6684 1.46593 19.8456L0.657344 20.4824C0.632933 20.4603 0.609077 20.4375 0.585786 20.4142C0.454249 20.2827 0.340949 20.1329 0.250004 19.969C0.0907125 19.682 1.97179e-06 19.3516 0 19" fill="#D6D8DE"/>
<path d="M2.57143 7.09091C2.88702 7.09091 3.14286 6.8467 3.14286 6.54545C3.14286 6.24421 2.88702 6 2.57143 6C2.25584 6 2 6.24421 2 6.54545C2 6.8467 2.25584 7.09091 2.57143 7.09091Z" fill="#FDD64D"/>
<path d="M9.42858 12.5455C9.74417 12.5455 10 12.3013 10 12C10 11.6988 9.74417 11.4546 9.42858 11.4546C9.11298 11.4546 8.85715 11.6988 8.85715 12C8.85715 12.3013 9.11298 12.5455 9.42858 12.5455Z" fill="#FDD64D"/>
<path d="M3.14286 17.4546C3.14286 17.7558 2.88702 18 2.57143 18C2.25584 18 2 17.7558 2 17.4546C2 17.1533 2.25584 16.9091 2.57143 16.9091C2.88702 16.9091 3.14286 17.1533 3.14286 17.4546Z" fill="#FDD64D"/>
<path d="M4.74177 13.0854L3.76376 14.5197L4.13467 12.8453C4.07499 12.7988 4.02032 12.7466 3.97157 12.6896L2.21749 13.0437L3.72004 12.1101C3.71624 12.0739 3.71429 12.0372 3.71429 12C3.71429 11.9629 3.71624 11.9261 3.72005 11.8899L2.21749 10.9563L3.97158 11.3104C4.02033 11.2534 4.07499 11.2012 4.13468 11.1547L3.76376 9.48035L4.74178 10.9146C4.77972 10.911 4.81821 10.9091 4.85715 10.9091C4.89609 10.9091 4.93457 10.911 4.9725 10.9146L5.95052 9.48035L5.57961 11.1547C5.6393 11.2012 5.69397 11.2534 5.74272 11.3104L7.4968 10.9563L5.99426 11.8899C5.99806 11.9261 6.00001 11.9629 6.00001 12C6.00001 12.0372 5.99806 12.0739 5.99426 12.1101L7.4968 13.0437L5.74273 12.6896C5.69398 12.7466 5.63931 12.7988 5.57961 12.8454L5.95052 14.5197L4.97251 13.0854C4.93458 13.0891 4.89609 13.0909 4.85715 13.0909C4.81821 13.0909 4.77972 13.0891 4.74177 13.0854Z" fill="#FDD64D"/>
</svg>
