<svg xmlns="http://www.w3.org/2000/svg" viewBox="0 0 24 24">
  <defs/>
  <path fill-rule="evenodd" d="M9.81 3.832a1.95 1.95 0 00-2.718-.456l-1.209.862C5.22 4.71 4.665 5.448 4.62 6.38c-.078 1.634.257 4.785 3.025 8.665 2.755 3.861 5.652 5.265 7.248 5.766.921.289 1.839.008 2.53-.485l1.166-.831a1.95 1.95 0 00.456-2.72l-1.458-2.044a1.95 1.95 0 00-2.72-.455l-1.013.722-.005.003a11.888 11.888 0 01-2.474-2.56A11.89 11.89 0 019.76 9.268a.047.047 0 01.005-.004l1.012-.722a1.95 1.95 0 00.455-2.72l-1.42-1.991z"/>
</svg>
