<svg xmlns="http://www.w3.org/2000/svg" viewBox="0 0 24 24">
  <defs/>
  <path d="M6.817 5.61a.65.65 0 00-.84-.476L4.8 5.527a.65.65 0 11-.411-1.234l1.177-.392a1.95 1.95 0 012.52 1.429l2.348 10.62a2.35 2.35 0 002.838 1.779l5.644-1.34a.65.65 0 01.3 1.264l-5.644 1.34a3.65 3.65 0 01-4.407-2.763L6.817 5.61zM9 19a1.5 1.5 0 11-3 0 1.5 1.5 0 013 0z"/>
  <path d="M9.79 6.443a1.3 1.3 0 01.99-1.55l4.164-.92a1.3 1.3 0 011.55.988l1.93 8.73a1.3 1.3 0 01-.99 1.55l-4.165.92a1.3 1.3 0 01-1.55-.988l-.824-3.73L17.6 9.96l-.28-1.27-6.704 1.482-.825-3.73z"/>
</svg>
