<svg xmlns="http://www.w3.org/2000/svg" viewBox="0 0 24 24">
  <defs/>
  <path fill-rule="evenodd" d="M5.977 5.134a.65.65 0 01.84.477l2.348 10.62a3.65 3.65 0 004.407 2.763l5.645-1.34a.65.65 0 10-.3-1.265l-5.645 1.34a2.35 2.35 0 01-2.838-1.78L8.086 5.33a1.95 1.95 0 00-2.52-1.429l-1.177.392A.65.65 0 104.8 5.527l1.177-.393zM7.488 20.5a1.497 1.497 0 100-2.994 1.497 1.497 0 000 2.994zM9.773 6.528a1.35 1.35 0 011.027-1.61l4.136-.914a1.35 1.35 0 011.61 1.027l1.908 8.633a1.35 1.35 0 01-1.027 1.61l-4.137.914a1.35 1.35 0 01-1.61-1.027L9.773 6.528zm1.307-.34a.05.05 0 00-.038.06l.807 3.65 4.234-.938-.807-3.649a.05.05 0 00-.06-.038l-4.136.914zm5.283 4.041l-4.234.938.82 3.713a.05.05 0 00.06.038l4.137-.914a.05.05 0 00.038-.06l-.82-3.715z"/>
</svg>
