<svg xmlns="http://www.w3.org/2000/svg" viewBox="0 0 24 24">
  <defs/>
  <path fill-rule="evenodd" d="M20.587 12.216l-2.11-.005-4.825 4.825.013 2.102c-.127 1.078-1.443 1.535-2.21.767l-2.843-2.842-4.502 4.503a.65.65 0 11-.92-.92l4.503-4.502-2.862-2.862c-.768-.768-.311-2.083.767-2.21l2.102.012 4.825-4.825-.005-2.11c.128-1.078 1.443-1.535 2.21-.767l6.624 6.623c.768.768.311 2.084-.767 2.21zm-8.223 6.76L5.76 12.373l2.475.015.003-.003L12.35 16.5l-.003.002.016 2.475zm.535-11.252l-3.742 3.742 4.113 4.113 3.743-3.742-4.114-4.113zm.92-.92l.007-.007-.005-2.486 6.604 6.604-2.486-.005-.007.008-4.114-4.114z"/>
</svg>
