<svg xmlns="http://www.w3.org/2000/svg" viewBox="0 0 24 24">
  <defs/>
  <path fill-rule="evenodd" d="M15.286 12.925l-.474-.474-6.535 6.534a2.501 2.501 0 01-3.079.361l-.68.68a.65.65 0 11-.92-.92l.708-.707a2.501 2.501 0 01.436-2.95l6.534-6.534-.542-.542a.65.65 0 01.92-.919l.541.542 3.245-3.244a2.5 2.5 0 113.535 3.535l-3.244 3.244.474.475a.65.65 0 11-.92.919zm-7.928 5.14l6.534-6.534-1.697-1.697-6.534 6.535a1.2 1.2 0 101.697 1.697zm9-12.394l-3.243 3.244 1.697 1.697 3.244-3.244a1.2 1.2 0 00-1.697-1.697z"/>
</svg>
