<svg xmlns="http://www.w3.org/2000/svg" viewBox="0 0 24 24">
  <defs/>
  <path d="M13.433 12.91a.65.65 0 00-.919 0l-5.156 5.156a1.2 1.2 0 01-1.697-1.697l5.156-5.156a.65.65 0 00-.92-.92L4.743 15.45a2.501 2.501 0 00-.436 2.95l-.707.707a.65.65 0 00.919.92l.68-.68a2.501 2.501 0 003.08-.362l5.155-5.156a.65.65 0 000-.92z"/>
  <path fill-rule="evenodd" d="M15.3 12.939a.65.65 0 00.905-.933l-.474-.474 3.244-3.244a2.5 2.5 0 00-3.536-3.536l-3.244 3.244-.541-.542a.65.65 0 00-.925.913l4.552 4.552a.888.888 0 01.019.02z"/>
</svg>
