<svg xmlns="http://www.w3.org/2000/svg" viewBox="0 0 24 24">
  <defs/>
  <path fill-rule="evenodd" d="M12.5 16.471l-1.064.963c-2.2 1.985-5.053 2.299-7.2.348a.718.718 0 01-.052-.047l-.006-.006a5.839 5.839 0 01-.293-.295l-1.433-1.438a.715.715 0 011.013-1.01l1.427 1.433 3.164-2.856-3.305-3.635A2.263 2.263 0 017.435 6.38l5.529 2.756 4.318-3.896c1.17-1.057 2.817-1.171 3.874 0 1.057 1.172.623 2.839-.549 3.896l-3.68 3.33 1.532 4.061a2.263 2.263 0 01-3.794 2.323L12.5 16.471zM6.855 7.544l6.322 3.15 4.975-4.489c.774-.698 1.577-.606 2.039-.094.234.26.306.554.246.894-.065.37-.297.802-.7 1.166l-9.173 8.299c-.921.83-1.917 1.256-2.833 1.317a3.343 3.343 0 01-1.917-.45l4.082-3.682-4.183-4.602a.963.963 0 011.142-1.51zm6.61 8.055l2.165 2.38a.963.963 0 001.614-.989l-.002-.004-1.35-3.582-2.428 2.195z"/>
</svg>
