<svg xmlns="http://www.w3.org/2000/svg" viewBox="0 0 24 24">
  <path fill-rule="evenodd" d="M5 6.403h14a1.7 1.7 0 0 1 1.7 1.7v7.794a1.7 1.7 0 0 1-1.7 1.7H5a1.7 1.7 0 0 1-1.7-1.7V8.103a1.7 1.7 0 0 1 1.7-1.7Zm-3 1.7a3 3 0 0 1 3-3h14a3 3 0 0 1 3 3v7.794a3 3 0 0 1-3 3H5a3 3 0 0 1-3-3V8.103Zm4.05 7.272v-6.05c0-.745.604-1.35 1.35-1.35h1.86a2.81 2.81 0 1 1 0 5.62H7.35v1.78a.65.65 0 1 1-1.3 0Zm1.3-6.05v2.97h1.91a1.51 1.51 0 0 0 0-3.02H7.4a.05.05 0 0 0-.05.05Zm8.97-.568a.65.65 0 1 0-1.3 0V10h-.986a.65.65 0 1 0 0 1.3h.986v2.788a1.95 1.95 0 0 0 1.95 1.95h1.023a.65.65 0 1 0 0-1.3H16.97a.65.65 0 0 1-.65-.65V11.3h1.062a.65.65 0 1 0 0-1.3H16.32V8.758Z"/>
</svg>
