<svg xmlns="http://www.w3.org/2000/svg" viewBox="0 0 24 24">
  <path fill-rule="evenodd" d="M5 5.005a3 3 0 0 0-3 3v7.99a3 3 0 0 0 3 3h14a3 3 0 0 0 3-3v-7.99a3 3 0 0 0-3-3H5Zm1.05 10.37v-6.05c0-.745.604-1.35 1.35-1.35h1.862a2.81 2.81 0 0 1 0 5.62H7.35v1.78a.65.65 0 1 1-1.3 0Zm1.3-6.05v2.97h1.912a1.51 1.51 0 1 0 0-3.02H7.4a.05.05 0 0 0-.05.05Zm8.97-.568a.65.65 0 0 0-1.3 0V10h-.986a.65.65 0 1 0 0 1.3h.986v2.79a1.95 1.95 0 0 0 1.95 1.95h1.023a.65.65 0 1 0 0-1.3H16.97a.65.65 0 0 1-.65-.65V11.3h1.063a.65.65 0 0 0 0-1.3H16.32V8.757Z"/>
</svg>
