<svg width="24" height="24" viewBox="0 0 24 24" fill="none" xmlns="http://www.w3.org/2000/svg">
<rect y="3" width="24" height="18" rx="2" fill="white"/>
<path fill-rule="evenodd" clip-rule="evenodd" d="M22 4H2C1.44772 4 1 4.44772 1 5V19C1 19.5523 1.44772 20 2 20H22C22.5523 20 23 19.5523 23 19V5C23 4.44771 22.5523 4 22 4ZM2 3C0.895431 3 0 3.89543 0 5V19C0 20.1046 0.89543 21 2 21H22C23.1046 21 24 20.1046 24 19V5C24 3.89543 23.1046 3 22 3H2Z" fill="#D6D8DE"/>
<path fill-rule="evenodd" clip-rule="evenodd" d="M0 8H24V5C24 3.89543 23.1046 3 22 3H2C0.89543 3 0 3.89543 0 5V8Z" fill="#D82332"/>
<path fill-rule="evenodd" clip-rule="evenodd" d="M0 19C0 20.1046 0.895431 21 2 21H22C23.1046 21 24 20.1046 24 19V16H0V19Z" fill="#D82332"/>
<path fill-rule="evenodd" clip-rule="evenodd" d="M12.5359 9.19453C11.9434 9.07084 11.4105 9.14227 11.4105 9.70863C11.4105 10.2639 11.4105 11.0886 11.4105 11.2591C11.4105 11.4296 11.4138 11.4511 11.6134 11.4983C12.0462 11.6007 12.0867 11.611 12.5575 11.7209V10.1265C12.1896 10.0852 12.0489 9.87545 12.0489 9.63167C12.0489 9.39527 12.2112 9.24126 12.5359 9.19453Z" fill="#514537"/>
<path fill-rule="evenodd" clip-rule="evenodd" d="M11.0176 13.5673C10.6876 13.5673 10.3413 13.2759 10.3413 12.7206C10.3413 12.1652 10.3413 11.4669 10.3413 11.3405C10.3413 11.2154 10.3551 11.1978 10.3264 11.1687C10.3095 11.1515 10.3453 11.1261 10.3696 11.1013C10.4062 11.0642 10.4312 11.0333 10.3819 10.9831C10.3325 10.9329 10.3535 10.9198 10.3846 10.8883C10.4157 10.8566 10.4279 10.8251 10.3981 10.7948C10.3684 10.7645 10.3616 10.755 10.394 10.722C10.4265 10.689 10.413 10.6752 10.386 10.6477C10.3589 10.6202 10.3461 10.6003 10.3805 10.5653C10.4144 10.5309 10.417 10.5254 10.4563 10.5254C10.4955 10.5254 10.5807 10.5254 10.6186 10.5254C10.6565 10.5254 10.6572 10.5371 10.6253 10.5694C10.5841 10.6113 10.5719 10.6278 10.6186 10.6752C10.6653 10.7226 10.6633 10.7385 10.6335 10.7687C10.5888 10.814 10.5692 10.845 10.6145 10.8911C10.6599 10.9371 10.6639 10.9577 10.6294 10.9927C10.595 11.0278 10.5915 11.0587 10.6294 11.0972C10.6585 11.1268 10.6605 11.144 10.6605 11.1962C10.6605 11.511 10.6605 12.3687 10.6605 12.6051C10.6605 12.8415 10.8282 12.9844 11.1475 12.9844C11.4668 12.9844 11.575 12.8525 11.667 12.7645C11.6075 13.1879 11.4343 13.5673 11.0176 13.5673Z" fill="#514537"/>
<path fill-rule="evenodd" clip-rule="evenodd" d="M11.9492 12.2186C11.9938 12.2322 12.0371 12.2982 12.0371 12.3697H12.125C12.125 12.3092 12.0993 12.2158 12.0527 12.158C12.0519 12.1429 12.0499 12.1299 12.0466 12.1168C12.0791 12.0755 12.1264 12.0095 12.125 11.9463C12.1241 11.9064 12.0777 11.9079 12.0723 11.9395C12.0678 11.9655 12.0507 12.0055 12.0182 12.0192C12.0182 11.9683 11.9897 11.9079 11.9492 11.9079C11.9086 11.9079 11.8801 11.9683 11.8801 12.0192C11.8477 12.0055 11.8305 11.9655 11.8261 11.9395C11.8206 11.9079 11.7741 11.9064 11.7733 11.9463C11.7719 12.0095 11.8193 12.0755 11.8518 12.1168C11.8484 12.1299 11.8464 12.1429 11.8457 12.158C11.7991 12.2158 11.7733 12.3092 11.7733 12.3697H11.8613C11.8613 12.2982 11.9045 12.2322 11.9492 12.2186Z" fill="#514537"/>
<path fill-rule="evenodd" clip-rule="evenodd" d="M11.4957 12.2186C11.5403 12.2322 11.5836 12.2982 11.5836 12.3697H11.6715C11.6715 12.3092 11.6459 12.2158 11.5991 12.158C11.5985 12.1429 11.5964 12.1299 11.5931 12.1168C11.6255 12.0755 11.6729 12.0095 11.6715 11.9463C11.6707 11.9064 11.6242 11.9079 11.6187 11.9395C11.6143 11.9655 11.5971 12.0055 11.5647 12.0192C11.5647 11.9683 11.5363 11.9079 11.4957 11.9079C11.4551 11.9079 11.4267 11.9683 11.4267 12.0192C11.3943 12.0055 11.377 11.9655 11.3726 11.9395C11.3671 11.9079 11.3207 11.9064 11.3198 11.9463C11.3184 12.0095 11.3658 12.0755 11.3982 12.1168C11.3949 12.1299 11.3929 12.1429 11.3922 12.158C11.3455 12.2158 11.3198 12.3092 11.3198 12.3697H11.4078C11.4078 12.2982 11.451 12.2322 11.4957 12.2186Z" fill="#514537"/>
<path fill-rule="evenodd" clip-rule="evenodd" d="M11.0421 12.2186C11.0868 12.2322 11.13 12.2982 11.13 12.3697H11.218C11.218 12.3092 11.1923 12.2158 11.1456 12.158C11.1449 12.1429 11.1429 12.1299 11.1396 12.1168C11.172 12.0755 11.2194 12.0095 11.218 11.9463C11.2171 11.9064 11.1707 11.9079 11.1652 11.9395C11.1608 11.9655 11.1435 12.0055 11.1111 12.0192C11.1111 11.9683 11.0827 11.9079 11.0421 11.9079C11.0015 11.9079 10.9731 11.9683 10.9731 12.0192C10.9406 12.0055 10.9235 11.9655 10.9191 11.9395C10.9136 11.9079 10.8671 11.9064 10.8663 11.9463C10.8649 12.0095 10.9123 12.0755 10.9447 12.1168C10.9414 12.1299 10.9393 12.1429 10.9386 12.158C10.8919 12.2158 10.8663 12.3092 10.8663 12.3697H10.9542C10.9542 12.2982 10.9975 12.2322 11.0421 12.2186Z" fill="#514537"/>
<path fill-rule="evenodd" clip-rule="evenodd" d="M12.4027 12.2186C12.3581 12.2322 12.3148 12.2982 12.3148 12.3697H12.2268C12.2268 12.3092 12.2525 12.2158 12.2992 12.158C12.2998 12.1429 12.3019 12.1299 12.3054 12.1168C12.2728 12.0755 12.2255 12.0095 12.2268 11.9463C12.2277 11.9064 12.2742 11.9079 12.2796 11.9395C12.284 11.9655 12.3013 12.0055 12.3337 12.0192C12.3337 11.9683 12.3621 11.9079 12.4027 11.9079C12.4433 11.9079 12.4717 11.9683 12.4717 12.0192C12.5041 12.0055 12.5213 11.9655 12.5258 11.9395C12.5312 11.9079 12.5777 11.9064 12.5786 11.9463C12.5799 12.0095 12.5326 12.0755 12.5001 12.1168C12.5035 12.1299 12.5055 12.1429 12.5062 12.158C12.5529 12.2158 12.5786 12.3092 12.5786 12.3697H12.4906C12.4906 12.2982 12.4473 12.2322 12.4027 12.2186Z" fill="#514537"/>
<path fill-rule="evenodd" clip-rule="evenodd" d="M12.8562 12.2186C12.8116 12.2322 12.7683 12.2982 12.7683 12.3697H12.6803C12.6803 12.3092 12.7061 12.2158 12.7527 12.158C12.7534 12.1429 12.7554 12.1299 12.7588 12.1168C12.7263 12.0755 12.679 12.0095 12.6803 11.9463C12.6811 11.9064 12.7277 11.9079 12.7331 11.9395C12.7376 11.9655 12.7547 12.0055 12.7872 12.0192C12.7872 11.9683 12.8157 11.9079 12.8562 11.9079C12.8968 11.9079 12.9252 11.9683 12.9252 12.0192C12.9577 12.0055 12.9748 11.9655 12.9793 11.9395C12.9847 11.9079 13.0312 11.9064 13.0321 11.9463C13.0334 12.0095 12.9861 12.0755 12.9536 12.1168C12.957 12.1299 12.959 12.1429 12.9597 12.158C13.0064 12.2158 13.0321 12.3092 13.0321 12.3697H12.9442C12.9442 12.2982 12.9008 12.2322 12.8562 12.2186Z" fill="#514537"/>
<path fill-rule="evenodd" clip-rule="evenodd" d="M10.7755 12.4609H13.1563V12.5751H10.7755V12.4609Z" fill="#514537"/>
<path fill-rule="evenodd" clip-rule="evenodd" d="M12.8761 13.5673C13.2062 13.5673 13.5525 13.2759 13.5525 12.7206C13.5525 12.1652 13.5525 11.4669 13.5525 11.3405C13.5525 11.2154 13.5386 11.1978 13.5674 11.1687C13.5842 11.1515 13.5484 11.1261 13.5241 11.1013C13.4876 11.0642 13.4625 11.0333 13.5119 10.9831C13.5613 10.9329 13.5403 10.9198 13.5092 10.8883C13.478 10.8566 13.4659 10.8251 13.4956 10.7948C13.5254 10.7645 13.5322 10.755 13.4997 10.722C13.4672 10.689 13.4808 10.6752 13.5078 10.6477C13.5349 10.6202 13.5477 10.6003 13.5132 10.5653C13.4794 10.5309 13.4768 10.5254 13.4375 10.5254C13.3982 10.5254 13.313 10.5254 13.2751 10.5254C13.2373 10.5254 13.2366 10.5371 13.2684 10.5694C13.3097 10.6113 13.3218 10.6278 13.2751 10.6752C13.2285 10.7226 13.2305 10.7385 13.2603 10.7687C13.305 10.814 13.3245 10.845 13.2792 10.8911C13.2339 10.9371 13.2298 10.9577 13.2643 10.9927C13.2988 11.0278 13.3022 11.0587 13.2643 11.0972C13.2352 11.1268 13.2332 11.144 13.2332 11.1962C13.2332 11.511 13.2332 12.3687 13.2332 12.6051C13.2332 12.8415 13.0654 12.9844 12.7462 12.9844C12.427 12.9844 12.3188 12.8525 12.2268 12.7645C12.2863 13.1879 12.4594 13.5673 12.8761 13.5673Z" fill="#514537"/>
<path fill-rule="evenodd" clip-rule="evenodd" d="M13.1563 11.7209C13.1563 11.7209 13.1562 11.6397 13.1562 11.5392L12.6803 11.7209L13.1563 11.7209Z" fill="#EEA339"/>
<path fill-rule="evenodd" clip-rule="evenodd" d="M10.7755 11.7209C10.7755 11.7209 10.7756 11.6397 10.7756 11.5392L11.2515 11.7209L10.7755 11.7209Z" fill="#EEA339"/>
<path fill-rule="evenodd" clip-rule="evenodd" d="M10.2078 11.8053L9.14288 11.6594C9.17381 11.4275 9.23232 11.2014 9.31649 10.9862L10.2078 11.3457V11.8053Z" fill="#EEA339"/>
<path fill-rule="evenodd" clip-rule="evenodd" d="M12.4082 10.0251L12.5975 9.23505C12.819 9.28961 13.0343 9.37182 13.2384 9.48021L12.6279 10.6677L12.63 10.0715C12.5596 10.0718 12.4515 10.0609 12.4082 10.0251Z" fill="#EEA339"/>
<path fill-rule="evenodd" clip-rule="evenodd" d="M10.2329 11.8826L9.14814 11.8157C9.13417 12.0468 9.14805 12.2801 9.18977 12.5103C9.18977 12.5103 10.2329 12.5169 10.2329 12.5103V11.8826Z" fill="#EEA339"/>
<path fill-rule="evenodd" clip-rule="evenodd" d="M10.2222 11.1391C10.1871 11.0924 10.2087 11.0675 10.2466 11.0427C10.2845 11.018 10.279 10.9987 10.2602 10.9631C10.2412 10.9273 10.2222 10.8888 10.2574 10.8503C10.2926 10.8118 10.279 10.7953 10.252 10.7679C10.225 10.7404 10.2222 10.7102 10.2466 10.6881C10.271 10.6661 10.2655 10.6496 10.2494 10.6277C10.233 10.6056 10.2012 10.561 10.2297 10.5322L9.78715 10.1567C9.64093 10.3344 9.51576 10.5305 9.41499 10.7409L10.2222 11.1391Z" fill="#EEA339"/>
<path fill-rule="evenodd" clip-rule="evenodd" d="M11.2824 11.3438L10.7549 10.8241C10.8293 10.7485 10.8368 10.7362 10.7841 10.6825C10.7266 10.6241 10.7245 10.618 10.8415 10.499C10.8814 10.4585 10.8591 10.4303 10.8023 10.4303C10.7455 10.4303 10.4844 10.4303 10.4546 10.4303C10.4249 10.4303 10.4015 10.4318 10.3797 10.4539L9.95921 10.0403C10.1197 9.87247 10.2989 9.72601 10.4925 9.60371L11.2824 10.8945V11.3438Z" fill="#EEA339"/>
<path fill-rule="evenodd" clip-rule="evenodd" d="M10.7338 11.4229C10.7338 11.2938 10.7339 11.1659 10.7339 11.1478C10.7339 11.1092 10.7312 11.0941 10.7014 11.0639C10.6717 11.0337 10.6866 11.0192 10.7096 10.9862L11.2099 11.4097V11.6584L10.7338 11.4229Z" fill="#EEA339"/>
<path fill-rule="evenodd" clip-rule="evenodd" d="M11.2025 10.6683C11.2025 10.4203 11.2025 10.1909 11.2025 10.0587C11.2025 9.66288 11.2243 9.46491 11.2811 9.42509L11.2357 9.23505C11.0135 9.29578 10.7982 9.378 10.5941 9.48638L11.2025 10.6683Z" fill="#EEA339"/>
<path fill-rule="evenodd" clip-rule="evenodd" d="M13.678 11.8053L14.743 11.6594C14.712 11.4275 14.6535 11.2014 14.5694 10.9862L13.678 11.3457V11.8053Z" fill="#EEA339"/>
<path fill-rule="evenodd" clip-rule="evenodd" d="M13.678 11.8826L14.7627 11.8157C14.7767 12.0468 14.7629 12.2801 14.7211 12.5103C14.7211 12.5103 13.678 12.5169 13.678 12.5103V11.8826Z" fill="#EEA339"/>
<path fill-rule="evenodd" clip-rule="evenodd" d="M13.6438 11.1391C13.6789 11.0924 13.6572 11.0675 13.6194 11.0427C13.5814 11.018 13.5869 10.9987 13.6058 10.9631C13.6247 10.9273 13.6437 10.8888 13.6085 10.8503C13.5733 10.8118 13.5869 10.7953 13.6139 10.7679C13.6409 10.7404 13.6437 10.7102 13.6194 10.6881C13.595 10.6661 13.6004 10.6496 13.6165 10.6277C13.6329 10.6056 13.6646 10.561 13.6362 10.5322L14.0788 10.1567C14.225 10.3344 14.3501 10.5305 14.4508 10.7409L13.6438 11.1391Z" fill="#EEA339"/>
<path fill-rule="evenodd" clip-rule="evenodd" d="M12.6803 11.3438L13.2077 10.8241C13.1333 10.7485 13.1258 10.7362 13.1786 10.6825C13.2361 10.6241 13.2382 10.618 13.1212 10.499C13.0812 10.4585 13.1036 10.4303 13.1604 10.4303C13.2172 10.4303 13.4783 10.4303 13.5081 10.4303C13.5378 10.4303 13.5612 10.4318 13.583 10.4539L14.0035 10.0403C13.843 9.87247 13.6638 9.72601 13.4702 9.60371L12.6803 10.8945V11.3438Z" fill="#EEA339"/>
<path fill-rule="evenodd" clip-rule="evenodd" d="M13.1564 11.4229C13.1564 11.2938 13.1563 11.1659 13.1563 11.1478C13.1563 11.1092 13.159 11.0941 13.1888 11.0639C13.2185 11.0337 13.2037 11.0192 13.1806 10.9862L12.6803 11.4097V11.6584L13.1564 11.4229Z" fill="#EEA339"/>
<path fill-rule="evenodd" clip-rule="evenodd" d="M11.2007 12.6452L10.9569 12.8726C11.1773 12.9344 11.4831 12.8624 11.6048 12.6452H11.2007Z" fill="#064A89"/>
<path fill-rule="evenodd" clip-rule="evenodd" d="M9.23358 12.8001C9.39857 12.9651 9.67186 12.9458 9.83685 12.8414C10.0019 12.7369 10.1232 12.7302 10.2261 12.7412C10.2369 12.8343 10.2612 12.9536 10.303 13.0716H9.32419C9.29989 13.0112 9.25245 12.8702 9.23358 12.8001Z" fill="#064A89"/>
<path fill-rule="evenodd" clip-rule="evenodd" d="M9.41499 13.241C9.6071 13.1502 9.80347 13.2222 9.88846 13.2876C10.0454 13.4087 10.3046 13.3758 10.4318 13.3072C10.4803 13.3864 10.5393 13.4642 10.6104 13.5237H9.56311C9.52057 13.455 9.42859 13.2863 9.41499 13.241Z" fill="#064A89"/>
<path fill-rule="evenodd" clip-rule="evenodd" d="M13.9698 13.9928C14.0158 13.9461 14.078 13.8691 14.1187 13.8142C14.051 13.8059 13.9724 13.757 13.8887 13.7152C13.7344 13.6382 13.5871 13.6382 13.4558 13.7289C13.2611 13.8636 13.0175 13.8966 12.8281 13.7619C12.6203 13.6141 12.4278 13.6464 12.2654 13.74C12.1031 13.8334 12.0003 13.8389 11.9029 13.8389C11.8055 13.8389 11.7027 13.8334 11.5403 13.74C11.378 13.6464 11.1854 13.6141 10.9776 13.7619C10.7882 13.8966 10.5447 13.8636 10.35 13.7289C10.2187 13.6382 10.0713 13.6382 9.91703 13.7152C9.83331 13.757 9.75476 13.8059 9.6871 13.8142C9.72773 13.8691 9.78995 13.9461 9.83594 13.9928H13.9698Z" fill="#064A89"/>
<path fill-rule="evenodd" clip-rule="evenodd" d="M13.4629 14.4525C13.5061 14.425 13.6252 14.3343 13.6847 14.2876C13.6198 14.3013 13.4718 14.2531 13.3953 14.2133C13.1734 14.0978 13.0273 14.1089 12.8623 14.1968C12.6973 14.2848 12.4646 14.3316 12.2942 14.2381C12.1237 14.1447 12.0019 14.1199 11.9127 14.1199C11.8234 14.1199 11.7016 14.1447 11.5312 14.2381C11.3607 14.3316 11.1281 14.2848 10.963 14.1968C10.798 14.1089 10.652 14.0978 10.43 14.2133C10.3536 14.2531 10.2056 14.3013 10.1406 14.2876C10.2001 14.3343 10.3192 14.425 10.3625 14.4525H13.4629Z" fill="#064A89"/>
<path fill-rule="evenodd" clip-rule="evenodd" d="M12.4872 13.5387C12.4412 13.514 12.3874 13.4564 12.3383 13.3824C12.2599 13.2642 12.1354 13.1982 11.9488 13.1982C11.7621 13.1982 11.6377 13.2642 11.5592 13.3824C11.5101 13.4564 11.4563 13.514 11.4105 13.5387H12.4872Z" fill="#064A89"/>
<path fill-rule="evenodd" clip-rule="evenodd" d="M12.1803 13.1142C12.1614 13.0812 12.1208 12.9767 12.1073 12.9217C12.064 12.9355 11.9802 12.941 11.9314 12.941C11.8827 12.941 11.7989 12.9355 11.7556 12.9217C11.7421 12.9767 11.7015 13.0812 11.6826 13.1142H12.1803Z" fill="#064A89"/>
<path fill-rule="evenodd" clip-rule="evenodd" d="M12.6309 12.6452L12.8747 12.8726C12.6543 12.9344 12.3485 12.8624 12.2268 12.6452H12.6309Z" fill="#064A89"/>
<path fill-rule="evenodd" clip-rule="evenodd" d="M14.6567 12.8001C14.4917 12.9651 14.2184 12.9458 14.0534 12.8414C13.8884 12.7369 13.7671 12.7302 13.6642 12.7412C13.6533 12.8343 13.629 12.9536 13.5873 13.0716H14.5661C14.5904 13.0112 14.6378 12.8702 14.6567 12.8001Z" fill="#064A89"/>
<path fill-rule="evenodd" clip-rule="evenodd" d="M14.5106 13.241C14.3185 13.1502 14.1221 13.2222 14.0371 13.2876C13.8802 13.4087 13.621 13.3758 13.4938 13.3072C13.4453 13.3864 13.3863 13.4642 13.3152 13.5237H14.3625C14.405 13.455 14.4971 13.2863 14.5106 13.241Z" fill="#064A89"/>
<path d="M12.8946 14.7143C12.6132 14.807 12.3125 14.8572 12 14.8572C11.6876 14.8572 11.3868 14.807 11.1054 14.7143C11.3868 14.6216 11.6876 14.5715 12 14.5715C12.3125 14.5715 12.6132 14.6216 12.8946 14.7143Z" fill="#064A89"/>
</svg>
