<svg width="24" height="24" viewBox="0 0 24 24" fill="none" xmlns="http://www.w3.org/2000/svg">
<path d="M9 3H22C23.1046 3 24 3.89543 24 5V19C24 20.1046 23.1046 21 22 21H9V3Z" fill="#FF2936"/>
<path fill-rule="evenodd" clip-rule="evenodd" d="M0 19C0 20.1046 0.895431 21 2 21H9V3H2C0.89543 3 0 3.89543 0 5V19Z" fill="#128415"/>
<path fill-rule="evenodd" clip-rule="evenodd" d="M12.7619 12C12.7619 13.9988 11.1416 15.6191 9.14285 15.6191C7.14411 15.6191 5.5238 13.9988 5.5238 12C5.5238 10.0013 7.14411 8.38098 9.14285 8.38098C11.1416 8.38098 12.7619 10.0013 12.7619 12ZM11.4286 12C11.4286 13.2624 10.4052 14.2857 9.14285 14.2857C7.88049 14.2857 6.85714 13.2624 6.85714 12C6.85714 10.7377 7.88049 9.71431 9.14285 9.71431C10.4052 9.71431 11.4286 10.7377 11.4286 12Z" fill="#FAF94F"/>
<path fill-rule="evenodd" clip-rule="evenodd" d="M8 10.619C8 10.4349 8.14924 10.2857 8.33333 10.2857H9.95238C10.1365 10.2857 10.2857 10.4349 10.2857 10.619V12.5714C10.2857 13.2026 9.77404 13.7143 9.14286 13.7143C8.51167 13.7143 8 13.2026 8 12.5714V10.619Z" fill="white"/>
<path fill-rule="evenodd" clip-rule="evenodd" d="M9.14287 12.5714C9.45846 12.5714 9.7143 11.7441 9.7143 11.4285C9.7143 11.113 9.45846 10.8571 9.14287 10.8571C8.82728 10.8571 8.57144 11.113 8.57144 11.4285C8.57144 11.7441 8.82728 12.5714 9.14287 12.5714Z" fill="#1D50B5"/>
</svg>
