<svg xmlns="http://www.w3.org/2000/svg" viewBox="0 0 24 24">
  <defs/>
  <path fill-rule="evenodd" d="M3.096 6.613h11.05a.65.65 0 01.65.65v.684c0 .026.002.052.005.077v2.888a1.95 1.95 0 001.95 1.95h2.409c.013.1.02.201.02.303v1.565a.05.05 0 01-.05.05H4.829a.05.05 0 01-.05-.05v-3.56a.65.65 0 00-1.3 0v3.56c0 .745.604 1.35 1.35 1.35h14.3a1.35 1.35 0 001.35-1.35v-1.565a3.65 3.65 0 00-.26-1.355l-1.042-2.608a3.21 3.21 0 00-3.082-2.017 1.95 1.95 0 00-1.949-1.872H3.096a.65.65 0 000 1.3zM16.1 10.91V8.486a1.91 1.91 0 011.868 1.198l.75 1.878h-1.968a.65.65 0 01-.65-.65zM4.142 7.939a.65.65 0 100 1.3h3.203a.65.65 0 000-1.3H4.142zm5.131 10.306a1.5 1.5 0 11-3 0 1.5 1.5 0 013 0zm8.352 0a1.5 1.5 0 11-3 0 1.5 1.5 0 013 0z"/>
</svg>
