<svg xmlns="http://www.w3.org/2000/svg" viewBox="0 0 24 24">
  <defs/>
  <path fill-rule="evenodd" d="M2.398 5.963a.65.65 0 01.65-.65h10.593c1.05 0 1.9.851 1.9 1.901h.752c1.22 0 2.32.734 2.787 1.861l1.167 2.811c.152.367.23.76.23 1.157v1.745c0 .722-.585 1.308-1.307 1.308H4.789a1.3 1.3 0 01-1.3-1.3v-3.529c0-.426.345-.772.772-.772h1.136a.647.647 0 100-1.294H4.135a.647.647 0 110-1.294h3.202a.647.647 0 000-1.294H3.048a.65.65 0 01-.65-.65zm13.058 3.24c0-.388.315-.703.704-.703h.498c.529 0 1.005.317 1.208.805l.802 1.928a.704.704 0 01-.65.974H16.16a.704.704 0 01-.704-.704v-2.3z"/>
  <path d="M9.273 18.244a1.5 1.5 0 11-3 0 1.5 1.5 0 013 0zM17.625 18.244a1.5 1.5 0 11-3 0 1.5 1.5 0 013 0z"/>
</svg>
