<svg xmlns="http://www.w3.org/2000/svg" viewBox="0 0 24 24">
  <defs/>
  <path d="M13.13 5.524c-.97 1.235-3.881 1.207-4.503-1.548.99 0 1.424-.462 1.968-1.043.155-.165.318-.34.506-.516.02-.02.04-.038.062-.057l.02-.017c.253-.215.572-.343.922-.343.896 0 1.592.844 1.49 1.807l-.088.838a1.58 1.58 0 01-.377.879z"/>
  <path fill-rule="evenodd" d="M9.065 10.977l-1.061 6.676A.3.3 0 008.3 18h1.881v3.35a.65.65 0 001.3 0V18h.372v3.35a.65.65 0 001.3 0V18h1.764a.3.3 0 00.255-.141l.565-.906a4.07 4.07 0 00-1.696-5.826.284.284 0 01-.104-.427l.038-.051a2.3 2.3 0 00-.102-2.882l-.275-.318A1.3 1.3 0 0012.615 7H11.59c-.298 0-.586.109-.809.305a4.988 4.988 0 00-1.658 3.17l-.058.502zm1.214.643l-.807 5.08h4.89l.272-.436A2.77 2.77 0 0013.48 12.3a1.584 1.584 0 01-.585-2.377l.039-.052a1 1 0 00-.045-1.253l-.274-.317h-.883A3.217 3.217 0 0012 12.012l1.283 1.558a.65.65 0 01-1.004.827l-1.283-1.558a4.512 4.512 0 01-.717-1.219z"/>
</svg>
