<svg xmlns="http://www.w3.org/2000/svg" viewBox="0 0 24 24">
  <defs/>
  <path d="M9.123 10.475c.072-.62.258-1.215.545-1.758a5.183 5.183 0 001.471 4.204l1.504 1.52a.65.65 0 10.924-.915l-1.504-1.52a3.886 3.886 0 01-.434-4.944.67.67 0 00.038-.062h.948a1.3 1.3 0 01.983.45l.274.317a2.3 2.3 0 01.103 2.882l-.038.051a.284.284 0 00.104.427 4.07 4.07 0 011.696 5.826l-.565.906a.3.3 0 01-.255.141h-1.162v3.35a.65.65 0 11-1.3 0V18h-.7v3.35a.65.65 0 11-1.3 0V18H8.3a.3.3 0 01-.296-.347l1.06-6.676.059-.502zM13.13 5.524c-.971 1.235-3.881 1.207-4.503-1.548.99 0 1.424-.462 1.968-1.043.155-.165.318-.34.506-.516a1.529 1.529 0 01.081-.074c.254-.215.573-.343.923-.343.896 0 1.592.844 1.49 1.807l-.088.838a1.58 1.58 0 01-.377.879z"/>
</svg>
