<svg xmlns="http://www.w3.org/2000/svg" viewBox="0 0 24 24">
  <defs/>
  <path fill-rule="evenodd" d="M15.537 11.995a4 4 0 11-8 0 4 4 0 018 0zm-1.3 0a2.7 2.7 0 11-5.4 0 2.7 2.7 0 015.4 0z"/>
  <path fill-rule="evenodd" d="M10.52 3c-.886 0-1.636.653-1.758 1.53A1.685 1.685 0 016.46 5.86a1.774 1.774 0 00-2.204.757l-.957 1.657a1.774 1.774 0 00.424 2.27c.882.71.868 2.077-.038 2.782a1.774 1.774 0 00-.446 2.287l.957 1.657a1.774 1.774 0 002.177.768c1.055-.41 2.233.287 2.39 1.423.122.878.872 1.53 1.758 1.53h1.914c.875 0 1.619-.637 1.753-1.502a1.863 1.863 0 012.514-1.451c.816.316 1.74-.01 2.178-.768l.957-1.657a1.774 1.774 0 00-.447-2.287c-.905-.705-.92-2.073-.038-2.782a1.774 1.774 0 00.425-2.27l-.957-1.657a1.774 1.774 0 00-2.204-.757c-1.063.432-2.255-.24-2.428-1.358A1.774 1.774 0 0012.434 3H10.52zm-.47 1.71a.474.474 0 01.47-.41h1.914c.233 0 .432.17.468.402.305 1.962 2.377 3.104 4.202 2.363.22-.09.47-.003.59.202l.956 1.657a.474.474 0 01-.113.607c-1.548 1.245-1.5 3.61.054 4.82a.474.474 0 01.12.612l-.957 1.657a.474.474 0 01-.583.205 3.163 3.163 0 00-4.269 2.465.474.474 0 01-.468.402H10.52a.474.474 0 01-.47-.41c-.27-1.95-2.296-3.174-4.147-2.457a.474.474 0 01-.583-.205l-.956-1.657a.474.474 0 01.12-.611c1.554-1.21 1.6-3.576.053-4.82a.474.474 0 01-.113-.608l.957-1.657a.474.474 0 01.589-.202 2.985 2.985 0 004.08-2.356z"/>
</svg>
