<svg width="24" height="24" viewBox="0 0 24 24" fill="none" xmlns="http://www.w3.org/2000/svg">
<rect y="3" width="24" height="18" rx="2" fill="white"/>
<path fill-rule="evenodd" clip-rule="evenodd" d="M22 4H2C1.44772 4 1 4.44772 1 5V19C1 19.5523 1.44772 20 2 20H22C22.5523 20 23 19.5523 23 19V5C23 4.44771 22.5523 4 22 4ZM2 3C0.895431 3 0 3.89543 0 5V19C0 20.1046 0.89543 21 2 21H22C23.1046 21 24 20.1046 24 19V5C24 3.89543 23.1046 3 22 3H2Z" fill="#D6D8DE"/>
<path d="M0 5C0 3.89543 0.895431 3 2 3H22C23.1046 3 24 3.89543 24 5V7H0V5Z" fill="#FA2222"/>
<path d="M0 10H24V14H0V10Z" fill="#FA2222"/>
<path d="M0 17H24V19C24 20.1046 23.1046 21 22 21H2C0.89543 21 0 20.1046 0 19V17Z" fill="#FA2222"/>
<path d="M0.657344 3.51764C0.253593 3.88357 0 4.41216 0 4.99998V19C0 19.5878 0.253593 20.1164 0.657344 20.4823L11.4286 12L0.657344 3.51764Z" fill="#1D63F9"/>
<path fill-rule="evenodd" clip-rule="evenodd" d="M3.99996 13.1467L2.32057 14.4271L2.96134 12.3543L1.28265 11.0729L3.35806 11.0723L3.99996 9L4.64186 11.0723L6.71726 11.0729L5.03858 12.3543L5.67934 14.4271L3.99996 13.1467Z" fill="white"/>
</svg>
