<svg xmlns="http://www.w3.org/2000/svg" viewBox="0 0 24 24">
  <defs/>
  <path d="M5 2h.8a.65.65 0 010 1.3H5A1.7 1.7 0 003.3 5v.691a.65.65 0 01-1.3 0V5a3 3 0 013-3zM2.65 17.659a.65.65 0 00-.65.65V19a3 3 0 003 3h.8a.65.65 0 100-1.3H5A1.7 1.7 0 013.3 19v-.691a.65.65 0 00-.65-.65zM21.35 17.659a.65.65 0 00-.65.65V19a1.7 1.7 0 01-1.7 1.7h-.583a.65.65 0 100 1.3H19a3 3 0 003-3v-.691a.65.65 0 00-.65-.65zM21.35 6.341a.65.65 0 00.65-.65V5a3 3 0 00-3-3h-.583a.65.65 0 100 1.3H19A1.7 1.7 0 0120.7 5v.691c0 .359.291.65.65.65z"/>
  <path fill-rule="evenodd" d="M5.924 7.224a1.3 1.3 0 011.3-1.3h2.717a1.3 1.3 0 011.3 1.3v2.717a1.3 1.3 0 01-1.3 1.3H7.224a1.3 1.3 0 01-1.3-1.3V7.224zm1.3 0h2.717v2.717H7.224V7.224zM5.924 14.06a1.3 1.3 0 011.3-1.3h2.717a1.3 1.3 0 011.3 1.3v2.716a1.3 1.3 0 01-1.3 1.3H7.224a1.3 1.3 0 01-1.3-1.3V14.06zm1.3 0h2.717v2.716H7.224V14.06z"/>
  <path d="M16.776 18.279h-2.2a.65.65 0 110-1.3h2.2v-2.373a.65.65 0 011.3 0v2.373a1.3 1.3 0 01-1.3 1.3z"/>
  <path fill-rule="evenodd" d="M12.76 7.224a1.3 1.3 0 011.3-1.3h2.716a1.3 1.3 0 011.3 1.3v2.717a1.3 1.3 0 01-1.3 1.3h-2.717a1.3 1.3 0 01-1.3-1.3V7.224zm1.3 0h2.716v2.717h-2.717V7.224z"/>
  <path d="M13.41 12.717a.65.65 0 01.65.65v.979a.65.65 0 11-1.3 0v-.98a.65.65 0 01.65-.65z"/>
</svg>
