<svg xmlns="http://www.w3.org/2000/svg" fill="currentColor" viewBox="0 0 51 14">
  <path d="M4.424 8.936c-.064 0-.133.005-.208.016H2.504V13H.28V1.8h3.632c1.43 0 2.485.32 3.168.96.693.63 1.04 1.499 1.04 2.608 0 .747-.144 1.37-.432 1.872a2.84 2.84 0 0 1-1.232 1.168L8.776 13H6.232L4.424 8.936Zm-.448-1.744c.619 0 1.077-.16 1.376-.48.299-.32.448-.768.448-1.344 0-.565-.15-.997-.448-1.296-.299-.299-.757-.448-1.376-.448H2.504v3.568h1.472Zm7.576 2.24c.202 1.376 1.029 2.064 2.48 2.064.405 0 .837-.043 1.296-.128.469-.096.9-.203 1.296-.32v1.728c-.267.075-.646.155-1.136.24a8.46 8.46 0 0 1-1.649.144c-1.45 0-2.56-.39-3.328-1.168-.768-.779-1.151-1.85-1.151-3.216 0-.64.096-1.216.288-1.728.202-.523.48-.965.832-1.328a3.69 3.69 0 0 1 1.28-.832 4.193 4.193 0 0 1 1.616-.304c1.226 0 2.165.379 2.816 1.136.65.757.976 1.84.976 3.248v.464h-5.616Zm1.824-3.2c-.534 0-.95.176-1.248.528-.3.341-.491.784-.576 1.328h3.504c.02-.576-.128-1.03-.448-1.36-.31-.33-.72-.496-1.232-.496Zm8.883 6.928a3.49 3.49 0 0 1-1.552-.336 3.415 3.415 0 0 1-1.168-.928 4.445 4.445 0 0 1-.72-1.376 5.588 5.588 0 0 1-.256-1.712c0-.555.08-1.088.24-1.6.17-.512.41-.96.72-1.344.32-.395.704-.704 1.152-.928.448-.235.96-.352 1.536-.352.448 0 .88.09 1.296.272.426.17.816.448 1.168.832V.904h2.144V13h-2.016v-1.216c-.299.459-.656.805-1.072 1.04-.406.224-.896.336-1.472.336Zm.512-1.648c.576 0 1.045-.24 1.408-.72.362-.48.544-1.115.544-1.904 0-.384-.054-.736-.16-1.056A2.343 2.343 0 0 0 24.147 7a1.787 1.787 0 0 0-.624-.544 1.61 1.61 0 0 0-.784-.192c-.288 0-.55.064-.784.192A2 2 0 0 0 21.33 7a2.528 2.528 0 0 0-.4.816c-.096.32-.144.672-.144 1.056s.048.741.144 1.072c.096.32.229.597.4.832.181.235.394.416.64.544.245.128.512.192.8.192Zm8.398 1.648a3.46 3.46 0 0 1-1.072-.16 2.443 2.443 0 0 1-.864-.48 2.334 2.334 0 0 1-.56-.784 2.956 2.956 0 0 1-.192-1.104c0-.49.096-.912.288-1.264.192-.352.47-.64.832-.864a3.808 3.808 0 0 1 1.296-.48 8.182 8.182 0 0 1 1.696-.16h1.248v-.192c0-.267-.054-.485-.16-.656a1.08 1.08 0 0 0-.416-.432 1.56 1.56 0 0 0-.624-.24 3.388 3.388 0 0 0-.752-.08 7.46 7.46 0 0 0-1.216.112 6.805 6.805 0 0 0-1.424.416V5.048a7.92 7.92 0 0 1 1.424-.336 9.619 9.619 0 0 1 1.552-.128c.554 0 1.061.064 1.52.192.47.117.864.31 1.184.576.33.256.586.592.768 1.008.181.416.272.917.272 1.504V13h-2.064l.016-1.28h-.048c-.299.49-.694.853-1.184 1.088a3.48 3.48 0 0 1-1.52.352Zm.704-1.552c.277 0 .533-.053.768-.16a2.019 2.019 0 0 0 1.04-1.104c.106-.245.16-.501.16-.768V9.16h-1.088c-.726 0-1.254.128-1.584.384-.32.245-.48.57-.48.976 0 .363.112.635.336.816.224.181.506.272.848.272Zm9.962 1.552c-.662 0-1.259-.101-1.792-.304a3.837 3.837 0 0 1-1.344-.864 3.955 3.955 0 0 1-.848-1.344 5.213 5.213 0 0 1-.288-1.776c0-.63.096-1.205.288-1.728a3.74 3.74 0 0 1 .832-1.36 3.728 3.728 0 0 1 1.344-.88c.522-.213 1.12-.32 1.792-.32a6.4 6.4 0 0 1 1.28.112c.373.075.629.133.768.176v1.664a7.144 7.144 0 0 0-.672-.176 4.116 4.116 0 0 0-1.024-.112c-.779 0-1.371.219-1.776.656-.406.427-.608 1.077-.608 1.952 0 .917.224 1.59.672 2.016.448.416 1.045.624 1.792.624a3.99 3.99 0 0 0 1.024-.112c.288-.085.49-.155.608-.208v1.696c-.086.021-.31.075-.672.16-.352.085-.811.128-1.376.128Zm8.261-6.736h-1.664v3.632c0 .523.102.88.304 1.072.214.192.475.288.784.288.107 0 .214-.01.32-.032.107-.021.219-.043.336-.064v1.712c-.213.032-.41.059-.592.08a3.314 3.314 0 0 1-.576.048c-.842 0-1.51-.224-2-.672-.48-.459-.72-1.141-.72-2.048V6.424h-1.264V4.728h1.264V2.856l2.144-.656v2.528h1.664v1.696Z"/>
</svg>
