<svg xmlns="http://www.w3.org/2000/svg" viewBox="0 0 24 24">
  <defs/>
  <path d="M10.54 12.877l-.73-.58a2.7 2.7 0 103.328-2.914c-.35-.085-.644-.376-.644-.735 0-.36.293-.648.647-.59a4.002 4.002 0 01-.647 7.948 4 4 0 01-3.966-3.473l-.541.84c-.2.3-.6.393-.9.193a.65.65 0 01-.194-.9l1.45-2.179a.69.69 0 011.003-.182l1.949 1.53a.65.65 0 01.135.911.526.526 0 01-.38.252.66.66 0 01-.51-.12z"/>
  <path fill-rule="evenodd" d="M16.993 3a3 3 0 013 3v12a3 3 0 01-3 3H7a3 3 0 01-3-3V6a3 3 0 013-3h9.993zM7 4.3h9.993a1.7 1.7 0 011.7 1.7v12a1.7 1.7 0 01-1.7 1.7H7A1.7 1.7 0 015.3 18V6A1.7 1.7 0 017 4.3z"/>
</svg>
