<svg width="24" height="24" viewBox="0 0 24 24" fill="none" xmlns="http://www.w3.org/2000/svg">
<rect y="3" width="24" height="18" rx="2" fill="#103A8E"/>
<path d="M0.606452 20.4346C0.515636 20.3464 0.433169 20.2496 0.360352 20.1456L24 8.82141V11.7752L0.606452 20.4346Z" fill="white"/>
<path d="M0.361641 20.1473C0.331498 20.1044 0.303002 20.0602 0.276245 20.0148L24 5.66479V8.9743L0.361641 20.1473Z" fill="#D07A2C"/>
<path d="M6.01294 3.81812L6.20977 7.68915L7.03477 5.25482L6.59003 7.79613L7.98696 5.66896L6.93096 8.00281L8.80463 6.32775L7.20933 8.2951L9.43205 7.1863L7.40617 8.65308L9.82646 8.1861L7.50806 9.05235L11.1948 9.25903L7.50806 9.4657L9.82646 10.3319L7.40617 9.86498L9.43205 11.3318L7.20933 10.223L8.80463 12.1903L6.93096 10.5152L7.98696 12.8491L6.59003 10.7219L7.03477 13.2632L6.20977 10.8289L6.01294 14.6999L5.8161 10.8289L4.9911 13.2632L5.43584 10.7219L4.03891 12.8491L5.09491 10.5152L3.22124 12.1903L4.81654 10.223L2.59382 11.3318L4.6197 9.86498L2.19941 10.3319L4.51781 9.4657L0.831116 9.25903L4.51781 9.05235L2.19941 8.1861L4.6197 8.65308L2.59382 7.1863L4.81654 8.2951L3.22124 6.32775L5.09491 8.00281L4.03891 5.66896L5.43584 7.79613L4.9911 5.25482L5.8161 7.68915L6.01294 3.81812Z" fill="white"/>
</svg>
