<svg width="24" height="24" viewBox="0 0 24 24" fill="none" xmlns="http://www.w3.org/2000/svg">
<path d="M0 19C0 20.1046 0.895431 21 2 21H22C23.1046 21 24 20.1046 24 19V5C24 3.89543 23.1046 3 22 3H2C0.89543 3 0 3.89543 0 5V19Z" fill="#B82B21"/>
<path d="M13.974 12.3358L13.5672 10.9501L13.1604 12.3358L12.4602 11.0859L12.3687 12.5328L11.4129 11.4862L11.6417 12.9161L10.4818 12.1292L11.0185 13.4653L9.71699 12.9804L10.5326 14.1505L9.15974 13.9938L10.2104 14.9349L8.8401 15.1149L10.0691 15.7761L8.7753 16.2831L10.1164 16.629L9.23273 17.2501H17.9016L17.0179 16.629L18.3591 16.2831L17.0652 15.7761L18.2943 15.1149L16.924 14.9349L17.9746 13.9938L16.6017 14.1505L17.4174 12.9804L16.1159 13.4653L16.6526 12.1292L15.4927 12.9161L15.7214 11.4862L14.7656 12.5328L14.6741 11.0859L13.974 12.3358Z" fill="#F2D046"/>
<path d="M0 18.3553C0.469218 18.3426 0.93876 18.1842 1.40827 18.0258C1.89775 17.8606 2.38719 17.6955 2.87618 17.6955C3.36633 17.6955 3.85692 17.8608 4.34729 18.026C4.83721 18.1911 5.32691 18.3561 5.81571 18.3561C6.30608 18.3561 6.79646 18.1908 7.28658 18.0255C7.77616 17.8605 8.26547 17.6955 8.75423 17.6955C9.24502 17.6955 9.73494 17.8607 10.2249 18.0258C10.7148 18.191 11.2047 18.3561 11.6955 18.3561C12.1842 18.3561 12.673 18.1912 13.162 18.0261C13.6517 17.8609 14.1416 17.6955 14.6322 17.6955C15.1231 17.6955 15.6132 17.8608 16.1031 18.026C16.5927 18.1911 17.0821 18.3561 17.5718 18.3561C18.0606 18.3561 18.5499 18.1911 19.0395 18.026C19.5294 17.8608 20.0195 17.6955 20.5095 17.6955C20.9998 17.6955 21.4902 17.8608 21.9803 18.0261C22.4699 18.1911 22.9592 18.3561 23.448 18.3561C23.6321 18.3561 23.8161 18.3329 24 18.2951V17.1934C23.8161 17.2312 23.6321 17.2544 23.448 17.2544C22.9592 17.2544 22.4699 17.0894 21.9803 16.9242C21.4902 16.7589 20.9998 16.5935 20.5095 16.5935C20.0195 16.5935 19.5294 16.7589 19.0395 16.9242C18.5499 17.0893 18.0606 17.2544 17.5718 17.2544C17.0821 17.2544 16.5927 17.0893 16.1031 16.9242C15.6132 16.7589 15.1231 16.5935 14.6322 16.5935C14.1416 16.5935 13.6517 16.7589 13.162 16.9243C12.673 17.0894 12.1842 17.2544 11.6955 17.2544C11.2047 17.2544 10.7148 17.0892 10.2249 16.924C9.73494 16.7587 9.24502 16.5935 8.75423 16.5935C8.26547 16.5935 7.77616 16.7585 7.28658 16.9237C6.79646 17.089 6.30608 17.2544 5.81571 17.2544C5.32691 17.2544 4.83721 17.0893 4.34729 16.9242C3.85692 16.7589 3.36633 16.5935 2.87618 16.5935C2.38719 16.5935 1.89775 16.7587 1.40827 16.9239C0.93876 17.0824 0.469218 17.2409 0 17.2536V18.3553Z" fill="#1C316C"/>
<path d="M0 16.1505C0.469218 16.1378 0.93876 15.9792 1.40827 15.8208C1.89774 15.6555 2.38719 15.4903 2.87618 15.4903C3.36633 15.4903 3.85693 15.6557 4.3473 15.821C4.83722 15.9862 5.32691 16.1513 5.81571 16.1513C6.30608 16.1513 6.79646 15.9859 7.28658 15.8205C7.77616 15.6554 8.26547 15.4903 8.75423 15.4903C9.24502 15.4903 9.73494 15.6555 10.2249 15.8208C10.7148 15.986 11.2047 16.1513 11.6955 16.1513C12.1842 16.1513 12.673 15.9862 13.162 15.8211C13.6517 15.6557 14.1416 15.4903 14.6322 15.4903C15.1231 15.4903 15.6132 15.6557 16.1031 15.821C16.5927 15.9862 17.0821 16.1513 17.5718 16.1513C18.0606 16.1513 18.5499 15.9862 19.0395 15.821C19.5294 15.6557 20.0195 15.4903 20.5095 15.4903C20.9998 15.4903 21.4902 15.6557 21.9803 15.8211C22.4699 15.9862 22.9592 16.1513 23.448 16.1513C23.6321 16.1513 23.8161 16.128 24 16.0903V13.9916H0V16.1505Z" fill="#1C316C"/>
<path d="M0.0520534 19.4553C0.25814 20.3405 1.05205 21 2 21H22C22.9658 21 23.7716 20.3155 23.9589 19.4052C23.7887 19.4382 23.6184 19.4581 23.448 19.4581C22.9592 19.4581 22.4699 19.2928 21.9803 19.1274C21.4902 18.9618 20.9998 18.7961 20.5095 18.7961C20.0195 18.7961 19.5294 18.9617 19.0395 19.1273C18.5499 19.2927 18.0606 19.4581 17.5718 19.4581C17.0821 19.4581 16.5927 19.2927 16.1031 19.1273C15.6132 18.9617 15.1231 18.7961 14.6322 18.7961C14.1416 18.7961 13.6517 18.9618 13.162 19.1274C12.673 19.2928 12.1842 19.4581 11.6955 19.4581C11.2047 19.4581 10.7148 19.2926 10.2249 19.1271C9.73494 18.9616 9.24502 18.7961 8.75423 18.7961C8.26547 18.7961 7.77616 18.9614 7.28658 19.1268C6.79646 19.2924 6.30608 19.4581 5.81571 19.4581C5.32691 19.4581 4.83721 19.2928 4.34729 19.1273C3.85692 18.9617 3.36633 18.7961 2.87618 18.7961C2.38719 18.7961 1.89775 18.9616 1.40827 19.1271C0.956121 19.2799 0.503943 19.4328 0.0520534 19.4553Z" fill="#1C316C"/>
<path d="M0 15.0484C0.469218 15.0357 0.93876 14.8772 1.40827 14.7187C1.89775 14.5535 2.38719 14.3882 2.87618 14.3882C3.36633 14.3882 3.85692 14.5536 4.34729 14.719C4.83721 14.8841 5.32691 15.0492 5.81571 15.0492C6.30608 15.0492 6.79646 14.8838 7.28658 14.7185C7.77616 14.5533 8.26547 14.3882 8.75423 14.3882C9.24502 14.3882 9.73494 14.5535 10.2249 14.7187C10.7148 14.884 11.2047 15.0492 11.6955 15.0492C12.1842 15.0492 12.673 14.8842 13.162 14.719C13.6517 14.5537 14.1416 14.3882 14.6322 14.3882C15.1231 14.3882 15.6132 14.5536 16.1031 14.7189C16.5927 14.8841 17.0821 15.0492 17.5718 15.0492C18.0606 15.0492 18.5499 14.8841 19.0395 14.7189C19.5294 14.5536 20.0195 14.3882 20.5095 14.3882C20.9998 14.3882 21.4902 14.5537 21.9803 14.719C22.4699 14.8842 22.9592 15.0492 23.448 15.0492C23.6321 15.0492 23.8161 15.026 24 14.9882V13.8851C23.8161 13.9229 23.6321 13.9461 23.448 13.9461C22.9592 13.9461 22.4699 13.781 21.9803 13.6159C21.4902 13.4505 20.9998 13.2851 20.5095 13.2851C20.0195 13.2851 19.5294 13.4505 19.0395 13.6158C18.5499 13.781 18.0606 13.9461 17.5718 13.9461C17.0821 13.9461 16.5927 13.781 16.1031 13.6158C15.6132 13.4505 15.1231 13.2851 14.6322 13.2851C14.1416 13.2851 13.6517 13.4506 13.162 13.6159C12.673 13.7811 12.1842 13.9461 11.6955 13.9461C11.2047 13.9461 10.7148 13.7809 10.2249 13.6156C9.73494 13.4503 9.24502 13.2851 8.75423 13.2851C8.26547 13.2851 7.77616 13.4502 7.28658 13.6153C6.79646 13.7807 6.30608 13.9461 5.81571 13.9461C5.32691 13.9461 4.83721 13.781 4.34729 13.6158C3.85692 13.4505 3.36633 13.2851 2.87618 13.2851C2.38719 13.2851 1.89775 13.4503 1.40827 13.6156C0.93876 13.7741 0.469218 13.9326 0 13.9453V15.0484Z" fill="white"/>
<path d="M12.3608 8.13708L13.4465 8.14391C13.4519 8.0961 13.3526 8.00096 13.2674 7.98504C12.9922 7.93988 12.7862 8.03503 12.4551 8.03736L12.3608 8.13708Z" fill="#F2D046"/>
<path d="M10.1956 7.86711C10.452 8.20605 10.9464 8.44085 11.4185 8.4431C12.0582 8.44768 12.761 7.90809 13.6144 7.74038L10.8266 7.68132C10.4676 7.42266 10.1924 7.45448 10.006 7.61567L9.47582 7.63343C9.39891 7.67674 9.53758 7.8557 9.64664 7.86253L10.1956 7.86711Z" fill="#F2D046"/>
<path d="M11.4562 7.67447C11.3554 7.18365 10.9805 6.974 10.5327 6.91253C10.0111 6.8378 8.81566 6.7654 8.02213 6.52497C8.36605 6.87886 9.08582 7.05669 9.58494 7.13705C10.1151 7.22206 10.6302 7.34557 11.0389 7.66764L11.4562 7.67447Z" fill="#F2D046"/>
<path d="M11.1194 8.00099C11.2852 8.22318 11.5431 8.21185 11.8183 8.0169C12.096 7.82075 12.3965 7.27329 12.5403 7.26412C13.5563 7.20265 14.7806 6.75402 15.3654 6.40704C14.6235 6.51705 13.8882 6.64064 13.1405 6.64522C11.8663 6.64972 11.7143 7.26075 11.1959 7.68809L11.1194 8.00099Z" fill="#F2D046"/>
</svg>
