<svg xmlns="http://www.w3.org/2000/svg" viewBox="0 0 24 24">
  <defs/>
  <path fill-rule="evenodd" d="M12.647 5.36H17a1.7 1.7 0 011.7 1.7V17a1.7 1.7 0 01-1.7 1.7h-4.353v-3.087a.65.65 0 10-1.3 0V18.7H7A1.7 1.7 0 015.3 17V7.06A1.7 1.7 0 017 5.36h4.347v2.994a.65.65 0 101.3 0V5.36zM4 7.06a3 3 0 013-3h10a3 3 0 013 3V17a3 3 0 01-3 3H7a3 3 0 01-3-3V7.06zm6.286 6.423l-.941-.876h5.27l-.917.81a.65.65 0 10.86.975l2.224-1.961a.65.65 0 00.013-.964l-2.225-2.07a.65.65 0 10-.885.952l1.03.958H9.26l1.013-.892a.65.65 0 10-.86-.975L7.189 11.4a.65.65 0 00-.013.964l2.224 2.07a.65.65 0 10.886-.952z"/>
</svg>
