<svg xmlns="http://www.w3.org/2000/svg" viewBox="0 0 24 24">
  <defs/>
  <path fill-rule="evenodd" d="M21.004 9.697a3 3 0 00-3-3h-6.75a3 3 0 00-3 3v9.284a3 3 0 003 3h6.75a3 3 0 003-3V9.697zm-3-1.7h-6.75a1.7 1.7 0 00-1.7 1.7v9.284a1.7 1.7 0 001.7 1.7h6.75a1.7 1.7 0 001.7-1.7V9.697a1.7 1.7 0 00-1.7-1.7z"/>
  <path d="M3.956 11.524a.65.65 0 00.92 0L6.64 9.758a.65.65 0 00-.92-.919l-.655.656a5.2 5.2 0 015.2-5.195.65.65 0 100-1.3 6.5 6.5 0 00-6.5 6.495L3.11 8.84a.65.65 0 00-.92.92l1.766 1.765z"/>
</svg>
