<svg xmlns="http://www.w3.org/2000/svg" viewBox="0 0 24 24">
  <defs/>
  <path fill-rule="evenodd" d="M11.281 8.7a.65.65 0 101.3 0V7.325h1.375a.65.65 0 100-1.3h-1.375V4.65a.65.65 0 10-1.3 0v1.375H9.906a.65.65 0 000 1.3h1.375V8.7zM5.3 13.648v2.683a2.35 2.35 0 002.35 2.35h8.588a2.35 2.35 0 002.35-2.35v-2.683H5.3zm13.288-1.3V9.355a2.03 2.03 0 00-2.03-2.03.65.65 0 010-1.3 3.33 3.33 0 013.33 3.33v6.976a3.65 3.65 0 01-3.65 3.65H7.65A3.65 3.65 0 014 16.331V9.319a3.294 3.294 0 013.294-3.294.65.65 0 010 1.3A1.994 1.994 0 005.3 9.319v3.03h13.288z"/>
</svg>
