<svg xmlns="http://www.w3.org/2000/svg" viewBox="0 0 24 24">
  <defs/>
  <path fill-rule="evenodd" d="M11.281 15.3a.65.65 0 011.3 0v1.375h1.375a.65.65 0 110 1.3h-1.375v1.375a.65.65 0 11-1.3 0v-1.375H9.906a.65.65 0 110-1.3h1.375V15.3zM5.3 10.352V7.669a2.35 2.35 0 012.35-2.35h8.588a2.35 2.35 0 012.35 2.35v2.683H5.3zm13.288 1.3v2.993a2.03 2.03 0 01-2.03 2.03.65.65 0 000 1.3 3.33 3.33 0 003.33-3.33V7.669a3.65 3.65 0 00-3.65-3.65H7.65A3.65 3.65 0 004 7.669v7.012a3.294 3.294 0 003.294 3.294.65.65 0 000-1.3A1.994 1.994 0 015.3 14.681v-3.03h13.288z"/>
</svg>
