<svg width="24" height="24" viewBox="0 0 24 24" fill="none" xmlns="http://www.w3.org/2000/svg">
<path fill-rule="evenodd" clip-rule="evenodd" d="M0 19C0 20.1046 0.895431 21 2 21H22C23.1046 21 24 20.1046 24 19V16H0V19Z" fill="#2D754D"/>
<path fill-rule="evenodd" clip-rule="evenodd" d="M0 11H24V5C24 3.89543 23.1046 3 22 3H2C0.89543 3 0 3.89543 0 5V11Z" fill="#25B1EB"/>
<path fill-rule="evenodd" clip-rule="evenodd" d="M0 16H24V11H0V16Z" fill="#FECB2F"/>
<path fill-rule="evenodd" clip-rule="evenodd" d="M18.2857 8.40004L17.411 9.41735L17.4776 8.04857L16.174 8.11848L17.1429 7.20004L16.174 6.2816L17.4776 6.35151L17.411 4.98273L18.2857 6.00004L19.1604 4.98273L19.0939 6.35151L20.3975 6.2816L19.4286 7.20004L20.3975 8.11848L19.0939 8.04857L19.1604 9.41735L18.2857 8.40004Z" fill="#FECB2F"/>
</svg>
