<svg xmlns="http://www.w3.org/2000/svg" viewBox="0 0 24 24">
  <defs/>
  <path fill-rule="evenodd" d="M4 5.923a1.3 1.3 0 01.985-1.262l6.287-1.571a3 3 0 011.456 0l6.287 1.572A1.3 1.3 0 0120 5.921v5.231a9 9 0 01-4.23 7.632l-3.081 1.926a1.3 1.3 0 01-1.378 0L8.23 18.785A9 9 0 014 11.153v-5.23zm9.689 2.907l-1.331-2.7a.4.4 0 00-.718 0l-1.33 2.7a.3.3 0 01-.226.164l-2.982.433a.396.396 0 00-.216.677l2.153 2.1a.3.3 0 01.087.265l-.51 2.97a.402.402 0 00.582.422l2.662-1.401a.3.3 0 01.279 0l2.662 1.396a.4.4 0 00.58-.422l-.508-2.965a.3.3 0 01.087-.265l2.158-2.1a.399.399 0 00-.222-.677l-2.981-.433a.3.3 0 01-.226-.164z"/>
</svg>
