<svg xmlns="http://www.w3.org/2000/svg" viewBox="0 0 24 24">
  <defs/>
  <path fill-rule="evenodd" d="M13.915 8.994l2.981.433c.325.045.456.45.222.677l-2.158 2.1a.3.3 0 00-.087.265l.509 2.965a.4.4 0 01-.581.422l-2.662-1.396a.3.3 0 00-.28 0L9.199 15.86a.402.402 0 01-.581-.421l.508-2.97a.3.3 0 00-.086-.266l-2.153-2.1a.396.396 0 01.216-.677l2.982-.433a.3.3 0 00.226-.164l1.33-2.7a.4.4 0 01.718 0l1.331 2.7a.3.3 0 00.226.164zm-.187 1.286l1.17.17-.845.822a1.6 1.6 0 00-.461 1.417l.2 1.17-1.05-.55a1.6 1.6 0 00-1.488 0l-1.048.552.2-1.173a1.6 1.6 0 00-.46-1.415l-.843-.823 1.167-.17a1.6 1.6 0 001.206-.876l.523-1.062.524 1.062a1.6 1.6 0 001.205.876z"/>
  <path fill-rule="evenodd" d="M4 5.923a1.3 1.3 0 01.985-1.262l6.287-1.571a3 3 0 011.456 0l6.287 1.572A1.3 1.3 0 0120 5.921v5.231a9 9 0 01-4.23 7.632l-3.081 1.926a1.3 1.3 0 01-1.378 0L8.23 18.785A9 9 0 014 11.153v-5.23zm14.7 0v5.23a7.7 7.7 0 01-3.619 6.53L12 19.608l-3.081-1.925a7.7 7.7 0 01-3.619-6.53v-5.23l6.288-1.572a1.7 1.7 0 01.824 0L18.7 5.923z"/>
</svg>
