<svg xmlns="http://www.w3.org/2000/svg" viewBox="0 0 24 24">
  <path d="M12.059 13.382c-.27.29-.73.3-1.01.02l-1.861-1.843a.658.658 0 0 1 0-.92c.25-.25.67-.25.92 0l1.42 1.403 2.632-2.83a.65.65 0 0 1 .92-.04c.26.24.28.65.04.92l-3.061 3.29Z"/>
  <path fill-rule="evenodd" d="M4.985 4.754A1.3 1.3 0 0 0 4 6.015v5.23a9 9 0 0 0 4.23 7.632l3.081 1.926a1.3 1.3 0 0 0 1.378 0l3.081-1.926A9 9 0 0 0 20 11.245v-5.23a1.3 1.3 0 0 0-.985-1.261l-6.287-1.572a3 3 0 0 0-1.456 0L4.985 4.754ZM18.7 11.245v-5.23l-6.288-1.572a1.7 1.7 0 0 0-.824 0L5.3 6.015v5.23a7.7 7.7 0 0 0 3.619 6.53L12 19.7l3.081-1.926a7.7 7.7 0 0 0 3.619-6.53Z"/>
</svg>
