<svg width="24" height="24" viewBox="0 0 24 24" fill="none" xmlns="http://www.w3.org/2000/svg">
<rect y="3" width="24" height="18" rx="2" fill="#013A9B"/>
<path d="M2.03252e-05 9.60929L3.33333 7.22835V6.73519L0.22739 4.07296C0.331861 3.87361 0.468974 3.69405 0.63163 3.5414L4 6.42857V7.57143L2.03252e-05 10.4286V9.60929Z" fill="white"/>
<path d="M10.9524 3V3.39989C10.9524 3.72284 10.7964 4.02591 10.5336 4.21362L6.95238 6.77165V7.2648L10.3317 10.1614C10.9348 10.6783 10.5692 11.6667 9.77485 11.6667C9.59651 11.6667 9.42263 11.6109 9.27751 11.5073L5.50064 8.80952H4.76263L2.03252e-05 11.7862V11L4.57143 8.14286H5.71429L9.665 10.9648C9.69706 10.9877 9.73546 11 9.77485 11C9.9503 11 10.031 10.7817 9.89784 10.6675L6.28571 7.57143V6.42857L10.1461 3.67113C10.2337 3.60856 10.2857 3.50754 10.2857 3.39989V3L10.9524 3Z" fill="white"/>
<path d="M9.02784 3L10.2857 3L5.71429 5.85714H4.57143L0.970449 3.28501C1.20126 3.14615 1.4624 3.05257 1.74157 3.01655L4.78507 5.19048H5.52309L9.02784 3Z" fill="white"/>
<path fill-rule="evenodd" clip-rule="evenodd" d="M0 5.85714V8.14286H4V10.9048C4 11.273 4.29848 11.5714 4.66667 11.5714H5.61905C5.98724 11.5714 6.28571 11.273 6.28571 10.9048V8.14286H10.1905C10.5587 8.14286 10.8571 7.84438 10.8571 7.47619V6.52381C10.8571 6.15562 10.5587 5.85714 10.1905 5.85714H6.28571V3H4V5.85714H0Z" fill="white"/>
<path d="M0.620846 3.53215C0.724084 3.43571 0.837716 3.35017 0.959804 3.27741L4 5.44898V5.85714H3.33333L0.620846 3.53215Z" fill="#F64E4E"/>
<path d="M6.28571 5.5L10.2857 3V3.39989C10.2857 3.50754 10.2337 3.60856 10.1461 3.67113L7.08571 5.85714H6.28571V5.5Z" fill="#F64E4E"/>
<path d="M6.28571 8.14286H6.95238L9.89784 10.6675C10.031 10.7817 9.9503 11 9.77485 11C9.73546 11 9.69706 10.9877 9.665 10.9648L6.28571 8.55102V8.14286Z" fill="#F64E4E"/>
<path d="M4 8.14286V8.5L2.03252e-05 11L0 10.4286L3.2 8.14286H4Z" fill="#F64E4E"/>
<path d="M4.57143 6.42857H0V7.57143H4.57143V11H5.71429V7.57143H10.2857V6.42857H5.71429V3H4.57143V6.42857Z" fill="#F64E4E"/>
<path fill-rule="evenodd" clip-rule="evenodd" d="M14.8571 12C14.8571 11.134 14.8571 10.1223 14.8571 9.33297C14.8571 8.59659 15.4541 8 16.1904 8H19.2381C19.9744 8 20.5714 8.59659 20.5714 9.33297C20.5714 10.1223 20.5714 11.134 20.5714 12C20.5714 14.8571 17.7143 16 17.7143 16C17.7143 16 14.8571 14.8571 14.8571 12Z" fill="#8FC5FF"/>
<path d="M20.501 12.7579C20.0615 15.0611 17.7143 16 17.7143 16C17.7143 16 17.0499 15.7342 16.3618 15.1386L17.2198 13.6144C17.2198 13.6144 17.7918 12.8738 18.1283 12.8738C18.2785 12.8738 18.3739 12.9718 18.4796 13.0803C18.6107 13.2149 18.7574 13.3656 19.0438 13.3656C19.3049 13.3656 19.5037 13.1659 19.7007 12.9682C19.894 12.7741 20.0855 12.5818 20.3323 12.5818C20.412 12.5818 20.4662 12.6475 20.501 12.7579Z" fill="#366CC9"/>
<path d="M16.1755 14.9694C15.6614 14.4788 15.1665 13.8003 14.9591 12.9071L15.5367 12.4725L16.0411 12L16.5368 13.2135L17.2022 12L17.7744 15.4589L16.8228 15.2653L16.1755 14.9694Z" fill="#CF6200"/>
<path d="M20.5714 11.4286V9.33297C20.5714 8.59659 19.9744 8 19.2381 8H16.1904C15.4541 8 14.8571 8.59659 14.8571 9.33297V11.4286H20.5714Z" fill="#FFFF00"/>
<path d="M15.1905 12V11.9184V11.8773V11.836V11.7529V11.6692V11.5848V11.5424V11.4999V11.4573V11.4146V11.3718V11.3289V11.286V11.2429V11.2322V11.2268V11.2214V11.1998V11.1567V11.1135V11.0703V11.027V10.9837V10.9404V10.9188V10.9134V10.9079V10.9025V10.8971V10.8917V10.8863V10.8809V10.8755V10.8701V10.8646V10.8592V10.8538V10.8484V10.843V10.8376V10.8322V10.8268V10.8214V10.816V10.8105V10.8051V10.7997V10.7943V10.7889V10.7835V10.7781V10.7727V10.7673V10.7619V10.7565V10.7511V10.7457V10.7403V10.7349V10.7295V10.7241V10.7187V10.7133V10.7079V10.7025V10.6971V10.6917V10.6863V10.6809V10.6755V10.6701V10.6647V10.6593V10.6539V10.6485V10.6431V10.6377V10.6324V10.627V10.6216V10.6162V10.6108V10.6054V10.6V10.5947V10.5893V10.5839V10.5785V10.5731V10.5678V10.5624V10.557V10.5516V10.5463V10.5409V10.5355V10.5302V10.5248V10.5194V10.5141V10.5087V10.5033V10.498V10.4926V10.4873V10.4819V10.4765V10.4712V10.4658V10.4605V10.4551V10.4498V10.4444V10.4391V10.4337V10.4284V10.4231V10.4177V10.4124V10.4071V10.4017V10.3964V10.391V10.3857V10.3804V10.3751V10.3697V10.3644V10.3591V10.3538V10.3485V10.3431V10.3378V10.3325V10.3272V10.3219V10.3166V10.3113V10.306V10.3007V10.2954V10.2901V10.2848V10.2795V10.2742V10.2689V10.2636V10.2583V10.253V10.2478V10.2425V10.2372V10.2319V10.2267V10.2214V10.2161V10.2108V10.2056V10.2003V10.1898V10.1688V10.1269V10.0851V10.0799V10.0747V10.0643V10.0435V10.0021V9.96091V9.91987V9.87903V9.79799V9.71785V9.63867V9.56053V9.48349V9.40761V9.33297C15.1905 8.78081 15.638 8.33333 16.1904 8.33333H19.2381C19.7905 8.33333 20.2381 8.78081 20.2381 9.33297V9.3376V9.34223V9.34687V9.35151V9.35616V9.36081V9.36547V9.37013V9.3748V9.37947V9.38415V9.38883V9.39352V9.39821V9.40291V9.40761V9.41232V9.41703V9.42175V9.42647V9.43119V9.43592V9.44066V9.4454V9.45014V9.45489V9.45965V9.46441V9.46917V9.47394V9.47871V9.48349V9.48827V9.49305V9.49784V9.50264V9.50744V9.51224V9.51705V9.52187V9.52668V9.5315V9.53633V9.54116V9.546V9.55084V9.55568V9.56053V9.56538V9.57024V9.5751V9.57996V9.58483V9.58971V9.59458V9.59947V9.60435V9.60924V9.61414V9.61904V9.62394V9.62885V9.63376V9.63867V9.64359V9.64851V9.65344V9.65837V9.66331V9.66825V9.67319V9.67814V9.68309V9.68804V9.693V9.69796V9.70293V9.7079V9.71287V9.71785V9.72283V9.72782V9.7328V9.7378V9.74279V9.74779V9.7528V9.7578V9.76282V9.76783V9.77285V9.77787V9.7829V9.78792V9.79296V9.79799V9.80303V9.80808V9.81312V9.81817V9.82322V9.82828V9.83334V9.83841V9.84347V9.84854V9.85362V9.85869V9.86377V9.86886V9.87394V9.87904V9.88413V9.88923V9.89433V9.89943V9.90453V9.90964V9.91476V9.91987V9.92499V9.93011V9.93524V9.94037V9.9455V9.95063V9.95577V9.96091V9.96605V9.9712V9.97635V9.9815V9.98665V9.99181V9.99697V10.0021V10.0073V10.0125V10.0176V10.0228V10.028V10.0332V10.0384V10.0435V10.0487V10.0539V10.0591V10.0643V10.0695V10.0747V10.0799V10.0851V10.0903V10.0956V10.1008V10.106V10.1112V10.1164V10.1217V10.1269V10.1321V10.1373V10.1426V10.1478V10.1531V10.1583V10.1635V10.1688V10.174V10.1793V10.1845V10.1898V10.1951V10.2003V10.2056V10.2108V10.2161V10.2214V10.2267V10.2319V10.2372V10.2425V10.2478V10.253V10.2583V10.2636V10.2689V10.2742V10.2795V10.2848V10.2901V10.2954V10.3007V10.306V10.3113V10.3166V10.3219V10.3272V10.3325V10.3378V10.3431V10.3485V10.3538V10.3591V10.3644V10.3697V10.3751V10.3804V10.3857V10.391V10.3964V10.4017V10.4071V10.4124V10.4177V10.4231V10.4284V10.4337V10.4391V10.4444V10.4498V10.4551V10.4605V10.4658V10.4712V10.4765V10.4819V10.4873V10.4926V10.498V10.5033V10.5087V10.5141V10.5194V10.5248V10.5302V10.5355V10.5409V10.5463V10.5516V10.557V10.5624V10.5678V10.5731V10.5785V10.5839V10.5893V10.5947V10.6V10.6054V10.6108V10.6162V10.6216V10.627V10.6324V10.6377V10.6431V10.6485V10.6539V10.6593V10.6647V10.6701V10.6755V10.6809V10.6863V10.6917V10.6971V10.7025V10.7079V10.7133V10.7187V10.7241V10.7295V10.7349V10.7403V10.7457V10.7511V10.7565V10.7619V10.7673V10.7727V10.7781V10.7835V10.7889V10.7943V10.7997V10.8051V10.8105V10.816V10.8214V10.8268V10.8322V10.8376V10.843V10.8484V10.8538V10.8592V10.8646V10.8701V10.8755V10.8809V10.8863V10.8917V10.8971V10.9025V10.9079V10.9134V10.9188V10.9242V10.9296V10.935V10.9404V10.9458V10.9512V10.9566V10.9621V10.9675V10.9729V10.9783V10.9837V10.9891V10.9945V10.9999V11.0053V11.0108V11.0162V11.0216V11.027V11.0324V11.0378V11.0432V11.0486V11.054V11.0594V11.0648V11.0703V11.0757V11.0811V11.0865V11.0919V11.0973V11.1027V11.1081V11.1135V11.1189V11.1243V11.1297V11.1351V11.1405V11.1459V11.1513V11.1567V11.1621V11.1675V11.1729V11.1783V11.1837V11.1891V11.1944V11.1998V11.2052V11.2106V11.216V11.2214V11.2268V11.2322V11.2376V11.2429V11.2483V11.2537V11.2591V11.2645V11.2698V11.2752V11.2806V11.286V11.2914V11.2967V11.3021V11.3075V11.3128V11.3182V11.3236V11.3289V11.3343V11.3397V11.345V11.3504V11.3558V11.3611V11.3665V11.3718V11.3772V11.3825V11.3879V11.3932V11.3986V11.4039V11.4093V11.4146V11.42V11.4253V11.4307V11.436V11.4413V11.4467V11.452V11.4573V11.4627V11.468V11.4733V11.4787V11.484V11.4893V11.4946V11.4999V11.5053V11.5106V11.5159V11.5212V11.5265V11.5318V11.5371V11.5424V11.5477V11.553V11.5583V11.5636V11.5689V11.5742V11.5795V11.5848V11.5901V11.5954V11.6007V11.6059V11.6112V11.6165V11.6218V11.627V11.6323V11.6376V11.6429V11.6481V11.6534V11.6586V11.6639V11.6692V11.6744V11.6797V11.6849V11.6901V11.6954V11.7006V11.7059V11.7111V11.7163V11.7216V11.7268V11.732V11.7373V11.7425V11.7477V11.7529V11.7581V11.7633V11.7685V11.7737V11.779V11.7842V11.7894V11.7945V11.7997V11.8049V11.8101V11.8153V11.8205V11.8257V11.8308V11.836V11.8412V11.8464V11.8515V11.8567V11.8618V11.867V11.8722V11.8773V11.8824V11.8876V11.8927V11.8979V11.903V11.9081V11.9133V11.9184V11.9235V11.9286V11.9338V11.9389V11.944V11.9491V11.9542V11.9593V11.9644V11.9695V11.9746V11.9797V11.9848V11.9898V11.9949V12C20.2381 13.3046 19.5893 14.2212 18.9198 14.8237C18.5849 15.1252 18.2487 15.3438 17.9964 15.4868C17.8814 15.5519 17.7846 15.6009 17.7143 15.6346C17.6439 15.6009 17.5471 15.5519 17.4322 15.4868C17.1798 15.3438 16.8437 15.1252 16.5087 14.8237C15.8392 14.2212 15.1905 13.3046 15.1905 12Z" stroke="white" stroke-width="0.666667"/>
</svg>
