<svg width="24" height="24" viewBox="0 0 24 24" fill="none" xmlns="http://www.w3.org/2000/svg">
<path d="M2 3C0.895431 3 0 3.89543 0 5V15L23.2001 3.39994C22.8658 3.14881 22.4503 3 22 3H2Z" fill="#1EC160"/>
<path d="M2 21H22C23.1046 21 24 20.1046 24 19V9L0.799881 20.6001C1.13417 20.8512 1.5497 21 2 21Z" fill="#DF2A40"/>
<path d="M16.0122 3L0 13.5058V19C0 20.1046 0.89543 21 2 21H7.98783L24 10.4942V5C24 3.89543 23.1046 3 22 3H16.0122Z" fill="#FFD956"/>
<path d="M20.3256 3L0 16.3359V19C0 20.1046 0.89543 21 2 21H3.67465L24 7.66428V5C24 3.89543 23.1046 3 22 3H20.3256Z" fill="#262626"/>
<path fill-rule="evenodd" clip-rule="evenodd" d="M17.4081 10.0176L16.5977 11.3652L16.0719 9.87014L14.6009 9.47735L15.7926 8.49028L15.6938 6.8999L16.9561 7.78494L18.3661 7.19482L17.9545 8.72887L18.9247 9.95453L17.4081 10.0176Z" fill="white"/>
<path fill-rule="evenodd" clip-rule="evenodd" d="M8.2652 15.8376L7.45485 17.1852L6.92905 15.6901L5.45801 15.2973L6.64972 14.3103L6.55092 12.7199L7.81323 13.6049L9.22322 13.0148L8.81166 14.5489L9.78188 15.7745L8.2652 15.8376Z" fill="white"/>
</svg>
