<svg width="24" height="24" viewBox="0 0 24 24" fill="none" xmlns="http://www.w3.org/2000/svg">
<rect y="3" width="24" height="18" rx="2" fill="#E31F37"/>
<path fill-rule="evenodd" clip-rule="evenodd" d="M0 13H13V3H2C0.89543 3 0 3.89543 0 5V13Z" fill="#083B9A"/>
<path d="M6.09384 5.37955L5.28571 5.61624L5.52241 4.80812L5.28571 4L6.09384 4.23669L6.90196 4L6.66526 4.80812L6.90196 5.61624L6.09384 5.37955Z" fill="white"/>
<path d="M6.09384 11.0938L5.28571 11.3305L5.52241 10.5224L5.28571 9.71429L6.09384 9.95098L6.90196 9.71429L6.66526 10.5224L6.90196 11.3305L6.09384 11.0938Z" fill="white"/>
<path d="M3 8.47339L3.80812 8.23669L4.61624 8.47339L4.37955 7.66526L4.61624 6.85714L3.80812 7.09384L3 6.85714L3.23669 7.66526L3 8.47339Z" fill="white"/>
<path d="M8.95098 7.66526L8.14286 7.90196L8.37955 7.09384L8.14286 6.28571L8.95098 6.52241L9.7591 6.28571L9.52241 7.09384L9.7591 7.90196L8.95098 7.66526Z" fill="white"/>
<path d="M7.80812 9.09384C7.80812 9.25163 7.6802 9.37955 7.52241 9.37955C7.36461 9.37955 7.23669 9.25163 7.23669 9.09384C7.23669 8.93604 7.36461 8.80812 7.52241 8.80812C7.6802 8.80812 7.80812 8.93604 7.80812 9.09384Z" fill="white"/>
</svg>
