<svg width="24" height="24" viewBox="0 0 24 24" fill="none" xmlns="http://www.w3.org/2000/svg">
<rect y="3" width="24" height="18" rx="2" fill="white"/>
<path fill-rule="evenodd" clip-rule="evenodd" d="M22 4H2C1.44772 4 1 4.44772 1 5V19C1 19.5523 1.44772 20 2 20H22C22.5523 20 23 19.5523 23 19V5C23 4.44771 22.5523 4 22 4ZM2 3C0.895431 3 0 3.89543 0 5V19C0 20.1046 0.89543 21 2 21H22C23.1046 21 24 20.1046 24 19V5C24 3.89543 23.1046 3 22 3H2Z" fill="#D6D8DE"/>
<path fill-rule="evenodd" clip-rule="evenodd" d="M0 19C0 20.1046 0.895431 21 2 21H22C23.1046 21 24 20.1046 24 19V12H0V19Z" fill="#7CCCF5"/>
<path fill-rule="evenodd" clip-rule="evenodd" d="M14.4511 10.7827C14.7461 10.8583 14.9524 11.1241 14.9524 11.4286C14.9524 12.475 14.4075 13.3937 13.5891 13.9172C13.3325 14.0813 12.9973 14.0506 12.7747 13.8426C12.5522 13.6347 12.4989 13.3023 12.6452 13.0352L13.7011 11.1082C13.8474 10.8412 14.1561 10.7072 14.4511 10.7827ZM9.542 10.7846C9.83358 10.7065 10.1412 10.8342 10.2919 11.0957L11.4321 13.0741C11.5829 13.3357 11.5391 13.6659 11.3253 13.8791C11.1115 14.0922 10.7811 14.1351 10.52 13.9836C9.6411 13.4737 9.04764 12.5208 9.04764 11.4286C9.04764 11.1267 9.25043 10.8626 9.542 10.7846Z" fill="#445F42"/>
<path fill-rule="evenodd" clip-rule="evenodd" d="M12 12.5714C12.6312 12.5714 13.1429 11.8039 13.1429 10.8571C13.1429 9.91033 12.6312 9.14282 12 9.14282C11.3688 9.14282 10.8571 9.91033 10.8571 10.8571C10.8571 11.8039 11.3688 12.5714 12 12.5714Z" fill="#D89F3D"/>
</svg>
