<svg width="24" height="24" viewBox="0 0 24 24" fill="none" xmlns="http://www.w3.org/2000/svg">
<path fill-rule="evenodd" clip-rule="evenodd" d="M22 4H2C1.44772 4 1 4.44772 1 5V19C1 19.5523 1.44772 20 2 20H22C22.5523 20 23 19.5523 23 19V5C23 4.44771 22.5523 4 22 4ZM2 3C0.895431 3 0 3.89543 0 5V19C0 20.1046 0.89543 21 2 21H22C23.1046 21 24 20.1046 24 19V5C24 3.89543 23.1046 3 22 3H2Z" fill="#D6D8DE"/>
<path fill-rule="evenodd" clip-rule="evenodd" d="M0 19C0 20.1046 0.895431 21 2 21H22C23.1046 21 24 20.1046 24 19V5C24 3.89543 23.1046 3 22 3H2C0.89543 3 0 3.89543 0 5V19Z" fill="#2ACB41"/>
<path fill-rule="evenodd" clip-rule="evenodd" d="M0 15H24V9H0V15Z" fill="#FDD043"/>
<path d="M0.672309 3.50427C0.259869 3.87063 0 4.40499 0 5.00004V19C0 19.5951 0.259869 20.1294 0.672309 20.4958L9 12L0.672309 3.50427Z" fill="#E6223A"/>
<path fill-rule="evenodd" clip-rule="evenodd" d="M12.5714 12.9371L11.2279 13.8491L11.6802 12.2895L10.3976 11.2936L12.0206 11.2418L12.5714 9.71423L13.1223 11.2418L14.7453 11.2936L13.4627 12.2895L13.9149 13.8491L12.5714 12.9371Z" fill="#262626"/>
<path fill-rule="evenodd" clip-rule="evenodd" d="M18.2857 12.9371L16.9422 13.8491L17.3944 12.2895L16.1119 11.2936L17.7349 11.2418L18.2857 9.71423L18.8365 11.2418L20.4595 11.2936L19.177 12.2895L19.6292 13.8491L18.2857 12.9371Z" fill="#262626"/>
</svg>
