<svg width="24" height="24" viewBox="0 0 24 24" fill="none" xmlns="http://www.w3.org/2000/svg">
<rect y="3" width="24" height="18" rx="2" fill="white"/>
<path fill-rule="evenodd" clip-rule="evenodd" d="M2 3C0.895431 3 0 3.89543 0 5V19C0 20.1046 0.89543 21 2 21H22C23.1046 21 24 20.1046 24 19V5C24 3.89543 23.1046 3 22 3H2ZM6.09763 10.1881C6.03512 10.2506 6 10.3354 6 10.4238V11.1429C6 11.3007 6.12792 11.4286 6.28571 11.4286C6.44351 11.4286 6.57143 11.3007 6.57143 11.1429V10.5714C6.57143 10.4136 6.69935 10.2857 6.85714 10.2857C7.01494 10.2857 7.14286 10.4136 7.14286 10.5714V11.1429C7.14286 11.3007 7.27078 11.4286 7.42857 11.4286C7.58637 11.4286 7.71429 11.3007 7.71429 11.1429V10.0476C7.71429 9.86352 7.86352 9.71429 8.04762 9.71429H8.57143C8.72922 9.71429 8.85714 9.8422 8.85714 10C8.85714 10.1578 8.72922 10.2857 8.57143 10.2857C8.41363 10.2857 8.28571 10.4136 8.28571 10.5714V11.0952C8.28571 11.2793 8.43495 11.4286 8.61905 11.4286H9.09524C9.27933 11.4286 9.42857 11.2793 9.42857 11.0952V9.47619C9.42857 9.2921 9.27933 9.14286 9.09524 9.14286H8.57143C8.41363 9.14286 8.28571 9.01494 8.28571 8.85714C8.28571 8.69935 8.41363 8.57143 8.57143 8.57143H9.14286C9.30065 8.57143 9.42857 8.44351 9.42857 8.28571C9.42857 8.12792 9.30065 8 9.14286 8H7.87697C7.77727 8 7.68612 8.05633 7.64153 8.14551L7.55635 8.31588C7.45334 8.52188 7.14286 8.44859 7.14286 8.21827C7.14286 8.09772 7.04514 8 6.92459 8H6.33333C6.14924 8 6 8.14924 6 8.33333V9.00479C6 9.09319 6.03512 9.17798 6.09763 9.24049L6.33573 9.47858C6.4659 9.60876 6.4659 9.81981 6.33573 9.94999L6.09763 10.1881ZM15.1429 13.7143H6L6.9476 14.6619C7.07262 14.7869 7.24219 14.8571 7.419 14.8571H15.1429V15.3333C15.1429 15.7015 15.4413 16 15.8095 16H17.2381C17.9745 16 18.5714 15.4031 18.5714 14.6667V14.381C18.5714 14.0128 18.273 13.7143 17.9048 13.7143H16.2857V12.5714L16.1077 12.4824C15.6644 12.2608 15.1429 12.5831 15.1429 13.0787V13.7143ZM15.1429 10.4238C15.1429 10.3354 15.178 10.2506 15.2405 10.1881L15.4786 9.94999C15.6088 9.81981 15.6088 9.60876 15.4786 9.47858L15.2405 9.24049C15.178 9.17798 15.1429 9.09319 15.1429 9.00479V8.33333C15.1429 8.14924 15.2921 8 15.4762 8H16.0675C16.188 8 16.2857 8.09772 16.2857 8.21827C16.2857 8.44859 16.5962 8.52188 16.6992 8.31588L16.7844 8.14551C16.829 8.05633 16.9201 8 17.0198 8H18.2857C18.4435 8 18.5714 8.12792 18.5714 8.28571C18.5714 8.44351 18.4435 8.57143 18.2857 8.57143H17.7143C17.5565 8.57143 17.4286 8.69935 17.4286 8.85714C17.4286 9.01494 17.5565 9.14286 17.7143 9.14286H18.2381C18.4222 9.14286 18.5714 9.2921 18.5714 9.47619V11.0952C18.5714 11.2793 18.4222 11.4286 18.2381 11.4286H17.7619C17.5778 11.4286 17.4286 11.2793 17.4286 11.0952V10.5714C17.4286 10.4136 17.5565 10.2857 17.7143 10.2857C17.8721 10.2857 18 10.1578 18 10C18 9.8422 17.8721 9.71429 17.7143 9.71429H17.1905C17.0064 9.71429 16.8572 9.86352 16.8572 10.0476V11.1429C16.8572 11.3007 16.7292 11.4286 16.5714 11.4286C16.4137 11.4286 16.2857 11.3007 16.2857 11.1429V10.5714C16.2857 10.4136 16.1578 10.2857 16 10.2857C15.8422 10.2857 15.7143 10.4136 15.7143 10.5714V11.1429C15.7143 11.3007 15.5864 11.4286 15.4286 11.4286C15.2708 11.4286 15.1429 11.3007 15.1429 11.1429V10.4238ZM13.7937 9.34916C13.9107 9.23214 14 9.01374 14 8.85447V8.28839C14 8.12231 13.8721 8 13.7143 8C13.5611 8 13.4286 8.12912 13.4286 8.28839V8.85447C13.4286 9.02055 13.3007 9.14286 13.1429 9.14286C12.9897 9.14286 12.8572 9.01374 12.8572 8.85447V8.28839C12.8572 8.12231 12.7292 8 12.5714 8C12.4183 8 12.2857 8.12674 12.2857 8.28308V9.43121C12.2857 9.57977 12.1566 9.71429 11.9973 9.71429H11.4313C11.2652 9.71429 11.1429 9.58637 11.1429 9.42857C11.1429 9.27539 11.2708 9.14286 11.4286 9.14286C11.5818 9.14286 11.7143 9.01374 11.7143 8.85447V8.28839C11.7143 8.12231 11.5852 8 11.4259 8H10.8598C10.6937 8 10.5714 8.12548 10.5714 8.28027V10.0054C10.5714 10.1628 10.7006 10.2857 10.8598 10.2857H11.4259C11.592 10.2857 11.7143 10.4136 11.7143 10.5714C11.7143 10.7246 11.5852 10.8571 11.4259 10.8571H10.8598C10.6937 10.8571 10.5714 10.9851 10.5714 11.1429C10.5714 11.296 10.6982 11.4286 10.8545 11.4286H12.0026C12.1512 11.4286 12.3451 11.3099 12.4183 11.1635L12.7246 10.5508C12.8044 10.3912 12.8572 10.4148 12.8572 10.5741V11.1402C12.8572 11.3063 12.9863 11.4286 13.1455 11.4286H13.7116C13.8777 11.4286 14 11.2995 14 11.1402V10.5741C14 10.408 13.9076 10.1934 13.7937 10.0794L13.6349 9.92058C13.5179 9.80357 13.5209 9.62192 13.6349 9.50799L13.7937 9.34916Z" fill="#128C4B"/>
</svg>
