<svg xmlns="http://www.w3.org/2000/svg" viewBox="0 0 24 24">
  <path fill-rule="evenodd" d="M13.495 4.3H7A1.7 1.7 0 0 0 5.3 6v5.35h13.4V9.297c0-.1-.009-.2-.026-.298h-2.721a1.95 1.95 0 0 1-1.95-1.95V4.378a1.7 1.7 0 0 0-.508-.078Zm1.808 1.067v1.682c0 .36.29.65.65.65h1.83l-2.48-2.332ZM20 11.35V9.297a3 3 0 0 0-.945-2.185L15.55 3.815A3 3 0 0 0 13.495 3H7a3 3 0 0 0-3 3v5.35H2.61a.65.65 0 1 0 0 1.3h18.78a.65.65 0 0 0 0-1.3H20ZM4.65 13.944a.65.65 0 0 1 .65.65V18A1.7 1.7 0 0 0 7 19.7h10a1.7 1.7 0 0 0 1.7-1.7v-3.406a.65.65 0 0 1 1.3 0V18a3 3 0 0 1-3 3H7a3 3 0 0 1-3-3v-3.406a.65.65 0 0 1 .65-.65Z"/>
</svg>
