<svg xmlns="http://www.w3.org/2000/svg" viewBox="0 0 24 24">
  <defs/>
  <path fill-rule="evenodd" d="M17.576 2.436a1.187 1.187 0 011.679 0l2.194 2.195a1.187 1.187 0 010 1.678l-2.194 2.195a1.187 1.187 0 01-1.679 0L15.382 6.31a1.187 1.187 0 010-1.678l2.194-2.195zm2.878 3.028L18.42 3.432l-2.037 2.037 2.032 2.033 2.038-2.038zM3.503 2.47a1.3 1.3 0 00-1.3 1.3v3.4a1.3 1.3 0 001.3 1.3h3.4a1.3 1.3 0 001.3-1.3v-3.4a1.3 1.3 0 00-1.3-1.3h-3.4zm0 1.302h3.402v3.396H3.504V3.772z"/>
  <path d="M18.416 10.148a.65.65 0 01.65.65v2.963a.65.65 0 11-1.3 0v-2.963a.65.65 0 01.65-.65z"/>
  <path fill-rule="evenodd" d="M18.416 15.716a3 3 0 100 6 3 3 0 000-6zm0 4.694a1.698 1.698 0 100-3.396 1.698 1.698 0 000 3.396z"/>
  <path d="M10.154 4.82a.65.65 0 000 1.3h2.93a.65.65 0 100-1.3h-2.93zM10.024 16.585l1.513 1.462-3.328.001a2.35 2.35 0 01-2.35-2.35v-5.277a.65.65 0 10-1.3 0v5.277a3.65 3.65 0 003.65 3.65h3.327l-1.504 1.454a.65.65 0 00.919.919l2.968-2.564a.65.65 0 000-.92l-2.976-2.57a.65.65 0 10-.919.918z"/>
</svg>
