<svg width="24" height="24" viewBox="0 0 24 24" fill="none" xmlns="http://www.w3.org/2000/svg">
<path fill-rule="evenodd" clip-rule="evenodd" d="M0 19C0 20.1046 0.895431 21 2 21H8V3H2C0.89543 3 0 3.89543 0 5V19Z" fill="#17A052"/>
<path fill-rule="evenodd" clip-rule="evenodd" d="M16 21H22C23.1046 21 24 20.1046 24 19V5C24 3.89543 23.1046 3 22 3H16V21Z" fill="#F13642"/>
<path fill-rule="evenodd" clip-rule="evenodd" d="M8 21H16V3H8V21Z" fill="#FFF166"/>
<path fill-rule="evenodd" clip-rule="evenodd" d="M11.8571 13.0286L10.1778 14.1686L10.743 12.2191L9.13984 10.9742L11.1686 10.9094L11.8571 9L12.5457 10.9094L14.5744 10.9742L12.9712 12.2191L13.5365 14.1686L11.8571 13.0286Z" fill="#17A052"/>
</svg>
