<svg width="24" height="24" viewBox="0 0 24 24" fill="none" xmlns="http://www.w3.org/2000/svg">
<rect y="3" width="24" height="18" rx="2" fill="white"/>
<path fill-rule="evenodd" clip-rule="evenodd" d="M2 20L22 20C22.5523 20 23 19.5523 23 19L23 5C23 4.44772 22.5523 4 22 4L2 4C1.44772 4 1 4.44772 1 5L1 19C1 19.5523 1.44772 20 2 20ZM22 21C23.1046 21 24 20.1046 24 19L24 5C24 3.89543 23.1046 3 22 3L2 3C0.895432 3 0 3.89543 0 5L0 19C0 20.1046 0.89543 21 2 21L22 21Z" fill="#D6D8DE"/>
<path d="M0 9L24 9V5C24 3.89543 23.1046 3 22 3L2 3C0.895432 3 0 3.89543 0 5V9Z" fill="#E1444D"/>
<path d="M0 15L24 15V9L0 9V15Z" fill="#17508F"/>
<path d="M5 8.50012V12.8027C5 15.2502 8.19736 16.0001 8.19736 16.0001C8.19736 16.0001 11.3946 15.2501 11.3946 12.8027V8.50012H5Z" fill="#E1444D"/>
<path d="M6.32236 9.24998H10.0723V7.74998L9.32227 8.12497L8.19725 7L7.07233 8.12497L6.32236 7.74998V9.24998Z" fill="#FFDA44"/>
<path d="M10.6446 13.4017L8.20716 10.9642L5.76968 13.4017L6.5652 14.1972L8.20716 12.5552L9.84913 14.1972L10.6446 13.4017Z" fill="#FFDA44"/>
<path d="M10.6446 11.125H9.50734C9.57132 11.0146 9.60847 10.8868 9.60847 10.7501C9.60847 10.3359 9.27265 10.0001 8.85849 10.0001C8.5723 10.0001 8.32375 10.1604 8.19731 10.3961C8.07086 10.1605 7.82227 10.0001 7.53612 10.0001C7.12197 10.0001 6.78615 10.3359 6.78615 10.7501C6.78615 10.8869 6.82334 11.0147 6.88727 11.125H5.76968C5.76968 11.5392 6.13047 11.875 6.54463 11.875H6.51966C6.51966 12.2892 6.85543 12.6249 7.26964 12.6249C7.26964 12.9917 7.53299 13.2964 7.88084 13.3616L7.28985 14.6958C7.57302 14.8109 7.88251 14.8749 8.20706 14.8749C8.53161 14.8749 8.84105 14.8109 9.12427 14.6958L8.53328 13.3616C8.88113 13.2964 9.14448 12.9917 9.14448 12.6249C9.55869 12.6249 9.89446 12.2892 9.89446 11.875H9.86949C10.2839 11.875 10.6446 11.5392 10.6446 11.125Z" fill="white"/>
</svg>
