<svg xmlns="http://www.w3.org/2000/svg" viewBox="0 0 24 24">
  <defs/>
  <path fill-rule="evenodd" d="M4 6.998A3.005 3.005 0 017.019 4h9.962C18.641 4 20 5.34 20 6.998v10.004A3.005 3.005 0 0116.981 20H7.02A3.005 3.005 0 014 17.002V6.998zm14.692 0v.529a3.019 3.019 0 00-1.71-.529H7.018c-.636 0-1.225.194-1.71.526v-.526c0-.94.764-1.699 1.71-1.699h9.962c.946 0 1.71.76 1.71 1.7zM5.308 10.706v-.71c0-.94.765-1.699 1.71-1.699h9.963c.946 0 1.71.76 1.71 1.7v.709h-3.59a.652.652 0 00-.655.65v.483a1.87 1.87 0 01-1.877 1.865h-1.038a1.87 1.87 0 01-1.877-1.865v-.484a.652.652 0 00-.654-.65H5.308zm0 1.299v4.997c0 .94.765 1.699 1.71 1.699h9.963c.946 0 1.71-.76 1.71-1.7v-4.996h-2.94a3.176 3.176 0 01-3.154 2.998H11.51a3.176 3.176 0 01-3.16-2.998H5.307z"/>
</svg>
