<svg xmlns="http://www.w3.org/2000/svg" viewBox="0 0 24 24">
  <defs/>
  <path fill-rule="evenodd" d="M2.35 4A.65.65 0 013 3.35h.938A2.65 2.65 0 016.51 5.357l.498 1.993H20a.65.65 0 01.62.844L18.56 14.79a2.65 2.65 0 01-2.53 1.86h-5.967a2.65 2.65 0 01-2.571-2.007l-2.243-8.97a1.35 1.35 0 00-1.31-1.023H3A.65.65 0 012.35 4zm4.982 4.65l1.42 5.677a1.35 1.35 0 001.31 1.023h5.968a1.35 1.35 0 001.288-.947l1.798-5.753H7.332zM7.35 19a1.65 1.65 0 113.3 0 1.65 1.65 0 01-3.3 0zM17 17.35a1.65 1.65 0 100 3.3 1.65 1.65 0 000-3.3z"/>
</svg>
