<svg xmlns="http://www.w3.org/2000/svg" viewBox="0 0 24 24">
  <path fill-rule="evenodd" d="M16.884 19.7H9.947a1.7 1.7 0 0 1-1.7-1.7v-.288a.65.65 0 1 0-1.3 0V18a3 3 0 0 0 3 3h6.937a3 3 0 0 0 3-3V6a3 3 0 0 0-3-3H9.947a3 3 0 0 0-3 3v.35a.65.65 0 0 0 1.3 0V6a1.7 1.7 0 0 1 1.7-1.7h6.937c.224 0 .438.043.633.122l-1.546.911a3 3 0 0 0-1.477 2.585v8.123a3 3 0 0 0 1.45 2.569l1.592.96c-.2.084-.42.13-.652.13Zm1.58-14.328c.078.195.12.406.12.628v12c0 .217-.04.424-.114.615l-1.854-1.118a1.7 1.7 0 0 1-.822-1.456V7.918a1.7 1.7 0 0 1 .837-1.465l1.834-1.08Z"/>
  <path d="M7.94 8.91a.65.65 0 0 1 .919-.042l2.775 2.527a.65.65 0 0 1 .158.742.647.647 0 0 1-.176.296l-2.708 2.6a.65.65 0 1 1-.9-.937l1.545-1.484H4.65a.65.65 0 1 1 0-1.3h4.962L7.983 9.829a.65.65 0 0 1-.043-.919Z"/>
</svg>
