<svg xmlns="http://www.w3.org/2000/svg" viewBox="0 0 24 24">
  <path d="m9.513 12.703-1.02-2.399-1.015 2.399h2.035Zm6.193-2.525a.915.915 0 0 0-.053 1.826h.107a.915.915 0 0 0-.054-1.826Z"/>
  <path fill-rule="evenodd" d="M5 5.005a3 3 0 0 0-3 3v7.99a3 3 0 0 0 3 3h14a3 3 0 0 0 3-3v-7.99a3 3 0 0 0-3-3H5Zm4.09 3.38a.65.65 0 0 0-1.197.001l-2.84 6.712a.65.65 0 1 0 1.198.506l.677-1.601h3.138l.681 1.603a.65.65 0 1 0 1.197-.51L9.09 8.387Zm7.108 4.866a2.216 2.216 0 0 0 1.524-3.078h.657a.65.65 0 0 0 0-1.3h-2.63a.655.655 0 0 0-.076.005 2.215 2.215 0 0 0-1.795 3.464 2.003 2.003 0 0 0 1.114 3.668h3.365a.65.65 0 1 0 0-1.3h-3.365a.703.703 0 0 1 0-1.406h.631a2.087 2.087 0 0 0 .166 0h.15a.649.649 0 0 0 .259-.053Z"/>
</svg>
