<svg width="24" height="24" viewBox="0 0 24 24" fill="none" xmlns="http://www.w3.org/2000/svg">
<rect y="3" width="24" height="18" rx="2" fill="white"/>
<path fill-rule="evenodd" clip-rule="evenodd" d="M22 4H2C1.44772 4 1 4.44772 1 5V19C1 19.5523 1.44772 20 2 20H22C22.5523 20 23 19.5523 23 19V5C23 4.44771 22.5523 4 22 4ZM2 3C0.895431 3 0 3.89543 0 5V19C0 20.1046 0.89543 21 2 21H22C23.1046 21 24 20.1046 24 19V5C24 3.89543 23.1046 3 22 3H2Z" fill="#D6D8DE"/>
<path fill-rule="evenodd" clip-rule="evenodd" d="M0 5C0 3.89543 0.895431 3 2 3H22C23.1046 3 24 3.89543 24 5V12H0V5Z" fill="#EB2A50"/>
<path d="M5.71431 10.8571C6.5244 10.8571 7.26888 10.5762 7.85561 10.1064C7.5448 10.2223 7.20838 10.2857 6.85716 10.2857C5.27921 10.2857 4.00002 9.00653 4.00002 7.42857C4.00002 5.85062 5.27921 4.57143 6.85716 4.57143C7.20838 4.57143 7.5448 4.6348 7.85561 4.75074C7.26888 4.28095 6.5244 4 5.71431 4C3.82076 4 2.28574 5.53502 2.28574 7.42857C2.28574 9.32212 3.82076 10.8571 5.71431 10.8571Z" fill="white"/>
<path d="M6.85716 6.85714C6.85716 7.17273 6.60133 7.42857 6.28574 7.42857C5.97014 7.42857 5.71431 7.17273 5.71431 6.85714C5.71431 6.54155 5.97014 6.28571 6.28574 6.28571C6.60133 6.28571 6.85716 6.54155 6.85716 6.85714Z" fill="white"/>
<path d="M7.42859 9.71429C7.74418 9.71429 8.00002 9.45845 8.00002 9.14286C8.00002 8.82727 7.74418 8.57143 7.42859 8.57143C7.113 8.57143 6.85716 8.82727 6.85716 9.14286C6.85716 9.45845 7.113 9.71429 7.42859 9.71429Z" fill="white"/>
<path d="M10.2857 9.14286C10.2857 9.45845 10.0299 9.71429 9.71431 9.71429C9.39872 9.71429 9.14288 9.45845 9.14288 9.14286C9.14288 8.82727 9.39872 8.57143 9.71431 8.57143C10.0299 8.57143 10.2857 8.82727 10.2857 9.14286Z" fill="white"/>
<path d="M10.8572 7.42857C11.1728 7.42857 11.4286 7.17273 11.4286 6.85714C11.4286 6.54155 11.1728 6.28571 10.8572 6.28571C10.5416 6.28571 10.2857 6.54155 10.2857 6.85714C10.2857 7.17273 10.5416 7.42857 10.8572 7.42857Z" fill="white"/>
<path d="M9.14288 5.14286C9.14288 5.45845 8.88704 5.71429 8.57145 5.71429C8.25586 5.71429 8.00002 5.45845 8.00002 5.14286C8.00002 4.82727 8.25586 4.57143 8.57145 4.57143C8.88704 4.57143 9.14288 4.82727 9.14288 5.14286Z" fill="white"/>
</svg>
