<svg xmlns="http://www.w3.org/2000/svg" viewBox="0 0 24 24">
  <defs/>
  <path fill-rule="evenodd" d="M5.05 2h14a3 3 0 013 3v14a3 3 0 01-3 3h-14a3 3 0 01-3-3V5a3 3 0 013-3zm.697 5.948a.65.65 0 00-.65.65v6.804c0 .36.29.65.65.65H7.02a.65.65 0 00.65-.65V8.598a.65.65 0 00-.65-.65H5.747zm12.651 0a.65.65 0 01.65.65v6.804a.65.65 0 01-1.3 0V8.598a.65.65 0 01.65-.65zm-4.533.65a.65.65 0 01.65-.65h1.275a.65.65 0 01.65.65v6.804a.65.65 0 01-.65.65h-1.275a.65.65 0 01-.65-.65V8.598zm-2.61-.65a.65.65 0 01.65.65v6.804a.65.65 0 01-1.3 0V8.598a.65.65 0 01.65-.65z"/>
</svg>
