<svg width="24" height="24" viewBox="0 0 24 24" fill="none" xmlns="http://www.w3.org/2000/svg">
<rect y="3" width="24" height="18" rx="2" fill="white"/>
<path fill-rule="evenodd" clip-rule="evenodd" d="M22 4H2C1.44772 4 1 4.44772 1 5V19C1 19.5523 1.44772 20 2 20H22C22.5523 20 23 19.5523 23 19V5C23 4.44771 22.5523 4 22 4ZM2 3C0.895431 3 0 3.89543 0 5V19C0 20.1046 0.89543 21 2 21H22C23.1046 21 24 20.1046 24 19V5C24 3.89543 23.1046 3 22 3H2Z" fill="#D6D8DE"/>
<path d="M24 15H0V19C0 20.1046 0.89543 21 2 21H22C23.1046 21 24 20.1046 24 19V15Z" fill="#EE1C25"/>
<path d="M24 9H0V15H24V9Z" fill="#0B4EA2"/>
<path d="M11.8337 7H11.5823H7.99991H4.41765H4.16624L4.13996 7.25264C4.13425 7.30757 4 8.63109 4 11.5377C4 12.9034 4.4569 14.1082 5.35805 15.1187C5.98942 15.8268 6.81393 16.4228 7.87875 16.941L7.99991 17L8.1211 16.941C9.18594 16.4228 10.0105 15.8268 10.6419 15.1187C11.5431 14.1082 12 12.9034 12 11.5377C12 8.63112 11.8657 7.30757 11.86 7.25264L11.8337 7Z" fill="white"/>
<path d="M7.9999 16.6868C6.46903 15.9418 4.27924 14.463 4.27924 11.5377C4.27924 8.61243 4.41765 7.2821 4.41765 7.2821H7.9999H11.5822C11.5822 7.2821 11.7207 8.61246 11.7207 11.5377C11.7207 14.463 9.5309 15.9418 7.9999 16.6868V16.6868Z" fill="#EE1C25"/>
<path d="M8.32772 10.7708C8.74224 10.7775 9.55096 10.7939 10.2711 10.5505C10.2711 10.5505 10.2521 10.8109 10.2521 11.1141C10.2521 11.4175 10.2711 11.6778 10.2711 11.6778C9.61056 11.4545 8.79483 11.4498 8.32772 11.4558V13.0715H7.67293V11.4558C7.20582 11.4498 6.39012 11.4545 5.72955 11.6778C5.72955 11.6778 5.74857 11.4175 5.74857 11.1141C5.74857 10.8108 5.72955 10.5505 5.72955 10.5505C6.44969 10.7939 7.25841 10.7775 7.67293 10.7708V9.75606C7.29511 9.75267 6.75071 9.77089 6.13514 9.97904C6.13514 9.97904 6.15416 9.71869 6.15416 9.41533C6.15416 9.11199 6.13514 8.85164 6.13514 8.85164C6.74978 9.05942 7.29356 9.07795 7.67125 9.07466C7.65183 8.43206 7.46657 7.62219 7.46657 7.62219C7.46657 7.62219 7.84786 7.65226 8.00029 7.65226C8.15289 7.65226 8.53405 7.62219 8.53405 7.62219C8.53405 7.62219 8.34885 8.43209 8.3294 9.07459C8.70712 9.07792 9.25087 9.05939 9.86551 8.85158C9.86551 8.85158 9.84649 9.11193 9.84649 9.41526C9.84649 9.71863 9.86551 9.97898 9.86551 9.97898C9.24997 9.77085 8.70554 9.75261 8.32772 9.756V10.7707V10.7708Z" fill="white"/>
<path d="M7.99951 12.8966C7.22842 12.8966 6.81542 13.9772 6.81542 13.9772C6.81542 13.9772 6.58629 13.4648 5.95719 13.4648C5.53153 13.4648 5.21784 13.8473 5.01843 14.2015C5.79284 15.4462 7.02836 16.2143 7.99948 16.6869C8.97078 16.2143 10.2071 15.4464 10.9815 14.2015C10.7821 13.8473 10.4684 13.4648 10.0428 13.4648C9.41365 13.4648 9.18356 13.9772 9.18356 13.9772C9.18356 13.9772 8.77065 12.8966 7.99951 12.8966V12.8966Z" fill="#0B4EA2"/>
</svg>
