<svg width="24" height="24" viewBox="0 0 24 24" fill="none" xmlns="http://www.w3.org/2000/svg">
<rect y="3" width="24" height="18" rx="2" fill="white"/>
<path fill-rule="evenodd" clip-rule="evenodd" d="M22 4H2C1.44772 4 1 4.44772 1 5V19C1 19.5523 1.44772 20 2 20H22C22.5523 20 23 19.5523 23 19V5C23 4.44771 22.5523 4 22 4ZM2 3C0.895431 3 0 3.89543 0 5V19C0 20.1046 0.89543 21 2 21H22C23.1046 21 24 20.1046 24 19V5C24 3.89543 23.1046 3 22 3H2Z" fill="#D6D8DE"/>
<path d="M0 15H24V19C24 20.1046 23.1046 21 22 21H2C0.89543 21 0 20.1046 0 19V15Z" fill="#E53B35"/>
<path fill-rule="evenodd" clip-rule="evenodd" d="M0 15.0001H24V9.61545H7.92341V8.53853C7.92341 8.53853 7.11743 8.00007 6.28571 8.00007C5.454 8.00007 4.57143 8.53853 4.57143 8.53853V9.61545H0V15.0001ZM7.42857 10.6923C7.42857 11.2871 6.91689 11.7693 6.28571 11.7693C5.65453 11.7693 5.14285 11.2871 5.14285 10.6923C5.14285 10.0976 5.65453 9.61542 6.28571 9.61542C6.91689 9.61542 7.42857 10.0976 7.42857 10.6923Z" fill="#0C47B7"/>
</svg>
