<svg width="128" height="104" viewBox="0 0 128 104" fill="none" xmlns="http://www.w3.org/2000/svg">
<g clip-path="url(#clip0)">
<path d="M71.2598 50.4658C76.7885 26.5078 97.0607 13.3002 110.883 9C110.883 28.3507 93.682 55.0731 79.5529 56.916" stroke="#D8D8D8" stroke-linecap="round" stroke-linejoin="round"/>
<path d="M107.812 13.6074C100.747 27.7365 75.8679 52.9231 73.7178 59.3734" stroke="#D8D8D8" stroke-linecap="round" stroke-linejoin="round"/>
<path d="M64.1953 33.5721C39.0087 32.9578 29.794 49.5441 28.5654 51.0798C37.8824 56.6086 58.2979 67.7276 65.4239 67.9733C72.5499 68.219 88.4604 59.6802 95.525 55.38C93.4773 48.3155 84.3446 34.0635 64.1953 33.5721Z" fill="#001D6D" stroke="#001D6D"/>
<path d="M43.616 28.658C39.3158 31.32 29.1183 38.4255 22.7295 45.5514C28.0535 47.8039 38.9472 52.0017 39.9301 50.773C40.913 49.5444 44.6398 37.5654 46.3803 31.7295L43.616 28.658Z" fill="#F6F6F6" stroke="#001D6D"/>
<path d="M44.251 28.3461C44.251 25.2329 46.0299 18.1172 47.5865 17.2277C48.8318 16.5161 47.0677 23.2316 46.0299 26.3448C46.6229 24.4176 48.1202 19.8962 49.3655 19.8962C50.6107 19.8962 48.9207 23.2316 47.8089 24.7882" stroke="#001D6D"/>
<path d="M48.9209 23.8987C49.2915 23.3057 50.1662 21.4526 50.6999 21.4526C51.367 21.4526 50.6999 23.0092 50.6999 23.2316" stroke="#001D6D"/>
<path d="M79.2455 56.5392C72.7953 58.6893 69.1094 62.9894 68.4951 66.3681C68.4951 76.8114 76.4811 79.2686 79.8598 79.2686C83.2385 79.2686 89.3815 78.6543 92.4531 73.4327C95.5246 68.2111 102.282 67.1361 105.354 65.4467C108.425 63.7574 107.626 60.2865 109.347 58.075C111.067 55.8635 113.34 55.0035 115.49 54.3892C118.561 53.5116 121.878 52.1777 124.09 50.7033C126.854 48.8604 129.619 43.6388 126.854 41.4887C124.09 38.4171 117.947 39.9529 115.49 41.4887C112.342 43.4557 111.497 46.7103 108.118 47.6318C104.739 48.5532 99.2105 46.7103 95.5246 47.6318C91.8388 48.5532 90.303 51.9319 87.2315 54.3892C84.1599 56.8464 84.7435 54.7066 79.2455 56.5392Z" fill="#F6F6F6" stroke="#D8D8D8" stroke-linecap="round" stroke-linejoin="round"/>
<path d="M71.2598 73.7401C77.0957 66.0613 80.4744 65.447 83.2388 65.1398C86.0032 64.8327 93.3749 62.0683 95.8321 59.9182C98.2893 57.7681 103.511 53.468 105.968 52.5465C107.934 51.8093 115.183 49.3726 118.561 48.2463" stroke="#D8D8D8" stroke-linecap="round" stroke-linejoin="round"/>
<path d="M20.1298 42.9782C40.6486 44.3209 63.7712 57.2024 71.9865 66.0728C77.2094 71.7121 69.8501 78.6082 60.0482 76.0088C45.8716 72.2492 39.9026 66.6098 38.0372 59.8963C24.2336 59.0907 22.1389 51.303 20.1298 51.303C13.7877 51.303 8.84463 49.5516 4.4608 47.5434C0.357211 45.6636 -0.637646 44.0524 0.357202 42.9782C1.35206 41.9041 3.71473 41.9041 20.1298 42.9782Z" fill="#F6F6F6" stroke="#D8D8D8" stroke-linecap="round" stroke-linejoin="round"/>
<path d="M22.7295 46.9672C29.364 45.8457 37.4729 46.6869 44.8446 48.9299" stroke="#D8D8D8" stroke-linecap="round" stroke-linejoin="round"/>
<path d="M44.8447 59.2536C51.4793 58.1321 59.5881 58.9732 66.9598 61.2163" stroke="#D8D8D8" stroke-linecap="round" stroke-linejoin="round"/>
<path d="M55.7871 40.9441C55.7871 36.1312 59.6888 32.2295 64.5017 32.2295C69.3147 32.2295 73.2163 36.1312 73.2163 40.9441V42.1727C73.2163 46.9857 69.3147 50.8873 64.5017 50.8873C59.6888 50.8873 55.7871 46.9857 55.7871 42.1727V40.9441Z" fill="#F6F6F6" stroke="#001D6D"/>
<path d="M64.502 34.1865V44.0155" stroke="#001D6D"/>
<path d="M65.7301 47.6324C66.0499 46.3135 67.3783 45.5036 68.6972 45.8234" stroke="#001D6D"/>
<rect x="55.1738" y="13.1858" width="18.0435" height="19.8865" rx="9.02177" fill="#D8D8D8" stroke="#001D6D"/>
<path d="M61.7384 21.2861L54.6738 23.4362L55.5953 27.4292L62.3527 33.2651L68.1886 30.5008L74.6388 24.6648L72.7959 21.2861H61.7384Z" fill="#F6F6F6"/>
<rect x="59.5879" y="29.8862" width="10.4432" height="6.75739" fill="#001D6D"/>
<circle cx="53.4452" cy="33.5724" r="10.5575" fill="#6FA3FF" stroke="#001D6D"/>
<circle cx="75.5595" cy="32.9579" r="10.5575" fill="#6FA3FF" stroke="#001D6D"/>
<path d="M75.8664 16.0645L55.2871 22.822C55.2871 22.822 59.2801 21.5933 64.5017 21.5933C69.7233 21.5933 73.102 22.822 73.102 22.822L98.2887 16.0645C98.2887 16.0645 90.6098 15.143 86.0025 15.1431C83.1513 15.1431 75.8664 16.0645 75.8664 16.0645Z" fill="#D8D8D8" stroke="#001D6D" stroke-linejoin="round"/>
<path d="M1.46582 89.902H14.0499V93.945H20.7715V89.902H23.7533V84.4438H20.7715V68.0693H11.8767L1.46582 84.4438V89.902ZM14.2015 84.4438H8.38959V84.2417L13.9994 75.3469H14.2015V84.4438Z" fill="#6FA3FF"/>
<path d="M37.9704 94.6526C45.0079 94.6652 49.3794 89.624 49.3921 81.0577C49.4047 72.542 45.0079 67.7156 37.9704 67.7156C30.9203 67.7156 26.574 72.5167 26.5487 81.0577C26.5234 89.5861 30.9203 94.6399 37.9704 94.6526ZM37.9704 88.9417C35.5445 88.9417 33.801 86.5033 33.8262 81.0577C33.8515 75.7386 35.5445 73.3759 37.9704 73.3759C40.3962 73.3759 42.1019 75.7386 42.1145 81.0577C42.1272 86.5033 40.3962 88.9417 37.9704 88.9417Z" fill="#6FA3FF"/>
<path d="M52.437 89.902H65.0211V93.945H71.7427V89.902H74.7245V84.4438H71.7427V68.0693H62.8479L52.437 84.4438V89.902ZM65.1727 84.4438H59.3608V84.2417L64.9706 75.3469H65.1727V84.4438Z" fill="#6FA3FF"/>
</g>
<defs>
<clipPath id="clip0">
<rect width="128" height="104" fill="white"/>
</clipPath>
</defs>
</svg>
