<svg viewBox="0 0 79 28">
  <path
    d="m5.9916 2.4414e-4 -1.332 3.668h18.461l1.332-3.668h-18.461zm-1.998 5.5013-1.3313 3.6693h18.46l1.332-3.6693h-18.461zm-1.9953 5.5033-1.332 3.668h18.462l1.3306-3.668h-18.461z"
    clipRule="evenodd"
    fill="#0af"
    fillRule="evenodd"
  />
  <path
    d="m67.106 23.818h3.3047c1.254 0 2.0133-0.3047 2.5453-0.99 0.266-0.3427 0.646-0.952 0.646-2.0947 0-1.142-0.38-1.942-1.14-2.5127-0.4553-0.3433-1.064-0.5333-2.0893-0.5333h-3.2667v6.1307zm-4.3687 3.6933v-22.009h14.283l-1.2534 3.694h-8.6613v4.874h3.5327c2.8493 0 4.3306 0.6853 5.3566 1.5606 0.7974 0.686 2.1654 2.2087 2.1654 5.2174 0 2.97-1.406 4.6073-2.5834 5.4453-1.368 0.952-2.8113 1.218-5.736 1.218h-7.104zm-12.65 0v-18.315h-6.344v-3.694h17.627l-1.2533 3.694h-5.6227v18.315h-4.4067zm-17.588-13.213h2.4694c0.7593 0 1.1393 0 1.5193-0.114 1.026-0.3047 1.6713-1.2187 1.6713-2.4754 0-1.4846-0.6833-2.132-1.6713-2.4366-0.418-0.11466-0.836-0.15266-1.6713-0.15266h-2.3174v5.1787zm0.0374 3.808v5.788h3.0393c0.912 0 1.748-0.076 2.3553-0.6474 0.608-0.5713 0.874-1.2946 0.874-2.2466 0-0.7234-0.19-1.4087-0.57-1.904-0.646-0.7994-1.4433-0.99-2.8106-0.99h-2.888zm7.028-2.3227v0.076c0.836 0.3047 1.634 0.838 2.0513 1.1807 1.292 1.066 1.862 2.4753 1.862 4.3026 0 3.0087-1.596 5.1787-4.2167 5.8647-0.798 0.228-1.634 0.304-3.1913 0.304h-7.9393v-22.009h7.028c1.4433 0 2.4306 0.076 3.3046 0.30467 2.5454 0.68533 4.2167 2.4373 4.2167 5.2167 0 1.4853-0.5327 2.742-1.4053 3.5793-0.38 0.3814-0.912 0.838-1.71 1.1807z"
    clipRule="evenodd"
    fill="#0A2896"
    fillRule="evenodd"
  />
</svg>