<svg width="128" height="104" viewBox="0 0 128 104" fill="none" xmlns="http://www.w3.org/2000/svg">
<g clip-path="url(#clip0)">
<circle cx="41.5401" cy="55.2935" r="38.544" fill="#ECECEC" stroke="#001D6D"/>
<mask id="path-2-inside-1" fill="white">
<path fill-rule="evenodd" clip-rule="evenodd" d="M6.24872 38.5702C8.61318 37.1912 11.3633 36.4011 14.2979 36.4011H45.6918C54.5284 36.4011 61.6918 43.5646 61.6918 52.4011V82.1158C61.6918 84.9298 60.9654 87.5741 59.6898 89.8714C54.2675 92.7234 48.0922 94.3374 41.5401 94.3374C19.9767 94.3374 2.49609 76.8568 2.49609 55.2934C2.49609 49.3091 3.84243 43.6392 6.24872 38.5702Z"/>
</mask>
<path fill-rule="evenodd" clip-rule="evenodd" d="M6.24872 38.5702C8.61318 37.1912 11.3633 36.4011 14.2979 36.4011H45.6918C54.5284 36.4011 61.6918 43.5646 61.6918 52.4011V82.1158C61.6918 84.9298 60.9654 87.5741 59.6898 89.8714C54.2675 92.7234 48.0922 94.3374 41.5401 94.3374C19.9767 94.3374 2.49609 76.8568 2.49609 55.2934C2.49609 49.3091 3.84243 43.6392 6.24872 38.5702Z" fill="white"/>
<path d="M6.24872 38.5702L5.74492 37.7064L5.4779 37.8621L5.34534 38.1413L6.24872 38.5702ZM59.6898 89.8714L60.1554 90.7564L60.4193 90.6176L60.5641 90.3568L59.6898 89.8714ZM6.75252 39.434C8.9682 38.1418 11.545 37.4011 14.2979 37.4011V35.4011C11.1815 35.4011 8.25815 36.2406 5.74492 37.7064L6.75252 39.434ZM14.2979 37.4011H45.6918V35.4011H14.2979V37.4011ZM45.6918 37.4011C53.9761 37.4011 60.6918 44.1169 60.6918 52.4011H62.6918C62.6918 43.0123 55.0807 35.4011 45.6918 35.4011V37.4011ZM60.6918 52.4011V82.1158H62.6918V52.4011H60.6918ZM60.6918 82.1158C60.6918 84.7556 60.0108 87.2333 58.8156 89.386L60.5641 90.3568C61.92 87.9148 62.6918 85.1039 62.6918 82.1158H60.6918ZM59.2243 88.9863C53.9421 91.7647 47.9262 93.3374 41.5401 93.3374V95.3374C48.2583 95.3374 54.5929 93.6822 60.1554 90.7564L59.2243 88.9863ZM41.5401 93.3374C20.529 93.3374 3.49609 76.3045 3.49609 55.2934H1.49609C1.49609 77.4091 19.4244 95.3374 41.5401 95.3374V93.3374ZM3.49609 55.2934C3.49609 49.4605 4.80808 43.9369 7.1521 38.999L5.34534 38.1413C2.87677 43.3416 1.49609 49.1577 1.49609 55.2934H3.49609Z" fill="#001D6D" mask="url(#path-2-inside-1)"/>
<mask id="path-4-inside-2" fill="white">
<path fill-rule="evenodd" clip-rule="evenodd" d="M19.6551 53.5104C23.6832 48.2755 30.1497 45.9744 36.4153 46.9023L30.637 54.4117C29.2898 56.1626 29.617 58.674 31.3678 60.0212L39.6946 66.4284C41.4454 67.7756 43.9568 67.4485 45.304 65.6977L51.0825 58.188C53.5848 64.0069 53.0173 70.8472 48.9891 76.0822C44.6477 81.7243 37.474 83.9585 30.7719 82.4152L17.7888 99.2879C15.1175 102.76 10.1377 103.408 6.66611 100.737C3.19451 98.0657 2.54576 93.0859 5.21706 89.6143L18.2004 72.7412C14.9921 66.6585 15.3139 59.1522 19.6551 53.5104ZM9.48824 97.0702C10.6454 97.9607 12.3054 97.7444 13.1958 96.5872C14.0862 95.43 13.87 93.7701 12.7128 92.8797C11.5556 91.9892 9.89566 92.2055 9.00523 93.3627C8.11479 94.5199 8.33105 96.1798 9.48824 97.0702Z"/>
</mask>
<path fill-rule="evenodd" clip-rule="evenodd" d="M19.6551 53.5104C23.6832 48.2755 30.1497 45.9744 36.4153 46.9023L30.637 54.4117C29.2898 56.1626 29.617 58.674 31.3678 60.0212L39.6946 66.4284C41.4454 67.7756 43.9568 67.4485 45.304 65.6977L51.0825 58.188C53.5848 64.0069 53.0173 70.8472 48.9891 76.0822C44.6477 81.7243 37.474 83.9585 30.7719 82.4152L17.7888 99.2879C15.1175 102.76 10.1377 103.408 6.66611 100.737C3.19451 98.0657 2.54576 93.0859 5.21706 89.6143L18.2004 72.7412C14.9921 66.6585 15.3139 59.1522 19.6551 53.5104ZM9.48824 97.0702C10.6454 97.9607 12.3054 97.7444 13.1958 96.5872C14.0862 95.43 13.87 93.7701 12.7128 92.8797C11.5556 91.9892 9.89566 92.2055 9.00523 93.3627C8.11479 94.5199 8.33105 96.1798 9.48824 97.0702Z" fill="#EDF5FF"/>
<path d="M36.4153 46.9023L37.2079 47.5121L38.2463 46.1625L36.5618 45.9131L36.4153 46.9023ZM30.637 54.4117L29.8444 53.8019L30.637 54.4117ZM51.0825 58.188L52.0011 57.793L51.3284 56.2287L50.2899 57.5782L51.0825 58.188ZM30.7719 82.4152L30.9963 81.4407L30.3708 81.2967L29.9794 81.8054L30.7719 82.4152ZM17.7888 99.2879L18.5813 99.8978L17.7888 99.2879ZM18.2004 72.7412L18.993 73.3511L19.3844 72.8424L19.085 72.2747L18.2004 72.7412ZM36.5618 45.9131C29.965 44.9361 23.1282 47.357 18.8625 52.9006L20.4476 54.1203C24.2382 49.194 30.3344 47.0127 36.2688 47.8915L36.5618 45.9131ZM31.4295 55.0216L37.2079 47.5121L35.6228 46.2924L29.8444 53.8019L31.4295 55.0216ZM31.9776 59.2287C30.6645 58.2183 30.4191 56.3347 31.4295 55.0216L29.8444 53.8019C28.1604 55.9904 28.5694 59.1297 30.7579 60.8137L31.9776 59.2287ZM40.3044 65.6359L31.9776 59.2287L30.7579 60.8137L39.0847 67.221L40.3044 65.6359ZM44.5115 65.0878C43.5011 66.4009 41.6175 66.6463 40.3044 65.6359L39.0847 67.221C41.2732 68.905 44.4125 68.496 46.0965 66.3075L44.5115 65.0878ZM50.2899 57.5782L44.5115 65.0878L46.0965 66.3075L51.875 58.7979L50.2899 57.5782ZM49.7817 76.6921C54.0474 71.1484 54.6357 63.9194 52.0011 57.793L50.1638 58.5831C52.5339 64.0944 51.9873 70.5461 48.1966 75.4724L49.7817 76.6921ZM30.5475 83.3897C37.6011 85.0139 45.1837 82.6675 49.7817 76.6921L48.1966 75.4724C44.1117 80.7811 37.3468 82.903 30.9963 81.4407L30.5475 83.3897ZM18.5813 99.8978L31.5645 83.025L29.9794 81.8054L16.9963 98.6781L18.5813 99.8978ZM6.05627 101.53C9.96557 104.538 15.5732 103.807 18.5813 99.8978L16.9963 98.6781C14.6618 101.712 10.3098 102.279 7.27594 99.9445L6.05627 101.53ZM4.42453 89.0045C1.41642 92.9138 2.14698 98.5214 6.05627 101.53L7.27594 99.9445C4.24205 97.61 3.67509 93.258 6.00959 90.2241L4.42453 89.0045ZM17.4079 72.1314L4.42453 89.0045L6.00959 90.2241L18.993 73.3511L17.4079 72.1314ZM18.8625 52.9006C14.2649 58.8757 13.9393 66.806 17.3159 73.2078L19.085 72.2747C16.0449 66.511 16.3629 59.4287 20.4476 54.1203L18.8625 52.9006ZM12.4033 95.9774C11.8496 96.6969 10.8176 96.8313 10.0981 96.2777L8.87841 97.8628C10.4733 99.09 12.7611 98.792 13.9883 97.1971L12.4033 95.9774ZM12.103 93.6722C12.8224 94.2258 12.9569 95.2579 12.4033 95.9774L13.9883 97.1971C15.2156 95.6022 14.9175 93.3144 13.3226 92.0871L12.103 93.6722ZM9.79776 93.9725C10.3514 93.253 11.3835 93.1186 12.103 93.6722L13.3226 92.0871C11.7277 90.8599 9.43993 91.1579 8.2127 92.7528L9.79776 93.9725ZM10.0981 96.2777C9.37858 95.7241 9.24412 94.692 9.79776 93.9725L8.2127 92.7528C6.98546 94.3477 7.28351 96.6355 8.87841 97.8628L10.0981 96.2777Z" fill="#001D6D" mask="url(#path-4-inside-2)"/>
<rect x="27.9615" y="65.2129" width="9.57518" height="4.94854" rx="1.5" transform="rotate(37.5774 27.9615 65.2129)" fill="#EDF5FF" stroke="#001D6D"/>
<line x1="30.8882" y1="66.8286" x2="27.3201" y2="71.5498" stroke="#001D6D"/>
<line x1="33.5059" y1="68.8455" x2="29.9701" y2="73.4802" stroke="#001D6D"/>
<mask id="path-9-inside-3" fill="white">
<path fill-rule="evenodd" clip-rule="evenodd" d="M54.179 54.3555L50.012 44.2663L39.192 42.8234L32.5389 51.4697L36.7058 61.5589L47.5258 63.0018L54.179 54.3555ZM40.8253 56.2065C42.599 57.5713 45.1432 57.2398 46.508 55.4661C47.8728 53.6925 47.5413 51.1483 45.7677 49.7835C43.994 48.4187 41.4498 48.7502 40.085 50.5238C38.7202 52.2975 39.0517 54.8417 40.8253 56.2065Z"/>
</mask>
<path fill-rule="evenodd" clip-rule="evenodd" d="M54.179 54.3555L50.012 44.2663L39.192 42.8234L32.5389 51.4697L36.7058 61.5589L47.5258 63.0018L54.179 54.3555ZM40.8253 56.2065C42.599 57.5713 45.1432 57.2398 46.508 55.4661C47.8728 53.6925 47.5413 51.1483 45.7677 49.7835C43.994 48.4187 41.4498 48.7502 40.085 50.5238C38.7202 52.2975 39.0517 54.8417 40.8253 56.2065Z" fill="#6FA3FF"/>
<path d="M50.012 44.2663L50.9363 43.8846L50.7161 43.3513L50.1442 43.2751L50.012 44.2663ZM54.179 54.3555L54.9715 54.9653L55.3237 54.5076L55.1032 53.9738L54.179 54.3555ZM39.192 42.8234L39.3242 41.8322L38.7517 41.7558L38.3995 42.2136L39.192 42.8234ZM32.5389 51.4697L31.7463 50.8599L31.3941 51.3176L31.6146 51.8515L32.5389 51.4697ZM36.7058 61.5589L35.7815 61.9407L36.0017 62.4739L36.5736 62.5502L36.7058 61.5589ZM47.5258 63.0018L47.3936 63.993L47.9661 64.0694L48.3184 63.6117L47.5258 63.0018ZM49.0878 44.648L53.2547 54.7372L55.1032 53.9738L50.9363 43.8846L49.0878 44.648ZM39.0598 43.8146L49.8799 45.2575L50.1442 43.2751L39.3242 41.8322L39.0598 43.8146ZM33.3314 52.0796L39.9845 43.4332L38.3995 42.2136L31.7463 50.8599L33.3314 52.0796ZM37.6301 61.1772L33.4631 51.088L31.6146 51.8515L35.7815 61.9407L37.6301 61.1772ZM47.658 62.0106L36.838 60.5677L36.5736 62.5502L47.3936 63.993L47.658 62.0106ZM53.3864 53.7457L46.7333 62.392L48.3184 63.6117L54.9715 54.9653L53.3864 53.7457ZM45.7155 54.8563C44.6875 56.1923 42.7711 56.4419 41.4352 55.4139L40.2155 56.999C42.4269 58.7006 45.5989 58.2873 47.3005 56.076L45.7155 54.8563ZM45.1578 50.576C46.4938 51.604 46.7434 53.5204 45.7155 54.8563L47.3005 56.076C49.0021 53.8646 48.5888 50.6925 46.3775 48.991L45.1578 50.576ZM40.8775 51.1336C41.9055 49.7977 43.8219 49.548 45.1578 50.576L46.3775 48.991C44.1661 47.2894 40.9941 47.7026 39.2925 49.914L40.8775 51.1336ZM41.4352 55.4139C40.0992 54.386 39.8495 52.4696 40.8775 51.1336L39.2925 49.914C37.5909 52.1253 38.0041 55.2974 40.2155 56.999L41.4352 55.4139Z" fill="#001D6D" mask="url(#path-9-inside-3)"/>
<path d="M54.6212 32.117C60.5727 32.117 64.4609 28.5031 64.449 23.3864C64.4609 18.7469 61.2168 15.467 56.8634 15.467C54.3826 15.467 52.3789 16.5642 51.6156 18.0432H51.4725L51.9496 12.6522H62.9223V7.35666H46.5109L45.5567 20.8102L51.3771 21.9552C51.9376 20.7625 53.2138 20.0469 54.6212 20.0469C56.6488 20.0469 58.0681 21.4424 58.0561 23.5773C58.0681 25.7122 56.6488 27.1076 54.6212 27.1076C52.8679 27.1076 51.4248 26.0342 51.3771 24.3406H44.9365C44.9723 28.8967 48.9917 32.117 54.6212 32.117Z" fill="#6FA3FF"/>
<path d="M77.9473 32.4509C84.5906 32.4628 88.7173 27.704 88.7292 19.6175C88.7411 11.5788 84.5906 7.02271 77.9473 7.02271C71.292 7.02271 67.1892 11.5549 67.1653 19.6175C67.1415 27.6682 71.292 32.439 77.9473 32.4509ZM77.9473 27.0599C75.6573 27.0599 74.0114 24.758 74.0352 19.6175C74.0591 14.5963 75.6573 12.366 77.9473 12.366C80.2372 12.366 81.8474 14.5963 81.8593 19.6175C81.8712 24.758 80.2372 27.0599 77.9473 27.0599Z" fill="#6FA3FF"/>
<path d="M101.384 32.117C107.359 32.117 111.569 29.0756 111.545 24.77C111.569 21.7763 109.566 19.6652 105.63 19.2359V19.045C108.54 18.7349 110.663 16.8624 110.639 14.1312C110.663 10.0164 106.846 7.02271 101.431 7.02271C95.8973 7.02271 91.9614 10.1833 91.9375 14.6559H98.2827C98.3065 13.177 99.6066 12.1274 101.431 12.1274C103.101 12.1274 104.27 13.1412 104.246 14.5605C104.27 16.0395 102.886 17.089 100.907 17.089H98.4258V21.669H100.907C103.053 21.669 104.556 22.7185 104.532 24.1975C104.556 25.7122 103.268 26.7737 101.431 26.7737C99.5231 26.7737 98.1634 25.7599 98.1395 24.3406H91.4605C91.4843 28.8967 95.5991 32.117 101.384 32.117Z" fill="#6FA3FF"/>
</g>
<defs>
<clipPath id="clip0">
<rect width="128" height="104" fill="white"/>
</clipPath>
</defs>
</svg>
