<svg width="128" height="104" viewBox="0 0 128 104" fill="none" xmlns="http://www.w3.org/2000/svg">
    <rect width="128" height="104"/>
    <path d="M4.5 34.6649C4.5 18.0053 18.0053 4.5 34.6649 4.5C51.3245 4.5 64.8297 18.0053 64.8297 34.6649V99.0603H4.5V34.6649Z" stroke="#001D6D"/>
    <mask id="mask0" maskUnits="userSpaceOnUse" x="4" y="4" width="61" height="95">
        <path d="M4.95435 35.0056C4.71292 17.6789 18.2564 4.95093 34.6652 4.95093C51.074 4.95093 64.6177 18.1592 64.376 35.0056V98.6095H4.95435V35.0056Z" fill="#A7C7FF"/>
    </mask>
    <g mask="url(#mask0)">
        <rect x="-38.0469" y="30.6238" width="161.644" height="6.65594" transform="rotate(32.6628 -38.0469 30.6238)" fill="white"/>
        <path d="M35.2271 77.5982L43.6014 82.9668L34.7753 85.2148L26.401 79.8463L35.2271 77.5982Z" fill="#D6D8DE"/>
        <path d="M48.8355 86.3221L57.2098 91.6906L48.3837 93.9387L40.0094 88.5702L48.8355 86.3221Z" fill="#D6D8DE"/>
        <path d="M62.4439 95.0459L70.8182 100.414L61.9921 102.662L53.6178 97.2939L62.4439 95.0459Z" fill="#D6D8DE"/>
        <path d="M8.01127 60.1505L16.3856 65.519L7.55946 67.7671L-0.814823 62.3985L8.01127 60.1505Z" fill="#D6D8DE"/>
        <path d="M21.6197 68.8745L29.994 74.243L21.1679 76.4911L12.7936 71.1225L21.6197 68.8745Z" fill="#D6D8DE"/>
        <rect x="-37.6104" y="42.5327" width="161.644" height="6.65594" transform="rotate(-14.3692 -37.6104 42.5327)" fill="white"/>
        <path d="M46.7081 20.9324L56.3443 18.4638L51.9735 26.4544L42.3374 28.9231L46.7081 20.9324Z" fill="#D6D8DE"/>
        <path d="M62.3663 16.9205L72.0025 14.4519L67.6317 22.4425L57.9956 24.9111L62.3663 16.9205Z" fill="#D6D8DE"/>
        <path d="M-0.26842 32.9666L9.36773 30.498L4.99694 38.4886L-4.63921 40.9572L-0.26842 32.9666Z" fill="#D6D8DE"/>
        <path d="M15.3898 28.9554L25.0259 26.4868L20.6551 34.4774L11.019 36.946L15.3898 28.9554Z" fill="#D6D8DE"/>
        <path d="M31.048 24.9437L40.6841 22.475L36.3133 30.4657L26.6772 32.9343L31.048 24.9437Z" fill="#D6D8DE"/>
        <rect x="-19.5957" y="145.137" width="161.644" height="6.65594" transform="rotate(-57.421 -19.5957 145.137)" fill="white"/>
        <path d="M27.2705 71.7935L32.6268 63.4114L34.8877 72.2342L29.5315 80.6163L27.2705 71.7935Z" fill="#D6D8DE"/>
        <path d="M35.9756 58.1726L41.3319 49.7904L43.5928 58.6132L38.2366 66.9954L35.9756 58.1726Z" fill="#D6D8DE"/>
        <path d="M44.6787 44.5515L50.035 36.1693L52.296 44.9921L46.9397 53.3743L44.6787 44.5515Z" fill="#D6D8DE"/>
        <path d="M9.86232 99.0353L15.2186 90.6532L17.4795 99.476L12.1233 107.858L9.86232 99.0353Z" fill="#D6D8DE"/>
        <path d="M53.3818 30.9306L58.7381 22.5485L60.9991 31.3713L55.6428 39.7534L53.3818 30.9306Z" fill="#D6D8DE"/>
        <path d="M18.5674 85.4144L23.9237 77.0323L26.1846 85.8551L20.8284 94.2372L18.5674 85.4144Z" fill="#D6D8DE"/>
        <path d="M62.0869 17.3098L67.4432 8.92764L69.7042 17.7504L64.3479 26.1326L62.0869 17.3098Z" fill="#D6D8DE"/>
    </g>
    <rect x="63.4277" y="42.0339" width="2.85255" height="10.4593" rx="1.42627" fill="#001D6D"/>
    <rect x="63.4277" y="78.6417" width="2.85255" height="10.4593" rx="1.42627" fill="#001D6D"/>
    <rect x="10.2061" y="49.1899" width="4.70509" height="9.45934" rx="2.35255" stroke="#001D6D"/>
    <rect x="12.1064" y="52.9933" width="14.2136" height="1.85255" rx="0.926273" fill="#E5E7EB" stroke="#001D6D"/>
    <path d="M46.9287 75.2704H60.3811V79.5925H67.5664V75.2704H70.754V69.4357H67.5664V51.9314H58.058L46.9287 69.4357V75.2704ZM60.5431 69.4357H54.3302V69.2196L60.327 59.7111H60.5431V69.4357Z" fill="#6FA3FF"/>
    <path d="M85.952 80.3488C93.475 80.3623 98.1483 74.9733 98.1618 65.816C98.1753 56.7127 93.475 51.5532 85.952 51.5532C78.4154 51.5532 73.7692 56.6856 73.7422 65.816C73.7152 74.9328 78.4154 80.3353 85.952 80.3488ZM85.952 74.2439C83.3588 74.2439 81.4949 71.6372 81.5219 65.816C81.5489 60.1298 83.3588 57.6041 85.952 57.6041C88.5452 57.6041 90.3686 60.1298 90.3821 65.816C90.3956 71.6372 88.5452 74.2439 85.952 74.2439Z" fill="#6FA3FF"/>
    <path d="M112.492 79.9706C119.259 79.9706 124.026 76.5265 123.999 71.6507C124.026 68.2606 121.757 65.87 117.3 65.3838V65.1676C120.596 64.8165 123 62.696 122.973 59.603C123 54.9433 118.678 51.5532 112.546 51.5532C106.279 51.5532 101.822 55.1324 101.795 60.1973H108.98C109.007 58.5225 110.48 57.334 112.546 57.334C114.437 57.334 115.761 58.482 115.734 60.0892C115.761 61.764 114.194 62.9526 111.952 62.9526H109.142V68.139H111.952C114.383 68.139 116.085 69.3276 116.058 71.0024C116.085 72.7177 114.626 73.9198 112.546 73.9198C110.385 73.9198 108.845 72.7717 108.818 71.1645H101.255C101.282 76.3239 105.941 79.9706 112.492 79.9706Z" fill="#6FA3FF"/>
</svg>
