<svg width="24" height="24" viewBox="0 0 24 24" fill="none" xmlns="http://www.w3.org/2000/svg">
<path d="M2 3C0.895431 3 0 3.89543 0 5V19C0 19.5951 0.259869 20.1294 0.672308 20.4958L23.3277 3.50423C22.9745 3.19053 22.5095 3 22 3H2Z" fill="url(#paint0_linear_72961_153719)"/>
<path d="M1.9972 21C1.48878 20.9993 1.02481 20.8089 0.672302 20.4958L23.3277 3.50427C23.7401 3.87063 24 4.40499 24 5.00004V19C24 20.1037 23.1061 20.9985 22.0028 21H1.9972Z" fill="#2C7442"/>
<path d="M23.835 4.20339L0.74449 20.5569C0.302709 20.2002 0.015835 19.6593 0.000610352 19.051L22.5542 3.07776C23.13 3.24349 23.5993 3.66098 23.835 4.20339Z" fill="#FFD646"/>
<path d="M1.73175 6.91348L1.89212 5.93171L1.2128 5.23643L2.1516 5.09319L2.57145 4.19995L2.99129 5.09319L3.9301 5.23643L3.25077 5.93171L3.41114 6.91348L2.57145 6.44995L1.73175 6.91348Z" fill="white"/>
<path d="M7.44604 6.91348L7.60641 5.93171L6.92708 5.23643L7.86589 5.09319L8.28573 4.19995L8.70558 5.09319L9.64439 5.23643L8.96506 5.93171L9.12543 6.91348L8.28573 6.44995L7.44604 6.91348Z" fill="white"/>
<path d="M7.60639 9.53174L7.44602 10.5135L8.28572 10.05L9.12541 10.5135L8.96504 9.53174L9.64437 8.83646L8.70556 8.69322L8.28572 7.79998L7.86587 8.69322L6.92706 8.83646L7.60639 9.53174Z" fill="white"/>
<path d="M2.57142 10.05L1.73173 10.5135L1.89209 9.53174L1.21277 8.83646L2.15157 8.69322L2.57142 7.79998L2.99127 8.69322L3.93007 8.83646L3.25075 9.53174L3.41111 10.5135L2.57142 10.05Z" fill="white"/>
<path d="M4.58891 8.71343L5.4286 8.24991L6.26829 8.71343L6.10792 7.73167L6.78725 7.03638L5.84844 6.89315L5.4286 5.99991L5.00875 6.89315L4.06995 7.03638L4.74927 7.73167L4.58891 8.71343Z" fill="white"/>
<defs>
<linearGradient id="paint0_linear_72961_153719" x1="0" y1="3" x2="0" y2="21" gradientUnits="userSpaceOnUse">
<stop stop-color="#0660D4"/>
<stop offset="1" stop-color="#0051BB"/>
</linearGradient>
</defs>
</svg>
