<svg width="24" height="24" viewBox="0 0 24 24" fill="none" xmlns="http://www.w3.org/2000/svg">
<rect y="3" width="24" height="18" rx="2" fill="#022D9A"/>
<path d="M2.03252e-05 9.60929L3.33333 7.22835V6.73519L0.22739 4.07296C0.331861 3.87361 0.468974 3.69405 0.63163 3.5414L4 6.42857V7.57143L2.03252e-05 10.4286V9.60929Z" fill="white"/>
<path d="M10.9524 3V3.39989C10.9524 3.72284 10.7964 4.02591 10.5336 4.21362L6.95238 6.77165V7.2648L10.3317 10.1614C10.9348 10.6783 10.5692 11.6667 9.77485 11.6667C9.59651 11.6667 9.42263 11.6109 9.27751 11.5073L5.50064 8.80952H4.76263L2.03252e-05 11.7862V11L4.57143 8.14286H5.71429L9.665 10.9648C9.69706 10.9877 9.73546 11 9.77485 11C9.9503 11 10.031 10.7817 9.89784 10.6675L6.28571 7.57143V6.42857L10.1461 3.67113C10.2337 3.60856 10.2857 3.50754 10.2857 3.39989V3L10.9524 3Z" fill="white"/>
<path d="M9.02784 3L10.2857 3L5.71429 5.85714H4.57143L0.970449 3.28501C1.20126 3.14615 1.4624 3.05257 1.74157 3.01655L4.78507 5.19048H5.52309L9.02784 3Z" fill="white"/>
<path fill-rule="evenodd" clip-rule="evenodd" d="M0 5.85714V8.14286H4V10.9048C4 11.273 4.29848 11.5714 4.66667 11.5714H5.61905C5.98724 11.5714 6.28571 11.273 6.28571 10.9048V8.14286H10.1905C10.5587 8.14286 10.8571 7.84438 10.8571 7.47619V6.52381C10.8571 6.15562 10.5587 5.85714 10.1905 5.85714H6.28571V3H4V5.85714H0Z" fill="white"/>
<path d="M0.620846 3.53215C0.724084 3.43571 0.837716 3.35017 0.959804 3.27741L4 5.44898V5.85714H3.33333L0.620846 3.53215Z" fill="#F64E4E"/>
<path d="M6.28571 5.5L10.2857 3V3.39989C10.2857 3.50754 10.2337 3.60856 10.1461 3.67113L7.08571 5.85714H6.28571V5.5Z" fill="#F64E4E"/>
<path d="M6.28571 8.14286H6.95238L9.89784 10.6675C10.031 10.7817 9.9503 11 9.77485 11C9.73546 11 9.69706 10.9877 9.665 10.9648L6.28571 8.55102V8.14286Z" fill="#F64E4E"/>
<path d="M4 8.14286V8.5L2.03252e-05 11L0 10.4286L3.2 8.14286H4Z" fill="#F64E4E"/>
<path d="M4.57143 6.42857H0V7.57143H4.57143V11H5.71429V7.57143H10.2857V6.42857H5.71429V3H4.57143V6.42857Z" fill="#F64E4E"/>
<path d="M16.0069 8.75253L15.774 9.42207H17.7244L17.4624 8.75253H16.0069Z" fill="#8E361C"/>
<path d="M16.1998 6.59799C16.1998 6.59799 16.2783 6.48678 16.2817 6.46013C16.2854 6.43343 16.6376 6.41564 16.8474 5.92647C16.9648 5.66851 16.8474 5.8197 16.8474 5.8197L16.8403 5.69516C16.8403 5.69516 16.9863 5.52175 16.933 5.42834C16.8794 5.33496 16.8973 5.54844 16.812 5.54397C16.7266 5.53954 16.7728 5.31274 16.7728 5.31274C16.7728 5.31274 16.7657 5.28604 16.7408 5.27272C16.7051 5.27715 16.7158 5.35719 16.6838 5.36609C16.6518 5.37499 16.6234 5.17931 16.6234 5.17931C16.6234 5.17931 16.5701 5.09036 16.5236 5.37056C16.5486 5.66851 16.7017 5.61069 16.7017 5.80641C16.7017 6.00205 16.5664 6.15324 16.5273 6.15771C16.4882 6.16214 16.5023 5.99315 16.5023 5.99315C16.5023 5.99315 16.4811 5.91311 16.4669 5.91311C16.4527 5.91311 16.5451 5.89531 16.5309 5.67298C16.4989 5.40611 16.474 5.73522 16.417 5.72186C16.36 5.70853 16.4028 5.47729 16.4241 5.4506C16.4454 5.42391 16.3991 5.31274 16.2746 5.59736C16.2639 5.73522 16.2497 5.56177 16.2248 5.57067C16.1822 5.68187 16.1893 5.76192 16.2497 5.86419C16.3387 5.9665 16.3957 6.06877 16.3921 6.12212C16.3886 6.1755 16.3421 6.29557 16.2783 6.29557C16.2142 6.29557 16.2817 6.14881 16.2783 6.09985C16.2746 6.05097 16.168 5.87309 16.168 5.87309C16.168 5.87309 16.0932 5.72186 16.1003 5.71743C16.1074 5.71296 16.0932 5.69073 16.0577 5.84639C16.022 6.00205 15.9792 5.74412 15.9792 5.74412C15.9792 5.74412 15.9296 5.93533 16.0362 6.05097C15.9545 6.03764 15.9474 6.07766 15.9474 6.07766C15.9474 6.13102 16.0577 6.15324 16.0719 6.24661C16.0861 6.34006 15.9579 6.39337 15.9579 6.39337C15.9579 6.39337 16.0115 6.48679 16.1607 6.30447C16.1644 6.42007 16.1039 6.50015 16.1039 6.50015C16.1536 6.52828 16.1927 6.52533 16.1998 6.59799Z" fill="#C8AA41"/>
<path d="M15.7116 6.59799C15.7116 6.59799 15.6451 6.47456 15.6421 6.45027C15.6389 6.42601 15.3149 6.48095 15.1616 5.98691C15.0619 5.75221 15.1616 5.88981 15.1616 5.88981L15.1676 5.77646C15.1676 5.77646 15.0615 5.61423 15.1068 5.52924C15.1522 5.44425 15.1335 5.63849 15.1918 5.6389C15.2643 5.63487 15.2251 5.42845 15.2251 5.42845C15.2251 5.42845 15.2311 5.40419 15.2522 5.39204C15.2824 5.3961 15.2948 5.51783 15.322 5.52595C15.3491 5.53404 15.4054 5.38267 15.423 5.35154C15.4479 5.34707 15.447 5.22616 15.4863 5.48106C15.4653 5.75221 15.2856 5.69959 15.2856 5.87766C15.2856 6.0557 15.4002 6.1933 15.4335 6.19736C15.4668 6.20139 15.4548 6.04765 15.4548 6.04765C15.4548 6.04765 15.4729 5.9748 15.4849 5.9748C15.4971 5.9748 15.3792 6.00305 15.3915 5.80072C15.4186 5.61128 15.4788 5.81294 15.5272 5.80076C15.5756 5.78861 15.5216 5.60046 15.5355 5.5717C15.5387 5.54298 15.6098 5.41955 15.6375 5.69192C15.6465 5.81737 15.7013 5.58392 15.7223 5.59204C15.7588 5.69317 15.7064 5.8283 15.6551 5.92138C15.5795 6.01442 15.5453 6.11643 15.5484 6.16498C15.5514 6.21353 15.5692 6.27386 15.6238 6.27386C15.6781 6.27386 15.6421 6.18924 15.6451 6.14475C15.648 6.10022 15.7387 5.95612 15.7387 5.95612C15.7566 5.9206 15.7417 5.85415 15.7605 5.82343C15.7901 5.8238 15.8023 5.77244 15.8324 5.91407C15.8627 6.0557 15.8989 5.82099 15.8989 5.82099C15.8989 5.82099 15.9412 5.99503 15.8505 6.10022C15.9199 6.08811 15.9261 6.12452 15.9261 6.12452C15.9261 6.17307 15.8931 6.1933 15.8808 6.27826C15.8686 6.36325 15.917 6.41183 15.917 6.41183C15.917 6.41183 15.8718 6.49679 15.7448 6.33087C15.7417 6.43609 15.7933 6.50894 15.7933 6.50894C15.7507 6.5346 15.7177 6.53187 15.7116 6.59799Z" fill="#C8AA41"/>
<path d="M16.2162 6.61693C16.2162 6.61693 16.3745 6.44237 16.5466 6.59947C16.4688 6.89007 16.1883 6.77983 16.1883 6.77983C16.1883 6.77983 16.1976 6.92526 16.1697 6.99504C16.2257 7.04784 16.272 7.22196 16.272 7.22196C16.272 7.22196 16.5606 7.13468 16.6212 7.29177C16.7317 7.27269 16.812 7.29177 16.812 7.29177C16.812 7.29177 17.0355 7.22196 17.1145 7.22196C17.1937 7.22196 17.4449 7.3034 17.4681 7.36155C17.4916 7.41974 17.5752 7.80955 17.6312 7.80372C17.687 7.79789 17.4963 7.8968 17.4449 7.79788C17.3938 7.69897 17.4077 7.92589 17.4077 7.92589C17.4077 7.92589 17.566 8.1353 17.5845 8.18182C17.6032 8.22831 17.487 8.60642 17.5752 8.86841C17.4977 8.87727 17.4916 8.97876 17.4916 8.97876C17.4872 9.09399 17.3706 9.12427 17.3706 9.12427L17.3427 8.96713L17.2634 9.02554L17.296 8.90326C17.296 8.90326 17.4031 8.5774 17.4124 8.47284C17.4217 8.36802 17.3145 8.18182 17.2309 8.18182C17.147 8.18182 17.0866 8.51349 17.0866 8.51349C17.0866 8.51349 17.0448 8.76355 17.0588 8.78677C17.0727 8.81003 17.0027 8.70547 17.0027 8.70547C17.0027 8.70547 16.9656 8.85678 16.9377 8.90326C16.9098 8.94971 16.8492 8.96713 16.8492 8.96713C16.8492 8.96713 16.8073 8.81583 16.8213 8.75775C16.8352 8.69968 17.0494 8.47284 17.0308 8.3099C17.012 8.14697 17.0308 8.18766 17.026 8.18182C17.0213 8.17603 16.9144 8.05969 16.9098 7.99571C16.9052 7.93169 16.7701 8.07715 16.5933 8.0306C16.5391 8.14882 16.5327 8.44348 16.5327 8.44348C16.5327 8.44348 16.5141 8.7984 16.5513 8.83935C16.5887 8.88 16.4583 8.96713 16.4583 8.96713L16.3652 9.12427C16.3652 9.12427 16.3326 9.02554 16.3326 9.03134C16.3326 9.03713 16.2673 9.08941 16.2673 9.08941L16.3048 8.97293C16.3023 8.88491 16.3952 8.64433 16.3952 8.44075C16.3952 8.23717 16.407 8.01897 16.407 8.01897C16.407 8.01897 16.2348 8.0073 16.2394 8.22831C16.2441 8.44961 16.1976 8.46124 16.2069 8.52512C16.2162 8.58903 16.2627 8.76935 16.2487 8.82192C16.2348 8.8742 16.179 8.89163 16.179 8.89163L16.1651 8.92069C16.1651 8.92069 15.9929 9.01971 15.9976 9.06036C16.0022 9.10104 15.9929 8.94391 15.9929 8.94391L15.9834 8.77518C15.9834 8.77518 16.0859 8.69384 16.0859 8.49026C16.0859 8.28668 16.0624 8.25766 16.067 8.21118C16.0717 8.1644 16.0952 7.99567 16.0905 7.97824C16.0859 7.96078 15.9929 8.02476 15.9648 8.02476C15.9369 8.02476 16.0162 7.90263 16.0254 7.81535C16.0348 7.72807 15.9323 7.8968 15.8486 7.79788C15.8875 7.69048 15.9462 7.65825 15.9555 7.5768C15.9648 7.49539 15.8905 7.64662 15.8252 7.58847C15.8305 7.51042 15.8951 7.44304 15.8951 7.44304C15.8951 7.44304 15.842 7.43488 15.8205 7.44304C15.7787 7.42558 15.8672 7.34409 15.8719 7.22775C15.8765 7.11141 15.8205 7.06486 15.8205 7.05906C15.8205 7.05326 15.7276 6.95432 15.7137 6.91363C15.6997 6.87291 15.6997 6.82635 15.6997 6.82635C15.6997 6.82635 15.5458 6.96598 15.3644 6.66929C15.5307 6.49188 15.709 6.62273 15.709 6.62273C15.709 6.62273 15.7554 6.45983 15.9694 6.47146C16.1837 6.4831 16.2255 6.63436 16.2162 6.61693" fill="#8E361C"/>
<ellipse cx="13.9401" cy="12.7988" rx="0.844198" ry="2.29971" fill="#D9D9DB"/>
<ellipse cx="19.4129" cy="12.7988" rx="0.844198" ry="2.29971" fill="#010101"/>
<path d="M18.1611 11.78H15.1918C15.1918 13.3228 15.1918 15.5352 16.7347 15.5352C18.2775 15.5352 18.1611 13.2646 18.1611 11.78Z" fill="white"/>
<path d="M17.6953 11.78H15.6576L16.6765 15.1277L17.6953 11.78Z" fill="#62C977"/>
<path d="M18.3931 17.1362C17.9984 16.6396 17.3892 16.3211 16.7056 16.3211C16.0219 16.3211 15.4127 16.6396 15.018 17.1362H14.1201C14.6048 16.2023 15.5807 15.5643 16.7056 15.5643C17.8305 15.5643 18.8063 16.2023 19.291 17.1362H18.3931Z" fill="#EEC543"/>
<path d="M15.0911 16.2228C15.3982 16.8759 15.3642 17.5384 15.015 17.7026C14.6658 17.8668 14.1338 17.4705 13.8267 16.8175C13.5195 16.1644 13.5536 15.5018 13.9028 15.3376C14.2519 15.1734 14.784 15.5697 15.0911 16.2228Z" fill="#EEC543"/>
<path d="M18.2514 16.2228C17.9443 16.8759 17.9784 17.5384 18.3275 17.7026C18.6767 17.8668 19.2087 17.4705 19.5159 16.8175C19.823 16.1644 19.7889 15.5018 19.4398 15.3376C19.0906 15.1734 18.5586 15.5697 18.2514 16.2228Z" fill="#EEC543"/>
<path d="M15.7458 9.51644L15.483 11.7509H17.9865L17.7236 9.51644C17.7075 9.37961 17.5915 9.27649 17.4537 9.27649H16.0157C15.8779 9.27649 15.7619 9.37961 15.7458 9.51644Z" fill="#646263"/>
<path d="M15.6904 9.27588L14.7736 8.31214C14.6931 8.22743 14.5673 8.20377 14.4615 8.25339L14.0993 8.42315C13.9179 8.5082 13.8878 8.75368 14.0433 8.88003L14.5637 9.30285C14.6122 9.34228 14.6456 9.39726 14.6584 9.4585L14.9352 10.7923C14.9503 10.8653 14.9948 10.9289 15.0582 10.9681L15.4198 11.192C15.5113 11.2486 15.6275 11.2459 15.7162 11.1852L15.9729 11.0096C16.0639 10.9473 16.1082 10.8362 16.0851 10.7284L15.9695 10.1889C15.9574 10.1321 15.9072 10.0916 15.8491 10.0916C15.7773 10.0916 15.7207 10.0303 15.7264 9.95865L15.7643 9.4848C15.7705 9.40782 15.7436 9.33184 15.6904 9.27588Z" fill="white"/>
<path d="M17.7208 9.27588L18.6375 8.31214C18.7181 8.22743 18.8438 8.20377 18.9497 8.25339L19.3118 8.42315C19.4933 8.5082 19.5234 8.75368 19.3679 8.88003L18.8475 9.30285C18.7989 9.34228 18.7655 9.39726 18.7528 9.4585L18.4759 10.7923C18.4608 10.8653 18.4163 10.9289 18.3529 10.9681L17.9913 11.192C17.8999 11.2486 17.7836 11.2459 17.6949 11.1852L17.4382 11.0096C17.3472 10.9473 17.3029 10.8362 17.326 10.7284L17.4416 10.1889C17.4538 10.1321 17.5039 10.0916 17.562 10.0916C17.6338 10.0916 17.6904 10.0303 17.6847 9.95865L17.6468 9.4848C17.6406 9.40782 17.6675 9.33184 17.7208 9.27588Z" fill="white"/>
</svg>
