<svg width="24" height="24" viewBox="0 0 24 24" fill="none" xmlns="http://www.w3.org/2000/svg">
<path fill-rule="evenodd" clip-rule="evenodd" d="M0 19C0 20.1046 0.895431 21 2 21H22C23.1046 21 24 20.1046 24 19V5C24 3.89543 23.1046 3 22 3H2C0.89543 3 0 3.89543 0 5V19Z" fill="#DD172C"/>
<path fill-rule="evenodd" clip-rule="evenodd" d="M0 16H24V8H0V16Z" fill="#FFD133"/>
<path fill-rule="evenodd" clip-rule="evenodd" d="M6.73922 11.7778H5.26075L5.39791 13.6067C5.42401 13.9546 5.68577 14.2222 5.99999 14.2222C6.3142 14.2222 6.57596 13.9546 6.60206 13.6067L6.73922 11.7778ZM5.26075 11C4.85122 11 4.52916 11.3889 4.56317 11.8424L4.70033 13.6713C4.75666 14.4223 5.32171 15 5.99999 15C6.67826 15 7.24331 14.4223 7.29964 13.6713L7.43681 11.8424C7.47082 11.3889 7.14875 11 6.73922 11H5.26075Z" fill="#A41517"/>
<path fill-rule="evenodd" clip-rule="evenodd" d="M4.8 12.3333H7.19999V13H6.59999L6 14.3333L5.4 13H4.8V12.3333Z" fill="#A41517"/>
<path d="M3 11C3 10.6318 3.26863 10.3333 3.6 10.3333C3.93137 10.3333 4.2 10.6318 4.2 11V14.3333C4.2 14.7015 3.93137 15 3.6 15C3.26863 15 3 14.7015 3 14.3333V11Z" fill="#A41517"/>
<path d="M7.8 11C7.8 10.6318 8.06863 10.3333 8.4 10.3333C8.73137 10.3333 9 10.6318 9 11V14.3333C9 14.7015 8.73137 15 8.4 15C8.06863 15 7.8 14.7015 7.8 14.3333V11Z" fill="#A41517"/>
<path d="M4.8 10.0667C4.8 9.47756 5.2298 9 5.76 9H6.24C6.77019 9 7.19999 9.47756 7.19999 10.0667C7.19999 10.2139 7.09254 10.3333 6.95999 10.3333H5.04C4.90745 10.3333 4.8 10.2139 4.8 10.0667Z" fill="#A41517"/>
</svg>
