<svg width="24" height="24" viewBox="0 0 24 24" fill="none" xmlns="http://www.w3.org/2000/svg">
<rect y="3" width="24" height="18" rx="2" fill="#FFBF19"/>
<path fill-rule="evenodd" clip-rule="evenodd" d="M8 4H21.6667C22.403 4 23 4.59695 23 5.33333V18.6667C23 19.403 22.403 20 21.6667 20H8V4Z" fill="#A52531"/>
<path d="M1 5.33333C1 4.59695 1.59695 4 2.33333 4H4V20H2.33333C1.59695 20 1 19.403 1 18.6667V5.33333Z" fill="#03664F"/>
<path d="M4 4H7V20H4V4Z" fill="#FF6816"/>
<path d="M11.1429 5.6C11.1429 5.93137 10.887 6.2 10.5714 6.2C10.2558 6.2 10 5.93137 10 5.6V5H10.5714C10.887 5 11.1429 5.26863 11.1429 5.6Z" fill="#FFBF18"/>
<path d="M20.2857 5.6C20.2857 5.93137 20.5416 6.2 20.8571 6.2C21.1727 6.2 21.4286 5.93137 21.4286 5.6V5H20.8571C20.5416 5 20.2857 5.26863 20.2857 5.6Z" fill="#FFBF18"/>
<path d="M20.8571 17C20.5415 17 20.2857 17.2686 20.2857 17.6C20.2857 17.9314 20.5415 18.2 20.8571 18.2H21.4286V17.6C21.4286 17.2686 21.1727 17 20.8571 17Z" fill="#FFBF18"/>
<path d="M11.1429 17.6C11.1429 17.2686 10.887 17 10.5714 17C10.2558 17 10 17.2686 10 17.6V18.2H10.5714C10.887 18.2 11.1429 17.9314 11.1429 17.6Z" fill="#FFBF18"/>
<path fill-rule="evenodd" clip-rule="evenodd" d="M13.4286 13.8885C13.4286 13.6187 13.2099 13.4001 12.9402 13.4001C12.8852 13.4001 12.831 13.391 12.7796 13.3716C12.4451 13.2459 11.1429 12.723 11.1429 12.2001C11.1429 11.8845 11.3009 11.569 11.4507 11.3407C11.5948 11.1213 11.6504 10.844 11.5618 10.5969C11.367 10.0537 11.0639 9.09739 11.1429 8.60005C11.1776 8.38104 11.2971 8.18418 11.4465 8.01629C11.7708 7.65184 12.2857 7.95936 12.2857 8.44719V10.5971C12.2857 10.8449 12.4231 11.0722 12.6425 11.1874L13.1623 11.4602C13.3199 11.543 13.5132 11.5112 13.636 11.3823C13.8185 11.1907 13.767 10.8777 13.5327 10.7547L12.8571 10.4001V9.80005C13.1515 9.80005 13.2487 9.40562 12.9881 9.26881L12.8571 9.20005V8.60005H13.7143C13.8967 8.60005 14.0712 8.52528 14.197 8.39316L14.3744 8.20695C14.5002 8.07483 14.6747 8.00005 14.8571 8.00005H15.2934C15.5505 8.00005 15.7847 8.14794 15.8953 8.3801L16.1726 8.9625C16.2453 9.11514 16.2573 9.2897 16.2061 9.45084L15.99 10.1317C15.8535 10.5615 16.1744 11.0001 16.6254 11.0001H18.3689C18.4982 11.0001 18.6219 10.947 18.7111 10.8534C18.9275 10.6261 18.8664 10.2549 18.5886 10.1091L18.1455 9.87645C18.0499 9.82627 17.9436 9.80005 17.8356 9.80005H17.5238C17.1556 9.80005 16.8571 9.50158 16.8571 9.13339V8.86672C16.8571 8.69554 16.923 8.53091 17.0411 8.40695L17.4286 8.00005V8.62863C17.4286 8.94422 17.6844 9.20005 18 9.20005H18.7219C18.9791 9.20005 19.2133 9.34794 19.3238 9.5801L19.665 10.2965C19.6976 10.365 19.7183 10.4385 19.7249 10.5141C19.7515 10.8226 19.8124 11.6849 19.7143 12.2001C19.6361 12.6107 19.4204 12.9916 19.2775 13.2098C19.1948 13.3362 19.1429 13.4824 19.1429 13.6335V15.3577C19.1429 15.602 18.9448 15.8001 18.7005 15.8001C18.3754 15.8001 18.1614 15.4611 18.3012 15.1676L18.5159 14.7166C18.551 14.6429 18.551 14.5572 18.5159 14.4835L18.4909 14.4309C18.3727 14.1827 18 14.2669 18 14.5418C18 14.5801 17.9914 14.618 17.9749 14.6527L17.5686 15.5059C17.4831 15.6856 17.3018 15.8001 17.1028 15.8001C16.7236 15.8001 16.474 15.4047 16.637 15.0623L16.7924 14.736C16.835 14.6465 16.8571 14.5486 16.8571 14.4494L16.8571 14.0667C16.8571 13.6985 16.5587 13.4001 16.1905 13.4001H15.2381C14.8699 13.4001 14.5714 13.6985 14.5714 14.0667V14.4494C14.5714 14.5486 14.5493 14.6465 14.5067 14.736L14.1401 15.5059C14.0545 15.6856 13.8732 15.8001 13.6743 15.8001C13.2951 15.8001 13.0454 15.4047 13.2084 15.0623L13.3638 14.736C13.4065 14.6465 13.4286 14.5486 13.4286 14.4494V13.8885Z" fill="#FFBF18"/>
</svg>
