<svg width="24" height="24" viewBox="0 0 24 24" fill="none" xmlns="http://www.w3.org/2000/svg">
<rect y="3" width="24" height="18" rx="2" fill="white"/>
<path fill-rule="evenodd" clip-rule="evenodd" d="M22 4H2C1.44772 4 1 4.44772 1 5V19C1 19.5523 1.44772 20 2 20H22C22.5523 20 23 19.5523 23 19V5C23 4.44771 22.5523 4 22 4ZM2 3C0.895431 3 0 3.89543 0 5V19C0 20.1046 0.89543 21 2 21H22C23.1046 21 24 20.1046 24 19V5C24 3.89543 23.1046 3 22 3H2Z" fill="#D6D8DE"/>
<path d="M13.4068 21H22C23.1046 21 24 20.1045 24 19V4.99996C24 4.46653 23.7912 3.98187 23.4508 3.62329L13.4068 15.0229V21Z" fill="#283E82"/>
<path d="M0.549209 3.62329C0.208835 3.98187 0 4.46653 0 4.99996V19C0 20.1045 0.89543 21 2 21H10.5932V15.0229L0.549209 3.62329Z" fill="#283E82"/>
<path d="M15.7983 11.2443L11.9706 15.0229L8.14288 11.2443H15.7983Z" fill="#E3202A"/>
<path d="M13.9092 10.4886C13.9092 9.38823 13.0597 8.49622 12.0117 8.49622C10.9638 8.49622 10.1143 9.38823 10.1143 10.4886H13.9092Z" fill="#F4D94B"/>
</svg>
