<svg width="24" height="24" viewBox="0 0 24 24" fill="none" xmlns="http://www.w3.org/2000/svg">
<path fill-rule="evenodd" clip-rule="evenodd" d="M0 19C0 20.1046 0.895431 21 2 21H22C23.1046 21 24 20.1046 24 19V12H0V19Z" fill="#283E82"/>
<path fill-rule="evenodd" clip-rule="evenodd" d="M0 12H24V5C24 3.89543 23.1046 3 22 3H2C0.89543 3 0 3.89543 0 5V12Z" fill="#E3202A"/>
<path d="M0.657344 3.5177C0.253593 3.88363 0 4.41222 0 5.00004V19C0 19.5879 0.253593 20.1165 0.657344 20.4824L11.4286 12L0.657344 3.5177Z" fill="white"/>
<path fill-rule="evenodd" clip-rule="evenodd" d="M1.46591 4.15445L0.657344 3.5177C0.253593 3.88363 0 4.41222 0 5.00004V19M1.46591 4.15445C1.18591 4.33167 1 4.64414 1 5.00003V19C1 19.3559 1.18592 19.6684 1.46593 19.8456L0.657344 20.4824C0.632933 20.4603 0.609077 20.4375 0.585786 20.4142C0.454249 20.2827 0.340949 20.1329 0.250004 19.969C0.0907125 19.682 1.97179e-06 19.3516 0 19" fill="#D6D8DE"/>
<path d="M5.69045 11.0119C5.69045 11.5708 5.22408 12.0238 4.64878 12.0238C4.07349 12.0238 3.60712 11.5708 3.60712 11.0119C3.60712 10.453 4.07349 10 4.64878 10C5.22408 10 5.69045 10.453 5.69045 11.0119Z" fill="#F1D81A"/>
<path d="M2.95245 10.7738C2.96751 11.3158 2.95971 11.7055 2.95218 12.0816C2.94483 12.4489 2.93773 12.8032 2.95245 13.2738C2.96661 13.7267 3.43084 13.8085 3.8913 13.8896C4.20192 13.9444 4.51079 14.0583 4.67864 14.2262C4.84647 14.0583 5.15541 13.9444 5.46603 13.8896C5.92648 13.8085 6.39071 13.7267 6.40488 13.2738C6.4196 12.8032 6.4125 12.4489 6.40515 12.0816C6.39762 11.7055 6.38982 11.3158 6.40488 10.7738H2.95245Z" fill="#66AFE3"/>
<path fill-rule="evenodd" clip-rule="evenodd" d="M2.95218 12.0817C2.94482 12.449 2.93773 12.8033 2.95245 13.2738C2.96661 13.7267 3.43084 13.8085 3.8913 13.8896C4.20187 13.9444 4.51069 14.0583 4.67857 14.2261C4.67859 14.2261 4.67862 14.2262 4.67864 14.2262C4.67867 14.2262 4.67869 14.2261 4.67872 14.2261C4.84656 14.0583 5.15545 13.9444 5.46603 13.8896C5.92648 13.8085 6.39071 13.7267 6.40488 13.2738C6.4196 12.8033 6.4125 12.449 6.40515 12.0817L6.40515 12.0816L6.40514 12.0815C6.39938 11.7934 6.39345 11.4973 6.39776 11.1309C6.39908 11.0191 6.40135 10.9006 6.40488 10.7738H2.95245C2.95597 10.9006 2.95825 11.0191 2.95956 11.1309C2.96387 11.4973 2.95795 11.7934 2.95218 12.0815L2.95218 12.0817ZM3.31673 11.1309C3.32101 11.5012 3.31503 11.8002 3.30927 12.0876L3.30925 12.0888C3.3019 12.4557 3.29501 12.802 3.30942 13.2626C3.31094 13.3113 3.32263 13.3306 3.32941 13.3399C3.33886 13.3529 3.36084 13.3751 3.41352 13.4013C3.53311 13.4608 3.7074 13.4946 3.95328 13.5379C4.18756 13.5792 4.45483 13.6561 4.67864 13.7844C4.90248 13.6561 5.1698 13.5792 5.40405 13.5379C5.64992 13.4946 5.82421 13.4608 5.9438 13.4013C5.99649 13.3751 6.01846 13.3529 6.02792 13.3399C6.0347 13.3306 6.04639 13.3113 6.04791 13.2626C6.06232 12.802 6.05542 12.4557 6.04808 12.0888L6.04805 12.0876C6.0423 11.8002 6.03631 11.5012 6.0406 11.1309H3.31673Z" fill="#E3202A"/>
<path d="M2.51615 12.5837C2.54837 12.5121 2.51428 12.4244 2.4387 12.4029L2.27027 12.355C2.21592 12.3396 2.15775 12.3642 2.13464 12.4158C2.04729 12.6107 2 12.8191 2 13.0358C2 14.1206 3.18591 15.0001 4.64881 15.0001C6.11171 15.0001 7.29762 14.1206 7.29762 13.0358C7.29762 12.8003 7.24177 12.5746 7.13935 12.3654C7.1142 12.314 7.05419 12.2914 7.00001 12.3098L6.83401 12.366C6.76063 12.3908 6.73049 12.478 6.76453 12.5476C6.84179 12.7056 6.88095 12.8705 6.88095 13.0358C6.88095 13.4156 6.67427 13.7929 6.27361 14.0901C5.873 14.3871 5.29991 14.5834 4.64881 14.5834C3.99771 14.5834 3.42462 14.3871 3.02401 14.0901C2.62335 13.7929 2.41667 13.4156 2.41667 13.0358C2.41667 12.883 2.4501 12.7306 2.51615 12.5837Z" fill="#F1D81A"/>
</svg>
