<svg width="24" height="24" viewBox="0 0 24 24" fill="none" xmlns="http://www.w3.org/2000/svg">
<rect y="3" width="24" height="18" rx="2" fill="#FF0000"/>
<path fill-rule="evenodd" clip-rule="evenodd" d="M10.4286 13.8571H7.33333C7.14924 13.8571 7 13.7079 7 13.5238V10.7619C7 10.5778 7.14924 10.4286 7.33333 10.4286H10.4286V7.33333C10.4286 7.14924 10.5778 7 10.7619 7H13.5238C13.7079 7 13.8571 7.14924 13.8571 7.33333V10.4286H16.9524C17.1365 10.4286 17.2857 10.5778 17.2857 10.7619V13.5238C17.2857 13.7079 17.1365 13.8571 16.9524 13.8571H13.8571V16.9524C13.8571 17.1365 13.7079 17.2857 13.5238 17.2857H10.7619C10.5778 17.2857 10.4286 17.1365 10.4286 16.9524V13.8571Z" fill="white"/>
</svg>
