<svg xmlns="http://www.w3.org/2000/svg" viewBox="0 0 24 24">
  <path d="M12.68 8.856a.645.645 0 0 1-.207-.481.658.658 0 0 1 .66-.643l2.152-.017.01-.01a6.2 6.2 0 0 0-9.971 5.45c.029.332-.164.654-.485.75-.37.112-.757-.12-.797-.503a7.5 7.5 0 0 1 12.125-6.666L15.98 4.7a.65.65 0 0 1 .601-.698.658.658 0 0 1 .698.6l.288 3.652a.698.698 0 0 1-.712.758l-3.739.022a.627.627 0 0 1-.437-.178ZM9.79 15.9a.65.65 0 0 1 .206.483.658.658 0 0 1-.659.643l-2.152.016-.009.01a6.18 6.18 0 0 0 4.324 1.755c.35 0 .694-.029 1.028-.084.357-.06.697.063.79.414.09.342-.088.779-.437.843-.447.084-.91.127-1.381.127a7.475 7.475 0 0 1-5.198-2.093l.187 2.044a.65.65 0 0 1-.6.698.658.658 0 0 1-.699-.601l-.287-3.652a.698.698 0 0 1 .712-.758l3.738-.021c.177.001.32.067.437.177Zm6.695.656c-.27.29-.73.3-1.01.02l-2.044-1.938a.658.658 0 0 1 0-.92c.25-.25.67-.25.92 0l1.604 1.498 3.09-3.127a.65.65 0 0 1 .92-.04c.26.24.28.65.04.92l-3.52 3.587Z"/>
</svg>
