<svg xmlns="http://www.w3.org/2000/svg" viewBox="0 0 24 24">
  <path d="M12.473 8.375a.645.645 0 0 0 .206.481c.117.11.26.176.437.178l3.739-.022a.698.698 0 0 0 .712-.758l-.288-3.652a.658.658 0 0 0-.698-.6.65.65 0 0 0-.6.698l.186 2.036a7.5 7.5 0 0 0-12.125 6.666c.04.384.428.614.797.504.32-.097.514-.419.485-.752a6.2 6.2 0 0 1 9.971-5.45l-.01.011-2.153.017a.658.658 0 0 0-.659.643Zm-2.477 8.008a.645.645 0 0 0-.206-.482.627.627 0 0 0-.437-.177l-3.738.021a.698.698 0 0 0-.712.758l.287 3.652c.033.36.345.626.698.6a.65.65 0 0 0 .6-.697l-.186-2.044a7.475 7.475 0 0 0 5.198 2.093c.41 0 .814-.033 1.207-.096.353-.057.563-.425.478-.772-.087-.353-.44-.546-.8-.494a6.18 6.18 0 0 1-5.209-1.694l.009-.009 2.152-.016a.658.658 0 0 0 .66-.643Zm9.674-3.881a.65.65 0 1 0-.902-.936l-1.886 1.817-1.886-1.817a.65.65 0 1 0-.902.936l1.851 1.783-1.85 1.784a.65.65 0 0 0 .901.936l1.886-1.817 1.886 1.817a.65.65 0 0 0 .902-.936l-1.851-1.784 1.85-1.783Z"/>
</svg>
