<svg width="24" height="24" viewBox="0 0 24 24" fill="none" xmlns="http://www.w3.org/2000/svg">
<rect y="3" width="24" height="18" rx="2" fill="white"/>
<path fill-rule="evenodd" clip-rule="evenodd" d="M22 4H2C1.44772 4 1 4.44772 1 5V19C1 19.5523 1.44772 20 2 20H22C22.5523 20 23 19.5523 23 19V5C23 4.44771 22.5523 4 22 4ZM2 3C0.895431 3 0 3.89543 0 5V19C0 20.1046 0.89543 21 2 21H22C23.1046 21 24 20.1046 24 19V5C24 3.89543 23.1046 3 22 3H2Z" fill="#D6D8DE"/>
<path fill-rule="evenodd" clip-rule="evenodd" d="M0 9H24V5C24 3.89543 23.1046 3 22 3H2C0.89543 3 0 3.89543 0 5V9Z" fill="#E32139"/>
<path fill-rule="evenodd" clip-rule="evenodd" d="M0 19C0 20.1046 0.895431 21 2 21H22C23.1046 21 24 20.1046 24 19V15H0V19Z" fill="#262626"/>
<path fill-rule="evenodd" clip-rule="evenodd" d="M8.17384 13.2229L6.83033 14.1349L7.28257 12.5753L6 11.5794L7.623 11.5275L8.17384 10L8.72468 11.5275L10.3477 11.5794L9.06512 12.5753L9.51735 14.1349L8.17384 13.2229Z" fill="#128A49"/>
<path fill-rule="evenodd" clip-rule="evenodd" d="M16.1738 13.2229L14.8303 14.1349L15.2826 12.5753L14 11.5794L15.623 11.5275L16.1738 10L16.7247 11.5275L18.3477 11.5794L17.0651 12.5753L17.5174 14.1349L16.1738 13.2229Z" fill="#128A49"/>
</svg>
