<svg width="27" height="24" viewBox="0 0 27 24" fill="none" xmlns="http://www.w3.org/2000/svg">
<path fill-rule="evenodd" clip-rule="evenodd" d="M0 19C0 20.1046 0.895431 21 2 21H24.2857C25.3903 21 26.2857 20.1046 26.2857 19V5C26.2857 3.89543 25.3903 3 24.2857 3H2C0.895432 3 0 3.89543 0 5V19Z" fill="#FE3030"/>
<path fill-rule="evenodd" clip-rule="evenodd" d="M0 13H13V3H2C0.89543 3 0 3.89543 0 5V13Z" fill="#0909B6"/>
<path fill-rule="evenodd" clip-rule="evenodd" d="M6.85714 9.28571L5.76376 10.4968L5.84699 8.8673L4.21749 8.95052L5.42857 7.85714L4.21749 6.76376L5.84699 6.84699L5.76376 5.21749L6.85714 6.42857L7.95052 5.21749L7.8673 6.84699L9.4968 6.76376L8.28571 7.85714L9.4968 8.95052L7.8673 8.8673L7.95052 10.4968L6.85714 9.28571Z" fill="white"/>
</svg>
