<svg width="24" height="24" viewBox="0 0 24 24" fill="none" xmlns="http://www.w3.org/2000/svg">
<rect y="3" width="24" height="18" rx="2" fill="white"/>
<path fill-rule="evenodd" clip-rule="evenodd" d="M22 4H2C1.44772 4 1 4.44772 1 5V19C1 19.5523 1.44772 20 2 20H22C22.5523 20 23 19.5523 23 19V5C23 4.44771 22.5523 4 22 4ZM2 3C0.895431 3 0 3.89543 0 5V19C0 20.1046 0.89543 21 2 21H22C23.1046 21 24 20.1046 24 19V5C24 3.89543 23.1046 3 22 3H2Z" fill="#D6D8DE"/>
<path fill-rule="evenodd" clip-rule="evenodd" d="M0 9H24V5C24 3.89543 23.1046 3 22 3H2C0.89543 3 0 3.89543 0 5V9Z" fill="#D9101C"/>
<path fill-rule="evenodd" clip-rule="evenodd" d="M0 19C0 20.1046 0.895431 21 2 21H22C23.1046 21 24 20.1046 24 19V15H0V19Z" fill="#0F7811"/>
<path d="M11.4286 10.8572C11.4286 11.1728 11.1727 11.4286 10.8571 11.4286C10.5416 11.4286 10.2857 11.1728 10.2857 10.8572C10.2857 10.5416 10.5416 10.2858 10.8571 10.2858C11.1727 10.2858 11.4286 10.5416 11.4286 10.8572Z" fill="#FAD14E"/>
<path d="M12.5714 12.0001C12.5714 12.1034 12.544 12.323 12.496 12.5715H13.1429C13.4584 12.5715 13.7143 12.8273 13.7143 13.1429C13.7143 13.4585 13.4584 13.7143 13.1429 13.7143H10.8571C10.5416 13.7143 10.2857 13.4585 10.2857 13.1429C10.2857 12.8273 10.5416 12.5715 10.8571 12.5715H11.504C11.456 12.323 11.4286 12.1034 11.4286 12.0001C11.4286 11.6845 11.6844 11.4286 12 11.4286C12.3156 11.4286 12.5714 11.6845 12.5714 12.0001Z" fill="#FAD14E"/>
<path d="M13.7143 10.8572C13.7143 11.1728 13.4584 11.4286 13.1429 11.4286C12.8273 11.4286 12.5714 11.1728 12.5714 10.8572C12.5714 10.5416 12.8273 10.2858 13.1429 10.2858C13.4584 10.2858 13.7143 10.5416 13.7143 10.8572Z" fill="#FAD14E"/>
<path d="M15.4286 12.5715C15.7442 12.5715 16 12.3156 16 12.0001C16 11.6845 15.7442 11.4286 15.4286 11.4286C15.113 11.4286 14.8571 11.6845 14.8571 12.0001C14.8571 12.3156 15.113 12.5715 15.4286 12.5715Z" fill="#FAD14E"/>
<path d="M9.14286 12.0001C9.14286 12.3156 8.88702 12.5715 8.57143 12.5715C8.25584 12.5715 8 12.3156 8 12.0001C8 11.6845 8.25584 11.4286 8.57143 11.4286C8.88702 11.4286 9.14286 11.6845 9.14286 12.0001Z" fill="#FAD14E"/>
</svg>
