<svg width="24" height="24" viewBox="0 0 24 24" fill="none" xmlns="http://www.w3.org/2000/svg">
<path d="M2 3C0.895431 3 0 3.89543 0 5V15L23.2001 3.39994C22.8658 3.14881 22.4503 3 22 3H2Z" fill="#33CC4D"/>
<path d="M2 21H22C23.1046 21 24 20.1046 24 19V9L0.799881 20.6001C1.13417 20.8512 1.5497 21 2 21Z" fill="#2DAFE4"/>
<path d="M1.08092 20.7768C1.35611 20.9194 1.66864 21 2 21H6.30001L24 9.38681V5.03953L22.9191 3.22322C22.6439 3.08058 22.3314 3 22 3H17.7L0 14.6132V18.9605L1.08092 20.7768Z" fill="#FFD84F"/>
<path d="M20.3256 3L0 16.3359V19C0 20.1046 0.89543 21 2 21H3.67465L24 7.66428V5C24 3.89543 23.1046 3 22 3H20.3256Z" fill="#262626"/>
</svg>
