<svg width="24" height="24" viewBox="0 0 24 24" fill="none" xmlns="http://www.w3.org/2000/svg">
<path fill-rule="evenodd" clip-rule="evenodd" d="M0 19C0 20.1046 0.895431 21 2 21H22C23.1046 21 24 20.1046 24 19V5C24 3.89543 23.1046 3 22 3H2C0.89543 3 0 3.89543 0 5V19Z" fill="#273474"/>
<path fill-rule="evenodd" clip-rule="evenodd" d="M22 4H2C1.44772 4 1 4.44772 1 5V19C1 19.5523 1.44772 20 2 20H22C22.5523 20 23 19.5523 23 19V5C23 4.44771 22.5523 4 22 4ZM2 3C0.895431 3 0 3.89543 0 5V19C0 20.1046 0.89543 21 2 21H22C23.1046 21 24 20.1046 24 19V5C24 3.89543 23.1046 3 22 3H2Z" fill="#C81A38"/>
<path fill-rule="evenodd" clip-rule="evenodd" d="M11.9652 6.26732C11.9652 6.26732 9.16302 8.49684 9.16302 10.8129C9.16302 13.1292 11.9652 15.4178 11.9652 15.4178C11.9652 15.4178 14.7493 13.2959 14.7493 10.8129C14.7493 8.33016 11.9652 6.26732 11.9652 6.26732Z" fill="#9FE0F9"/>
<path fill-rule="evenodd" clip-rule="evenodd" d="M9.47302 12.2265C10.2023 13.9779 11.965 15.4178 11.965 15.4178C11.965 15.4178 13.7592 14.0503 14.467 12.2264" fill="#4884CD"/>
<path fill-rule="evenodd" clip-rule="evenodd" d="M14.4768 11.7211C14.0448 12.0302 11.6141 11.8818 11.6141 11.8818L11.4782 12.2278L14.3724 12.2367C14.3845 12.1893 14.4135 12.1328 14.4235 12.0849L14.4768 11.7211" fill="#948120"/>
<path fill-rule="evenodd" clip-rule="evenodd" d="M11.002 14.2554C11.1116 14.1803 11.187 14.1218 11.2934 14.1185C11.5002 14.1122 11.5706 13.9843 11.8095 13.9844C12.081 14.0343 12.449 13.9518 12.6644 13.904C13.0468 13.8159 12.8655 13.5485 12.6339 13.4514C12.4469 13.3712 12.0962 13.4473 11.8786 13.3679C11.7141 13.3035 11.8498 13.201 11.9383 13.1792C12.0276 13.1628 12.1236 13.1923 12.2347 13.2105C12.4332 13.2279 12.6826 13.2094 12.8572 13.1823C13.2175 13.1271 13.2026 13.0213 13.3766 13.0189C13.5035 13.013 13.6002 12.9752 13.6867 12.9134C13.7885 12.8456 13.8944 12.7062 14.0175 12.7118L14.0899 12.7149C13.3297 14.1853 11.9647 15.1506 11.9647 15.1506C11.9647 15.1506 11.5236 14.8129 11.002 14.2554V14.2554ZM10.1275 13.1533C10.2506 13.1573 10.3732 13.1832 10.4833 13.2422C10.6801 13.3456 10.7942 13.3448 11.0063 13.3481C11.2283 13.3514 11.4026 13.5149 11.6426 13.5217C12.0846 13.534 12.2705 13.7536 11.9267 13.7535C11.7644 13.7533 11.4164 13.6443 11.2481 13.6671C10.9925 13.6931 10.8446 13.7126 10.6553 13.8631C10.475 13.6466 10.2947 13.4085 10.1275 13.1533" fill="#FADE35"/>
<path fill-rule="evenodd" clip-rule="evenodd" d="M12.7492 13.1783C12.7964 13.3608 12.8464 13.4228 13.0379 13.4696C13.2273 13.5164 13.5165 13.3324 13.3373 13.1539C13.1667 12.9878 12.987 12.9453 12.8342 12.7958C12.5972 12.5608 12.2721 12.0749 12.1175 11.6156C11.9487 11.1134 11.978 9.69957 11.9855 8.98335C11.9857 8.97505 12.0062 8.97009 12.0085 8.96662C12.0194 8.95089 12.0299 8.97183 12.0128 8.86675C12.0083 8.83987 11.9869 8.81211 11.9871 8.78485C11.9873 8.73628 11.8194 8.83788 11.7752 8.92449C11.7653 8.94432 11.8074 9.0007 11.8074 9.01185C11.8132 9.69895 11.7393 11.0556 11.9216 11.6697C12.0345 12.0499 12.2406 12.3435 12.4271 12.6152C12.5387 12.7893 12.7005 12.9771 12.7492 13.1783" fill="#87391B"/>
<path d="M12.9589 10.8201L12.9595 10.5049L13.0215 10.5055L13.0832 10.5061L13.1667 10.7573C13.2125 10.8954 13.2527 11.0171 13.2559 11.0278C13.2592 11.0383 13.262 11.0466 13.2624 11.0463C13.2629 11.0459 13.2732 11.016 13.2854 10.9798C13.2978 10.9438 13.3395 10.8226 13.3783 10.7105L13.4489 10.5067L13.5043 10.5064L13.5597 10.5061L13.559 10.8212L13.5584 11.1364L13.5193 11.1363H13.4802L13.4807 10.8714C13.4809 10.7258 13.4806 10.6075 13.4796 10.6084C13.4788 10.6093 13.44 10.7194 13.3934 10.853C13.347 10.9866 13.3056 11.1049 13.3018 11.1159L13.2947 11.1358H13.2208L13.1308 10.8689C13.0814 10.7222 13.0403 10.601 13.0394 10.5994C13.0386 10.598 13.0377 10.718 13.0374 10.8662L13.0368 11.1353H12.9977L12.9586 11.1352L12.9589 10.8201ZM12.4778 10.8749C12.4774 10.8732 12.4591 10.8245 12.4374 10.7666C12.4158 10.7088 12.3913 10.6417 12.3833 10.6173C12.3753 10.593 12.3684 10.5727 12.368 10.5723C12.3675 10.5718 12.3645 10.5825 12.3613 10.5959C12.3506 10.6406 12.3403 10.6712 12.3023 10.7717C12.2818 10.8266 12.2642 10.8728 12.2637 10.8745C12.2624 10.8775 12.2683 10.8776 12.3705 10.8778C12.4725 10.878 12.4785 10.8778 12.4778 10.8749V10.8749ZM12.086 11.1261C12.088 11.121 12.1426 10.9795 12.2073 10.8116L12.3254 10.5064L12.3696 10.5061L12.4139 10.5056L12.5411 10.8179C12.611 10.9897 12.6686 11.1317 12.6692 11.1334C12.6704 11.1363 12.6676 11.1365 12.6242 11.1365L12.5777 11.1363L12.5696 11.1154C12.5652 11.104 12.5489 11.0611 12.5333 11.0205L12.5051 10.9466L12.3717 10.946L12.2385 10.9452L12.2038 11.0404L12.1692 11.1357L12.1257 11.1355H12.0825L12.086 11.1261ZM11.3942 11.1437C11.3336 11.1371 11.2866 11.1176 11.2531 11.0851C11.2226 11.0556 11.2051 11.019 11.1959 10.9656C11.1895 10.9273 11.1891 10.9075 11.1894 10.7034L11.1897 10.5035L11.2307 10.5036H11.2716L11.2718 10.7168C11.2721 10.9437 11.2721 10.94 11.2806 10.9741C11.2917 11.0177 11.3241 11.05 11.3705 11.0635C11.4075 11.0743 11.4577 11.0745 11.4999 11.064C11.55 11.0514 11.5769 11.0245 11.5904 10.9735C11.601 10.9344 11.6007 10.9381 11.6019 10.7122L11.603 10.5042L11.644 10.5044H11.6848L11.6843 10.6972C11.6842 10.8082 11.6833 10.9008 11.6822 10.9157C11.6752 11.0134 11.6498 11.0663 11.5906 11.1063C11.5672 11.1223 11.5355 11.1343 11.5007 11.1408C11.4854 11.1436 11.4116 11.1456 11.3942 11.1437V11.1437ZM10.6541 11.138C10.5702 11.1284 10.4949 11.0913 10.4494 11.0372C10.4111 10.9917 10.3863 10.9318 10.3781 10.8643C10.3755 10.8421 10.3755 10.7895 10.3784 10.7682C10.3881 10.6947 10.4171 10.6262 10.4587 10.5791C10.5296 10.4985 10.677 10.466 10.7967 10.5047C10.8721 10.529 10.9169 10.5751 10.9424 10.6541C10.9461 10.665 10.9486 10.6743 10.9483 10.6748C10.9475 10.6754 10.8832 10.6929 10.8783 10.6938C10.8756 10.6943 10.8742 10.6916 10.87 10.6793C10.8581 10.6443 10.8399 10.6153 10.8198 10.5992C10.776 10.5642 10.7142 10.5514 10.6416 10.5624C10.5952 10.5695 10.5491 10.5933 10.5227 10.6239C10.4829 10.6698 10.4633 10.7261 10.4608 10.8005C10.4585 10.8741 10.4718 10.9302 10.5026 10.9766C10.5526 11.052 10.6688 11.0858 10.7723 11.0548C10.8053 11.0449 10.8413 11.0278 10.8668 11.0097L10.8784 11.0013L10.8786 10.9418V10.8821L10.7852 10.882L10.6917 10.8818L10.6918 10.8453V10.8088L10.8254 10.8091L10.959 10.8093L10.9588 10.9256L10.9585 11.0419L10.9439 11.0527C10.8836 11.0969 10.8234 11.1236 10.7589 11.1351C10.7351 11.1393 10.6781 11.1408 10.6541 11.138V11.138" fill="#BE1D2A"/>
<path fill-rule="evenodd" clip-rule="evenodd" d="M10.2237 8.78029C10.2356 8.79669 10.2338 8.86736 10.2338 8.86736C10.2436 8.87328 10.4016 8.73294 10.4016 8.73922C10.4017 8.7687 10.4053 8.82962 10.4053 8.82962C10.4053 8.82962 10.5689 8.67411 10.5758 8.69051C10.5833 8.70889 10.575 8.79904 10.575 8.79904C10.575 8.79904 10.6839 8.67904 10.7039 8.65746C10.7183 8.64192 10.716 8.67695 10.7173 8.73331C10.7177 8.74342 10.8958 8.60197 10.9066 8.59938C10.9297 8.59444 10.9367 8.67288 10.9355 8.69249C10.9345 8.70704 11.0999 8.59814 11.0926 8.61257L11.1048 8.69618C11.1509 8.6899 11.2607 8.64895 11.3267 8.65956C11.3479 8.66301 11.3468 8.67362 11.328 8.68139C11.0097 8.81014 10.7649 9.00437 10.6225 9.27496C10.5739 9.36711 10.559 9.44752 10.5718 9.46777C10.5718 9.46777 10.629 9.3447 10.6935 9.32537C10.7022 9.3229 10.7078 9.40423 10.7167 9.39959C10.7167 9.39959 10.7656 9.27621 10.8008 9.23074C10.8103 9.21853 10.8261 9.29553 10.8361 9.28409C10.8361 9.28409 10.8615 9.20153 10.9111 9.14401C10.9182 9.13581 10.9311 9.22208 10.9388 9.21482C10.9904 9.16735 11.0388 9.04827 11.0582 9.03952C11.0716 9.02891 11.074 9.13843 11.0867 9.12901C11.0867 9.12901 11.1602 8.98155 11.2041 8.95479C11.2322 8.9374 11.2312 9.03532 11.2312 9.03532C11.2871 8.98007 11.3487 8.88857 11.378 8.84886C11.3914 8.83061 11.3841 8.96947 11.3984 8.97489C11.4168 8.98192 11.5374 8.86847 11.551 8.86612C11.56 8.86464 11.5706 8.89844 11.547 8.92569C11.5452 8.92791 11.398 9.0976 11.398 9.0976C11.4266 9.10303 11.4378 9.09501 11.4583 9.10044C11.5193 9.11647 11.3438 9.21714 11.3468 9.23599C11.3468 9.23599 11.4314 9.23445 11.4031 9.25084C11.3827 9.26274 11.2709 9.4067 11.2709 9.4016C11.2709 9.39897 11.327 9.40284 11.3267 9.41891C11.3262 9.44876 11.2338 9.6026 11.2328 9.60167C11.2278 9.59657 11.2825 9.59503 11.2899 9.61018C11.3035 9.63816 11.195 9.76262 11.2162 9.78381C11.2191 9.78674 11.2782 9.78475 11.3045 9.79063C11.3171 9.79339 11.3527 10.0167 11.3437 10.0077C11.3417 10.0055 11.3817 9.79835 11.4061 9.73526C11.4209 9.69708 11.4684 9.79293 11.4722 9.78443C11.4702 9.78443 11.4627 9.64821 11.4692 9.58621C11.4711 9.56889 11.5054 9.60431 11.5049 9.58776C11.5035 9.55018 11.5006 9.50998 11.5082 9.47334C11.514 9.44566 11.5432 9.52329 11.5544 9.50241C11.5544 9.50241 11.5192 9.36758 11.5339 9.32955C11.5437 9.3045 11.5672 9.39015 11.5826 9.39355C11.5826 9.39355 11.5739 9.28873 11.5902 9.26167L11.6392 9.31423C11.6498 9.29738 11.6478 9.13411 11.6578 9.11881C11.6659 9.10599 11.7167 9.18003 11.7244 9.16844C11.7312 9.15792 11.7028 9.03668 11.7092 9.02706C11.7182 9.01337 11.774 9.06085 11.7751 9.05986C11.7978 9.03705 11.797 8.97995 11.8066 8.95874C11.8323 8.90139 11.9794 8.89399 11.9968 8.93481C12.0053 8.95455 11.9995 8.98007 11.9961 9.01091C11.9974 9.01214 12.0698 9.01732 12.0704 9.01177C12.0704 9.01177 12.0618 9.07935 12.0669 9.15375C12.0676 9.16364 12.1404 9.15127 12.1412 9.16117C12.1479 9.23121 12.1318 9.23771 12.1318 9.23771C12.1323 9.24281 12.1808 9.23029 12.1815 9.2357C12.1868 9.26986 12.1759 9.31146 12.1542 9.3515C12.151 9.35722 12.2235 9.34594 12.2246 9.35258C12.2335 9.40514 12.2351 9.4469 12.2259 9.52112C12.2252 9.52715 12.2969 9.46871 12.298 9.47474C12.3088 9.5372 12.2962 9.60461 12.3028 9.66924C12.3044 9.68424 12.3503 9.62456 12.3544 9.64188C12.3585 9.65888 12.3442 9.78257 12.3512 9.78953C12.3512 9.78953 12.4281 9.78567 12.4349 9.79216C12.4958 9.84938 12.4842 9.94926 12.4842 9.94926C12.501 9.93689 12.4945 9.8166 12.4776 9.7065C12.4758 9.6949 12.5367 9.69939 12.5349 9.68857C12.5349 9.68857 12.468 9.64836 12.4462 9.53642C12.4415 9.51246 12.5106 9.51741 12.5106 9.51741C12.4913 9.47334 12.4578 9.46499 12.4291 9.42263C12.4199 9.40871 12.501 9.40237 12.501 9.39835C12.501 9.35614 12.4325 9.33605 12.3971 9.29212C12.3819 9.27342 12.471 9.27249 12.471 9.27249C12.4448 9.23616 12.3588 9.22023 12.3149 9.17215C12.2909 9.14602 12.4022 9.12029 12.4008 9.11585C12.3886 9.07738 12.2839 9.06529 12.2332 9.02188C12.2227 9.01288 12.2994 8.98254 12.2994 8.98254C12.2917 8.96614 12.1246 8.85626 12.2095 8.86637C12.2454 8.87069 12.3183 8.92162 12.324 8.91397C12.324 8.91397 12.3209 8.84972 12.3283 8.84208C12.3563 8.81297 12.4527 8.9654 12.4855 8.95923C12.4855 8.95923 12.4976 8.85009 12.5124 8.84713C12.5477 8.84047 12.5906 9.0061 12.6255 9.0061C12.6301 9.0061 12.6327 8.9104 12.6507 8.90509C12.671 8.8993 12.6936 9.01239 12.7194 9.03742C12.7432 9.06048 12.7434 8.949 12.7573 8.97021C12.781 9.00437 12.7867 9.07565 12.8191 9.1071C12.8401 9.12746 12.844 9.00869 12.8673 9.02459C12.8944 9.04309 12.8881 9.10463 12.9184 9.13488C12.933 9.14926 12.9428 9.05653 12.9592 9.0701C12.974 9.08206 12.9839 9.1955 12.9997 9.21344C13.0198 9.23632 13.043 9.15359 13.0638 9.16674C13.0788 9.17632 13.0753 9.2745 13.0892 9.29553C13.1177 9.33913 13.1325 9.24281 13.1514 9.25765C13.1644 9.2677 13.1929 9.38057 13.2049 9.38953C13.2313 9.40963 13.2458 9.3382 13.2659 9.34826C13.2805 9.35536 13.3098 9.50071 13.3219 9.497C13.3297 9.49453 13.3493 9.16581 13.2228 9.02706C13.0167 8.80101 12.6476 8.67053 12.3464 8.66733C12.3464 8.66733 12.4977 8.63711 12.5018 8.61208C12.5098 8.56213 12.5849 8.56805 12.6375 8.57952C12.6466 8.58149 12.6418 8.49122 12.6429 8.49073C12.6898 8.48962 12.7317 8.51737 12.7765 8.5445C12.7904 8.55301 12.7482 8.4541 12.7631 8.46261C12.8206 8.49591 12.8846 8.50553 12.9235 8.54598C12.9337 8.55658 12.9117 8.46976 12.9117 8.46976C12.9405 8.46273 12.9972 8.50417 13.0195 8.54302C13.0303 8.56213 13.0188 8.44177 13.0273 8.4631C13.0273 8.4631 13.1276 8.49714 13.1384 8.53932C13.1384 8.53932 13.1465 8.46286 13.16 8.46693C13.2002 8.47741 13.2355 8.54536 13.2669 8.5551C13.2669 8.5551 13.2538 8.48703 13.264 8.48962C13.3395 8.50873 13.4214 8.55535 13.4213 8.5551C13.3788 8.44868 13.2175 8.33719 12.9337 8.30735C12.8817 8.30192 12.6703 8.29329 12.4911 8.33485C12.3442 8.36889 12.2283 8.38825 12.2521 8.36506C12.3491 8.26998 12.5061 8.25839 12.5493 8.23619C12.5801 8.22053 12.4452 8.16836 12.472 8.16096C12.4985 8.15455 12.6192 8.14456 12.6192 8.14456C12.6452 8.12409 12.5315 8.08426 12.5484 8.05454C12.5825 7.99509 12.7837 8.04911 12.8009 8.02654C12.8063 8.01902 12.7144 7.96463 12.7182 7.95649C12.7329 7.9264 12.912 7.97881 12.9162 7.95255C12.9162 7.95255 12.8618 7.91197 12.8232 7.8788C12.8186 7.87473 12.9831 7.83058 12.9831 7.83058C12.9801 7.82737 12.9549 7.80986 12.9173 7.79506C12.8828 7.78162 13.0617 7.73513 13.0617 7.73513C12.835 7.63154 12.2467 7.92628 12.1299 8.23212C12.0997 8.305 12.0988 8.22571 12.105 8.16392C12.1111 8.09745 12.1194 8.03912 12.1122 7.97807C12.1101 7.95995 12.0643 8.02617 12.0611 8.00854C12.0493 7.94354 12.0841 7.87226 12.0682 7.80024C12.0629 7.77595 12.002 7.87177 11.994 7.84748C11.9718 7.78088 12.0107 7.68716 11.995 7.5954C11.9888 7.55952 11.9311 7.67223 11.9118 7.64005C11.8893 7.6028 11.899 7.46468 11.8884 7.44384C11.8797 7.42707 11.8285 7.51006 11.8242 7.4944C11.7546 7.24122 11.847 7.20977 11.7134 7.35246C11.7087 7.35739 11.679 7.20274 11.6739 7.20804C11.6192 7.3252 11.5295 7.12456 11.499 7.1433C11.4761 7.15748 11.5615 7.23505 11.5623 7.27008C11.5628 7.28685 11.4838 7.28796 11.4838 7.28796C11.4855 7.31694 11.6341 7.39796 11.6389 7.42966C11.6427 7.45568 11.5337 7.44927 11.5337 7.44927C11.5371 7.48466 11.661 7.51833 11.6678 7.55594C11.6717 7.57666 11.6098 7.58122 11.6118 7.60231C11.6151 7.63462 11.7315 7.6985 11.7354 7.73143C11.738 7.75424 11.661 7.76374 11.6591 7.78507C11.6568 7.81085 11.8137 7.89742 11.8139 7.92172C11.814 7.95612 11.7514 7.93849 11.7229 7.95575C11.683 7.98005 11.8514 8.07834 11.8586 8.10633C11.8641 8.131 11.7911 8.10929 11.7886 8.13173C11.7856 8.16109 11.8713 8.20548 11.8909 8.25592C11.9105 8.30562 11.8904 8.31832 11.8623 8.29859C11.8059 8.25876 11.5783 8.01704 11.5178 7.95255C11.43 7.85882 11.2502 7.75387 11.0708 7.74771C11.052 7.75338 11.1673 7.8349 11.1681 7.86437C11.1682 7.87202 11.1162 7.88324 11.1185 7.88558C11.1504 7.9174 11.2495 7.95526 11.2495 7.95526L11.2211 8.00644C11.2278 8.02148 11.2748 8.02555 11.3501 8.05022C11.3501 8.05022 11.2936 8.08524 11.2978 8.08845C11.3376 8.12027 11.415 8.14382 11.415 8.14382L11.3389 8.16935C11.3344 8.18402 11.5101 8.25432 11.5101 8.25432C11.5101 8.25432 11.4552 8.30167 11.4576 8.30414C11.4711 8.31758 11.6002 8.34743 11.6002 8.34743C11.6023 8.34952 11.5089 8.37863 11.5097 8.37924C11.5435 8.41316 11.6368 8.42413 11.6587 8.48012C11.6587 8.48012 11.6715 8.51194 11.6345 8.5059C11.4892 8.45312 11.264 8.34397 10.8276 8.38689C10.3814 8.44498 10.0414 8.83295 10.0473 8.87155C10.0473 8.87155 10.2068 8.75711 10.2237 8.78029" fill="#2D973F"/>
<path fill-rule="evenodd" clip-rule="evenodd" d="M10.761 12.8846C10.761 12.8846 11.0163 12.9171 11.3103 12.8846C11.3103 12.8846 11.318 12.9402 11.3045 12.9614C11.2911 12.9826 10.9521 12.9988 10.7811 12.9691C10.7535 12.9603 10.7527 12.9266 10.761 12.8846V12.8846ZM10.2745 12.6887C10.2745 12.6887 11.208 12.7598 11.7804 12.6369C11.7804 12.6369 11.8284 12.6695 11.7593 12.7502C11.6903 12.8307 11.5154 12.8481 11.4193 12.8653C11.4193 12.8653 11.3963 12.9171 11.3981 12.9441C11.4001 12.971 11.4587 12.9682 11.4875 12.9624L11.5162 12.9566C11.5162 12.9566 11.5028 13.0574 11.1495 13.0708C11.0336 13.0754 10.6513 13.0834 10.5703 12.9701C10.5703 12.9701 10.6404 12.9758 10.6585 12.9701C10.6768 12.9643 10.6635 12.8913 10.6567 12.8806C10.6501 12.8702 10.4088 12.8806 10.2822 12.7635C10.2508 12.7301 10.2359 12.6946 10.2359 12.6818C10.2359 12.6808 10.2745 12.6887 10.2745 12.6887" fill="#87391B"/>
<path fill-rule="evenodd" clip-rule="evenodd" d="M10.4045 12.6432C10.4045 12.6432 10.7508 12.2748 10.6447 11.5064C10.6447 11.5064 11.0057 11.5994 11.3735 12.1302C11.3735 12.1302 11.4808 12.238 11.6069 12.6223L10.4045 12.6432" fill="#FEFAFD"/>
<path fill-rule="evenodd" clip-rule="evenodd" d="M11.9647 6.53424C11.9647 6.53424 9.32614 8.49841 9.32614 10.8144C9.32614 13.1308 11.9647 15.1506 11.9647 15.1506C11.9647 15.1506 14.5862 13.2974 14.5862 10.8144C14.5862 8.33173 11.9647 6.53424 11.9647 6.53424ZM11.9658 5.99999C11.9658 5.99999 9 8.20774 9 10.811C9 13.4146 11.9658 15.6848 11.9658 15.6848C11.9658 15.6848 14.9124 13.6019 14.9124 10.811C14.9124 8.0203 11.9658 5.99999 11.9658 5.99999Z" fill="#C81A38"/>
</svg>
