<svg width="24" height="24" viewBox="0 0 24 24" fill="none" xmlns="http://www.w3.org/2000/svg">
<rect y="3" width="24" height="18" rx="2" fill="white"/>
<path fill-rule="evenodd" clip-rule="evenodd" d="M22 4H2C1.44772 4 1 4.44772 1 5V19C1 19.5523 1.44772 20 2 20H22C22.5523 20 23 19.5523 23 19V5C23 4.44771 22.5523 4 22 4ZM2 3C0.895431 3 0 3.89543 0 5V19C0 20.1046 0.89543 21 2 21H22C23.1046 21 24 20.1046 24 19V5C24 3.89543 23.1046 3 22 3H2Z" fill="#D6D8DE"/>
<path d="M12.7955 7C13.7704 7 14.5607 7.79031 14.5607 8.76514H18.4439C18.4439 9.72486 17.6079 10.503 16.6481 10.503H16.706C16.706 11.4338 15.9744 12.1936 15.0549 12.2389V9.63309H10.5362V12.2389C9.61673 12.1936 8.8852 11.4337 8.8852 10.503H8.94299C7.9832 10.503 7.14716 9.72492 7.14716 8.76514H11.0304C11.0304 7.79031 11.8207 7 12.7955 7Z" fill="#FFDA44"/>
<path d="M11.7095 14.4782L10.9252 16.249C11.5027 16.4838 12.1338 16.6142 12.7955 16.6142C13.4573 16.6142 14.0885 16.4837 14.6658 16.249L13.8816 14.4782C13.3317 14.8071 12.7956 14.9328 12.7956 14.9328C12.7956 14.9328 12.2594 14.8071 11.7095 14.4782Z" fill="#FFDA44"/>
<path d="M4.92282 11.9707L6.14477 15.3884L7.35398 11.9707H8.2768L6.51386 16.4894H5.77561L4 11.9707H4.92282ZM19.1217 16.4894V11.9708H20V16.4894H19.1217Z" fill="#338AF3"/>
<path d="M11.4399 10.615V14.2994C11.7506 14.5279 12.0847 14.6853 12.3436 14.7859V10.615H11.4399ZM14.1512 10.615V14.2994C13.8405 14.5279 13.5064 14.6853 13.2475 14.7859V10.615H14.1512Z" fill="#D80027"/>
<path d="M15.0554 9.63293H10.5364V11.0665H15.0554V9.63293Z" fill="#0052B4"/>
</svg>
