<svg xmlns="http://www.w3.org/2000/svg" viewBox="0 0 24 24">
  <defs/>
  <path d="M6.392 7.968a4.464 4.464 0 118.871 0 .963.963 0 01-.67.792 6.806 6.806 0 00-5.215 3.776c-.278.46-.907.78-1.303.436a4.191 4.191 0 01-1.42-2.698l-.263-2.306zM10.13 19.672a6.767 6.767 0 01-1.414-3.703c-.106-.525-.578-.936-1.108-.812a6.001 6.001 0 00-4.491 4.541l-.1.45A.7.7 0 003.7 21h5.583a.934.934 0 00.847-1.328z"/>
  <path fill-rule="evenodd" d="M21 15.5a5.5 5.5 0 11-11 0 5.5 5.5 0 0111 0zm-5.878-1.78c-.197 0-.327.046-.411.118-.036.03-.071.064-.107.097-.152.143-.31.29-.507.258l-.15-.025c-.34-.055-.603-.357-.482-.678a1.65 1.65 0 011.544-1.07h.81a1.821 1.821 0 011.366 3.028 1.897 1.897 0 01-1.441 3.131h-.735c-.706 0-1.305-.41-1.542-1.015-.125-.32.141-.623.48-.678l.267-.043c.182-.03.362.124.491.256.102.105.25.18.417.18h.622a.597.597 0 00.3-1.113.632.632 0 00-.318-.086h-.356a.65.65 0 110-1.3h.38a.672.672 0 00.308-.074.521.521 0 00-.238-.985h-.698z"/>
</svg>
