<svg xmlns="http://www.w3.org/2000/svg" viewBox="0 0 24 24">
  <defs/>
  <path d="M6.392 7.968a4.464 4.464 0 118.871 0l-.027.242a.631.631 0 01-.56.54c-.408.049-.778-.282-.732-.69l.027-.239a3.164 3.164 0 10-6.287 0l.262 2.306c.087.769.47 1.44 1.027 1.903.253.21.369.563.243.868-.143.343-.546.525-.848.307a4.194 4.194 0 01-1.714-2.931l-.262-2.306zM8.702 15.672c-.008-.354-.296-.656-.647-.602a6.001 6.001 0 00-4.938 4.628l-.1.45A.7.7 0 003.7 21h5.953a.65.65 0 100-1.3H4.457a4.702 4.702 0 013.658-3.321.714.714 0 00.587-.707zM14.71 13.838c.085-.072.215-.117.412-.117h.698a.521.521 0 01.238.985.672.672 0 01-.307.074h-.38a.65.65 0 100 1.3h.355c.112 0 .221.03.318.086a.597.597 0 01-.3 1.113h-.622a.587.587 0 01-.417-.18c-.129-.132-.309-.285-.491-.256l-.267.043c-.339.055-.605.358-.48.678.237.605.836 1.015 1.542 1.015h.735a1.897 1.897 0 001.44-3.13 1.821 1.821 0 00-1.364-3.028h-.811a1.65 1.65 0 00-1.544 1.069c-.121.32.143.623.481.678l.151.025c.197.032.355-.115.507-.258.036-.033.071-.066.107-.097z"/>
  <path fill-rule="evenodd" d="M15.5 21a5.5 5.5 0 100-11 5.5 5.5 0 000 11zm0-1.3a4.2 4.2 0 100-8.4 4.2 4.2 0 000 8.4z"/>
</svg>
