<svg xmlns="http://www.w3.org/2000/svg" viewBox="0 0 24 24">
  <defs/>
  <path fill-rule="evenodd" d="M5.3 10.704a1.3 1.3 0 00-1.3 1.3V19.7A1.3 1.3 0 005.3 21h11.116a3 3 0 002.91-2.271l1.313-5.244a3 3 0 00-2.91-3.729H15.58l.334-1.3.229-.889V6.545a2.413 2.413 0 10-4.825 0v.098a2.51 2.51 0 01-.6 1.627l-2.073 2.434H5.3zm4.158 1.053l2.251-2.644a3.81 3.81 0 00.91-2.47v-.098a1.113 1.113 0 012.225 0v.857l-.522 2.03a1.3 1.3 0 001.259 1.624h2.148a1.7 1.7 0 011.649 2.113l-1.313 5.244a1.7 1.7 0 01-1.649 1.287H9.458v-7.943z"/>
</svg>
