<svg xmlns="http://www.w3.org/2000/svg" viewBox="0 0 24 24">
  <defs/>
  <path fill-rule="evenodd" d="M9.45 10.674V18.617h6.96a1.7 1.7 0 001.648-1.287l1.313-5.244a1.7 1.7 0 00-1.649-2.113h-2.148a1.3 1.3 0 01-1.259-1.623l.522-2.03v-.857a1.113 1.113 0 00-2.225 0v.097a3.81 3.81 0 01-.91 2.47l-2.251 2.644zm-.81-1.052l2.073-2.434a2.51 2.51 0 00.599-1.628v-.097a2.413 2.413 0 114.825 0v1.021l-.229.89-.334 1.3h2.148a3 3 0 012.91 3.728l-1.313 5.244a3 3 0 01-2.91 2.271H5.293a1.3 1.3 0 01-1.3-1.3v-7.695a1.3 1.3 0 011.3-1.3H8.64zm-.519 1.3v7.695H5.293v-7.695h2.828z"/>
</svg>
