<svg xmlns="http://www.w3.org/2000/svg" viewBox="0 0 24 24">
  <defs/>
  <path fill-rule="evenodd" d="M15.542 4H19.7A1.3 1.3 0 0121 5.3v7.696a1.3 1.3 0 01-1.3 1.3h-3.346l-2.073 2.434a2.51 2.51 0 00-.6 1.627v.098a2.413 2.413 0 11-4.824 0v-1.022l.563-2.19H7.271a3 3 0 01-2.91-3.728l1.312-5.244A3 3 0 018.584 4h6.958zm0 9.244V5.3H8.584a1.7 1.7 0 00-1.649 1.287l-1.313 5.244a1.7 1.7 0 001.65 2.113h2.147a1.3 1.3 0 011.26 1.624l-.523 2.03v.857a1.113 1.113 0 002.226 0v-.098c0-.905.322-1.781.91-2.47l2.25-2.643zm1.33-.248V5.3H19.7v7.696h-2.828z"/>
</svg>
