<svg xmlns="http://www.w3.org/2000/svg" viewBox="0 0 24 24">
  <defs/>
  <path fill-rule="evenodd" d="M19.43 14.296a1.3 1.3 0 001.3-1.3V5.3a1.3 1.3 0 00-1.3-1.3H8.314a3 3 0 00-2.91 2.271l-1.313 5.244a3 3 0 002.91 3.729H9.15l-.334 1.3-.229.889v1.021a2.413 2.413 0 104.826 0v-.097c0-.596.212-1.173.599-1.627l2.073-2.434h3.346zm-4.158-1.052l-2.25 2.643a3.81 3.81 0 00-.91 2.47v.098a1.113 1.113 0 01-2.226 0v-.857l.522-2.03a1.3 1.3 0 00-1.259-1.624H7.001a1.7 1.7 0 01-1.649-2.113l1.313-5.244A1.7 1.7 0 018.315 5.3h6.957v7.944z"/>
</svg>
