<svg width="24" height="24" viewBox="0 0 24 24" fill="none" xmlns="http://www.w3.org/2000/svg">
<rect y="3" width="24" height="18" rx="2" fill="#FF323E"/>
<path d="M0.738912 3.44763C0.288041 3.81435 0 4.37355 0 5.00002V19C0 19.6265 0.288041 20.1857 0.738912 20.5524L14.8571 12L0.738912 3.44763Z" fill="#FFCC51"/>
<path d="M0.625412 3.54724C0.240267 3.91179 0 4.42784 0 5.00001V19C0 19.5722 0.240267 20.0882 0.625411 20.4528L10.2857 12L0.625412 3.54724Z" fill="#262626"/>
<path fill-rule="evenodd" clip-rule="evenodd" d="M5.09478 12.7419L4.33682 14.487L3.94097 12.6146L2.12613 12.3969L3.69976 11.423L3.33608 9.54346L4.70449 10.8139L6.29457 9.86995L5.56666 11.6291L6.91306 12.9252L5.09478 12.7419Z" fill="white"/>
</svg>
