<svg xmlns="http://www.w3.org/2000/svg" viewBox="0 0 24 24">
  <defs/>
  <path d="M4 17.906a.628.628 0 01.63-.604l3.455.006-1.451-1.337a.624.624 0 01-.007-.886.633.633 0 01.886-.007l2.528 2.455a.671.671 0 01-.036 1l-2.693 2.383a.604.604 0 01-.43.149.62.62 0 01-.454-.219.633.633 0 01.07-.883l1.549-1.405s-1.785.01-3.426-.001a.626.626 0 01-.62-.65z"/>
  <path fill-rule="evenodd" d="M12.623 3a4.464 4.464 0 014.436 4.968l-.262 2.306a4.2 4.2 0 01-8.347 0l-.262-2.306A4.464 4.464 0 0112.623 3zm-2.881 7.127L9.48 7.821a3.164 3.164 0 116.287 0l-.262 2.306a2.9 2.9 0 01-5.763 0z"/>
  <path d="M14.477 15a6 6 0 015.857 4.698l.1.45a.7.7 0 01-.683.852h-7.785a.65.65 0 110-1.3h7.028a4.7 4.7 0 00-4.517-3.4h-2.51a.65.65 0 110-1.3h2.51z"/>
</svg>
