<svg width="24" height="24" viewBox="0 0 24 24" fill="none" xmlns="http://www.w3.org/2000/svg">
<rect y="3" width="24" height="18" rx="2" fill="#062365"/>
<path d="M22.3302 17.4575L4.75267 17.2616C4.42218 17.0601 4.61497 16.8605 4.75267 16.7859L22.197 16.9398L22.6501 17.2336L22.3302 17.4575Z" fill="#F8D147"/>
<path d="M22.6901 16.6879L4.87268 16.534C5.87661 15.9836 8.14377 14.4174 9.63022 13.0638C11.1361 11.6925 16.48 8.11038 19.3585 6.83704C16.0269 10.3352 20.0248 16.576 22.6901 16.576V16.6879Z" fill="#F8D147"/>
<path d="M5.05927 6.72522L5.19989 7.17965L5.65495 7.17965L5.2868 7.46051L5.42742 7.91494L5.05927 7.63408L4.69111 7.91494L4.83173 7.46051L4.46358 7.17965L4.91864 7.17965L5.05927 6.72522Z" fill="white"/>
<path d="M5.05929 14.0854L5.21786 14.5978H5.73102L5.31586 14.9146L5.47444 15.427L5.05929 15.1103L4.64413 15.427L4.80271 14.9146L4.38755 14.5978H4.90071L5.05929 14.0854Z" fill="white"/>
<path d="M2.34062 9.57974L2.48124 10.0342H2.93631L2.56815 10.315L2.70878 10.7695L2.34062 10.4886L1.97247 10.7695L2.11309 10.315L1.74493 10.0342H2.2L2.34062 9.57974Z" fill="white"/>
<path d="M7.40462 8.99203L7.51532 9.34977H7.87357L7.58374 9.57087L7.69445 9.92861L7.40462 9.70752L7.1148 9.92861L7.2255 9.57087L6.93568 9.34977H7.29392L7.40462 8.99203Z" fill="white"/>
</svg>
