<svg width="24" height="24" viewBox="0 0 24 24" fill="none" xmlns="http://www.w3.org/2000/svg">
<rect y="3" width="24" height="18" rx="2" fill="white"/>
<path fill-rule="evenodd" clip-rule="evenodd" d="M22 4H2C1.44772 4 1 4.44772 1 5V19C1 19.5523 1.44772 20 2 20H22C22.5523 20 23 19.5523 23 19V5C23 4.44771 22.5523 4 22 4ZM2 3C0.895431 3 0 3.89543 0 5V19C0 20.1046 0.89543 21 2 21H22C23.1046 21 24 20.1046 24 19V5C24 3.89543 23.1046 3 22 3H2Z" fill="#D6D8DE"/>
<path d="M0 13H14V3H22C23.1046 3 24 3.89543 24 5V19C24 20.1046 23.1046 21 22 21H2C0.89543 21 0 20.1046 0 19V13Z" fill="#D20D17"/>
<path d="M6.04762 4.57144C5.86352 4.57144 5.71429 4.72068 5.71429 4.90477V6.85715H3.7619C3.57781 6.85715 3.42857 7.00639 3.42857 7.19049V8.80953C3.42857 8.99363 3.57781 9.14287 3.7619 9.14287H5.71429V11.0952C5.71429 11.2793 5.86352 11.4286 6.04762 11.4286H7.66667C7.85076 11.4286 8 11.2793 8 11.0952V9.14287H9.95238C10.1365 9.14287 10.2857 8.99363 10.2857 8.80953V7.19049C10.2857 7.00639 10.1365 6.85715 9.95238 6.85715H8V4.90477C8 4.72068 7.85076 4.57144 7.66667 4.57144H6.04762Z" fill="url(#paint0_linear_72961_154182)"/>
<defs>
<linearGradient id="paint0_linear_72961_154182" x1="3.42857" y1="4.57141" x2="3.42857" y2="11.4286" gradientUnits="userSpaceOnUse">
<stop stop-color="#DF101B"/>
<stop offset="1" stop-color="#C00711"/>
</linearGradient>
</defs>
</svg>
