<svg xmlns="http://www.w3.org/2000/svg" viewBox="0 0 24 24">
  <defs/>
  <path fill-rule="evenodd" d="M12 3a9 9 0 100 18 9 9 0 000-18zm-1.133 8.823c-.13.14-.3.21-.48.21-.16 0-.31-.05-.44-.17l-2.71-2.575a.698.698 0 010-1.04l2.71-2.465c.27-.24.68-.22.92.04.24.27.23.68-.04.92l-1.55 1.375c1.849 0 2.492.004 3.257.008.625.004 1.331.009 2.842.012a.65.65 0 01-.002 1.3L9.273 9.42l1.554 1.482c.26.24.28.65.04.92zm2.274 6.349c.13.14.3.21.48.21.16 0 .31-.05.44-.17l2.71-2.576c.31-.28.31-.76 0-1.04l-2.71-2.464a.658.658 0 00-.92.04.65.65 0 00.04.92l1.55 1.374c-1.817 0-2.462.004-3.203.01-.629.003-1.327.008-2.87.01a.65.65 0 00.002 1.3l6.076-.017-1.555 1.483c-.26.24-.28.65-.04.92z"/>
</svg>
