<svg xmlns="http://www.w3.org/2000/svg" viewBox="0 0 24 24">
  <defs/>
  <path d="M7.964 14.946L6.436 16.71a.65.65 0 11-.982-.851l1.79-2.065a.653.653 0 01.151-.129.706.706 0 01.872-.06 7.026 7.026 0 003.89 1.168c1.499 0 2.89-.468 4.032-1.265.293-.204.697-.175.93.095a.654.654 0 01.05.066l1.753 2.022a.65.65 0 11-.983.851l-1.453-1.677a8.307 8.307 0 01-3.649 1.18.69.69 0 010 .025v1.877a.65.65 0 01-1.3 0v-1.877l.001-.02a8.308 8.308 0 01-3.574-1.103zM5.6 18.65a1.3 1.3 0 11-2.6 0 1.3 1.3 0 012.6 0zM13.488 20.7a1.3 1.3 0 11-2.6 0 1.3 1.3 0 012.6 0zM20.076 19.95a1.3 1.3 0 100-2.6 1.3 1.3 0 000 2.6zM11.486 6.916V5.36h1.779a.779.779 0 110 1.557h-1.779z"/>
  <path fill-rule="evenodd" d="M12.188 13.419a5.71 5.71 0 100-11.419 5.71 5.71 0 000 11.419zm1.077-5.203h-1.779v.7h1.744a.65.65 0 110 1.3h-1.744v.493a.65.65 0 11-1.3 0v-.493h-.423a.65.65 0 110-1.3h.423v-.7h-.415a.65.65 0 010-1.3h.415V5.008c0-.528.429-.949.95-.949h2.129a2.079 2.079 0 110 4.157z"/>
</svg>
