<svg xmlns="http://www.w3.org/2000/svg" viewBox="0 0 24 24">
  <defs/>
  <path fill-rule="evenodd" d="M13.052 8.246h-1.28v.603h1.252a.65.65 0 110 1.3h-1.252v.317a.65.65 0 11-1.3 0v-.316h-.433a.65.65 0 010-1.3h.433v-.604h-.42a.65.65 0 110-1.3h.42V5.625a.95.95 0 01.95-.95h1.63a1.786 1.786 0 010 3.57zm-1.28-1.3v-.971h1.28a.486.486 0 010 .97h-1.28z"/>
  <path fill-rule="evenodd" d="M17.897 7.71a5.71 5.71 0 11-11.419 0 5.71 5.71 0 0111.419 0zm-1.3 0a4.41 4.41 0 11-8.819 0 4.41 4.41 0 018.819 0z"/>
  <path d="M6.436 16.71l1.528-1.764a8.308 8.308 0 003.574 1.103.68.68 0 000 .02v1.877a.65.65 0 001.3 0v-1.877a.69.69 0 000-.025 8.307 8.307 0 003.648-1.18l1.453 1.677a.65.65 0 10.983-.851l-1.753-2.022a.654.654 0 00-.05-.066c-.233-.27-.637-.3-.93-.095a7.026 7.026 0 01-4.033 1.265 7.026 7.026 0 01-3.889-1.167.706.706 0 00-.872.059.653.653 0 00-.152.129l-1.79 2.065a.65.65 0 10.983.851zM4.3 19.95a1.3 1.3 0 100-2.6 1.3 1.3 0 000 2.6zM13.488 20.7a1.3 1.3 0 11-2.6 0 1.3 1.3 0 012.6 0zM21.376 18.65a1.3 1.3 0 11-2.6 0 1.3 1.3 0 012.6 0z"/>
</svg>
