<svg xmlns="http://www.w3.org/2000/svg" viewBox="0 0 24 24">
  <path fill-rule="evenodd" d="M15.052 15.735c2.764-.03 4.948-.463 4.948-3.61 0-2.385-2.802-6.519-4.337-8.604a1.204 1.204 0 0 0-1.956 0c-.728.99-1.743 2.443-2.608 3.95a4.405 4.405 0 1 0-3.345 7.842v2.439a.65.65 0 0 0 1.3 0v-2.439c.498-.073.967-.23 1.396-.454.791.624 1.96.814 3.302.863v2.03a.65.65 0 1 0 1.3 0v-2.017Zm-.367-11.349c-.768 1.05-1.812 2.559-2.65 4.073.489.71.775 1.57.775 2.497a4.39 4.39 0 0 1-1.247 3.071c.171.083.382.156.642.217.652.151 1.474.193 2.48.193 1.498 0 2.52-.101 3.166-.431a1.31 1.31 0 0 0 .59-.554c.138-.251.26-.658.26-1.327 0-.369-.116-.904-.378-1.596-.256-.675-.622-1.42-1.05-2.183-.829-1.479-1.84-2.94-2.588-3.96Zm-6.28 9.675a3.105 3.105 0 1 0 0-6.21 3.105 3.105 0 0 0 0 6.21Z"/>
  <path d="M4.65 19.702a.65.65 0 1 0 0 1.3h14.7a.65.65 0 0 0 0-1.3H4.65Z"/>
</svg>
