<svg xmlns="http://www.w3.org/2000/svg" viewBox="0 0 24 24">
  <defs/>
  <path fill-rule="evenodd" d="M12.65 6.07V3.636a.65.65 0 10-1.3 0v2.436a3.001 3.001 0 101.3 0zm0 14.292a.65.65 0 11-1.3 0v-5.865a.65.65 0 111.3 0v5.865zM6 10.172a.65.65 0 00.65-.65V3.635a.65.65 0 10-1.3 0v5.887c0 .359.291.65.65.65zm12.65-6.537a.65.65 0 10-1.3 0v5.89a.65.65 0 101.3 0v-5.89zm0 14.294a3.001 3.001 0 10-1.3 0v2.433a.65.65 0 101.3 0v-2.433zM6 21.012a.65.65 0 00.65-.65v-2.435a3.001 3.001 0 10-1.3 0v2.435c0 .359.291.65.65.65z"/>
</svg>
