<svg width="24" height="24" viewBox="0 0 24 24" fill="none" xmlns="http://www.w3.org/2000/svg">
<rect y="3" width="24" height="18" rx="2" fill="#E92434"/>
<path fill-rule="evenodd" clip-rule="evenodd" d="M17 12C17 14.7614 14.7614 17 12 17C9.23858 17 7 14.7614 7 12C7 9.23858 9.23858 7 12 7C14.7614 7 17 9.23858 17 12ZM10.3333 12C10.3333 13.8471 11.7201 15.3703 13.5093 15.5852C13.0452 15.7808 12.5352 15.8889 12 15.8889C9.85223 15.8889 8.11111 14.1478 8.11111 12C8.11111 9.85223 9.85223 8.11111 12 8.11111C12.5352 8.11111 13.0452 8.21924 13.5093 8.41484C11.7201 8.62974 10.3333 10.1529 10.3333 12ZM12.9411 14.2126L13.9618 12.9751L15.4645 13.5364L14.603 12.1833L15.6012 10.9276L14.0481 11.3288L13.1624 9.99145L13.064 11.5925L11.5183 12.0216L13.0107 12.61L12.9411 14.2126Z" fill="white"/>
</svg>
