<svg width="24" height="24" viewBox="0 0 24 24" fill="none" xmlns="http://www.w3.org/2000/svg">
<rect y="3" width="24" height="18" rx="2" fill="#07319C"/>
<path d="M2.03252e-05 9.60929L3.33333 7.22835V6.73519L0.22739 4.07296C0.331861 3.87361 0.468974 3.69405 0.63163 3.5414L4 6.42857V7.57143L2.03252e-05 10.4286V9.60929Z" fill="white"/>
<path d="M10.9524 3V3.39989C10.9524 3.72284 10.7964 4.02591 10.5336 4.21362L6.95238 6.77165V7.2648L10.3317 10.1614C10.9348 10.6783 10.5692 11.6667 9.77485 11.6667C9.59651 11.6667 9.42263 11.6109 9.27751 11.5073L5.50064 8.80952H4.76263L2.03252e-05 11.7862V11L4.57143 8.14286H5.71429L9.665 10.9648C9.69706 10.9877 9.73546 11 9.77485 11C9.9503 11 10.031 10.7817 9.89784 10.6675L6.28571 7.57143V6.42857L10.1461 3.67113C10.2337 3.60856 10.2857 3.50754 10.2857 3.39989V3L10.9524 3Z" fill="white"/>
<path d="M9.02784 3L10.2857 3L5.71429 5.85714H4.57143L0.970449 3.28501C1.20126 3.14615 1.4624 3.05257 1.74157 3.01655L4.78507 5.19048H5.52309L9.02784 3Z" fill="white"/>
<path fill-rule="evenodd" clip-rule="evenodd" d="M0 5.85714V8.14286H4V10.9048C4 11.273 4.29848 11.5714 4.66667 11.5714H5.61905C5.98724 11.5714 6.28571 11.273 6.28571 10.9048V8.14286H10.1905C10.5587 8.14286 10.8571 7.84438 10.8571 7.47619V6.52381C10.8571 6.15562 10.5587 5.85714 10.1905 5.85714H6.28571V3H4V5.85714H0Z" fill="white"/>
<path d="M0.620846 3.53215C0.724084 3.43571 0.837716 3.35017 0.959804 3.27741L4 5.44898V5.85714H3.33333L0.620846 3.53215Z" fill="#F64E4E"/>
<path d="M6.28571 5.5L10.2857 3V3.39989C10.2857 3.50754 10.2337 3.60856 10.1461 3.67113L7.08571 5.85714H6.28571V5.5Z" fill="#F64E4E"/>
<path d="M6.28571 8.14286H6.95238L9.89784 10.6675C10.031 10.7817 9.9503 11 9.77485 11C9.73546 11 9.69706 10.9877 9.665 10.9648L6.28571 8.55102V8.14286Z" fill="#F64E4E"/>
<path d="M4 8.14286V8.5L2.03252e-05 11L0 10.4286L3.2 8.14286H4Z" fill="#F64E4E"/>
<path d="M4.57143 6.42857H0V7.57143H4.57143V11H5.71429V7.57143H10.2857V6.42857H5.71429V3H4.57143V6.42857Z" fill="#F64E4E"/>
<path fill-rule="evenodd" clip-rule="evenodd" d="M14.8571 12C14.8571 11.134 14.8571 10.1223 14.8571 9.33297C14.8571 8.59659 15.4541 8 16.1905 8H19.6667C20.403 8 21 8.59659 21 9.33297C21 10.1223 21 11.134 21 12C21 14.8571 17.9286 16 17.9286 16C17.9286 16 14.8571 14.8571 14.8571 12Z" fill="#FFD033"/>
<path fill-rule="evenodd" clip-rule="evenodd" d="M15.5238 12C15.5238 13.1612 16.1407 13.9909 16.8208 14.5603C17.1597 14.844 17.5016 15.0511 17.7595 15.187C17.8217 15.2198 17.8784 15.2482 17.9286 15.2723C17.9787 15.2482 18.0355 15.2198 18.0976 15.187C18.3555 15.0511 18.6974 14.844 19.0363 14.5603C19.7164 13.9909 20.3333 13.1612 20.3333 12V9.33297C20.3333 8.96502 20.0351 8.66667 19.6667 8.66667H16.1905C15.822 8.66667 15.5238 8.96502 15.5238 9.33297V12ZM14.8571 9.33297V12C14.8571 14.8571 17.9286 16 17.9286 16C17.9286 16 21 14.8571 21 12V9.33297C21 8.59659 20.403 8 19.6667 8H16.1905C15.4541 8 14.8571 8.59659 14.8571 9.33297Z" fill="white"/>
<path fill-rule="evenodd" clip-rule="evenodd" d="M19.1571 11.4285C19.4964 11.4285 19.7714 10.9169 19.7714 10.2857C19.7714 9.6545 19.4964 9.14282 19.1571 9.14282C18.8179 9.14282 18.5428 9.6545 18.5428 10.2857C18.5428 10.9169 18.8179 11.4285 19.1571 11.4285Z" fill="#BA5B1F"/>
<path fill-rule="evenodd" clip-rule="evenodd" d="M16.889 11.3941C17.2078 11.2862 17.2781 10.7178 17.046 10.1247C16.814 9.5316 16.3674 9.13828 16.0486 9.24622C15.7298 9.35416 15.6595 9.92248 15.8916 10.5156C16.1236 11.1087 16.5702 11.502 16.889 11.3941Z" fill="#FF937F"/>
<path fill-rule="evenodd" clip-rule="evenodd" d="M16.4404 11.3751C16.7478 11.5085 17.2296 11.1528 17.5163 10.5808C17.8031 10.0088 17.7863 9.43689 17.4788 9.30352C17.1713 9.17014 16.6896 9.52576 16.4028 10.0978C16.1161 10.6698 16.1329 11.2417 16.4404 11.3751Z" fill="#FF937F"/>
<path fill-rule="evenodd" clip-rule="evenodd" d="M17.3143 12.5714L17.9286 11.4286L18.5428 12.5714V13.7143H17.3143V12.5714Z" fill="#01A827"/>
</svg>
