<svg width="24" height="24" viewBox="0 0 24 24" fill="none" xmlns="http://www.w3.org/2000/svg">
<path fill-rule="evenodd" clip-rule="evenodd" d="M0 19C0 20.1046 0.895431 21 2 21H22C23.1046 21 24 20.1046 24 19V5C24 3.89543 23.1046 3 22 3H2C0.89543 3 0 3.89543 0 5V19Z" fill="#30C375"/>
<rect x="3" y="3" width="4" height="18" fill="#DE414F"/>
<path fill-rule="evenodd" clip-rule="evenodd" d="M12.7052 7.06123C12.5023 7.30298 12.5338 7.66341 12.7756 7.86627C13.0173 8.06913 13.3778 8.0376 13.5806 7.79584C13.7835 7.55408 13.752 7.19365 13.5102 6.99079C13.2684 6.78793 12.908 6.81947 12.7052 7.06123ZM11.2245 9.27651C10.9827 9.07365 10.6223 9.10518 10.4194 9.34694C10.2166 9.5887 10.2481 9.94913 10.4899 10.152C10.7316 10.3548 11.0921 10.3233 11.2949 10.0816C11.4978 9.8398 11.4662 9.47937 11.2245 9.27651ZM10.0816 8.13365C9.83988 7.93079 9.47944 7.96233 9.27659 8.20408C9.07373 8.44584 9.10526 8.80627 9.34702 9.00913C9.58877 9.21199 9.94921 9.18045 10.1521 8.9387C10.3549 8.69694 10.3234 8.33651 10.0816 8.13365ZM12.3673 5.84794C12.1256 5.64508 11.7652 5.67661 11.5623 5.91837C11.3594 6.16013 11.391 6.52056 11.6327 6.72342C11.8745 6.92627 12.2349 6.89474 12.4378 6.65298C12.6406 6.41123 12.6091 6.05079 12.3673 5.84794ZM11.7959 7.56222C11.5542 7.35936 11.1937 7.3909 10.9909 7.63265C10.788 7.87441 10.8195 8.23484 11.0613 8.4377C11.3031 8.64056 11.6635 8.60903 11.8664 8.36727C12.0692 8.12551 12.0377 7.76508 11.7959 7.56222Z" fill="white"/>
<path fill-rule="evenodd" clip-rule="evenodd" d="M14.9795 11.529C13.6184 12.8902 11.4114 12.8902 10.0503 11.529C9.91836 11.3971 9.79924 11.2572 9.69291 11.111C11.0559 12.1021 12.9749 11.9829 14.2042 10.7537C15.4335 9.52437 15.5526 7.6053 14.5616 6.24234C14.7078 6.34867 14.8476 6.46778 14.9795 6.59968C16.3407 7.96087 16.3407 10.1678 14.9795 11.529Z" fill="white"/>
</svg>
