<svg width="24" height="24" viewBox="0 0 24 24" fill="none" xmlns="http://www.w3.org/2000/svg">
<rect y="3" width="24" height="18" rx="2" fill="#E92434"/>
<path fill-rule="evenodd" clip-rule="evenodd" d="M16.5893 12.8014L15.5395 14.0743L15.611 12.4259L14.076 11.8208L15.6658 11.3794L15.767 9.73256L16.6781 11.1082L18.2756 10.6955L17.2488 11.987L18.1349 13.3788L16.5893 12.8014Z" fill="white"/>
<path d="M15.2024 15.3007C14.2613 16.5087 12.7928 17.2857 11.1429 17.2857C8.30254 17.2857 6 14.9832 6 12.1429C6 9.30254 8.30254 7 11.1429 7C12.7928 7 14.2613 7.77699 15.2024 8.98504C14.4762 8.45724 13.5631 8.14286 12.5714 8.14286C10.2045 8.14286 8.28571 9.93372 8.28571 12.1429C8.28571 14.352 10.2045 16.1429 12.5714 16.1429C13.5631 16.1429 14.4762 15.8285 15.2024 15.3007Z" fill="white"/>
</svg>
