<svg width="24" height="24" viewBox="0 0 24 24" fill="none" xmlns="http://www.w3.org/2000/svg">
<rect y="3" width="24" height="18" rx="2" fill="#52B3EB"/>
<path d="M0 5C0 3.89543 0.895431 3 2 3H10V11H0V5Z" fill="#07319C"/>
<path d="M2.03252e-05 9.60929L3.33333 7.22835V6.73519L0.22739 4.07296C0.331861 3.87361 0.468974 3.69405 0.63163 3.5414L4 6.42857V7.57143L2.03252e-05 10.4286V9.60929Z" fill="white"/>
<path d="M10.9524 3V3.39989C10.9524 3.72284 10.7964 4.02591 10.5336 4.21362L6.95238 6.77165V7.2648L10.3317 10.1614C10.9348 10.6783 10.5692 11.6667 9.77485 11.6667C9.59651 11.6667 9.42263 11.6109 9.27751 11.5073L5.50064 8.80952H4.76263L2.03252e-05 11.7862V11L4.57143 8.14286H5.71429L9.665 10.9648C9.69706 10.9877 9.73546 11 9.77485 11C9.9503 11 10.031 10.7817 9.89784 10.6675L6.28571 7.57143V6.42857L10.1461 3.67113C10.2337 3.60856 10.2857 3.50754 10.2857 3.39989V3L10.9524 3Z" fill="white"/>
<path d="M9.02784 3L10.2857 3L5.71429 5.85714H4.57143L0.970449 3.28501C1.20126 3.14615 1.4624 3.05257 1.74157 3.01655L4.78507 5.19048H5.52309L9.02784 3Z" fill="white"/>
<path fill-rule="evenodd" clip-rule="evenodd" d="M0 5.85714V8.14286H4V10.9048C4 11.273 4.29848 11.5714 4.66667 11.5714H5.61905C5.98724 11.5714 6.28571 11.273 6.28571 10.9048V8.14286H10.1905C10.5587 8.14286 10.8571 7.84438 10.8571 7.47619V6.52381C10.8571 6.15562 10.5587 5.85714 10.1905 5.85714H6.28571V3H4V5.85714H0Z" fill="white"/>
<path d="M0.620846 3.53215C0.724084 3.43571 0.837716 3.35017 0.959804 3.27741L4 5.44898V5.85714H3.33333L0.620846 3.53215Z" fill="#F64E4E"/>
<path d="M6.28571 5.5L10.2857 3V3.39989C10.2857 3.50754 10.2337 3.60856 10.1461 3.67113L7.08571 5.85714H6.28571V5.5Z" fill="#F64E4E"/>
<path d="M6.28571 8.14286H6.95238L9.89784 10.6675C10.031 10.7817 9.9503 11 9.77485 11C9.73546 11 9.69706 10.9877 9.665 10.9648L6.28571 8.55102V8.14286Z" fill="#F64E4E"/>
<path d="M4 8.14286V8.5L2.03252e-05 11L0 10.4286L3.2 8.14286H4Z" fill="#F64E4E"/>
<path d="M4.57143 6.42857H0V7.57143H4.57143V11H5.71429V7.57143H10.2857V6.42857H5.71429V3H4.57143V6.42857Z" fill="#F64E4E"/>
<path d="M20.7625 5.14282L21.0303 5.96701H21.8969L21.1958 6.47638L21.4636 7.30056L20.7625 6.79119L20.0614 7.30056L20.3292 6.47638L19.6281 5.96701H20.4947L20.7625 5.14282Z" fill="#F9DD4A"/>
<path d="M21.63 10.926L21.9141 11.8001H22.8332L22.0896 12.3404L22.3736 13.2145L21.63 12.6742L20.8864 13.2145L21.1705 12.3404L20.4269 11.8001H21.346L21.63 10.926Z" fill="#F9DD4A"/>
<path d="M18.2323 12.661L18.5001 13.4852H19.3667L18.6656 13.9945L18.9334 14.8187L18.2323 14.3093L17.5312 14.8187L17.799 13.9945L17.0979 13.4852H17.9645L18.2323 12.661Z" fill="#F9DD4A"/>
<path d="M8.90704 17.2875L9.17483 18.1117H10.0414L9.34033 18.621L9.60813 19.4452L8.90704 18.9358L8.20594 19.4452L8.47374 18.621L7.77264 18.1117H8.63924L8.90704 17.2875Z" fill="#F9DD4A"/>
<path d="M17.8469 7.80616L18.556 8.33075L19.274 7.81853L18.9942 8.65496L19.7032 9.17955L18.8212 9.17191L18.5414 10.0083L18.2761 9.16719L17.3942 9.15954L18.1122 8.64732L17.8469 7.80616Z" fill="#F9DD4A"/>
<path d="M14.7022 8.61571L15.4322 9.15582L16.1714 8.62844L15.8834 9.48963L16.6134 10.0297L15.7053 10.0219L15.4172 10.8831L15.1441 10.017L14.236 10.0091L14.9753 9.48176L14.7022 8.61571Z" fill="#F9DD4A"/>
<path d="M12.4377 12.2166L13.154 12.7466L13.8794 12.2291L13.5967 13.0741L14.313 13.6041L13.422 13.5963L13.1393 14.4414L12.8713 13.5916L11.9803 13.5839L12.7057 13.0664L12.4377 12.2166Z" fill="#F9DD4A"/>
<path d="M15.9417 15.4696L16.658 15.9996L17.3834 15.4821L17.1007 16.3271L17.817 16.8571L16.926 16.8493L16.6433 17.6944L16.3753 16.8446L15.4843 16.8369L16.2097 16.3194L15.9417 15.4696Z" fill="#F9DD4A"/>
<path d="M12.2548 16.5539L12.9711 17.0838L13.6965 16.5664L13.4138 17.4114L14.1301 17.9414L13.2391 17.9336L12.9564 18.7787L12.6884 17.9289L11.7974 17.9212L12.5228 17.4037L12.2548 16.5539Z" fill="#F9DD4A"/>
</svg>
