<svg xmlns="http://www.w3.org/2000/svg" viewBox="0 0 24 24">
  <defs/>
  <path d="M11.326 8.461L9.99 13.105a.3.3 0 00.289.383h2.67a.3.3 0 00.288-.383l-1.335-4.644c-.083-.29-.493-.29-.576 0z"/>
  <path fill-rule="evenodd" d="M9.214 15.902a.3.3 0 01.29-.22h4.192a.3.3 0 01.288.218l.745 2.583a.3.3 0 00.289.217h2.499a.3.3 0 00.285-.394l-4.236-12.8a.3.3 0 00-.284-.206h-3.1a.3.3 0 00-.285.206l-4.236 12.8a.3.3 0 00.285.394h2.255a.3.3 0 00.29-.219l.723-2.58zM4.036 19.08a.7.7 0 00.665.92h4.182a.7.7 0 00.674-.51l.643-2.288a.3.3 0 01.288-.22h2.23a.3.3 0 01.288.218l.662 2.294a.7.7 0 00.673.506h4.422a.7.7 0 00.664-.92l-4.83-14.6a.7.7 0 00-.665-.48h-4.4a.7.7 0 00-.665.48l-4.831 14.6z"/>
</svg>
