<svg width="24" height="24" viewBox="0 0 24 24" fill="none" xmlns="http://www.w3.org/2000/svg">
<path fill-rule="evenodd" clip-rule="evenodd" d="M0 6H24V5C24 3.89543 23.1046 3 22 3H2C0.89543 3 0 3.89543 0 5V6Z" fill="#262626"/>
<path fill-rule="evenodd" clip-rule="evenodd" d="M0 15H24V12H0V15Z" fill="#262626"/>
<path fill-rule="evenodd" clip-rule="evenodd" d="M0 12H24V9H0V12Z" fill="#ED1623"/>
<path fill-rule="evenodd" clip-rule="evenodd" d="M0 9H24V6H0V9Z" fill="#FEE044"/>
<path fill-rule="evenodd" clip-rule="evenodd" d="M0 19C0 20.1046 0.895431 21 2 21H22C23.1046 21 24 20.1046 24 19V18H0V19Z" fill="#ED1623"/>
<path fill-rule="evenodd" clip-rule="evenodd" d="M0 18H24V15H0V18Z" fill="#FEE044"/>
<path fill-rule="evenodd" clip-rule="evenodd" d="M12 16C14.2091 16 16 14.2091 16 12C16 9.79086 14.2091 8 12 8C9.79086 8 8 9.79086 8 12C8 14.2091 9.79086 16 12 16Z" fill="white"/>
<path fill-rule="evenodd" clip-rule="evenodd" d="M11.0761 9.82986C10.9535 9.70112 10.9535 9.49883 11.0761 9.37009L11.4101 9.01937C11.4224 9.00646 11.4334 8.99286 11.4439 8.97843C11.4672 8.94631 11.5153 8.88264 11.5748 8.8175C11.7401 8.63645 12.2737 8.61989 12.4327 8.80661C12.4464 8.82279 12.4595 8.83898 12.4717 8.85473C12.5393 8.94198 12.543 9.05962 12.4956 9.15926L12.0324 10.132C12.0111 10.1767 12 10.2257 12 10.2753V10.5985C12 10.7224 12.0687 10.836 12.1784 10.8936L13.0943 11.3745C13.1265 11.3914 13.1556 11.4134 13.1807 11.4397L14.1275 12.4339C14.2228 12.5339 14.2465 12.6823 14.1871 12.8071L13.9211 13.3657C13.8213 13.5752 13.5426 13.6197 13.3826 13.4517C13.2521 13.3147 13.0336 13.3147 12.9032 13.4517L12.6634 13.7034C12.6044 13.7654 12.5714 13.8477 12.5714 13.9333V14.2787C12.5714 14.3566 12.6014 14.4314 12.6551 14.4878C12.8389 14.6808 12.7021 15 12.4355 15H12.1359C11.8694 15 11.7326 14.6808 11.9164 14.4878C11.9701 14.4314 12 14.3566 12 14.2787V14.1333C12 13.9492 11.8508 13.8 11.6667 13.8H11.5714C11.4802 13.8 11.393 13.8374 11.3301 13.9034L11.0985 14.1465C10.9672 14.2845 10.7471 14.2845 10.6158 14.1465L10.5047 14.0299C10.3821 13.9011 10.3821 13.6988 10.5047 13.5701L10.7586 13.3034C10.8215 13.2374 10.9088 13.2 11 13.2H11.2222C11.5153 13.2 11.6657 12.849 11.4636 12.6368L10.5047 11.6299C10.3821 11.5011 10.3821 11.2988 10.5047 11.1701L11.2096 10.4299C11.3322 10.3011 11.3322 10.0988 11.2096 9.97009L11.0761 9.82986Z" fill="#262626"/>
</svg>
