<svg width="24" height="24" viewBox="0 0 24 24" fill="none" xmlns="http://www.w3.org/2000/svg">
<rect y="3" width="24" height="18" rx="2" fill="white"/>
<path fill-rule="evenodd" clip-rule="evenodd" d="M22 4H2C1.44772 4 1 4.44772 1 5V19C1 19.5523 1.44772 20 2 20H22C22.5523 20 23 19.5523 23 19V5C23 4.44771 22.5523 4 22 4ZM2 3C0.895431 3 0 3.89543 0 5V19C0 20.1046 0.89543 21 2 21H22C23.1046 21 24 20.1046 24 19V5C24 3.89543 23.1046 3 22 3H2Z" fill="#D6D8DE"/>
<path d="M0 5.76497V7.1751H24V5.76497H0Z" fill="#D02F44"/>
<path d="M22 3H2C1.10075 3 0.340109 3.59349 0.088406 4.41014H23.9116C23.6599 3.59349 22.8993 3 22 3Z" fill="#D02F44"/>
<path d="M24 8.52993H0V9.94007H24V8.52993Z" fill="#D02F44"/>
<path d="M24 11.295H0V12.7051H24V11.295Z" fill="#D02F44"/>
<path d="M24 14.0599H0V15.4701H24V14.0599Z" fill="#D02F44"/>
<path d="M24 16.8249H0V18.235H24V16.8249Z" fill="#D02F44"/>
<path d="M23.9116 19.5899H0.0884044C0.339654 20.405 1.09802 20.9979 1.99516 21H22.0048C22.902 20.9979 23.6603 20.405 23.9116 19.5899Z" fill="#D02F44"/>
<path d="M0 5C0 3.89543 0.895431 3 2 3H10.2857V11.4H0V5Z" fill="#46467F"/>
<path d="M1.65928 4.38263C1.65928 4.59948 1.48349 4.77528 1.26664 4.77528C1.04979 4.77528 0.873997 4.59948 0.873997 4.38263C0.873997 4.16578 1.04979 3.98999 1.26664 3.98999C1.48349 3.98999 1.65928 4.16578 1.65928 4.38263Z" fill="white"/>
<path d="M3.23546 4.38263C3.23546 4.59948 3.05967 4.77528 2.84282 4.77528C2.62597 4.77528 2.45018 4.59948 2.45018 4.38263C2.45018 4.16578 2.62597 3.98999 2.84282 3.98999C3.05967 3.98999 3.23546 4.16578 3.23546 4.38263Z" fill="white"/>
<path d="M4.81164 4.38263C4.81164 4.59948 4.63585 4.77528 4.419 4.77528C4.20215 4.77528 4.02636 4.59948 4.02636 4.38263C4.02636 4.16578 4.20215 3.98999 4.419 3.98999C4.63585 3.98999 4.81164 4.16578 4.81164 4.38263Z" fill="white"/>
<path d="M6.38783 4.38263C6.38783 4.59948 6.21203 4.77528 5.99518 4.77528C5.77833 4.77528 5.60254 4.59948 5.60254 4.38263C5.60254 4.16578 5.77833 3.98999 5.99518 3.98999C6.21203 3.98999 6.38783 4.16578 6.38783 4.38263Z" fill="white"/>
<path d="M7.96401 4.38263C7.96401 4.59948 7.78821 4.77528 7.57136 4.77528C7.35451 4.77528 7.17872 4.59948 7.17872 4.38263C7.17872 4.16578 7.35451 3.98999 7.57136 3.98999C7.78821 3.98999 7.96401 4.16578 7.96401 4.38263Z" fill="white"/>
<path d="M9.54019 4.38263C9.54019 4.59948 9.36439 4.77528 9.14754 4.77528C8.93069 4.77528 8.7549 4.59948 8.7549 4.38263C8.7549 4.16578 8.93069 3.98999 9.14754 3.98999C9.36439 3.98999 9.54019 4.16578 9.54019 4.38263Z" fill="white"/>
<path d="M2.4502 5.13362C2.4502 5.35047 2.27441 5.52626 2.05756 5.52626C1.84071 5.52626 1.66492 5.35047 1.66492 5.13362C1.66492 4.91677 1.84071 4.74098 2.05756 4.74098C2.27441 4.74098 2.4502 4.91677 2.4502 5.13362Z" fill="white"/>
<path d="M4.02077 5.13362C4.02077 5.35047 3.84498 5.52626 3.62813 5.52626C3.41128 5.52626 3.23549 5.35047 3.23549 5.13362C3.23549 4.91677 3.41128 4.74098 3.62813 4.74098C3.84498 4.74098 4.02077 4.91677 4.02077 5.13362Z" fill="white"/>
<path d="M5.59135 5.13362C5.59135 5.35047 5.41555 5.52626 5.1987 5.52626C4.98185 5.52626 4.80606 5.35047 4.80606 5.13362C4.80606 4.91677 4.98185 4.74098 5.1987 4.74098C5.41555 4.74098 5.59135 4.91677 5.59135 5.13362Z" fill="white"/>
<path d="M7.16192 5.13362C7.16192 5.35047 6.98613 5.52626 6.76927 5.52626C6.55242 5.52626 6.37663 5.35047 6.37663 5.13362C6.37663 4.91677 6.55242 4.74098 6.76927 4.74098C6.98613 4.74098 7.16192 4.91677 7.16192 5.13362Z" fill="white"/>
<path d="M8.73249 5.13362C8.73249 5.35047 8.5567 5.52626 8.33985 5.52626C8.123 5.52626 7.9472 5.35047 7.9472 5.13362C7.9472 4.91677 8.123 4.74098 8.33985 4.74098C8.5567 4.74098 8.73249 4.91677 8.73249 5.13362Z" fill="white"/>
<path d="M2.44172 6.59128C2.44172 6.80813 2.26593 6.98392 2.04908 6.98392C1.83223 6.98392 1.65643 6.80813 1.65643 6.59128C1.65643 6.37443 1.83223 6.19863 2.04908 6.19863C2.26593 6.19863 2.44172 6.37443 2.44172 6.59128Z" fill="white"/>
<path d="M4.01229 6.59128C4.01229 6.80813 3.8365 6.98392 3.61965 6.98392C3.4028 6.98392 3.227 6.80813 3.227 6.59128C3.227 6.37443 3.4028 6.19863 3.61965 6.19863C3.8365 6.19863 4.01229 6.37443 4.01229 6.59128Z" fill="white"/>
<path d="M5.58286 6.59128C5.58286 6.80813 5.40707 6.98392 5.19022 6.98392C4.97337 6.98392 4.79758 6.80813 4.79758 6.59128C4.79758 6.37443 4.97337 6.19863 5.19022 6.19863C5.40707 6.19863 5.58286 6.37443 5.58286 6.59128Z" fill="white"/>
<path d="M7.15343 6.59128C7.15343 6.80813 6.97764 6.98392 6.76079 6.98392C6.54394 6.98392 6.36815 6.80813 6.36815 6.59128C6.36815 6.37443 6.54394 6.19863 6.76079 6.19863C6.97764 6.19863 7.15343 6.37443 7.15343 6.59128Z" fill="white"/>
<path d="M8.724 6.59128C8.724 6.80813 8.54821 6.98392 8.33136 6.98392C8.11451 6.98392 7.93872 6.80813 7.93872 6.59128C7.93872 6.37443 8.11451 6.19863 8.33136 6.19863C8.54821 6.19863 8.724 6.37443 8.724 6.59128Z" fill="white"/>
<path d="M2.43323 8.04893C2.43323 8.26578 2.25744 8.44158 2.04059 8.44158C1.82374 8.44158 1.64795 8.26578 1.64795 8.04893C1.64795 7.83208 1.82374 7.65629 2.04059 7.65629C2.25744 7.65629 2.43323 7.83208 2.43323 8.04893Z" fill="white"/>
<path d="M4.00381 8.04893C4.00381 8.26578 3.82801 8.44158 3.61116 8.44158C3.39431 8.44158 3.21852 8.26578 3.21852 8.04893C3.21852 7.83208 3.39431 7.65629 3.61116 7.65629C3.82801 7.65629 4.00381 7.83208 4.00381 8.04893Z" fill="white"/>
<path d="M5.57438 8.04893C5.57438 8.26578 5.39859 8.44158 5.18174 8.44158C4.96488 8.44158 4.78909 8.26578 4.78909 8.04893C4.78909 7.83208 4.96488 7.65629 5.18174 7.65629C5.39859 7.65629 5.57438 7.83208 5.57438 8.04893Z" fill="white"/>
<path d="M7.14495 8.04893C7.14495 8.26578 6.96916 8.44158 6.75231 8.44158C6.53546 8.44158 6.35966 8.26578 6.35966 8.04893C6.35966 7.83208 6.53546 7.65629 6.75231 7.65629C6.96916 7.65629 7.14495 7.83208 7.14495 8.04893Z" fill="white"/>
<path d="M8.71552 8.04893C8.71552 8.26578 8.53973 8.44158 8.32288 8.44158C8.10603 8.44158 7.93024 8.26578 7.93024 8.04893C7.93024 7.83208 8.10603 7.65629 8.32288 7.65629C8.53973 7.65629 8.71552 7.83208 8.71552 8.04893Z" fill="white"/>
<path d="M2.4502 9.50665C2.4502 9.72351 2.27441 9.8993 2.05756 9.8993C1.84071 9.8993 1.66492 9.72351 1.66492 9.50665C1.66492 9.2898 1.84071 9.11401 2.05756 9.11401C2.27441 9.11401 2.4502 9.2898 2.4502 9.50665Z" fill="white"/>
<path d="M4.02077 9.50665C4.02077 9.72351 3.84498 9.8993 3.62813 9.8993C3.41128 9.8993 3.23549 9.72351 3.23549 9.50665C3.23549 9.2898 3.41128 9.11401 3.62813 9.11401C3.84498 9.11401 4.02077 9.2898 4.02077 9.50665Z" fill="white"/>
<path d="M5.59135 9.50665C5.59135 9.72351 5.41555 9.8993 5.1987 9.8993C4.98185 9.8993 4.80606 9.72351 4.80606 9.50665C4.80606 9.2898 4.98185 9.11401 5.1987 9.11401C5.41555 9.11401 5.59135 9.2898 5.59135 9.50665Z" fill="white"/>
<path d="M7.16192 9.50665C7.16192 9.72351 6.98613 9.8993 6.76927 9.8993C6.55242 9.8993 6.37663 9.72351 6.37663 9.50665C6.37663 9.2898 6.55242 9.11401 6.76927 9.11401C6.98613 9.11401 7.16192 9.2898 7.16192 9.50665Z" fill="white"/>
<path d="M8.73249 9.50665C8.73249 9.72351 8.5567 9.8993 8.33985 9.8993C8.123 9.8993 7.9472 9.72351 7.9472 9.50665C7.9472 9.2898 8.123 9.11401 8.33985 9.11401C8.5567 9.11401 8.73249 9.2898 8.73249 9.50665Z" fill="white"/>
<path d="M1.65931 5.84031C1.65931 6.05716 1.48352 6.23295 1.26667 6.23295C1.04982 6.23295 0.874023 6.05716 0.874023 5.84031C0.874023 5.62346 1.04982 5.44766 1.26667 5.44766C1.48352 5.44766 1.65931 5.62346 1.65931 5.84031Z" fill="white"/>
<path d="M3.23549 5.84031C3.23549 6.05716 3.0597 6.23295 2.84285 6.23295C2.626 6.23295 2.4502 6.05716 2.4502 5.84031C2.4502 5.62346 2.626 5.44766 2.84285 5.44766C3.0597 5.44766 3.23549 5.62346 3.23549 5.84031Z" fill="white"/>
<path d="M4.81167 5.84031C4.81167 6.05716 4.63588 6.23295 4.41903 6.23295C4.20218 6.23295 4.02638 6.05716 4.02638 5.84031C4.02638 5.62346 4.20218 5.44766 4.41903 5.44766C4.63588 5.44766 4.81167 5.62346 4.81167 5.84031Z" fill="white"/>
<path d="M6.38785 5.84031C6.38785 6.05716 6.21206 6.23295 5.99521 6.23295C5.77836 6.23295 5.60257 6.05716 5.60257 5.84031C5.60257 5.62346 5.77836 5.44766 5.99521 5.44766C6.21206 5.44766 6.38785 5.62346 6.38785 5.84031Z" fill="white"/>
<path d="M7.96403 5.84031C7.96403 6.05716 7.78824 6.23295 7.57139 6.23295C7.35454 6.23295 7.17875 6.05716 7.17875 5.84031C7.17875 5.62346 7.35454 5.44766 7.57139 5.44766C7.78824 5.44766 7.96403 5.62346 7.96403 5.84031Z" fill="white"/>
<path d="M9.54021 5.84031C9.54021 6.05716 9.36442 6.23295 9.14757 6.23295C8.93072 6.23295 8.75493 6.05716 8.75493 5.84031C8.75493 5.62346 8.93072 5.44766 9.14757 5.44766C9.36442 5.44766 9.54021 5.62346 9.54021 5.84031Z" fill="white"/>
<path d="M1.65076 7.29803C1.65076 7.51488 1.47497 7.69067 1.25812 7.69067C1.04127 7.69067 0.865479 7.51488 0.865479 7.29803C0.865479 7.08118 1.04127 6.90538 1.25812 6.90538C1.47497 6.90538 1.65076 7.08118 1.65076 7.29803Z" fill="white"/>
<path d="M3.22694 7.29803C3.22694 7.51488 3.05115 7.69067 2.8343 7.69067C2.61745 7.69067 2.44166 7.51488 2.44166 7.29803C2.44166 7.08118 2.61745 6.90538 2.8343 6.90538C3.05115 6.90538 3.22694 7.08118 3.22694 7.29803Z" fill="white"/>
<path d="M4.80313 7.29803C4.80313 7.51488 4.62733 7.69067 4.41048 7.69067C4.19363 7.69067 4.01784 7.51488 4.01784 7.29803C4.01784 7.08118 4.19363 6.90538 4.41048 6.90538C4.62733 6.90538 4.80313 7.08118 4.80313 7.29803Z" fill="white"/>
<path d="M6.37931 7.29803C6.37931 7.51488 6.20351 7.69067 5.98666 7.69067C5.76981 7.69067 5.59402 7.51488 5.59402 7.29803C5.59402 7.08118 5.76981 6.90538 5.98666 6.90538C6.20351 6.90538 6.37931 7.08118 6.37931 7.29803Z" fill="white"/>
<path d="M7.95549 7.29803C7.95549 7.51488 7.77969 7.69067 7.56284 7.69067C7.34599 7.69067 7.1702 7.51488 7.1702 7.29803C7.1702 7.08118 7.34599 6.90538 7.56284 6.90538C7.77969 6.90538 7.95549 7.08118 7.95549 7.29803Z" fill="white"/>
<path d="M9.53167 7.29803C9.53167 7.51488 9.35588 7.69067 9.13902 7.69067C8.92217 7.69067 8.74638 7.51488 8.74638 7.29803C8.74638 7.08118 8.92217 6.90538 9.13902 6.90538C9.35588 6.90538 9.53167 7.08118 9.53167 7.29803Z" fill="white"/>
<path d="M1.6424 8.75568C1.6424 8.97254 1.46661 9.14833 1.24976 9.14833C1.03291 9.14833 0.857117 8.97254 0.857117 8.75568C0.857117 8.53883 1.03291 8.36304 1.24976 8.36304C1.46661 8.36304 1.6424 8.53883 1.6424 8.75568Z" fill="white"/>
<path d="M3.21858 8.75568C3.21858 8.97254 3.04279 9.14833 2.82594 9.14833C2.60909 9.14833 2.4333 8.97254 2.4333 8.75568C2.4333 8.53883 2.60909 8.36304 2.82594 8.36304C3.04279 8.36304 3.21858 8.53883 3.21858 8.75568Z" fill="white"/>
<path d="M4.79476 8.75568C4.79476 8.97254 4.61897 9.14833 4.40212 9.14833C4.18527 9.14833 4.00948 8.97254 4.00948 8.75568C4.00948 8.53883 4.18527 8.36304 4.40212 8.36304C4.61897 8.36304 4.79476 8.53883 4.79476 8.75568Z" fill="white"/>
<path d="M6.37094 8.75568C6.37094 8.97254 6.19515 9.14833 5.9783 9.14833C5.76145 9.14833 5.58566 8.97254 5.58566 8.75568C5.58566 8.53883 5.76145 8.36304 5.9783 8.36304C6.19515 8.36304 6.37094 8.53883 6.37094 8.75568Z" fill="white"/>
<path d="M7.94713 8.75568C7.94713 8.97254 7.77133 9.14833 7.55448 9.14833C7.33763 9.14833 7.16184 8.97254 7.16184 8.75568C7.16184 8.53883 7.33763 8.36304 7.55448 8.36304C7.77133 8.36304 7.94713 8.53883 7.94713 8.75568Z" fill="white"/>
<path d="M9.52331 8.75568C9.52331 8.97254 9.34751 9.14833 9.13066 9.14833C8.91381 9.14833 8.73802 8.97254 8.73802 8.75568C8.73802 8.53883 8.91381 8.36304 9.13066 8.36304C9.34751 8.36304 9.52331 8.53883 9.52331 8.75568Z" fill="white"/>
<path d="M1.65931 10.2134C1.65931 10.4303 1.48352 10.606 1.26667 10.606C1.04982 10.606 0.874023 10.4303 0.874023 10.2134C0.874023 9.99655 1.04982 9.82076 1.26667 9.82076C1.48352 9.82076 1.65931 9.99655 1.65931 10.2134Z" fill="white"/>
<path d="M3.23549 10.2134C3.23549 10.4303 3.0597 10.606 2.84285 10.606C2.626 10.606 2.4502 10.4303 2.4502 10.2134C2.4502 9.99655 2.626 9.82076 2.84285 9.82076C3.0597 9.82076 3.23549 9.99655 3.23549 10.2134Z" fill="white"/>
<path d="M4.81167 10.2134C4.81167 10.4303 4.63588 10.606 4.41903 10.606C4.20218 10.606 4.02638 10.4303 4.02638 10.2134C4.02638 9.99655 4.20218 9.82076 4.41903 9.82076C4.63588 9.82076 4.81167 9.99655 4.81167 10.2134Z" fill="white"/>
<path d="M6.38785 10.2134C6.38785 10.4303 6.21206 10.606 5.99521 10.606C5.77836 10.606 5.60257 10.4303 5.60257 10.2134C5.60257 9.99655 5.77836 9.82076 5.99521 9.82076C6.21206 9.82076 6.38785 9.99655 6.38785 10.2134Z" fill="white"/>
<path d="M7.96403 10.2134C7.96403 10.4303 7.78824 10.606 7.57139 10.606C7.35454 10.606 7.17875 10.4303 7.17875 10.2134C7.17875 9.99655 7.35454 9.82076 7.57139 9.82076C7.78824 9.82076 7.96403 9.99655 7.96403 10.2134Z" fill="white"/>
<path d="M9.54021 10.2134C9.54021 10.4303 9.36442 10.606 9.14757 10.606C8.93072 10.606 8.75493 10.4303 8.75493 10.2134C8.75493 9.99655 8.93072 9.82076 9.14757 9.82076C9.36442 9.82076 9.54021 9.99655 9.54021 10.2134Z" fill="white"/>
</svg>
