<svg xmlns="http://www.w3.org/2000/svg" viewBox="0 0 24 24">
  <path d="M19.225 4.508a5.15 5.15 0 0 0-7.283 0l-1.024.965a.65.65 0 0 0 .92.92l1.023-.965a3.85 3.85 0 1 1 5.445 5.444l-1.024.965a.65.65 0 0 0 .92.919l1.023-.964a5.15 5.15 0 0 0 0-7.284ZM4.508 19.225a5.15 5.15 0 0 0 7.284 0l.878-.853a.65.65 0 0 0-.919-.92l-.879.854a3.85 3.85 0 0 1-5.444-5.445l.878-.853a.65.65 0 1 0-.919-.92l-.879.854a5.15 5.15 0 0 0 0 7.283ZM5.72 5.84a.65.65 0 0 1 .92 0l11.496 11.497a.65.65 0 0 1-.92.919L5.722 6.76a.65.65 0 0 1 0-.92Z"/>
</svg>
