<svg xmlns="http://www.w3.org/2000/svg" viewBox="0 0 24 24">
  <defs/>
  <path d="M20.808 4.199c.246.258.239.67-.017.92L18.916 6.94l1.875 1.824c.256.249.263.66.017.919a.64.64 0 01-.911.017l-1.91-1.857-1.908 1.857a.64.64 0 01-.911-.017.654.654 0 01.017-.92l1.875-1.823-1.875-1.823a.654.654 0 01-.017-.919.64.64 0 01.91-.017l1.91 1.857 1.909-1.857a.64.64 0 01.91.017zM9.095 19.776c-.553.467-1.274 1.075-2.455 1.075-2.071 0-3.038-1.348-3.42-1.88-.033-.047-.062-.088-.087-.12a.65.65 0 011.034-.788c.034.044.069.092.106.143.38.52.983 1.345 2.367 1.345.683 0 1.08-.317 1.649-.796l.029-.024c.554-.468 1.277-1.077 2.464-1.077 1.98 0 3.049 1.398 3.461 1.937.058.075.103.134.135.17a.65.65 0 11-.957.88 6.665 6.665 0 01-.272-.325c-.469-.583-1.095-1.362-2.367-1.362-.688 0-1.088.317-1.655.795l-.032.027zM7.393 5.922a1.3 1.3 0 011.84 0l1.132 1.133a.7.7 0 01.007.984l-2.02 2.073a.7.7 0 01-.996.007l-1.12-1.12a1.3 1.3 0 010-1.839l1.157-1.238zM9.266 12.028a.7.7 0 01-.007-.983l2.02-2.074a.7.7 0 01.996-.006l7.432 7.432a3 3 0 01.802 1.447l.4 1.732c.216.936-.083 1.315-1.02 1.1l-1.73-.4a3.001 3.001 0 01-1.448-.802l-7.445-7.446z"/>
</svg>
