<svg xmlns="http://www.w3.org/2000/svg" viewBox="0 0 24 24">
  <defs/>
  <path d="M20.808 4.199c.246.258.239.67-.017.92L18.916 6.94l1.875 1.824c.256.249.263.66.017.919a.64.64 0 01-.911.017l-1.91-1.857-1.908 1.857a.64.64 0 01-.911-.017.654.654 0 01.017-.92l1.875-1.823-1.875-1.823a.654.654 0 01-.017-.919.64.64 0 01.91-.017l1.91 1.857 1.909-1.857a.64.64 0 01.91.017z"/>
  <path fill-rule="evenodd" d="M9.268 5.413a1.3 1.3 0 00-1.839 0L5.732 7.11a1.3 1.3 0 000 1.839L16.204 19.42a3 3 0 001.447.802l1.731.4a1.3 1.3 0 001.56-1.56l-.4-1.73a3 3 0 00-.802-1.448L9.268 5.413zm-.92.92L6.651 8.028 8.272 9.65 9.97 7.953l-1.622-1.62zm2.54 2.54l7.933 7.932a1.7 1.7 0 01.454.82l.4 1.73-1.732-.399a1.7 1.7 0 01-.82-.454L9.193 10.57l1.697-1.697z"/>
  <path d="M9.095 19.776c-.553.467-1.274 1.075-2.455 1.075-2.071 0-3.038-1.348-3.42-1.88-.033-.047-.062-.088-.087-.12a.65.65 0 011.034-.788c.034.044.069.092.106.143.38.52.983 1.345 2.367 1.345.683 0 1.08-.317 1.649-.796l.029-.024c.554-.468 1.277-1.077 2.464-1.077 1.98 0 3.049 1.398 3.461 1.937.058.075.103.134.135.17a.65.65 0 11-.957.88 6.665 6.665 0 01-.272-.325c-.469-.583-1.095-1.362-2.367-1.362-.688 0-1.088.317-1.655.795l-.032.027z"/>
</svg>
