<svg width="24" height="24" viewBox="0 0 24 24" fill="none" xmlns="http://www.w3.org/2000/svg">
<rect y="3" width="24" height="18" rx="2" fill="white"/>
<path fill-rule="evenodd" clip-rule="evenodd" d="M22 4H2C1.44772 4 1 4.44772 1 5V19C1 19.5523 1.44772 20 2 20H22C22.5523 20 23 19.5523 23 19V5C23 4.44771 22.5523 4 22 4ZM2 3C0.895431 3 0 3.89543 0 5V19C0 20.1046 0.89543 21 2 21H22C23.1046 21 24 20.1046 24 19V5C24 3.89543 23.1046 3 22 3H2Z" fill="#D6D8DE"/>
<path d="M7.42859 8.42857C7.42859 9.37534 6.66108 10.1429 5.71431 10.1429C4.76753 10.1429 4.00002 9.37534 4.00002 8.42857C4.00002 7.48179 4.76753 6.71428 5.71431 6.71428C6.66108 6.71428 7.42859 7.48179 7.42859 8.42857Z" fill="#FED443"/>
<path fill-rule="evenodd" clip-rule="evenodd" d="M5.71431 10.704L4.95138 11.8428L4.75813 10.4857L3.57663 11.1808L3.99133 9.87423L2.62527 9.9878L3.56579 8.99059L2.28574 8.5002L3.56579 8.00982L2.62527 7.0126L3.99133 7.12618L3.57663 5.81964L4.75813 6.51468L4.95138 5.15759L5.71431 6.29644L6.47724 5.15759L6.67049 6.51468L7.85199 5.81964L7.43728 7.12618L8.80334 7.0126L7.86282 8.00982L9.14288 8.5002L7.86282 8.99059L8.80334 9.9878L7.43728 9.87423L7.85199 11.1808L6.67049 10.4857L6.47724 11.8428L5.71431 10.704ZM5.71431 10.682C6.91929 10.682 7.89613 9.70519 7.89613 8.5002C7.89613 7.29522 6.91929 6.31838 5.71431 6.31838C4.50932 6.31838 3.53249 7.29522 3.53249 8.5002C3.53249 9.70519 4.50932 10.682 5.71431 10.682Z" fill="#FED443"/>
<path d="M11 5H24V7H11V5Z" fill="#0E4DC5"/>
<path d="M0 13H24V15H0V13Z" fill="#0E4DC5"/>
<path d="M11 9H24V11H11V9Z" fill="#0E4DC5"/>
<path d="M0 17H24V19H0V17Z" fill="#0E4DC5"/>
</svg>
