<svg xmlns="http://www.w3.org/2000/svg" viewBox="0 0 24 24">
  <defs/>
  <path d="M14.768 7.164a.65.65 0 010-.92l.717-.716a.65.65 0 01.92.919l-.717.717a.65.65 0 01-.92 0zM16.599 8.074a.65.65 0 00.919.92l.717-.717a.65.65 0 10-.92-.92l-.716.717z"/>
  <path fill-rule="evenodd" d="M11.588 5.875a1.3 1.3 0 00-1.75.08l-6.96 6.959a3 3 0 000 4.243l3.728 3.727a3 3 0 004.242 0l6.96-6.96a1.3 1.3 0 00.08-1.75L21.38 8.68a1.3 1.3 0 000-1.839l-4.46-4.46a1.3 1.3 0 00-1.839 0l-3.494 3.494zm-.831 1l6.131 6.13-6.959 6.96a1.7 1.7 0 01-2.404 0l-3.727-3.728a1.7 1.7 0 010-2.404l6.959-6.959zM16.002 3.3l4.46 4.46-3.46 3.461-4.461-4.46L16 3.3z"/>
</svg>
