<svg xmlns="http://www.w3.org/2000/svg" viewBox="0 0 24 24">
  <defs/>
  <path d="M10.769 6.862a1.3 1.3 0 00-1.839 0L2.88 12.914a3 3 0 000 4.243l3.727 3.727a3 3 0 004.242 0l6.052-6.052a1.3 1.3 0 000-1.838L10.77 6.862z"/>
  <path fill-rule="evenodd" d="M12.097 6.356a.7.7 0 010-.99l2.986-2.985a1.3 1.3 0 011.838 0l4.46 4.46a1.3 1.3 0 010 1.839l-2.985 2.985a.7.7 0 01-.99 0l-5.309-5.309zm3.122.358a.65.65 0 010-.92l.716-.716a.65.65 0 01.92.919l-.717.717a.65.65 0 01-.92 0zm1.83.91a.65.65 0 00.919.92l.717-.717a.65.65 0 00-.92-.92l-.716.718z"/>
</svg>
