<svg xmlns="http://www.w3.org/2000/svg" viewBox="0 0 24 24">
  <defs/>
  <path d="M6.392 7.968a4.464 4.464 0 118.871 0l-.262 2.306a4.2 4.2 0 01-8.347 0l-.262-2.306zM9.982 15c.515 0 .86.543.73 1.042a5.81 5.81 0 00-.184 1.458c0 .811.166 1.584.467 2.285.228.532-.123 1.215-.701 1.215H3.7a.7.7 0 01-.683-.852l.1-.45A6 6 0 018.974 15h1.008z"/>
  <path fill-rule="evenodd" d="M19.51 14.318a4.5 4.5 0 11-6.364 6.364 4.5 4.5 0 016.364-6.364zm-4.142 1.303a.65.65 0 00-.92.92l.96.959-.863.864a.65.65 0 00.919.919l.864-.864.96.96a.65.65 0 00.918-.92l-.96-.959.865-.864a.65.65 0 00-.92-.92l-.863.865-.96-.96z"/>
</svg>
