<svg xmlns="http://www.w3.org/2000/svg" viewBox="0 0 24 24">
  <defs/>
  <path fill-rule="evenodd" d="M11.828 3a4.464 4.464 0 00-4.436 4.968l.262 2.306a4.2 4.2 0 008.347 0l.262-2.306A4.464 4.464 0 0011.828 3zm2.881 7.127l.262-2.306a3.164 3.164 0 10-6.287 0l.262 2.306a2.9 2.9 0 005.763 0z"/>
  <path d="M9.974 15a6 6 0 00-5.857 4.698l-.1.45A.7.7 0 004.7 21h7.785a.65.65 0 100-1.3H5.457a4.7 4.7 0 014.517-3.4h2.51a.65.65 0 100-1.3h-2.51zM20.625 16.105a.65.65 0 10-.902-.937l-1.927 1.857-1.928-1.856a.65.65 0 00-.902.936l1.893 1.823-1.893 1.823a.65.65 0 00.902.937l1.928-1.857 1.927 1.857a.65.65 0 00.902-.937l-1.893-1.823 1.893-1.823z"/>
</svg>
