<svg width="24" height="24" viewBox="0 0 24 24" fill="none" xmlns="http://www.w3.org/2000/svg">
<rect y="3" width="24" height="18" rx="2" fill="white"/>
<path fill-rule="evenodd" clip-rule="evenodd" d="M22 4H2C1.44772 4 1 4.44772 1 5V19C1 19.5523 1.44772 20 2 20H22C22.5523 20 23 19.5523 23 19V5C23 4.44771 22.5523 4 22 4ZM2 3C0.895431 3 0 3.89543 0 5V19C0 20.1046 0.89543 21 2 21H22C23.1046 21 24 20.1046 24 19V5C24 3.89543 23.1046 3 22 3H2Z" fill="#D6D8DE"/>
<path fill-rule="evenodd" clip-rule="evenodd" d="M0 9H24V5C24 3.89543 23.1046 3 22 3H2C0.89543 3 0 3.89543 0 5V9Z" fill="#04AAC8"/>
<path fill-rule="evenodd" clip-rule="evenodd" d="M0 19C0 20.1046 0.895431 21 2 21H22C23.1046 21 24 20.1046 24 19V15H0V19Z" fill="#23C840"/>
<path d="M4.71429 7.42857C5.06681 7.42857 5.39448 7.32216 5.66694 7.13971C5.63537 7.1418 5.60352 7.14286 5.57143 7.14286C4.78245 7.14286 4.14286 6.50326 4.14286 5.71429C4.14286 4.92531 4.78245 4.28571 5.57143 4.28571C5.60352 4.28571 5.63537 4.28677 5.66694 4.28886C5.39448 4.10641 5.06681 4 4.71429 4C3.76751 4 3 4.76751 3 5.71429C3 6.66106 3.76751 7.42857 4.71429 7.42857Z" fill="white"/>
<path d="M7.57143 6.85714C7.57143 7.17273 7.31559 7.42857 7 7.42857C6.68441 7.42857 6.42857 7.17273 6.42857 6.85714C6.42857 6.54155 6.68441 6.28571 7 6.28571C7.31559 6.28571 7.57143 6.54155 7.57143 6.85714Z" fill="white"/>
<path d="M9.28571 5.14286C9.60131 5.14286 9.85714 4.88702 9.85714 4.57143C9.85714 4.25584 9.60131 4 9.28571 4C8.97012 4 8.71429 4.25584 8.71429 4.57143C8.71429 4.88702 8.97012 5.14286 9.28571 5.14286Z" fill="white"/>
<path d="M12.1429 4.57143C12.1429 4.88702 11.887 5.14286 11.5714 5.14286C11.2558 5.14286 11 4.88702 11 4.57143C11 4.25584 11.2558 4 11.5714 4C11.887 4 12.1429 4.25584 12.1429 4.57143Z" fill="white"/>
<path d="M11.5714 7.42857C11.887 7.42857 12.1429 7.17273 12.1429 6.85714C12.1429 6.54155 11.887 6.28571 11.5714 6.28571C11.2558 6.28571 11 6.54155 11 6.85714C11 7.17273 11.2558 7.42857 11.5714 7.42857Z" fill="white"/>
<path d="M9.85714 6.85714C9.85714 7.17273 9.60131 7.42857 9.28571 7.42857C8.97012 7.42857 8.71429 7.17273 8.71429 6.85714C8.71429 6.54155 8.97012 6.28571 9.28571 6.28571C9.60131 6.28571 9.85714 6.54155 9.85714 6.85714Z" fill="white"/>
</svg>
