<svg xmlns="http://www.w3.org/2000/svg" viewBox="0 0 24 24">
  <defs/>
  <path fill-rule="evenodd" d="M9.008 2.047a.65.65 0 01.378.838 9.057 9.057 0 00-.536 2.074 11.65 11.65 0 012.1-1.117l.915-.373a.65.65 0 11.49 1.204l-.915.373c-.634.258-1.24.578-1.81.955.73.112 1.448.292 2.145.54l.931.331a.65.65 0 11-.435 1.225l-.932-.331c-.4-.142-.807-.26-1.22-.351.387.503.733 1.038 1.034 1.6l.417.778a.65.65 0 11-1.146.613l-.417-.778a10.349 10.349 0 00-1.233-1.81l.002.194c.093 2.646.47 4.446.836 5.599.21.664.417 1.115.564 1.391.037.07.07.128.099.176A8.131 8.131 0 0112 15c2.514 0 4.254 1.032 5.452 2.354 1.689.31 2.889 1.2 3.382 1.72a.65.65 0 11-.945.894c-.416-.44-1.758-1.424-3.65-1.424-1.205 0-2.297.533-3.558 1.16l-.044.021c-1.2.597-2.561 1.273-4.123 1.273-2.579 0-4.67-1.26-5.286-1.798a.65.65 0 11.854-.98c.191.167.652.477 1.298.77.755-1.338 1.903-2.676 3.63-3.412a9.709 9.709 0 01-.638-1.574c-.408-1.29-.804-3.226-.897-6.008l-.007-.186a10.35 10.35 0 00-1.263 1.636l-.467.75a.65.65 0 01-1.103-.689l.467-.749a11.65 11.65 0 011.15-1.544 10.35 10.35 0 00-1.748.353l-.847.248a.65.65 0 01-.366-1.248l.847-.248a11.65 11.65 0 012.552-.447 10.35 10.35 0 00-1.617-.979l-.89-.432a.65.65 0 11.569-1.17l.889.433A11.65 11.65 0 017.549 4.89c.095-.78.279-1.561.621-2.465a.65.65 0 01.838-.378zM12 16.3c1.43 0 2.553.394 3.44 1.003-1.206.176-2.289.715-3.268 1.202l-.07.034c-1.258.625-2.361 1.16-3.588 1.16a7.236 7.236 0 01-1.89-.26C7.611 17.779 9.226 16.3 12 16.3zM18 10a3 3 0 100-6 3 3 0 000 6zm0-1.3a1.7 1.7 0 100-3.4 1.7 1.7 0 000 3.4z"/>
</svg>
