<svg width="24" height="24" viewBox="0 0 24 24" fill="none" xmlns="http://www.w3.org/2000/svg">
<path fill-rule="evenodd" clip-rule="evenodd" d="M0 19C0 20.1046 0.895431 21 2 21H22C23.1046 21 24 20.1046 24 19V12H0V19Z" fill="#009543"/>
<path fill-rule="evenodd" clip-rule="evenodd" d="M0 12H24V5C24 3.89543 23.1046 3 22 3H2C0.89543 3 0 3.89543 0 5V12Z" fill="#D21034"/>
<path d="M9.40002 10L0.810055 3.39233C0.318562 3.75673 0 4.34115 0 4.99998V19C0 19.6588 0.318562 20.2432 0.810055 20.6076L9.39998 14H24V10H9.40002Z" fill="#262626"/>
<path d="M0 5.00003C0 4.84169 0.0184011 4.68764 0.0531815 4.53992L8.66663 11H24V13H8.66671L0.0531815 19.4601C0.0184011 19.3124 0 19.1584 0 19V17.8334L7.77778 12L0 6.1667V5.00003Z" fill="#FDCE12"/>
</svg>
