<svg width="24" height="24" viewBox="0 0 24 24" fill="none" xmlns="http://www.w3.org/2000/svg">
<rect y="3" width="24" height="18" rx="2" fill="white"/>
<path fill-rule="evenodd" clip-rule="evenodd" d="M22 4H2C1.44772 4 1 4.44772 1 5V19C1 19.5523 1.44772 20 2 20H22C22.5523 20 23 19.5523 23 19V5C23 4.44771 22.5523 4 22 4ZM2 3C0.895431 3 0 3.89543 0 5V19C0 20.1046 0.89543 21 2 21H22C23.1046 21 24 20.1046 24 19V5C24 3.89543 23.1046 3 22 3H2Z" fill="#D6D8DE"/>
<path d="M0 19C0 20.1046 0.895431 21 2 21H12V3H2C0.895431 3 0 3.89543 0 5V19Z" fill="#FBE04B"/>
<path d="M15.0091 16.9147C15.6429 17.5889 16.4859 18 17.4111 18C18.3364 18 19.1794 17.5889 19.8132 16.9147H18.5672C18.2065 17.1155 17.8118 17.2248 17.4111 17.2248C17.0105 17.2248 16.6158 17.1155 16.2551 16.9147H15.0091Z" fill="#BF2D1B"/>
<path fill-rule="evenodd" clip-rule="evenodd" d="M15.8234 11.345L18.5278 14.0493C18.7739 13.8998 19.0629 13.8136 19.3719 13.8136C20.2711 13.8136 21 14.5425 21 15.4417C21 16.3408 20.2711 17.0697 19.3719 17.0697C18.4728 17.0697 17.7439 16.3408 17.7439 15.4417C17.7439 15.1326 17.83 14.8436 17.9796 14.5975L16.5634 13.1813L16.2161 13.4851L15.7056 12.9017L16.0139 12.6319L15.7881 12.406L15.4408 12.7099L14.9303 12.1264L15.8234 11.345ZM18.5191 15.4417C18.5191 15.9127 18.901 16.2945 19.3719 16.2945C19.8429 16.2945 20.2247 15.9127 20.2247 15.4417C20.2247 14.9707 19.8429 14.5889 19.3719 14.5889C18.901 14.5889 18.5191 14.9707 18.5191 15.4417Z" fill="#CCCCCC"/>
<path d="M18.4965 10.7901C18.4965 11.6036 18.08 12.2631 17.5662 12.2631C17.0524 12.2631 16.6358 11.6036 16.6358 10.7901C16.6358 9.97662 17.0524 9.31714 17.5662 9.31714C18.08 9.31714 18.4965 9.97662 18.4965 10.7901Z" fill="#C4C4C4"/>
<path fill-rule="evenodd" clip-rule="evenodd" d="M19.1766 11.3449L16.4722 14.0493C16.226 13.8997 15.937 13.8136 15.628 13.8136C14.7288 13.8136 13.9999 14.5425 13.9999 15.4416C13.9999 16.3408 14.7288 17.0697 15.628 17.0697C16.5271 17.0697 17.256 16.3408 17.256 15.4416C17.256 15.1326 17.1699 14.8436 17.0203 14.5975L18.4366 13.1812L18.7839 13.4851L19.2944 12.9016L18.986 12.6318L19.2119 12.406L19.5592 12.7098L20.0697 12.1264L19.1766 11.3449ZM16.4807 15.4416C16.4807 15.9126 16.0989 16.2944 15.628 16.2944C15.157 16.2944 14.7752 15.9126 14.7752 15.4416C14.7752 14.9706 15.157 14.5888 15.628 14.5888C16.0989 14.5888 16.4807 14.9706 16.4807 15.4416Z" fill="#FBE04B"/>
<path d="M18.4952 10.8677C18.496 10.842 18.4964 10.8161 18.4964 10.7901C18.4964 10.711 18.4925 10.6333 18.4849 10.5576L16.6473 10.5576C16.6398 10.6333 16.6358 10.711 16.6358 10.7901C16.6358 10.8161 16.6362 10.842 16.6371 10.8677L18.4952 10.8677Z" fill="#FBE04B"/>
<path d="M18.4849 11.0227H16.6474C16.6582 11.1304 16.6763 11.2342 16.701 11.3328H18.4313C18.4559 11.2342 18.4741 11.1304 18.4849 11.0227Z" fill="#FBE04B"/>
<path d="M16.6684 10.4025L18.4639 10.4025C18.4452 10.2936 18.4188 10.1897 18.3857 10.0924H16.7466C16.7135 10.1897 16.6871 10.2936 16.6684 10.4025Z" fill="#FBE04B"/>
</svg>
