<svg width="24" height="24" viewBox="0 0 24 24" fill="none" xmlns="http://www.w3.org/2000/svg">
<rect y="3" width="24" height="18" rx="2" fill="white"/>
<path fill-rule="evenodd" clip-rule="evenodd" d="M0 19C0 20.1046 0.895431 21 2 21H22C23.1046 21 24 20.1046 24 19V15H0V19Z" fill="#E2213B"/>
<path fill-rule="evenodd" clip-rule="evenodd" d="M0 9H24V5C24 3.89543 23.1046 3 22 3H2C0.89543 3 0 3.89543 0 5V9Z" fill="#FFD044"/>
<path fill-rule="evenodd" clip-rule="evenodd" d="M24 15H0V9H24V15ZM12 11.4286C12.3156 11.4286 12.5714 11.1728 12.5714 10.8572C12.5714 10.5416 12.3156 10.2858 12 10.2858C11.6844 10.2858 11.4286 10.5416 11.4286 10.8572C11.4286 11.1728 11.6844 11.4286 12 11.4286ZM9.71427 12.0001C10.0299 12.0001 10.2857 11.7442 10.2857 11.4286C10.2857 11.113 10.0299 10.8572 9.71427 10.8572C9.39868 10.8572 9.14284 11.113 9.14284 11.4286C9.14284 11.7442 9.39868 12.0001 9.71427 12.0001ZM14.2857 12.0001C14.6013 12.0001 14.8571 11.7442 14.8571 11.4286C14.8571 11.113 14.6013 10.8572 14.2857 10.8572C13.9701 10.8572 13.7143 11.113 13.7143 11.4286C13.7143 11.7442 13.9701 12.0001 14.2857 12.0001ZM8.57141 13.7143C8.887 13.7143 9.14284 13.4585 9.14284 13.1429C9.14284 12.8273 8.887 12.5715 8.57141 12.5715C8.25582 12.5715 7.99998 12.8273 7.99998 13.1429C7.99998 13.4585 8.25582 13.7143 8.57141 13.7143ZM15.4286 13.7143C15.7441 13.7143 16 13.4585 16 13.1429C16 12.8273 15.7441 12.5715 15.4286 12.5715C15.113 12.5715 14.8571 12.8273 14.8571 13.1429C14.8571 13.4585 15.113 13.7143 15.4286 13.7143Z" fill="#063191"/>
</svg>
