<svg xmlns="http://www.w3.org/2000/svg" viewBox="0 0 24 24">
  <defs/>
  <path fill-rule="evenodd" d="M17.568 10.16c.723 0 1.396-.213 1.96-.582l1.319 1.323a.65.65 0 00.92-.918L20.468 8.68a3.58 3.58 0 10-2.9 1.48zm0-1.3a2.28 2.28 0 100-4.56 2.28 2.28 0 000 4.56zM9.268 5.472a1.3 1.3 0 00-1.839 0L5.732 7.169a1.3 1.3 0 000 1.838L16.204 19.48a3 3 0 001.447.801l1.731.4a1.3 1.3 0 001.56-1.56l-.4-1.73a3 3 0 00-.802-1.447L9.268 5.472zm-.92.919L6.651 8.088l1.621 1.621L9.97 8.012 8.348 6.39zm2.54 2.54l7.933 7.932a1.7 1.7 0 01.454.82l.4 1.731-1.732-.4a1.7 1.7 0 01-.82-.454l-7.931-7.932 1.697-1.697z"/>
  <path d="M9.095 19.835c-.553.466-1.274 1.074-2.455 1.074-2.071 0-3.038-1.348-3.42-1.88a5.492 5.492 0 00-.087-.12.65.65 0 011.034-.787c.034.044.069.092.106.143.38.519.983 1.344 2.367 1.344.683 0 1.08-.316 1.649-.795l.029-.024c.554-.468 1.277-1.078 2.464-1.078 1.98 0 3.049 1.398 3.461 1.937.058.076.103.135.135.17a.65.65 0 11-.957.88c-.086-.094-.176-.205-.272-.325-.469-.583-1.095-1.362-2.367-1.362-.688 0-1.088.318-1.655.796l-.032.027z"/>
</svg>
