<svg xmlns="http://www.w3.org/2000/svg" viewBox="0 0 24 24">
  <defs/>
  <path d="M9.095 19.835c-.553.466-1.274 1.074-2.455 1.074-2.071 0-3.038-1.348-3.42-1.88a5.492 5.492 0 00-.087-.12.65.65 0 011.034-.787c.034.044.069.092.106.143.38.519.983 1.344 2.367 1.344.683 0 1.08-.316 1.649-.795l.029-.024c.554-.468 1.277-1.078 2.464-1.078 1.98 0 3.049 1.398 3.461 1.937.058.076.103.135.135.17a.65.65 0 11-.957.88 6.67 6.67 0 01-.272-.325c-.469-.583-1.095-1.362-2.367-1.362-.688 0-1.088.318-1.655.796l-.032.027zM7.393 5.98a1.3 1.3 0 011.84 0l1.132 1.134a.7.7 0 01.007.983l-2.02 2.074a.7.7 0 01-.996.006l-1.12-1.12a1.3 1.3 0 010-1.838L7.393 5.98zM9.266 12.087a.7.7 0 01-.007-.983l2.02-2.074a.7.7 0 01.996-.007l7.432 7.433a3 3 0 01.802 1.447l.4 1.731c.216.936-.083 1.316-1.02 1.1l-1.73-.4a3.002 3.002 0 01-1.448-.802l-7.445-7.445z"/>
  <path fill-rule="evenodd" d="M17.568 10.16c.723 0 1.396-.213 1.96-.582l1.319 1.323a.65.65 0 00.92-.918L20.468 8.68a3.58 3.58 0 10-2.9 1.48zm0-1.3a2.28 2.28 0 100-4.56 2.28 2.28 0 000 4.56z"/>
</svg>
