<svg xmlns="http://www.w3.org/2000/svg" viewBox="0 0 24 24">
  <defs/>
  <path fill-rule="evenodd" d="M14.11 3.38a1.3 1.3 0 00-1.84 0L6.644 9.009a1.3 1.3 0 000 1.839l3.304 3.304h3.848l4.623-4.623a1.3 1.3 0 000-1.839l-4.309-4.308zm1.452 4.04a.65.65 0 01.014.92l-2.95 3.038a.65.65 0 01-.921.012L9.642 9.368a.65.65 0 11.91-.928l1.596 1.564 2.495-2.57a.65.65 0 01.92-.014zM4.18 10.774c.069-.19.31-.227.452-.084l2.952 2.947a.3.3 0 01-.212.512H6a.65.65 0 100 1.3h12a.65.65 0 100-1.3h-1.74a.3.3 0 01-.209-.514l3.23-3.158c.138-.134.365-.107.445.067.176.382.274.807.274 1.255v6a3 3 0 01-3 3H7a3 3 0 01-3-3v-6c0-.36.063-.705.18-1.025z"/>
</svg>
