<svg xmlns="http://www.w3.org/2000/svg" viewBox="0 0 24 24">
  <defs/>
  <path fill-rule="evenodd" d="M8.55 14.338l-2.644-2.645a1.294 1.294 0 01-.344-.612 1.692 1.692 0 00-.262.907v6a1.7 1.7 0 001.7 1.7h10a1.7 1.7 0 001.7-1.7v-6c0-.352-.107-.678-.29-.95l-3.3 3.3h1.655a.65.65 0 110 1.3h-2.954l-.002.002H9.853l-.002-.002H7.235a.65.65 0 010-1.3H8.55zM19.334 10.1a1.3 1.3 0 00-.109-1.715l-5.005-5.005a1.3 1.3 0 00-1.839 0L6.764 8.997A3 3 0 004 11.987v6a3 3 0 003 3h10a3 3 0 003-3v-6c0-.714-.25-1.37-.667-1.886zm-8.944 4.237l-3.564-3.564L13.3 4.3l5.006 5.005-5.033 5.033H10.39zm4.966-5.565a.65.65 0 01-.02.919L12.609 12.3a.65.65 0 01-.91-.011l-1.816-1.823a.65.65 0 11.92-.918l1.368 1.372 2.265-2.167a.65.65 0 01.92.02z"/>
</svg>
