<svg width="24" height="24" viewBox="0 0 24 24" fill="none" xmlns="http://www.w3.org/2000/svg">
<rect y="3" width="24" height="18" rx="2" fill="white"/>
<path fill-rule="evenodd" clip-rule="evenodd" d="M22 4H2C1.44772 4 1 4.44772 1 5V19C1 19.5523 1.44772 20 2 20H22C22.5523 20 23 19.5523 23 19V5C23 4.44771 22.5523 4 22 4ZM2 3C0.895431 3 0 3.89543 0 5V19C0 20.1046 0.89543 21 2 21H22C23.1046 21 24 20.1046 24 19V5C24 3.89543 23.1046 3 22 3H2Z" fill="#D6D8DE"/>
<path fill-rule="evenodd" clip-rule="evenodd" d="M0 19C0 20.1046 0.895431 21 2 21H22C23.1046 21 24 20.1046 24 19V15H0V19Z" fill="#199E56"/>
<path fill-rule="evenodd" clip-rule="evenodd" d="M0 9H24V5C24 3.89543 23.1046 3 22 3H2C0.89543 3 0 3.89543 0 5V9Z" fill="#262626"/>
<path d="M17.5715 10.0323C16.5549 10.2017 15.784 11.0182 15.784 12C15.784 12.9818 16.5549 13.7983 17.5715 13.9677C17.4443 13.9889 17.3133 14 17.1795 14C15.9758 14 15 13.1046 15 12C15 10.8954 15.9758 10 17.1795 10C17.3133 10 17.4443 10.0111 17.5715 10.0323Z" fill="#B42A26"/>
<path d="M17.5088 10.5755L17.8608 11.5698H19L18.0784 12.1842L18.4304 13.1784L17.5088 12.564L16.5871 13.1784L16.9391 12.1842L16.0175 11.5698H17.1567L17.5088 10.5755Z" fill="#B42A26"/>
<path d="M0.672309 3.50427C0.259869 3.87063 0 4.40499 0 5.00004V19C0 19.5951 0.259869 20.1294 0.672309 20.4958L12 12L0.672309 3.50427Z" fill="#E6223A"/>
</svg>
