<svg width="24" height="24" viewBox="0 0 24 24" fill="none" xmlns="http://www.w3.org/2000/svg">
<rect y="3" width="24" height="18" rx="2" fill="#19BFBF"/>
<path fill-rule="evenodd" clip-rule="evenodd" d="M12 18C15.3137 18 18 15.3137 18 12C18 8.68629 15.3137 6 12 6C8.68629 6 6 8.68629 6 12C6 15.3137 8.68629 18 12 18ZM16.8791 12.5455C16.6766 14.3775 15.4659 15.9057 13.8142 16.563C14.346 15.4797 14.6568 14.0684 14.7166 12.5455H16.8791ZM13.6246 12.5455C13.545 14.3856 13.0645 16.0119 12.3154 16.8991C12.2111 16.9057 12.106 16.9091 12 16.9091C11.894 16.9091 11.7889 16.9057 11.6846 16.8991C10.9355 16.0119 10.455 14.3856 10.3754 12.5455H13.6246ZM9.28338 12.5455C9.34323 14.0684 9.65395 15.4797 10.1858 16.563C8.53407 15.9057 7.32339 14.3775 7.12087 12.5455H9.28338ZM10.3754 11.4545H13.6246C13.545 9.61442 13.0645 7.9881 12.3154 7.10088C12.2111 7.09427 12.106 7.09091 12 7.09091C11.894 7.09091 11.7889 7.09427 11.6846 7.10088C10.9355 7.9881 10.455 9.61442 10.3754 11.4545ZM10.1858 7.43702C9.65395 8.52031 9.34323 9.93161 9.28338 11.4545H7.12087C7.32339 9.6225 8.53407 8.0943 10.1858 7.43702ZM16.8791 11.4545H14.7166C14.6568 9.93161 14.346 8.52031 13.8142 7.43702C15.4659 8.0943 16.6766 9.6225 16.8791 11.4545Z" fill="white"/>
</svg>
