<svg width="24" height="24" viewBox="0 0 24 24" fill="none" xmlns="http://www.w3.org/2000/svg">
<rect y="3" width="24" height="18" rx="2" fill="#009F60"/>
<path fill-rule="evenodd" clip-rule="evenodd" d="M18.0121 6.13567C17.9334 6.13799 17.8755 6.10935 17.8547 6.06119C17.9832 5.98207 18.07 5.99972 18.1777 6.10052C18.1984 6.02171 18.1777 5.93391 18.1322 5.88127C18.0866 5.82862 18.0493 5.82862 17.9873 5.82413C17.9251 5.8198 17.863 5.8023 17.8215 5.8023C17.7609 5.66186 17.6088 5.72132 17.4627 5.77892C17.2253 5.87244 17.0119 6.0423 16.9161 6.21185C16.8723 6.28942 16.867 6.31993 16.8401 6.3639C16.8623 6.36096 16.8609 6.36096 16.8747 6.35213C16.8581 6.54522 16.836 6.72359 16.8691 6.83771C16.8278 7.00447 16.8609 7.10976 16.9105 7.1624C16.9603 7.21505 16.9809 7.23704 16.9893 7.29851C16.9975 7.35982 17.0223 7.4168 17.0638 7.45195C17.1052 7.4871 17.13 7.53975 17.1342 7.57056C17.1383 7.60122 17.2664 7.73345 17.3205 7.76798C17.3412 7.78098 17.3453 7.80746 17.3703 7.84246C17.3164 8.17598 17.5318 8.5095 17.482 8.83853C17.5193 8.84287 17.5689 8.83853 17.6188 8.82537C17.6601 9.10609 17.6849 9.2422 17.453 9.3255C17.2211 9.40896 17.0943 9.49102 17.159 9.58439C17.2045 9.6502 17.2989 9.59291 17.3578 9.53608C17.4034 9.49226 17.4571 9.45278 17.4986 9.43962C17.54 9.42645 17.5484 9.43962 17.5275 9.4966C17.5068 9.55373 17.3951 9.67652 17.3909 9.73799C17.3867 9.79946 17.4364 9.84328 17.5152 9.79497C17.5938 9.74666 17.663 9.62031 17.6808 9.54491C17.6931 9.49226 17.714 9.45711 17.7097 9.54491C17.7056 9.6327 17.6559 9.79064 17.7678 9.81696C17.8796 9.84328 17.9128 9.70284 17.8755 9.57556C17.8381 9.44844 17.8258 9.37815 17.8423 9.33433C17.8589 9.29035 17.8755 9.26418 17.9168 9.27719C17.9582 9.29035 18.0411 9.27286 18.037 9.20271C18.0327 9.13257 17.9748 9.07544 17.9085 9.11492C17.8423 9.1544 17.7926 9.14852 17.8215 9.06227C17.8423 9.0008 17.8796 8.92617 17.8837 8.87802C17.9292 8.94816 18.1859 8.95698 18.2895 8.89118C18.3144 9.02279 18.3806 9.14124 18.2358 9.26418C18.0907 9.38697 17.9748 9.50542 17.9789 9.59322C17.9832 9.68101 18.0162 9.7335 18.0907 9.68968C18.1652 9.64586 18.2108 9.58439 18.2274 9.52741C18.244 9.47027 18.2772 9.47027 18.2606 9.54057C18.244 9.61071 18.215 9.71167 18.2274 9.77314C18.2399 9.83446 18.331 9.83895 18.3682 9.78181C18.4055 9.72483 18.3971 9.6502 18.3889 9.57556C18.3806 9.50093 18.3931 9.42212 18.4096 9.39131C18.4262 9.36065 18.4593 9.31667 18.4925 9.40013C18.5257 9.48344 18.5421 9.54924 18.6084 9.57123C18.6747 9.59322 18.7243 9.5624 18.712 9.4791C18.6995 9.3958 18.6125 9.30351 18.5257 9.23337C18.4387 9.16323 18.4676 9.12808 18.4717 9.06227C18.4759 8.99647 18.4635 8.87802 18.4593 8.82537C18.538 8.88684 18.625 8.87802 18.6663 8.87802C18.7077 8.87802 18.7758 8.86455 18.7077 8.79905C18.5711 8.66744 18.6166 8.58831 18.5214 8.49185C18.4262 8.39538 18.3392 8.24612 18.3103 8.119C18.2812 7.99172 18.2174 7.75915 18.0907 7.6407C18.0203 7.57489 17.9996 7.39497 18.0162 7.18873C18.0327 6.98248 18.0369 6.7544 17.8589 6.64911C17.6808 6.54382 17.6849 6.45603 17.7429 6.3639C17.8008 6.27177 17.8753 6.18166 17.9707 6.17515C17.9921 6.17376 18.0417 6.16942 18.0618 6.15394C18.0528 6.14666 18.0383 6.13505 18.0121 6.13567Z" fill="#EA8B42"/>
<path fill-rule="evenodd" clip-rule="evenodd" d="M16.854 6.60962C16.8495 6.69881 16.8516 6.77732 16.8691 6.83771C16.8278 7.00447 16.8609 7.10976 16.9105 7.1624C16.9603 7.21505 16.9809 7.23704 16.9893 7.29851C16.9975 7.35982 17.0223 7.4168 17.0638 7.45195C17.1052 7.4871 17.13 7.53975 17.1342 7.57056C17.1383 7.60122 17.2664 7.73345 17.3205 7.76798C17.3412 7.78098 17.3453 7.80746 17.3703 7.84246C17.3478 7.98104 17.3715 8.11961 17.4038 8.25788C17.1111 8.51522 16.8222 8.39383 16.9437 8.1306C16.7007 8.3353 16.2812 8.32957 16.3751 8.1306C15.9941 8.27104 15.8781 8.15398 15.9278 8.02531C15.6076 8.15987 15.4419 8.03119 15.4861 7.93752C15.221 8.01354 15.0498 7.96678 15.0222 7.92002C14.9947 7.87326 15.0609 7.76797 15.1217 7.71532C15.0002 7.76208 14.8842 7.76208 14.7737 7.74459C14.6634 7.72694 14.691 7.69179 14.7131 7.63914C14.7352 7.5865 14.7642 7.50319 14.8525 7.42128C14.6413 7.4651 14.3763 7.49592 14.19 7.42996C14.1548 7.41757 14.0947 7.40363 14.1319 7.3643C14.1692 7.32482 14.2811 7.2282 14.4177 7.16673C14.1071 7.21504 13.519 7.25019 13.3534 7.05277C13.5149 7.08776 13.722 7.01762 13.8545 6.96064C13.3327 6.89917 12.6205 6.52183 12.6121 6.15331C12.7613 6.40771 13.0181 6.4955 13.2748 6.57447C12.9269 6.3594 12.782 6.10051 12.7696 5.92941C12.9683 6.13132 13.2706 6.3594 13.5688 6.4122C13.3575 6.29375 13.0842 5.94707 13.0097 5.70567C13.163 5.85045 13.5564 6.08301 13.8255 6.15765C13.6392 6.00405 13.337 5.63987 13.3534 5.43811C13.4238 5.51274 13.5978 5.65303 13.9538 5.87243C14.31 6.09184 14.5032 6.07574 14.7972 6.14154C14.7435 6.06552 14.6951 5.96456 14.691 5.93824C14.778 5.9514 14.8607 5.98655 15.1092 6.14882C15.3577 6.31125 15.9006 6.36095 16.2108 6.50433C16.4384 6.60962 16.7628 6.54381 16.854 6.60962Z" fill="#EA8B42"/>
<path fill-rule="evenodd" clip-rule="evenodd" d="M18.7282 8.86306C18.7418 8.8516 18.7418 8.83172 18.7077 8.79905C18.5711 8.66744 18.6166 8.58831 18.5214 8.49185C18.4262 8.39538 18.3392 8.24612 18.3103 8.119C18.2812 7.99172 18.2174 7.75915 18.0907 7.6407C18.0203 7.57489 17.9996 7.39497 18.0162 7.18873C18.0303 7.01221 18.0355 6.8198 17.925 6.70197C18.132 6.6405 18.3228 6.62719 18.3889 6.69733C18.7326 6.6052 19.0308 6.57733 19.3234 6.55704C19.6602 6.53351 20.2951 6.38146 20.748 6.0597C20.7204 6.17676 20.5658 6.35219 20.4276 6.43999C20.886 6.32293 21.4381 6.10646 21.9075 5.73795C21.9019 5.99544 21.7032 6.18837 21.5871 6.29382C21.9075 6.10646 22.3766 5.8725 22.5368 5.58001C22.6072 5.87978 22.1283 6.27183 21.8687 6.48829C22.1338 6.35374 22.4761 6.2294 22.6087 6.03044C22.6059 6.27322 22.3049 6.57454 22.0178 6.74997C22.3105 6.63307 22.6363 6.51013 22.8239 6.32881C22.846 6.57315 21.9488 7.13475 21.5043 7.28819C21.8909 7.18879 22.3932 7.05423 22.6141 6.91379C22.6031 6.9635 22.513 7.03317 22.4475 7.08396C22.1774 7.29361 21.7632 7.40618 21.5099 7.4579C21.5431 7.60422 21.4988 7.68613 21.3443 7.69774C21.1897 7.70951 20.8156 7.64664 20.6279 7.54708C20.6003 7.56458 20.5671 7.57062 20.5298 7.57495C20.712 7.71973 20.7741 7.82502 20.7368 7.88649C20.6996 7.94796 20.5692 7.93681 20.4698 7.91498C20.5484 8.14755 20.2854 8.13222 20.066 8.00045C20.153 8.11906 20.1655 8.21986 20.0453 8.24618C19.9253 8.2725 19.8299 8.26383 19.714 8.18471C19.7057 8.2725 19.6257 8.33103 19.5194 8.30177C19.8838 8.53433 19.8631 8.61919 19.801 8.70682C19.7389 8.79462 19.5215 8.77712 19.4055 8.69815C19.3559 8.87808 19.1578 8.87869 19.01 8.73547C19.0087 8.80716 18.8676 8.94946 18.7282 8.86306Z" fill="#EA8B42"/>
<path fill-rule="evenodd" clip-rule="evenodd" d="M17.0376 9.74522C17.0436 9.68979 17.0486 9.62538 17.0927 9.58434C17.137 9.54331 17.1646 9.50832 17.2032 9.5492C17.2419 9.59023 17.217 9.62832 17.1646 9.64582C17.1121 9.66331 17.0763 9.71302 17.0679 9.74522C17.0597 9.77743 17.032 9.79493 17.0376 9.74522Z" fill="#EA8B42"/>
<path fill-rule="evenodd" clip-rule="evenodd" d="M17.3384 10.0144C17.3111 9.92238 17.3247 9.80377 17.355 9.76863C17.3854 9.73348 17.4241 9.7101 17.4599 9.74525C17.4958 9.78039 17.5096 9.8301 17.4433 9.85936C17.3847 9.88522 17.3798 9.94994 17.3772 9.99686C17.3744 10.0436 17.355 10.0699 17.3384 10.0144Z" fill="#EA8B42"/>
<path fill-rule="evenodd" clip-rule="evenodd" d="M17.725 9.77752C17.7037 9.81514 17.7304 9.96766 17.8023 10.0056C17.8531 10.0325 17.8768 10.0262 17.8464 9.97633C17.8161 9.92663 17.8271 9.87987 17.8437 9.85354C17.8602 9.82722 17.8575 9.78046 17.8215 9.75708C17.7857 9.73354 17.7415 9.74825 17.725 9.77752Z" fill="#EA8B42"/>
<path fill-rule="evenodd" clip-rule="evenodd" d="M18.037 9.63993C17.9914 9.6037 17.9487 9.64721 17.932 9.67787C17.8988 9.73934 17.9238 9.82713 17.9763 9.87684C18.0287 9.92654 18.0204 9.85934 18.0038 9.83008C17.9873 9.80081 17.9845 9.74228 18.0204 9.7364C18.0562 9.73067 18.0812 9.67493 18.037 9.63993Z" fill="#EA8B42"/>
<path fill-rule="evenodd" clip-rule="evenodd" d="M18.2965 9.73942C18.2521 9.72564 18.2081 9.77457 18.2136 9.8331C18.2177 9.87676 18.222 9.9325 18.2632 9.96177C18.291 9.98128 18.3103 9.99398 18.2965 9.94133C18.2826 9.88868 18.3048 9.84471 18.3295 9.83016C18.3543 9.8156 18.3433 9.75413 18.2965 9.73942Z" fill="#EA8B42"/>
<path fill-rule="evenodd" clip-rule="evenodd" d="M18.6636 9.49077C18.6315 9.51461 18.6332 9.56989 18.6636 9.59033C18.6939 9.61077 18.7381 9.64003 18.7299 9.68974C18.7215 9.73944 18.7464 9.75709 18.7686 9.7015C18.7906 9.64592 18.7934 9.56401 18.7686 9.52592C18.7436 9.48783 18.6911 9.47033 18.6636 9.49077Z" fill="#EA8B42"/>
<path d="M20 13H24V19C24 20.1046 23.1046 21 22 21H20V13Z" fill="#EA8B42"/>
<path fill-rule="evenodd" clip-rule="evenodd" d="M16 21H20V13H16V21Z" fill="#1A1919"/>
<path fill-rule="evenodd" clip-rule="evenodd" d="M12 21H16V13H12V21Z" fill="#DB3C36"/>
</svg>
